<?xml version="1.0" encoding="utf-8"?>
<!-- Generator: Adobe Illustrator 19.2.1, SVG Export Plug-In . SVG Version: 6.00 Build 0)  -->
<svg version="1.1" id="Layer_1" xmlns="http://www.w3.org/2000/svg" xmlns:xlink="http://www.w3.org/1999/xlink" x="0px" y="0px"
	 viewBox="0 0 477.5 477.5" style="enable-background:new 0 0 477.5 477.5;" xml:space="preserve">
<style type="text/css">
	.st0{fill:none;stroke:#000000;stroke-width:8;stroke-miterlimit:10;}
	.st1{fill:#FFFFFF;stroke:#000000;stroke-width:8;stroke-miterlimit:10;}
	.st2{stroke:#000000;stroke-width:8;stroke-miterlimit:10;}
</style>
<path class="st0" d="M368.7,341.6l-23.6-18.8l-0.3-10.1l-18-13.9l-0.1-11.3l-12.8-10c0,0,10.2-25.5-1.9-31.8c0,0-69.1-47.7-84-58
	c-9.7-6.7-44.7,0.6-47.1-1c-10.8-7.4-29-22.5-29-22.5l-21.1-14L102,125.5c-4.9-3.8-14.3,0.1-21,8.7s-8.1,18.7-3.2,22.5l33.2,19
	l16.7,19.7c0,0,22.6,16.1,29,22.5c2.1,2.1,3.8,37.7,12.7,45.4c17.8,15.4,77.1,66.9,77.1,66.9c12.7,6.8,31.8-5.3,31.8-5.3l12.3,10.1
	l10.9-3.1l18,13.7l9.8-2.3l23.9,18.4"/>
<path class="st0" d="M311.9,245.8c-13.3-10.3-38.7,0.2-56.8,23.5s-21.9,50.6-8.6,60.9"/>
<path class="st1" d="M228,187.7c-11.9-9.2-34.7,0.2-50.9,21.1s-19.6,45.3-7.7,54.5"/>
<path class="st0" d="M180.9,186.7c-4.9-3.8-14.3,0.1-21,8.7c-6.7,8.6-8.1,18.7-3.2,22.5"/>
<path class="st0" d="M151.9,164.3c-4.9-3.8-14.3,0.1-21,8.7c-6.7,8.6-8.1,18.7-3.2,22.5"/>
<path class="st0" d="M130.8,150.3c-4-3.1-11.7,0.1-17.2,7.1s-6.6,15.3-2.6,18.4"/>
<path class="st0" d="M313.9,277.5l-5.8-4.5c-7.3-5.7-21.4,0.1-31.4,13s-12.1,27.9-4.8,33.6l6.3,5.2"/>
<path class="st0" d="M326.7,287.5c-7.3-5.7-21.4,0.1-31.4,13s-12.1,27.9-4.8,33.6"/>
<path class="st0" d="M344.8,312.7c-5.2-4-15,0.1-22,9.1s-8.5,19.6-3.3,23.6"/>
<path class="st0" d="M326.9,298.8c-5.2-4-15,0.1-22,9.1s-8.5,19.6-3.3,23.6"/>
<path class="st0" d="M329.3,343.2c-3.2-2.5-2.3-9.1,2.1-14.7s10.5-8.2,13.8-5.7"/>
<ellipse transform="matrix(0.6129 -0.7902 0.7902 0.6129 -137.9534 421.4314)" class="st2" cx="361.1" cy="351.5" rx="12.9" ry="7.4"/>
</svg>
