<svg id="Layer_12" data-name="Layer 12" xmlns="http://www.w3.org/2000/svg" viewBox="0 0 477.5 477.5"><defs><style>.cls-1{fill:#fff;}</style></defs><title>AABatteries</title><g id="Layer_13" data-name="Layer 13"><g id="Layer_14" data-name="Layer 14"><path class="cls-1" d="M147.46,151.77c-9.31-9.31-13.65-22.39-12.22-36.85,1.39-14.16,8.19-28,19.13-38.92,12.32-12.32,28.42-19.39,44.18-19.39,12.32,0,23.54,4.43,31.59,12.48L399.9,238.86l-82.68,82.68Z"/><path d="M198.54,60.61c10.91,0,21.16,3.7,28.77,11.31L394.24,238.86l-77,77L150.29,148.94c-17.46-17.46-14.37-48.85,6.9-70.12,12-12,27.23-18.21,41.35-18.21m0-8v0c-16.81,0-33.95,7.49-47,20.56-11.59,11.59-18.79,26.28-20.28,41.36-1.54,15.67,3.21,29.9,13.37,40.07L311.57,321.53l5.66,5.66,5.66-5.66,77-77,5.66-5.66-5.66-5.66L233,66.26c-8.81-8.81-21-13.65-34.42-13.65h0Z"/><path class="cls-1" d="M345.82,332.06c-12.52,0-23.92-4.5-32.1-12.68-19.29-19.29-16.14-53.84,7-77,12.52-12.52,28.89-19.71,44.9-19.71,12.52,0,23.92,4.5,32.1,12.68,19.29,19.29,16.14,53.84-7,77C378.2,324.88,361.84,332.06,345.82,332.06Z"/><path d="M365.65,226.67c11.1,0,21.53,3.77,29.27,11.51,17.76,17.76,14.62,49.7-7,71.35-12.21,12.21-27.7,18.53-42.07,18.53-11.1,0-21.53-3.77-29.27-11.51-17.76-17.76-14.62-49.7,7-71.35,12.21-12.21,27.7-18.53,42.07-18.53m0-8v0h0c-17.07,0-34.47,7.61-47.73,20.88-11.77,11.77-19.09,26.69-20.59,42-1.57,15.9,3.25,30.34,13.57,40.66,8.93,8.93,21.34,13.85,34.93,13.85,17.07,0,34.46-7.61,47.73-20.88,11.77-11.77,19.09-26.69,20.59-42,1.57-15.9-3.25-30.34-13.57-40.66-8.93-8.93-21.34-13.85-34.92-13.85h0Z"/><path class="cls-1" d="M352.94,297.87a15.59,15.59,0,0,1-11.32-4.39c-7-7-5.49-19.95,3.39-28.83,4.95-4.95,11.33-7.79,17.51-7.79a15.59,15.59,0,0,1,11.32,4.39c3.29,3.29,4.81,8,4.29,13.32a25.81,25.81,0,0,1-7.69,15.51C365.5,295,359.12,297.87,352.94,297.87Z"/><path d="M362.53,252.86v8a11.81,11.81,0,0,1,8.49,3.22c5.36,5.36,3.81,16-3.39,23.17-4.2,4.2-9.55,6.61-14.68,6.61a11.81,11.81,0,0,1-8.49-3.22c-5.36-5.36-3.81-16,3.39-23.17,4.2-4.2,9.55-6.61,14.68-6.61v-8m0,0c-6.95,0-14.44,3.06-20.34,9-10.46,10.46-12,25.9-3.39,34.48a19.66,19.66,0,0,0,14.15,5.56c6.95,0,14.44-3.06,20.34-9,10.46-10.46,12-25.9,3.39-34.48a19.66,19.66,0,0,0-14.15-5.56h0Z"/><path class="cls-1" d="M357.95,302.87a15.59,15.59,0,0,1-11.32-4.39c-7-7-5.49-19.95,3.39-28.83,4.95-4.95,11.33-7.79,17.51-7.79a15.59,15.59,0,0,1,11.32,4.39c3.29,3.29,4.81,8,4.29,13.32a25.81,25.81,0,0,1-7.69,15.51C370.51,300,364.12,302.87,357.95,302.87Z"/><path d="M367.53,257.87v8a11.81,11.81,0,0,1,8.49,3.22c5.36,5.36,3.81,16-3.39,23.17-4.2,4.2-9.55,6.61-14.68,6.61a11.81,11.81,0,0,1-8.49-3.22c-5.36-5.36-3.81-16,3.39-23.17,4.2-4.2,9.55-6.61,14.68-6.61v-8m0,0c-6.95,0-14.44,3.06-20.34,9-10.46,10.46-12,25.9-3.39,34.48a19.66,19.66,0,0,0,14.15,5.56c6.95,0,14.44-3.06,20.34-9,10.46-10.46,12-25.9,3.39-34.48a19.66,19.66,0,0,0-14.15-5.56h0Z"/></g><g id="Layer_15" data-name="Layer 15"><path class="cls-1" d="M76.07,213.54c-9.31-9.31-13.65-22.39-12.22-36.85,1.39-14.16,8.19-28,19.13-38.92,12.32-12.32,28.42-19.39,44.18-19.39,12.32,0,23.54,4.43,31.59,12.48L328.52,300.63,245.84,383.3Z"/><path d="M127.16,122.38c10.91,0,21.16,3.7,28.77,11.31L322.86,300.63l-77,77L78.9,210.71c-17.46-17.46-14.37-48.85,6.9-70.12,12-12,27.23-18.21,41.35-18.21m0-8v0c-16.81,0-33.95,7.49-47,20.56-11.59,11.59-18.79,26.28-20.28,41.36-1.54,15.67,3.21,29.9,13.37,40.07L240.19,383.3l5.66,5.66,5.66-5.66,77-77,5.66-5.66L328.52,295,161.58,128c-8.81-8.81-21-13.65-34.42-13.65h0Z"/><path class="cls-1" d="M274.44,393.83c-12.52,0-23.92-4.5-32.1-12.68-19.29-19.29-16.14-53.84,7-77,12.52-12.52,28.89-19.7,44.9-19.7,12.52,0,23.92,4.5,32.1,12.68,19.29,19.29,16.14,53.84-7,77C306.82,386.65,290.45,393.83,274.44,393.83Z"/><path d="M294.27,288.44c11.1,0,21.53,3.77,29.27,11.51,17.76,17.76,14.62,49.7-7,71.35-12.21,12.21-27.7,18.53-42.07,18.53-11.1,0-21.53-3.77-29.27-11.51-17.76-17.76-14.62-49.7,7-71.35,12.21-12.21,27.7-18.53,42.07-18.53m0-8v0h0c-17.07,0-34.47,7.61-47.73,20.88-11.77,11.77-19.09,26.69-20.59,42-1.57,15.9,3.25,30.34,13.57,40.66,8.93,8.93,21.34,13.85,34.93,13.85,17.07,0,34.46-7.61,47.73-20.88,11.77-11.77,19.09-26.69,20.59-42,1.57-15.9-3.25-30.34-13.57-40.66-8.93-8.93-21.34-13.85-34.92-13.85h0Z"/><path class="cls-1" d="M280.56,358.64a15.59,15.59,0,0,1-11.32-4.39c-3.29-3.29-4.81-8-4.29-13.32a25.81,25.81,0,0,1,7.69-15.51c4.95-4.95,11.33-7.79,17.51-7.79A15.59,15.59,0,0,1,301.46,322c3.29,3.29,4.81,8,4.29,13.32a25.81,25.81,0,0,1-7.69,15.51C293.12,355.8,286.74,358.64,280.56,358.64Z"/><path d="M290.15,313.63v8a11.81,11.81,0,0,1,8.49,3.22c5.36,5.36,3.81,16-3.39,23.17-4.2,4.2-9.55,6.61-14.68,6.61a11.81,11.81,0,0,1-8.49-3.22c-5.36-5.36-3.81-16,3.39-23.17,4.2-4.2,9.55-6.61,14.68-6.61v-8m0,0c-6.95,0-14.44,3.06-20.34,9-10.46,10.46-12,25.9-3.39,34.48a19.66,19.66,0,0,0,14.15,5.56c6.95,0,14.44-3.06,20.34-9,10.46-10.46,12-25.9,3.39-34.48a19.66,19.66,0,0,0-14.15-5.56h0Z"/><path class="cls-1" d="M285.56,363.64a15.59,15.59,0,0,1-11.32-4.39c-3.29-3.29-4.81-8-4.29-13.32a25.81,25.81,0,0,1,7.69-15.51c4.95-4.95,11.33-7.79,17.51-7.79A15.59,15.59,0,0,1,306.47,327c3.29,3.29,4.81,8,4.29,13.32a25.81,25.81,0,0,1-7.69,15.51C298.12,360.81,291.74,363.64,285.56,363.64Z"/><path d="M295.15,318.64v8a11.81,11.81,0,0,1,8.49,3.22c5.36,5.36,3.81,16-3.39,23.17-4.2,4.2-9.55,6.61-14.68,6.61a11.81,11.81,0,0,1-8.49-3.22c-5.36-5.36-3.81-16,3.39-23.17,4.2-4.2,9.55-6.61,14.68-6.61v-8m0,0c-6.95,0-14.44,3.06-20.34,9-10.46,10.46-12,25.9-3.39,34.48a19.66,19.66,0,0,0,14.15,5.56c6.95,0,14.44-3.06,20.34-9,10.46-10.46,12-25.9,3.39-34.48a19.66,19.66,0,0,0-14.15-5.56h0Z"/></g></g></svg>