<?xml version="1.0" encoding="utf-8"?>
<!-- Generator: Adobe Illustrator 19.1.0, SVG Export Plug-In . SVG Version: 6.00 Build 0)  -->
<svg version="1.1" id="Layer_1" xmlns="http://www.w3.org/2000/svg" xmlns:xlink="http://www.w3.org/1999/xlink" x="0px" y="0px"
	 viewBox="0 0 211.6 184.3" style="enable-background:new 0 0 211.6 184.3;" xml:space="preserve">
<style type="text/css">
	.st0{fill:#F4F4F4;}
	.st1{fill:#FFFFFF;}
	.st2{fill:#EFEFEF;}
	.st3{fill:#7F7371;}
</style>
<g id="Title_1_">
	
		<rect x="10.7" y="11.1" transform="matrix(0.9975 -7.028201e-02 7.028201e-02 0.9975 -6.2124 7.66)" class="st0" width="190" height="162.1"/>
	
		<rect x="21.9" y="22.3" transform="matrix(0.9975 -7.028201e-02 7.028201e-02 0.9975 -6.2124 7.66)" class="st1" width="167.7" height="139.7"/>
	<polygon class="st2" points="206.3,166.3 194.8,4.6 184.3,16.4 194.3,155.9 27.1,167.8 16.7,179.7 	"/>
	<g>
		<path class="st3" d="M61.6,102.3c0-5.2,0-8.4-0.1-9.4c-0.1-0.7-0.2-1.4-0.2-2c-0.2-3.6-0.2-7.3,0.1-11.3c0.2-1.2,0.5-1.8,1-1.8
			l0.1,0c0.7,0.3,1.4,1.1,2,2.5c1.7,4.1,3.1,9.5,4.2,16.1c0.6,2.1,0.9,4,1,5.6c-0.1,0.2-0.2,0.3-0.5,0.3c-0.2-0.4-0.7-2.3-1.3-5.8
			c-0.1-0.4-0.5-2-1.1-4.9l-0.6,0c-2.6,0.4-4,0.8-3.9,1.1l0.2,2.9l0,6.9c0.1,0.2,0.2,0.3,0.2,0.5c0,0.1-0.1,0.2-0.3,0.4
			C61.9,103.1,61.7,102.8,61.6,102.3z M62.2,91.4c1.5-0.5,3-0.9,4.5-1l0-0.1c-0.1-1.5-1.2-5-3.2-10.5c-0.4-0.8-0.7-1.2-1-1.3
			c-0.5,2.8-0.6,6.4-0.3,10.8c0,0,0,0.6,0.1,1.8L62.2,91.4z"/>
		<path class="st3" d="M73.3,76.2c0.8-0.7,1.6-1.2,2.4-1.2c1.5-0.1,2.6,1.4,3.2,4.6l0.1,1.4c-0.1,1.7-0.8,3.7-2,5.7
			c0,0-0.2,0.2-0.4,0.5l0,0.1c1,0.3,1.9,1,2.6,2c0.7,0.9,1.3,2.4,1.7,4.4c0.2,2.6-0.2,4.8-1.2,6.6c-0.6,0.8-1.3,1.3-2,1.6l-0.1,0
			c-0.7,0-1.1-0.8-1.2-2.4c-1.2-8.5-1.9-15-2.3-19.6C73.8,78.6,73.6,77.4,73.3,76.2z M74.1,76.5c0.6,3,1.1,7.4,1.5,13.1
			c0.4,2.3,0.9,6.1,1.5,11.3l0.3,0.3c1-0.5,1.7-1.3,2-2.4c0.5-1.7,0.7-3.4,0.5-5c-0.6-2.3-1-3.5-1.2-3.5c-0.4-0.9-1.2-1.7-2.4-2.3
			c-0.4,0-0.7-0.1-0.9-0.4l0-0.2c1.5-1.9,2.4-4,2.7-6.2L78.1,80c-0.5-2.9-1.3-4.4-2.4-4.3C75.1,75.8,74.6,76,74.1,76.5z"/>
		<path class="st3" d="M85.1,90.9c-0.5-6.9,0-11.8,1.6-14.6c0.4-0.4,0.8-0.6,1.2-0.6c1.4-0.1,2.7,3.2,4,9.8c0.1,0.6,0.2,1.4,0.2,2.4
			l0,0.3c0,0.2,0,0.4,0,0.7c0.1,0.1,0.1,0.2,0.1,0.5l0,0.1c0,0.3,0,0.5,0,0.5c0.1,0.3,0.1,0.4,0.1,0.4c0.4,5.2-0.1,8.5-1.5,9.8
			c-0.5,0.2-0.8,0.4-1,0.4l-0.5,0c-1.8-0.3-3.1-2.5-3.8-6.7L85.1,90.9z M85.8,90.7c0.2,2.8,0.7,5.2,1.6,7.3c0.8,1.3,1.5,2,2,1.9
			l0.1,0c1-0.1,1.6-0.8,1.8-2.2c0.5-1.3,0.5-4.1,0.2-8.3l-0.1-1.5c-0.2-2.9-1-6.2-2.3-9.9c-0.4-0.8-0.8-1.3-1.2-1.6
			c-0.6,0.3-0.9,0.6-1,0.9C85.8,80.4,85.4,84.8,85.8,90.7z"/>
		<path class="st3" d="M97.2,74.6l0.3-0.2l0.1,0c0.3,0.1,0.4,0.3,0.4,0.6l0,0.4c1,8,2,14.4,3,19.3c0.7,3.3,1.4,4.9,2.3,4.8
			c0.6-0.3,0.9-0.8,0.9-1.5c-0.1-1.9-0.7-6.8-1.6-14.6c-0.1-1.4-0.1-2.8-0.2-4.2l-0.1-1.8l-0.1-0.4l0.1-0.2
			c-0.1-0.7-0.2-1.3-0.4-2.1l0.3-0.2l0.2,0c0.2,0,0.4,0.7,0.6,2c0,0.1,0,0.1-0.1,0.2c0.1,0.7,0.2,1.3,0.2,1.6l0.2,2.4l0,0.4
			c0,0,0,0.1,0.1,0.1c0,0.6,0,1,0,1.3l0,0.3c1,8.6,1.6,13.6,1.7,15.1c0,1.4-0.6,2.2-1.8,2.3c-1.3,0.1-2.4-2.2-3.2-6.9
			C99.2,89,98.3,82.8,97.2,74.6z"/>
		<path class="st3" d="M108.3,76c0-0.1,0.1-0.2,0.3-0.3c0.4,0.1,0.6,0.1,0.6,0.1c0.9-0.2,1.6-0.2,2-0.3l3-0.2c0.6,0,1.3-0.1,1.9-0.3
			l0.2,0.2l0,0.2c0,0.2-0.7,0.4-2.1,0.5l-2.1,0.1c-0.1,0-0.1,0.1-0.2,0.3l0.4,3.4c0,0.3,0,0.5,0,0.5c1,7.4,1.6,12.8,1.8,16
			c0.1,0.1,0.1,0.1,0.1,0.2c0,0.1-0.1,0.1-0.1,0.2l0.1,0.4c-0.1,0.2-0.1,0.3-0.2,0.3l-0.3,0c0,0-0.2-0.1-0.3-0.2c0-0.1,0-0.3,0-0.7
			c-0.1-1.1-0.7-6.4-1.8-15.9c-0.1-1.6-0.3-3-0.4-4.3l-0.2-0.1l-0.2,0l-2.4,0.4C108.4,76.4,108.4,76.2,108.3,76z"/>
		<path class="st3" d="M129.4,72.7l0.4-0.3c0.3,0.1,2.2,3.9,5.6,11.5l0.2,0c0-0.5,0.9-4.4,2.9-11.7l0.2,0l0.2,0.3l0.1,0.7
			c0.2,4.4,0.4,8.2,0.6,11.2c0.1,1.2,0.6,5.4,1.5,12.7l-0.4,0.3c-0.3,0-0.9-4-1.7-12l-0.6-9.1l-0.2,0c-1.4,5.7-2.2,8.6-2.4,8.8
			c-0.4,0-2-3.1-4.7-9.4l-0.2,0l0,0.2l2.5,21.3l-0.4,0.3c-0.3,0-0.4-0.1-0.4-0.4C131.1,84.3,130.1,76.2,129.4,72.7z"/>
		<path class="st3" d="M144,71.9l0.3-0.2l0.8-0.1c0.3,0,0.7-0.1,1.2-0.2l0.2,0.1c0,0,0.1,0,0.1-0.1c1.6,0,2.4,0.2,2.4,0.4l0,0.1
			c-0.1,0.3-0.2,0.4-0.3,0.4l-2.2-0.1c-0.1,0-0.6,0.1-1.5,0.2l0.1,0.9c0.1,0.8,0.4,4.1,1.1,9.7l0.5,0c0.4,0,0.7-0.1,1-0.1
			c1.1,0,1.9,0,2.5,0l0.2,0.3l0,0.2c0,0.1-0.1,0.2-0.3,0.2c-0.4,0-1.2,0-2.2,0c-0.7,0.1-1.2,0.2-1.7,0.2l0,0.3
			c0.2,3.5,0.7,7.5,1.4,12c0,0,0.1,0,0.1,0.1c1.9-0.2,3-0.4,3.3-0.4c0.2,0,0.4,0.2,0.5,0.3l0,0.1c0,0.1-0.1,0.2-0.3,0.3
			c-1.9,0.2-3,0.3-3.4,0.4c-0.6,0-0.9-0.3-1-0.9c-0.7-4.7-1.1-8.6-1.3-11.7l-0.2-2.4c-0.6-4.3-0.9-7.3-1-8.8
			C144.1,72.4,144,72,144,71.9z"/>
	</g>
</g>
<g>
</g>
<g>
</g>
<g>
</g>
<g>
</g>
<g>
</g>
<g>
</g>
</svg>
