<?xml version="1.0" encoding="utf-8"?>
<!-- Generator: Adobe Illustrator 19.2.1, SVG Export Plug-In . SVG Version: 6.00 Build 0)  -->
<svg version="1.1" id="Layer_1" xmlns="http://www.w3.org/2000/svg" xmlns:xlink="http://www.w3.org/1999/xlink" x="0px" y="0px"
	 viewBox="0 0 477.5 477.5" style="enable-background:new 0 0 477.5 477.5;" xml:space="preserve">
<style type="text/css">
	.st0{fill:none;stroke:#000000;stroke-width:8;stroke-miterlimit:10;}
	.st1{fill:url(#SVGID_1_);}
	.st2{fill:url(#SVGID_2_);}
</style>
<g id="Layer_11">
	<g>
		<path d="M403.7,66.7v224.5L158,372.6v-3.1l239.1-78l5.5-1.8v-5.8l-0.5-216.8L403.7,66.7 M411.7,56.1L394.1,61l0.6,222.9L150,363.7
			v20L411.7,297V56.1L411.7,56.1z"/>
	</g>
	<line class="st0" x1="154.4" y1="367.2" x2="-28.4" y2="184.4"/>
	<line class="st0" x1="153.1" y1="380.8" x2="-10.1" y2="217.6"/>
	<line class="st0" x1="396.9" y1="286.2" x2="92.1" y2="-18.6"/>
	<line class="st0" x1="397.7" y1="64.3" x2="288.3" y2="-45.1"/>
	<line class="st0" x1="408.9" y1="58.9" x2="312.8" y2="-37"/>
</g>
<linearGradient id="SVGID_1_" gradientUnits="userSpaceOnUse" x1="221.65" y1="424.58" x2="221.65" y2="479.18" gradientTransform="matrix(1 0 0 -1 0 479.1801)">
	<stop  offset="0" style="stop-color:#FFFFFF;stop-opacity:0"/>
	<stop  offset="8.192581e-02" style="stop-color:#FFFFFF;stop-opacity:8.192581e-02"/>
	<stop  offset="1" style="stop-color:#FFFFFF"/>
</linearGradient>
<rect y="0" class="st1" width="443.3" height="54.6"/>
<linearGradient id="SVGID_2_" gradientUnits="userSpaceOnUse" x1="-1459.9762" y1="764.6489" x2="-1459.9762" y2="819.2489" gradientTransform="matrix(4.489700e-11 -1 -1 -4.489700e-11 819.2489 -1285.4261)">
	<stop  offset="0" style="stop-color:#FFFFFF;stop-opacity:0"/>
	<stop  offset="8.192581e-02" style="stop-color:#FFFFFF;stop-opacity:8.192581e-02"/>
	<stop  offset="1" style="stop-color:#FFFFFF"/>
</linearGradient>
<polygon class="st2" points="54.6,1.3 54.6,347.8 0,347.8 0,1.3 "/>
</svg>
