<?xml version="1.0" encoding="utf-8"?>
<!-- Generator: Adobe Illustrator 19.2.1, SVG Export Plug-In . SVG Version: 6.00 Build 0)  -->
<svg version="1.1" id="Layer_1" xmlns="http://www.w3.org/2000/svg" xmlns:xlink="http://www.w3.org/1999/xlink" x="0px" y="0px"
	 viewBox="0 0 477.5 477.5" style="enable-background:new 0 0 477.5 477.5;" xml:space="preserve">
<style type="text/css">
	.st0{fill:#FFFFFF;stroke:#000000;stroke-width:8;stroke-miterlimit:10;}
	.st1{fill:none;stroke:#000000;stroke-width:8;stroke-miterlimit:10;}
	.st2{fill:#FFFFFF;}
</style>
<g>
	<path d="M318.4,94.4v306.5H284h-3.2l-2.3,2.2l-8,7.8h-94.6l-6.7-7.4l-2.4-2.6h-3.5H160V94.4H318.4 M326.4,86.4H152v322.5h11.2
		l9.1,10h101.4l10.4-10h42.4V86.4H326.4z"/>
</g>
<rect x="259.1" y="64.3" class="st0" width="38.6" height="52.4"/>
<rect x="163.2" y="74.8" class="st0" width="27.6" height="50.8"/>
<rect x="222.1" y="230.4" class="st1" width="45.5" height="45.5"/>
<rect x="233.5" y="319.5" class="st1" width="20.1" height="20.1"/>
<g>
	<polygon points="326.4,393.6 172.8,393.6 172.8,408.9 326.4,408.9 	"/>
</g>
<g>
	<polygon points="318.4,138.4 309.4,138.4 309.4,393.6 318.4,393.6 	"/>
</g>
<g>
	<polygon points="167.9,174.5 160,174.5 160,393.6 167.9,393.6 	"/>
</g>
<g>
	<rect x="263.1" y="142.4" class="st2" width="10.3" height="11.4"/>
	<path d="M269.4,146.4v3.4h-2.3v-3.4H269.4 M277.4,138.4h-18.3v19.4h18.3V138.4L277.4,138.4z"/>
</g>
<g>
	<circle class="st2" cx="181.9" cy="145.7" r="6.1"/>
	<path d="M181.9,143.7c1.1,0,2.1,0.9,2.1,2.1c0,1.1-0.9,2.1-2.1,2.1s-2.1-0.9-2.1-2.1C179.8,144.6,180.7,143.7,181.9,143.7
		 M181.9,135.7c-5.6,0-10.1,4.5-10.1,10.1s4.5,10.1,10.1,10.1s10.1-4.5,10.1-10.1S187.4,135.7,181.9,135.7L181.9,135.7z"/>
</g>
<g>
	<circle class="st2" cx="181.9" cy="169.8" r="6.1"/>
	<path d="M181.9,167.7c1.1,0,2.1,0.9,2.1,2.1c0,1.1-0.9,2.1-2.1,2.1s-2.1-0.9-2.1-2.1C179.8,168.6,180.7,167.7,181.9,167.7
		 M181.9,159.7c-5.6,0-10.1,4.5-10.1,10.1s4.5,10.1,10.1,10.1s10.1-4.5,10.1-10.1S187.4,159.7,181.9,159.7L181.9,159.7z"/>
</g>
<g>
	<path class="st2" d="M237.6,158.9c-1.8,0-3.2-1.5-3.2-3.2v-20.8c0-1.8,1.5-3.2,3.2-3.2c1.8,0,3.2,1.5,3.2,3.2v20.8
		C240.9,157.5,239.4,158.9,237.6,158.9z"/>
	<path d="M237.6,127.7L237.6,127.7c-4,0-7.2,3.3-7.2,7.2v20.8c0,4,3.3,7.2,7.2,7.2l0,0c4,0,7.2-3.3,7.2-7.2v-20.8
		C244.9,130.9,241.6,127.7,237.6,127.7L237.6,127.7z"/>
</g>
</svg>
