<?xml version="1.0" encoding="utf-8"?>
<!-- Generator: Adobe Illustrator 19.2.1, SVG Export Plug-In . SVG Version: 6.00 Build 0)  -->
<svg version="1.1" id="Layer_1" xmlns="http://www.w3.org/2000/svg" xmlns:xlink="http://www.w3.org/1999/xlink" x="0px" y="0px"
	 viewBox="0 0 477.5 477.5" style="enable-background:new 0 0 477.5 477.5;" xml:space="preserve">
<style type="text/css">
	.st0{fill:#FFFFFF;}
</style>
<g>
	<path d="M59.5,72.8c6.1,0,12,1.6,17.3,4.6l283.6,182.8l1.6,8.2l-53.5,68L35.1,141.2l-0.1-0.1l-0.1-0.1c-8-5.3-13.4-13.8-14.9-23.3
		c-1.2-7.5,0.2-15.3,3.9-22l2.3-4.2c4.2-7.5,10.9-13.1,19.1-15.9l3.2-1.1C52,73.4,55.7,72.8,59.5,72.8 M59.5,64.8
		c-4.6,0-9.1,0.7-13.5,2.2l-3.2,1.1c-10,3.4-18.4,10.3-23.5,19.6L17,91.9c-4.6,8.3-6.3,17.8-4.8,27.1l0,0
		c1.8,11.7,8.5,22.1,18.4,28.7L310,347.4l60.5-76.9l-3-15.1L80.9,70.6C74.3,66.8,66.9,64.8,59.5,64.8L59.5,64.8z"/>
</g>
<g>
	<path class="st0" d="M299.5,372.4c-3.7-3.3-5.4-8.4-4.4-13.3l12.1-62.7c1.8-9.4,7.5-17.8,15.7-22.9l54-33.9
		c1.2-0.8,2.7-1.2,4.2-1.2c1.2,0,2.3,0.3,3.3,0.8l27.6,12.4L342,290c-5.5,3-9.3,8.3-10.3,14.5L317,389.1L299.5,372.4z"/>
	<path d="M381,242.4c0.6,0,1.1,0.1,1.6,0.4h0.1h0.1l20.2,9.1l-62.8,34.5c-6.6,3.6-11.1,9.9-12.4,17.3L314.3,381l-12-11.5l-0.1-0.1
		l-0.1-0.1c-2.6-2.4-3.9-6-3.2-9.5l12.1-62.7c1.6-8.3,6.7-15.7,13.9-20.2l54-33.9C379.5,242.6,380.2,242.4,381,242.4 M381,234.4
		c-2.2,0-4.4,0.6-6.3,1.8l-54,33.9c-9.1,5.7-15.4,15-17.5,25.5l-12.1,62.7c-1.2,6.3,0.9,12.7,5.7,17l22.9,21.8l16-92
		c0.9-4.9,3.9-9.2,8.3-11.6l76.9-42.2L386,235.6C384.4,234.8,382.7,234.4,381,234.4L381,234.4z"/>
</g>
<g>
	<path d="M419.4,264.1L419.4,264.1c4.1,0,8.1,1.2,11.6,3.5l17.2,11.4c6.6,4.4,10.2,12,9.3,19.9l-6.4,57.7
		c-0.6,5.4-3.2,10.3-7.4,13.8l-54,45.2c-3.8,3.2-8.6,4.9-13.5,4.9c-4.1,0-8.1-1.2-11.5-3.4l-25.2-16.5c-6.8-4.4-10.5-12.5-9.3-20.6
		l9.3-65.7c0.9-6.6,5-12.4,10.8-15.5l59.1-32.1C412.4,264.9,415.9,264.1,419.4,264.1 M419.4,256.1c-4.8,0-9.5,1.2-13.9,3.5
		l-59.1,32.1c-8.1,4.4-13.6,12.3-14.9,21.5l-9.3,65.7c-1.6,11.2,3.4,22.2,12.9,28.4l25.2,16.5c4.8,3.2,10.4,4.7,15.9,4.7
		c6.7,0,13.3-2.3,18.6-6.8l54-45.2c5.7-4.8,9.4-11.6,10.2-19.1l6.4-57.7c1.2-10.8-3.8-21.4-12.9-27.4l-17.2-11.4
		C430.6,257.7,425,256.1,419.4,256.1L419.4,256.1z"/>
</g>
<g>
	<polygon points="322,377.4 319.7,397.1 331.8,404.7 	"/>
</g>
<g>
	<polygon class="st0" points="420.6,255.9 421.6,256.6 418.7,256.8 	"/>
	<polygon points="420.9,251.3 399,262 433.7,259.8 	"/>
</g>
</svg>
