<svg id="Layer_12" data-name="Layer 12" xmlns="http://www.w3.org/2000/svg" viewBox="0 0 477.5 477.5"><defs><style>.cls-1{fill:#fff;}</style></defs><title>CardboardBox</title><g id="Layer_16" data-name="Layer 16"><polygon class="cls-1" points="52.29 145.49 201.21 107.87 425.19 216.66 261.28 285.15 52.29 145.49"/><path d="M200.77,112.1l214.7,104.29L261.72,280.63,62,147.16,200.77,112.1m0.87-8.47L42.59,143.81,260.85,289.67l174.06-72.73L201.64,103.63h0Z"/><path d="M426.91,229V347.52L268.29,413.1,268.82,295,426.91,229m8-12L260.85,289.67l-0.61,135.43,174.68-72.22V216.94h0Z"/><path d="M51,159L252.83,293.93,252.3,409,53.49,258.23,51,159m-8.39-15.23,3,118.47L260.23,425.09l0.61-135.43L42.59,143.81h0Z"/></g></svg>