<?xml version="1.0" encoding="utf-8"?>
<!-- Generator: Adobe Illustrator 19.1.0, SVG Export Plug-In . SVG Version: 6.00 Build 0)  -->
<svg version="1.1" id="Layer_1" xmlns="http://www.w3.org/2000/svg" xmlns:xlink="http://www.w3.org/1999/xlink" x="0px" y="0px"
	 viewBox="0 0 1000 1000" style="enable-background:new 0 0 1000 1000;" xml:space="preserve">
<style type="text/css">
	.st0{fill:#F1F2F2;}
	.st1{fill:#E6E7E8;}
</style>
<g id="TItle">
	<rect x="50" y="151.7" class="st0" width="900" height="696.7"/>
	<g>
		<path d="M311.5,483.3v-2.1c0.4-23.7,4.3-38.4,11.6-43.9c3.5-1.6,5.7-2.5,6.7-2.5h2.5c4.2,0.8,6.3,2.3,6.3,4.6
			c0,0.4-0.5,0.8-1.4,1.4h-1.4c-1.5-1.9-3.2-2.8-4.9-2.8c-5.9,2.1-8.8,3.9-8.8,5.6c-4.7,8.9-7,21.1-7,36.6v6c0,10.4,1.4,23,4.2,37.6
			c1.7,10.7,4,18,7,21.8c3.6,3.2,6.8,4.8,9.5,4.9c3.5,0,7.2-2.6,11.2-7.7h1.1c0.4,0,0.7,0.4,1.1,1.1v0.7c0,2.1-2.6,4.8-7.7,8.1
			c-2.2,0.9-4.2,1.4-6,1.4h-0.4c-3.5-0.4-7.1-2.3-10.9-5.6c-4.2-3.3-7.8-16.6-10.9-40.1C312.1,503.3,311.5,494.9,311.5,483.3z"/>
		<path d="M364.4,504.4c0-33,4.1-55.8,12.3-68.6c2.2-1.6,4.2-2.5,6-2.5c6.6,0,11.9,15.8,15.8,47.5c0.2,3,0.4,6.9,0.4,11.6v1.4
			c0,0.8-0.1,1.9-0.4,3.2c0.2,0.3,0.4,1.1,0.4,2.5v0.4c0,1.3-0.1,2.2-0.4,2.5c0.2,1.2,0.4,1.9,0.4,2.1c0,24.7-3.4,40-10.2,45.7
			c-2.4,0.9-4,1.4-4.9,1.4h-2.5c-8.4-2.1-13.7-12.9-15.8-32.7L364.4,504.4z M367.9,503.4c0,13.2,1.8,24.8,5.3,34.8
			c3.3,6.6,6.2,9.8,8.8,9.8h0.4c4.7,0,7.8-3.3,9.1-9.8c2.6-6.1,3.9-19.1,3.9-39v-7c0-13.8-2.5-29.6-7.4-47.5
			c-1.8-3.9-3.5-6.5-5.3-7.7c-2.8,1.1-4.4,2.3-4.9,3.9C371.2,454.7,367.9,475.5,367.9,503.4z"/>
		<path d="M421.6,495.6v-60.9c0.2-1.3,0.9-2,1.9-2c1.2,0,6.5,16,15.8,48c1.4,7.6,7.1,26.5,17.1,56.9h1.1v-3c-1.3-28.5-2-44.5-2-48
			c0-1.1,0.1-4.6,0.4-10.7c-0.1-0.7-0.1-2.1-0.1-4.1c0.5-4.6,0.7-8.3,0.7-11.1v-25c0.2-1.3,0.8-2,1.9-2l2,1.1c-0.6,13.3-1,23.3-1,30
			v9.9c0,20.4,0.6,46.7,1.9,78.9l-1.9,1c-1.3,0-9.5-26-24.7-77.9l-9.3-31.7l-0.9-1.1l-0.1,1.9c0.5,4.9,0.8,8.8,0.8,11.6l0.1,3
			c-0.6,13-0.9,22.1-0.9,27.3c0,26.3,1,47.9,3,64.9h-2c-1.3,0-1.9-0.6-1.9-1.9C422.2,530,421.6,511.7,421.6,495.6z"/>
		<path d="M478,441.4c0-0.4,0.5-0.8,1.4-1.2c1.6,0.4,2.6,0.6,2.8,0.6c4.5-0.4,7.7-0.6,9.5-0.6h14.4c3,0,6-0.2,9.1-0.6l1.1,1.2v0.9
			c0,1-3.3,1.5-9.8,1.5h-9.8c-0.4,0-0.7,0.4-1.1,1.2l0.7,16.1c-0.2,1.5-0.4,2.3-0.4,2.5c2.1,35.5,3.2,60.9,3.2,76.2
			c0.2,0.4,0.4,0.7,0.4,1c-0.2,0.4-0.4,0.6-0.4,0.9l0.4,2.1c-0.4,0.8-0.7,1.2-1.1,1.2H497c-0.2,0-0.7-0.4-1.4-1.2
			c0-0.4,0.1-1.5,0.4-3.3c0-5-1.1-30.4-3.2-75.9c0-7.4-0.2-14.2-0.7-20.3l-0.7-0.4h-1.1l-11.2,1C478.3,443.4,478,442.5,478,441.4z"
			/>
		<path d="M536.3,550.1c1.8-24.7,2.7-39.6,2.7-44.6c-0.2-3.2-0.4-6.5-0.4-9.8c0.1-16.9,1.5-34.7,4.2-53.5c1.1-5.4,2.8-8.2,5.1-8.2
			h0.4c3.3,1.5,6.2,5.7,8.5,12.4c6.5,20.2,11.3,45.9,14.4,77.3c2.1,10.2,3.1,19.1,3.1,26.8c-0.3,0.8-1.1,1.1-2.4,1.1
			c-0.9-1.8-2.3-11.1-4.2-27.9c-0.5-1.8-1.7-9.6-3.5-23.3l-2.7-0.4c-12.7,1.2-19,2.5-19,3.9v13.6l-2.4,32.6c0.5,0.8,0.8,1.6,0.8,2.3
			c0,0.4-0.5,0.9-1.6,1.6C537.4,554,536.3,552.7,536.3,550.1z M542.6,499.2c7.4-2.1,14.5-3.1,21.4-3.1v-0.4
			c0-7.1-3.9-24.1-11.7-50.8c-1.7-3.7-3.1-5.8-4.2-6.2c-3.4,13.1-5.1,30.1-5.1,50.9c-0.2,0-0.4,2.8-0.4,8.5V499.2z"/>
		<path d="M601.3,483.3v-2.1c0.4-23.7,4.3-38.4,11.6-43.9c3.5-1.6,5.7-2.5,6.7-2.5h2.5c4.2,0.8,6.3,2.3,6.3,4.6
			c0,0.4-0.5,0.8-1.4,1.4h-1.4c-1.5-1.9-3.2-2.8-4.9-2.8c-5.9,2.1-8.8,3.9-8.8,5.6c-4.7,8.9-7,21.1-7,36.6v6c0,10.4,1.4,23,4.2,37.6
			c1.7,10.7,4,18,7,21.8c3.6,3.2,6.8,4.8,9.5,4.9c3.5,0,7.2-2.6,11.2-7.7h1.1c0.4,0,0.7,0.4,1.1,1.1v0.7c0,2.1-2.6,4.8-7.7,8.1
			c-2.2,0.9-4.2,1.4-6,1.4h-0.4c-3.5-0.4-7.1-2.3-10.9-5.6c-4.2-3.3-7.8-16.6-10.9-40.1C601.9,503.3,601.3,494.9,601.3,483.3z"/>
		<path d="M653,441.4c0-0.4,0.5-0.8,1.4-1.2c1.6,0.4,2.6,0.6,2.8,0.6c4.5-0.4,7.7-0.6,9.5-0.6h14.4c3,0,6-0.2,9.1-0.6l1.1,1.2v0.9
			c0,1-3.3,1.5-9.8,1.5h-9.8c-0.4,0-0.7,0.4-1.1,1.2l0.7,16.1c-0.2,1.5-0.4,2.3-0.4,2.5c2.1,35.5,3.2,60.9,3.2,76.2
			c0.2,0.4,0.4,0.7,0.4,1c-0.2,0.4-0.4,0.6-0.4,0.9l0.4,2.1c-0.4,0.8-0.7,1.2-1.1,1.2H672c-0.2,0-0.7-0.4-1.4-1.2
			c0-0.4,0.1-1.5,0.4-3.3c0-5-1.1-30.4-3.2-75.9c0-7.4-0.2-14.2-0.7-20.3l-0.7-0.4h-1.1l-11.2,1C653.3,443.4,653,442.5,653,441.4z"
			/>
	</g>
	<rect x="589.3" y="609" class="st1" width="310.5" height="207"/>
	
		<rect x="632.2" y="222.1" transform="matrix(0.9903 0.1392 -0.1392 0.9903 43.0375 -93.2601)" class="st1" width="112.3" height="78.1"/>
	
		<rect x="769.2" y="222.1" transform="matrix(0.9962 -8.715574e-02 8.715574e-02 0.9962 -19.6157 72.932)" class="st1" width="112.3" height="78.1"/>
	
		<rect x="656.9" y="319" transform="matrix(0.9976 6.975647e-02 -6.975647e-02 0.9976 26.7116 -48.8684)" class="st1" width="112.3" height="78.1"/>
	
		<rect x="800.7" y="314.5" transform="matrix(0.9998 -1.745241e-02 1.745241e-02 0.9998 -6.0394 15.0083)" class="st1" width="112.3" height="78.1"/>
</g>
<g>
</g>
<g>
</g>
<g>
</g>
<g>
</g>
<g>
</g>
<g>
</g>
</svg>
