<?xml version="1.0" encoding="utf-8"?>
<!-- Generator: Adobe Illustrator 19.2.1, SVG Export Plug-In . SVG Version: 6.00 Build 0)  -->
<svg version="1.1" id="Layer_1" xmlns="http://www.w3.org/2000/svg" xmlns:xlink="http://www.w3.org/1999/xlink" x="0px" y="0px"
	 viewBox="0 0 477.5 477.5" style="enable-background:new 0 0 477.5 477.5;" xml:space="preserve">
<style type="text/css">
	.st0{stroke:#000000;stroke-width:8;stroke-miterlimit:10;}
	.st1{fill:#FFFFFF;stroke:#000000;stroke-width:8;stroke-miterlimit:10;}
	.st2{fill:none;stroke:#000000;stroke-width:8;stroke-miterlimit:10;}
	.st3{fill:#FFFFFF;}
</style>
<polygon class="st0" points="282.7,341.7 282.7,358.7 266.7,350.2 266.7,334.7 "/>
<polygon class="st0" points="336.7,299.7 336.7,316.7 320.7,308.2 320.7,292.7 "/>
<polygon class="st0" points="218.7,380.7 218.7,397.7 202.7,385.2 202.7,373.7 "/>
<polygon class="st0" points="163.7,341.7 163.7,358.7 147.7,346.2 147.7,334.7 "/>
<polygon class="st1" points="374.1,269.8 224.3,387.8 109.7,305.9 109.7,191.7 379.4,167 "/>
<line class="st2" x1="225.3" y1="264.4" x2="221.8" y2="385.9"/>
<g>
	<polygon class="st3" points="95.7,188 95.7,170.4 271.5,58.4 400.3,139 400.3,156.7 234.1,275.8 	"/>
	<path d="M271.5,63.2l124.7,78v13.5L234,271L99.7,185.8v-13.2L271.5,63.2 M271.5,53.7L91.7,168.2v22l142.5,90.4l170-121.9v-22
		L271.5,53.7L271.5,53.7z"/>
</g>
<polyline class="st2" points="95.7,172.2 234,256.9 398.3,140.8 "/>
<g>
	<path class="st3" d="M141,164.3c11-7.7,37.1-26.7,56.5-46c20.9-20.9,36.9-44.7,42.5-53.4l91.4,55.6c-4.8,8.1-18.5,29.5-37.8,50.5
		c-25,27.1-48.2,44.8-55.1,49.8L141,164.3z"/>
	<path d="M241.3,70.3l84.6,51.5c-6,9.6-18.4,28.2-35.2,46.4c-22.6,24.5-43.8,41.3-52.4,47.7l-89.8-52c12.8-9.1,34.7-25.7,51.9-42.9
		C219.3,102.1,234.3,80.9,241.3,70.3 M238.7,59.4c0,0-18.5,30.5-44.1,56.1c-25,25-61.1,49.2-61.1,49.2l105.2,60.9
		c0,0,27.5-19,57.8-51.9c25-27.1,40.3-54.5,40.3-54.5L238.7,59.4L238.7,59.4z"/>
</g>
<g>
	<path d="M138.2,172.9l-0.1-1.1l101.1,58.5l2.2-1.9c2-1.8,50.3-43.7,58.1-52.2c20.3-22,34.2-44,39-52.1c3.4,1.9,9,5.8,12.6,12.6
		c3.8,7.3,5.1,12.6,5.6,15.3l-118.1,82L138.2,172.9z"/>
	<path d="M339.8,129.8c2.6,1.9,5.6,4.8,7.8,8.9c2.6,5,4,9,4.6,11.7l-75,52c11.3-10,21.9-19.7,25.3-23.3
		C320.5,159.4,333.6,139.8,339.8,129.8 M336.9,119.1c0,0-15.3,27.5-40.3,54.5c-7.8,8.4-57.8,51.9-57.8,51.9l-105.2-60.9l0.8,10.7
		l104.4,63.5L361,154.1c0,0,0-7.1-6.2-19.1C348.4,123,336.9,119.1,336.9,119.1L336.9,119.1z"/>
</g>
<g>
	<polygon points="257,90.5 253.5,95.4 287.7,116.7 291,111 	"/>
</g>
<g>
	<polygon points="195,158.5 190.5,162.3 224.4,183.8 229,179 	"/>
</g>
<g>
	<polygon points="186,165.5 181.5,169.3 215.4,190.8 220,186 	"/>
</g>
<ellipse class="st2" cx="241.3" cy="140.8" rx="17.6" ry="15.5"/>
</svg>
