<?xml version="1.0" encoding="utf-8"?>
<!-- Generator: Adobe Illustrator 21.0.0, SVG Export Plug-In . SVG Version: 6.00 Build 0)  -->
<svg version="1.1" id="Layer_1" xmlns="http://www.w3.org/2000/svg" xmlns:xlink="http://www.w3.org/1999/xlink" x="0px" y="0px"
	 viewBox="0 0 200 200" style="enable-background:new 0 0 200 200;" xml:space="preserve">
<style type="text/css">
	.st0{fill:#AAA9AB;}
</style>
<path class="st0" d="M101,171c-40.3,1.3-70.8-31.9-70.9-70.2C30,64.2,60.4,28.1,106.2,30.9c31.7,2,67.7,29.5,64.9,75.7
	C169.1,139.1,140.2,172.4,101,171z M101.6,160.1c5.7-0.4,12.1-1.9,18.3-3.6c1.3-0.4,3.2-0.7,2.7-3.3c-2.7-13.2-6.7-26.1-11-38.8
	c-0.5-1.4-0.9-2.6-3.4-1.6c-16.6,6.5-30.2,16.7-40.6,31.1c-1.8,2.5-1.7,4.3,1,6C78.4,156.4,89.2,159.4,101.6,160.1z M56.5,139.2
	c2.5-3.6,4.7-6.6,7.1-9.5c10.4-12.7,22.8-22.5,38.5-27.9c1.1-0.4,4.9,0.2,3.3-2.5c-1.5-2.4-0.3-7.9-6.3-6.4
	c-17.7,4.5-35.6,7.3-54,7.1c-2.9,0-3.3,1.3-3.1,3.6C43.2,116.7,47.6,128.6,56.5,139.2z M51.6,88c3.1,0.8,6.5-0.9,10.2-1
	c10.8-0.4,21.3-3,31.9-5c2.3-0.4,2.2-1.7,1.3-3.1c-6.2-9.6-11.8-19.6-18.8-28.6c-1.2-1.5-2-1.5-3.2-0.8C60.6,57,50.9,66.9,46,80.9
	C43.5,88,43.6,88,51.6,88z M101.4,43c-3.1,0-5.9-0.2-8.7,0.1c-2.4,0.2-4.1,1.2-2.1,3.9c6.6,9.1,12.5,18.6,18.2,28.4
	c0.9,1.5,1.3,1.6,2.9,0.9c8.4-3.7,16.1-8.5,23.1-14.5c4.1-3.5,4-5.9-0.5-8.7C124.1,46.6,113.4,42.2,101.4,43z M159.1,96
	c-0.9-11.2-5.2-20.3-10.6-28.9c-1.5-2.4-2.8-0.3-3.9,0.8c-6.3,6.2-13.3,11.6-21.3,15.4c-9,4.3-8.9,4.4-4.4,13.3
	c0.6,1.2,1.1,1.5,2.1,1.3c11.3-2.1,22.5-0.8,33.7,1.1C157.7,99.5,159.8,98.8,159.1,96z M134.5,148.1c0.9-0.4,1.7-0.6,2.3-1.1
	c10.9-8.4,17.5-19.7,21.1-32.8c0.8-2.8-1.2-3.8-3.5-4.2c-8.3-1.5-16.6-2.4-25.1-2c-5.1,0.2-5.8,1-4.1,5.6
	C129.3,124.6,132,136,134.5,148.1z"/>
</svg>
