<?xml version="1.0" encoding="utf-8"?>
<!-- Generator: Adobe Illustrator 21.0.0, SVG Export Plug-In . SVG Version: 6.00 Build 0)  -->
<svg version="1.1" id="Layer_1" xmlns="http://www.w3.org/2000/svg" xmlns:xlink="http://www.w3.org/1999/xlink" x="0px" y="0px"
	 viewBox="0 0 200 200.5" style="enable-background:new 0 0 200 200.5;" xml:space="preserve">
<style type="text/css">
	.st0{fill:#AAA9AB;}
</style>
<path class="st0" d="M143.6,113.3l-0.2-18.1c0,0-13.5,0.1-17,0.1c-2.7,0-3.3-0.7-3.3-3.4c0-4.4-1.2-8.9,1.8-13
	c3.6-5,8.6-5.1,13.8-4.6c3.4,0.3,4.8-0.7,4.5-4.3c-0.3-4-0.1-8-0.1-12c0-1.7-0.3-2.8-2.4-2.8c-7.9,0.1-15.6,0.7-23.1,3.8
	c-9.1,3.8-11.7,11.5-13.5,20c-0.9,4.4-1.3,8.8-1,13.3c0.2,2.5-0.8,3.1-3.2,3.1c-3.5,0-10.9-0.3-10.9-0.3l0,18.2h11
	c3,0,3.2,0.7,3.1,3.1c-0.1,15.3-0.1,30.7,0,46c0,2.5-1,3-3.2,3c-18.3-0.1-36.6,0-55-0.1c-5.5,0-9.8-4.5-9.8-10.1
	c-0.1-36.3-0.1-72.6,0-108.9c0-5.5,4.4-9.9,9.9-9.9c36.3-0.1,72.6-0.1,108.9,0c5.8,0,10,4.4,10.1,10.3c0,36.1,0,72.3,0,108.4
	c0,5.8-4.4,10.1-10.2,10.2c-9.2,0.1-18.3-0.1-27.5,0.1c-2.7,0-3.3-0.9-3.3-3.4c0.1-15,0.1-30,0-45c0-2.8,0.2-3.7,3.6-3.7
	L143.6,113.3z"/>
</svg>
