<?xml version="1.0" encoding="utf-8"?>
<!-- Generator: Adobe Illustrator 19.2.1, SVG Export Plug-In . SVG Version: 6.00 Build 0)  -->
<svg version="1.1" id="Layer_1" xmlns="http://www.w3.org/2000/svg" xmlns:xlink="http://www.w3.org/1999/xlink" x="0px" y="0px"
	 viewBox="0 0 477.5 477.5" style="enable-background:new 0 0 477.5 477.5;" xml:space="preserve">
<style type="text/css">
	.st0{fill:none;stroke:#000000;stroke-width:8;stroke-miterlimit:10;}
	.st1{fill:#FFFFFF;}
</style>
<polyline class="st0" points="158.4,279.6 163.2,302.9 162.3,319.9 "/>
<polyline class="st0" points="106.5,267.9 88.7,279.6 88.7,339.7 "/>
<polyline class="st0" points="141.5,251.9 123.7,263.6 123.7,323.7 "/>
<g>
	<polygon class="st1" points="103.3,248.8 304.8,157.1 367.6,178.9 158.5,275.2 	"/>
	<path d="M305,161.4l52,18l-198.4,91.4l-45.8-21.9L305,161.4 M304.6,152.8l-210.8,96l64.6,30.9l219.9-101.3L304.6,152.8L304.6,152.8
		z"/>
</g>
<g>
	<polygon class="st1" points="99.5,289.4 93.1,271.2 96.7,254.6 158.4,284 375.8,183.9 380.9,200.7 375,221.2 162.4,319.5 	"/>
	<path d="M373.3,189.5l3.4,11.3l-5,17.6l-209.3,96.7l-59.7-28.6l-5.4-15.6l2.2-10.6l55.5,26.5l3.4,1.6l3.4-1.6L373.3,189.5
		 M378.3,178.3L158.4,279.6l-64.6-30.9L89,271.4l7.2,20.8l66.1,31.6l216-99.9l6.7-23.4L378.3,178.3L378.3,178.3z"/>
</g>
<polyline class="st0" points="381,202.7 163.2,302.9 95,271.4 "/>
<polyline class="st0" points="180.5,294.9 186.1,302.9 192.6,384 "/>
<polyline class="st0" points="209.5,278.9 215.1,286.9 221.6,368 "/>
<polyline class="st0" points="231.5,271.9 237.1,279.9 243.6,361 "/>
<polyline class="st0" points="260.5,255.9 266.1,263.9 272.6,345 "/>
<polyline class="st0" points="287.5,244.9 293.1,252.9 299.6,334 "/>
<polyline class="st0" points="311.5,232.9 317.1,240.9 323.6,322 "/>
<polyline class="st0" points="338.5,221.9 344.1,229.9 350.6,311 "/>
<polyline class="st0" points="362.5,207.9 368.1,215.9 374.6,297 "/>
</svg>
