<?xml version="1.0" encoding="UTF-8"?>
<svg width="186px" height="72px" viewBox="0 0 186 72" version="1.1" xmlns="http://www.w3.org/2000/svg" xmlns:xlink="http://www.w3.org/1999/xlink">
    <!-- Generator: Sketch 40 (33762) - http://www.bohemiancoding.com/sketch -->
    <title>Group</title>
    <desc>Created with Sketch.</desc>
    <defs>
        <polygon id="path-1" points="23 6 43 6 58 66 8 66"></polygon>
        <mask id="mask-2" maskContentUnits="userSpaceOnUse" maskUnits="objectBoundingBox" x="0" y="0" width="50" height="60" fill="white">
            <use xlink:href="#path-1"></use>
        </mask>
        <polygon id="path-3" points="123 6 163 6 178 66 108 66"></polygon>
        <mask id="mask-4" maskContentUnits="userSpaceOnUse" maskUnits="objectBoundingBox" x="0" y="0" width="70" height="60" fill="white">
            <use xlink:href="#path-3"></use>
        </mask>
        <path d="M65,6 L115,6 L100,66 L79.3744147,66 C63.1513734,66 53.1902917,53.2388332 57.1266021,37.4935916 L65,6 Z" id="path-5"></path>
        <mask id="mask-6" maskContentUnits="userSpaceOnUse" maskUnits="objectBoundingBox" x="0" y="0" width="58.7326527" height="60" fill="white">
            <use xlink:href="#path-5"></use>
        </mask>
    </defs>
    <g id="Page-1" stroke="none" stroke-width="1" fill="none" fill-rule="evenodd">
        <g id="Group">
            <polygon id="Rectangle-2" fill="#FFB900" points="18.3688525 0.262295082 185.5 0.262295082 167.631148 71.7377049 0.5 71.7377049"></polygon>
            <use id="Rectangle" stroke="#000000" mask="url(#mask-2)" stroke-width="12" xlink:href="#path-1"></use>
            <use id="Rectangle-Copy-2" stroke="#000000" mask="url(#mask-4)" stroke-width="12" transform="translate(143.000000, 36.000000) scale(1, -1) translate(-143.000000, -36.000000) " xlink:href="#path-3"></use>
            <use id="Rectangle-Copy" stroke="#000000" mask="url(#mask-6)" stroke-width="12" transform="translate(85.633674, 36.000000) scale(1, -1) translate(-85.633674, -36.000000) " xlink:href="#path-5"></use>
        </g>
    </g>
</svg>