<?xml version="1.0" encoding="utf-8"?>
<!-- Generator: Adobe Illustrator 19.2.1, SVG Export Plug-In . SVG Version: 6.00 Build 0)  -->
<svg version="1.1" id="Layer_1" xmlns="http://www.w3.org/2000/svg" xmlns:xlink="http://www.w3.org/1999/xlink" x="0px" y="0px"
	 viewBox="0 0 477.5 477.5" style="enable-background:new 0 0 477.5 477.5;" xml:space="preserve">
<style type="text/css">
	.st0{fill:#FFFFFF;stroke:#000000;stroke-width:5;stroke-miterlimit:10;}
	.st1{stroke:#000000;stroke-width:5;stroke-miterlimit:10;}
	.st2{fill:#FFFFFF;}
	.st3{fill:#A7A9AC;}
	.st4{fill:#E6E7E8;}
	.st5{fill:none;stroke:#E6E7E8;stroke-width:5;stroke-miterlimit:10;}
	.st6{fill:none;}
	.st7{fill:#B4B4B4;}
	.st8{font-family:'Ubuntu';}
	.st9{font-size:10px;}
	.st10{enable-background:new    ;}
</style>
<path class="st0" d="M358.9,95.4H123.5c-1.7-2.3-1.7-10.9,0-13.2h235.4C360.5,84.5,360.5,93,358.9,95.4z"/>
<path class="st1" d="M42.6,72.4H35c-0.7,0-1.4,0.5-1.5,1.2l-0.7,3c-1,4.1-1.5,8.3-1.5,12.6l0,0c0,2.9,0.3,5.9,1,8.7l1.2,5.3
	c0.2,0.7,0.8,1.2,1.6,1.2h7.6c0.9,0,1.6-0.7,1.6-1.6V74C44.2,73.1,43.5,72.4,42.6,72.4z"/>
<g>
	<path d="M44.2,104.3c-1.1-0.8-3.6-6.2-3.6-15.8s2.4-15,3.6-15.8c1.1,0.8,3.6,6.2,3.6,15.8S45.3,103.5,44.2,104.3z"/>
	<path d="M44.2,78.7c0.6,2.4,1.1,5.7,1.1,9.8s-0.5,7.4-1.1,9.8c-0.6-2.4-1.1-5.7-1.1-9.8S43.6,81.1,44.2,78.7 M44.2,70.1
		c-3.3,0-6.1,8.2-6.1,18.4s2.7,18.4,6.1,18.4s6.1-8.2,6.1-18.4S47.5,70.1,44.2,70.1L44.2,70.1z"/>
</g>
<path class="st1" d="M103.6,72.4H96c-0.7,0-1.4,0.5-1.5,1.2l-0.9,3.8c-0.8,3.6-1.3,7.2-1.3,10.9l0,0c0,3.5,0.4,7,1.2,10.4l1,4.5
	c0.2,0.7,0.8,1.2,1.6,1.2h7.6c0.9,0,1.6-0.7,1.6-1.6V74C105.2,73.1,104.5,72.4,103.6,72.4z"/>
<g>
	<path d="M105.2,104.3c-1.1-0.8-3.6-6.2-3.6-15.8c0-9.7,2.4-15,3.6-15.8c1.1,0.8,3.6,6.2,3.6,15.8
		C108.8,98.1,106.3,103.5,105.2,104.3z"/>
	<path d="M105.2,78.7c0.6,2.4,1.1,5.7,1.1,9.8s-0.5,7.4-1.1,9.8c-0.6-2.4-1.1-5.7-1.1-9.8S104.6,81.1,105.2,78.7 M105.2,70.1
		c-3.3,0-6.1,8.2-6.1,18.4s2.7,18.4,6.1,18.4s6.1-8.2,6.1-18.4C111.3,78.3,108.5,70.1,105.2,70.1L105.2,70.1z"/>
</g>
<path class="st1" d="M438.9,104.5h7.6c0.7,0,1.4-0.5,1.5-1.2l0.9-3.8c0.8-3.6,1.3-7.2,1.3-10.9l0,0c0-3.5-0.4-7-1.2-10.4l-1-4.5
	c-0.2-0.7-0.8-1.2-1.6-1.2h-7.6c-0.9,0-1.6,0.7-1.6,1.6V103C437.3,103.8,438,104.5,438.9,104.5z"/>
<g>
	<path d="M437.3,104.3c-1.1-0.8-3.6-6.2-3.6-15.8c0-9.7,2.4-15,3.6-15.8c1.1,0.8,3.6,6.2,3.6,15.8S438.4,103.5,437.3,104.3z"/>
	<path d="M437.3,78.7c0.6,2.4,1.1,5.7,1.1,9.8s-0.5,7.4-1.1,9.8c-0.6-2.4-1.1-5.7-1.1-9.8S436.7,81.1,437.3,78.7 M437.3,70.1
		c-3.3,0-6.1,8.2-6.1,18.4s2.7,18.4,6.1,18.4c3.3,0,6.1-8.2,6.1-18.4S440.7,70.1,437.3,70.1L437.3,70.1z"/>
</g>
<path class="st1" d="M376.9,104.5h7.6c0.7,0,1.4-0.5,1.5-1.2l0.9-3.8c0.8-3.6,1.3-7.2,1.3-10.9l0,0c0-3.5-0.4-7-1.2-10.4l-1-4.5
	c-0.2-0.7-0.8-1.2-1.6-1.2h-7.6c-0.9,0-1.6,0.7-1.6,1.6V103C375.3,103.8,376,104.5,376.9,104.5z"/>
<g>
	<path d="M375.3,104.3c-1.1-0.8-3.6-6.2-3.6-15.8c0-9.7,2.4-15,3.6-15.8c1.1,0.8,3.6,6.2,3.6,15.8S376.4,103.5,375.3,104.3z"/>
	<path d="M375.3,78.7c0.6,2.4,1.1,5.7,1.1,9.8s-0.5,7.4-1.1,9.8c-0.6-2.4-1.1-5.7-1.1-9.8S374.7,81.1,375.3,78.7 M375.3,70.1
		c-3.3,0-6.1,8.2-6.1,18.4s2.7,18.4,6.1,18.4s6.1-8.2,6.1-18.4S378.7,70.1,375.3,70.1L375.3,70.1z"/>
</g>
<g>
	<ellipse class="st2" cx="105.2" cy="88.5" rx="2.8" ry="8.4"/>
</g>
<g>
	<ellipse class="st2" cx="45.2" cy="88.5" rx="2.8" ry="8.4"/>
</g>
<path class="st1" d="M19.6,72.4H12c-0.7,0-1.4,0.5-1.5,1.2l-0.7,3c-1,4.1-1.5,8.3-1.5,12.6l0,0c0,2.9,0.3,5.9,1,8.7l1.2,5.3
	c0.2,0.7,0.8,1.2,1.6,1.2h7.6c0.9,0,1.6-0.7,1.6-1.6V74C21.2,73.1,20.5,72.4,19.6,72.4z"/>
<g>
	<path d="M21.2,104.3c-1.1-0.8-3.6-6.2-3.6-15.8s2.4-15,3.6-15.8c1.1,0.8,3.6,6.2,3.6,15.8S22.3,103.5,21.2,104.3z"/>
	<path d="M21.2,78.7c0.6,2.4,1.1,5.7,1.1,9.8s-0.5,7.4-1.1,9.8c-0.6-2.4-1.1-5.7-1.1-9.8S20.6,81.1,21.2,78.7 M21.2,70.1
		c-3.3,0-6.1,8.2-6.1,18.4s2.7,18.4,6.1,18.4s6.1-8.2,6.1-18.4S24.5,70.1,21.2,70.1L21.2,70.1z"/>
</g>
<g>
	<ellipse class="st2" cx="22.2" cy="88.5" rx="2.8" ry="8.4"/>
</g>
<g>
	<ellipse class="st2" cx="375.3" cy="88.5" rx="2.8" ry="8.4"/>
</g>
<g>
	<ellipse class="st2" cx="435.3" cy="88.5" rx="2.8" ry="8.4"/>
</g>
<path class="st1" d="M461.2,104.5h7.6c0.7,0,1.4-0.5,1.5-1.2l0.9-3.8c0.8-3.6,1.3-7.2,1.3-10.9l0,0c0-3.5-0.4-7-1.2-10.4l-1-4.5
	c-0.2-0.7-0.8-1.2-1.6-1.2h-7.6c-0.9,0-1.6,0.7-1.6,1.6V103C459.6,103.8,460.3,104.5,461.2,104.5z"/>
<g>
	<path d="M459.6,104.3c-1.1-0.8-3.6-6.2-3.6-15.8c0-9.7,2.4-15,3.6-15.8c1.1,0.8,3.6,6.2,3.6,15.8S460.7,103.5,459.6,104.3z"/>
	<path d="M459.6,78.7c0.6,2.4,1.1,5.7,1.1,9.8s-0.5,7.4-1.1,9.8c-0.6-2.4-1.1-5.7-1.1-9.8S459,81.1,459.6,78.7 M459.6,70.1
		c-3.3,0-6.1,8.2-6.1,18.4s2.7,18.4,6.1,18.4c3.3,0,6.1-8.2,6.1-18.4S463,70.1,459.6,70.1L459.6,70.1z"/>
</g>
<g>
	<ellipse class="st2" cx="459.6" cy="88.5" rx="2.8" ry="8.4"/>
</g>
<g>
	<path class="st3" d="M246.1,133.1h1.1v1.2h-1.1V133.1z"/>
</g>
<rect x="201.5" y="195" class="st4" width="73.5" height="64.1"/>
<polygon class="st4" points="290,247.1 238.6,298.5 187.5,247.4 "/>
<g>
	<path class="st3" d="M222.8,237.5h-3.4l7.4-10.8l-7-10.2h3.5l5.3,8l5.2-8h3.4l-6.9,10.2l7.3,10.8h-3.5l-5.6-8.6L222.8,237.5z"/>
	<path class="st3" d="M240.6,232.4c0.7-1.7,2.4-3.5,5.1-5.5c2.3-1.7,3.9-2.9,4.5-3.6c1.1-1.1,1.6-2.4,1.6-3.7c0-1.1-0.3-2-0.9-2.7
		c-0.6-0.7-1.5-1.1-2.6-1.1c-1.5,0-2.6,0.6-3.2,1.7c-0.3,0.7-0.5,1.7-0.6,3.2h-4.9c0.1-2.2,0.5-4,1.2-5.3c1.4-2.6,3.8-3.9,7.2-3.9
		c2.7,0,4.9,0.8,6.5,2.3c1.6,1.5,2.4,3.5,2.4,6c0,1.9-0.6,3.6-1.7,5.1c-0.8,1-2,2.1-3.7,3.3l-2,1.4c-1.3,0.9-2.1,1.6-2.6,2
		s-0.9,0.9-1.2,1.4H257v4.5h-17.7C239.5,235.7,239.9,234,240.6,232.4z"/>
</g>
<g>
	<path d="M152.4,360.5v-0.9h2.6v-1.9h1v1.9h2.6v0.9H156v1.9h-1v-1.9H152.4z M158.5,362.9v0.9h-6.1v-0.9H158.5z"/>
</g>
<g>
	<path d="M320.4,360.1h0.6v0.5c0.1-0.2,0.3-0.3,0.4-0.4c0.2-0.1,0.4-0.2,0.7-0.2c0.3,0,0.5,0.1,0.7,0.2c0.1,0.1,0.2,0.2,0.3,0.4
		c0.1-0.2,0.3-0.3,0.5-0.4s0.4-0.1,0.6-0.1c0.5,0,0.8,0.2,1,0.5c0.1,0.2,0.1,0.4,0.1,0.8v2.4h-0.6v-2.5c0-0.2-0.1-0.4-0.2-0.5
		s-0.3-0.1-0.4-0.1c-0.2,0-0.4,0.1-0.6,0.2c-0.2,0.2-0.3,0.4-0.3,0.8v2.1h-0.6v-2.4c0-0.2,0-0.4-0.1-0.5c-0.1-0.2-0.3-0.3-0.5-0.3
		s-0.4,0.1-0.6,0.3c-0.2,0.2-0.3,0.5-0.3,1v1.9h-0.6v-3.7L320.4,360.1L320.4,360.1z"/>
	<path d="M326.3,363.1h0.7v0.7h-0.7V363.1z"/>
</g>
<line class="st5" x1="109.1" y1="372.4" x2="88.9" y2="372.4"/>
<g>
	<path d="M113.5,363.1h0.7v0.7h-0.7V363.1z"/>
</g>
<path class="st0" d="M386,395.4H89.5c-2.1-2.3-2.1-10.9,0-13.2H386C388.1,384.5,388.1,393,386,395.4z"/>
<path class="st1" d="M339.4,404.5h7.6c0.7,0,1.4-0.5,1.5-1.2l2.1-9c0-0.1,0-0.2,0-0.4v-10.4c0-0.1,0-0.2,0-0.3l-2.1-9.5
	c-0.2-0.7-0.8-1.2-1.6-1.2h-7.6c-0.9,0-1.6,0.7-1.6,1.6V403C337.8,403.8,338.5,404.5,339.4,404.5z"/>
<path class="st1" d="M360.4,404.5h7.6c0.7,0,1.4-0.5,1.5-1.2l2.1-9c0-0.1,0-0.2,0-0.4v-10.4c0-0.1,0-0.2,0-0.3l-2.1-9.5
	c-0.2-0.7-0.8-1.2-1.6-1.2h-7.6c-0.9,0-1.6,0.7-1.6,1.6V403C358.8,403.8,359.5,404.5,360.4,404.5z"/>
<path class="st1" d="M134.8,372.4h-7.6c-0.7,0-1.4,0.5-1.5,1.2l-2.1,9c0,0.1,0,0.2,0,0.4v10.4c0,0.1,0,0.2,0,0.3l2.1,9.5
	c0.2,0.7,0.8,1.2,1.6,1.2h7.6c0.9,0,1.6-0.7,1.6-1.6V374C136.4,373.1,135.6,372.4,134.8,372.4z"/>
<path class="st1" d="M114.8,372.4h-7.6c-0.7,0-1.4,0.5-1.5,1.2l-2.1,9c0,0.1,0,0.2,0,0.4v10.4c0,0.1,0,0.2,0,0.3l2.1,9.5
	c0.2,0.7,0.8,1.2,1.6,1.2h7.6c0.9,0,1.6-0.7,1.6-1.6V374C116.4,373.1,115.6,372.4,114.8,372.4z"/>
<path class="st0" d="M160.8,353h-17c-1.6,0-3.1,1.1-3.4,2.7l-4.7,20.1c0,0.2,0,0.4,0,0.9V400c0,0.2,0,0.4,0,0.7l4.7,21.3
	c0.4,1.6,1.8,2.7,3.6,2.7h17c2,0,3.6-1.6,3.6-3.6c0,0,4.4-8.2,4.4-32.2c0-21.2-4.4-32.2-4.4-32.2C164.4,354.6,162.6,353,160.8,353z"
	/>
<path class="st0" d="M330,352.6h-17c-1.6,0-3.1,1.1-3.4,2.7l-4.7,20.1c0,0.2,0,0.4,0,0.9v23.3c0,0.2,0,0.4,0,0.7l4.7,21.3
	c0.4,1.6,1.8,2.7,3.6,2.7h17c2,0,3.6-1.6,3.6-3.6c0,0,4.4-8.2,4.4-32.2c0-21.2-4.4-32.2-4.4-32.2C333.6,354.2,331.8,352.6,330,352.6
	z"/>
<path class="st1" d="M177.4,372.8h-7.6c-0.7,0-1.4,0.5-1.5,1.2l-2.1,9c0,0.1,0,0.2,0,0.4v10.4c0,0.1,0,0.2,0,0.3l2.1,9.5
	c0.2,0.7,0.8,1.2,1.6,1.2h7.6c0.9,0,1.6-0.7,1.6-1.6v-28.8C179,373.5,178.2,372.8,177.4,372.8z"/>
<path class="st1" d="M296.1,404.8h7.6c0.7,0,1.4-0.5,1.5-1.2l2.1-9c0-0.1,0-0.2,0-0.4v-10.4c0-0.1,0-0.2,0-0.3l-2.1-9.5
	c-0.2-0.7-0.8-1.2-1.6-1.2H296c-0.9,0-1.6,0.7-1.6,1.6v28.9C294.5,404.1,295.2,404.8,296.1,404.8z"/>
<path class="st0" d="M315,352.6c0,0,3.1,9,3.1,36.2c0,24-2.9,35.4-2.9,35.4"/>
<path class="st0" d="M160.8,352.6c0,0-2.9,9-2.9,36.2c0,24,3.1,35.4,3.1,35.4"/>
<path class="st0" d="M77.7,52.8h-17c-1.6,0-3.1,1.1-3.4,2.7l-4.7,20.1c0,0.2,0,0.4,0,0.9v23.3c0,0.2,0,0.4,0,0.7l4.7,21.3
	c0.4,1.6,1.8,2.7,3.6,2.7h17c2,0,3.6-1.6,3.6-3.6c0,0,4.4-8.2,4.4-32.2c0-21.2-4.4-32.2-4.4-32.2C81.3,54.4,79.5,52.8,77.7,52.8z"/>
<path class="st0" d="M420.1,52.4h-17c-1.6,0-3.1,1.1-3.4,2.7L395,75.2c0,0.2,0,0.4,0,0.9v23.3c0,0.2,0,0.4,0,0.7l4.7,21.3
	c0.4,1.6,1.8,2.7,3.6,2.7h17c2,0,3.6-1.6,3.6-3.6c0,0,4.4-8.2,4.4-32.2c0-21.2-4.4-32.2-4.4-32.2C423.7,54,421.9,52.4,420.1,52.4z"
	/>
<path class="st0" d="M405.1,52.4c0,0,3.1,9,3.1,36.2c0,24-2.9,35.4-2.9,35.4"/>
<path class="st0" d="M77.8,52.4c0,0-2.9,9-2.9,36.2c0,24,3.1,35.4,3.1,35.4"/>
<rect x="6.4" y="140.7" class="st6" width="26" height="32.5"/>
<text transform="matrix(1 0 0 1 6.4057 148.44)" class="st7 st8 st9">Nyloc</text>
<text transform="matrix(1 0 0 1 6.4057 160.44)" class="st7 st8 st9">Nut (8mm)</text>
<rect x="448.5" y="137.5" class="st6" width="26" height="32.5"/>
<text transform="matrix(1 0 0 1 443.5278 145.2501)" class="st7 st8 st9">Nyloc</text>
<text transform="matrix(1 0 0 1 443.5278 157.2501)" class="st10"><tspan x="0" y="0" class="st7 st8 st9">Nut</tspan><tspan x="0" y="12" class="st7 st8 st9">(8mm)</tspan></text>
<rect x="31.2" y="36.1" class="st6" width="26" height="32.5"/>
<text transform="matrix(1 0 0 1 31.2202 43.9073)" class="st7 st8 st9">Nut (8mm)</text>
<rect x="430.7" y="29.6" class="st6" width="26" height="32.5"/>
<text transform="matrix(1 0 0 1 420.7075 37.3702)" class="st7 st8 st9">Nut (8mm)</text>
<rect x="56.3" y="140.7" class="st6" width="42.7" height="32.5"/>
<text transform="matrix(1 0 0 1 56.3184 148.44)" class="st7 st8 st9">Bearing</text>
<text transform="matrix(1 0 0 1 199.3875 116.8962)" class="st7 st8 st9">Thread rod (long)</text>
<rect x="366.1" y="29.6" class="st6" width="26" height="32.5"/>
<text transform="matrix(1 0 0 1 366.1364 33.3677)" class="st7 st8 st9">Nyloc</text>
<text transform="matrix(1 0 0 1 366.1364 45.3677)" class="st7 st8 st9">Nut (8mm)</text>
<rect x="399.5" y="137.5" class="st6" width="42.7" height="32.5"/>
<text transform="matrix(1 0 0 1 392.4742 145.2501)" class="st7 st8 st9">Bearing</text>
<rect x="92.2" y="36.1" class="st6" width="42.7" height="32.5"/>
<text transform="matrix(1 0 0 1 92.1591 43.9073)" class="st7 st8 st9">Nyloc </text>
<text transform="matrix(1 0 0 1 92.1591 55.9073)" class="st7 st8 st9">Nut (8mm)</text>
<g>
	<ellipse cx="81.1" cy="89.2" rx="2.8" ry="16.8"/>
</g>
<g>
	<ellipse cx="399.5" cy="88.1" rx="2.8" ry="16.8"/>
</g>
</svg>
