<?xml version="1.0" encoding="utf-8"?>
<!-- Generator: Adobe Illustrator 19.2.1, SVG Export Plug-In . SVG Version: 6.00 Build 0)  -->
<svg version="1.1" id="Layer_1" xmlns="http://www.w3.org/2000/svg" xmlns:xlink="http://www.w3.org/1999/xlink" x="0px" y="0px"
	 viewBox="0 0 477.5 477.5" style="enable-background:new 0 0 477.5 477.5;" xml:space="preserve">
<style type="text/css">
	.st0{fill:#FFFFFF;}
	.st1{fill:#FFFFFF;stroke:#000000;stroke-miterlimit:10;}
</style>
<g>
	<polygon class="st0" points="130.7,399 149.7,69.7 299,67.3 347,399 	"/>
	<path d="M296.8,69.9l47.3,326.7H133.4L152,72.2L296.8,69.9 M301.2,64.8l-153.9,2.5l-19.2,334.3h221.8L301.2,64.8L301.2,64.8z"/>
</g>
<g>
	<polygon class="st0" points="132.4,411.5 131.1,404 346.9,404 345.6,411.5 	"/>
	<path d="M343.9,406.5l-0.4,2.4h-209l-0.4-2.4H343.9 M349.9,401.5H128.1l2.2,12.4h217.3L349.9,401.5L349.9,401.5z"/>
</g>
<g>
	<path d="M173.2,336.5c-7.8,0-14.1-5.3-14.1-11.9s6.3-11.9,14.1-11.9s14.1,5.3,14.1,11.9S181,336.5,173.2,336.5z"/>
	<path d="M173.2,313.7c7.2,0,13.1,4.9,13.1,10.9s-5.9,10.9-13.1,10.9c-7.2,0-13.1-4.9-13.1-10.9S166,313.7,173.2,313.7 M173.2,311.7
		c-8.3,0-15.1,5.8-15.1,12.9s6.8,12.9,15.1,12.9s15.1-5.8,15.1-12.9S181.6,311.7,173.2,311.7L173.2,311.7z"/>
</g>
<g>
	<path d="M230.1,219.5c-9.7,0-17.6-6.2-17.6-13.7s7.9-13.7,17.6-13.7c9.7,0,17.6,6.2,17.6,13.7S239.8,219.5,230.1,219.5z"/>
	<path d="M230.1,193c9.2,0,16.6,5.7,16.6,12.7s-7.4,12.7-16.6,12.7s-16.6-5.7-16.6-12.7S220.9,193,230.1,193 M230.1,191
		c-10.3,0-18.6,6.6-18.6,14.7c0,8.1,8.3,14.7,18.6,14.7s18.6-6.6,18.6-14.7C248.7,197.6,240.4,191,230.1,191L230.1,191z"/>
</g>
<g>
	<path d="M179.1,115.7c-5.4,0-9.7-3.2-9.7-7.1s4.4-7.1,9.7-7.1s9.7,3.2,9.7,7.1S184.4,115.7,179.1,115.7z"/>
	<path d="M179.1,102.5c4.8,0,8.7,2.7,8.7,6.1s-3.9,6.1-8.7,6.1s-8.7-2.7-8.7-6.1S174.2,102.5,179.1,102.5 M179.1,100.5
		c-6,0-10.7,3.6-10.7,8.1s4.7,8.1,10.7,8.1s10.7-3.6,10.7-8.1S185.1,100.5,179.1,100.5L179.1,100.5z"/>
</g>
<g>
	<path d="M276.1,115.7c-5.4,0-9.7-3.2-9.7-7.1s4.4-7.1,9.7-7.1s9.7,3.2,9.7,7.1S281.4,115.7,276.1,115.7z"/>
	<path d="M276.1,102.5c4.8,0,8.7,2.7,8.7,6.1s-3.9,6.1-8.7,6.1s-8.7-2.7-8.7-6.1S271.2,102.5,276.1,102.5 M276.1,100.5
		c-6,0-10.7,3.6-10.7,8.1s4.7,8.1,10.7,8.1s10.7-3.6,10.7-8.1S282.1,100.5,276.1,100.5L276.1,100.5z"/>
</g>
<path class="st1" d="M245.4,210.7c-2.5,4.6-8.4,7.7-15.3,7.7c-6.8,0-12.7-3.2-15.3-7.7l0,0c2.5-4.6,8.4-7.8,15.3-7.8
	C236.9,203,242.8,206.2,245.4,210.7"/>
<path class="st1" d="M161.1,328.6c1.9,4,6.6,6.9,12.2,6.9c5.2,0,9.7-2.6,11.8-6.2c0.1-0.2,0.2-0.4,0.3-0.6c-0.2-0.4-0.4-0.8-0.7-1.2
	c-2.2-3.4-6.5-5.7-11.5-5.7c-5.1,0-9.4,2.4-11.6,5.9C161.4,327.9,161.2,328.3,161.1,328.6z"/>
<g>
	<path d="M297.2,336.5c-7.8,0-14.1-5.3-14.1-11.9s6.3-11.9,14.1-11.9s14.1,5.3,14.1,11.9S305,336.5,297.2,336.5z"/>
	<path d="M297.2,313.7c7.2,0,13.1,4.9,13.1,10.9s-5.9,10.9-13.1,10.9s-13.1-4.9-13.1-10.9S290,313.7,297.2,313.7 M297.2,311.7
		c-8.3,0-15.1,5.8-15.1,12.9s6.8,12.9,15.1,12.9c8.3,0,15.1-5.8,15.1-12.9S305.6,311.7,297.2,311.7L297.2,311.7z"/>
</g>
<path class="st1" d="M285.1,328.6c1.9,4,6.6,6.9,12.2,6.9c5.2,0,9.7-2.6,11.8-6.2c0.1-0.2,0.2-0.4,0.3-0.6c-0.2-0.4-0.4-0.8-0.7-1.2
	c-2.2-3.4-6.5-5.7-11.5-5.7c-5.1,0-9.4,2.4-11.6,5.9C285.4,327.9,285.2,328.3,285.1,328.6z"/>
</svg>
