<?xml version="1.0" encoding="utf-8"?>
<!-- Generator: Adobe Illustrator 19.2.1, SVG Export Plug-In . SVG Version: 6.00 Build 0)  -->
<svg version="1.1" id="Layer_1" xmlns="http://www.w3.org/2000/svg" xmlns:xlink="http://www.w3.org/1999/xlink" x="0px" y="0px"
	 viewBox="0 0 477.5 477.5" style="enable-background:new 0 0 477.5 477.5;" xml:space="preserve">
<style type="text/css">
	.st0{fill:#FFFFFF;}
	.st1{fill:url(#SVGID_1_);}
	.st2{fill:url(#SVGID_2_);}
</style>
<g id="Layer_7">
	<g>
		<path d="M-25.1,11.8c6,0,12,1.6,17.2,4.6l368.2,243.7l1.6,8.2l-53.5,68L-49.4,80.2l-0.1-0.1l-0.1-0.1c-8-5.3-13.4-13.8-14.9-23.3
			c-1.2-7.5,0.2-15.3,3.9-22l2.3-4.2c4.2-7.5,10.9-13.1,19.1-15.9l3.2-1.1C-32.5,12.4-28.8,11.8-25.1,11.8 M-25.1,3.8
			c-4.6,0-9.1,0.7-13.5,2.2l-3.2,1.1c-10,3.4-18.4,10.3-23.5,19.6l-2.3,4.2c-4.6,8.3-6.3,17.8-4.8,27.1l0,0
			c1.8,11.7,8.5,22.1,18.4,28.7l364,260.7l60.5-76.9l-3-15.1L-3.6,9.6C-10.2,5.8-17.6,3.8-25.1,3.8L-25.1,3.8z"/>
	</g>
	<g>
		<path class="st0" d="M299.5,372.4c-3.7-3.3-5.4-8.4-4.4-13.3l13.6-70.6c0.8-4.4,3.5-8.2,7.3-10.6l60.9-38.2
			c1.2-0.8,2.7-1.2,4.2-1.2c1.2,0,2.3,0.3,3.3,0.8l27.6,12.4l-58.2,32c-12.9,7.1-21.8,19.5-24.3,34L317,389.1L299.5,372.4z"/>
		<path d="M381,242.4c0.6,0,1.1,0.1,1.6,0.4h0.1h0.1l20.2,9.1L351.8,280c-14,7.7-23.6,21.1-26.3,36.8L314.3,381l-12-11.5l-0.1-0.1
			l-0.1-0.1c-2.6-2.4-3.9-6-3.2-9.5l13.6-70.6c0.6-3.3,2.6-6.2,5.5-8l60.9-38.2C379.5,242.6,380.2,242.4,381,242.4 M381,234.4
			c-2.2,0-4.4,0.6-6.3,1.8l-60.9,38.2c-4.7,3-8,7.8-9.1,13.2l-13.6,70.6c-1.2,6.3,0.9,12.7,5.7,17l22.9,21.8l13.7-78.9
			c2.3-13.2,10.5-24.7,22.3-31.2l65.2-35.8L386,235.6C384.4,234.8,382.7,234.4,381,234.4L381,234.4z"/>
	</g>
	<g>
		<path d="M419.4,264.1L419.4,264.1c4.1,0,8.1,1.2,11.6,3.5l17.2,11.4c6.6,4.4,10.2,12,9.3,19.9l-6.4,57.7
			c-0.6,5.4-3.2,10.3-7.4,13.8l-54,45.2c-3.8,3.2-8.6,4.9-13.5,4.9c-4.1,0-8.1-1.2-11.5-3.4l-25.2-16.5c-6.8-4.4-10.5-12.5-9.3-20.6
			l9.3-65.7c0.9-6.6,5-12.4,10.8-15.5l59.1-32.1C412.4,264.9,415.9,264.1,419.4,264.1 M419.4,256.1c-4.8,0-9.5,1.2-13.9,3.5
			l-59.1,32.1c-8.1,4.4-13.6,12.3-14.9,21.5l-9.3,65.7c-1.6,11.2,3.4,22.2,12.9,28.4l25.2,16.5c4.8,3.2,10.4,4.7,15.9,4.7
			c6.7,0,13.3-2.3,18.6-6.8l54-45.2c5.7-4.8,9.4-11.6,10.2-19.1l6.4-57.7c1.2-10.8-3.8-21.4-12.9-27.4l-17.2-11.4
			C430.6,257.7,425,256.1,419.4,256.1L419.4,256.1z"/>
	</g>
	<g>
		<polygon points="322,377.4 319.7,397.1 331.8,404.7 		"/>
	</g>
	<g>
		<polygon class="st0" points="420.6,255.9 421.6,256.6 418.7,256.8 		"/>
		<polygon points="420.9,251.3 399,262 433.7,259.8 		"/>
	</g>
</g>
<linearGradient id="SVGID_1_" gradientUnits="userSpaceOnUse" x1="221.65" y1="424.58" x2="221.65" y2="479.18" gradientTransform="matrix(1 0 0 -1 0 479.1801)">
	<stop  offset="0" style="stop-color:#FFFFFF;stop-opacity:0"/>
	<stop  offset="8.192581e-02" style="stop-color:#FFFFFF;stop-opacity:8.192581e-02"/>
	<stop  offset="1" style="stop-color:#FFFFFF"/>
</linearGradient>
<rect y="0" class="st1" width="443.3" height="54.6"/>
<linearGradient id="SVGID_2_" gradientUnits="userSpaceOnUse" x1="-1459.9762" y1="764.6489" x2="-1459.9762" y2="819.2489" gradientTransform="matrix(4.489700e-11 -1 -1 -4.489700e-11 819.2489 -1285.4261)">
	<stop  offset="0" style="stop-color:#FFFFFF;stop-opacity:0"/>
	<stop  offset="8.192581e-02" style="stop-color:#FFFFFF;stop-opacity:8.192581e-02"/>
	<stop  offset="1" style="stop-color:#FFFFFF"/>
</linearGradient>
<polygon class="st2" points="54.6,1.3 54.6,347.8 0,347.8 0,1.3 "/>
</svg>
