<?xml version="1.0" encoding="utf-8"?>
<!-- Generator: Adobe Illustrator 19.1.0, SVG Export Plug-In . SVG Version: 6.00 Build 0)  -->
<svg version="1.1" id="Layer_1" xmlns="http://www.w3.org/2000/svg" xmlns:xlink="http://www.w3.org/1999/xlink" x="0px" y="0px"
	 viewBox="0 0 1252.6 1570.4" style="enable-background:new 0 0 1252.6 1570.4;" xml:space="preserve">
<style type="text/css">
	.st0{fill:none;stroke:#BCBEC0;stroke-width:5;stroke-miterlimit:10;}
	.st1{fill:#FFFFFF;}
	.st2{fill:#FFFFFF;stroke:#000000;stroke-width:5;stroke-miterlimit:10;}
	.st3{stroke:#000000;stroke-width:5;stroke-miterlimit:10;}
	.st4{fill:#FFFFFF;stroke:#BCBEC0;stroke-width:5;stroke-miterlimit:10;}
</style>
<rect x="448.8" y="526.2" class="st0" width="355" height="30"/>
<path class="st0" d="M526.8,230l-77.9,296.3h355l-79-296.3H526.8z M520,477.7c-10,0-17.2-4.6-16.1-10.3c1.1-5.5,9.7-9.9,19.4-9.9
	c9.7,0,16.9,4.4,16.2,9.9C538.7,473.1,530,477.7,520,477.7z M554.6,264.5c-6.7,0-11.7-2.1-11.2-4.6c0.5-2.5,6.2-4.5,12.7-4.5
	s11.6,2,11.3,4.5C567,262.4,561.3,264.5,554.6,264.5z M626,348.4c-12,0-21.5-4.4-21.3-9.8c0.2-5.3,9.7-9.5,21.3-9.5
	s21.1,4.2,21.3,9.5C647.5,344,638,348.4,626,348.4z M732.4,477.7c-10,0-18.7-4.6-19.5-10.3c-0.8-5.5,6.5-9.9,16.1-9.9
	s18.4,4.4,19.4,9.9C749.5,473.1,742.4,477.7,732.4,477.7z M697.1,264.5c-6.7,0-12.4-2.1-12.8-4.6c-0.3-2.5,4.7-4.5,11.2-4.5
	s12.3,2,12.7,4.5C708.8,262.4,703.8,264.5,697.1,264.5z"/>
<g>
	<g>
		<path d="M703.7,141.4v65c0,1-0.5,1.8-1.4,2.2c-1.7,0.7-3.7,1.1-5.7,1.1c-2.2,0-4.3-0.4-6.3-1.3c-0.9-0.4-1.4-1.2-1.4-2.2v-64.8
			H703.7 M708.7,136.4h-24.8v69.8c0,3,1.8,5.7,4.5,6.8c2.6,1.1,5.4,1.6,8.2,1.6c2.7,0,5.3-0.5,7.7-1.5c2.7-1.1,4.4-3.8,4.4-6.8
			V136.4L708.7,136.4z"/>
	</g>
	<g>
		<polygon points="686.7,151.7 675.5,140.6 686.7,129.4 706,129.4 717.1,140.6 706,151.7 		"/>
		<path d="M705,131.9l8.6,8.6l-8.6,8.6h-17.3l-8.6-8.6l8.6-8.6H705 M707,126.9H705h-17.3h-2.1l-1.5,1.5l-8.6,8.6l-3.6,3.5l3.6,3.5
			l8.6,8.6l1.5,1.5h2.1H705h2.1l1.5-1.5l8.6-8.6l3.6-3.5l-3.6-3.5l-8.6-8.6L707,126.9L707,126.9z"/>
	</g>
	<g>
		<rect x="674.6" y="133.1" class="st1" width="43.5" height="5"/>
		<polygon points="720.6,130.6 672.1,130.6 672.1,140.6 720.6,140.6 720.6,130.6 		"/>
	</g>
	<g>
		<polygon class="st1" points="686.7,141.7 675.5,130.6 686.7,119.4 706,119.4 717.1,130.6 706,141.7 		"/>
		<path d="M705,121.9l8.6,8.6l-8.6,8.6h-17.3l-8.6-8.6l8.6-8.6H705 M707,116.9H705h-17.3h-2.1l-1.5,1.5l-8.6,8.6l-3.6,3.5l3.6,3.5
			l8.6,8.6l1.5,1.5h2.1H705h2.1l1.5-1.5l8.6-8.6l3.6-3.5l-3.6-3.5l-8.6-8.6L707,116.9L707,116.9z"/>
	</g>
</g>
<g>
	<g>
		<path d="M562.8,141.4v65c0,1-0.5,1.8-1.4,2.2c-1.7,0.7-3.7,1.1-5.7,1.1c-2.2,0-4.3-0.4-6.3-1.3c-0.9-0.4-1.4-1.2-1.4-2.2v-64.8
			H562.8 M567.8,136.4H543v69.8c0,3,1.8,5.7,4.5,6.8c2.6,1.1,5.4,1.6,8.2,1.6c2.7,0,5.3-0.5,7.7-1.5c2.7-1.1,4.4-3.8,4.4-6.8V136.4
			L567.8,136.4z"/>
	</g>
	<g>
		<polygon points="545.7,151.7 534.6,140.6 545.7,129.4 565,129.4 576.2,140.6 565,151.7 		"/>
		<path d="M564,131.9l8.6,8.6l-8.6,8.6h-17.3l-8.6-8.6l8.6-8.6H564 M566.1,126.9H564h-17.3h-2.1l-1.5,1.5l-8.6,8.6l-3.6,3.5l3.6,3.5
			l8.6,8.6l1.5,1.5h2.1H564h2.1l1.5-1.5l8.6-8.6l3.6-3.5l-3.6-3.5l-8.6-8.6L566.1,126.9L566.1,126.9z"/>
	</g>
	<g>
		<rect x="533.6" y="133.1" class="st1" width="43.5" height="5"/>
		<polygon points="579.6,130.6 531.1,130.6 531.1,140.6 579.6,140.6 579.6,130.6 		"/>
	</g>
	<g>
		<polygon class="st1" points="545.7,141.7 534.6,130.6 545.7,119.4 565,119.4 576.2,130.6 565,141.7 		"/>
		<path d="M564,121.9l8.6,8.6l-8.6,8.6h-17.3l-8.6-8.6l8.6-8.6H564 M566.1,116.9H564h-17.3h-2.1l-1.5,1.5l-8.6,8.6l-3.6,3.5l3.6,3.5
			l8.6,8.6l1.5,1.5h2.1H564h2.1l1.5-1.5l8.6-8.6l3.6-3.5l-3.6-3.5l-8.6-8.6L566.1,116.9L566.1,116.9z"/>
	</g>
</g>
<g>
	<g>
		<path d="M738.1,362.4v65c0,1-0.5,1.8-1.4,2.2c-1.7,0.7-3.7,1.1-5.7,1.1c-2.2,0-4.3-0.4-6.3-1.3c-0.9-0.4-1.4-1.2-1.4-2.2v-64.8
			H738.1 M743.1,357.4h-24.8v69.8c0,3,1.8,5.7,4.5,6.8c2.6,1.1,5.4,1.6,8.2,1.6c2.7,0,5.3-0.5,7.7-1.5c2.7-1.1,4.4-3.8,4.4-6.8
			V357.4L743.1,357.4z"/>
	</g>
	<g>
		<polygon points="721,372.6 709.9,361.5 721,350.4 740.4,350.4 751.5,361.5 740.4,372.6 		"/>
		<path d="M739.3,352.9l8.6,8.6l-8.6,8.6h-17.3l-8.6-8.6l8.6-8.6H739.3 M741.4,347.9h-2.1h-17.3H720l-1.5,1.5l-8.6,8.6l-3.6,3.5
			l3.6,3.5l8.6,8.6l1.5,1.5h2.1h17.3h2.1l1.5-1.5l8.6-8.6l3.6-3.5l-3.6-3.5l-8.6-8.6L741.4,347.9L741.4,347.9z"/>
	</g>
	<g>
		<rect x="709" y="354" class="st1" width="43.5" height="5"/>
		<polygon points="754.9,351.5 706.5,351.5 706.5,361.5 754.9,361.5 754.9,351.5 		"/>
	</g>
	<g>
		<polygon class="st1" points="721,362.6 709.9,351.5 721,340.4 740.4,340.4 751.5,351.5 740.4,362.6 		"/>
		<path d="M739.3,342.9l8.6,8.6l-8.6,8.6h-17.3l-8.6-8.6l8.6-8.6H739.3 M741.4,337.9h-2.1h-17.3H720l-1.5,1.5l-8.6,8.6l-3.6,3.5
			l3.6,3.5l8.6,8.6l1.5,1.5h2.1h17.3h2.1l1.5-1.5l8.6-8.6l3.6-3.5l-3.6-3.5l-8.6-8.6L741.4,337.9L741.4,337.9z"/>
	</g>
</g>
<g>
	<g>
		<path d="M529.1,362.4v65c0,1-0.5,1.8-1.4,2.2c-1.7,0.7-3.7,1.1-5.7,1.1c-2.2,0-4.3-0.4-6.3-1.3c-0.9-0.4-1.4-1.2-1.4-2.2v-64.8
			H529.1 M534.1,357.4h-24.8v69.8c0,3,1.8,5.7,4.5,6.8c2.6,1.1,5.4,1.6,8.2,1.6c2.7,0,5.3-0.5,7.7-1.5c2.7-1.1,4.4-3.8,4.4-6.8
			V357.4L534.1,357.4z"/>
	</g>
	<g>
		<polygon points="512,372.6 500.9,361.5 512,350.4 531.4,350.4 542.5,361.5 531.4,372.6 		"/>
		<path d="M530.3,352.9l8.6,8.6l-8.6,8.6H513l-8.6-8.6l8.6-8.6H530.3 M532.4,347.9h-2.1H513H511l-1.5,1.5l-8.6,8.6l-3.6,3.5l3.6,3.5
			l8.6,8.6l1.5,1.5h2.1h17.3h2.1l1.5-1.5l8.6-8.6l3.6-3.5l-3.6-3.5l-8.6-8.6L532.4,347.9L532.4,347.9z"/>
	</g>
	<g>
		<rect x="499.9" y="354" class="st1" width="43.5" height="5"/>
		<polygon points="545.9,351.5 497.4,351.5 497.4,361.5 545.9,361.5 545.9,351.5 		"/>
	</g>
	<g>
		<polygon class="st1" points="512,362.6 500.9,351.5 512,340.4 531.4,340.4 542.5,351.5 531.4,362.6 		"/>
		<path d="M530.3,342.9l8.6,8.6l-8.6,8.6H513l-8.6-8.6l8.6-8.6H530.3 M532.4,337.9h-2.1H513H511l-1.5,1.5l-8.6,8.6l-3.6,3.5l3.6,3.5
			l8.6,8.6l1.5,1.5h2.1h17.3h2.1l1.5-1.5l8.6-8.6l3.6-3.5l-3.6-3.5l-8.6-8.6L532.4,337.9L532.4,337.9z"/>
	</g>
</g>
<g>
	<rect x="455.6" y="996.1" class="st2" width="342.8" height="13.2"/>
	<g>
		<g>
			<path class="st1" d="M631,1011.3l-7.9,0.2l-11.8,14.8c-0.8-3.5-1.6-12-1.6-23.7c0-11.5,0.8-20,1.6-23.5l11.8,14.9l7.8,0.2
				l11.6-15.2c0.8,3.5,1.6,12,1.6,23.7s-0.8,20.2-1.6,23.7L631,1011.3z"/>
			<path d="M613,985.3l7.5,9.5l1.5,1.8l2.3,0.1l5.4,0.1l2.5,0.1l1.6-2l7.3-9.5c0.4,4.2,0.7,10.1,0.7,17.5s-0.3,13.3-0.7,17.5
				l-7.2-9.4l-1.5-2l-2.5,0.1l-5.4,0.1l-2.3,0.1l-1.5,1.8l-7.5,9.4c-0.4-4.2-0.8-10.2-0.8-17.6C612.2,995.4,612.6,989.4,613,985.3
				 M610.3,975.8c-1.7,0-3,12-3,26.9c0,14.8,1.3,26.9,3,26.9l1.7,0.1l12.4-15.7l5.4-0.1l12.1,15.8h1.8c1.7,0,3-12,3-26.9
				c0-14.8-1.3-26.9-3-26.9h-1.8l-12.2,15.9l-5.4-0.1l-12.5-15.7L610.3,975.8L610.3,975.8z"/>
		</g>
		<rect x="623.4" y="994.1" class="st2" width="7.5" height="17.2"/>
	</g>
	<path class="st3" d="M647.3,1018.5h7.6c0.7,0,1.4-0.5,1.5-1.2l2.1-9c0-0.1,0-0.2,0-0.4v-10.4c0-0.1,0-0.2,0-0.3l-2.1-9.5
		c-0.2-0.7-0.8-1.2-1.6-1.2h-7.6c-0.9,0-1.6,0.7-1.6,1.6v28.9C645.7,1017.8,646.4,1018.5,647.3,1018.5z"/>
	<path class="st3" d="M606.6,986.4H599c-0.7,0-1.4,0.5-1.5,1.2l-2.1,9c0,0.1,0,0.2,0,0.4v10.4c0,0.1,0,0.2,0,0.3l2.1,9.5
		c0.2,0.7,0.8,1.2,1.6,1.2h7.6c0.9,0,1.6-0.7,1.6-1.6V988C608.2,987.1,607.5,986.4,606.6,986.4z"/>
</g>
<g>
	<rect x="490.1" y="763.5" class="st2" width="273.7" height="10.6"/>
	<g>
		<g>
			<path class="st1" d="M630.5,775.1l-6.8,0.2l-8.9,11.2c-0.5-3.1-1.1-9.2-1.1-17.7c0-8.4,0.5-14.5,1-17.6l8.9,11.2l6.7,0.2
				l8.8-11.4c0.5,3.1,1.1,9.2,1.1,17.7s-0.5,14.6-1.1,17.7L630.5,775.1z"/>
			<path d="M616.6,757.4l4.4,5.6l1.5,1.8l2.3,0.1l4.3,0.1l2.5,0.1l1.6-2l4.2-5.5c0.2,2.9,0.4,6.7,0.4,11.3s-0.2,8.3-0.4,11.3
				l-4.2-5.5l-1.5-2l-2.5,0.1l-4.3,0.1l-2.3,0.1l-1.5,1.8l-4.4,5.5c-0.2-3-0.4-6.8-0.4-11.4C616.2,764.1,616.4,760.3,616.6,757.4
				 M613.6,747.2c-1.3,0-2.4,9.6-2.4,21.5s1.1,21.5,2.4,21.5l1.3,0.1l9.9-12.5l4.3-0.1l9.7,12.6h1.4c1.3,0,2.4-9.6,2.4-21.5
				c0-11.9-1.1-21.5-2.4-21.5h-1.4l-9.7,12.7l-4.3-0.1l-10-12.6L613.6,747.2L613.6,747.2z"/>
		</g>
		<rect x="624.1" y="761.8" class="st2" width="6" height="13.7"/>
	</g>
	<path class="st3" d="M643.2,781.3h6.1c0.6,0,1.1-0.4,1.2-1l1.7-7.2c0-0.1,0-0.2,0-0.3v-8.3c0-0.1,0-0.2,0-0.3l-1.7-7.6
		c-0.1-0.6-0.6-1-1.2-1h-6.1c-0.7,0-1.3,0.6-1.3,1.3v23.1C641.9,780.8,642.5,781.3,643.2,781.3z"/>
	<path class="st3" d="M610.7,755.7h-6.1c-0.6,0-1.1,0.4-1.2,1l-1.7,7.2c0,0.1,0,0.2,0,0.3v8.3c0,0.1,0,0.2,0,0.3l1.7,7.6
		c0.1,0.6,0.6,1,1.2,1h6.1c0.7,0,1.3-0.6,1.3-1.3V757C612,756.3,611.4,755.7,610.7,755.7z"/>
</g>
<polyline class="st4" points="1058.9,1076.2 1058.9,1371.2 1034.9,1371.2 1034.9,1100.2 763.9,1100.2 763.9,1076.2 1058.9,1076.2 
	"/>
<polyline class="st4" points="191.4,1076.2 486.4,1076.2 486.4,1100.2 215.4,1100.2 215.4,1371.2 191.4,1371.2 191.4,1076.2 "/>
<path class="st4" d="M336.1,625l-144.7,451.2h295L503.2,625H336.1z M299.5,960.9c-9.8,0-16.1-6.5-14-14.4c2-7.8,11.4-14,20.9-14
	s15.8,6.2,14.1,14C318.8,954.4,309.4,960.9,299.5,960.9z M367.1,683.8c-6.9,0-11.6-3.2-10.6-7.1c1-3.9,7.3-7,14-7
	c6.7,0,11.5,3.1,10.6,7C380.3,680.6,374,683.8,367.1,683.8z M413.4,975.8c-10,0-17.1-6.7-16-14.9c1.1-8,9.8-14.4,19.5-14.4
	c9.7,0,16.9,6.4,16.1,14.4C432.1,969.1,423.4,975.8,413.4,975.8z M449.3,673.2c-6.8,0-11.8-3.1-11.3-6.9c0.5-3.7,6.3-6.7,12.9-6.7
	c6.6,0,11.7,3,11.3,6.7C461.9,670.1,456.1,673.2,449.3,673.2z"/>
<path class="st4" d="M747.1,625l16.8,451.2h295L914.2,625H747.1z M839.3,975.8c-10,0-18.8-6.7-19.6-14.9c-0.8-8,6.4-14.4,16-14.4
	c9.7,0,18.4,6.4,19.5,14.4C856.4,969.1,849.2,975.8,839.3,975.8z M802.5,673.2c-6.8,0-12.6-3.1-13-6.9c-0.4-3.7,4.7-6.7,11.3-6.7
	c6.6,0,12.4,3,12.9,6.7C814.4,670.1,809.3,673.2,802.5,673.2z M950.8,960.9c-9.8,0-19.2-6.5-21-14.4c-1.7-7.8,4.6-14,14.1-14
	s18.9,6.2,20.9,14C966.8,954.4,960.6,960.9,950.8,960.9z M883.2,683.8c-6.9,0-13.2-3.2-14.1-7.1c-0.9-3.9,3.9-7,10.6-7s13,3.1,14,7
	C894.8,680.6,890.1,683.8,883.2,683.8z"/>
<path class="st4" d="M303,1100.2l-87.6,271"/>
<path class="st0" d="M1031.8,1371.2l-70.1-271"/>
<g>
	<g>
		<polygon points="937.6,835.4 926.5,824.3 937.6,813.2 957,813.2 968.1,824.3 957,835.4 		"/>
		<path d="M955.9,815.7l8.6,8.6l-8.6,8.6h-17.3l-8.6-8.6l8.6-8.6H955.9 M958,810.7h-2.1h-17.3h-2.1l-1.5,1.5l-8.6,8.6l-3.6,3.5
			l3.6,3.5l8.6,8.6l1.5,1.5h2.1h17.3h2.1l1.5-1.5l8.6-8.6l3.6-3.5l-3.6-3.5l-8.6-8.6L958,810.7L958,810.7z"/>
	</g>
	<g>
		<rect x="281.3" y="819.8" class="st1" width="43.5" height="5"/>
		<polygon points="327.3,817.3 278.8,817.3 278.8,827.3 327.3,827.3 327.3,817.3 		"/>
	</g>
	<g>
		<rect x="925.5" y="816.8" class="st1" width="43.5" height="5"/>
		<polygon points="971.5,814.3 923,814.3 923,824.3 971.5,824.3 971.5,814.3 		"/>
	</g>
	<g>
		<polygon class="st1" points="937.6,825.4 926.5,814.3 937.6,803.2 957,803.2 968.1,814.3 957,825.4 		"/>
		<path d="M955.9,805.7l8.6,8.6l-8.6,8.6h-17.3l-8.6-8.6l8.6-8.6H955.9 M958,800.7h-2.1h-17.3h-2.1l-1.5,1.5l-8.6,8.6l-3.6,3.5
			l3.6,3.5l8.6,8.6l1.5,1.5h2.1h17.3h2.1l1.5-1.5l8.6-8.6l3.6-3.5l-3.6-3.5l-8.6-8.6L958,800.7L958,800.7z"/>
	</g>
	<g>
		<path d="M947.3,817.4c-4.9,0-7.9-2-7.9-3.1s3-3.1,7.9-3.1c4.9,0,7.9,2,7.9,3.1S952.2,817.4,947.3,817.4z"/>
		<path d="M947.3,813.6c1.7,0,3,0.3,4,0.6c-1,0.3-2.3,0.6-4,0.6c-1.7,0-3-0.3-4-0.6C944.3,813.9,945.6,813.6,947.3,813.6
			 M947.3,808.6c-5.7,0-10.4,2.5-10.4,5.6s4.6,5.6,10.4,5.6s10.4-2.5,10.4-5.6S953,808.6,947.3,808.6L947.3,808.6z"/>
	</g>
	<g>
		<path class="st1" d="M947.3,883c-13.2,0-24.4-6.5-24.4-14.2s11.2-14.2,24.4-14.2s24.4,6.5,24.4,14.2S960.5,883,947.3,883z"/>
		<path d="M947.3,857.2c12.9,0,21.9,6.1,21.9,11.7c0,5.5-9,11.7-21.9,11.7c-12.9,0-21.9-6.1-21.9-11.7
			C925.4,863.3,934.4,857.2,947.3,857.2 M947.3,852.2c-14.8,0-26.9,7.5-26.9,16.7c0,9.2,12,16.7,26.9,16.7
			c14.8,0,26.9-7.5,26.9-16.7C974.2,859.6,962.1,852.2,947.3,852.2L947.3,852.2z"/>
	</g>
	<g>
		<path d="M947.3,872c-4.9,0-7.9-2-7.9-3.1s3-3.1,7.9-3.1c4.9,0,7.9,2,7.9,3.1S952.2,872,947.3,872z"/>
		<path d="M947.3,868.2c1.7,0,3,0.3,4,0.6c-1,0.3-2.3,0.6-4,0.6s-3-0.3-4-0.6C944.3,868.5,945.6,868.2,947.3,868.2 M947.3,863.2
			c-5.7,0-10.4,2.5-10.4,5.6c0,3.1,4.6,5.6,10.4,5.6c5.7,0,10.4-2.5,10.4-5.6C957.7,865.7,953,863.2,947.3,863.2L947.3,863.2z"/>
	</g>
	<g>
		<polygon points="293.3,838.4 282.2,827.3 293.3,816.1 312.7,816.1 323.8,827.3 312.7,838.4 		"/>
		<path d="M311.6,818.6l8.6,8.6l-8.6,8.6h-17.3l-8.6-8.6l8.6-8.6H311.6 M313.7,813.6h-2.1h-17.3h-2.1l-1.5,1.5l-8.6,8.6l-3.6,3.5
			l3.6,3.5l8.6,8.6l1.5,1.5h2.1h17.3h2.1l1.5-1.5l8.6-8.6l3.6-3.5l-3.6-3.5l-8.6-8.6L313.7,813.6L313.7,813.6z"/>
	</g>
	<g>
		<polygon class="st1" points="293.3,828.4 282.2,817.3 293.3,806.1 312.7,806.1 323.8,817.3 312.7,828.4 		"/>
		<path d="M311.6,808.6l8.6,8.6l-8.6,8.6h-17.3l-8.6-8.6l8.6-8.6H311.6 M313.7,803.6h-2.1h-17.3h-2.1l-1.5,1.5l-8.6,8.6l-3.6,3.5
			l3.6,3.5l8.6,8.6l1.5,1.5h2.1h17.3h2.1l1.5-1.5l8.6-8.6l3.6-3.5l-3.6-3.5l-8.6-8.6L313.7,803.6L313.7,803.6z"/>
	</g>
	<g>
		<path d="M303,820.4c-4.9,0-7.9-2-7.9-3.1s3-3.1,7.9-3.1s7.9,2,7.9,3.1S307.9,820.4,303,820.4z"/>
		<path d="M303,816.6c1.7,0,3,0.3,4,0.6c-1,0.3-2.3,0.6-4,0.6s-3-0.3-4-0.6C300,816.9,301.3,816.6,303,816.6 M303,811.6
			c-5.7,0-10.4,2.5-10.4,5.6s4.6,5.6,10.4,5.6s10.4-2.5,10.4-5.6S308.7,811.6,303,811.6L303,811.6z"/>
	</g>
	<g>
		<path class="st1" d="M303,886.6c-13.2,0-24.4-6.8-24.4-14.8S289.8,857,303,857s24.4,6.8,24.4,14.8S316.2,886.6,303,886.6z"/>
		<path d="M303,859.5c6.1,0,12.1,1.6,16.3,4.3c2.1,1.3,5.6,4.2,5.6,8s-3.5,6.7-5.6,8c-4.2,2.7-10.2,4.3-16.3,4.3s-12.1-1.6-16.3-4.3
			c-2.1-1.3-5.6-4.2-5.6-8s3.5-6.7,5.6-8C290.9,861.1,296.9,859.5,303,859.5 M303,854.5c-14.8,0-26.9,7.8-26.9,17.3
			c0,9.6,12,17.3,26.9,17.3s26.9-7.8,26.9-17.3C329.9,862.3,317.9,854.5,303,854.5L303,854.5z"/>
	</g>
	<g>
		<path d="M303,874.9c-4.9,0-7.9-2-7.9-3.1s3-3.1,7.9-3.1s7.9,2,7.9,3.1S307.9,874.9,303,874.9z"/>
		<path d="M303,871.2c1.7,0,3,0.3,4,0.6c-1,0.3-2.3,0.6-4,0.6s-3-0.3-4-0.6C300,871.5,301.3,871.2,303,871.2 M303,866.2
			c-5.7,0-10.4,2.5-10.4,5.6s4.6,5.6,10.4,5.6s10.4-2.5,10.4-5.6S308.7,866.2,303,866.2L303,866.2z"/>
	</g>
	<g>
		<polygon points="359.1,571 348,559.8 359.1,548.7 378.5,548.7 389.6,559.8 378.5,571 		"/>
		<path d="M377.4,551.2l8.6,8.6l-8.6,8.6h-17.3l-8.6-8.6l8.6-8.6H377.4 M379.5,546.2h-2.1h-17.3h-2.1l-1.5,1.5l-8.6,8.6l-3.6,3.5
			l3.6,3.5l8.6,8.6l1.5,1.5h2.1h17.3h2.1l1.5-1.5l8.6-8.6l3.6-3.5l-3.6-3.5l-8.6-8.6L379.5,546.2L379.5,546.2z"/>
	</g>
	<g>
		<rect x="347.1" y="552.3" class="st1" width="43.5" height="5"/>
		<polygon points="393.1,549.8 344.6,549.8 344.6,559.8 393.1,559.8 393.1,549.8 		"/>
	</g>
	<g>
		<polygon class="st1" points="359.1,561 348,549.8 359.1,538.7 378.5,538.7 389.6,549.8 378.5,561 		"/>
		<path d="M377.4,541.2l8.6,8.6l-8.6,8.6h-17.3l-8.6-8.6l8.6-8.6H377.4 M379.5,536.2h-2.1h-17.3h-2.1l-1.5,1.5l-8.6,8.6l-3.6,3.5
			l3.6,3.5l8.6,8.6l1.5,1.5h2.1h17.3h2.1l1.5-1.5l8.6-8.6l3.6-3.5l-3.6-3.5l-8.6-8.6L379.5,536.2L379.5,536.2z"/>
	</g>
	<g>
		<path d="M368.8,553c-4.9,0-7.9-2-7.9-3.1s3-3.1,7.9-3.1s7.9,2,7.9,3.1S373.7,553,368.8,553z"/>
		<path d="M368.8,549.2c1.7,0,3,0.3,4,0.6c-1,0.3-2.3,0.6-4,0.6s-3-0.3-4-0.6C365.8,549.5,367.1,549.2,368.8,549.2 M368.8,544.2
			c-5.7,0-10.4,2.5-10.4,5.6s4.6,5.6,10.4,5.6c5.7,0,10.4-2.5,10.4-5.6S374.5,544.2,368.8,544.2L368.8,544.2z"/>
	</g>
	<g>
		<path class="st1" d="M368.8,616.2c-14.6,0-24.4-6.1-24.4-11.8s9.8-11.8,24.4-11.8s24.4,6.1,24.4,11.8S383.4,616.2,368.8,616.2z"/>
		<path d="M368.8,595.1c13.4,0,21.9,5.5,21.9,9.3s-8.5,9.3-21.9,9.3s-21.9-5.5-21.9-9.3S355.4,595.1,368.8,595.1 M368.8,590.1
			c-14.8,0-26.9,6.4-26.9,14.3c0,7.9,12,14.3,26.9,14.3s26.9-6.4,26.9-14.3C395.7,596.5,383.7,590.1,368.8,590.1L368.8,590.1z"/>
	</g>
	<g>
		<path d="M368.8,607.5c-4.9,0-7.9-2-7.9-3.1s3-3.1,7.9-3.1s7.9,2,7.9,3.1S373.7,607.5,368.8,607.5z"/>
		<path d="M368.8,603.8c1.7,0,3,0.3,4,0.6c-1,0.3-2.3,0.6-4,0.6s-3-0.3-4-0.6C365.8,604.1,367.1,603.8,368.8,603.8 M368.8,598.8
			c-5.7,0-10.4,2.5-10.4,5.6c0,3.1,4.6,5.6,10.4,5.6c5.7,0,10.4-2.5,10.4-5.6C379.2,601.3,374.5,598.8,368.8,598.8L368.8,598.8z"/>
	</g>
	<g>
		<polygon points="871.8,571 860.7,559.8 871.8,548.7 891.2,548.7 902.3,559.8 891.2,571 		"/>
		<path d="M890.1,551.2l8.6,8.6l-8.6,8.6h-17.3l-8.6-8.6l8.6-8.6H890.1 M892.2,546.2h-2.1h-17.3h-2.1l-1.5,1.5l-8.6,8.6l-3.6,3.5
			l3.6,3.5l8.6,8.6l1.5,1.5h2.1h17.3h2.1l1.5-1.5l8.6-8.6l3.6-3.5l-3.6-3.5l-8.6-8.6L892.2,546.2L892.2,546.2z"/>
	</g>
	<g>
		<rect x="859.7" y="552.3" class="st1" width="43.5" height="5"/>
		<polygon points="905.7,549.8 857.2,549.8 857.2,559.8 905.7,559.8 905.7,549.8 		"/>
	</g>
	<g>
		<polygon class="st1" points="871.8,561 860.7,549.8 871.8,538.7 891.2,538.7 902.3,549.8 891.2,561 		"/>
		<path d="M890.1,541.2l8.6,8.6l-8.6,8.6h-17.3l-8.6-8.6l8.6-8.6H890.1 M892.2,536.2h-2.1h-17.3h-2.1l-1.5,1.5l-8.6,8.6l-3.6,3.5
			l3.6,3.5l8.6,8.6l1.5,1.5h2.1h17.3h2.1l1.5-1.5l8.6-8.6l3.6-3.5l-3.6-3.5l-8.6-8.6L892.2,536.2L892.2,536.2z"/>
	</g>
	<g>
		<path d="M881.5,553c-4.9,0-7.9-2-7.9-3.1s3-3.1,7.9-3.1c4.9,0,7.9,2,7.9,3.1S886.4,553,881.5,553z"/>
		<path d="M881.5,549.2c1.7,0,3,0.3,4,0.6c-1,0.3-2.3,0.6-4,0.6s-3-0.3-4-0.6C878.5,549.5,879.8,549.2,881.5,549.2 M881.5,544.2
			c-5.7,0-10.4,2.5-10.4,5.6s4.6,5.6,10.4,5.6s10.4-2.5,10.4-5.6S887.2,544.2,881.5,544.2L881.5,544.2z"/>
	</g>
	<g>
		<path class="st1" d="M881.5,616.2c-14.6,0-24.4-6.1-24.4-11.8s9.8-11.8,24.4-11.8s24.4,6.1,24.4,11.8S896.1,616.2,881.5,616.2z"/>
		<path d="M881.5,595.1c13.4,0,21.9,5.5,21.9,9.3s-8.5,9.3-21.9,9.3s-21.9-5.5-21.9-9.3S868.1,595.1,881.5,595.1 M881.5,590.1
			c-14.8,0-26.9,6.4-26.9,14.3c0,7.9,12,14.3,26.9,14.3c14.8,0,26.9-6.4,26.9-14.3C908.4,596.5,896.3,590.1,881.5,590.1L881.5,590.1
			z"/>
	</g>
	<g>
		<path d="M881.5,607.5c-4.9,0-7.9-2-7.9-3.1s3-3.1,7.9-3.1s7.9,2,7.9,3.1S886.4,607.5,881.5,607.5z"/>
		<path d="M881.5,603.8c1.7,0,3,0.3,4,0.6c-1,0.3-2.3,0.6-4,0.6s-3-0.3-4-0.6C878.5,604.1,879.8,603.8,881.5,603.8 M881.5,598.8
			c-5.7,0-10.4,2.5-10.4,5.6c0,3.1,4.6,5.6,10.4,5.6s10.4-2.5,10.4-5.6C891.9,601.3,887.2,598.8,881.5,598.8L881.5,598.8z"/>
	</g>
</g>
<g>
	<g>
		<polygon points="405.4,1216.1 394.3,1205 405.4,1193.8 424.8,1193.8 435.9,1205 424.8,1216.1 		"/>
		<path d="M423.8,1196.3l8.6,8.6l-8.6,8.6h-17.3l-8.6-8.6l8.6-8.6H423.8 M425.8,1191.3h-2.1h-17.3h-2.1l-1.5,1.5l-8.6,8.6l-3.6,3.5
			l3.6,3.5l8.6,8.6l1.5,1.5h2.1h17.3h2.1l1.5-1.5l8.6-8.6l3.6-3.5l-3.6-3.5l-8.6-8.6L425.8,1191.3L425.8,1191.3z"/>
	</g>
	<g>
		<rect x="393.4" y="1197.5" class="st1" width="43.5" height="5"/>
		<polygon points="439.4,1195 390.9,1195 390.9,1205 439.4,1205 439.4,1195 		"/>
	</g>
	<g>
		<polygon class="st1" points="405.4,1206.1 394.3,1195 405.4,1183.8 424.8,1183.8 435.9,1195 424.8,1206.1 		"/>
		<path d="M423.8,1186.3l8.6,8.6l-8.6,8.6h-17.3l-8.6-8.6l8.6-8.6H423.8 M425.8,1181.3h-2.1h-17.3h-2.1l-1.5,1.5l-8.6,8.6l-3.6,3.5
			l3.6,3.5l8.6,8.6l1.5,1.5h2.1h17.3h2.1l1.5-1.5l8.6-8.6l3.6-3.5l-3.6-3.5l-8.6-8.6L425.8,1181.3L425.8,1181.3z"/>
	</g>
	<g>
		<path d="M415.1,1198.1c-4.9,0-7.9-2-7.9-3.1s3-3.1,7.9-3.1s7.9,2,7.9,3.1S420,1198.1,415.1,1198.1z"/>
		<path d="M415.1,1194.3c1.7,0,3,0.3,4,0.6c-1,0.3-2.3,0.6-4,0.6c-1.7,0-3-0.3-4-0.6C412.1,1194.6,413.4,1194.3,415.1,1194.3
			 M415.1,1189.3c-5.7,0-10.4,2.5-10.4,5.6c0,3.1,4.6,5.6,10.4,5.6s10.4-2.5,10.4-5.6C425.5,1191.9,420.9,1189.3,415.1,1189.3
			L415.1,1189.3z"/>
	</g>
	<g>
		<path class="st1" d="M415.1,1165.5c-14.6,0-24.4-6.1-24.4-11.8s9.8-11.8,24.4-11.8c14.6,0,24.4,6.1,24.4,11.8
			S429.7,1165.5,415.1,1165.5z"/>
		<path d="M415.1,1144.4c13.4,0,21.9,5.5,21.9,9.3s-8.5,9.3-21.9,9.3c-13.4,0-21.9-5.5-21.9-9.3S401.8,1144.4,415.1,1144.4
			 M415.1,1139.4c-14.8,0-26.9,6.4-26.9,14.3c0,7.9,12,14.3,26.9,14.3c14.8,0,26.9-6.4,26.9-14.3
			C442,1145.8,430,1139.4,415.1,1139.4L415.1,1139.4z"/>
	</g>
	<g>
		<path d="M415.1,1156.8c-4.9,0-7.9-2-7.9-3.1s3-3.1,7.9-3.1s7.9,2,7.9,3.1S420,1156.8,415.1,1156.8z"/>
		<path d="M415.1,1153.1c1.7,0,3,0.3,4,0.6c-1,0.3-2.3,0.6-4,0.6c-1.7,0-3-0.3-4-0.6C412.1,1153.3,413.4,1153.1,415.1,1153.1
			 M415.1,1148.1c-5.7,0-10.4,2.5-10.4,5.6c0,3.1,4.6,5.6,10.4,5.6s10.4-2.5,10.4-5.6C425.5,1150.6,420.9,1148.1,415.1,1148.1
			L415.1,1148.1z"/>
	</g>
	<g>
		<polygon points="827.8,1216.1 816.7,1205 827.8,1193.8 847.1,1193.8 858.3,1205 847.1,1216.1 		"/>
		<path d="M846.1,1196.3l8.6,8.6l-8.6,8.6h-17.3l-8.6-8.6l8.6-8.6H846.1 M848.2,1191.3h-2.1h-17.3h-2.1l-1.5,1.5l-8.6,8.6l-3.6,3.5
			l3.6,3.5l8.6,8.6l1.5,1.5h2.1h17.3h2.1l1.5-1.5l8.6-8.6l3.6-3.5l-3.6-3.5l-8.6-8.6L848.2,1191.3L848.2,1191.3z"/>
	</g>
	<g>
		<rect x="815.7" y="1197.5" class="st1" width="43.5" height="5"/>
		<polygon points="861.7,1195 813.2,1195 813.2,1205 861.7,1205 861.7,1195 		"/>
	</g>
	<g>
		<polygon class="st1" points="827.8,1206.1 816.7,1195 827.8,1183.8 847.1,1183.8 858.3,1195 847.1,1206.1 		"/>
		<path d="M846.1,1186.3l8.6,8.6l-8.6,8.6h-17.3l-8.6-8.6l8.6-8.6H846.1 M848.2,1181.3h-2.1h-17.3h-2.1l-1.5,1.5l-8.6,8.6l-3.6,3.5
			l3.6,3.5l8.6,8.6l1.5,1.5h2.1h17.3h2.1l1.5-1.5l8.6-8.6l3.6-3.5l-3.6-3.5l-8.6-8.6L848.2,1181.3L848.2,1181.3z"/>
	</g>
	<g>
		<path d="M837.5,1198.1c-4.9,0-7.9-2-7.9-3.1s3-3.1,7.9-3.1s7.9,2,7.9,3.1S842.4,1198.1,837.5,1198.1z"/>
		<path d="M837.5,1194.3c1.7,0,3,0.3,4,0.6c-1,0.3-2.3,0.6-4,0.6c-1.7,0-3-0.3-4-0.6C834.4,1194.6,835.8,1194.3,837.5,1194.3
			 M837.5,1189.3c-5.7,0-10.4,2.5-10.4,5.6c0,3.1,4.6,5.6,10.4,5.6s10.4-2.5,10.4-5.6C847.9,1191.9,843.2,1189.3,837.5,1189.3
			L837.5,1189.3z"/>
	</g>
	<g>
		<path class="st1" d="M837.5,1165.5c-14.6,0-24.4-6.1-24.4-11.8s9.8-11.8,24.4-11.8s24.4,6.1,24.4,11.8S852.1,1165.5,837.5,1165.5z
			"/>
		<path d="M837.5,1144.4c13.4,0,21.9,5.5,21.9,9.3s-8.5,9.3-21.9,9.3s-21.9-5.5-21.9-9.3S824.1,1144.4,837.5,1144.4 M837.5,1139.4
			c-14.8,0-26.9,6.4-26.9,14.3c0,7.9,12,14.3,26.9,14.3c14.8,0,26.9-6.4,26.9-14.3C864.4,1145.8,852.3,1139.4,837.5,1139.4
			L837.5,1139.4z"/>
	</g>
	<g>
		<path d="M837.5,1156.8c-4.9,0-7.9-2-7.9-3.1s3-3.1,7.9-3.1s7.9,2,7.9,3.1S842.4,1156.8,837.5,1156.8z"/>
		<path d="M837.5,1153.1c1.7,0,3,0.3,4,0.6c-1,0.3-2.3,0.6-4,0.6s-3-0.3-4-0.6C834.4,1153.3,835.8,1153.1,837.5,1153.1
			 M837.5,1148.1c-5.7,0-10.4,2.5-10.4,5.6c0,3.1,4.6,5.6,10.4,5.6s10.4-2.5,10.4-5.6C847.9,1150.6,843.2,1148.1,837.5,1148.1
			L837.5,1148.1z"/>
	</g>
	<g>
		<g>
			<g>
				<rect x="925.5" y="1370.4" class="st1" width="43.5" height="5"/>
				<polygon points="971.5,1367.9 923,1367.9 923,1377.9 971.5,1377.9 971.5,1367.9 				"/>
			</g>
			<g>
				<polygon points="937.6,1389.1 926.5,1377.9 937.6,1366.8 957,1366.8 968.1,1377.9 957,1389.1 				"/>
				<path d="M955.9,1369.3l8.6,8.6l-8.6,8.6h-17.3l-8.6-8.6l8.6-8.6H955.9 M958,1364.3h-2.1h-17.3h-2.1l-1.5,1.5l-8.6,8.6l-3.6,3.5
					l3.6,3.5l8.6,8.6l1.5,1.5h2.1h17.3h2.1l1.5-1.5l8.6-8.6l3.6-3.5l-3.6-3.5l-8.6-8.6L958,1364.3L958,1364.3z"/>
			</g>
			<g>
				<polygon class="st1" points="936.2,1377.5 926.6,1367.9 936.2,1358.4 958.4,1358.4 968,1367.9 958.4,1377.5 				"/>
				<path d="M957.4,1360.9l7.1,7.1l-7.1,7.1h-20.1l-7.1-7.1l7.1-7.1H957.4 M959.4,1355.9h-24.2l-12.1,12.1l12.1,12.1h24.2l12.1-12.1
					L959.4,1355.9L959.4,1355.9z"/>
			</g>
		</g>
		<g>
			<path class="st1" d="M947.3,1374.4c-16.2,0-29.9-6.8-29.9-14.8c0-8,13.7-14.8,29.9-14.8s29.9,6.8,29.9,14.8
				C977.2,1367.7,963.5,1374.4,947.3,1374.4z"/>
			<path d="M947.3,1347.4c17,0,27.4,7.1,27.4,12.3c0,5.1-10.4,12.3-27.4,12.3c-17,0-27.4-7.1-27.4-12.3
				C919.9,1354.6,930.3,1347.4,947.3,1347.4 M947.3,1342.4c-17.9,0-32.4,7.7-32.4,17.3c0,9.5,14.5,17.3,32.4,17.3
				c17.9,0,32.4-7.7,32.4-17.3C979.7,1350.1,965.2,1342.4,947.3,1342.4L947.3,1342.4z"/>
		</g>
		<g>
			<path class="st1" d="M947.3,1353.8c-11.4,0-19.4-4.8-19.4-9.2c0-4.3,8-9.2,19.4-9.2s19.4,4.8,19.4,9.2
				C966.7,1348.9,958.7,1353.8,947.3,1353.8z"/>
			<path d="M947.3,1337.9c10.5,0,16.9,4.3,16.9,6.7c0,2.4-6.4,6.7-16.9,6.7c-10.5,0-16.9-4.3-16.9-6.7
				C930.4,1342.2,936.8,1337.9,947.3,1337.9 M947.3,1332.9c-12.1,0-21.9,5.2-21.9,11.7s9.8,11.7,21.9,11.7
				c12.1,0,21.9-5.2,21.9-11.7S959.4,1332.9,947.3,1332.9L947.3,1332.9z"/>
		</g>
		<g>
			<path class="st1" d="M947.3,1350.3c-16.2,0-29.9-6.8-29.9-14.8c0-8,13.7-14.8,29.9-14.8s29.9,6.8,29.9,14.8
				C977.2,1343.6,963.5,1350.3,947.3,1350.3z"/>
			<path d="M947.3,1323.3c17,0,27.4,7.1,27.4,12.3c0,5.1-10.4,12.3-27.4,12.3c-17,0-27.4-7.1-27.4-12.3
				C919.9,1330.5,930.3,1323.3,947.3,1323.3 M947.3,1318.3c-17.9,0-32.4,7.7-32.4,17.3s14.5,17.3,32.4,17.3
				c17.9,0,32.4-7.7,32.4-17.3S965.2,1318.3,947.3,1318.3L947.3,1318.3z"/>
		</g>
		<g>
			<path class="st1" d="M947.3,1341.2c-14.6,0-24.4-6.1-24.4-11.8s9.8-11.8,24.4-11.8s24.4,6.1,24.4,11.8S961.9,1341.2,947.3,1341.2
				z"/>
			<path d="M947.3,1320.1c13.4,0,21.9,5.5,21.9,9.3s-8.5,9.3-21.9,9.3s-21.9-5.5-21.9-9.3S933.9,1320.1,947.3,1320.1 M947.3,1315.1
				c-14.8,0-26.9,6.4-26.9,14.3c0,7.9,12,14.3,26.9,14.3c14.8,0,26.9-6.4,26.9-14.3C974.2,1321.5,962.1,1315.1,947.3,1315.1
				L947.3,1315.1z"/>
		</g>
		<g>
			<path d="M947.3,1333.6c-6.1,0-9.9-2.5-9.9-4.2c0-1.7,4-4.2,9.9-4.2c6.1,0,9.9,2.5,9.9,4.2S953.3,1333.6,947.3,1333.6z"/>
			<path d="M947.3,1327.7c3.6,0,6,1,7,1.7c-1,0.7-3.4,1.7-7,1.7s-6-1-7-1.7C941.3,1328.7,943.7,1327.7,947.3,1327.7 M947.3,1322.7
				c-6.9,0-12.4,3-12.4,6.7c0,3.7,5.6,6.7,12.4,6.7s12.4-3,12.4-6.7C959.7,1325.7,954.2,1322.7,947.3,1322.7L947.3,1322.7z"/>
		</g>
		<g>
			<path class="st1" d="M946.7,1329c-4.7,0-7.9-1-9.4-2v-139c3.7,1.1,8.2,1.2,9.9,1.2c2.1,0,6.3-0.1,9.9-1.2v138.9
				C955.4,1328,951.5,1329,946.7,1329z"/>
			<path d="M954.7,1191.1l0,134.2c-1.6,0.6-4.4,1.2-8,1.2c-3.3,0-5.6-0.5-6.9-1v-134.4c2.7,0.5,5.4,0.6,7.4,0.6
				C949.2,1191.6,952,1191.5,954.7,1191.1 M934.9,1184.1v144c1.9,2.4,6.8,3.5,11.9,3.5c5.3,0,10.7-1.2,13-3.5l0-144
				c-2.2,1.8-7.3,2.6-12.4,2.6C942,1186.6,936.8,1185.7,934.9,1184.1L934.9,1184.1z"/>
		</g>
		<g>
			<path class="st1" d="M947.3,1184.4c-2.4,0-4.5-0.2-6.1-0.4c1.6-0.2,3.7-0.4,6.1-0.4s4.5,0.2,6.1,0.4
				C951.8,1184.3,949.7,1184.4,947.3,1184.4z"/>
			<path d="M947.3,1181.2c-6.9,0-12.4,1.3-12.4,2.9s5.6,2.9,12.4,2.9s12.4-1.3,12.4-2.9S954.2,1181.2,947.3,1181.2L947.3,1181.2z"/>
		</g>
	</g>
	<g>
		<g>
			<g>
				<rect x="281.3" y="1370.4" class="st1" width="43.5" height="5"/>
				<polygon points="327.3,1367.9 278.8,1367.9 278.8,1377.9 327.3,1377.9 327.3,1367.9 				"/>
			</g>
			<g>
				<polygon points="293.3,1389.1 282.2,1377.9 293.3,1366.8 312.7,1366.8 323.8,1377.9 312.7,1389.1 				"/>
				<path d="M311.6,1369.3l8.6,8.6l-8.6,8.6h-17.3l-8.6-8.6l8.6-8.6H311.6 M313.7,1364.3h-2.1h-17.3h-2.1l-1.5,1.5l-8.6,8.6
					l-3.6,3.5l3.6,3.5l8.6,8.6l1.5,1.5h2.1h17.3h2.1l1.5-1.5l8.6-8.6l3.6-3.5l-3.6-3.5l-8.6-8.6L313.7,1364.3L313.7,1364.3z"/>
			</g>
			<g>
				<polygon class="st1" points="291.9,1377.5 282.3,1367.9 291.9,1358.4 314.1,1358.4 323.7,1367.9 314.1,1377.5 				"/>
				<path d="M313.1,1360.9l7.1,7.1l-7.1,7.1H293l-7.1-7.1l7.1-7.1H313.1 M315.1,1355.9h-24.2l-12.1,12.1l12.1,12.1h24.2l12.1-12.1
					L315.1,1355.9L315.1,1355.9z"/>
			</g>
		</g>
		<g>
			<path class="st1" d="M303,1374.4c-16.2,0-29.9-6.8-29.9-14.8c0-8,13.7-14.8,29.9-14.8s29.9,6.8,29.9,14.8
				C332.9,1367.7,319.2,1374.4,303,1374.4z"/>
			<path d="M303,1347.4c17,0,27.4,7.1,27.4,12.3c0,5.1-10.4,12.3-27.4,12.3s-27.4-7.1-27.4-12.3C275.6,1354.6,286,1347.4,303,1347.4
				 M303,1342.4c-17.9,0-32.4,7.7-32.4,17.3c0,9.5,14.5,17.3,32.4,17.3s32.4-7.7,32.4-17.3C335.4,1350.1,320.9,1342.4,303,1342.4
				L303,1342.4z"/>
		</g>
		<g>
			<path class="st1" d="M303,1353.8c-11.4,0-19.4-4.8-19.4-9.2c0-4.3,8-9.2,19.4-9.2s19.4,4.8,19.4,9.2
				C322.4,1348.9,314.5,1353.8,303,1353.8z"/>
			<path d="M303,1337.9c10.5,0,16.9,4.3,16.9,6.7c0,2.4-6.4,6.7-16.9,6.7c-10.5,0-16.9-4.3-16.9-6.7
				C286.1,1342.2,292.5,1337.9,303,1337.9 M303,1332.9c-12.1,0-21.9,5.2-21.9,11.7s9.8,11.7,21.9,11.7s21.9-5.2,21.9-11.7
				S315.1,1332.9,303,1332.9L303,1332.9z"/>
		</g>
		<g>
			<path class="st1" d="M303,1350.3c-16.2,0-29.9-6.8-29.9-14.8c0-8,13.7-14.8,29.9-14.8s29.9,6.8,29.9,14.8
				C332.9,1343.6,319.2,1350.3,303,1350.3z"/>
			<path d="M303,1323.3c17,0,27.4,7.1,27.4,12.3c0,5.1-10.4,12.3-27.4,12.3s-27.4-7.1-27.4-12.3C275.6,1330.5,286,1323.3,303,1323.3
				 M303,1318.3c-17.9,0-32.4,7.7-32.4,17.3s14.5,17.3,32.4,17.3s32.4-7.7,32.4-17.3S320.9,1318.3,303,1318.3L303,1318.3z"/>
		</g>
		<g>
			<path class="st1" d="M303,1341.2c-14.6,0-24.4-6.1-24.4-11.8s9.8-11.8,24.4-11.8s24.4,6.1,24.4,11.8S317.6,1341.2,303,1341.2z"/>
			<path d="M303,1320.1c13.4,0,21.9,5.5,21.9,9.3s-8.5,9.3-21.9,9.3s-21.9-5.5-21.9-9.3S289.6,1320.1,303,1320.1 M303,1315.1
				c-14.8,0-26.9,6.4-26.9,14.3c0,7.9,12,14.3,26.9,14.3s26.9-6.4,26.9-14.3C329.9,1321.5,317.9,1315.1,303,1315.1L303,1315.1z"/>
		</g>
		<g>
			<path d="M303,1333.6c-6.1,0-9.9-2.5-9.9-4.2s3.9-4.2,9.9-4.2s9.9,2.5,9.9,4.2S309.1,1333.6,303,1333.6z"/>
			<path d="M303,1327.7c3.6,0,6,1,7,1.7c-1,0.7-3.4,1.7-7,1.7c-3.6,0-6-1-7-1.7C297,1328.7,299.4,1327.7,303,1327.7 M303,1322.7
				c-6.9,0-12.4,3-12.4,6.7c0,3.7,5.6,6.7,12.4,6.7c6.9,0,12.4-3,12.4-6.7C315.4,1325.7,309.9,1322.7,303,1322.7L303,1322.7z"/>
		</g>
		<g>
			<path class="st1" d="M302.5,1329c-4.7,0-7.9-1-9.4-2v-139c3.7,1.1,8.2,1.2,9.9,1.2c2.1,0,6.3-0.1,9.9-1.2v138.9
				C311.1,1328,307.2,1329,302.5,1329z"/>
			<path d="M310.4,1191.1l0,134.2c-1.6,0.6-4.4,1.2-8,1.2c-3.3,0-5.6-0.5-6.9-1l0-134.4c2.7,0.5,5.4,0.6,7.4,0.6
				C305,1191.6,307.7,1191.5,310.4,1191.1 M290.6,1184.1l0,144c1.9,2.4,6.8,3.5,11.9,3.5c5.3,0,10.7-1.2,13-3.5l0-144
				c-2.2,1.8-7.3,2.6-12.4,2.6C297.7,1186.6,292.5,1185.7,290.6,1184.1L290.6,1184.1z"/>
		</g>
		<g>
			<path class="st1" d="M303,1184.4c-2.4,0-4.5-0.2-6.1-0.4c1.6-0.2,3.7-0.4,6.1-0.4s4.5,0.2,6.1,0.4
				C307.5,1184.3,305.4,1184.4,303,1184.4z"/>
			<path d="M303,1181.2c-6.9,0-12.4,1.3-12.4,2.9s5.6,2.9,12.4,2.9s12.4-1.3,12.4-2.9S309.9,1181.2,303,1181.2L303,1181.2z"/>
		</g>
	</g>
</g>
<path class="st3" d="M1091.3,1018.5h7.6c0.7,0,1.4-0.5,1.5-1.2l2.1-9c0-0.1,0-0.2,0-0.4v-10.4c0-0.1,0-0.2,0-0.3l-2.1-9.5
	c-0.2-0.7-0.8-1.2-1.6-1.2h-7.6c-0.9,0-1.6,0.7-1.6,1.6v28.9C1089.7,1017.8,1090.4,1018.5,1091.3,1018.5z"/>
<g>
	<path class="st1" d="M1090,1018.3c-1.1-0.8-3.6-6.2-3.6-15.8s2.4-15,3.6-15.8c1.1,0.8,3.6,6.2,3.6,15.8S1091.1,1017.5,1090,1018.3z
		"/>
	<path d="M1090,992.7c0.6,2.4,1.1,5.7,1.1,9.8s-0.5,7.4-1.1,9.8c-0.6-2.4-1.1-5.7-1.1-9.8S1089.4,995.1,1090,992.7 M1090,984.1
		c-3.3,0-6.1,8.2-6.1,18.4c0,10.2,2.7,18.4,6.1,18.4c3.3,0,6.1-8.2,6.1-18.4C1096,992.3,1093.3,984.1,1090,984.1L1090,984.1z"/>
</g>
<path class="st3" d="M156.6,986.4H149c-0.7,0-1.4,0.5-1.5,1.2l-2.1,9c0,0.1,0,0.2,0,0.4v10.4c0,0.1,0,0.2,0,0.3l2.1,9.5
	c0.2,0.7,0.8,1.2,1.6,1.2h7.6c0.9,0,1.6-0.7,1.6-1.6V988C158.2,987.1,157.5,986.4,156.6,986.4z"/>
<g>
	<path class="st1" d="M158.2,1018.3c-1.1-0.8-3.6-6.2-3.6-15.8s2.4-15,3.6-15.8c1.1,0.8,3.6,6.2,3.6,15.8S159.3,1017.5,158.2,1018.3
		z"/>
	<path d="M158.2,992.7c0.6,2.4,1.1,5.7,1.1,9.8s-0.5,7.4-1.1,9.8c-0.6-2.4-1.1-5.7-1.1-9.8S157.6,995.1,158.2,992.7 M158.2,984.1
		c-3.3,0-6.1,8.2-6.1,18.4c0,10.2,2.7,18.4,6.1,18.4s6.1-8.2,6.1-18.4C164.3,992.3,161.6,984.1,158.2,984.1L158.2,984.1z"/>
</g>
<g>
	<path class="st1" d="M180.2,1027.8c-2,0-6.7-8.6-6.7-25.4s4.7-25.4,6.7-25.4s6.7,8.6,6.7,25.4S182.2,1027.8,180.2,1027.8z"/>
	<path d="M180.2,980.3c1.7,2.7,4.2,10.4,4.2,22.1c0,11.7-2.4,19.5-4.2,22.1c-1.7-2.7-4.2-10.4-4.2-22.1
		C176,990.7,178.5,983,180.2,980.3 M180.2,974.6c-5.1,0-9.2,12.5-9.2,27.9c0,15.4,4.1,27.9,9.2,27.9s9.2-12.5,9.2-27.9
		C189.4,987.1,185.3,974.6,180.2,974.6L180.2,974.6z"/>
</g>
<g>
	<path class="st1" d="M180.2,1008.4c-0.4-1.3-0.7-3.3-0.7-5.9s0.3-4.6,0.7-5.9c0.4,1.3,0.7,3.3,0.7,5.9S180.6,1007.1,180.2,1008.4z"
		/>
	<path d="M180.2,992.6c-1.8,0-3.2,4.4-3.2,9.8c0,5.4,1.4,9.8,3.2,9.8c1.8,0,3.2-4.4,3.2-9.8C183.5,997,182,992.6,180.2,992.6
		L180.2,992.6z"/>
</g>
<g>
	<path class="st1" d="M1068.2,1027.8c-2,0-6.7-8.6-6.7-25.4s4.7-25.4,6.7-25.4s6.7,8.6,6.7,25.4S1070.2,1027.8,1068.2,1027.8z"/>
	<path d="M1068.2,980.3c1.7,2.7,4.2,10.4,4.2,22.1s-2.4,19.5-4.2,22.1c-1.7-2.7-4.2-10.4-4.2-22.1
		C1064,990.7,1066.5,983,1068.2,980.3 M1068.2,974.6c-5.1,0-9.2,12.5-9.2,27.9c0,15.4,4.1,27.9,9.2,27.9c5.1,0,9.2-12.5,9.2-27.9
		C1077.4,987.1,1073.3,974.6,1068.2,974.6L1068.2,974.6z"/>
</g>
<g>
	<path class="st1" d="M1068.2,1008.4c-0.4-1.3-0.7-3.3-0.7-5.9s0.3-4.6,0.7-5.9c0.4,1.3,0.7,3.3,0.7,5.9
		S1068.6,1007.1,1068.2,1008.4z"/>
	<path d="M1068.2,992.6c-1.8,0-3.2,4.4-3.2,9.8c0,5.4,1.4,9.8,3.2,9.8c1.8,0,3.2-4.4,3.2-9.8C1071.5,997,1070,992.6,1068.2,992.6
		L1068.2,992.6z"/>
</g>
<path class="st3" d="M1011.9,784.8h7.6c0.7,0,1.4-0.5,1.5-1.2l2.1-9c0-0.1,0-0.2,0-0.4v-10.4c0-0.1,0-0.2,0-0.3l-2.1-9.5
	c-0.2-0.7-0.8-1.2-1.6-1.2h-7.6c-0.9,0-1.6,0.7-1.6,1.6v28.9C1010.3,784.1,1011,784.8,1011.9,784.8z"/>
<g>
	<path class="st1" d="M1010.6,784.6c-1.1-0.8-3.6-6.2-3.6-15.8s2.4-15,3.6-15.8c1.1,0.8,3.6,6.2,3.6,15.8S1011.7,783.8,1010.6,784.6
		z"/>
	<path d="M1010.6,758.9c0.6,2.4,1.1,5.7,1.1,9.8c0,4.1-0.5,7.4-1.1,9.8c-0.6-2.4-1.1-5.7-1.1-9.8S1010,761.3,1010.6,758.9
		 M1010.6,750.4c-3.3,0-6.1,8.2-6.1,18.4c0,10.2,2.7,18.4,6.1,18.4c3.3,0,6.1-8.2,6.1-18.4C1016.6,758.6,1013.9,750.4,1010.6,750.4
		L1010.6,750.4z"/>
</g>
<g>
	<path class="st1" d="M988.9,794.1c-2,0-6.7-8.6-6.7-25.4s4.7-25.4,6.7-25.4s6.7,8.6,6.7,25.4S990.9,794.1,988.9,794.1z"/>
	<path d="M988.9,746.6c1.7,2.7,4.2,10.4,4.2,22.1s-2.4,19.5-4.2,22.1c-1.7-2.7-4.2-10.4-4.2-22.1C984.7,757,987.1,749.3,988.9,746.6
		 M988.9,740.9c-5.1,0-9.2,12.5-9.2,27.9s4.1,27.9,9.2,27.9c5.1,0,9.2-12.5,9.2-27.9S993.9,740.9,988.9,740.9L988.9,740.9z"/>
</g>
<g>
	<path class="st1" d="M988.9,774.7c-0.4-1.3-0.7-3.3-0.7-5.9c0-2.6,0.3-4.6,0.7-5.9c0.4,1.3,0.7,3.3,0.7,5.9
		C989.6,771.3,989.2,773.3,988.9,774.7z"/>
	<path d="M988.9,758.9c-1.8,0-3.2,4.4-3.2,9.8s1.4,9.8,3.2,9.8c1.8,0,3.2-4.4,3.2-9.8S990.6,758.9,988.9,758.9L988.9,758.9z"/>
</g>
<path class="st3" d="M236.8,752.5h-7.6c-0.7,0-1.4,0.5-1.5,1.2l-2.1,9c0,0.1,0,0.2,0,0.4v10.4c0,0.1,0,0.2,0,0.3l2.1,9.5
	c0.2,0.7,0.8,1.2,1.6,1.2h7.6c0.9,0,1.6-0.7,1.6-1.6V754C238.4,753.2,237.7,752.5,236.8,752.5z"/>
<g>
	<path class="st1" d="M238.4,784.4c-1.1-0.8-3.6-6.2-3.6-15.8s2.4-15,3.6-15.8c1.1,0.8,3.6,6.2,3.6,15.8S239.5,783.5,238.4,784.4z"
		/>
	<path d="M238.4,758.7c0.6,2.4,1.1,5.7,1.1,9.8c0,4.1-0.5,7.4-1.1,9.8c-0.6-2.4-1.1-5.7-1.1-9.8
		C237.3,764.4,237.8,761.1,238.4,758.7 M238.4,750.1c-3.3,0-6.1,8.2-6.1,18.4c0,10.2,2.7,18.4,6.1,18.4s6.1-8.2,6.1-18.4
		C244.4,758.4,241.7,750.1,238.4,750.1L238.4,750.1z"/>
</g>
<g>
	<path class="st1" d="M260.4,793.9c-2,0-6.7-8.6-6.7-25.4s4.7-25.4,6.7-25.4s6.7,8.6,6.7,25.4S262.4,793.9,260.4,793.9z"/>
	<path d="M260.4,746.4c1.7,2.7,4.2,10.4,4.2,22.1c0,11.7-2.4,19.5-4.2,22.1c-1.7-2.7-4.2-10.4-4.2-22.1
		C256.2,756.8,258.6,749.1,260.4,746.4 M260.4,740.7c-5.1,0-9.2,12.5-9.2,27.9c0,15.4,4.1,27.9,9.2,27.9c5.1,0,9.2-12.5,9.2-27.9
		C269.5,753.1,265.4,740.7,260.4,740.7L260.4,740.7z"/>
</g>
<g>
	<path class="st1" d="M260.4,774.4c-0.4-1.3-0.7-3.3-0.7-5.9s0.3-4.6,0.7-5.9c0.4,1.3,0.7,3.3,0.7,5.9S260.8,773.1,260.4,774.4z"/>
	<path d="M260.4,758.7c-1.8,0-3.2,4.4-3.2,9.8s1.4,9.8,3.2,9.8c1.8,0,3.2-4.4,3.2-9.8S262.2,758.7,260.4,758.7L260.4,758.7z"/>
</g>
<g>
</g>
<g>
</g>
<g>
</g>
<g>
</g>
<g>
</g>
<g>
</g>
</svg>
