<svg id="Layer_5" data-name="Layer 5" xmlns="http://www.w3.org/2000/svg" viewBox="0 0 477.5 477.5"><defs><style>.cls-1,.cls-2{fill:#fff;}.cls-1,.cls-3{stroke:#000;stroke-miterlimit:10;stroke-width:8px;}.cls-3{fill:none;}</style></defs><title>projects_slider_controller_7</title><g id="Layer_9" data-name="Layer 9"><path class="cls-1" d="M216.56,81.3c-19.36.12-54.63,24.66-63.6,41.82-2.59,4.95-1.29,16.9,0,22.33,4.86,20.39,236.45,218.49,257.33,218.49,16.53,0,46.5-24.87,52.44-40.3,2.35-6.12,3.1-20.44,0-26.22C451.35,276.26,235.5,81.18,216.56,81.3Z"/><polygon class="cls-2" points="175.4 125.14 219.97 96.74 255.13 124.79 208.68 157.13 175.4 125.14"/><path d="M219.71,101.65l28.73,22.92L209.09,152l-27.25-26.19,37.88-24.13m0.52-9.82L169,124.5l39.32,37.79L261.82,125,220.23,91.83h0Z"/><path class="cls-3" d="M153,123.12c0,22.33,228.62,211.54,258.38,218.37,16.49,3.79,58.64-28.78,51.39-44.07"/><path class="cls-2" d="M219.78,175.93a2,2,0,0,1-1.62-.59,1.9,1.9,0,0,1,0-1.51,5.5,5.5,0,0,1,2.18-2.69,5.61,5.61,0,0,1,3.07-1,2,2,0,0,1,1.62.59c0.51,0.75-.09,2.8-2.15,4.19A5.61,5.61,0,0,1,219.78,175.93Z"/><path d="M223.38,166.12a9.6,9.6,0,0,0-5.31,1.72c-3.72,2.52-5.16,6.88-3.22,9.75a5.77,5.77,0,0,0,4.93,2.35,9.6,9.6,0,0,0,5.31-1.72c3.72-2.52,5.16-6.88,3.22-9.75a5.77,5.77,0,0,0-4.93-2.35h0Z"/><ellipse class="cls-1" cx="267.84" cy="174.86" rx="23.94" ry="20.67" transform="translate(-51.98 180.27) rotate(-34.11)"/><path class="cls-2" d="M269.18,139.72a2,2,0,0,1-1.62-.59c-0.51-.75.09-2.8,2.15-4.19a5.61,5.61,0,0,1,3.07-1,2,2,0,0,1,1.62.59c0.51,0.75-.09,2.8-2.15,4.2A5.61,5.61,0,0,1,269.18,139.72Z"/><path d="M272.78,129.9a9.6,9.6,0,0,0-5.31,1.72c-3.72,2.52-5.16,6.88-3.22,9.75a5.77,5.77,0,0,0,4.93,2.35,9.6,9.6,0,0,0,5.31-1.72c3.72-2.52,5.16-6.88,3.22-9.75a5.77,5.77,0,0,0-4.93-2.35h0Z"/><path class="cls-2" d="M266,177.77a2,2,0,0,1-1.62-.59c-0.51-.75.09-2.8,2.15-4.19a5.61,5.61,0,0,1,3.07-1,2,2,0,0,1,1.62.59c0.51,0.75-.09,2.8-2.15,4.19A5.61,5.61,0,0,1,266,177.77Z"/><path d="M269.64,168a9.6,9.6,0,0,0-5.31,1.72c-3.72,2.52-5.16,6.88-3.22,9.75a5.77,5.77,0,0,0,4.93,2.35,9.6,9.6,0,0,0,5.31-1.72c3.72-2.52,5.16-6.88,3.22-9.75a5.77,5.77,0,0,0-4.93-2.35h0Z"/><path class="cls-3" d="M121.24,384c40.54-68.48-63.83-71.52-80.49-94-4.41-5.95-2.4-28.25-9.8-28-4.52.18-8.31,14.93-4.59,17.52,5.9,4.11,21.16-9.71,23.57-16.48,2.12-6-.59-23.73-6.88-24.34-4-.39-9.21,12.17-6.26,15C41.7,258.4,58.21,248,61,241.88c2.47-5.46-.28-22.63-6.26-23.16-3.78-.33-9.11,11-6.47,13.73,4.31,4.45,20-4.3,22.74-9.84,2.54-5.06.34-21-5.22-22-3.64-.7-10.61,9-8.55,12.1,3.66,5.47,22.71,0,25.66-5.84,3.3-6.57-1.56-24-11.89-26.91-3.13-.88-11.17,5-5.07,12,4.43,5.09,17,14.92,27,0,3.47-5.15-11.71-14.51-16.1-18.89C55.93,152.12,37.79,91.83,99.27,65.76c19.19-8.14,59.76,15.54,76.18,33.9"/><path d="M109.66,412.59h-3a4.34,4.34,0,0,1-4.28-3.66l-3.17-20.05a4.93,4.93,0,0,1,.86-3.65l3.08-4.29a4.16,4.16,0,0,1,3.38-1.73h4.19a5.77,5.77,0,0,0,4.07-1.68l0.8-.79L127,378.58a2.82,2.82,0,0,1,2,4.11l-3.78,7.08-4.63,8.67-5.95,11.14A5.69,5.69,0,0,1,109.66,412.59Z"/><path d="M102.82,385.74l-2.61-13.91a2.65,2.65,0,0,1,0-.49v-2.5a10.85,10.85,0,0,0-.68-3.78l-0.11-.29a0.78,0.78,0,0,1,.41-1l0.65-.29a1.41,1.41,0,0,1,1.11,0l0.27,0.11a1.64,1.64,0,0,1,1,1.51v0.31a8.6,8.6,0,0,0,.59,3.14l1.05,2.69,2.22,14.48h-3.87Z"/></g></svg>