<?xml version="1.0" encoding="utf-8"?>
<!-- Generator: Adobe Illustrator 19.2.1, SVG Export Plug-In . SVG Version: 6.00 Build 0)  -->
<svg version="1.1" id="Layer_1" xmlns="http://www.w3.org/2000/svg" xmlns:xlink="http://www.w3.org/1999/xlink" x="0px" y="0px"
	 viewBox="0 0 477.5 477.5" style="enable-background:new 0 0 477.5 477.5;" xml:space="preserve">
<style type="text/css">
	.st0{fill:none;stroke:#000000;stroke-width:8;stroke-miterlimit:10;}
	.st1{fill:#FFFFFF;stroke:#000000;stroke-width:8;stroke-miterlimit:10;}
	.st2{fill:#FFFFFF;}
</style>
<g id="Layer_8">
	<g>
		<path d="M232.7,190.7L232.7,190.7h0.4c34,0,65.1,5.1,92.5,14.9c22.9,8.2,42.8,19.8,57.7,33.4c14.7,13.5,23.9,28.8,24.6,40.8
			c1.1,19.5-5.6,37-19.8,52c-18.9,20-47.3,31.9-67.8,38.3c-27.1,8.4-53,11.6-68.3,11.6h-0.2c-48.8,0-94.3-11-128.2-30.8
			c-30.8-18-48.5-41.6-48.5-64.6c0-19.7,7.1-36.9,21-51.2c14.1-14.4,35.7-26.2,62.4-34C181.3,194.5,207.7,190.8,232.7,190.7
			 M232.8,182.7c-47.1,0-109.2,12.7-142.3,46.6c-14.4,14.7-23.3,33.5-23.3,56.9c0,52.9,78.4,103.4,184.7,103.4c0.1,0,0.1,0,0.2,0
			c49.3,0,168.3-27.8,163.8-110.1c-0.7-13.3-9.7-30.5-27.1-46.4c-28.8-26.4-80.5-50.4-155.6-50.4C233,182.7,232.9,182.7,232.8,182.7
			L232.8,182.7z"/>
	</g>
	<g>
		<path d="M235.7,163.7L235.7,163.7L235.7,163.7c44.8,0,73.4,12.6,89.5,23c9.1,5.9,16.6,12.7,21.7,19.8c4.3,5.9,6.8,11.7,7.1,16.5
			c0.7,12.9-3.6,24.2-13,34.2c-21.9,23.1-67.1,33.6-92.2,33.6h-0.1c-33.3,0-64.3-7.5-87.4-20.9c-20.5-12-32.3-27.5-32.3-42.5
			c0-20.8,12-37.2,35.4-48.6C183.3,169.4,209.7,163.8,235.7,163.7 M235.5,155.7c-46.7,0-114.5,18-114.5,71.5
			c0,36.6,54.2,71.5,127.7,71.5h0.1c34.1,0,116.3-19.3,113.2-76.2c-1.3-24.5-43.1-66.8-126.3-66.8
			C235.7,155.7,235.6,155.7,235.5,155.7L235.5,155.7z"/>
	</g>
	<path class="st0" d="M411.7,282.7l-1,20.7c-1,19.2-9.4,37.2-23.5,50.2c-22.5,20.7-65.8,49.1-148.4,48.7
		c-88.1-0.3-134-35.8-153.6-60.1c-7.7-9.6-12-21.4-12.4-33.7l-1-33.6"/>
	<path class="st1" d="M411.7,163.7l-1,20.7c-1,19.2-9.4,37.2-23.5,50.2c-22.5,20.7-65.8,49.1-148.4,48.7
		c-88.1-0.3-134-35.8-153.6-60.1c-7.7-9.6-12-21.4-12.4-33.7l-1-33.6"/>
	<g>
		<path class="st2" d="M251.9,266.7c-49.5,0-95.7-11.2-130.2-31.4c-32.1-18.7-50.5-43.6-50.5-68.1c0-33.2,18.6-59.3,55.3-77.2
			c28.7-14,67.5-22.3,106.3-22.3h0.3c66.7,0,109.5,18.9,133.6,34.5c26.4,17.1,44.1,40.1,45.1,58.4c1.1,20.6-5.9,39.1-20.9,55
			c-19.5,20.6-48.5,32.8-69.5,39.4c-27.5,8.6-53.9,11.8-69.4,11.8L251.9,266.7L251.9,266.7z"/>
		<path d="M232.7,71.7L232.7,71.7h0.4c65.7,0,107.7,18.5,131.4,33.9c13.5,8.7,24.7,19,32.4,29.5c6.6,9.1,10.5,18.2,10.9,25.7
			c1.1,19.5-5.6,37-19.8,52c-18.9,20-47.3,31.9-67.8,38.3c-27.1,8.4-53,11.6-68.3,11.6h-0.2c-48.8,0-94.3-11-128.2-30.8
			c-30.8-18-48.5-41.6-48.5-64.6c0-16.5,5-31.3,14.7-43.9c8.9-11.5,21.7-21.5,38.3-29.6c28.3-13.8,66.6-21.9,104.6-21.9 M232.8,63.7
			c-67.5,0-165.7,26.1-165.7,103.5c0,52.9,78.4,103.5,184.7,103.5c0.1,0,0.1,0,0.2,0c49.3,0,168.3-27.9,163.8-110.3
			c-1.9-35.4-62.3-96.7-182.7-96.7C233,63.7,232.9,63.7,232.8,63.7L232.8,63.7z"/>
	</g>
	<g>
		<path d="M235.7,108.7L235.7,108.7L235.7,108.7c43.6,0,71.3,12.1,86.8,22.2c17.6,11.4,26.1,24.8,26.5,32.3
			c0.6,11.5-3.2,21.5-11.7,30.4c-9.5,10-24.6,18.5-43.6,24.4c-17.9,5.6-35,7.6-45,7.6h-0.1h-0.1c-32.4,0-62.5-7.2-84.9-20.3
			c-19-11.1-29.8-25-29.8-38.2c0-9.8,2.8-18.3,8.6-25.8c5.4-7.1,13.6-13.2,24-18.3C184.9,114.2,210.7,108.8,235.7,108.7 M235.5,95.7
			c-46.7,0-114.5,18-114.5,71.5c0,36.6,54.2,71.5,127.7,71.5h0.1c34.1,0,116.3-19.3,113.2-76.2c-1.3-24.5-43.1-66.8-126.3-66.8
			C235.7,95.7,235.6,95.7,235.5,95.7L235.5,95.7z"/>
	</g>
	<g>
		<path d="M236.7,110.7c0,0,0.1,0,0.2,0c66,0,99.1,33.4,100.2,52.8c2.5,45.1-62.8,60.2-89.8,60.2h-0.1
			c-58.3,0-101.3-27.5-101.3-56.5C145.9,124.8,199.7,110.7,236.7,110.7 M236.7,97.7L236.7,97.7c-23-0.1-47.2,4.9-65,13.6
			c-11.5,5.6-20.6,12.7-27.1,21.2c-7.8,10.1-11.7,21.7-11.7,34.7c0,19,12.8,37.3,35.2,50.3c21.2,12.4,49.3,19.1,79,19.1h0.1l0,0h0.1
			c22.6,0,64.5-8.7,87.2-32.6c11-11.7,16.4-25.9,15.6-41.4c-0.8-15.2-12.7-31.5-31.6-43.8c-15-9.7-41.2-21.2-81.5-21.2L236.7,97.7
			L236.7,97.7z"/>
	</g>
	<g>
		<path d="M240.7,135.7L240.7,135.7L240.7,135.7c21.1,0,34.5,5.9,42.1,10.8c8.8,5.7,12.3,12,12.4,14.8c0.3,5.2-1.5,9.8-5.3,13.9
			c-4.5,4.8-11.7,8.8-20.9,11.7c-8.7,2.7-17,3.7-21.8,3.7v8l-0.1-8c-31.6,0-55.2-14.4-55.2-27.3c0-8.7,5.1-15.5,15.3-20.5
			C216,138.5,228.7,135.8,240.7,135.7 M240.6,127.7c-23.1,0-56.7,9-56.7,35.5c0,18.1,26.8,35.5,63.2,35.5c0,0,0,0,0.1,0
			c16.9,0,57.6-9.6,56.1-37.8c-0.7-12.1-21.3-33.2-62.5-33.2C240.6,127.7,240.6,127.7,240.6,127.7L240.6,127.7z"/>
	</g>
</g>
</svg>
