<?xml version="1.0" encoding="utf-8"?>
<!-- Generator: Adobe Illustrator 19.2.1, SVG Export Plug-In . SVG Version: 6.00 Build 0)  -->
<svg version="1.1" id="Layer_1" xmlns="http://www.w3.org/2000/svg" xmlns:xlink="http://www.w3.org/1999/xlink" x="0px" y="0px"
	 viewBox="0 0 477.5 477.5" style="enable-background:new 0 0 477.5 477.5;" xml:space="preserve">
<style type="text/css">
	.st0{fill:none;stroke:#000000;stroke-width:8;stroke-miterlimit:10;}
	.st1{fill:#FFFFFF;stroke:#000000;stroke-width:8;stroke-miterlimit:10;}
</style>
<g>
	<path d="M264.3,90.6L264.3,90.6c3.2,0,5.4,0,5.9,0.1c13.6,0.8,37.7,3.2,44.9,6c7.4,2.9,10.3,14.6,9.7,19.8
		c-6.8,56.8-38.2,200.5-53.5,264.8c-0.7,2.6-6.4,9.3-9.2,10.6c-11,5.4-32.9,9.4-50.9,9.4c-0.4,0-0.8,0-1.2,0
		c-29.2-0.3-43-14.2-49.6-20.9c-0.3-0.3-0.6-0.6-0.9-0.9c-1.7-1.8-4.2-10.6-3.8-14.4c3.2-31.8,41.1-222.8,50.8-250.8
		c2.5-7.2,8.8-17.3,11.8-18.9C223.6,92.5,241.7,90.6,264.3,90.6 M264.3,82.6c-12.5,0-40.4,0.6-49.8,5.8
		c-6.1,3.4-13.3,16.7-15.6,23.3c-9.8,28.1-47.9,220.3-51.2,252.6c-0.5,5.4,2.3,17,6.1,20.9c6.5,6.5,22.1,23.8,56.1,24.2
		c0.4,0,0.9,0,1.3,0c18.6,0,41.9-4.2,54.4-10.2c4.7-2.3,12.3-10.9,13.5-16c14.3-60.2,46.6-207,53.6-265.7
		c0.9-7.9-2.9-23.7-14.7-28.2c-11.2-4.3-47.5-6.5-47.5-6.5S268.1,82.6,264.3,82.6L264.3,82.6z"/>
</g>
<path class="st0" d="M306.8,90.6c0,0,9,8.2,8.4,11.8c-11,63.1-42,246.2-52,256.3c-11.6,11.6-16,22.5-62.2,21.3
	c-45.5-1.2-47.5-27.9-47.5-27.9"/>
<polygon class="st0" points="276.4,222.3 196.3,216.9 212,135.9 290.6,140 "/>
<polyline class="st0" points="175.9,235 203.1,241.7 256.7,245.7 287.7,241.7 "/>
<polyline class="st0" points="170.9,257 198.1,263.7 251.7,267.7 284.7,263.7 "/>
<polyline class="st0" points="167.9,276 195.1,282.7 248.7,286.7 279.7,282.7 "/>
<polyline class="st0" points="163.9,295 191.1,301.7 244.7,305.7 275.7,301.7 "/>
<polyline class="st0" points="159.9,317 187.1,323.7 240.7,327.7 271.7,323.7 "/>
<polyline class="st0" points="156.9,339 184.1,345.7 237.7,349.7 268.7,345.7 "/>
<path class="st1" d="M244.2,275.7l-38.6-2.7c-2.5-0.2-4.2-2.5-3.7-4.9l5.4-25.8c0.4-2,2.3-3.4,4.3-3.2l37,3c2.3,0.2,4,2.3,3.7,4.6
	l-3.7,25.5C248.2,274.3,246.3,275.8,244.2,275.7z"/>
</svg>
