<?xml version="1.0" encoding="UTF-8" standalone="no"?>
<svg width="191px" height="116px" viewBox="0 0 191 116" version="1.1" xmlns="http://www.w3.org/2000/svg" xmlns:xlink="http://www.w3.org/1999/xlink">
    <!-- Generator: Sketch 3.7.2 (28276) - http://www.bohemiancoding.com/sketch -->
    <title>Front </title>
    <desc>Created with Sketch.</desc>
    <defs></defs>
    <g id="Page-1" stroke="none" stroke-width="1" fill="none" fill-rule="evenodd">
        <g id="Front-">
            <g id="Front" transform="translate(26.000000, 31.000000)">
                <g id="Group-5" transform="translate(72.000000, 26.500000) rotate(-180.000000) translate(-72.000000, -26.500000) ">
                    <rect id="Rectangle-8" fill="#9CD2FF" x="7" y="26" width="130" height="8"></rect>
                    <rect id="Rectangle-14-Copy-4" fill="#EC46AC" x="8" y="23" width="7" height="14"></rect>
                    <rect id="Rectangle-14-Copy-5" fill="#EC46AC" transform="translate(26.500000, 30.000000) scale(-1, 1) translate(-26.500000, -30.000000) " x="23" y="23" width="7" height="14"></rect>
                    <rect id="Rectangle-14-Copy-4" fill="#EC46AC" x="114" y="23" width="7" height="14"></rect>
                    <rect id="Rectangle-14-Copy-5" fill="#EC46AC" transform="translate(132.500000, 30.000000) scale(-1, 1) translate(-132.500000, -30.000000) " x="129" y="23" width="7" height="14"></rect>
                    <rect id="Rectangle-10" fill="#F9A129" x="121" y="19" width="8" height="22" rx="1"></rect>
                    <rect id="Rectangle-10-Copy" fill="#F9A129" x="15" y="19" width="8" height="22" rx="1"></rect>
                    <rect id="Rectangle-14" fill="#EC46AC" x="0" y="23" width="7" height="14"></rect>
                    <rect id="Rectangle-14-Copy-2" fill="#EC46AC" transform="translate(140.500000, 30.000000) scale(-1, 1) translate(-140.500000, -30.000000) " x="137" y="23" width="7" height="14"></rect>
                    <g id="Bearings-Side" transform="translate(91.000000, 0.000000)">
                        <polygon id="Rectangle-8" fill="#9CD2FF" transform="translate(11.000000, 27.000000) rotate(-270.000000) translate(-11.000000, -27.000000) " points="-15 23 37 23 37 31 -15 31"></polygon>
                        <rect id="Rectangle-8" fill="#EC46AC" transform="translate(11.000000, 17.500000) scale(1, -1) rotate(-270.000000) translate(-11.000000, -17.500000) " x="8.5" y="10.5" width="5" height="14"></rect>
                        <rect id="Rectangle-14-Copy-4" fill="#EC46AC" transform="translate(11.000000, 50.500000) scale(1, -1) rotate(-270.000000) translate(-11.000000, -50.500000) " x="8.5" y="43.5" width="5" height="14"></rect>
                        <rect id="Rectangle-14-Copy-5" fill="#EC46AC" transform="translate(11.000000, 3.500000) scale(-1, 1) rotate(-270.000000) translate(-11.000000, -3.500000) " x="7.5" y="-3.5" width="7" height="14"></rect>
                        <rect id="Rectangle-14-Copy-5" fill="#EC46AC" transform="translate(11.000000, 40.500000) scale(-1, 1) rotate(-270.000000) translate(-11.000000, -40.500000) " x="7.5" y="33.5" width="7" height="14"></rect>
                        <rect id="Rectangle-10" fill="#F9A129" transform="translate(11.000000, 11.000000) rotate(-270.000000) translate(-11.000000, -11.000000) " x="7" y="0" width="8" height="22" rx="1"></rect>
                    </g>
                    <g id="Bearings-Side" transform="translate(31.000000, 0.000000)">
                        <polygon id="Rectangle-8" fill="#9CD2FF" transform="translate(11.000000, 27.000000) rotate(-270.000000) translate(-11.000000, -27.000000) " points="-15 23 37 23 37 31 -15 31"></polygon>
                        <rect id="Rectangle-8" fill="#EC46AC" transform="translate(11.000000, 17.500000) scale(1, -1) rotate(-270.000000) translate(-11.000000, -17.500000) " x="8.5" y="10.5" width="5" height="14"></rect>
                        <rect id="Rectangle-14-Copy-4" fill="#EC46AC" transform="translate(11.000000, 50.500000) scale(1, -1) rotate(-270.000000) translate(-11.000000, -50.500000) " x="8.5" y="43.5" width="5" height="14"></rect>
                        <rect id="Rectangle-14-Copy-5" fill="#EC46AC" transform="translate(11.000000, 3.500000) scale(-1, 1) rotate(-270.000000) translate(-11.000000, -3.500000) " x="7.5" y="-3.5" width="7" height="14"></rect>
                        <rect id="Rectangle-14-Copy-5" fill="#EC46AC" transform="translate(11.000000, 40.500000) scale(-1, 1) rotate(-270.000000) translate(-11.000000, -40.500000) " x="7.5" y="33.5" width="7" height="14"></rect>
                        <rect id="Rectangle-10" fill="#F9A129" transform="translate(11.000000, 11.000000) rotate(-270.000000) translate(-11.000000, -11.000000) " x="7" y="0" width="8" height="22" rx="1"></rect>
                    </g>
                    <path d="M127,43.0029293 C127,42.4490268 127.44266,42 127.998957,42 L130,42 L130,43.5 L138,43.5 L138,47.5 L130,47.5 L130,49 L127.998957,49 C127.447248,49 127,48.5621186 127,47.9970707 L127,43.0029293 Z" id="Rectangle-39" fill="#0069C1" transform="translate(132.500000, 45.500000) scale(-1, 1) rotate(-90.000000) translate(-132.500000, -45.500000) "></path>
                    <path d="M108,43.0029293 C108,42.4490268 108.44266,42 108.998957,42 L111,42 L111,43.5 L119,43.5 L119,47.5 L111,47.5 L111,49 L108.998957,49 C108.447248,49 108,48.5621186 108,47.9970707 L108,43.0029293 Z" id="Rectangle-39" fill="#0069C1" transform="translate(113.500000, 45.500000) scale(-1, 1) rotate(-90.000000) translate(-113.500000, -45.500000) "></path>
                    <path d="M25,43.0029293 C25,42.4490268 25.4426603,42 25.9989566,42 L28,42 L28,43.5 L36,43.5 L36,47.5 L28,47.5 L28,49 L25.9989566,49 C25.4472481,49 25,48.5621186 25,47.9970707 L25,43.0029293 Z" id="Rectangle-39" fill="#0069C1" transform="translate(30.500000, 45.500000) scale(-1, 1) rotate(-90.000000) translate(-30.500000, -45.500000) "></path>
                    <path d="M6,43.0029293 C6,42.4490268 6.44266033,42 6.99895656,42 L9,42 L9,43.5 L17,43.5 L17,47.5 L9,47.5 L9,49 L6.99895656,49 C6.44724809,49 6,48.5621186 6,47.9970707 L6,43.0029293 Z" id="Rectangle-39" fill="#0069C1" transform="translate(11.500000, 45.500000) scale(-1, 1) rotate(-90.000000) translate(-11.500000, -45.500000) "></path>
                    <rect id="Rectangle-88" fill="#686868" opacity="0.524195429" x="7" y="45" width="130" height="3"></rect>
                    <polygon id="Rectangle-89" fill="#D4D4D4" points="97 44 136 44 136 14 137 14 137 44.1142857 137 45 97 45"></polygon>
                    <polygon id="Rectangle-89" fill="#D4D4D4" transform="translate(27.000000, 29.500000) scale(-1, 1) translate(-27.000000, -29.500000) " points="7 44 46 44 46 14 47 14 47 44.1142857 47 45 7 45"></polygon>
                    <rect id="Rectangle-40" fill="#EC46AC" transform="translate(113.500000, 43.000000) scale(-1, 1) rotate(-270.000000) translate(-113.500000, -43.000000) " x="112.5" y="39.5" width="2" height="7"></rect>
                    <rect id="Rectangle-40" fill="#EC46AC" transform="translate(132.500000, 43.000000) scale(-1, 1) rotate(-270.000000) translate(-132.500000, -43.000000) " x="131.5" y="39.5" width="2" height="7"></rect>
                    <rect id="Rectangle-40" fill="#EC46AC" transform="translate(11.500000, 43.000000) scale(-1, 1) rotate(-270.000000) translate(-11.500000, -43.000000) " x="10.5" y="39.5" width="2" height="7"></rect>
                    <rect id="Rectangle-40" fill="#EC46AC" transform="translate(30.500000, 43.000000) scale(-1, 1) rotate(-270.000000) translate(-30.500000, -43.000000) " x="29.5" y="39.5" width="2" height="7"></rect>
                </g>
            </g>
        </g>
    </g>
</svg>