<?xml version="1.0" encoding="utf-8"?>
<!-- Generator: Adobe Illustrator 19.1.0, SVG Export Plug-In . SVG Version: 6.00 Build 0)  -->
<svg version="1.1" id="Layer_1" xmlns="http://www.w3.org/2000/svg" xmlns:xlink="http://www.w3.org/1999/xlink" x="0px" y="0px"
	 viewBox="0 0 477.5 477.5" style="enable-background:new 0 0 477.5 477.5;" xml:space="preserve">
<style type="text/css">
	.st0{fill:#FFFFFF;stroke:#000000;stroke-width:5;stroke-miterlimit:10;}
	.st1{fill:#FFFFFF;}
	.st2{stroke:#000000;stroke-width:5;stroke-miterlimit:10;}
	.st3{fill:#A7A9AC;}
	.st4{fill:#E6E7E8;}
	.st5{stroke:#E6E7E8;stroke-width:5;stroke-miterlimit:10;}
</style>
<g>
	<path class="st0" d="M387,395.4H90.5c-2.1-2.3-2.1-10.9,0-13.2H387C389.1,384.5,389.1,393,387,395.4z"/>
	<g>
		<g>
			<path class="st1" d="M243.2,397.3l-7.9,0.2l-11.8,14.8c-0.8-3.5-1.6-12-1.6-23.7c0-11.5,0.8-20,1.6-23.5l11.8,14.9l7.8,0.2
				l11.6-15.2c0.8,3.5,1.6,12,1.6,23.7s-0.8,20.2-1.6,23.7L243.2,397.3z"/>
			<path d="M225.1,371.3l7.5,9.5l1.5,1.8l2.3,0.1l5.4,0.1l2.5,0.1l1.6-2l7.3-9.5c0.4,4.2,0.7,10.1,0.7,17.5c0,7.3-0.3,13.3-0.7,17.5
				l-7.2-9.4l-1.5-2l-2.5,0.1l-5.4,0.1l-2.3,0.1l-1.5,1.8l-7.5,9.4c-0.4-4.2-0.8-10.2-0.8-17.6C224.4,381.4,224.7,375.4,225.1,371.3
				 M222.4,361.8c-1.7,0-3,12-3,26.9s1.3,26.9,3,26.9l1.7,0.1l12.4-15.7l5.4-0.1l12.1,15.8h1.8c1.7,0,3-12,3-26.9
				c0-14.8-1.3-26.9-3-26.9h-1.8l-12.2,15.9l-5.4-0.1l-12.5-15.7L222.4,361.8L222.4,361.8z"/>
		</g>
		<rect x="235.5" y="380.1" class="st0" width="7.5" height="17.2"/>
	</g>
	<path class="st2" d="M259.4,404.5h7.6c0.7,0,1.4-0.5,1.5-1.2l2.1-9c0-0.1,0-0.2,0-0.4v-10.4c0-0.1,0-0.2,0-0.3l-2.1-9.5
		c-0.2-0.7-0.8-1.2-1.6-1.2h-7.6c-0.9,0-1.6,0.7-1.6,1.6v28.9C257.8,403.8,258.5,404.5,259.4,404.5z"/>
	<path class="st2" d="M218.8,372.4h-7.6c-0.7,0-1.4,0.5-1.5,1.2l-2.1,9c0,0.1,0,0.2,0,0.4v10.4c0,0.1,0,0.2,0,0.3l2.1,9.5
		c0.2,0.7,0.8,1.2,1.6,1.2h7.6c0.9,0,1.6-0.7,1.6-1.6V374C220.4,373.1,219.6,372.4,218.8,372.4z"/>
	<path class="st2" d="M349.4,404.5h7.6c0.7,0,1.4-0.5,1.5-1.2l2.1-9c0-0.1,0-0.2,0-0.4v-10.4c0-0.1,0-0.2,0-0.3l-2.1-9.5
		c-0.2-0.7-0.8-1.2-1.6-1.2h-7.6c-0.9,0-1.6,0.7-1.6,1.6v28.9C347.8,403.8,348.5,404.5,349.4,404.5z"/>
	<path class="st2" d="M124.8,372.4h-7.6c-0.7,0-1.4,0.5-1.5,1.2l-2.1,9c0,0.1,0,0.2,0,0.4v10.4c0,0.1,0,0.2,0,0.3l2.1,9.5
		c0.2,0.7,0.8,1.2,1.6,1.2h7.6c0.9,0,1.6-0.7,1.6-1.6V374C126.4,373.1,125.6,372.4,124.8,372.4z"/>
</g>
<g>
	<path class="st0" d="M387,95.4H90.5c-2.1-2.3-2.1-10.9,0-13.2H387C389.1,84.5,389.1,93,387,95.4z"/>
	<g>
		<g>
			<path class="st1" d="M243.2,97.3l-7.9,0.2l-11.8,14.8c-0.8-3.5-1.6-12-1.6-23.7c0-11.5,0.8-20,1.6-23.5l11.8,14.9l7.8,0.2
				l11.6-15.2c0.8,3.5,1.6,12,1.6,23.7s-0.8,20.2-1.6,23.7L243.2,97.3z"/>
			<path d="M225.1,71.3l7.5,9.5l1.5,1.8l2.3,0.1l5.4,0.1l2.5,0.1l1.6-2l7.3-9.5c0.4,4.2,0.7,10.1,0.7,17.5s-0.3,13.3-0.7,17.5
				l-7.2-9.4l-1.5-2l-2.5,0.1l-5.4,0.1l-2.3,0.1l-1.5,1.8l-7.5,9.4c-0.4-4.2-0.8-10.2-0.8-17.6C224.4,81.4,224.7,75.4,225.1,71.3
				 M222.4,61.8c-1.7,0-3,12-3,26.9s1.3,26.9,3,26.9l1.7,0.1l12.4-15.7l5.4-0.1l12.1,15.8h1.8c1.7,0,3-12,3-26.9
				c0-14.8-1.3-26.9-3-26.9h-1.8l-12.2,15.9l-5.4-0.1l-12.5-15.7L222.4,61.8L222.4,61.8z"/>
		</g>
		<rect x="235.5" y="80.1" class="st0" width="7.5" height="17.2"/>
	</g>
	<path class="st2" d="M36.6,72.4H29c-0.7,0-1.4,0.5-1.5,1.2l-0.7,3c-1,4.1-1.5,8.3-1.5,12.6v0c0,2.9,0.3,5.9,1,8.7l1.2,5.3
		c0.2,0.7,0.8,1.2,1.6,1.2h7.6c0.9,0,1.6-0.7,1.6-1.6V74C38.2,73.1,37.5,72.4,36.6,72.4z"/>
	<g>
		<path d="M38.2,104.3c-1.1-0.8-3.6-6.2-3.6-15.8s2.4-15,3.6-15.8c1.1,0.8,3.6,6.2,3.6,15.8S39.3,103.5,38.2,104.3z"/>
		<path d="M38.2,78.7c0.6,2.4,1.1,5.7,1.1,9.8s-0.5,7.4-1.1,9.8c-0.6-2.4-1.1-5.7-1.1-9.8S37.6,81.1,38.2,78.7 M38.2,70.1
			c-3.3,0-6.1,8.2-6.1,18.4s2.7,18.4,6.1,18.4s6.1-8.2,6.1-18.4S41.5,70.1,38.2,70.1L38.2,70.1z"/>
	</g>
	<path class="st2" d="M66.6,72.4H59c-0.7,0-1.4,0.5-1.5,1.2l-0.9,3.8c-0.8,3.6-1.3,7.2-1.3,10.9v0c0,3.5,0.4,7,1.2,10.4l1,4.5
		c0.2,0.7,0.8,1.2,1.6,1.2h7.6c0.9,0,1.6-0.7,1.6-1.6V74C68.2,73.1,67.5,72.4,66.6,72.4z"/>
	<g>
		<path d="M68.2,104.3c-1.1-0.8-3.6-6.2-3.6-15.8c0-9.7,2.4-15,3.6-15.8c1.1,0.8,3.6,6.2,3.6,15.8C71.8,98.1,69.3,103.5,68.2,104.3z
			"/>
		<path d="M68.2,78.7c0.6,2.4,1.1,5.7,1.1,9.8s-0.5,7.4-1.1,9.8c-0.6-2.4-1.1-5.7-1.1-9.8S67.6,81.1,68.2,78.7 M68.2,70.1
			c-3.3,0-6.1,8.2-6.1,18.4c0,10.2,2.7,18.4,6.1,18.4s6.1-8.2,6.1-18.4C74.3,78.3,71.5,70.1,68.2,70.1L68.2,70.1z"/>
	</g>
	<path class="st2" d="M442.9,104.5h7.6c0.7,0,1.4-0.5,1.5-1.2l0.9-3.8c0.8-3.6,1.3-7.2,1.3-10.9v0c0-3.5-0.4-7-1.2-10.4l-1-4.5
		c-0.2-0.7-0.8-1.2-1.6-1.2h-7.6c-0.9,0-1.6,0.7-1.6,1.6v28.9C441.3,103.8,442,104.5,442.9,104.5z"/>
	<g>
		<path d="M441.3,104.3c-1.1-0.8-3.6-6.2-3.6-15.8c0-9.7,2.4-15,3.6-15.8c1.1,0.8,3.6,6.2,3.6,15.8
			C444.9,98.1,442.4,103.5,441.3,104.3z"/>
		<path d="M441.3,78.7c0.6,2.4,1.1,5.7,1.1,9.8s-0.5,7.4-1.1,9.8c-0.6-2.4-1.1-5.7-1.1-9.8S440.7,81.1,441.3,78.7 M441.3,70.1
			c-3.3,0-6.1,8.2-6.1,18.4c0,10.2,2.7,18.4,6.1,18.4c3.3,0,6.1-8.2,6.1-18.4C447.4,78.3,444.7,70.1,441.3,70.1L441.3,70.1z"/>
	</g>
	<path class="st2" d="M412.9,104.5h7.6c0.7,0,1.4-0.5,1.5-1.2l0.9-3.8c0.8-3.6,1.3-7.2,1.3-10.9v0c0-3.5-0.4-7-1.2-10.4l-1-4.5
		c-0.2-0.7-0.8-1.2-1.6-1.2h-7.6c-0.9,0-1.6,0.7-1.6,1.6v28.9C411.3,103.8,412,104.5,412.9,104.5z"/>
	<g>
		<path d="M411.3,104.3c-1.1-0.8-3.6-6.2-3.6-15.8c0-9.7,2.4-15,3.6-15.8c1.1,0.8,3.6,6.2,3.6,15.8
			C414.9,98.1,412.4,103.5,411.3,104.3z"/>
		<path d="M411.3,78.7c0.6,2.4,1.1,5.7,1.1,9.8s-0.5,7.4-1.1,9.8c-0.6-2.4-1.1-5.7-1.1-9.8S410.7,81.1,411.3,78.7 M411.3,70.1
			c-3.3,0-6.1,8.2-6.1,18.4c0,10.2,2.7,18.4,6.1,18.4s6.1-8.2,6.1-18.4C417.4,78.3,414.7,70.1,411.3,70.1L411.3,70.1z"/>
	</g>
	<g>
		<ellipse class="st1" cx="68.2" cy="88.5" rx="2.8" ry="8.4"/>
	</g>
	<g>
		<ellipse class="st1" cx="39.2" cy="88.5" rx="2.8" ry="8.4"/>
	</g>
	<g>
		<ellipse class="st1" cx="411.3" cy="88.5" rx="2.8" ry="8.4"/>
	</g>
	<g>
		<ellipse class="st1" cx="441.3" cy="88.5" rx="2.8" ry="8.4"/>
	</g>
	<g>
		<path class="st3" d="M24.6,133.1h1.4l4.3,7v-7h1.1v8.6H30l-4.4-6.9v6.9h-1.1V133.1z"/>
		<path class="st3" d="M34.1,135.4v4.2c0,0.3,0,0.6,0.1,0.8c0.2,0.4,0.5,0.6,1,0.6c0.7,0,1.2-0.3,1.5-1c0.1-0.4,0.2-0.8,0.2-1.4
			v-3.1H38v6.3h-1l0-0.9c-0.1,0.2-0.3,0.4-0.5,0.6c-0.4,0.3-0.9,0.5-1.4,0.5c-0.9,0-1.5-0.3-1.8-0.9c-0.2-0.3-0.3-0.7-0.3-1.3v-4.3
			H34.1z"/>
		<path class="st3" d="M40,133.7H41v1.8h1v0.9h-1v4.1c0,0.2,0.1,0.4,0.2,0.4c0.1,0,0.2,0.1,0.4,0.1c0.1,0,0.1,0,0.2,0s0.1,0,0.2,0
			v0.8c-0.1,0-0.2,0.1-0.4,0.1s-0.3,0-0.4,0c-0.5,0-0.8-0.1-1-0.4s-0.3-0.6-0.3-1v-4.2h-0.8v-0.9H40V133.7z"/>
	</g>
	<g>
		<path class="st3" d="M53.9,133.1h1.4l4.3,7v-7h1.1v8.6h-1.3l-4.4-6.9v6.9h-1.1V133.1z"/>
		<path class="st3" d="M66.4,135.4h1.2c-0.1,0.4-0.5,1.3-1,2.8c-0.4,1.1-0.7,2-1,2.6c-0.6,1.6-1,2.6-1.3,2.9
			c-0.2,0.4-0.7,0.5-1.3,0.5c-0.1,0-0.3,0-0.3,0c-0.1,0-0.2,0-0.3-0.1v-1c0.2,0.1,0.3,0.1,0.4,0.1c0.1,0,0.2,0,0.2,0
			c0.2,0,0.3,0,0.4-0.1c0.1-0.1,0.2-0.1,0.2-0.2c0,0,0.1-0.2,0.2-0.5c0.1-0.3,0.2-0.5,0.3-0.6l-2.3-6.5H63l1.7,5.1L66.4,135.4z"/>
		<path class="st3" d="M68.5,133.1h1.1v8.6h-1.1V133.1z"/>
		<path class="st3" d="M75.7,136.1c0.6,0.5,0.8,1.3,0.8,2.4c0,1-0.2,1.8-0.7,2.5c-0.5,0.7-1.2,1-2.3,1c-0.9,0-1.5-0.3-2-0.9
			c-0.5-0.6-0.8-1.4-0.8-2.4c0-1.1,0.3-1.9,0.8-2.5c0.5-0.6,1.2-0.9,2.1-0.9C74.4,135.3,75.1,135.5,75.7,136.1z M75,140.2
			c0.3-0.5,0.4-1.1,0.4-1.8c0-0.6-0.1-1.1-0.3-1.4c-0.3-0.6-0.8-0.9-1.5-0.9c-0.6,0-1.1,0.2-1.4,0.7c-0.3,0.5-0.4,1.1-0.4,1.8
			c0,0.7,0.1,1.2,0.4,1.7c0.3,0.4,0.7,0.7,1.4,0.7C74.3,141,74.8,140.8,75,140.2z"/>
		<path class="st3" d="M82,135.8c0.4,0.3,0.7,0.9,0.8,1.8h-1c-0.1-0.4-0.2-0.7-0.4-1s-0.6-0.4-1.1-0.4c-0.7,0-1.2,0.3-1.4,1
			c-0.2,0.4-0.3,1-0.3,1.6c0,0.6,0.1,1.2,0.4,1.6c0.3,0.4,0.7,0.6,1.3,0.6c0.4,0,0.8-0.1,1-0.4s0.4-0.6,0.5-1.1h1
			c-0.1,0.8-0.4,1.4-0.9,1.8s-1.1,0.6-1.8,0.6c-0.8,0-1.5-0.3-2-0.9s-0.7-1.3-0.7-2.2c0-1.1,0.3-2,0.8-2.6s1.2-0.9,2-0.9
			C80.9,135.3,81.5,135.4,82,135.8z"/>
		<path class="st3" d="M87.3,133.1h1.4l4.3,7v-7h1.1v8.6h-1.3l-4.4-6.9v6.9h-1.1V133.1z"/>
		<path class="st3" d="M96.9,135.4v4.2c0,0.3,0,0.6,0.1,0.8c0.2,0.4,0.5,0.6,1,0.6c0.7,0,1.2-0.3,1.5-1c0.1-0.4,0.2-0.8,0.2-1.4
			v-3.1h1.1v6.3h-1l0-0.9c-0.1,0.2-0.3,0.4-0.5,0.6c-0.4,0.3-0.9,0.5-1.4,0.5c-0.9,0-1.5-0.3-1.8-0.9c-0.2-0.3-0.3-0.7-0.3-1.3v-4.3
			H96.9z"/>
		<path class="st3" d="M102.7,133.7h1.1v1.8h1v0.9h-1v4.1c0,0.2,0.1,0.4,0.2,0.4c0.1,0,0.2,0.1,0.4,0.1c0.1,0,0.1,0,0.2,0
			s0.1,0,0.2,0v0.8c-0.1,0-0.2,0.1-0.4,0.1s-0.3,0-0.4,0c-0.5,0-0.8-0.1-1-0.4s-0.3-0.6-0.3-1v-4.2h-0.8v-0.9h0.8V133.7z"/>
	</g>
	<g>
		<path class="st3" d="M220.9,133.1h3.7c1,0,1.7,0.3,2.2,0.9c0.3,0.4,0.4,0.8,0.4,1.2c0,0.5-0.2,1-0.5,1.3c-0.2,0.2-0.4,0.4-0.7,0.5
			c0.4,0.2,0.8,0.4,1,0.6c0.4,0.4,0.6,0.9,0.6,1.6c0,0.6-0.2,1.1-0.5,1.5c-0.5,0.7-1.4,1-2.5,1h-3.7V133.1z M224.2,136.7
			c0.5,0,0.9-0.1,1.2-0.2c0.4-0.2,0.7-0.6,0.7-1.2c0-0.6-0.2-0.9-0.7-1.1c-0.3-0.1-0.6-0.2-1.2-0.2h-2.1v2.7H224.2z M224.6,140.7
			c0.7,0,1.2-0.2,1.5-0.6c0.2-0.3,0.3-0.6,0.3-0.9c0-0.6-0.3-1.1-0.8-1.3c-0.3-0.1-0.7-0.2-1.2-0.2h-2.3v3H224.6z"/>
		<path class="st3" d="M232.7,135.6c0.4,0.2,0.7,0.5,0.9,0.8c0.2,0.3,0.3,0.7,0.4,1.1c0.1,0.3,0.1,0.8,0.1,1.4h-4.6
			c0,0.6,0.2,1.2,0.4,1.5c0.3,0.4,0.7,0.6,1.3,0.6c0.5,0,1-0.2,1.3-0.5c0.2-0.2,0.3-0.5,0.4-0.7h1c0,0.2-0.1,0.5-0.3,0.8
			s-0.3,0.5-0.5,0.7c-0.3,0.3-0.7,0.5-1.2,0.6c-0.3,0.1-0.5,0.1-0.9,0.1c-0.8,0-1.4-0.3-2-0.9c-0.5-0.6-0.8-1.4-0.8-2.4
			c0-1,0.3-1.8,0.8-2.5c0.5-0.6,1.3-0.9,2.1-0.9C231.8,135.3,232.3,135.4,232.7,135.6z M233.1,138.1c0-0.5-0.1-0.8-0.3-1.1
			c-0.3-0.5-0.8-0.8-1.4-0.8c-0.5,0-0.9,0.2-1.2,0.5s-0.5,0.8-0.5,1.3H233.1z"/>
		<path class="st3" d="M238.8,137.9c0.2,0,0.4-0.1,0.5-0.3c0-0.1,0.1-0.2,0.1-0.4c0-0.4-0.1-0.6-0.4-0.8c-0.3-0.2-0.6-0.2-1.1-0.2
			c-0.5,0-0.9,0.1-1.2,0.4c-0.1,0.2-0.2,0.4-0.3,0.7h-1c0-0.8,0.3-1.3,0.8-1.6s1-0.5,1.7-0.5c0.7,0,1.3,0.1,1.8,0.4
			c0.5,0.3,0.7,0.7,0.7,1.3v3.6c0,0.1,0,0.2,0.1,0.3s0.1,0.1,0.3,0.1c0,0,0.1,0,0.2,0s0.1,0,0.2,0v0.8c-0.2,0-0.3,0.1-0.4,0.1
			s-0.2,0-0.4,0c-0.4,0-0.6-0.1-0.8-0.4c-0.1-0.1-0.1-0.3-0.2-0.6c-0.2,0.3-0.5,0.5-0.9,0.7s-0.8,0.3-1.3,0.3
			c-0.6,0-1.1-0.2-1.4-0.5c-0.4-0.4-0.6-0.8-0.6-1.3c0-0.6,0.2-1,0.5-1.4c0.4-0.3,0.8-0.5,1.4-0.6L238.8,137.9z M236.6,140.8
			c0.2,0.2,0.5,0.3,0.8,0.3c0.4,0,0.7-0.1,1.1-0.3c0.6-0.3,0.9-0.8,0.9-1.4v-0.8c-0.1,0.1-0.3,0.2-0.5,0.2s-0.4,0.1-0.6,0.1
			l-0.6,0.1c-0.4,0.1-0.7,0.1-0.9,0.2c-0.3,0.2-0.5,0.5-0.5,0.9C236.3,140.3,236.4,140.6,236.6,140.8z"/>
		<path class="st3" d="M242.2,135.4h1v1.1c0.1-0.2,0.3-0.5,0.6-0.8s0.7-0.5,1.1-0.5c0,0,0.1,0,0.1,0s0.1,0,0.2,0v1.1
			c-0.1,0-0.1,0-0.2,0s-0.1,0-0.2,0c-0.5,0-0.9,0.2-1.2,0.5s-0.4,0.7-0.4,1.2v3.6h-1.1V135.4z"/>
		<path class="st3" d="M246.1,133.1h1.1v1.2h-1.1V133.1z M246.1,135.5h1.1v6.2h-1.1V135.5z"/>
		<path class="st3" d="M248.8,135.4h1v0.9c0.3-0.4,0.6-0.6,0.9-0.8s0.7-0.2,1.1-0.2c0.9,0,1.5,0.3,1.8,0.9c0.2,0.3,0.3,0.8,0.3,1.5
			v4h-1.1v-4c0-0.4-0.1-0.7-0.2-0.9c-0.2-0.4-0.5-0.6-1-0.6c-0.2,0-0.5,0-0.6,0.1c-0.3,0.1-0.5,0.3-0.8,0.5
			c-0.2,0.2-0.3,0.4-0.3,0.6s-0.1,0.5-0.1,0.9v3.3h-1.1V135.4z"/>
		<path class="st3" d="M259,135.7c0.2,0.1,0.4,0.3,0.6,0.6v-0.8h1v5.7c0,0.8-0.1,1.4-0.4,1.9c-0.4,0.9-1.3,1.3-2.5,1.3
			c-0.7,0-1.2-0.2-1.7-0.5c-0.5-0.3-0.7-0.8-0.8-1.4h1.1c0.1,0.3,0.2,0.5,0.3,0.7c0.2,0.2,0.6,0.4,1.1,0.4c0.8,0,1.3-0.3,1.6-0.9
			c0.1-0.3,0.2-0.9,0.2-1.8c-0.2,0.3-0.5,0.6-0.8,0.7c-0.3,0.2-0.7,0.2-1.2,0.2c-0.7,0-1.3-0.2-1.8-0.7s-0.8-1.3-0.8-2.4
			c0-1.1,0.3-1.9,0.8-2.5s1.1-0.9,1.9-0.9C258.2,135.3,258.6,135.4,259,135.7z M259.1,136.8c-0.3-0.4-0.7-0.6-1.2-0.6
			c-0.7,0-1.2,0.3-1.5,1c-0.1,0.4-0.2,0.9-0.2,1.5c0,0.7,0.1,1.2,0.4,1.6c0.3,0.4,0.7,0.6,1.2,0.6c0.8,0,1.3-0.3,1.6-1
			c0.2-0.4,0.3-0.8,0.3-1.4C259.6,137.8,259.4,137.2,259.1,136.8z"/>
	</g>
	<g>
		<path class="st3" d="M307.2,133.1v1h-2.9v7.6h-1.2v-7.6h-2.9v-1H307.2z"/>
		<path class="st3" d="M308.1,133.1h1.1v3.2c0.2-0.3,0.5-0.5,0.7-0.7c0.3-0.2,0.8-0.3,1.3-0.3c0.9,0,1.5,0.3,1.9,1
			c0.2,0.3,0.3,0.8,0.3,1.4v4h-1.1v-4c0-0.5-0.1-0.8-0.2-1c-0.2-0.3-0.6-0.5-1.1-0.5c-0.4,0-0.8,0.2-1.2,0.5s-0.5,0.9-0.5,1.7v3.3
			h-1.1V133.1z"/>
		<path class="st3" d="M314.8,135.4h1v1.1c0.1-0.2,0.3-0.5,0.6-0.8s0.7-0.5,1.1-0.5c0,0,0.1,0,0.1,0s0.1,0,0.2,0v1.1
			c-0.1,0-0.1,0-0.2,0s-0.1,0-0.2,0c-0.5,0-0.9,0.2-1.2,0.5s-0.4,0.7-0.4,1.2v3.6h-1.1V135.4z"/>
		<path class="st3" d="M322.7,135.6c0.4,0.2,0.7,0.5,0.9,0.8c0.2,0.3,0.3,0.7,0.4,1.1c0.1,0.3,0.1,0.8,0.1,1.4h-4.6
			c0,0.6,0.2,1.2,0.4,1.5c0.3,0.4,0.7,0.6,1.3,0.6c0.5,0,1-0.2,1.3-0.5c0.2-0.2,0.3-0.5,0.4-0.7h1c0,0.2-0.1,0.5-0.3,0.8
			s-0.3,0.5-0.5,0.7c-0.3,0.3-0.7,0.5-1.2,0.6c-0.3,0.1-0.5,0.1-0.9,0.1c-0.8,0-1.4-0.3-2-0.9s-0.8-1.4-0.8-2.4c0-1,0.3-1.8,0.8-2.5
			s1.3-0.9,2.1-0.9C321.8,135.3,322.3,135.4,322.7,135.6z M323.1,138.1c0-0.5-0.1-0.8-0.3-1.1c-0.3-0.5-0.8-0.8-1.4-0.8
			c-0.5,0-0.9,0.2-1.2,0.5s-0.5,0.8-0.5,1.3H323.1z"/>
		<path class="st3" d="M328.8,137.9c0.2,0,0.4-0.1,0.5-0.3c0-0.1,0.1-0.2,0.1-0.4c0-0.4-0.1-0.6-0.4-0.8s-0.6-0.2-1.1-0.2
			c-0.5,0-0.9,0.1-1.2,0.4c-0.1,0.2-0.2,0.4-0.3,0.7h-1c0-0.8,0.3-1.3,0.8-1.6c0.5-0.3,1-0.5,1.7-0.5c0.7,0,1.3,0.1,1.8,0.4
			c0.5,0.3,0.7,0.7,0.7,1.3v3.6c0,0.1,0,0.2,0.1,0.3s0.1,0.1,0.3,0.1c0,0,0.1,0,0.2,0s0.1,0,0.2,0v0.8c-0.2,0-0.3,0.1-0.4,0.1
			s-0.2,0-0.4,0c-0.4,0-0.6-0.1-0.8-0.4c-0.1-0.1-0.1-0.3-0.2-0.6c-0.2,0.3-0.5,0.5-0.9,0.7s-0.8,0.3-1.3,0.3
			c-0.6,0-1.1-0.2-1.4-0.5c-0.4-0.4-0.6-0.8-0.6-1.3c0-0.6,0.2-1,0.5-1.4c0.4-0.3,0.8-0.5,1.4-0.6L328.8,137.9z M326.6,140.8
			c0.2,0.2,0.5,0.3,0.8,0.3c0.4,0,0.7-0.1,1.1-0.3c0.6-0.3,0.9-0.8,0.9-1.4v-0.8c-0.1,0.1-0.3,0.2-0.5,0.2c-0.2,0.1-0.4,0.1-0.6,0.1
			l-0.6,0.1c-0.4,0.1-0.7,0.1-0.9,0.2c-0.3,0.2-0.5,0.5-0.5,0.9C326.3,140.3,326.4,140.6,326.6,140.8z"/>
		<path class="st3" d="M335.6,135.6c0.2,0.1,0.4,0.3,0.6,0.6v-3.2h1v8.6h-0.9v-0.9c-0.2,0.4-0.5,0.7-0.9,0.8
			c-0.3,0.2-0.7,0.3-1.2,0.3c-0.7,0-1.3-0.3-1.8-0.9s-0.8-1.4-0.8-2.3c0-0.9,0.2-1.7,0.7-2.4c0.5-0.7,1.1-1,2-1
			C334.9,135.3,335.3,135.4,335.6,135.6z M333.2,140.3c0.3,0.5,0.7,0.7,1.4,0.7c0.5,0,0.9-0.2,1.2-0.6c0.3-0.4,0.5-1,0.5-1.8
			c0-0.8-0.2-1.4-0.5-1.8c-0.3-0.4-0.7-0.6-1.2-0.6c-0.5,0-1,0.2-1.3,0.6c-0.3,0.4-0.5,1-0.5,1.8C332.8,139.3,333,139.9,333.2,140.3
			z"/>
		<path class="st3" d="M342.2,135.4h1v1.1c0.1-0.2,0.3-0.5,0.6-0.8s0.7-0.5,1.1-0.5c0,0,0.1,0,0.1,0s0.1,0,0.2,0v1.1
			c-0.1,0-0.1,0-0.2,0s-0.1,0-0.2,0c-0.5,0-0.9,0.2-1.2,0.5s-0.4,0.7-0.4,1.2v3.6h-1.1V135.4z"/>
		<path class="st3" d="M350.7,136.1c0.6,0.5,0.8,1.3,0.8,2.4c0,1-0.2,1.8-0.7,2.5c-0.5,0.7-1.2,1-2.3,1c-0.9,0-1.5-0.3-2-0.9
			c-0.5-0.6-0.8-1.4-0.8-2.4c0-1.1,0.3-1.9,0.8-2.5c0.5-0.6,1.2-0.9,2.1-0.9C349.5,135.3,350.1,135.5,350.7,136.1z M350,140.2
			c0.3-0.5,0.4-1.1,0.4-1.8c0-0.6-0.1-1.1-0.3-1.4c-0.3-0.6-0.8-0.9-1.5-0.9c-0.6,0-1.1,0.2-1.4,0.7c-0.3,0.5-0.4,1.1-0.4,1.8
			c0,0.7,0.1,1.2,0.4,1.7c0.3,0.4,0.7,0.7,1.4,0.7C349.3,141,349.8,140.8,350,140.2z"/>
		<path class="st3" d="M356.3,135.6c0.2,0.1,0.4,0.3,0.6,0.6v-3.2h1v8.6H357v-0.9c-0.2,0.4-0.5,0.7-0.9,0.8
			c-0.3,0.2-0.7,0.3-1.2,0.3c-0.7,0-1.3-0.3-1.8-0.9s-0.8-1.4-0.8-2.3c0-0.9,0.2-1.7,0.7-2.4c0.5-0.7,1.1-1,2-1
			C355.6,135.3,356,135.4,356.3,135.6z M353.9,140.3c0.3,0.5,0.7,0.7,1.4,0.7c0.5,0,0.9-0.2,1.2-0.6c0.3-0.4,0.5-1,0.5-1.8
			c0-0.8-0.2-1.4-0.5-1.8c-0.3-0.4-0.7-0.6-1.2-0.6c-0.5,0-1,0.2-1.3,0.6c-0.3,0.4-0.5,1-0.5,1.8
			C353.5,139.3,353.6,139.9,353.9,140.3z"/>
	</g>
	<g>
		<path class="st3" d="M442.2,133.1h1.4l4.3,7v-7h1.1v8.6h-1.3l-4.4-6.9v6.9h-1.1V133.1z"/>
		<path class="st3" d="M451.8,135.4v4.2c0,0.3,0,0.6,0.1,0.8c0.2,0.4,0.5,0.6,1,0.6c0.7,0,1.2-0.3,1.5-1c0.1-0.4,0.2-0.8,0.2-1.4
			v-3.1h1.1v6.3h-1l0-0.9c-0.1,0.2-0.3,0.4-0.5,0.6c-0.4,0.3-0.9,0.5-1.4,0.5c-0.9,0-1.5-0.3-1.8-0.9c-0.2-0.3-0.3-0.7-0.3-1.3v-4.3
			H451.8z"/>
		<path class="st3" d="M457.6,133.7h1.1v1.8h1v0.9h-1v4.1c0,0.2,0.1,0.4,0.2,0.4c0.1,0,0.2,0.1,0.4,0.1c0.1,0,0.1,0,0.2,0
			s0.1,0,0.2,0v0.8c-0.1,0-0.2,0.1-0.4,0.1s-0.3,0-0.4,0c-0.5,0-0.8-0.1-1-0.4s-0.3-0.6-0.3-1v-4.2h-0.8v-0.9h0.8V133.7z"/>
	</g>
	<g>
		<path class="st3" d="M381.9,133.1h1.4l4.3,7v-7h1.1v8.6h-1.3l-4.4-6.9v6.9h-1.1V133.1z"/>
		<path class="st3" d="M394.4,135.4h1.2c-0.1,0.4-0.5,1.3-1,2.8c-0.4,1.1-0.7,2-1,2.6c-0.6,1.6-1,2.6-1.3,2.9
			c-0.2,0.4-0.7,0.5-1.3,0.5c-0.1,0-0.3,0-0.3,0c-0.1,0-0.2,0-0.3-0.1v-1c0.2,0.1,0.3,0.1,0.4,0.1s0.2,0,0.2,0c0.2,0,0.3,0,0.4-0.1
			s0.2-0.1,0.2-0.2c0,0,0.1-0.2,0.2-0.5c0.1-0.3,0.2-0.5,0.3-0.6l-2.3-6.5h1.2l1.7,5.1L394.4,135.4z"/>
		<path class="st3" d="M396.5,133.1h1.1v8.6h-1.1V133.1z"/>
		<path class="st3" d="M403.7,136.1c0.6,0.5,0.8,1.3,0.8,2.4c0,1-0.2,1.8-0.7,2.5s-1.2,1-2.3,1c-0.9,0-1.5-0.3-2-0.9
			c-0.5-0.6-0.8-1.4-0.8-2.4c0-1.1,0.3-1.9,0.8-2.5c0.5-0.6,1.2-0.9,2.1-0.9C402.4,135.3,403.1,135.5,403.7,136.1z M403,140.2
			c0.3-0.5,0.4-1.1,0.4-1.8c0-0.6-0.1-1.1-0.3-1.4c-0.3-0.6-0.8-0.9-1.5-0.9c-0.6,0-1.1,0.2-1.4,0.7c-0.3,0.5-0.4,1.1-0.4,1.8
			c0,0.7,0.1,1.2,0.4,1.7c0.3,0.4,0.7,0.7,1.4,0.7C402.3,141,402.8,140.8,403,140.2z"/>
		<path class="st3" d="M410,135.8c0.4,0.3,0.7,0.9,0.8,1.8h-1c-0.1-0.4-0.2-0.7-0.4-1s-0.6-0.4-1.1-0.4c-0.7,0-1.2,0.3-1.4,1
			c-0.2,0.4-0.3,1-0.3,1.6c0,0.6,0.1,1.2,0.4,1.6c0.3,0.4,0.7,0.6,1.3,0.6c0.4,0,0.8-0.1,1-0.4s0.4-0.6,0.5-1.1h1
			c-0.1,0.8-0.4,1.4-0.9,1.8s-1.1,0.6-1.8,0.6c-0.8,0-1.5-0.3-2-0.9s-0.7-1.3-0.7-2.2c0-1.1,0.3-2,0.8-2.6s1.2-0.9,2-0.9
			C408.9,135.3,409.5,135.4,410,135.8z"/>
		<path class="st3" d="M415.3,133.1h1.4l4.3,7v-7h1.1v8.6h-1.3l-4.4-6.9v6.9h-1.1V133.1z"/>
		<path class="st3" d="M424.9,135.4v4.2c0,0.3,0,0.6,0.1,0.8c0.2,0.4,0.5,0.6,1,0.6c0.7,0,1.2-0.3,1.5-1c0.1-0.4,0.2-0.8,0.2-1.4
			v-3.1h1.1v6.3h-1l0-0.9c-0.1,0.2-0.3,0.4-0.5,0.6c-0.4,0.3-0.9,0.5-1.4,0.5c-0.9,0-1.5-0.3-1.8-0.9c-0.2-0.3-0.3-0.7-0.3-1.3v-4.3
			H424.9z"/>
		<path class="st3" d="M430.7,133.7h1.1v1.8h1v0.9h-1v4.1c0,0.2,0.1,0.4,0.2,0.4c0.1,0,0.2,0.1,0.4,0.1c0.1,0,0.1,0,0.2,0
			s0.1,0,0.2,0v0.8c-0.1,0-0.2,0.1-0.4,0.1s-0.3,0-0.4,0c-0.5,0-0.8-0.1-1-0.4s-0.3-0.6-0.3-1v-4.2h-0.8v-0.9h0.8V133.7z"/>
	</g>
	<rect x="201.5" y="195" class="st4" width="73.5" height="64.1"/>
	<polygon class="st4" points="290,247.1 238.6,298.5 187.5,247.4 	"/>
	<g>
		<path class="st3" d="M222.8,237.5h-3.4l7.4-10.8l-7-10.2h3.5l5.3,8l5.2-8h3.4l-6.9,10.2l7.3,10.8h-3.5l-5.6-8.6L222.8,237.5z"/>
		<path class="st3" d="M240.6,232.4c0.7-1.7,2.4-3.5,5.1-5.5c2.3-1.7,3.9-2.9,4.5-3.6c1.1-1.1,1.6-2.4,1.6-3.7c0-1.1-0.3-2-0.9-2.7
			c-0.6-0.7-1.5-1.1-2.6-1.1c-1.5,0-2.6,0.6-3.2,1.7c-0.3,0.7-0.5,1.7-0.6,3.2h-4.9c0.1-2.2,0.5-4,1.2-5.3c1.4-2.6,3.8-3.9,7.2-3.9
			c2.7,0,4.9,0.8,6.5,2.3c1.6,1.5,2.4,3.5,2.4,6c0,1.9-0.6,3.6-1.7,5.1c-0.8,1-2,2.1-3.7,3.3l-2,1.4c-1.3,0.9-2.1,1.6-2.6,2
			c-0.5,0.4-0.9,0.9-1.2,1.4h11.3v4.5h-17.7C239.5,235.7,239.9,234,240.6,232.4z"/>
	</g>
</g>
<line class="st5" x1="201.5" y1="372.4" x2="133.7" y2="372.4"/>
<g>
	<path d="M152.4,360.5v-0.9h2.6v-1.9h1v1.9h2.6v0.9h-2.6v1.9h-1v-1.9H152.4z M158.5,362.9v0.9h-6.1v-0.9H158.5z"/>
	<path d="M159.4,361.7c0.3-0.7,1-1.5,2.1-2.2c1-0.7,1.6-1.2,1.9-1.5c0.4-0.5,0.7-1,0.7-1.5c0-0.4-0.1-0.8-0.4-1.1s-0.6-0.4-1.1-0.4
		c-0.6,0-1.1,0.2-1.3,0.7c-0.1,0.3-0.2,0.7-0.2,1.3h-2c0-0.9,0.2-1.6,0.5-2.2c0.6-1.1,1.5-1.6,3-1.6c1.1,0,2,0.3,2.7,0.9
		c0.7,0.6,1,1.4,1,2.5c0,0.8-0.2,1.5-0.7,2.1c-0.3,0.4-0.8,0.9-1.5,1.4l-0.8,0.6c-0.5,0.4-0.9,0.6-1.1,0.8c-0.2,0.2-0.4,0.4-0.5,0.6
		h4.6v1.8h-7.3C158.9,363,159.1,362.3,159.4,361.7z"/>
	<path d="M173.7,354.5c0.5,1,0.8,2.3,0.8,4.1s-0.3,3.1-0.8,4.1c-0.5,0.9-1.5,1.4-2.8,1.4s-2.3-0.5-2.8-1.4c-0.5-0.9-0.8-2.3-0.8-4.1
		s0.3-3.1,0.8-4.1c0.5-1,1.5-1.4,2.8-1.4S173.2,353.6,173.7,354.5z M169.6,361.4c0.2,0.6,0.6,1,1.2,1s1-0.3,1.2-1
		c0.2-0.6,0.3-1.6,0.3-2.8c0-1.3-0.1-2.2-0.3-2.8c-0.2-0.6-0.6-0.9-1.2-0.9s-1,0.3-1.2,0.9s-0.3,1.6-0.3,2.8
		C169.3,359.8,169.4,360.8,169.6,361.4z"/>
	<path d="M175.5,360.1h0.6v0.5c0.1-0.2,0.3-0.3,0.4-0.4c0.2-0.1,0.4-0.2,0.7-0.2c0.3,0,0.5,0.1,0.7,0.2c0.1,0.1,0.2,0.2,0.3,0.4
		c0.1-0.2,0.3-0.3,0.5-0.4c0.2-0.1,0.4-0.1,0.6-0.1c0.5,0,0.8,0.2,1,0.5c0.1,0.2,0.1,0.4,0.1,0.8v2.4h-0.6v-2.5
		c0-0.2-0.1-0.4-0.2-0.5c-0.1-0.1-0.3-0.1-0.4-0.1c-0.2,0-0.4,0.1-0.6,0.2c-0.2,0.2-0.3,0.4-0.3,0.8v2.1h-0.6v-2.4
		c0-0.2,0-0.4-0.1-0.5c-0.1-0.2-0.3-0.3-0.5-0.3c-0.2,0-0.4,0.1-0.6,0.3c-0.2,0.2-0.3,0.5-0.3,1v1.9h-0.6V360.1z"/>
	<path d="M181.4,360.1h0.6v0.5c0.1-0.2,0.3-0.3,0.4-0.4c0.2-0.1,0.4-0.2,0.7-0.2c0.3,0,0.5,0.1,0.7,0.2c0.1,0.1,0.2,0.2,0.3,0.4
		c0.1-0.2,0.3-0.3,0.5-0.4c0.2-0.1,0.4-0.1,0.6-0.1c0.5,0,0.8,0.2,1,0.5c0.1,0.2,0.1,0.4,0.1,0.8v2.4h-0.6v-2.5
		c0-0.2-0.1-0.4-0.2-0.5c-0.1-0.1-0.3-0.1-0.4-0.1c-0.2,0-0.4,0.1-0.6,0.2c-0.2,0.2-0.3,0.4-0.3,0.8v2.1h-0.6v-2.4
		c0-0.2,0-0.4-0.1-0.5c-0.1-0.2-0.3-0.3-0.5-0.3c-0.2,0-0.4,0.1-0.6,0.3c-0.2,0.2-0.3,0.5-0.3,1v1.9h-0.6V360.1z"/>
	<path d="M187.3,363.1h0.7v0.7h-0.7V363.1z"/>
</g>
<line class="st5" x1="342.9" y1="372.4" x2="275.1" y2="372.4"/>
<g>
	<path d="M291.4,360.5v-0.9h2.6v-1.9h1v1.9h2.6v0.9h-2.6v1.9h-1v-1.9H291.4z M297.5,362.9v0.9h-6.1v-0.9H297.5z"/>
	<path d="M298.4,361.7c0.3-0.7,1-1.5,2.1-2.2c1-0.7,1.6-1.2,1.9-1.5c0.4-0.5,0.7-1,0.7-1.5c0-0.4-0.1-0.8-0.4-1.1s-0.6-0.4-1.1-0.4
		c-0.6,0-1.1,0.2-1.3,0.7c-0.1,0.3-0.2,0.7-0.2,1.3h-2c0-0.9,0.2-1.6,0.5-2.2c0.6-1.1,1.5-1.6,3-1.6c1.1,0,2,0.3,2.7,0.9
		c0.7,0.6,1,1.4,1,2.5c0,0.8-0.2,1.5-0.7,2.1c-0.3,0.4-0.8,0.9-1.5,1.4l-0.8,0.6c-0.5,0.4-0.9,0.6-1.1,0.8c-0.2,0.2-0.4,0.4-0.5,0.6
		h4.6v1.8h-7.3C297.9,363,298.1,362.3,298.4,361.7z"/>
	<path d="M312.7,354.5c0.5,1,0.8,2.3,0.8,4.1s-0.3,3.1-0.8,4.1c-0.5,0.9-1.5,1.4-2.8,1.4s-2.3-0.5-2.8-1.4c-0.5-0.9-0.8-2.3-0.8-4.1
		s0.3-3.1,0.8-4.1c0.5-1,1.5-1.4,2.8-1.4S312.2,353.6,312.7,354.5z M308.6,361.4c0.2,0.6,0.6,1,1.2,1s1-0.3,1.2-1
		c0.2-0.6,0.3-1.6,0.3-2.8c0-1.3-0.1-2.2-0.3-2.8c-0.2-0.6-0.6-0.9-1.2-0.9s-1,0.3-1.2,0.9s-0.3,1.6-0.3,2.8
		C308.3,359.8,308.4,360.8,308.6,361.4z"/>
	<path d="M314.5,360.1h0.6v0.5c0.1-0.2,0.3-0.3,0.4-0.4c0.2-0.1,0.4-0.2,0.7-0.2c0.3,0,0.5,0.1,0.7,0.2c0.1,0.1,0.2,0.2,0.3,0.4
		c0.1-0.2,0.3-0.3,0.5-0.4c0.2-0.1,0.4-0.1,0.6-0.1c0.5,0,0.8,0.2,1,0.5c0.1,0.2,0.1,0.4,0.1,0.8v2.4h-0.6v-2.5
		c0-0.2-0.1-0.4-0.2-0.5c-0.1-0.1-0.3-0.1-0.4-0.1c-0.2,0-0.4,0.1-0.6,0.2c-0.2,0.2-0.3,0.4-0.3,0.8v2.1h-0.6v-2.4
		c0-0.2,0-0.4-0.1-0.5c-0.1-0.2-0.3-0.3-0.5-0.3c-0.2,0-0.4,0.1-0.6,0.3c-0.2,0.2-0.3,0.5-0.3,1v1.9h-0.6V360.1z"/>
	<path d="M320.4,360.1h0.6v0.5c0.1-0.2,0.3-0.3,0.4-0.4c0.2-0.1,0.4-0.2,0.7-0.2c0.3,0,0.5,0.1,0.7,0.2c0.1,0.1,0.2,0.2,0.3,0.4
		c0.1-0.2,0.3-0.3,0.5-0.4c0.2-0.1,0.4-0.1,0.6-0.1c0.5,0,0.8,0.2,1,0.5c0.1,0.2,0.1,0.4,0.1,0.8v2.4h-0.6v-2.5
		c0-0.2-0.1-0.4-0.2-0.5c-0.1-0.1-0.3-0.1-0.4-0.1c-0.2,0-0.4,0.1-0.6,0.2c-0.2,0.2-0.3,0.4-0.3,0.8v2.1h-0.6v-2.4
		c0-0.2,0-0.4-0.1-0.5c-0.1-0.2-0.3-0.3-0.5-0.3c-0.2,0-0.4,0.1-0.6,0.3c-0.2,0.2-0.3,0.5-0.3,1v1.9h-0.6V360.1z"/>
	<path d="M326.3,363.1h0.7v0.7h-0.7V363.1z"/>
</g>
<line class="st5" x1="109.1" y1="372.4" x2="88.9" y2="372.4"/>
<g>
	<path d="M86.9,360.5v-0.9h2.6v-1.9h1v1.9H93v0.9h-2.6v1.9h-1v-1.9H86.9z M93,362.9v0.9h-6.1v-0.9H93z"/>
	<path d="M98.4,355.9c0-0.2-0.1-0.4-0.2-0.6c-0.2-0.3-0.6-0.5-1-0.5c-0.7,0-1.2,0.4-1.5,1.1c-0.2,0.4-0.3,1-0.3,1.9
		c0.3-0.3,0.6-0.5,0.9-0.7s0.7-0.2,1.2-0.2c0.9,0,1.7,0.3,2.3,1c0.6,0.6,0.9,1.5,0.9,2.5c0,1-0.3,1.9-0.9,2.6
		c-0.6,0.8-1.5,1.1-2.8,1.1c-1.3,0-2.3-0.6-3-1.7c-0.5-0.9-0.7-2-0.7-3.4c0-0.8,0-1.5,0.1-2c0.1-0.9,0.4-1.7,0.7-2.3
		c0.3-0.5,0.7-0.9,1.2-1.2c0.5-0.3,1.1-0.5,1.8-0.5c1,0,1.8,0.3,2.4,0.8c0.6,0.5,0.9,1.2,1,2H98.4z M95.9,361.8
		c0.3,0.4,0.7,0.5,1.2,0.5c0.5,0,0.8-0.2,1.1-0.5c0.3-0.3,0.4-0.8,0.4-1.4c0-0.6-0.2-1.1-0.5-1.4c-0.3-0.3-0.7-0.5-1.1-0.5
		c-0.4,0-0.7,0.1-0.9,0.3c-0.4,0.3-0.6,0.8-0.6,1.5C95.5,361,95.6,361.5,95.9,361.8z"/>
	<path d="M101.7,360.1h0.6v0.5c0.1-0.2,0.3-0.3,0.4-0.4c0.2-0.1,0.4-0.2,0.7-0.2c0.3,0,0.5,0.1,0.7,0.2c0.1,0.1,0.2,0.2,0.3,0.4
		c0.1-0.2,0.3-0.3,0.5-0.4c0.2-0.1,0.4-0.1,0.6-0.1c0.5,0,0.8,0.2,1,0.5c0.1,0.2,0.1,0.4,0.1,0.8v2.4H106v-2.5
		c0-0.2-0.1-0.4-0.2-0.5c-0.1-0.1-0.3-0.1-0.4-0.1c-0.2,0-0.4,0.1-0.6,0.2c-0.2,0.2-0.3,0.4-0.3,0.8v2.1h-0.6v-2.4
		c0-0.2,0-0.4-0.1-0.5c-0.1-0.2-0.3-0.3-0.5-0.3c-0.2,0-0.4,0.1-0.6,0.3c-0.2,0.2-0.3,0.5-0.3,1v1.9h-0.6V360.1z"/>
	<path d="M107.5,360.1h0.6v0.5c0.1-0.2,0.3-0.3,0.4-0.4c0.2-0.1,0.4-0.2,0.7-0.2c0.3,0,0.5,0.1,0.7,0.2c0.1,0.1,0.2,0.2,0.3,0.4
		c0.1-0.2,0.3-0.3,0.5-0.4c0.2-0.1,0.4-0.1,0.6-0.1c0.5,0,0.8,0.2,1,0.5c0.1,0.2,0.1,0.4,0.1,0.8v2.4h-0.6v-2.5
		c0-0.2-0.1-0.4-0.2-0.5c-0.1-0.1-0.3-0.1-0.4-0.1c-0.2,0-0.4,0.1-0.6,0.2c-0.2,0.2-0.3,0.4-0.3,0.8v2.1h-0.6v-2.4
		c0-0.2,0-0.4-0.1-0.5c-0.1-0.2-0.3-0.3-0.5-0.3c-0.2,0-0.4,0.1-0.6,0.3c-0.2,0.2-0.3,0.5-0.3,1v1.9h-0.6V360.1z"/>
	<path d="M113.5,363.1h0.7v0.7h-0.7V363.1z"/>
</g>
<line class="st5" x1="388.1" y1="372.4" x2="367.9" y2="372.4"/>
<g>
	<path d="M365.9,360.5v-0.9h2.6v-1.9h1v1.9h2.6v0.9h-2.6v1.9h-1v-1.9H365.9z M372,362.9v0.9h-6.1v-0.9H372z"/>
	<path d="M377.4,355.9c0-0.2-0.1-0.4-0.2-0.6c-0.2-0.3-0.6-0.5-1-0.5c-0.7,0-1.2,0.4-1.5,1.1c-0.2,0.4-0.3,1-0.3,1.9
		c0.3-0.3,0.6-0.5,0.9-0.7s0.7-0.2,1.2-0.2c0.9,0,1.7,0.3,2.3,1c0.6,0.6,0.9,1.5,0.9,2.5c0,1-0.3,1.9-0.9,2.6
		c-0.6,0.8-1.5,1.1-2.8,1.1c-1.3,0-2.3-0.6-3-1.7c-0.5-0.9-0.7-2-0.7-3.4c0-0.8,0-1.5,0.1-2c0.1-0.9,0.4-1.7,0.7-2.3
		c0.3-0.5,0.7-0.9,1.2-1.2c0.5-0.3,1.1-0.5,1.8-0.5c1,0,1.8,0.3,2.4,0.8c0.6,0.5,0.9,1.2,1,2H377.4z M374.9,361.8
		c0.3,0.4,0.7,0.5,1.2,0.5c0.5,0,0.8-0.2,1.1-0.5c0.3-0.3,0.4-0.8,0.4-1.4c0-0.6-0.2-1.1-0.5-1.4c-0.3-0.3-0.7-0.5-1.1-0.5
		c-0.4,0-0.7,0.1-0.9,0.3c-0.4,0.3-0.6,0.8-0.6,1.5C374.5,361,374.6,361.5,374.9,361.8z"/>
	<path d="M380.7,360.1h0.6v0.5c0.1-0.2,0.3-0.3,0.4-0.4c0.2-0.1,0.4-0.2,0.7-0.2c0.3,0,0.5,0.1,0.7,0.2c0.1,0.1,0.2,0.2,0.3,0.4
		c0.1-0.2,0.3-0.3,0.5-0.4c0.2-0.1,0.4-0.1,0.6-0.1c0.5,0,0.8,0.2,1,0.5c0.1,0.2,0.1,0.4,0.1,0.8v2.4H385v-2.5
		c0-0.2-0.1-0.4-0.2-0.5c-0.1-0.1-0.3-0.1-0.4-0.1c-0.2,0-0.4,0.1-0.6,0.2c-0.2,0.2-0.3,0.4-0.3,0.8v2.1h-0.6v-2.4
		c0-0.2,0-0.4-0.1-0.5c-0.1-0.2-0.3-0.3-0.5-0.3c-0.2,0-0.4,0.1-0.6,0.3c-0.2,0.2-0.3,0.5-0.3,1v1.9h-0.6V360.1z"/>
	<path d="M386.5,360.1h0.6v0.5c0.1-0.2,0.3-0.3,0.4-0.4c0.2-0.1,0.4-0.2,0.7-0.2c0.3,0,0.5,0.1,0.7,0.2c0.1,0.1,0.2,0.2,0.3,0.4
		c0.1-0.2,0.3-0.3,0.5-0.4c0.2-0.1,0.4-0.1,0.6-0.1c0.5,0,0.8,0.2,1,0.5c0.1,0.2,0.1,0.4,0.1,0.8v2.4h-0.6v-2.5
		c0-0.2-0.1-0.4-0.2-0.5c-0.1-0.1-0.3-0.1-0.4-0.1c-0.2,0-0.4,0.1-0.6,0.2c-0.2,0.2-0.3,0.4-0.3,0.8v2.1h-0.6v-2.4
		c0-0.2,0-0.4-0.1-0.5c-0.1-0.2-0.3-0.3-0.5-0.3c-0.2,0-0.4,0.1-0.6,0.3c-0.2,0.2-0.3,0.5-0.3,1v1.9h-0.6V360.1z"/>
	<path d="M392.5,363.1h0.7v0.7h-0.7V363.1z"/>
</g>
<g>
</g>
<g>
</g>
<g>
</g>
<g>
</g>
<g>
</g>
<g>
</g>
</svg>
