<?xml version="1.0" encoding="utf-8"?>
<!-- Generator: Adobe Illustrator 19.2.1, SVG Export Plug-In . SVG Version: 6.00 Build 0)  -->
<svg version="1.1" id="Layer_1" xmlns="http://www.w3.org/2000/svg" xmlns:xlink="http://www.w3.org/1999/xlink" x="0px" y="0px"
	 viewBox="0 0 477.5 477.5" style="enable-background:new 0 0 477.5 477.5;" xml:space="preserve">
<style type="text/css">
	.st0{fill:#FFFFFF;}
	.st1{fill:none;stroke:#CCCCCC;stroke-width:5;stroke-miterlimit:10;}
</style>
<g id="Graphic_2">
	<g>
		<polygon class="st0" points="240.7,372.1 240.7,51.9 318.3,117.1 349.9,422.3 		"/>
		<path d="M241.7,54l75.6,63.5l31.4,303.1l-107-49.2V53.7 M239.7,49.7v323l111.4,51.2l-31.9-307.3L239.7,49.7L239.7,49.7z"/>
	</g>
	<g>
		<polygon class="st0" points="134.1,378.9 176.3,355.4 179.1,284.4 141.6,306.9 153.1,196.4 189,167 189.6,119.8 158.4,145.6 
			161.4,117.1 238.7,51.9 238.7,372.1 129.6,422.3 		"/>
		<path d="M237.7,53.7v317.7l-106.9,49.2l4.3-41.1l41.2-23l1-0.5v-1.1l2.7-68.6l0.1-3.7l-3.2,1.9L142.8,305L154,196.9l35.2-28.8
			l0.7-0.6v-0.9l0.6-44.6l0.1-4.3l-3.3,2.8l-27.7,22.9l2.7-25.7L237.7,54 M239.7,49.7l-79.3,66.8l-3.3,31.4l31.5-26l-0.6,44.6
			l-35.8,29.3l-11.7,112.9l37.6-22.6l-2.7,68.6l-42.2,23.5l-4.7,45.6l111.3-51.2L239.7,49.7L239.7,49.7z"/>
	</g>
	<g>
		<polygon class="st0" points="130.3,424.2 239.7,373.8 349.4,424.2 344.2,429.3 239.7,381.6 136.3,429.4 		"/>
		<path d="M239.7,374.9l107.9,49.6l-3.6,3.6l-103.5-47.3l-0.8-0.4l-0.8,0.4l-102.4,47.3l-4.4-3.8L239.7,374.9 M239.7,372.7
			l-111.3,51.2l7.7,6.6l103.6-47.9l104.7,47.9l6.6-6.6L239.7,372.7L239.7,372.7z"/>
	</g>
	<g>
		<polygon class="st0" points="142.3,308.8 178.5,286.8 178.1,293.2 146.5,311.8 		"/>
		<path d="M177.4,288.6l-0.3,3.9l-30.6,18l-2.4-1.7L177.4,288.6 M179.7,284.9l-39.3,23.9l6,4.2l32.6-19.2L179.7,284.9L179.7,284.9z"
			/>
	</g>
	<g>
		<polygon class="st0" points="158.8,147.9 189.4,122.2 189.3,129.2 163.3,150.7 		"/>
		<path d="M188.4,124.4v4.3l-25.1,20.8l-2.7-1.8L188.4,124.4 M190.4,120.1L157.1,148l6.3,4l26.9-22.3L190.4,120.1L190.4,120.1z"/>
	</g>
	<g>
		<path d="M275.6,315.4c-0.5,0-1-0.1-1.6-0.2c-4.6-1.1-9.3-6.6-10.9-12.9c-1-3.8-0.6-7.2,1-9.3c1.1-1.4,2.6-2.1,4.4-2.1
			c0.6,0,1.2,0.1,1.9,0.3c4.8,1.3,9.6,7.4,10.9,13.8c0.7,3.5,0.2,6.4-1.3,8.4C278.9,314.7,277.3,315.4,275.6,315.4z"/>
		<path class="st0" d="M268.5,292.9c0.4,0,0.9,0.1,1.3,0.2c4.1,1.1,8.3,6.7,9.4,12.3c1,4.7-0.7,8-3.7,8c-0.4,0-0.7,0-1.1-0.1
			c-3.8-0.9-8-5.9-9.4-11.4C263.7,296.7,265.3,292.9,268.5,292.9 M268.5,288.9L268.5,288.9c-2.4,0-4.5,1-6,2.9
			c-2,2.6-2.5,6.5-1.3,11c1.8,6.9,7.1,13.1,12.4,14.3c0.7,0.2,1.4,0.2,2,0.2c2.3,0,4.4-1,5.9-2.8c2-2.4,2.6-5.9,1.8-10
			c-1.5-7.2-6.8-13.8-12.3-15.4C270.1,289,269.3,288.9,268.5,288.9L268.5,288.9z"/>
	</g>
	<g>
		<path d="M205.6,361.4c-1.7,0-3.2-0.7-4.3-2c-1.6-1.9-2-4.9-1.3-8.4c1.3-6.4,6.1-12.5,10.9-13.8c0.6-0.2,1.3-0.3,1.9-0.3
			c1.8,0,3.3,0.8,4.4,2.1c1.6,2.1,2,5.5,1,9.3c-1.6,6.3-6.3,11.8-10.9,12.9C206.6,361.3,206.1,361.4,205.6,361.4z"/>
		<path class="st0" d="M212.7,338.9c3.3,0,4.8,3.7,3.5,8.9c-1.4,5.5-5.7,10.5-9.4,11.4c-0.4,0.1-0.8,0.1-1.1,0.1c-3,0-4.6-3.2-3.7-8
			c1.1-5.6,5.3-11.2,9.4-12.3C211.8,339,212.2,338.9,212.7,338.9 M212.7,334.9c-0.8,0-1.6,0.1-2.4,0.3c-5.6,1.5-10.9,8.1-12.3,15.4
			c-0.8,4.1-0.2,7.6,1.8,10c1.5,1.8,3.5,2.8,5.9,2.8c0.7,0,1.3-0.1,2-0.2c5.3-1.2,10.6-7.4,12.4-14.3c1.2-4.5,0.7-8.4-1.3-11
			C217.2,336,215.1,334.9,212.7,334.9L212.7,334.9z"/>
	</g>
	<g>
		<path d="M211.3,100.7c-1.3,0-2.4-0.5-3.2-1.5c-0.7-0.9-1.5-2.7-0.7-5.8c1.1-4.8,5.4-10.8,9.9-12.2c0.6-0.2,1.1-0.3,1.6-0.3
			c1.4,0,2.6,0.6,3.3,1.7c1.2,1.7,1.1,4.5-0.1,7.7c-1.7,4.2-5.1,8.3-8.3,9.7C212.9,100.5,212.1,100.7,211.3,100.7L211.3,100.7z"/>
		<path class="st0" d="M218.9,83c2.3,0,2.8,2.9,1.3,6.7c-1.5,3.8-4.6,7.4-7.3,8.6c-0.6,0.3-1.2,0.4-1.7,0.4c-1.8,0-2.7-1.7-2-4.8
			c1.1-4.6,5.1-9.7,8.6-10.7C218.2,83.1,218.6,83,218.9,83 M218.9,79c-0.7,0-1.4,0.1-2.2,0.3c-5.4,1.6-10.1,8.3-11.3,13.7
			c-0.9,3.9,0.1,6.2,1.1,7.5c1.2,1.5,2.8,2.3,4.8,2.3c1.1,0,2.2-0.3,3.4-0.8c3.6-1.7,7.5-6.1,9.3-10.8c1.5-3.8,1.5-7.2-0.1-9.5
			C222.7,79.9,220.9,79,218.9,79L218.9,79z"/>
	</g>
	<path class="st1" d="M318.4,162.1"/>
	<path class="st1" d="M246.3,108.4"/>
	<g>
		<path d="M266.8,130.7c-0.8,0-1.7-0.2-2.5-0.6c-3.2-1.4-6.7-5.5-8.3-9.7c-1.3-3.2-1.3-5.9-0.1-7.7c0.8-1.1,1.9-1.7,3.3-1.7
			c0.5,0,1.1,0.1,1.6,0.3c4.5,1.4,8.8,7.4,9.9,12.2c0.7,3.1,0,4.8-0.7,5.8C269.3,130.2,268.1,130.7,266.8,130.7z"/>
		<path class="st0" d="M259.2,113c0.3,0,0.7,0.1,1.1,0.2c3.5,1,7.5,6.2,8.6,10.7c0.7,3.1-0.2,4.8-2,4.8c-0.5,0-1.1-0.1-1.7-0.4
			c-2.7-1.2-5.8-4.9-7.3-8.6C256.4,115.9,256.9,113,259.2,113 M259.2,109L259.2,109c-2,0-3.9,0.9-5,2.6c-1.6,2.3-1.6,5.7-0.1,9.5
			c1.9,4.7,5.7,9.1,9.3,10.8c1.1,0.5,2.3,0.8,3.4,0.8c1.9,0,3.6-0.8,4.8-2.3c1-1.3,2-3.6,1.1-7.5c-1.3-5.3-5.9-12-11.3-13.7
			C260.6,109.1,259.9,109,259.2,109L259.2,109z"/>
	</g>
	<path class="st1" d="M318.4,152"/>
	<path class="st1" d="M244.3,96.4"/>
	<g>
		<path d="M308.8,153.7c-0.8,0-1.7-0.2-2.5-0.6c-3.2-1.4-6.7-5.5-8.3-9.7c-1.3-3.2-1.3-5.9-0.1-7.7c0.8-1.1,1.9-1.7,3.3-1.7
			c0.5,0,1.1,0.1,1.6,0.3c4.5,1.4,8.8,7.4,9.9,12.2c0.7,3.1,0,4.8-0.7,5.8C311.3,153.2,310.1,153.7,308.8,153.7z"/>
		<path class="st0" d="M301.2,136c0.3,0,0.7,0.1,1.1,0.2c3.5,1,7.5,6.2,8.6,10.7c0.7,3.1-0.2,4.8-2,4.8c-0.5,0-1.1-0.1-1.7-0.4
			c-2.7-1.2-5.8-4.9-7.3-8.6C298.4,138.9,298.9,136,301.2,136 M301.2,132L301.2,132c-2,0-3.9,0.9-5,2.6c-1.6,2.3-1.6,5.7-0.1,9.5
			c1.9,4.7,5.7,9.1,9.3,10.8c1.1,0.5,2.3,0.8,3.4,0.8c1.9,0,3.6-0.8,4.8-2.3c1-1.3,2-3.6,1.1-7.5c-1.3-5.3-5.9-12-11.3-13.7
			C302.6,132.1,301.9,132,301.2,132L301.2,132z"/>
	</g>
	<path class="st1" d="M320.1,163.5"/>
	<path class="st1" d="M279.2,132.9"/>
	<g>
		<path d="M326.6,358.4c-0.5,0-1-0.1-1.6-0.2c-4.6-1.1-9.3-6.6-10.9-12.9c-1-3.8-0.6-7.2,1-9.3c1.1-1.4,2.6-2.1,4.4-2.1
			c0.6,0,1.2,0.1,1.9,0.3c4.8,1.3,9.6,7.4,10.9,13.8c0.7,3.5,0.2,6.4-1.3,8.4C329.9,357.7,328.3,358.4,326.6,358.4z"/>
		<path class="st0" d="M319.5,335.9c0.4,0,0.9,0.1,1.3,0.2c4.1,1.1,8.3,6.7,9.4,12.3c1,4.7-0.7,8-3.7,8c-0.4,0-0.7,0-1.1-0.1
			c-3.8-0.9-8-5.9-9.4-11.4C314.7,339.7,316.3,335.9,319.5,335.9 M319.5,331.9L319.5,331.9c-2.4,0-4.5,1-6,2.9
			c-2,2.6-2.5,6.5-1.3,11c1.8,6.9,7.1,13.1,12.4,14.3c0.7,0.2,1.4,0.2,2,0.2c2.3,0,4.4-1,5.9-2.8c2-2.4,2.6-5.9,1.8-10
			c-1.5-7.2-6.8-13.8-12.3-15.4C321.1,332,320.3,331.9,319.5,331.9L319.5,331.9z"/>
	</g>
</g>
</svg>
