<?xml version="1.0" encoding="utf-8"?>
<!-- Generator: Adobe Illustrator 19.2.0, SVG Export Plug-In . SVG Version: 6.00 Build 0)  -->
<svg version="1.1" xmlns="http://www.w3.org/2000/svg" xmlns:xlink="http://www.w3.org/1999/xlink" x="0px" y="0px"
	 viewBox="0 0 477.5 477.5" style="enable-background:new 0 0 477.5 477.5;" xml:space="preserve">
<style type="text/css">
	.st0{display:none;}
	.st1{display:inline;fill:#FFFFFF;}
	.st2{display:inline;}
	.st3{display:inline;fill:#FFFFFF;stroke:#000000;stroke-width:8;stroke-miterlimit:10;}
	.st4{fill:#FFFFFF;}
	.st5{display:inline;fill:#FFFFFF;stroke:#000000;stroke-miterlimit:10;}
	.st6{display:inline;fill:#CCCCCC;}
	.st7{display:inline;fill:#FFFFFF;stroke:#999999;stroke-miterlimit:10;}
	.st8{display:inline;fill:none;stroke:#000000;stroke-miterlimit:10;}
	.st9{font-family:'HelveticaNeue';}
	.st10{font-size:17.5133px;}
	.st11{font-family:'PoiretOne-Regular';}
	.st12{font-size:20px;}
	.st13{letter-spacing:-1;}
	.st14{display:inline;fill:#D0D2D3;}
	.st15{display:inline;fill:#FFFFFF;stroke:#A6A8AB;stroke-miterlimit:10;}
	.st16{display:inline;fill:none;stroke:#231F20;stroke-miterlimit:10;}
	.st17{display:inline;fill:none;stroke:#CCCCCC;stroke-width:5;stroke-miterlimit:10;}
	.st18{display:inline;fill:none;stroke:#000000;stroke-width:8;stroke-miterlimit:10;}
	.st19{fill:none;stroke:#000000;stroke-width:8;stroke-miterlimit:10;}
	.st20{fill:#FFFFFF;stroke:#000000;stroke-width:8;stroke-miterlimit:10;}
	.st21{display:none;fill:url(#SVGID_1_);}
	.st22{display:none;fill:url(#SVGID_2_);}
</style>
<g id="Hyperlapse" class="st0">
	<g>
		<path class="st1" d="M175.4,428.7l-8.6-8.9c-1.3-1.4-3.1-2.1-5-2.1h-59.4l-8.1-8v-92.9l8.3-8.2h7.9c1.9,0,3.6-0.7,4.9-2l7-7h20.8
			c3.9,0,7-3.1,7-7v-6.3c0-1.9-0.7-3.6-2-4.9l-14.7-14.7c-1.3-1.3-3.1-2.1-5-2.1h-5.3V113.7c3.4-0.5,6-3.4,6-6.9v-5.3
			c0-1.9-0.7-3.6-2.1-5l-3.9-3.9V80.7h163v8.8l-3.9,3.7c-1.4,1.3-2.1,3.1-2.1,5v4.4c0,3.5,2.6,6.4,6,6.9v155.1H282
			c-1.8,0-3.6,0.7-4.9,2l-11.7,11.4c-1.4,1.3-2.1,3.1-2.1,5v5.6c0,3.9,3.1,7,7,7h22.3c1.8,0,3.6-0.7,4.9-2l25.4-25h36.3l22,22
			l2.2,41.6v65.2l-15.6,15.2H330c-1.9,0-3.7,0.8-5,2.1l-10.5,10.9h-27.1l-7.2-7c-1.3-1.3-3.1-2-4.9-2H252c-1.9,0-3.6,0.7-5,2.1
			l-9.9,9.9H175.4z"/>
		<path class="st2" d="M282.2,84.7v3.1l-2.6,2.5c-2.1,2.1-3.4,4.9-3.4,7.9v4.4c0,4.3,2.4,8,6,9.8v148.2H282c-2.9,0-5.6,1.1-7.7,3.1
			l-11.7,11.4c-2.1,2.1-3.3,4.9-3.3,7.9v5.6c0,6.1,4.9,11,11,11h22.3c2.9,0,5.6-1.1,7.7-3.2l24.2-23.8h33l19.7,19.7l2.1,40v63.4
			L366,408.7h-36c-3,0-5.8,1.2-7.9,3.3l-9.4,9.7H289l-6-5.9c-2.1-2-4.8-3.1-7.7-3.1H252c-2.9,0-5.7,1.2-7.8,3.2l-8.7,8.8h-58.3
			l-7.4-7.7c-2.1-2.1-4.9-3.3-7.9-3.3H104l-5.8-5.6v-89.5l6-5.9h6.3c2.9,0,5.7-1.1,7.8-3.2l5.8-5.8h19.1c6.1,0,11-4.9,11-11v-6.3
			c0-2.9-1.1-5.7-3.2-7.8L136.3,264c-2-2.1-4.9-3.2-7.8-3.2h-1.3V116.5c3.6-1.8,6-5.5,6-9.8v-5.3c0-2.9-1.1-5.7-3.2-7.8l-2.8-2.8
			v-6.2H282.2 M287.2,76.7h-165c-1.7,0-3,1.3-3,3V93c0,0.8,0.3,1.6,0.9,2.1l4.2,4.2c0.6,0.6,0.9,1.3,0.9,2.1v5.3c0,1.7-1.3,3-3,3
			s-3,1.3-3,3v153c0,1.7,1.3,3,3,3h6.3c0.8,0,1.6,0.3,2.1,0.9l14.7,14.7c0.6,0.6,0.9,1.3,0.9,2.1v6.3c0,1.7-1.3,3-3,3H122
			c-0.8,0-1.6,0.3-2.1,0.9l-7.3,7.3c-0.6,0.6-1.3,0.9-2.1,0.9h-8.3c-0.8,0-1.5,0.3-2.1,0.9l-8.9,8.8c-0.6,0.6-0.9,1.3-0.9,2.1v93.7
			c0,0.8,0.3,1.6,0.9,2.1l8.7,8.5c0.6,0.5,1.3,0.9,2.1,0.9h59.8c0.8,0,1.6,0.3,2.2,0.9l8.9,9.2c0.6,0.6,1.3,0.9,2.2,0.9h62.5
			c0.8,0,1.6-0.3,2.1-0.9l10.2-10.2c0.6-0.6,1.3-0.9,2.1-0.9h23.3c0.8,0,1.5,0.3,2.1,0.9l7.5,7.3c0.6,0.5,1.3,0.9,2.1,0.9h27.9
			c0.8,0,1.6-0.3,2.2-0.9l10.8-11.2c0.6-0.6,1.3-0.9,2.2-0.9h38.1c0.8,0,1.5-0.3,2.1-0.9l16.2-15.8c0.6-0.6,0.9-1.3,0.9-2.1v-65.7
			l-2.2-42.1c0-0.7-0.4-1.4-0.9-2l-22.6-22.6c-0.6-0.6-1.3-0.9-2.1-0.9h-37.1c-0.8,0-1.5,0.3-2.1,0.9l-25.7,25.3
			c-0.6,0.6-1.3,0.9-2.1,0.9h-22.3c-1.7,0-3-1.3-3-3v-5.6c0-0.8,0.3-1.6,0.9-2.2l11.7-11.4c0.6-0.5,1.3-0.8,2.1-0.8h5.3
			c1.7,0,3-1.3,3-3v-157c0-1.7-1.3-3-3-3s-3-1.3-3-3v-4.4c0-0.8,0.3-1.6,0.9-2.2l4.2-4c0.6-0.6,0.9-1.3,0.9-2.2V79.7
			C290.2,78.1,288.9,76.7,287.2,76.7L287.2,76.7z"/>
	</g>
	<g>
		<path class="st3" d="M385.2,175.2V352c0,3.3-1.4,6.4-3.8,8.7l-0.2,0.2c-2.2,2.1-5.1,3.3-8.2,3.3H104.4c-3.3,0-6.4-1.4-8.7-3.8
			l-0.2-0.2c-2.1-2.2-3.3-5.1-3.3-8.2V175.4c0-3.3,1.4-6.4,3.7-8.7l0.2-0.2c2.2-2.1,5.2-3.3,8.2-3.3h268.9c3.2,0,6.2,1.3,8.4,3.5h0
			C384,168.9,385.2,172,385.2,175.2z"/>
		<g class="st2">
			<g>
				<path d="M254.2,260.9c-0.6,1.8-1.4,3.6-2.7,5.5c-1.9,2.8-3.8,4.2-5.6,4.2c-0.7,0-1.8-0.2-3.2-0.7c-1.4-0.5-2.5-0.7-3.2-0.7
					s-1.8,0.2-3.1,0.7c-1.3,0.5-2.3,0.7-3,0.7c-2.6,0-5-2.2-7.1-6.6c-1.8-3.8-2.7-7.1-2.7-10.1c0-3,0.7-5.5,2.1-7.6
					c1.6-2.5,3.8-3.7,6.6-3.7c0.9,0,2.1,0.2,3.7,0.7c1.6,0.4,2.6,0.7,3.2,0.7c0.7,0,1.8-0.2,3.3-0.7c1.5-0.5,2.7-0.7,3.6-0.7
					c2.7,0,5,1.2,7,3.6c-1.1,1-2,1.9-2.5,2.6c-1,1.3-1.4,2.8-1.4,4.5c0,1.6,0.5,3.2,1.4,4.6C251.5,259.4,252.7,260.4,254.2,260.9z
					 M246,235.1c0,1.5-0.5,3-1.5,4.5c-1,1.6-2.2,2.6-3.6,3.1c-0.4,0.1-1.2,0.3-2.2,0.4c0.1-4.8,2.5-7.8,7.2-8.9
					C245.9,234.5,246,234.8,246,235.1z"/>
			</g>
		</g>
	</g>
	<g>
		<path class="st1" d="M244.5,439.2l-8.6-8.8v-5.8l-1.8,2.1H221l-10-10.2v-59.4l-4.4-4.3v-44.6l4.4-4.2V139.1c0-3.9,3.2-7.1,7.1-7.1
			h6.2v-12.7l5.1-5.3V68.1h10.3v-9.6h-13.1l-3.6,3.7h-8.4v7.4H199c-3.9,0-7.1-3.2-7.1-7.1V48.7c0-3.9,3.2-7.1,7.1-7.1h14.9v6.6h2.3
			V45c0-3.9,3.2-7.1,7.1-7.1H267c3.9,0,7.1,3.2,7.1,7.1v13.4h-16.9v9.6h10.3v16.2h9.8l3.4,3.4v21.2l-3.5,5.4h-7.6l2.2,2.4v13.7
			l9.2,0.1c3.8,0,7,3.2,7,7.1V306l5.1,5v43.2l-4.4,4.3v63.1l-8.3,9.5h-8.7l-8-7.8v9.3l-5.4,6.6H244.5z M261,415.1V312.7l4.4-4.5V168
			l-0.8,0l0,137l-5.1,5.1v103.4L261,415.1z M241,410.1L241,410.1l0.1-100l-0.1-0.1V410.1z M235.3,303.2V167.3V303.2L235.3,303.2z"/>
		<path class="st2" d="M267,41.9c1.7,0,3.1,1.4,3.1,3.1v9.4h-16.9v17.6h10.3v22.8h2.9v-5.5l1.8-1.1h7.4l1.1,1.1v18.4l-1.6,2.6h-5.3
			l-3.3-3v-5.8h-2.9v12.1l4.4,4.7v9.7c-2.8,0-4.1,4.5-2.1,6.4l15.2,0.2c1.7,0,3.1,1.4,3.1,3.1v170l5.1,5v39.8l-4.4,4.3v63.3l-6.2,7
			h-5.2l-8.5-8.3V314.3l4.4-4.5V168c0-2.2-1.8-4-4-4h-0.7c-2.2,0-4,1.8-4,4v135.3l-5.1,5.1V415l4.4,4.7v11.4l-3.3,4h-10.3l-6.2-6.5
			v-12.3l5.1-4.8V308.4l-5.9-6.1v-135c0-2.2-1.8-4-4-4h0c-2.2,0-4,1.8-4,4v137.5l5.9,5.8v106.7l-4.7,5.5h-9.6l-7.7-7.8v-59.5
			l-4.4-4.3v-41.2l4.4-4.2V139.1c0-1.7,1.4-3.1,3.1-3.1h12.7l0.6-0.6c2-1.9,0.7-5.3-2.1-5.3h-1.1V121l5.1-5.3V72.1h10.3V54.4h-18.7
			l-3.6,3.7h-10.8v7.4H199c-1.7,0-3.1-1.4-3.1-3.1V48.7c0-1.7,1.4-3.1,3.1-3.1h10.9v6.6h10.3V45c0-1.7,1.4-3.1,3.1-3.1H267
			 M267,33.9h-43.8c-3.3,0-6.2,1.4-8.2,3.7h-5.1H199c-6.1,0-11.1,5-11.1,11.1v13.7c0,6.1,5,11.1,11.1,11.1h11.6h8v-7.4h2.8h3.4
			l0.7-0.7v6.6v40.3l-2.9,3l-2.2,2.3v3.2v7.1h-2.2c-6.1,0-11.1,5-11.1,11.1v163.2l-1.9,1.8l-2.5,2.4v3.4v41.2v3.3l2.4,2.3l2,2v56.1
			v3.3l2.3,2.3l7.7,7.8l2.3,2.4h3.3h9.3v1.3l2.3,2.3l6.2,6.5l2.4,2.4h3.4h10.3h3.8l2.4-2.9l3.3-4l1.8-2.2v-1.2l2.3,2.3h3.3h5.2h3.6
			l2.4-2.7l6.2-7l2-2.3v-3v-59.9l2-2l2.4-2.4v-3.3v-39.8v-3.4l-2.4-2.4l-2.7-2.7V137.6c0-6.1-4.9-11-11-11.1l-5.2-0.1v-8.2h3.6
			l2.4-3.7l1.6-2.6l1.3-2v-2.3V89.4V86l-2.3-2.3l-1.1-1.1l-2.3-2.3h-3.3h-4.1v-8.2v-8h-8h-2.3v-1.6h8.9h8v-8V45
			C278.1,38.9,273.2,33.9,267,33.9L267,33.9z M228.3,62.4h7.4v1.6h-2.3h-6.7l0.4-0.4L228.3,62.4L228.3,62.4z"/>
	</g>
</g>
<g id="Mini_Slider">
	<g id="Graphic_1" class="st0">
		<g class="st2">
			<polygon class="st4" points="130.7,404 149.7,74.7 299,72.3 347,404 			"/>
			<path d="M296.8,74.9l47.3,326.7H133.4L152,77.2L296.8,74.9 M301.2,69.8l-153.9,2.5l-19.2,334.3h221.8L301.2,69.8L301.2,69.8z"/>
		</g>
		<g class="st2">
			<polygon class="st4" points="132.4,416.5 131.1,409 346.9,409 345.6,416.5 			"/>
			<path d="M343.9,411.5l-0.4,2.4h-209l-0.4-2.4H343.9 M349.9,406.5H128.1l2.2,12.4h217.3L349.9,406.5L349.9,406.5z"/>
		</g>
		<g class="st2">
			<path d="M173.2,341.5c-7.8,0-14.1-5.3-14.1-11.9s6.3-11.9,14.1-11.9s14.1,5.3,14.1,11.9S181,341.5,173.2,341.5z"/>
			<path d="M173.2,318.7c7.2,0,13.1,4.9,13.1,10.9s-5.9,10.9-13.1,10.9c-7.2,0-13.1-4.9-13.1-10.9S166,318.7,173.2,318.7
				 M173.2,316.7c-8.3,0-15.1,5.8-15.1,12.9s6.8,12.9,15.1,12.9c8.3,0,15.1-5.8,15.1-12.9S181.6,316.7,173.2,316.7L173.2,316.7z"/>
		</g>
		<g class="st2">
			<path d="M230.1,224.5c-9.7,0-17.6-6.2-17.6-13.7s7.9-13.7,17.6-13.7c9.7,0,17.6,6.2,17.6,13.7S239.8,224.5,230.1,224.5z"/>
			<path d="M230.1,198c9.2,0,16.6,5.7,16.6,12.7c0,7-7.4,12.7-16.6,12.7s-16.6-5.7-16.6-12.7C213.5,203.7,220.9,198,230.1,198
				 M230.1,196c-10.3,0-18.6,6.6-18.6,14.7c0,8.1,8.3,14.7,18.6,14.7s18.6-6.6,18.6-14.7C248.7,202.6,240.4,196,230.1,196L230.1,196
				z"/>
		</g>
		<g class="st2">
			<path d="M179.1,120.7c-5.4,0-9.7-3.2-9.7-7.1s4.4-7.1,9.7-7.1s9.7,3.2,9.7,7.1S184.4,120.7,179.1,120.7z"/>
			<path d="M179.1,107.5c4.8,0,8.7,2.7,8.7,6.1s-3.9,6.1-8.7,6.1s-8.7-2.7-8.7-6.1S174.2,107.5,179.1,107.5 M179.1,105.5
				c-6,0-10.7,3.6-10.7,8.1s4.7,8.1,10.7,8.1s10.7-3.6,10.7-8.1S185.1,105.5,179.1,105.5L179.1,105.5z"/>
		</g>
		<g class="st2">
			<path d="M276.1,120.7c-5.4,0-9.7-3.2-9.7-7.1s4.4-7.1,9.7-7.1s9.7,3.2,9.7,7.1S281.4,120.7,276.1,120.7z"/>
			<path d="M276.1,107.5c4.8,0,8.7,2.7,8.7,6.1s-3.9,6.1-8.7,6.1s-8.7-2.7-8.7-6.1S271.2,107.5,276.1,107.5 M276.1,105.5
				c-6,0-10.7,3.6-10.7,8.1s4.7,8.1,10.7,8.1s10.7-3.6,10.7-8.1S282.1,105.5,276.1,105.5L276.1,105.5z"/>
		</g>
		<path class="st5" d="M245.4,215.7c-2.5,4.6-8.4,7.7-15.3,7.7c-6.8,0-12.7-3.2-15.3-7.7l0,0c2.5-4.6,8.4-7.8,15.3-7.8
			C236.9,208,242.8,211.2,245.4,215.7"/>
		<path class="st5" d="M161.1,333.6c1.9,4,6.6,6.9,12.2,6.9c5.2,0,9.7-2.6,11.8-6.2c0.1-0.2,0.2-0.4,0.3-0.6
			c-0.2-0.4-0.4-0.8-0.7-1.2c-2.2-3.4-6.5-5.7-11.5-5.7c-5.1,0-9.4,2.4-11.6,5.9C161.4,332.9,161.2,333.3,161.1,333.6z"/>
		<g class="st2">
			<path d="M297.2,341.5c-7.8,0-14.1-5.3-14.1-11.9s6.3-11.9,14.1-11.9s14.1,5.3,14.1,11.9S305,341.5,297.2,341.5z"/>
			<path d="M297.2,318.7c7.2,0,13.1,4.9,13.1,10.9s-5.9,10.9-13.1,10.9c-7.2,0-13.1-4.9-13.1-10.9S290,318.7,297.2,318.7
				 M297.2,316.7c-8.3,0-15.1,5.8-15.1,12.9s6.8,12.9,15.1,12.9c8.3,0,15.1-5.8,15.1-12.9S305.6,316.7,297.2,316.7L297.2,316.7z"/>
		</g>
		<path class="st5" d="M285.1,333.6c1.9,4,6.6,6.9,12.2,6.9c5.2,0,9.7-2.6,11.8-6.2c0.1-0.2,0.2-0.4,0.3-0.6
			c-0.2-0.4-0.4-0.8-0.7-1.2c-2.2-3.4-6.5-5.7-11.5-5.7c-5.1,0-9.4,2.4-11.6,5.9C285.4,332.9,285.2,333.3,285.1,333.6z"/>
	</g>
	<g id="Drill_Sheet_1" class="st0">
		<rect x="11.5" y="62" class="st6" width="149.2" height="361.4"/>
		<circle class="st7" cx="40.9" cy="125.1" r="8.4"/>
		<circle class="st7" cx="131.2" cy="125.1" r="8.4"/>
		<circle class="st7" cx="40.9" cy="360.5" r="8.4"/>
		<circle class="st7" cx="131.2" cy="360.5" r="8.4"/>
		<circle class="st7" cx="86.1" cy="242.7" r="12.6"/>
		<polyline class="st8" points="160.7,125.1 131.2,125.1 131.2,62 		"/>
		<polyline class="st8" points="11.5,125.1 40.9,125.1 40.9,62 		"/>
		<polyline class="st8" points="160.7,360.5 131.2,360.5 131.2,423.4 		"/>
		<polyline class="st8" points="160.7,242.7 86.1,242.7 86.1,423.4 		"/>
		<polyline class="st8" points="40.9,423.4 40.9,360.5 11.5,360.5 		"/>
		<text transform="matrix(1 0 0 1 141.0728 122.7798)" class="st2 st9 st10">5</text>
		<text transform="matrix(1 0 0 1 141.0728 358.1982)" class="st2 st9 st10">5</text>
		<text transform="matrix(1 0 0 1 21.9077 122.7798)" class="st2 st9 st10">5</text>
		<text transform="matrix(1 0 0 1 21.9077 358.1982)" class="st2 st9 st10">5</text>
		<text transform="matrix(1 0 0 1 105.7984 239.5562)" class="st2 st9 st10">17,7</text>
		<text transform="matrix(4.489660e-11 -1 1 4.489660e-11 128.0347 407.3193)" class="st2 st9 st10">13</text>
		<text transform="matrix(4.489660e-11 -1 1 4.489660e-11 128.0357 103.4321)" class="st2 st9 st10">13</text>
		<text transform="matrix(4.489660e-11 -1 1 4.489660e-11 37.1763 103.4321)" class="st2 st9 st10">13</text>
		<text transform="matrix(4.489660e-11 -1 1 4.489660e-11 37.1773 407.3193)" class="st2 st9 st10">13</text>
		<text transform="matrix(4.489660e-11 -1 1 4.489660e-11 81.6558 342.9473)" class="st2 st9 st10">43</text>
		<text transform="matrix(1 0 0 1 34.7607 42.4648)" class="st2"><tspan x="0" y="0" class="st11 st12 st13">T</tspan><tspan x="7.2" y="0" class="st11 st12">op P</tspan><tspan x="45.9" y="0" class="st11 st12">l</tspan><tspan x="50.5" y="0" class="st11 st12">ate</tspan></text>
	</g>
	<g id="Drill_Sheet_2" class="st0">
		<polyline class="st14" points="205.8,294 205.8,182.7 248.4,182.7 248.4,116.4 205.8,116.4 205.8,61.8 329.8,61.8 329.8,423.2 
			205.8,423.2 205.8,360.3 248.4,360.3 248.4,294 205.8,294 		"/>
		<rect x="341.4" y="61.8" class="st14" width="124" height="361.4"/>
		<circle class="st15" cx="296.1" cy="95.4" r="8.4"/>
		<circle class="st15" cx="296.1" cy="389.5" r="8.4"/>
		<circle class="st15" cx="375.1" cy="137.4" r="8.4"/>
		<circle class="st15" cx="375.1" cy="347.5" r="8.4"/>
		<circle class="st15" cx="436" cy="360.1" r="8.4"/>
		<circle class="st15" cx="436" cy="124.8" r="8.4"/>
		<polyline class="st16" points="329.8,95.4 296.1,95.4 296.1,61.8 		"/>
		<polyline class="st16" points="329.8,389.5 296.1,389.5 296.1,423.2 		"/>
		<polyline class="st16" points="341.4,347.5 375.1,347.5 375.1,423.4 		"/>
		<polyline class="st16" points="436,423.2 436,360.1 465.4,360.1 		"/>
		<polyline class="st16" points="465.4,124.8 436,124.8 436,61.8 		"/>
		<polyline class="st16" points="375.1,61.8 375.1,137.4 341.4,137.4 		"/>
		<text transform="matrix(1 0 0 1 445.809 356.9753)" class="st2 st9 st10">7</text>
		<text transform="matrix(-1.346898e-10 -1 1 -1.346898e-10 429.8908 401.5361)" class="st2 st9 st10">15</text>
		<text transform="matrix(1 0 0 1 445.8088 120.7634)" class="st2 st9 st10">7</text>
		<text transform="matrix(-1.346898e-10 -1 1 -1.346898e-10 429.8908 108.2432)" class="st2 st9 st10">15</text>
		<text transform="matrix(-1.346898e-10 -1 1 -1.346898e-10 371.8543 108.2432)" class="st2 st9 st10">18</text>
		<text transform="matrix(-1.346898e-10 -1 1 -1.346898e-10 371.8543 398.415)" class="st2 st9 st10">18</text>
		<text transform="matrix(1 0 0 1 355.7523 342.9665)" class="st2 st9 st10">8</text>
		<text transform="matrix(1 0 0 1 355.7523 132.8342)" class="st2 st9 st10">8</text>
		<text transform="matrix(1 0 0 1 309.8381 91.3276)" class="st2 st9 st10">8</text>
		<text transform="matrix(4.489659e-11 -1 1 4.489659e-11 292.1581 82.0694)" class="st2 st9 st10">8</text>
		<text transform="matrix(1 0 0 1 309.8381 385.5128)" class="st2 st9 st10">8</text>
		<text transform="matrix(4.489659e-11 -1 1 4.489659e-11 292.1581 412.2647)" class="st2 st9 st10">8</text>
		<text transform="matrix(1 0 0 1 300.782 42.4648)" class="st2"><tspan x="0" y="0" class="st11 st12">“L” P</tspan><tspan x="37.8" y="0" class="st11 st12">l</tspan><tspan x="42.4" y="0" class="st11 st12">ate</tspan></text>
		<g class="st2">
		</g>
	</g>
	<g id="Graphic_2" class="st0">
		<g class="st2">
			<polygon class="st4" points="239.7,370.1 239.7,49.9 317.3,115.1 348.9,420.3 			"/>
			<path d="M240.7,52l75.6,63.5l31.4,303.1l-107-49.2V51.7 M238.7,47.7v323l111.4,51.2l-31.9-307.3L238.7,47.7L238.7,47.7z"/>
		</g>
		<g class="st2">
			<polygon class="st4" points="133.1,376.9 175.3,353.4 178.1,282.4 140.6,304.9 152.1,194.4 188,165 188.6,117.8 157.4,143.6 
				160.4,115.1 237.7,49.9 237.7,370.1 128.6,420.3 			"/>
			<path d="M236.7,51.7v317.7l-106.9,49.2l4.3-41.1l41.2-23l1-0.5l0-1.1l2.7-68.6l0.1-3.7l-3.2,1.9L141.8,303l11.2-108.1l35.2-28.8
				l0.7-0.6l0-0.9l0.6-44.6l0.1-4.3l-3.3,2.8l-27.7,22.9l2.7-25.7l75.4-63.7 M238.7,47.7l-79.3,66.8l-3.3,31.4l31.5-26l-0.6,44.6
				l-35.8,29.3l-11.7,112.9l37.6-22.6l-2.7,68.6l-42.2,23.5l-4.7,45.6l111.3-51.2V47.7L238.7,47.7z"/>
		</g>
		<g class="st2">
			<polygon class="st4" points="129.3,422.2 238.7,371.8 348.4,422.2 343.2,427.3 238.7,379.6 135.3,427.4 			"/>
			<path d="M238.7,372.9l107.9,49.6l-3.6,3.6l-103.5-47.3l-0.8-0.4l-0.8,0.4l-102.4,47.3l-4.4-3.8L238.7,372.9 M238.7,370.7
				l-111.3,51.2l7.7,6.6l103.6-47.9l104.7,47.9l6.6-6.6L238.7,370.7L238.7,370.7z"/>
		</g>
		<g class="st2">
			<polygon class="st4" points="141.3,306.8 177.5,284.8 177.1,291.2 145.5,309.8 			"/>
			<path d="M176.4,286.6l-0.3,3.9l-30.6,18l-2.4-1.7L176.4,286.6 M178.7,282.9l-39.3,23.9l6,4.2l32.6-19.2L178.7,282.9L178.7,282.9z
				"/>
		</g>
		<g class="st2">
			<polygon class="st4" points="157.8,145.9 188.4,120.2 188.3,127.2 162.3,148.7 			"/>
			<path d="M187.4,122.4l0,4.3l-25.1,20.8l-2.7-1.8L187.4,122.4 M189.4,118.1L156.1,146l6.3,4l26.9-22.3L189.4,118.1L189.4,118.1z"
				/>
		</g>
		<g class="st2">
			<path d="M274.6,313.4c-0.5,0-1-0.1-1.6-0.2c-4.6-1.1-9.3-6.6-10.9-12.9c-1-3.8-0.6-7.2,1-9.3c1.1-1.4,2.6-2.1,4.4-2.1
				c0.6,0,1.2,0.1,1.9,0.3c4.8,1.3,9.6,7.4,10.9,13.8c0.7,3.5,0.2,6.4-1.3,8.4C277.9,312.7,276.3,313.4,274.6,313.4z"/>
			<path class="st4" d="M267.5,290.9c0.4,0,0.9,0.1,1.3,0.2c4.1,1.1,8.3,6.7,9.4,12.3c1,4.7-0.7,8-3.7,8c-0.4,0-0.7,0-1.1-0.1
				c-3.8-0.9-8-5.9-9.4-11.4C262.7,294.7,264.3,290.9,267.5,290.9 M267.5,286.9L267.5,286.9c-2.4,0-4.5,1-6,2.9
				c-2,2.6-2.5,6.5-1.3,11c1.8,6.9,7.1,13.1,12.4,14.3c0.7,0.2,1.4,0.2,2,0.2c2.3,0,4.4-1,5.9-2.8c2-2.4,2.6-5.9,1.8-10
				c-1.5-7.2-6.8-13.8-12.3-15.4C269.1,287,268.3,286.9,267.5,286.9L267.5,286.9z"/>
		</g>
		<g class="st2">
			<path d="M204.6,359.4c-1.7,0-3.2-0.7-4.3-2c-1.6-1.9-2-4.9-1.3-8.4c1.3-6.4,6.1-12.5,10.9-13.8c0.6-0.2,1.3-0.3,1.9-0.3
				c1.8,0,3.3,0.8,4.4,2.1c1.6,2.1,2,5.5,1,9.3c-1.6,6.3-6.3,11.8-10.9,12.9C205.6,359.3,205.1,359.4,204.6,359.4z"/>
			<path class="st4" d="M211.7,336.9c3.3,0,4.8,3.7,3.5,8.9c-1.4,5.5-5.7,10.5-9.4,11.4c-0.4,0.1-0.8,0.1-1.1,0.1
				c-3,0-4.6-3.2-3.7-8c1.1-5.6,5.3-11.2,9.4-12.3C210.8,337,211.2,336.9,211.7,336.9 M211.7,332.9c-0.8,0-1.6,0.1-2.4,0.3
				c-5.6,1.5-10.9,8.1-12.3,15.4c-0.8,4.1-0.2,7.6,1.8,10c1.5,1.8,3.5,2.8,5.9,2.8c0.7,0,1.3-0.1,2-0.2c5.3-1.2,10.6-7.4,12.4-14.3
				c1.2-4.5,0.7-8.4-1.3-11C216.2,334,214.1,332.9,211.7,332.9L211.7,332.9z"/>
		</g>
		<g class="st2">
			<path d="M210.3,98.7c-1.3,0-2.4-0.5-3.2-1.5c-0.7-0.9-1.5-2.7-0.7-5.8c1.1-4.8,5.4-10.8,9.9-12.2c0.6-0.2,1.1-0.3,1.6-0.3
				c1.4,0,2.6,0.6,3.3,1.7c1.2,1.7,1.1,4.5-0.1,7.7c-1.7,4.2-5.1,8.3-8.3,9.7C211.9,98.5,211.1,98.7,210.3,98.7L210.3,98.7z"/>
			<path class="st4" d="M217.9,81c2.3,0,2.8,2.9,1.3,6.7c-1.5,3.8-4.6,7.4-7.3,8.6c-0.6,0.3-1.2,0.4-1.7,0.4c-1.8,0-2.7-1.7-2-4.8
				c1.1-4.6,5.1-9.7,8.6-10.7C217.2,81.1,217.6,81,217.9,81 M217.9,77c-0.7,0-1.4,0.1-2.2,0.3c-5.4,1.6-10.1,8.3-11.3,13.7
				c-0.9,3.9,0.1,6.2,1.1,7.5c1.2,1.5,2.8,2.3,4.8,2.3c1.1,0,2.2-0.3,3.4-0.8c3.6-1.7,7.5-6.1,9.3-10.8c1.5-3.8,1.5-7.2-0.1-9.5
				C221.7,77.9,219.9,77,217.9,77L217.9,77z"/>
		</g>
		<path class="st17" d="M317.4,160.1"/>
		<path class="st17" d="M245.3,106.4"/>
		<g class="st2">
			<path d="M265.8,128.7c-0.8,0-1.7-0.2-2.5-0.6c-3.2-1.4-6.7-5.5-8.3-9.7c-1.3-3.2-1.3-5.9-0.1-7.7c0.8-1.1,1.9-1.7,3.3-1.7
				c0.5,0,1.1,0.1,1.6,0.3c4.5,1.4,8.8,7.4,9.9,12.2c0.7,3.1,0,4.8-0.7,5.8C268.3,128.2,267.1,128.7,265.8,128.7z"/>
			<path class="st4" d="M258.2,111c0.3,0,0.7,0.1,1.1,0.2c3.5,1,7.5,6.2,8.6,10.7c0.7,3.1-0.2,4.8-2,4.8c-0.5,0-1.1-0.1-1.7-0.4
				c-2.7-1.2-5.8-4.9-7.3-8.6C255.4,113.9,255.9,111,258.2,111 M258.2,107L258.2,107c-2,0-3.9,0.9-5,2.6c-1.6,2.3-1.6,5.7-0.1,9.5
				c1.9,4.7,5.7,9.1,9.3,10.8c1.1,0.5,2.3,0.8,3.4,0.8c1.9,0,3.6-0.8,4.8-2.3c1-1.3,2-3.6,1.1-7.5c-1.3-5.3-5.9-12-11.3-13.7
				C259.6,107.1,258.9,107,258.2,107L258.2,107z"/>
		</g>
		<path class="st17" d="M317.4,150"/>
		<path class="st17" d="M243.3,94.4"/>
		<g class="st2">
			<path d="M307.8,151.7c-0.8,0-1.7-0.2-2.5-0.6c-3.2-1.4-6.7-5.5-8.3-9.7c-1.3-3.2-1.3-5.9-0.1-7.7c0.8-1.1,1.9-1.7,3.3-1.7
				c0.5,0,1.1,0.1,1.6,0.3c4.5,1.4,8.8,7.4,9.9,12.2c0.7,3.1,0,4.8-0.7,5.8C310.3,151.2,309.1,151.7,307.8,151.7z"/>
			<path class="st4" d="M300.2,134c0.3,0,0.7,0.1,1.1,0.2c3.5,1,7.5,6.2,8.6,10.7c0.7,3.1-0.2,4.8-2,4.8c-0.5,0-1.1-0.1-1.7-0.4
				c-2.7-1.2-5.8-4.9-7.3-8.6C297.4,136.9,297.9,134,300.2,134 M300.2,130L300.2,130c-2,0-3.9,0.9-5,2.6c-1.6,2.3-1.6,5.7-0.1,9.5
				c1.9,4.7,5.7,9.1,9.3,10.8c1.1,0.5,2.3,0.8,3.4,0.8c1.9,0,3.6-0.8,4.8-2.3c1-1.3,2-3.6,1.1-7.5c-1.3-5.3-5.9-12-11.3-13.7
				C301.6,130.1,300.9,130,300.2,130L300.2,130z"/>
		</g>
		<path class="st17" d="M319.1,161.5"/>
		<path class="st17" d="M278.2,130.9"/>
		<g class="st2">
			<path d="M325.6,356.4c-0.5,0-1-0.1-1.6-0.2c-4.6-1.1-9.3-6.6-10.9-12.9c-1-3.8-0.6-7.2,1-9.3c1.1-1.4,2.6-2.1,4.4-2.1
				c0.6,0,1.2,0.1,1.9,0.3c4.8,1.3,9.6,7.4,10.9,13.8c0.7,3.5,0.2,6.4-1.3,8.4C328.9,355.7,327.3,356.4,325.6,356.4z"/>
			<path class="st4" d="M318.5,333.9c0.4,0,0.9,0.1,1.3,0.2c4.1,1.1,8.3,6.7,9.4,12.3c1,4.7-0.7,8-3.7,8c-0.4,0-0.7,0-1.1-0.1
				c-3.8-0.9-8-5.9-9.4-11.4C313.7,337.7,315.3,333.9,318.5,333.9 M318.5,329.9L318.5,329.9c-2.4,0-4.5,1-6,2.9
				c-2,2.6-2.5,6.5-1.3,11c1.8,6.9,7.1,13.1,12.4,14.3c0.7,0.2,1.4,0.2,2,0.2c2.3,0,4.4-1,5.9-2.8c2-2.4,2.6-5.9,1.8-10
				c-1.5-7.2-6.8-13.8-12.3-15.4C320.1,330,319.3,329.9,318.5,329.9L318.5,329.9z"/>
		</g>
	</g>
	<g id="Layer_9" class="st0">
		<line class="st18" x1="191.8" y1="380" x2="-51.7" y2="108"/>
		<line class="st18" x1="381.8" y1="282.8" x2="112.2" y2="54.6"/>
		<polyline class="st3" points="391.1,177.6 128.2,-54.4 -44.1,13 184.9,268.1 		"/>
		<g class="st2">
			<path d="M385.2,186.9l-4.7,95.9L196,370.5l-6.3-101.1L385.2,186.9 M393.8,174.5l-212.4,89.7l7.4,118.6L388.2,288L393.8,174.5
				L393.8,174.5z"/>
		</g>
		<g class="st2">
			<path d="M385.2,187.8l-3.4,95l-184.6,86.6L191.8,269L385.2,187.8 M393.6,175.5l-11.5,4.8l-193.3,81.2l-5.2,2.2l0.3,5.6l5.4,100.4
				l0.6,11.9l10.8-5L385.2,290l4.4-2.1l0.2-4.9l3.4-95L393.6,175.5L393.6,175.5z"/>
		</g>
	</g>
	<g id="Layer_11" class="st0">
		<g class="st2">
			<path d="M403.7,66.7v224.5L158,372.6l0-3.1l239.1-78l5.5-1.8l0-5.8l-0.5-216.8l1.6-0.4 M411.7,56.1L394.1,61l0.6,222.9L150,363.7
				l0,20L411.7,297V56.1L411.7,56.1z"/>
		</g>
		<line class="st18" x1="154.4" y1="367.2" x2="-28.4" y2="184.4"/>
		<line class="st18" x1="153.1" y1="380.8" x2="-10.1" y2="217.6"/>
		<line class="st18" x1="396.9" y1="286.2" x2="92.1" y2="-18.6"/>
		<line class="st18" x1="397.7" y1="64.3" x2="288.3" y2="-45.1"/>
		<line class="st18" x1="408.9" y1="58.9" x2="312.8" y2="-37"/>
	</g>
	<g id="Layer_10" class="st0">
		<g class="st2">
			<path d="M409.7,295.7v3.5l-206,72.2v-4l206-71.6 M417.7,284.7l-222,77v21l222-77.8V284.7L417.7,284.7z"/>
		</g>
		<line class="st18" x1="414.9" y1="287.5" x2="88.2" y2="-37.3"/>
		<line class="st18" x1="199" y1="364.9" x2="-34.4" y2="129.5"/>
		<line class="st18" x1="198.7" y1="379.9" x2="-56" y2="122.4"/>
	</g>
	<g id="Layer_6" class="st0">
		<g class="st2">
			<path d="M-9.9-13.8c6.5,0,13,1.7,18.6,4.9l387,287.8c1,0.9,9.2,8.2,14.9,19.2c7.9,15.4,7.4,30.7-1.5,45.5
				c-10,16.8-24.3,25.3-42.5,25.3c-11.4,0-20.8-3.4-23.5-4.5L-36,60.9l-0.3-0.2l-0.3-0.2c-8.7-5.8-14.6-15.1-16.3-25.4
				c-1.3-8.2,0.2-16.7,4.3-24l2.5-4.5c4.5-8.2,11.9-14.3,20.8-17.3l3.5-1.2C-18-13.1-14-13.8-9.9-13.8 M-9.9-21.8
				c-4.9,0-9.8,0.8-14.5,2.4l-3.5,1.2c-10.7,3.6-19.7,11.1-25.2,21l-2.5,4.5c-4.9,8.9-6.7,19.1-5.2,29.1v0
				c2,12.6,9.1,23.8,19.7,30.8l380,304.3c0,0,12.1,5.6,27.6,5.6c15.9,0,35.3-5.8,49.3-29.2c25.1-41.9-15.2-75.1-15.2-75.1L13.1-15.5
				C6.1-19.7-1.9-21.8-9.9-21.8L-9.9-21.8z"/>
		</g>
		<g class="st2">
			<path d="M371.1,272.1c10.4,0,19.8,3.8,25.2,7.3c10.2,6.7,28.3,34.8,12.5,64.7c-4.5,8.5-11.3,15-20.1,19.3
				c-9.5,4.6-19.1,5.6-25.4,5.6c-9.9,0-16.9-2.3-20-4.3c-5.9-3.8-34.1-24.9-10.1-67.6C342.5,280.5,355.2,272.1,371.1,272.1
				 M371.1,264.1c-15.4,0-32.5,6.9-44.9,29.1c-22.8,40.8-3.6,67.7,12.8,78.3c5.1,3.3,14.1,5.5,24.3,5.5c18.5,0,41.1-7.3,52.6-29.2
				c17.6-33.2-1.3-66-15.2-75.1C393.9,268.2,383.1,264.1,371.1,264.1L371.1,264.1z"/>
		</g>
	</g>
	<g id="Layer_7" class="st0">
		<g class="st2">
			<path d="M-25.1,11.8c6,0,12,1.6,17.2,4.6l368.2,243.7l1.6,8.2l-53.5,68L-49.4,80.2l-0.1-0.1l-0.1-0.1c-8-5.3-13.4-13.8-14.9-23.3
				c-1.2-7.5,0.2-15.3,3.9-22l2.3-4.2c4.2-7.5,10.9-13.1,19.1-15.9l3.2-1.1C-32.5,12.4-28.8,11.8-25.1,11.8 M-25.1,3.8
				c-4.6,0-9.1,0.7-13.5,2.2l-3.2,1.1c-10,3.4-18.4,10.3-23.5,19.6l-2.3,4.2c-4.6,8.3-6.3,17.8-4.8,27.1v0
				c1.8,11.7,8.5,22.1,18.4,28.7L310,347.4l60.5-76.9l-3-15.1L-3.6,9.6C-10.2,5.8-17.6,3.8-25.1,3.8L-25.1,3.8z"/>
		</g>
		<g class="st2">
			<path class="st4" d="M299.5,372.4c-3.7-3.3-5.4-8.4-4.4-13.3l13.6-70.6c0.8-4.4,3.5-8.2,7.3-10.6l60.9-38.2
				c1.2-0.8,2.7-1.2,4.2-1.2c1.2,0,2.3,0.3,3.3,0.8l27.6,12.4l-58.2,32c-12.9,7.1-21.8,19.5-24.3,34L317,389.1L299.5,372.4z"/>
			<path d="M381,242.4c0.6,0,1.1,0.1,1.6,0.4l0.1,0l0.1,0l20.2,9.1l-51.2,28.1c-14,7.7-23.6,21.1-26.3,36.8L314.3,381l-12-11.5
				l-0.1-0.1l-0.1-0.1c-2.6-2.4-3.9-6-3.2-9.5l13.6-70.6c0.6-3.3,2.6-6.2,5.5-8l60.9-38.2C379.5,242.6,380.2,242.4,381,242.4
				 M381,234.4c-2.2,0-4.4,0.6-6.3,1.8l-60.9,38.2c-4.7,3-8,7.8-9.1,13.2l-13.6,70.6c-1.2,6.3,0.9,12.7,5.7,17l22.9,21.8l13.7-78.9
				c2.3-13.2,10.5-24.7,22.3-31.2l65.2-35.8L386,235.6C384.4,234.8,382.7,234.4,381,234.4L381,234.4z"/>
		</g>
		<g class="st2">
			<path d="M419.4,264.1L419.4,264.1c4.1,0,8.1,1.2,11.6,3.5l17.2,11.4c6.6,4.4,10.2,12,9.3,19.9l-6.4,57.7
				c-0.6,5.4-3.2,10.3-7.4,13.8l-54,45.2c-3.8,3.2-8.6,4.9-13.5,4.9c-4.1,0-8.1-1.2-11.5-3.4l-25.2-16.5
				c-6.8-4.4-10.5-12.5-9.3-20.6l9.3-65.7c0.9-6.6,5-12.4,10.8-15.5l59.1-32.1C412.4,264.9,415.9,264.1,419.4,264.1 M419.4,256.1
				c-4.8,0-9.5,1.2-13.9,3.5l-59.1,32.1c-8.1,4.4-13.6,12.3-14.9,21.5l-9.3,65.7c-1.6,11.2,3.4,22.2,12.9,28.4l25.2,16.5
				c4.8,3.2,10.4,4.7,15.9,4.7c6.7,0,13.3-2.3,18.6-6.8l54-45.2c5.7-4.8,9.4-11.6,10.2-19.1l6.4-57.7c1.2-10.8-3.8-21.4-12.9-27.4
				l-17.2-11.4C430.6,257.7,425,256.1,419.4,256.1L419.4,256.1z"/>
		</g>
		<g class="st2">
			<polygon points="322,377.4 319.7,397.1 331.8,404.7 322,377.4 			"/>
		</g>
		<g class="st2">
			<polygon class="st4" points="420.6,255.9 421.6,256.6 418.7,256.8 			"/>
			<polygon points="420.9,251.3 399,262 433.7,259.8 420.9,251.3 			"/>
		</g>
	</g>
	<g id="Layer_3" class="st0">
		<g class="st2">
			<path d="M59.5,72.8c6.1,0,12,1.6,17.3,4.6l283.6,182.8l1.6,8.2l-53.5,68L35.1,141.2l-0.1-0.1l-0.1-0.1
				c-8-5.3-13.4-13.8-14.9-23.3c-1.2-7.5,0.2-15.3,3.9-22l2.3-4.2c4.2-7.5,10.9-13.1,19.1-15.9l3.2-1.1C52,73.4,55.7,72.8,59.5,72.8
				 M59.5,64.8c-4.6,0-9.1,0.7-13.5,2.2l-3.2,1.1c-10,3.4-18.4,10.3-23.5,19.6l-2.3,4.2c-4.6,8.3-6.3,17.8-4.8,27.1v0
				c1.8,11.7,8.5,22.1,18.4,28.7L310,347.4l60.5-76.9l-3-15.1L80.9,70.6C74.3,66.8,66.9,64.8,59.5,64.8L59.5,64.8z"/>
		</g>
		<g class="st2">
			<path class="st4" d="M299.5,372.4c-3.7-3.3-5.4-8.4-4.4-13.3l12.1-62.7c1.8-9.4,7.5-17.8,15.7-22.9l54-33.9
				c1.2-0.8,2.7-1.2,4.2-1.2c1.2,0,2.3,0.3,3.3,0.8l27.6,12.4L342,290c-5.5,3-9.3,8.3-10.3,14.5L317,389.1L299.5,372.4z"/>
			<path d="M381,242.4c0.6,0,1.1,0.1,1.6,0.4l0.1,0l0.1,0l20.2,9.1l-62.8,34.5c-6.6,3.6-11.1,9.9-12.4,17.3L314.3,381l-12-11.5
				l-0.1-0.1l-0.1-0.1c-2.6-2.4-3.9-6-3.2-9.5l12.1-62.7c1.6-8.3,6.7-15.7,13.9-20.2l54-33.9C379.5,242.6,380.2,242.4,381,242.4
				 M381,234.4c-2.2,0-4.4,0.6-6.3,1.8l-54,33.9c-9.1,5.7-15.4,15-17.5,25.5l-12.1,62.7c-1.2,6.3,0.9,12.7,5.7,17l22.9,21.8l16-92
				c0.9-4.9,3.9-9.2,8.3-11.6l76.9-42.2L386,235.6C384.4,234.8,382.7,234.4,381,234.4L381,234.4z"/>
		</g>
		<g>
			<path class="st2" d="M409.8,270.4c3.3,0,6.7,1.1,9.4,3.2l19.6,11.8c16.4,15.3,12.1,30.4,9.7,43.8l-8.2,35.2
				c-1.8,10.2-7.9,19.1-16.7,24.4l-25.4,15.6c-5.8,3.6-12.4,5.3-18.9,5.3c-8.3,0-16.5-2.8-23.2-8.4L336.8,385
				c-4.5-3.7-6.5-9.7-5.2-15.4l13.6-58.9c1-4.2,3.7-7.9,7.4-10l49.5-28.2C404.6,271.1,407.2,270.4,409.8,270.4 M409.8,249.4
				c-6.3,0-12.6,1.7-18.1,4.8l-49.5,28.2c-8.8,5-15.2,13.6-17.5,23.5l-13.6,58.9c-3.1,13.5,1.6,27.4,12.2,36.2l19.4,16.2
				c10.3,8.6,23.3,13.3,36.7,13.3c10.6,0,20.9-2.9,29.9-8.4l25.4-15.6c13.7-8.4,23.3-22.3,26.3-38.1l8.1-34.7l0.1-0.5l0.1-0.5
				c0.2-0.9,0.3-1.8,0.5-2.7c1.4-7.3,3.1-16.3,1.7-26.6c-1.7-12.6-7.9-23.9-18.2-33.5l-1.6-1.5l-1.9-1.1l-18.9-11.3
				C424.7,251.8,417.3,249.4,409.8,249.4L409.8,249.4z"/>
		</g>
		<g class="st2">
			<path d="M419.4,264.1L419.4,264.1c4.1,0,8.1,1.2,11.6,3.5l17.2,11.4c6.6,4.4,10.2,12,9.3,19.9l-6.4,57.7
				c-0.6,5.4-3.2,10.3-7.4,13.8l-54,45.2c-3.8,3.2-8.6,4.9-13.5,4.9c-4.1,0-8.1-1.2-11.5-3.4l-25.2-16.5
				c-6.8-4.4-10.5-12.5-9.3-20.6l9.3-65.7c0.9-6.6,5-12.4,10.8-15.5l59.1-32.1C412.4,264.9,415.9,264.1,419.4,264.1 M419.4,256.1
				c-4.8,0-9.5,1.2-13.9,3.5l-59.1,32.1c-8.1,4.4-13.6,12.3-14.9,21.5l-9.3,65.7c-1.6,11.2,3.4,22.2,12.9,28.4l25.2,16.5
				c4.8,3.2,10.4,4.7,15.9,4.7c6.7,0,13.3-2.3,18.6-6.8l54-45.2c5.7-4.8,9.4-11.6,10.2-19.1l6.4-57.7c1.2-10.8-3.8-21.4-12.9-27.4
				l-17.2-11.4C430.6,257.7,425,256.1,419.4,256.1L419.4,256.1z"/>
		</g>
		<g class="st2">
			<polygon points="322,377.4 319.7,397.1 331.8,404.7 322,377.4 			"/>
		</g>
		<g class="st2">
			<polygon class="st4" points="420.6,255.9 421.6,256.6 418.7,256.8 			"/>
			<polygon points="420.9,251.3 399,262 433.7,259.8 420.9,251.3 			"/>
		</g>
	</g>
	<g id="Layer_8">
		<g>
			<path d="M232.7,190.7L232.7,190.7h0.4c34,0,65.1,5.1,92.5,14.9c22.9,8.2,42.8,19.8,57.7,33.4c14.7,13.5,23.9,28.8,24.6,40.8
				c1.1,19.5-5.6,37-19.8,52c-18.9,20-47.3,31.9-67.8,38.3c-27.1,8.4-53,11.6-68.3,11.6h-0.2c-48.8,0-94.3-11-128.2-30.8
				c-30.8-18-48.5-41.6-48.5-64.6c0-19.7,7.1-36.9,21-51.2c14.1-14.4,35.7-26.2,62.4-34c22.8-6.6,49.2-10.3,74.2-10.3 M232.8,182.7
				c-47.1,0-109.2,12.7-142.3,46.6c-14.4,14.7-23.3,33.5-23.3,56.9c0,52.9,78.4,103.4,184.7,103.4c0.1,0,0.1,0,0.2,0
				c49.3,0,168.3-27.8,163.8-110.1c-0.7-13.3-9.7-30.5-27.1-46.4c-28.8-26.4-80.5-50.4-155.6-50.4
				C233,182.7,232.9,182.7,232.8,182.7L232.8,182.7z"/>
		</g>
		<g>
			<path d="M235.7,163.7L235.7,163.7L235.7,163.7c44.8,0,73.4,12.6,89.5,23c9.1,5.9,16.6,12.7,21.7,19.8c4.3,5.9,6.8,11.7,7.1,16.5
				c0.7,12.9-3.6,24.2-13,34.2c-21.9,23.1-67.1,33.6-92.2,33.6h-0.1c-33.3,0-64.3-7.5-87.4-20.9c-20.5-12-32.3-27.5-32.3-42.5
				c0-20.8,12-37.2,35.4-48.6C183.3,169.4,209.7,163.8,235.7,163.7 M235.5,155.7c-46.7,0-114.5,18-114.5,71.5
				c0,36.6,54.2,71.5,127.7,71.5c0,0,0.1,0,0.1,0c34.1,0,116.3-19.3,113.2-76.2c-1.3-24.5-43.1-66.8-126.3-66.8
				C235.7,155.7,235.6,155.7,235.5,155.7L235.5,155.7z"/>
		</g>
		<path class="st19" d="M411.7,282.7l-1,20.7c-1,19.2-9.4,37.2-23.5,50.2c-22.5,20.7-65.8,49.1-148.4,48.7
			c-88.1-0.3-134-35.8-153.6-60.1c-7.7-9.6-12-21.4-12.4-33.7l-1-33.6"/>
		<path class="st20" d="M411.7,163.7l-1,20.7c-1,19.2-9.4,37.2-23.5,50.2c-22.5,20.7-65.8,49.1-148.4,48.7
			c-88.1-0.3-134-35.8-153.6-60.1c-7.7-9.6-12-21.4-12.4-33.7l-1-33.6"/>
		<g>
			<path class="st4" d="M251.9,266.7c-49.5,0-95.7-11.2-130.2-31.4c-32.1-18.7-50.5-43.6-50.5-68.1c0-33.2,18.6-59.3,55.3-77.2
				C155.2,76,194,67.7,232.8,67.7h0.3c66.7,0,109.5,18.9,133.6,34.5c26.4,17.1,44.1,40.1,45.1,58.4c1.1,20.6-5.9,39.1-20.9,55
				c-19.5,20.6-48.5,32.8-69.5,39.4c-27.5,8.6-53.9,11.8-69.4,11.8H251.9z"/>
			<path d="M232.7,71.7L232.7,71.7h0.4c65.7,0,107.7,18.5,131.4,33.9c13.5,8.7,24.7,19,32.4,29.5c6.6,9.1,10.5,18.2,10.9,25.7
				c1.1,19.5-5.6,37-19.8,52c-18.9,20-47.3,31.9-67.8,38.3c-27.1,8.4-53,11.6-68.3,11.6h-0.2c-48.8,0-94.3-11-128.2-30.8
				c-30.8-18-48.5-41.6-48.5-64.6c0-16.5,5-31.3,14.7-43.9c8.9-11.5,21.7-21.5,38.3-29.6c28.3-13.8,66.6-21.9,104.6-21.9
				 M232.8,63.7c-67.5,0-165.7,26.1-165.7,103.5c0,52.9,78.4,103.5,184.7,103.5c0.1,0,0.1,0,0.2,0c49.3,0,168.3-27.9,163.8-110.3
				c-1.9-35.4-62.3-96.7-182.7-96.7C233,63.7,232.9,63.7,232.8,63.7L232.8,63.7z"/>
		</g>
		<g>
			<path d="M235.7,108.7L235.7,108.7L235.7,108.7c43.6,0,71.3,12.1,86.8,22.2c17.6,11.4,26.1,24.8,26.5,32.3
				c0.6,11.5-3.2,21.5-11.7,30.4c-9.5,10-24.6,18.5-43.6,24.4c-17.9,5.6-35,7.6-45,7.6h-0.1h-0.1c-32.4,0-62.5-7.2-84.9-20.3
				c-19-11.1-29.8-25-29.8-38.2c0-9.8,2.8-18.3,8.6-25.8c5.4-7.1,13.6-13.2,24-18.3C184.9,114.2,210.7,108.8,235.7,108.7
				 M235.5,95.7c-46.7,0-114.5,18-114.5,71.5c0,36.6,54.2,71.5,127.7,71.5c0,0,0.1,0,0.1,0c34.1,0,116.3-19.3,113.2-76.2
				c-1.3-24.5-43.1-66.8-126.3-66.8C235.7,95.7,235.6,95.7,235.5,95.7L235.5,95.7z"/>
		</g>
		<g>
			<path d="M236.7,110.7c0,0,0.1,0,0.2,0c66,0,99.1,33.4,100.2,52.8c2.5,45.1-62.8,60.2-89.8,60.2c0,0-0.1,0-0.1,0
				c-58.3,0-101.3-27.5-101.3-56.5C145.9,124.8,199.7,110.7,236.7,110.7 M236.7,97.7L236.7,97.7c-23-0.1-47.2,4.9-65,13.6
				c-11.5,5.6-20.6,12.7-27.1,21.2c-7.8,10.1-11.7,21.7-11.7,34.7c0,19,12.8,37.3,35.2,50.3c21.2,12.4,49.3,19.1,79,19.1h0.1h0h0.1
				c22.6,0,64.5-8.7,87.2-32.6c11-11.7,16.4-25.9,15.6-41.4c-0.8-15.2-12.7-31.5-31.6-43.8c-15-9.7-41.2-21.2-81.5-21.2H236.7
				L236.7,97.7z"/>
		</g>
		<g>
			<path d="M240.7,135.7L240.7,135.7L240.7,135.7c21.1,0,34.5,5.9,42.1,10.8c8.8,5.7,12.3,12,12.4,14.8c0.3,5.2-1.5,9.8-5.3,13.9
				c-4.5,4.8-11.7,8.8-20.9,11.7c-8.7,2.7-17,3.7-21.8,3.7l0,8l-0.1-8c-31.6,0-55.2-14.4-55.2-27.3c0-8.7,5.1-15.5,15.3-20.5
				C216,138.5,228.7,135.8,240.7,135.7 M240.6,127.7c-23.1,0-56.7,9-56.7,35.5c0,18.1,26.8,35.5,63.2,35.5c0,0,0,0,0.1,0
				c16.9,0,57.6-9.6,56.1-37.8c-0.7-12.1-21.3-33.2-62.5-33.2C240.6,127.7,240.6,127.7,240.6,127.7L240.6,127.7z"/>
		</g>
	</g>
	<g id="Layer_5" class="st0">
		<g class="st2">
			<path class="st4" d="M193.3,392.2c-9.2,0-18.1-1.9-26.5-5.5l-13.2-5.8c-4.5-1.9-8.7-4.4-12.6-7.3l-56.2-41.2
				c-7.1-5.2-13-11.7-17.6-19.3l-2.9-4.8c-6.2-10.3-9.5-22.1-9.5-34.1v-65.2c0-10.1,2.4-20.2,6.8-29.2l8.6-17.4
				c1.6-3.3,3.5-6.4,5.6-9.4l25.8-36c3.3-4.6,7.2-8.7,11.5-12.3l4.5-3.8c5-4.1,10.6-7.5,16.5-10.1l3.8-1.6c6.6-2.8,13.6-4.5,20.8-5
				l70.5-5.3c1.6-0.1,3.3-0.2,5-0.2h47.7c4,0,8.1,0.4,12,1.1l10,1.8c7.3,1.3,14.2,3.9,20.7,7.5l18.8,10.7c2.6,1.4,5,3.1,7.4,4.9
				l18.7,14.2l22.5,15.8c4.9,3.4,9.3,7.5,13,12.1c10.6,12.9,15.9,29.1,15,45.7l-3.4,60.9c-0.4,6.8-1.8,13.5-4.2,19.8l-4,10.5
				c-0.9,2.3-1.9,4.6-3,6.8l-26.6,51.8c-6.7,13.1-17.8,23.7-31.2,29.9l-9.5,4.4c-7.1,3.3-14.7,5.2-22.4,5.9L198.5,392
				C196.8,392.1,195,392.2,193.3,392.2C193.3,392.2,193.3,392.2,193.3,392.2z"/>
			<path d="M281.8,82.8c3.8,0,7.6,0.3,11.3,1l10,1.8c6.8,1.3,13.4,3.6,19.4,7.1l18.8,10.7c2.4,1.4,4.7,2.9,6.9,4.6l18.7,14.2
				l0.1,0.1l0.1,0.1l22.5,15.8c4.6,3.2,8.7,7,12.2,11.3c9.9,12.1,14.9,27.3,14.1,43l-3.4,60.9c-0.4,6.4-1.7,12.7-3.9,18.6l-4,10.5
				c-0.8,2.2-1.8,4.3-2.8,6.4l-26.6,51.8C369,353,358.6,363,346,368.8l-9.5,4.4c-6.7,3.1-13.8,4.9-21.1,5.5L198.2,388
				c-1.6,0.1-3.3,0.2-4.9,0.2c-8.6,0-17-1.7-24.9-5.2l-13.2-5.8c-4.2-1.8-8.2-4.1-11.9-6.8L87,329.2c-6.7-4.9-12.3-11-16.5-18.1
				l-2.9-4.8c-5.8-9.7-8.9-20.8-8.9-32.1v-56.5v-8.7c0-9.5,2.2-19,6.4-27.5l8.6-17.4c1.5-3.1,3.3-6,5.3-8.8l25.8-36
				c3.1-4.3,6.7-8.2,10.8-11.6l4.5-3.8c4.7-3.9,9.9-7.1,15.5-9.4l3.8-1.6c6.2-2.6,12.8-4.2,19.5-4.7l70.5-5.3
				c1.5-0.1,3.1-0.2,4.7-0.2H281.8 M281.8,74.8h-47.7c-1.8,0-3.5,0.1-5.3,0.2l-70.5,5.3c-7.6,0.6-15,2.4-22.1,5.3l-3.8,1.6
				c-6.3,2.7-12.2,6.3-17.5,10.7l-4.5,3.8c-4.6,3.8-8.7,8.2-12.2,13.1l-25.8,36c-2.3,3.1-4.2,6.5-5.9,9.9L58,178.1
				c-4.7,9.6-7.2,20.2-7.2,31v8.7v56.5c0,12.7,3.5,25.3,10,36.2l2.9,4.8c4.8,8,11.1,14.9,18.7,20.4l56.2,41.2
				c4.2,3.1,8.7,5.6,13.4,7.7l13.2,5.8c8.9,3.9,18.4,5.9,28.1,5.9c1.9,0,3.7-0.1,5.6-0.2l117.3-9.4c8.2-0.7,16.3-2.8,23.8-6.2
				l9.5-4.4c14.3-6.6,25.9-17.7,33.1-31.7l26.6-51.8c1.2-2.3,2.3-4.7,3.2-7.2l4-10.5c2.6-6.7,4.1-13.8,4.5-21L424,193
				c1-17.6-4.7-34.9-15.9-48.5l0,0c-4-4.9-8.7-9.2-13.8-12.8l-22.5-15.8l-18.7-14.2c-2.5-1.9-5.1-3.6-7.8-5.2l-18.8-10.7
				c-6.8-3.9-14.2-6.6-21.9-8l-10-1.8C290.4,75.2,286.1,74.8,281.8,74.8L281.8,74.8z"/>
		</g>
		<g class="st2">
			<path d="M227.8,146.5c0.5,0,1.1,0,1.6,0l23.1,1.1c1.3,0.1,2.5,0.2,3.7,0.4l19.4,3.1c1.3,0.2,2.7,0.5,4,0.9l20.3,5.9
				c2.5,0.7,4.8,1.7,7.1,2.9l17.5,9.7c3.4,1.9,6.5,4.4,9.1,7.3l8.4,9.4c2.7,3,4.8,6.4,6.4,10.1l3.5,8.4c1.9,4.6,2.9,9.5,2.9,14.5
				c0,8.4-2.8,16.5-7.9,23l-2,2.5c-2.4,3-5.2,5.6-8.3,7.6l-14.8,9.7c-0.7,0.5-1.4,0.9-2.1,1.3l-17.9,10c-3,1.7-6.3,2.9-9.6,3.6
				L263,284c-2.3,0.5-4.6,0.7-6.9,0.7h-30.8c-2.2,0-4.5-0.2-6.7-0.7l-30.7-6.2c-3.4-0.7-6.7-1.9-9.7-3.6l-22.9-12.7
				c-2.1-1.1-4-2.5-5.8-4l-10.7-9.2c-5.5-4.7-9.5-11.1-11.4-18.3l-1.4-5.4c-1.5-5.8-1.7-11.9-0.4-17.8l1.4-6.3
				c1.3-6,4.2-11.6,8.2-16.2l7.5-8.5c2.4-2.7,5.2-5.1,8.2-6.9l15.4-9.3c2.1-1.2,4.2-2.3,6.5-3.1l17.7-6.1c2.7-0.9,5.5-1.5,8.3-1.8
				l26.3-2.1C226,146.5,226.9,146.5,227.8,146.5 M227.8,132.5c-1.3,0-2.5,0.1-3.8,0.2l-26.3,2.1c-4,0.3-8,1.2-11.8,2.5l-17.7,6.1
				c-3.2,1.1-6.3,2.5-9.2,4.3l-15.4,9.3c-4.3,2.6-8.2,5.8-11.5,9.7l-7.5,8.5c-5.6,6.3-9.5,14.1-11.3,22.4l-1.4,6.3
				c-1.8,8-1.6,16.5,0.5,24.5l1.4,5.4c2.6,9.9,8.1,18.7,15.8,25.3l10.7,9.2c2.5,2.2,5.2,4.1,8.1,5.7l22.9,12.7
				c4.3,2.4,8.9,4.1,13.8,5.1l30.7,6.2c3.1,0.6,6.3,0.9,9.5,0.9h30.8c3.3,0,6.5-0.3,9.7-1l29.3-6.1c4.8-1,9.3-2.7,13.6-5.1l17.9-10
				c1-0.6,2-1.2,3-1.8l14.8-9.7c4.4-2.9,8.3-6.5,11.6-10.6l2-2.5c7-8.9,10.9-20.2,10.9-31.6c0-6.9-1.3-13.6-4-19.9l-3.5-8.4
				c-2.2-5.2-5.1-9.9-8.8-14l-8.4-9.4c-3.7-4.1-8-7.6-12.8-10.2l-17.5-9.7c-3.2-1.8-6.5-3.2-10-4.2l-20.3-5.9
				c-1.8-0.5-3.7-1-5.6-1.3l-19.4-3.1c-1.7-0.3-3.5-0.5-5.3-0.6l-23.1-1.1C229.3,132.5,228.5,132.5,227.8,132.5L227.8,132.5z"/>
		</g>
		<g class="st2">
			<path d="M227.8,171.7c0.5,0,1.1,0,1.6,0l23.1,1.1c1.3,0.1,2.5,0.2,3.7,0.4l19.4,3.1c1.3,0.2,2.7,0.5,4,0.9l20.3,5.9
				c2.5,0.7,4.8,1.7,7.1,2.9l17.5,9.7c3.4,1.9,6.5,4.4,9.1,7.3l8.4,9.4c2.7,3,4.8,6.4,6.4,10.1l3.5,8.4c1.9,4.6,2.9,9.5,2.9,14.5
				c0,8.4-2.8,16.5-7.9,23l-2,2.5c-2.4,3-5.2,5.6-8.3,7.6l-14.8,9.7c-0.7,0.5-1.4,0.9-2.1,1.3l-17.9,10c-3,1.7-6.3,2.9-9.6,3.6
				l-29.3,6.1c-2.3,0.5-4.6,0.7-6.9,0.7h-30.8c-2.2,0-4.5-0.2-6.7-0.7l-30.7-6.2c-3.4-0.7-6.7-1.9-9.7-3.6l-22.9-12.7
				c-2.1-1.1-4-2.5-5.8-4l-10.7-9.2c-5.5-4.7-9.5-11.1-11.4-18.3l-1.4-5.4c-1.5-5.8-1.7-11.9-0.4-17.8l1.4-6.3
				c1.3-6,4.2-11.6,8.2-16.2l7.5-8.5c2.4-2.7,5.2-5.1,8.2-6.9l15.4-9.3c2.1-1.2,4.2-2.3,6.5-3.1l17.7-6.1c2.7-0.9,5.5-1.5,8.3-1.8
				l26.3-2.1C226,171.8,226.9,171.7,227.8,171.7 M227.8,158.7c-1.2,0-2.5,0-3.7,0.1l-26.3,2.1c-3.9,0.3-7.8,1.1-11.6,2.4l-17.7,6.1
				c-3.1,1.1-6.1,2.5-9,4.2l-15.4,9.3c-4.2,2.5-8,5.7-11.3,9.5l-7.5,8.5c-5.4,6.2-9.3,13.8-11.1,21.9l-1.4,6.3
				c-1.8,7.9-1.6,16.2,0.5,24l1.4,5.4c2.6,9.7,7.9,18.3,15.5,24.8l10.7,9.2c2.5,2.1,5.1,4,7.9,5.5l22.9,12.7c4.2,2.3,8.8,4,13.5,5
				L216,322c3,0.6,6.2,0.9,9.3,0.9h30.8c3.2,0,6.4-0.3,9.5-1l29.3-6.1c4.7-1,9.1-2.6,13.3-5l17.9-10c1-0.6,2-1.2,2.9-1.8l14.8-9.7
				c4.3-2.8,8.1-6.3,11.4-10.4l2-2.5c6.9-8.7,10.7-19.8,10.7-31c0-6.8-1.3-13.3-3.9-19.5l-3.5-8.4c-2.1-5.1-5-9.7-8.7-13.7l-8.4-9.4
				c-3.6-4-7.8-7.4-12.5-10l-17.5-9.7c-3.1-1.7-6.4-3.1-9.8-4.1l-20.3-5.9c-1.8-0.5-3.7-0.9-5.5-1.2l-19.4-3.1
				c-1.7-0.3-3.4-0.5-5.2-0.5l-23.1-1.1C229.3,158.8,228.5,158.7,227.8,158.7L227.8,158.7z"/>
		</g>
		<g class="st2">
			<path d="M227.8,196c0.5,0,1.1,0,1.6,0l23.1,1.1c1.3,0.1,2.5,0.2,3.7,0.4l19.4,3.1c1.3,0.2,2.7,0.5,4,0.9l20.3,5.9
				c2.5,0.7,4.8,1.7,7.1,2.9l17.5,9.7c3.4,1.9,6.5,4.4,9.1,7.3l8.4,9.4c2.7,3,4.8,6.4,6.4,10.1l3.5,8.4c1.9,4.6,2.9,9.5,2.9,14.5
				c0,8.4-2.8,16.5-7.9,23l-2,2.5c-2.4,3-5.2,5.6-8.3,7.6l-14.8,9.7c-0.7,0.5-1.4,0.9-2.1,1.3l-17.9,10c-3,1.7-6.3,2.9-9.6,3.6
				l-29.3,6.1c-2.3,0.5-4.6,0.7-6.9,0.7h-30.8c-2.2,0-4.5-0.2-6.7-0.7l-30.7-6.2c-3.4-0.7-6.7-1.9-9.7-3.6L155.2,311
				c-2.1-1.1-4-2.5-5.8-4l-10.7-9.2c-5.5-4.7-9.5-11.1-11.4-18.3l-1.4-5.4c-1.5-5.8-1.7-11.9-0.4-17.8l1.4-6.3
				c1.3-6,4.2-11.6,8.2-16.2l7.5-8.5c2.4-2.7,5.2-5.1,8.2-6.9l15.4-9.3c2.1-1.2,4.2-2.3,6.5-3.1l17.7-6.1c2.7-0.9,5.5-1.5,8.3-1.8
				l26.3-2.1C226,196.1,226.9,196,227.8,196 M227.8,183c-1.2,0-2.5,0-3.7,0.1l-26.3,2.1c-3.9,0.3-7.8,1.1-11.6,2.4l-17.7,6.1
				c-3.1,1.1-6.1,2.5-9,4.2l-15.4,9.3c-4.2,2.5-8,5.7-11.3,9.5l-7.5,8.5c-5.4,6.2-9.3,13.8-11.1,21.9l-1.4,6.3
				c-1.8,7.9-1.6,16.2,0.5,24l1.4,5.4c2.6,9.7,7.9,18.3,15.5,24.8l10.7,9.2c2.5,2.1,5.1,4,7.9,5.5l22.9,12.7c4.2,2.3,8.8,4,13.5,5
				l30.7,6.2c3,0.6,6.2,0.9,9.3,0.9h30.8c3.2,0,6.4-0.3,9.5-1l29.3-6.1c4.7-1,9.1-2.6,13.3-5l17.9-10c1-0.6,2-1.2,2.9-1.8l14.8-9.7
				c4.3-2.8,8.1-6.3,11.4-10.4l2-2.5c6.9-8.7,10.7-19.8,10.7-31c0-6.8-1.3-13.3-3.9-19.5l-3.5-8.4c-2.1-5.1-5-9.7-8.7-13.7l-8.4-9.4
				c-3.6-4-7.8-7.4-12.5-10l-17.5-9.7c-3.1-1.7-6.4-3.1-9.8-4.1l-20.3-5.9c-1.8-0.5-3.7-0.9-5.5-1.2l-19.4-3.1
				c-1.7-0.3-3.4-0.5-5.2-0.5l-23.1-1.1C229.3,183.1,228.5,183,227.8,183L227.8,183z"/>
		</g>
		<g class="st2">
			<path d="M227.8,217.4c0.5,0,1.1,0,1.6,0l23.1,1.1c1.3,0.1,2.5,0.2,3.7,0.4l19.4,3.1c1.3,0.2,2.7,0.5,4,0.9l20.3,5.9
				c2.5,0.7,4.8,1.7,7.1,2.9l17.5,9.7c3.4,1.9,6.5,4.4,9.1,7.3l8.4,9.4c2.7,3,4.8,6.4,6.4,10.1l3.5,8.4c1.9,4.6,2.9,9.5,2.9,14.5
				c0,8.4-2.8,16.5-7.9,23l-2,2.5c-2.4,3-5.2,5.6-8.3,7.6l-14.8,9.7c-0.7,0.5-1.4,0.9-2.1,1.3l-17.9,10c-3,1.7-6.3,2.9-9.6,3.6
				l-29.3,6.1c-2.3,0.5-4.6,0.7-6.9,0.7h-30.8c-2.2,0-4.5-0.2-6.7-0.7l-30.7-6.2c-3.4-0.7-6.7-1.9-9.7-3.6l-22.9-12.7
				c-2.1-1.1-4-2.5-5.8-4l-10.7-9.2c-5.5-4.7-9.5-11.1-11.4-18.3l-1.4-5.4c-1.5-5.8-1.7-11.9-0.4-17.8l1.4-6.3
				c1.3-6,4.2-11.6,8.2-16.2l7.5-8.5c2.4-2.7,5.2-5.1,8.2-6.9l15.4-9.3c2.1-1.2,4.2-2.3,6.5-3.1l17.7-6.1c2.7-0.9,5.5-1.5,8.3-1.8
				l26.3-2.1C226,217.5,226.9,217.4,227.8,217.4 M227.8,204.4c-1.2,0-2.5,0-3.7,0.1l-26.3,2.1c-3.9,0.3-7.8,1.1-11.6,2.4l-17.7,6.1
				c-3.1,1.1-6.1,2.5-9,4.2l-15.4,9.3c-4.2,2.5-8,5.7-11.3,9.5l-7.5,8.5c-5.4,6.2-9.3,13.8-11.1,21.9l-1.4,6.3
				c-1.8,7.9-1.6,16.2,0.5,24l1.4,5.4c2.6,9.7,7.9,18.3,15.5,24.8l10.7,9.2c2.5,2.1,5.1,4,7.9,5.5l22.9,12.7c4.2,2.3,8.8,4,13.5,5
				l30.7,6.2c3,0.6,6.2,0.9,9.3,0.9h30.8c3.2,0,6.4-0.3,9.5-1l29.3-6.1c4.7-1,9.1-2.6,13.3-5l17.9-10c1-0.6,2-1.2,2.9-1.8l14.8-9.7
				c4.3-2.8,8.1-6.3,11.4-10.4l2-2.5c6.9-8.7,10.7-19.8,10.7-31c0-6.8-1.3-13.3-3.9-19.5l-3.5-8.4c-2.1-5.1-5-9.7-8.7-13.7l-8.4-9.4
				c-3.6-4-7.8-7.4-12.5-10l-17.5-9.7c-3.1-1.7-6.4-3.1-9.8-4.1l-20.3-5.9c-1.8-0.5-3.7-0.9-5.5-1.2l-19.4-3.1
				c-1.7-0.3-3.4-0.5-5.2-0.5l-23.1-1.1C229.3,204.4,228.5,204.4,227.8,204.4L227.8,204.4z"/>
		</g>
		<g class="st2">
			<path d="M227.8,235.9c0.5,0,1.1,0,1.6,0l23.1,1c1.3,0.1,2.5,0.2,3.7,0.3l19.4,2.7c1.3,0.2,2.7,0.4,4,0.8l20.3,5.1
				c2.5,0.6,4.8,1.5,7.1,2.6l17.5,8.4c3.4,1.6,6.5,3.8,9.1,6.3l8.4,8.1c2.7,2.6,4.8,5.5,6.4,8.8l3.5,7.3c1.9,4,2.9,8.2,2.9,12.5
				c0,7.3-2.8,14.3-7.9,19.9l-2,2.1c-2.4,2.6-5.2,4.8-8.3,6.6l-14.8,8.4c-0.7,0.4-1.4,0.8-2.1,1.1l-17.9,8.6c-3,1.5-6.3,2.5-9.6,3.1
				L263,355c-2.3,0.4-4.6,0.6-6.9,0.6h-30.8c-2.2,0-4.5-0.2-6.7-0.6l-30.7-5.4c-3.4-0.6-6.7-1.6-9.7-3.1l-22.9-11
				c-2.1-1-4-2.2-5.8-3.5l-10.7-7.9c-5.5-4.1-9.5-9.6-11.4-15.8l-1.4-4.7c-1.5-5-1.7-10.3-0.4-15.4l1.4-5.4c1.3-5.2,4.2-10.1,8.2-14
				l7.5-7.4c2.4-2.4,5.2-4.4,8.2-6l15.4-8c2.1-1.1,4.2-2,6.5-2.6l17.7-5.3c2.7-0.8,5.5-1.3,8.3-1.5l26.3-1.8
				C226,235.9,226.9,235.9,227.8,235.9 M227.8,224.9c-1.1,0-2.3,0-3.4,0.1l-26.3,1.8c-3.7,0.3-7.3,0.9-10.7,2l-17.7,5.3
				c-2.9,0.9-5.8,2-8.4,3.4l-15.4,8c-4,2.1-7.7,4.8-10.9,7.9l-7.5,7.4c-5.4,5.4-9.3,12-11.1,19.1l-1.4,5.4c-1.8,7-1.6,14.4,0.5,21.4
				l1.4,4.7c2.6,8.5,7.9,15.9,15.3,21.4l10.7,7.9c2.4,1.8,4.9,3.3,7.6,4.6l22.9,11c4,1.9,8.2,3.3,12.6,4l30.7,5.4
				c2.8,0.5,5.7,0.7,8.6,0.7h30.8c3,0,5.9-0.3,8.8-0.8l29.3-5.3c4.3-0.8,8.5-2.1,12.5-4l17.9-8.6c0.9-0.5,1.9-0.9,2.8-1.5l14.8-8.4
				c4.2-2.4,7.9-5.3,11-8.8l2-2.1c7-7.6,10.8-17.3,10.8-27.3c0-6-1.4-11.9-4-17.3l-3.5-7.3c-2.1-4.4-5-8.4-8.6-11.9l-8.4-8.1
				c-3.5-3.4-7.5-6.2-12-8.4l-17.5-8.4c-2.9-1.4-6-2.5-9.2-3.3l-20.3-5.1c-1.7-0.4-3.4-0.8-5.1-1l-19.4-2.7
				c-1.6-0.2-3.2-0.4-4.8-0.4l-23.1-1C229.2,224.9,228.5,224.9,227.8,224.9L227.8,224.9z"/>
		</g>
		<polyline class="st1" points="59.6,220.3 98.6,332.1 188.9,386.7 219.2,382.3 261,382.4 308,377.5 375.6,338.6 399.1,256.7 
			400.1,149 403.4,156.8 400.6,167.5 389.9,191 368.6,226.6 350,238.7 327.3,247.9 305.2,251.5 220.4,261.4 189.4,257 147.5,243.6 
			89.9,206.8 71.3,193.7 		"/>
		<polygon class="st1" points="367.2,171.7 373.7,209.8 373.7,255.7 196.4,284.7 93.7,244.9 93.7,184.7 114,177.5 120.5,192.8 
			148.8,217.4 187.6,235.9 239.7,238.7 283.3,235.9 334.6,215.6 358.5,193.2 		"/>
		
			<image style="overflow:visible;" width="257" height="196" xlink:href="C443A2A8BAFAC6F2.jpg"  transform="matrix(2.1456 0 0 2.1476 -34.0444 28.2794)">
		</image>
		<g class="st2">
			<path class="st4" d="M221.7,246.4c-2.9,0-5.8-0.3-8.7-0.8l-36.4-7.1c-4.4-0.9-8.7-2.4-12.7-4.5l-27.1-14.5
				c-2.7-1.4-5.2-3.1-7.5-5L116.7,204c-7.2-5.9-12.3-13.8-14.8-22.8l-1.7-6.2c-2-7.2-2.2-14.9-0.5-22.3l1.7-7.1
				c1.7-7.5,5.4-14.5,10.6-20.2l8.8-9.7c3.1-3.4,6.7-6.3,10.7-8.6l18.2-10.6c2.7-1.6,5.5-2.8,8.4-3.8l21-7c3.5-1.2,7.2-1.9,10.8-2.2
				l31.1-2.4c1.1-0.1,2.3-0.1,3.5-0.1c0.7,0,1.4,0,2.1,0l27.4,1.3c1.6,0.1,3.3,0.2,4.8,0.5l23,3.6c1.7,0.3,3.5,0.6,5.2,1.1l24,6.7
				c3.2,0.9,6.3,2.1,9.2,3.7l20.7,11c4.4,2.4,8.4,5.5,11.9,9.1l9.9,10.7c3.5,3.7,6.2,8,8.3,12.7l4.2,9.6c2.5,5.7,3.8,11.8,3.8,18.1
				c0,10.4-3.6,20.6-10.3,28.7l-2.3,2.8c-3.1,3.7-6.7,6.9-10.8,9.5L338.1,221c-0.9,0.6-1.8,1.1-2.8,1.6L314.2,234
				c-3.9,2.1-8.1,3.6-12.5,4.5l-34.7,7c-2.9,0.6-5.9,0.9-8.9,0.9H221.7z M228.1,96.6c-0.7,0-1.4,0-2.1,0.1l-23.4,1.8
				c-2.2,0.2-4.4,0.6-6.5,1.3l-15.7,5.2c-1.7,0.6-3.4,1.3-5,2.3l-13.6,7.9c-2.4,1.4-4.5,3.1-6.4,5.1l-6.6,7.3
				c-3.1,3.4-5.3,7.6-6.3,12l-1.2,5.4c-1,4.4-0.9,8.9,0.3,13.3l1.3,4.6c1.5,5.4,4.5,10.1,8.8,13.6l9.5,7.8c1.4,1.1,2.9,2.2,4.5,3
				l20.4,10.9c2.4,1.3,4.9,2.2,7.5,2.7l27.3,5.3c1.7,0.3,3.4,0.5,5.2,0.5h27.3c1.8,0,3.6-0.2,5.3-0.5l26-5.2
				c2.6-0.5,5.1-1.4,7.4-2.7l15.9-8.5c0.6-0.3,1.1-0.6,1.6-1l13.1-8.3c2.4-1.5,4.6-3.4,6.4-5.7l1.7-2.1c3.9-4.8,6.1-10.9,6.1-17.1
				c0-3.7-0.8-7.4-2.2-10.8l-3.1-7.2c-1.2-2.8-2.9-5.3-4.9-7.5l-7.4-8c-2-2.2-4.4-4-7.1-5.4l-15.5-8.3c-1.7-0.9-3.6-1.7-5.5-2.2
				l-18-5c-1-0.3-2-0.5-3.1-0.7l-17.2-2.7c-1-0.1-1.9-0.2-2.9-0.3l-20.5-1C229,96.6,228.6,96.6,228.1,96.6z"/>
			<path d="M224.6,84.9c0.6,0,1.3,0,1.9,0l27.4,1.3c1.5,0.1,3,0.2,4.4,0.4l23,3.6c1.6,0.2,3.2,0.6,4.7,1l24,6.7
				c2.9,0.8,5.7,1.9,8.4,3.4l20.7,11c4,2.2,7.7,5,10.8,8.3l9.9,10.7c3.1,3.4,5.7,7.3,7.5,11.5l4.2,9.6c2.3,5.2,3.4,10.8,3.4,16.5v0
				c0,9.5-3.3,18.8-9.4,26.2l-2.3,2.8c-2.8,3.4-6.1,6.3-9.8,8.7L336,217.7c-0.8,0.5-1.7,1-2.5,1.5l-21.1,11.4
				c-3.6,1.9-7.4,3.3-11.4,4.1l-34.7,7c-2.7,0.5-5.4,0.8-8.1,0.8h-36.4c-2.7,0-5.3-0.3-7.9-0.8l-36.4-7.1c-4-0.8-7.9-2.2-11.5-4.1
				l-27.1-14.5c-2.4-1.3-4.7-2.8-6.8-4.6l-12.6-10.4c-6.5-5.4-11.2-12.7-13.5-20.8l-1.7-6.2c-1.8-6.6-2-13.6-0.4-20.3l1.7-7.1
				c1.6-6.9,4.9-13.2,9.7-18.4l8.8-9.7c2.8-3.1,6.1-5.8,9.7-7.9l18.2-10.6c2.4-1.4,5-2.6,7.7-3.5l21-7c3.2-1.1,6.5-1.7,9.9-2
				l31.1-2.4C222.5,84.9,223.6,84.9,224.6,84.9 M225.9,210.7h27.3c2,0,4.1-0.2,6.1-0.6l26-5.2c3-0.6,5.9-1.6,8.5-3.1l15.9-8.5
				c0.6-0.3,1.3-0.7,1.9-1.1l13.1-8.3c2.8-1.8,5.3-4,7.4-6.5l1.7-2.1c4.5-5.5,7-12.5,7-19.6v0c0-4.3-0.9-8.5-2.6-12.4l-3.1-7.2
				c-1.4-3.2-3.3-6.1-5.7-8.7l-7.4-8c-2.3-2.5-5.1-4.6-8.1-6.3l-15.5-8.3c-2-1.1-4.1-1.9-6.3-2.5l-18-5c-1.2-0.3-2.3-0.6-3.5-0.8
				l-17.2-2.7c-1.1-0.2-2.2-0.3-3.3-0.3l-20.5-1c-0.5,0-1,0-1.4,0c-0.8,0-1.6,0-2.4,0.1l-23.4,1.8c-2.5,0.2-5,0.7-7.4,1.5l-15.7,5.2
				c-2,0.7-3.9,1.5-5.8,2.6l-13.6,7.9c-2.7,1.6-5.2,3.6-7.3,5.9l-6.6,7.3c-3.6,3.9-6.1,8.7-7.3,13.8l-1.2,5.4
				c-1.2,5-1.1,10.3,0.3,15.2l1.3,4.6c1.7,6.1,5.2,11.6,10.1,15.6l9.5,7.8c1.6,1.3,3.3,2.5,5.1,3.4l20.4,10.9
				c2.7,1.5,5.6,2.5,8.7,3.1l27.3,5.3C222,210.5,224,210.7,225.9,210.7 M224.6,76.9c-1.3,0-2.5,0-3.8,0.1l-31.1,2.4
				c-4,0.3-8,1.1-11.8,2.4l-21,7c-3.2,1.1-6.3,2.5-9.2,4.2l-18.2,10.6c-4.3,2.5-8.3,5.7-11.6,9.4l-8.8,9.7
				c-5.7,6.2-9.7,13.8-11.6,22l-1.7,7.1c-1.8,8-1.7,16.3,0.5,24.2l1.7,6.2c2.7,9.8,8.3,18.4,16.1,24.8l12.6,10.4
				c2.5,2.1,5.3,3.9,8.2,5.5l27.1,14.5c4.3,2.3,9,4,13.8,4.9l36.4,7.1c3.1,0.6,6.3,0.9,9.4,0.9h36.4c3.3,0,6.5-0.3,9.7-1l34.7-7
				c4.8-1,9.3-2.6,13.6-4.9l21.1-11.4c1-0.5,2-1.1,3-1.8l17.5-11.1c4.4-2.8,8.4-6.3,11.7-10.4l2.3-2.8c7.2-8.8,11.2-19.9,11.2-31.2
				c0-6.8-1.4-13.4-4.1-19.7l-4.2-9.6c-2.2-5.1-5.2-9.7-9-13.8l-9.9-10.7c-3.7-4-8.1-7.4-12.9-10l-20.7-11c-3.2-1.7-6.6-3-10-4
				l-24-6.7c-1.8-0.5-3.7-0.9-5.6-1.2l-23-3.6c-1.7-0.3-3.5-0.4-5.3-0.5L226.9,77C226.1,76.9,225.4,76.9,224.6,76.9L224.6,76.9z
				 M225.9,202.7c-1.5,0-2.9-0.1-4.4-0.4l-27.3-5.3c-2.2-0.4-4.4-1.2-6.4-2.3l-20.4-10.9c-1.3-0.7-2.6-1.6-3.8-2.6l-9.5-7.8
				c-3.6-3-6.2-7-7.5-11.6l-1.3-4.6c-1-3.7-1.1-7.6-0.2-11.3l1.2-5.4c0.9-3.8,2.7-7.4,5.4-10.3l6.6-7.3c1.6-1.7,3.4-3.2,5.4-4.4
				l13.6-7.9c1.4-0.8,2.8-1.4,4.3-1.9l15.7-5.2c1.8-0.6,3.6-1,5.5-1.1l23.4-1.8c0.6,0,1.2-0.1,1.8-0.1c0.4,0,0.7,0,1.1,0l20.5,1
				c0.8,0,1.6,0.1,2.5,0.2l17.2,2.7c0.9,0.1,1.8,0.3,2.6,0.6l18,5c1.6,0.4,3.2,1.1,4.7,1.9l15.5,8.3c2.3,1.2,4.3,2.8,6,4.6l7.4,8
				c1.8,1.9,3.2,4.1,4.2,6.4l3.1,7.2c1.3,2.9,1.9,6,1.9,9.2c0,5.3-1.8,10.5-5.2,14.5l-1.7,2.1c-1.6,1.9-3.4,3.5-5.5,4.8l-13.1,8.3
				c-0.5,0.3-0.9,0.6-1.4,0.8l-15.9,8.5c-2,1.1-4.1,1.8-6.3,2.3l-26,5.2c-1.5,0.3-3,0.5-4.5,0.5H225.9L225.9,202.7z"/>
		</g>
		<g class="st2">
			<path d="M226,80.6c0.6,0,1.2,0,1.7,0l24.7,1.1c1.3,0.1,2.7,0.2,4,0.4l20.8,3.2c1.4,0.2,2.8,0.5,4.2,0.9l21.7,6
				c2.6,0.7,5.2,1.7,7.6,3l18.6,10c3.7,1.9,7,4.5,9.8,7.5l8.9,9.6c2.8,3.1,5.1,6.6,6.8,10.4l3.8,8.6c2.1,4.7,3.1,9.8,3.1,14.9v0
				c0,8.6-3,17-8.4,23.6l-2.1,2.5c-2.5,3.1-5.5,5.7-8.9,7.8l-15.8,10c-0.7,0.5-1.5,0.9-2.3,1.3L305.2,212c-3.2,1.7-6.7,3-10.3,3.7
				l-31.3,6.3c-2.4,0.5-4.9,0.7-7.3,0.7h-32.9c-2.4,0-4.8-0.2-7.1-0.7l-32.8-6.4c-3.6-0.7-7.1-2-10.4-3.7l-24.5-13.1
				c-2.2-1.2-4.3-2.6-6.2-4.1l-11.4-9.4c-5.9-4.9-10.1-11.4-12.2-18.8l-1.5-5.6c-1.6-6-1.8-12.3-0.4-18.3l1.5-6.4
				c1.4-6.2,4.5-11.9,8.7-16.7l8-8.8c2.6-2.8,5.5-5.2,8.8-7.1l16.4-9.5c2.2-1.3,4.5-2.3,6.9-3.1l18.9-6.3c2.9-1,5.9-1.6,8.9-1.8
				l28.1-2.2C224.1,80.6,225,80.6,226,80.6 M226,72.6L226,72.6c-1.2,0-2.3,0-3.5,0.1l-28.1,2.2c-3.7,0.3-7.3,1-10.8,2.2l-18.9,6.3
				c-2.9,1-5.8,2.3-8.4,3.8l-16.4,9.5c-4,2.3-7.6,5.2-10.7,8.6l-8,8.8c-5.2,5.7-8.9,12.7-10.6,20.2l-1.5,6.4
				c-1.7,7.3-1.5,15,0.5,22.3l1.5,5.6c2.5,9,7.6,16.9,14.8,22.8l11.4,9.4c2.3,1.9,4.8,3.6,7.5,5l24.5,13.1c4,2.1,8.2,3.6,12.6,4.5
				l32.8,6.4c2.8,0.6,5.8,0.8,8.7,0.8h32.9c3,0,6-0.3,8.9-0.9l31.3-6.3c4.4-0.9,8.6-2.4,12.5-4.5l19.1-10.3c0.9-0.5,1.9-1,2.8-1.6
				l15.8-10c4.1-2.6,7.7-5.8,10.8-9.5l2.1-2.5c6.6-8.1,10.3-18.3,10.3-28.7c0-6.3-1.3-12.4-3.8-18.1l-3.8-8.6
				c-2-4.7-4.8-8.9-8.3-12.7l-8.9-9.6c-3.4-3.7-7.4-6.8-11.9-9.1l-18.6-10c-2.9-1.6-6-2.8-9.2-3.7l-21.7-6c-1.7-0.5-3.4-0.8-5.2-1.1
				l-20.8-3.2c-1.6-0.2-3.2-0.4-4.8-0.5l-24.7-1.1C227.4,72.6,226.7,72.6,226,72.6L226,72.6z"/>
		</g>
	</g>
	<g id="Layer_4" class="st0">
		<g class="st2">
			<path class="st4" d="M193.3,392.2c-9.2,0-18.1-1.9-26.5-5.5l-13.2-5.8c-4.5-1.9-8.7-4.4-12.6-7.3l-56.2-41.2
				c-7.1-5.2-13-11.7-17.6-19.3l-2.9-4.8c-6.2-10.3-9.5-22.1-9.5-34.1v-65.2c0-10.1,2.4-20.2,6.8-29.2l8.6-17.4
				c1.6-3.3,3.5-6.4,5.6-9.4l25.8-36c3.3-4.6,7.2-8.7,11.5-12.3l4.5-3.8c5-4.1,10.6-7.5,16.5-10.1l3.8-1.6c6.6-2.8,13.6-4.5,20.8-5
				l70.5-5.3c1.6-0.1,3.3-0.2,5-0.2h47.7c4,0,8.1,0.4,12,1.1l10,1.8c7.3,1.3,14.2,3.9,20.7,7.5l18.8,10.7c2.6,1.4,5,3.1,7.4,4.9
				l18.7,14.2l22.5,15.8c4.9,3.4,9.3,7.5,13,12.1c10.6,12.9,15.9,29.1,15,45.7l-3.4,60.9c-0.4,6.8-1.8,13.5-4.2,19.8l-4,10.5
				c-0.9,2.3-1.9,4.6-3,6.8l-26.6,51.8c-6.7,13.1-17.8,23.7-31.2,29.9l-9.5,4.4c-7.1,3.3-14.7,5.2-22.4,5.9L198.5,392
				C196.8,392.1,195,392.2,193.3,392.2C193.3,392.2,193.3,392.2,193.3,392.2z"/>
			<path d="M281.8,82.8c3.8,0,7.6,0.3,11.3,1l10,1.8c6.8,1.3,13.4,3.6,19.4,7.1l18.8,10.7c2.4,1.4,4.7,2.9,6.9,4.6l18.7,14.2
				l0.1,0.1l0.1,0.1l22.5,15.8c4.6,3.2,8.7,7,12.2,11.3c9.9,12.1,14.9,27.3,14.1,43l-3.4,60.9c-0.4,6.4-1.7,12.7-3.9,18.6l-4,10.5
				c-0.8,2.2-1.8,4.3-2.8,6.4l-26.6,51.8C369,353,358.6,363,346,368.8l-9.5,4.4c-6.7,3.1-13.8,4.9-21.1,5.5L198.2,388
				c-1.6,0.1-3.3,0.2-4.9,0.2c-8.6,0-17-1.7-24.9-5.2l-13.2-5.8c-4.2-1.8-8.2-4.1-11.9-6.8L87,329.2c-6.7-4.9-12.3-11-16.5-18.1
				l-2.9-4.8c-5.8-9.7-8.9-20.8-8.9-32.1v-56.5v-8.7c0-9.5,2.2-19,6.4-27.5l8.6-17.4c1.5-3.1,3.3-6,5.3-8.8l25.8-36
				c3.1-4.3,6.7-8.2,10.8-11.6l4.5-3.8c4.7-3.9,9.9-7.1,15.5-9.4l3.8-1.6c6.2-2.6,12.8-4.2,19.5-4.7l70.5-5.3
				c1.5-0.1,3.1-0.2,4.7-0.2H281.8 M281.8,74.8h-47.7c-1.8,0-3.5,0.1-5.3,0.2l-70.5,5.3c-7.6,0.6-15,2.4-22.1,5.3l-3.8,1.6
				c-6.3,2.7-12.2,6.3-17.5,10.7l-4.5,3.8c-4.6,3.8-8.7,8.2-12.2,13.1l-25.8,36c-2.3,3.1-4.2,6.5-5.9,9.9L58,178.1
				c-4.7,9.6-7.2,20.2-7.2,31v8.7v56.5c0,12.7,3.5,25.3,10,36.2l2.9,4.8c4.8,8,11.1,14.9,18.7,20.4l56.2,41.2
				c4.2,3.1,8.7,5.6,13.4,7.7l13.2,5.8c8.9,3.9,18.4,5.9,28.1,5.9c1.9,0,3.7-0.1,5.6-0.2l117.3-9.4c8.2-0.7,16.3-2.8,23.8-6.2
				l9.5-4.4c14.3-6.6,25.9-17.7,33.1-31.7l26.6-51.8c1.2-2.3,2.3-4.7,3.2-7.2l4-10.5c2.6-6.7,4.1-13.8,4.5-21L424,193
				c1-17.6-4.7-34.9-15.9-48.5l0,0c-4-4.9-8.7-9.2-13.8-12.8l-22.5-15.8l-18.7-14.2c-2.5-1.9-5.1-3.6-7.8-5.2l-18.8-10.7
				c-6.8-3.9-14.2-6.6-21.9-8l-10-1.8C290.4,75.2,286.1,74.8,281.8,74.8L281.8,74.8z"/>
		</g>
		<g class="st2">
			<path d="M227.8,121.2c0.5,0,1.1,0,1.6,0l23.1,1.1c1.3,0.1,2.5,0.2,3.7,0.4l19.4,3.1c1.3,0.2,2.7,0.5,4,0.9l20.3,5.9
				c2.5,0.7,4.8,1.7,7.1,2.9l17.5,9.7c3.4,1.9,6.5,4.4,9.1,7.3l8.4,9.4c2.7,3,4.8,6.4,6.4,10.1l3.5,8.4c1.9,4.6,2.9,9.5,2.9,14.5
				c0,8.4-2.8,16.5-7.9,23l-2,2.5c-2.4,3-5.2,5.6-8.3,7.6l-14.8,9.7c-0.7,0.5-1.4,0.9-2.1,1.3l-17.9,10c-3,1.7-6.3,2.9-9.6,3.6
				l-29.3,6.1c-2.3,0.5-4.6,0.7-6.9,0.7h-30.8c-2.2,0-4.5-0.2-6.7-0.7l-30.7-6.2c-3.4-0.7-6.7-1.9-9.7-3.6l-22.9-12.7
				c-2.1-1.1-4-2.5-5.8-4l-10.7-9.2c-5.5-4.7-9.5-11.1-11.4-18.3l-1.4-5.4c-1.5-5.8-1.7-11.9-0.4-17.8l1.4-6.3
				c1.3-6,4.2-11.6,8.2-16.2l7.5-8.5c2.4-2.7,5.2-5.1,8.2-6.9l15.4-9.3c2.1-1.2,4.2-2.3,6.5-3.1l17.7-6.1c2.7-0.9,5.5-1.5,8.3-1.8
				l26.3-2.1C226,121.2,226.9,121.2,227.8,121.2 M227.8,109.2v12V109.2c-1.2,0-2.4,0-3.6,0.1l-26.3,2.1c-3.8,0.3-7.7,1.1-11.3,2.4
				l-17.7,6.1c-3.1,1.1-6,2.4-8.8,4.1l-15.4,9.3c-4.1,2.5-7.8,5.6-11,9.3l-7.5,8.5c-5.3,6.1-9.1,13.5-10.9,21.5l-1.4,6.3
				c-1.7,7.7-1.6,15.9,0.5,23.5l1.4,5.4c2.5,9.5,7.8,17.9,15.2,24.3l10.7,9.2c2.4,2.1,5,3.9,7.8,5.4l22.9,12.7
				c4.1,2.3,8.6,3.9,13.2,4.9l30.7,6.2c3,0.6,6,0.9,9.1,0.9h30.8c3.1,0,6.3-0.3,9.3-1l29.3-6.1c4.6-1,8.9-2.6,13-4.9l17.9-10
				c1-0.5,1.9-1.1,2.9-1.7l14.8-9.7c4.2-2.8,8-6.2,11.1-10.2l2-2.5c6.8-8.6,10.5-19.4,10.5-30.4c0-6.6-1.3-13.1-3.8-19.1l-3.5-8.4
				c-2.1-5-4.9-9.5-8.5-13.5l-8.4-9.4c-3.5-4-7.7-7.3-12.3-9.8l-17.5-9.7c-3-1.7-6.3-3-9.6-4l-20.3-5.9c-1.8-0.5-3.6-0.9-5.4-1.2
				l-19.4-3.1c-1.7-0.3-3.4-0.4-5.1-0.5l-23.1-1.1C229.2,109.2,228.5,109.2,227.8,109.2L227.8,109.2z"/>
		</g>
		<g class="st2">
			<path d="M227.8,146.5c0.5,0,1.1,0,1.6,0l23.1,1.1c1.3,0.1,2.5,0.2,3.7,0.4l19.4,3.1c1.3,0.2,2.7,0.5,4,0.9l20.3,5.9
				c2.5,0.7,4.8,1.7,7.1,2.9l17.5,9.7c3.4,1.9,6.5,4.4,9.1,7.3l8.4,9.4c2.7,3,4.8,6.4,6.4,10.1l3.5,8.4c1.9,4.6,2.9,9.5,2.9,14.5
				c0,8.4-2.8,16.5-7.9,23l-2,2.5c-2.4,3-5.2,5.6-8.3,7.6l-14.8,9.7c-0.7,0.5-1.4,0.9-2.1,1.3l-17.9,10c-3,1.7-6.3,2.9-9.6,3.6
				L263,284c-2.3,0.5-4.6,0.7-6.9,0.7h-30.8c-2.2,0-4.5-0.2-6.7-0.7l-30.7-6.2c-3.4-0.7-6.7-1.9-9.7-3.6l-22.9-12.7
				c-2.1-1.1-4-2.5-5.8-4l-10.7-9.2c-5.5-4.7-9.5-11.1-11.4-18.3l-1.4-5.4c-1.5-5.8-1.7-11.9-0.4-17.8l1.4-6.3
				c1.3-6,4.2-11.6,8.2-16.2l7.5-8.5c2.4-2.7,5.2-5.1,8.2-6.9l15.4-9.3c2.1-1.2,4.2-2.3,6.5-3.1l17.7-6.1c2.7-0.9,5.5-1.5,8.3-1.8
				l26.3-2.1C226,146.5,226.9,146.5,227.8,146.5 M227.8,132.5c-1.3,0-2.5,0.1-3.8,0.2l-26.3,2.1c-4,0.3-8,1.2-11.8,2.5l-17.7,6.1
				c-3.2,1.1-6.3,2.5-9.2,4.3l-15.4,9.3c-4.3,2.6-8.2,5.8-11.5,9.7l-7.5,8.5c-5.6,6.3-9.5,14.1-11.3,22.4l-1.4,6.3
				c-1.8,8-1.6,16.5,0.5,24.5l1.4,5.4c2.6,9.9,8.1,18.7,15.8,25.3l10.7,9.2c2.5,2.2,5.2,4.1,8.1,5.7l22.9,12.7
				c4.3,2.4,8.9,4.1,13.8,5.1l30.7,6.2c3.1,0.6,6.3,0.9,9.5,0.9h30.8c3.3,0,6.5-0.3,9.7-1l29.3-6.1c4.8-1,9.3-2.7,13.6-5.1l17.9-10
				c1-0.6,2-1.2,3-1.8l14.8-9.7c4.4-2.9,8.3-6.5,11.6-10.6l2-2.5c7-8.9,10.9-20.2,10.9-31.6c0-6.9-1.3-13.6-4-19.9l-3.5-8.4
				c-2.2-5.2-5.1-9.9-8.8-14l-8.4-9.4c-3.7-4.1-8-7.6-12.8-10.2l-17.5-9.7c-3.2-1.8-6.5-3.2-10-4.2l-20.3-5.9
				c-1.8-0.5-3.7-1-5.6-1.3l-19.4-3.1c-1.7-0.3-3.5-0.5-5.3-0.6l-23.1-1.1C229.3,132.5,228.5,132.5,227.8,132.5L227.8,132.5z"/>
		</g>
		<g class="st2">
			<path d="M227.8,171.7c0.5,0,1.1,0,1.6,0l23.1,1.1c1.3,0.1,2.5,0.2,3.7,0.4l19.4,3.1c1.3,0.2,2.7,0.5,4,0.9l20.3,5.9
				c2.5,0.7,4.8,1.7,7.1,2.9l17.5,9.7c3.4,1.9,6.5,4.4,9.1,7.3l8.4,9.4c2.7,3,4.8,6.4,6.4,10.1l3.5,8.4c1.9,4.6,2.9,9.5,2.9,14.5
				c0,8.4-2.8,16.5-7.9,23l-2,2.5c-2.4,3-5.2,5.6-8.3,7.6l-14.8,9.7c-0.7,0.5-1.4,0.9-2.1,1.3l-17.9,10c-3,1.7-6.3,2.9-9.6,3.6
				l-29.3,6.1c-2.3,0.5-4.6,0.7-6.9,0.7h-30.8c-2.2,0-4.5-0.2-6.7-0.7l-30.7-6.2c-3.4-0.7-6.7-1.9-9.7-3.6l-22.9-12.7
				c-2.1-1.1-4-2.5-5.8-4l-10.7-9.2c-5.5-4.7-9.5-11.1-11.4-18.3l-1.4-5.4c-1.5-5.8-1.7-11.9-0.4-17.8l1.4-6.3
				c1.3-6,4.2-11.6,8.2-16.2l7.5-8.5c2.4-2.7,5.2-5.1,8.2-6.9l15.4-9.3c2.1-1.2,4.2-2.3,6.5-3.1l17.7-6.1c2.7-0.9,5.5-1.5,8.3-1.8
				l26.3-2.1C226,171.8,226.9,171.7,227.8,171.7 M227.8,158.7c-1.2,0-2.5,0-3.7,0.1l-26.3,2.1c-3.9,0.3-7.8,1.1-11.6,2.4l-17.7,6.1
				c-3.1,1.1-6.1,2.5-9,4.2l-15.4,9.3c-4.2,2.5-8,5.7-11.3,9.5l-7.5,8.5c-5.4,6.2-9.3,13.8-11.1,21.9l-1.4,6.3
				c-1.8,7.9-1.6,16.2,0.5,24l1.4,5.4c2.6,9.7,7.9,18.3,15.5,24.8l10.7,9.2c2.5,2.1,5.1,4,7.9,5.5l22.9,12.7c4.2,2.3,8.8,4,13.5,5
				L216,322c3,0.6,6.2,0.9,9.3,0.9h30.8c3.2,0,6.4-0.3,9.5-1l29.3-6.1c4.7-1,9.1-2.6,13.3-5l17.9-10c1-0.6,2-1.2,2.9-1.8l14.8-9.7
				c4.3-2.8,8.1-6.3,11.4-10.4l2-2.5c6.9-8.7,10.7-19.8,10.7-31c0-6.8-1.3-13.3-3.9-19.5l-3.5-8.4c-2.1-5.1-5-9.7-8.7-13.7l-8.4-9.4
				c-3.6-4-7.8-7.4-12.5-10l-17.5-9.7c-3.1-1.7-6.4-3.1-9.8-4.1l-20.3-5.9c-1.8-0.5-3.7-0.9-5.5-1.2l-19.4-3.1
				c-1.7-0.3-3.4-0.5-5.2-0.5l-23.1-1.1C229.3,158.8,228.5,158.7,227.8,158.7L227.8,158.7z"/>
		</g>
		<g class="st2">
			<path d="M227.8,196c0.5,0,1.1,0,1.6,0l23.1,1.1c1.3,0.1,2.5,0.2,3.7,0.4l19.4,3.1c1.3,0.2,2.7,0.5,4,0.9l20.3,5.9
				c2.5,0.7,4.8,1.7,7.1,2.9l17.5,9.7c3.4,1.9,6.5,4.4,9.1,7.3l8.4,9.4c2.7,3,4.8,6.4,6.4,10.1l3.5,8.4c1.9,4.6,2.9,9.5,2.9,14.5
				c0,8.4-2.8,16.5-7.9,23l-2,2.5c-2.4,3-5.2,5.6-8.3,7.6l-14.8,9.7c-0.7,0.5-1.4,0.9-2.1,1.3l-17.9,10c-3,1.7-6.3,2.9-9.6,3.6
				l-29.3,6.1c-2.3,0.5-4.6,0.7-6.9,0.7h-30.8c-2.2,0-4.5-0.2-6.7-0.7l-30.7-6.2c-3.4-0.7-6.7-1.9-9.7-3.6L155.2,311
				c-2.1-1.1-4-2.5-5.8-4l-10.7-9.2c-5.5-4.7-9.5-11.1-11.4-18.3l-1.4-5.4c-1.5-5.8-1.7-11.9-0.4-17.8l1.4-6.3
				c1.3-6,4.2-11.6,8.2-16.2l7.5-8.5c2.4-2.7,5.2-5.1,8.2-6.9l15.4-9.3c2.1-1.2,4.2-2.3,6.5-3.1l17.7-6.1c2.7-0.9,5.5-1.5,8.3-1.8
				l26.3-2.1C226,196.1,226.9,196,227.8,196 M227.8,183c-1.2,0-2.5,0-3.7,0.1l-26.3,2.1c-3.9,0.3-7.8,1.1-11.6,2.4l-17.7,6.1
				c-3.1,1.1-6.1,2.5-9,4.2l-15.4,9.3c-4.2,2.5-8,5.7-11.3,9.5l-7.5,8.5c-5.4,6.2-9.3,13.8-11.1,21.9l-1.4,6.3
				c-1.8,7.9-1.6,16.2,0.5,24l1.4,5.4c2.6,9.7,7.9,18.3,15.5,24.8l10.7,9.2c2.5,2.1,5.1,4,7.9,5.5l22.9,12.7c4.2,2.3,8.8,4,13.5,5
				l30.7,6.2c3,0.6,6.2,0.9,9.3,0.9h30.8c3.2,0,6.4-0.3,9.5-1l29.3-6.1c4.7-1,9.1-2.6,13.3-5l17.9-10c1-0.6,2-1.2,2.9-1.8l14.8-9.7
				c4.3-2.8,8.1-6.3,11.4-10.4l2-2.5c6.9-8.7,10.7-19.8,10.7-31c0-6.8-1.3-13.3-3.9-19.5l-3.5-8.4c-2.1-5.1-5-9.7-8.7-13.7l-8.4-9.4
				c-3.6-4-7.8-7.4-12.5-10l-17.5-9.7c-3.1-1.7-6.4-3.1-9.8-4.1l-20.3-5.9c-1.8-0.5-3.7-0.9-5.5-1.2l-19.4-3.1
				c-1.7-0.3-3.4-0.5-5.2-0.5l-23.1-1.1C229.3,183.1,228.5,183,227.8,183L227.8,183z"/>
		</g>
		<g class="st2">
			<path d="M227.8,217.4c0.5,0,1.1,0,1.6,0l23.1,1.1c1.3,0.1,2.5,0.2,3.7,0.4l19.4,3.1c1.3,0.2,2.7,0.5,4,0.9l20.3,5.9
				c2.5,0.7,4.8,1.7,7.1,2.9l17.5,9.7c3.4,1.9,6.5,4.4,9.1,7.3l8.4,9.4c2.7,3,4.8,6.4,6.4,10.1l3.5,8.4c1.9,4.6,2.9,9.5,2.9,14.5
				c0,8.4-2.8,16.5-7.9,23l-2,2.5c-2.4,3-5.2,5.6-8.3,7.6l-14.8,9.7c-0.7,0.5-1.4,0.9-2.1,1.3l-17.9,10c-3,1.7-6.3,2.9-9.6,3.6
				l-29.3,6.1c-2.3,0.5-4.6,0.7-6.9,0.7h-30.8c-2.2,0-4.5-0.2-6.7-0.7l-30.7-6.2c-3.4-0.7-6.7-1.9-9.7-3.6l-22.9-12.7
				c-2.1-1.1-4-2.5-5.8-4l-10.7-9.2c-5.5-4.7-9.5-11.1-11.4-18.3l-1.4-5.4c-1.5-5.8-1.7-11.9-0.4-17.8l1.4-6.3
				c1.3-6,4.2-11.6,8.2-16.2l7.5-8.5c2.4-2.7,5.2-5.1,8.2-6.9l15.4-9.3c2.1-1.2,4.2-2.3,6.5-3.1l17.7-6.1c2.7-0.9,5.5-1.5,8.3-1.8
				l26.3-2.1C226,217.5,226.9,217.4,227.8,217.4 M227.8,204.4c-1.2,0-2.5,0-3.7,0.1l-26.3,2.1c-3.9,0.3-7.8,1.1-11.6,2.4l-17.7,6.1
				c-3.1,1.1-6.1,2.5-9,4.2l-15.4,9.3c-4.2,2.5-8,5.7-11.3,9.5l-7.5,8.5c-5.4,6.2-9.3,13.8-11.1,21.9l-1.4,6.3
				c-1.8,7.9-1.6,16.2,0.5,24l1.4,5.4c2.6,9.7,7.9,18.3,15.5,24.8l10.7,9.2c2.5,2.1,5.1,4,7.9,5.5l22.9,12.7c4.2,2.3,8.8,4,13.5,5
				l30.7,6.2c3,0.6,6.2,0.9,9.3,0.9h30.8c3.2,0,6.4-0.3,9.5-1l29.3-6.1c4.7-1,9.1-2.6,13.3-5l17.9-10c1-0.6,2-1.2,2.9-1.8l14.8-9.7
				c4.3-2.8,8.1-6.3,11.4-10.4l2-2.5c6.9-8.7,10.7-19.8,10.7-31c0-6.8-1.3-13.3-3.9-19.5l-3.5-8.4c-2.1-5.1-5-9.7-8.7-13.7l-8.4-9.4
				c-3.6-4-7.8-7.4-12.5-10l-17.5-9.7c-3.1-1.7-6.4-3.1-9.8-4.1l-20.3-5.9c-1.8-0.5-3.7-0.9-5.5-1.2l-19.4-3.1
				c-1.7-0.3-3.4-0.5-5.2-0.5l-23.1-1.1C229.3,204.4,228.5,204.4,227.8,204.4L227.8,204.4z"/>
		</g>
		<g class="st2">
			<path d="M227.8,235.9c0.5,0,1.1,0,1.6,0l23.1,1c1.3,0.1,2.5,0.2,3.7,0.3l19.4,2.7c1.3,0.2,2.7,0.4,4,0.8l20.3,5.1
				c2.5,0.6,4.8,1.5,7.1,2.6l17.5,8.4c3.4,1.6,6.5,3.8,9.1,6.3l8.4,8.1c2.7,2.6,4.8,5.5,6.4,8.8l3.5,7.3c1.9,4,2.9,8.2,2.9,12.5
				c0,7.3-2.8,14.3-7.9,19.9l-2,2.1c-2.4,2.6-5.2,4.8-8.3,6.6l-14.8,8.4c-0.7,0.4-1.4,0.8-2.1,1.1l-17.9,8.6c-3,1.5-6.3,2.5-9.6,3.1
				L263,355c-2.3,0.4-4.6,0.6-6.9,0.6h-30.8c-2.2,0-4.5-0.2-6.7-0.6l-30.7-5.4c-3.4-0.6-6.7-1.6-9.7-3.1l-22.9-11
				c-2.1-1-4-2.2-5.8-3.5l-10.7-7.9c-5.5-4.1-9.5-9.6-11.4-15.8l-1.4-4.7c-1.5-5-1.7-10.3-0.4-15.4l1.4-5.4c1.3-5.2,4.2-10.1,8.2-14
				l7.5-7.4c2.4-2.4,5.2-4.4,8.2-6l15.4-8c2.1-1.1,4.2-2,6.5-2.6l17.7-5.3c2.7-0.8,5.5-1.3,8.3-1.5l26.3-1.8
				C226,235.9,226.9,235.9,227.8,235.9 M227.8,224.9c-1.1,0-2.3,0-3.4,0.1l-26.3,1.8c-3.7,0.3-7.3,0.9-10.7,2l-17.7,5.3
				c-2.9,0.9-5.8,2-8.4,3.4l-15.4,8c-4,2.1-7.7,4.8-10.9,7.9l-7.5,7.4c-5.4,5.4-9.3,12-11.1,19.1l-1.4,5.4c-1.8,7-1.6,14.4,0.5,21.4
				l1.4,4.7c2.6,8.5,7.9,15.9,15.3,21.4l10.7,7.9c2.4,1.8,4.9,3.3,7.6,4.6l22.9,11c4,1.9,8.2,3.3,12.6,4l30.7,5.4
				c2.8,0.5,5.7,0.7,8.6,0.7h30.8c3,0,5.9-0.3,8.8-0.8l29.3-5.3c4.3-0.8,8.5-2.1,12.5-4l17.9-8.6c0.9-0.5,1.9-0.9,2.8-1.5l14.8-8.4
				c4.2-2.4,7.9-5.3,11-8.8l2-2.1c7-7.6,10.8-17.3,10.8-27.3c0-6-1.4-11.9-4-17.3l-3.5-7.3c-2.1-4.4-5-8.4-8.6-11.9l-8.4-8.1
				c-3.5-3.4-7.5-6.2-12-8.4l-17.5-8.4c-2.9-1.4-6-2.5-9.2-3.3l-20.3-5.1c-1.7-0.4-3.4-0.8-5.1-1l-19.4-2.7
				c-1.6-0.2-3.2-0.4-4.8-0.4l-23.1-1C229.2,224.9,228.5,224.9,227.8,224.9L227.8,224.9z"/>
		</g>
		<polyline class="st1" points="59.6,220.3 98.6,332.1 188.9,386.7 219.2,382.3 261,382.4 308,377.5 375.6,338.6 399.1,256.7 
			400.1,149 403.4,156.8 400.6,167.5 389.9,191 368.6,226.6 350,238.7 327.3,247.9 305.2,251.5 220.4,261.4 189.4,257 147.5,243.6 
			89.9,206.8 71.3,193.7 		"/>
		<polygon class="st1" points="360.2,169.7 375.7,188.6 366.7,253.7 189.4,282.7 86.7,242.9 86.7,182.7 118.1,156.2 126.3,186.8 
			146.8,208.4 181.8,227.7 232.7,236.7 276.3,233.9 327.6,213.6 351.5,191.2 		"/>
		<g class="st2">
			<path d="M226.9,99.6c0.5,0,1.1,0,1.6,0l22.9,1.1c1.2,0.1,2.5,0.2,3.7,0.4l19.3,3c1.3,0.2,2.6,0.5,3.9,0.8l20.2,5.6
				c2.4,0.7,4.8,1.6,7,2.8l17.3,9.2c3.4,1.8,6.5,4.2,9.1,7l8.3,9c2.6,2.8,4.8,6.1,6.3,9.7l3.5,8c1.9,4.4,2.9,9.1,2.9,13.8
				c0,8-2.8,15.7-7.8,21.9l-1.9,2.4c-2.3,2.9-5.1,5.3-8.2,7.3l-14.7,9.3c-0.7,0.4-1.4,0.8-2.1,1.2l-17.7,9.5c-3,1.6-6.2,2.8-9.5,3.4
				l-29.1,5.8c-2.2,0.5-4.5,0.7-6.8,0.7h-30.5c-2.2,0-4.4-0.2-6.6-0.6l-30.5-5.9c-3.4-0.7-6.6-1.8-9.7-3.4l-22.8-12.2
				c-2-1.1-4-2.4-5.7-3.8l-10.6-8.7c-5.5-4.5-9.4-10.6-11.3-17.4l-1.4-5.2c-1.5-5.6-1.7-11.4-0.3-17l1.4-6
				c1.3-5.8,4.1-11.1,8.1-15.5l7.4-8.1c2.4-2.6,5.1-4.8,8.2-6.6l15.2-8.9c2-1.2,4.2-2.2,6.5-2.9l17.6-5.9c2.7-0.9,5.5-1.5,8.3-1.7
				l26.1-2C225.1,99.7,226,99.6,226.9,99.6 M226.9,91.6L226.9,91.6c-1.1,0-2.2,0-3.3,0.1l-26.1,2c-3.5,0.3-6.9,1-10.2,2.1l-17.6,5.9
				c-2.8,0.9-5.4,2.1-7.9,3.6l-15.2,8.9c-3.8,2.2-7.1,4.9-10.1,8.1l-7.4,8.1c-4.9,5.4-8.4,12-10,19l-1.4,6
				c-1.6,6.9-1.4,14.1,0.4,20.9l1.4,5.2c2.3,8.5,7.1,15.9,13.9,21.5l10.6,8.7c2.2,1.8,4.6,3.4,7.1,4.7l22.8,12.2
				c3.7,2,7.7,3.4,11.9,4.2l30.5,5.9c2.7,0.5,5.4,0.8,8.1,0.8H255c2.8,0,5.6-0.3,8.4-0.8l29.1-5.8c4.1-0.8,8.1-2.3,11.8-4.2
				l17.7-9.5c0.9-0.5,1.8-1,2.6-1.5l14.7-9.3c3.8-2.4,7.3-5.4,10.1-9l1.9-2.4c6.2-7.6,9.7-17.2,9.7-27c0-5.9-1.2-11.6-3.6-17l-3.5-8
				c-1.9-4.4-4.5-8.4-7.8-11.9l-8.3-9c-3.2-3.5-7-6.4-11.2-8.6l-17.3-9.2c-2.7-1.5-5.7-2.6-8.7-3.5l-20.2-5.6
				c-1.6-0.4-3.2-0.8-4.9-1l-19.3-3c-1.5-0.2-3-0.4-4.6-0.5l-22.9-1.1C228.2,91.7,227.6,91.6,226.9,91.6L226.9,91.6z"/>
		</g>
		
			<image style="overflow:visible;" width="257" height="196" xlink:href="C443A2A8BAFAC6F6.jpg"  transform="matrix(2.1456 0 0 2.1476 -34.0444 28.2794)">
		</image>
	</g>
	<g id="Layer_12" class="st0">
		<path class="st3" d="M408.7,249.7l-1,20.7c-1,19.2-9.4,37.2-23.5,50.2c-22.5,20.7-65.8,49.1-148.4,48.7
			c-88.1-0.3-134-35.8-153.6-60.1c-7.7-9.6-12-21.4-12.4-33.7l-1-33.6"/>
		<g class="st2">
			<path class="st4" d="M248.9,352.7c-49.5,0-95.7-11.2-130.2-31.4c-32.1-18.7-50.5-43.6-50.5-68.1c0-33.2,18.6-59.3,55.3-77.2
				c28.8-14.1,67.6-22.3,106.4-22.3h0.3c66.7,0,109.5,18.9,133.6,34.5c26.4,17.1,44.1,40.1,45.1,58.4c1.1,20.6-5.9,39.1-20.9,55
				c-19.5,20.6-48.5,32.8-69.5,39.4c-27.5,8.6-53.9,11.8-69.4,11.8H248.9z"/>
			<path d="M229.7,157.7L229.7,157.7h0.4c65.7,0,107.7,18.5,131.4,33.9c13.5,8.7,24.7,19,32.4,29.5c6.6,9.1,10.5,18.2,10.9,25.7
				c1.1,19.5-5.6,37-19.8,52c-18.9,20-47.3,31.9-67.8,38.3c-27.1,8.4-53,11.6-68.3,11.6h-0.2c-48.8,0-94.3-11-128.2-30.8
				c-30.8-18-48.5-41.6-48.5-64.6c0-16.5,5-31.3,14.7-43.9c8.9-11.5,21.7-21.5,38.3-29.6c28.3-13.8,66.6-21.9,104.6-21.9
				 M229.8,149.7c-67.5,0-165.7,26.1-165.7,103.5c0,52.9,78.4,103.5,184.7,103.5c0.1,0,0.1,0,0.2,0c49.3,0,168.3-27.9,163.8-110.3
				c-1.9-35.4-62.3-96.7-182.7-96.7C230,149.7,229.9,149.7,229.8,149.7L229.8,149.7z"/>
		</g>
		<g class="st2">
			<path d="M237.7,221.7L237.7,221.7L237.7,221.7c21.1,0,34.5,5.9,42.1,10.8c8.8,5.7,12.3,12,12.4,14.8c0.3,5.2-1.5,9.8-5.3,13.9
				c-4.5,4.8-11.7,8.8-20.9,11.7c-8.7,2.7-17,3.7-21.8,3.7l0,8l-0.1-8c-31.6,0-55.2-14.4-55.2-27.3c0-8.7,5.1-15.5,15.3-20.5
				C213,224.5,225.7,221.8,237.7,221.7 M237.6,213.7c-23.1,0-56.7,9-56.7,35.5c0,18.1,26.8,35.5,63.2,35.5c0,0,0,0,0.1,0
				c16.9,0,57.6-9.6,56.1-37.8c-0.7-12.1-21.3-33.2-62.5-33.2C237.6,213.7,237.6,213.7,237.6,213.7L237.6,213.7z"/>
		</g>
	</g>
	<linearGradient id="SVGID_1_" gradientUnits="userSpaceOnUse" x1="221.6422" y1="54.6258" x2="221.6422" y2="1.332774e-07">
		<stop  offset="0" style="stop-color:#FFFFFF;stop-opacity:0"/>
		<stop  offset="8.192581e-02" style="stop-color:#FFFFFF;stop-opacity:8.192581e-02"/>
		<stop  offset="1" style="stop-color:#FFFFFF"/>
	</linearGradient>
	<rect y="0" class="st21" width="443.3" height="54.6"/>
	
		<linearGradient id="SVGID_2_" gradientUnits="userSpaceOnUse" x1="187.035" y1="139.5569" x2="187.035" y2="84.9311" gradientTransform="matrix(4.489700e-11 -1 1 4.489700e-11 -84.9311 361.5738)">
		<stop  offset="0" style="stop-color:#FFFFFF;stop-opacity:0"/>
		<stop  offset="8.192581e-02" style="stop-color:#FFFFFF;stop-opacity:8.192581e-02"/>
		<stop  offset="1" style="stop-color:#FFFFFF"/>
	</linearGradient>
	<polygon class="st22" points="54.6,1.3 54.6,347.8 0,347.8 0,1.3 	"/>
	<g>
	</g>
	<g>
	</g>
	<g>
	</g>
	<g>
	</g>
	<g>
	</g>
	<g>
	</g>
	<g>
	</g>
	<g>
	</g>
	<g>
	</g>
	<g>
	</g>
	<g>
	</g>
	<g>
	</g>
	<g>
	</g>
	<g>
	</g>
	<g>
	</g>
</g>
</svg>
