<?xml version="1.0" encoding="utf-8"?>
<!-- Generator: Adobe Illustrator 19.2.1, SVG Export Plug-In . SVG Version: 6.00 Build 0)  -->
<svg version="1.1" id="Layer_1" xmlns="http://www.w3.org/2000/svg" xmlns:xlink="http://www.w3.org/1999/xlink" x="0px" y="0px"
	 viewBox="0 0 477.5 477.5" style="enable-background:new 0 0 477.5 477.5;" xml:space="preserve">
<style type="text/css">
	.st0{fill:#FFFFFF;}
</style>
<g>
	<path class="st0" d="M193.3,392.2c-9.2,0-18.1-1.9-26.5-5.5l-13.2-5.8c-4.5-1.9-8.7-4.4-12.6-7.3l-56.2-41.2
		c-7.1-5.2-13-11.7-17.6-19.3l-2.9-4.8c-6.2-10.3-9.5-22.1-9.5-34.1V209c0-10.1,2.4-20.2,6.8-29.2l8.6-17.4c1.6-3.3,3.5-6.4,5.6-9.4
		l25.8-36c3.3-4.6,7.2-8.7,11.5-12.3l4.5-3.8c5-4.1,10.6-7.5,16.5-10.1l3.8-1.6c6.6-2.8,13.6-4.5,20.8-5l70.5-5.3
		c1.6-0.1,3.3-0.2,5-0.2h47.7c4,0,8.1,0.4,12,1.1l10,1.8c7.3,1.3,14.2,3.9,20.7,7.5l18.8,10.7c2.6,1.4,5,3.1,7.4,4.9l18.7,14.2
		l22.5,15.8c4.9,3.4,9.3,7.5,13,12.1c10.6,12.9,15.9,29.1,15,45.7l-3.4,60.9c-0.4,6.8-1.8,13.5-4.2,19.8l-4,10.5
		c-0.9,2.3-1.9,4.6-3,6.8l-26.6,51.8c-6.7,13.1-17.8,23.7-31.2,29.9l-9.5,4.4c-7.1,3.3-14.7,5.2-22.4,5.9L198.5,392
		C196.8,392.1,195,392.2,193.3,392.2L193.3,392.2z"/>
	<path d="M281.8,82.8c3.8,0,7.6,0.3,11.3,1l10,1.8c6.8,1.3,13.4,3.6,19.4,7.1l18.8,10.7c2.4,1.4,4.7,2.9,6.9,4.6l18.7,14.2l0.1,0.1
		l0.1,0.1l22.5,15.8c4.6,3.2,8.7,7,12.2,11.3c9.9,12.1,14.9,27.3,14.1,43l-3.4,60.9c-0.4,6.4-1.7,12.7-3.9,18.6l-4,10.5
		c-0.8,2.2-1.8,4.3-2.8,6.4l-26.6,51.8C369,353,358.6,363,346,368.8l-9.5,4.4c-6.7,3.1-13.8,4.9-21.1,5.5L198.2,388
		c-1.6,0.1-3.3,0.2-4.9,0.2c-8.6,0-17-1.7-24.9-5.2l-13.2-5.8c-4.2-1.8-8.2-4.1-11.9-6.8L87,329.2c-6.7-4.9-12.3-11-16.5-18.1
		l-2.9-4.8c-5.8-9.7-8.9-20.8-8.9-32.1v-56.5V209c0-9.5,2.2-19,6.4-27.5l8.6-17.4c1.5-3.1,3.3-6,5.3-8.8l25.8-36
		c3.1-4.3,6.7-8.2,10.8-11.6l4.5-3.8c4.7-3.9,9.9-7.1,15.5-9.4l3.8-1.6c6.2-2.6,12.8-4.2,19.5-4.7l70.5-5.3c1.5-0.1,3.1-0.2,4.7-0.2
		L281.8,82.8 M281.8,74.8h-47.7c-1.8,0-3.5,0.1-5.3,0.2l-70.5,5.3c-7.6,0.6-15,2.4-22.1,5.3l-3.8,1.6c-6.3,2.7-12.2,6.3-17.5,10.7
		l-4.5,3.8c-4.6,3.8-8.7,8.2-12.2,13.1l-25.8,36c-2.3,3.1-4.2,6.5-5.9,9.9L58,178.1c-4.7,9.6-7.2,20.2-7.2,31v8.7v56.5
		c0,12.7,3.5,25.3,10,36.2l2.9,4.8c4.8,8,11.1,14.9,18.7,20.4l56.2,41.2c4.2,3.1,8.7,5.6,13.4,7.7l13.2,5.8
		c8.9,3.9,18.4,5.9,28.1,5.9c1.9,0,3.7-0.1,5.6-0.2l117.3-9.4c8.2-0.7,16.3-2.8,23.8-6.2l9.5-4.4c14.3-6.6,25.9-17.7,33.1-31.7
		l26.6-51.8c1.2-2.3,2.3-4.7,3.2-7.2l4-10.5c2.6-6.7,4.1-13.8,4.5-21L424,193c1-17.6-4.7-34.9-15.9-48.5l0,0
		c-4-4.9-8.7-9.2-13.8-12.8l-22.5-15.8l-18.7-14.2c-2.5-1.9-5.1-3.6-7.8-5.2l-18.8-10.7c-6.8-3.9-14.2-6.6-21.9-8l-10-1.8
		C290.4,75.2,286.1,74.8,281.8,74.8L281.8,74.8z"/>
</g>
<g>
	<path d="M227.8,146.5c0.5,0,1.1,0,1.6,0l23.1,1.1c1.3,0.1,2.5,0.2,3.7,0.4l19.4,3.1c1.3,0.2,2.7,0.5,4,0.9l20.3,5.9
		c2.5,0.7,4.8,1.7,7.1,2.9l17.5,9.7c3.4,1.9,6.5,4.4,9.1,7.3l8.4,9.4c2.7,3,4.8,6.4,6.4,10.1l3.5,8.4c1.9,4.6,2.9,9.5,2.9,14.5
		c0,8.4-2.8,16.5-7.9,23l-2,2.5c-2.4,3-5.2,5.6-8.3,7.6l-14.8,9.7c-0.7,0.5-1.4,0.9-2.1,1.3l-17.9,10c-3,1.7-6.3,2.9-9.6,3.6
		L263,284c-2.3,0.5-4.6,0.7-6.9,0.7h-30.8c-2.2,0-4.5-0.2-6.7-0.7l-30.7-6.2c-3.4-0.7-6.7-1.9-9.7-3.6l-22.9-12.7
		c-2.1-1.1-4-2.5-5.8-4l-10.7-9.2c-5.5-4.7-9.5-11.1-11.4-18.3l-1.4-5.4c-1.5-5.8-1.7-11.9-0.4-17.8l1.4-6.3
		c1.3-6,4.2-11.6,8.2-16.2l7.5-8.5c2.4-2.7,5.2-5.1,8.2-6.9l15.4-9.3c2.1-1.2,4.2-2.3,6.5-3.1l17.7-6.1c2.7-0.9,5.5-1.5,8.3-1.8
		l26.3-2.1C226,146.5,226.9,146.5,227.8,146.5 M227.8,132.5c-1.3,0-2.5,0.1-3.8,0.2l-26.3,2.1c-4,0.3-8,1.2-11.8,2.5l-17.7,6.1
		c-3.2,1.1-6.3,2.5-9.2,4.3l-15.4,9.3c-4.3,2.6-8.2,5.8-11.5,9.7l-7.5,8.5c-5.6,6.3-9.5,14.1-11.3,22.4l-1.4,6.3
		c-1.8,8-1.6,16.5,0.5,24.5l1.4,5.4c2.6,9.9,8.1,18.7,15.8,25.3l10.7,9.2c2.5,2.2,5.2,4.1,8.1,5.7l22.9,12.7
		c4.3,2.4,8.9,4.1,13.8,5.1l30.7,6.2c3.1,0.6,6.3,0.9,9.5,0.9h30.8c3.3,0,6.5-0.3,9.7-1l29.3-6.1c4.8-1,9.3-2.7,13.6-5.1l17.9-10
		c1-0.6,2-1.2,3-1.8l14.8-9.7c4.4-2.9,8.3-6.5,11.6-10.6l2-2.5c7-8.9,10.9-20.2,10.9-31.6c0-6.9-1.3-13.6-4-19.9l-3.5-8.4
		c-2.2-5.2-5.1-9.9-8.8-14l-8.4-9.4c-3.7-4.1-8-7.6-12.8-10.2l-17.5-9.7c-3.2-1.8-6.5-3.2-10-4.2l-20.3-5.9c-1.8-0.5-3.7-1-5.6-1.3
		l-19.4-3.1c-1.7-0.3-3.5-0.5-5.3-0.6l-23.1-1.1C229.3,132.5,228.5,132.5,227.8,132.5L227.8,132.5z"/>
</g>
<g>
	<path d="M227.8,171.7c0.5,0,1.1,0,1.6,0l23.1,1.1c1.3,0.1,2.5,0.2,3.7,0.4l19.4,3.1c1.3,0.2,2.7,0.5,4,0.9l20.3,5.9
		c2.5,0.7,4.8,1.7,7.1,2.9l17.5,9.7c3.4,1.9,6.5,4.4,9.1,7.3l8.4,9.4c2.7,3,4.8,6.4,6.4,10.1l3.5,8.4c1.9,4.6,2.9,9.5,2.9,14.5
		c0,8.4-2.8,16.5-7.9,23l-2,2.5c-2.4,3-5.2,5.6-8.3,7.6l-14.8,9.7c-0.7,0.5-1.4,0.9-2.1,1.3l-17.9,10c-3,1.7-6.3,2.9-9.6,3.6
		l-29.3,6.1c-2.3,0.5-4.6,0.7-6.9,0.7h-30.8c-2.2,0-4.5-0.2-6.7-0.7l-30.7-6.2c-3.4-0.7-6.7-1.9-9.7-3.6l-22.9-12.7
		c-2.1-1.1-4-2.5-5.8-4l-10.7-9.2c-5.5-4.7-9.5-11.1-11.4-18.3l-1.4-5.4c-1.5-5.8-1.7-11.9-0.4-17.8l1.4-6.3
		c1.3-6,4.2-11.6,8.2-16.2l7.5-8.5c2.4-2.7,5.2-5.1,8.2-6.9l15.4-9.3c2.1-1.2,4.2-2.3,6.5-3.1l17.7-6.1c2.7-0.9,5.5-1.5,8.3-1.8
		l26.3-2.1C226,171.8,226.9,171.7,227.8,171.7 M227.8,158.7c-1.2,0-2.5,0-3.7,0.1l-26.3,2.1c-3.9,0.3-7.8,1.1-11.6,2.4l-17.7,6.1
		c-3.1,1.1-6.1,2.5-9,4.2l-15.4,9.3c-4.2,2.5-8,5.7-11.3,9.5l-7.5,8.5c-5.4,6.2-9.3,13.8-11.1,21.9l-1.4,6.3
		c-1.8,7.9-1.6,16.2,0.5,24l1.4,5.4c2.6,9.7,7.9,18.3,15.5,24.8l10.7,9.2c2.5,2.1,5.1,4,7.9,5.5l22.9,12.7c4.2,2.3,8.8,4,13.5,5
		L216,322c3,0.6,6.2,0.9,9.3,0.9h30.8c3.2,0,6.4-0.3,9.5-1l29.3-6.1c4.7-1,9.1-2.6,13.3-5l17.9-10c1-0.6,2-1.2,2.9-1.8l14.8-9.7
		c4.3-2.8,8.1-6.3,11.4-10.4l2-2.5c6.9-8.7,10.7-19.8,10.7-31c0-6.8-1.3-13.3-3.9-19.5l-3.5-8.4c-2.1-5.1-5-9.7-8.7-13.7l-8.4-9.4
		c-3.6-4-7.8-7.4-12.5-10l-17.5-9.7c-3.1-1.7-6.4-3.1-9.8-4.1l-20.3-5.9c-1.8-0.5-3.7-0.9-5.5-1.2l-19.4-3.1
		c-1.7-0.3-3.4-0.5-5.2-0.5l-23.1-1.1C229.3,158.8,228.5,158.7,227.8,158.7L227.8,158.7z"/>
</g>
<g>
	<path d="M227.8,196c0.5,0,1.1,0,1.6,0l23.1,1.1c1.3,0.1,2.5,0.2,3.7,0.4l19.4,3.1c1.3,0.2,2.7,0.5,4,0.9l20.3,5.9
		c2.5,0.7,4.8,1.7,7.1,2.9l17.5,9.7c3.4,1.9,6.5,4.4,9.1,7.3l8.4,9.4c2.7,3,4.8,6.4,6.4,10.1l3.5,8.4c1.9,4.6,2.9,9.5,2.9,14.5
		c0,8.4-2.8,16.5-7.9,23l-2,2.5c-2.4,3-5.2,5.6-8.3,7.6l-14.8,9.7c-0.7,0.5-1.4,0.9-2.1,1.3l-17.9,10c-3,1.7-6.3,2.9-9.6,3.6
		l-29.3,6.1c-2.3,0.5-4.6,0.7-6.9,0.7h-30.8c-2.2,0-4.5-0.2-6.7-0.7l-30.7-6.2c-3.4-0.7-6.7-1.9-9.7-3.6L155.2,311
		c-2.1-1.1-4-2.5-5.8-4l-10.7-9.2c-5.5-4.7-9.5-11.1-11.4-18.3l-1.4-5.4c-1.5-5.8-1.7-11.9-0.4-17.8l1.4-6.3
		c1.3-6,4.2-11.6,8.2-16.2l7.5-8.5c2.4-2.7,5.2-5.1,8.2-6.9l15.4-9.3c2.1-1.2,4.2-2.3,6.5-3.1l17.7-6.1c2.7-0.9,5.5-1.5,8.3-1.8
		L225,196C226,196.1,226.9,196,227.8,196 M227.8,183c-1.2,0-2.5,0-3.7,0.1l-26.3,2.1c-3.9,0.3-7.8,1.1-11.6,2.4l-17.7,6.1
		c-3.1,1.1-6.1,2.5-9,4.2l-15.4,9.3c-4.2,2.5-8,5.7-11.3,9.5l-7.5,8.5c-5.4,6.2-9.3,13.8-11.1,21.9l-1.4,6.3
		c-1.8,7.9-1.6,16.2,0.5,24l1.4,5.4c2.6,9.7,7.9,18.3,15.5,24.8l10.7,9.2c2.5,2.1,5.1,4,7.9,5.5l22.9,12.7c4.2,2.3,8.8,4,13.5,5
		l30.7,6.2c3,0.6,6.2,0.9,9.3,0.9H256c3.2,0,6.4-0.3,9.5-1l29.3-6.1c4.7-1,9.1-2.6,13.3-5l17.9-10c1-0.6,2-1.2,2.9-1.8l14.8-9.7
		c4.3-2.8,8.1-6.3,11.4-10.4l2-2.5c6.9-8.7,10.7-19.8,10.7-31c0-6.8-1.3-13.3-3.9-19.5l-3.5-8.4c-2.1-5.1-5-9.7-8.7-13.7l-8.4-9.4
		c-3.6-4-7.8-7.4-12.5-10l-17.5-9.7c-3.1-1.7-6.4-3.1-9.8-4.1l-20.3-5.9c-1.8-0.5-3.7-0.9-5.5-1.2l-19.4-3.1
		c-1.7-0.3-3.4-0.5-5.2-0.5L230,183C229.3,183.1,228.5,183,227.8,183L227.8,183z"/>
</g>
<g>
	<path d="M227.8,217.4c0.5,0,1.1,0,1.6,0l23.1,1.1c1.3,0.1,2.5,0.2,3.7,0.4l19.4,3.1c1.3,0.2,2.7,0.5,4,0.9l20.3,5.9
		c2.5,0.7,4.8,1.7,7.1,2.9l17.5,9.7c3.4,1.9,6.5,4.4,9.1,7.3l8.4,9.4c2.7,3,4.8,6.4,6.4,10.1l3.5,8.4c1.9,4.6,2.9,9.5,2.9,14.5
		c0,8.4-2.8,16.5-7.9,23l-2,2.5c-2.4,3-5.2,5.6-8.3,7.6l-14.8,9.7c-0.7,0.5-1.4,0.9-2.1,1.3l-17.9,10c-3,1.7-6.3,2.9-9.6,3.6
		l-29.3,6.1c-2.3,0.5-4.6,0.7-6.9,0.7h-30.8c-2.2,0-4.5-0.2-6.7-0.7l-30.7-6.2c-3.4-0.7-6.7-1.9-9.7-3.6l-22.9-12.7
		c-2.1-1.1-4-2.5-5.8-4l-10.7-9.2c-5.5-4.7-9.5-11.1-11.4-18.3l-1.4-5.4c-1.5-5.8-1.7-11.9-0.4-17.8l1.4-6.3
		c1.3-6,4.2-11.6,8.2-16.2l7.5-8.5c2.4-2.7,5.2-5.1,8.2-6.9l15.4-9.3c2.1-1.2,4.2-2.3,6.5-3.1l17.7-6.1c2.7-0.9,5.5-1.5,8.3-1.8
		l26.3-2.1C226,217.5,226.9,217.4,227.8,217.4 M227.8,204.4c-1.2,0-2.5,0-3.7,0.1l-26.3,2.1c-3.9,0.3-7.8,1.1-11.6,2.4l-17.7,6.1
		c-3.1,1.1-6.1,2.5-9,4.2l-15.4,9.3c-4.2,2.5-8,5.7-11.3,9.5l-7.5,8.5c-5.4,6.2-9.3,13.8-11.1,21.9l-1.4,6.3
		c-1.8,7.9-1.6,16.2,0.5,24l1.4,5.4c2.6,9.7,7.9,18.3,15.5,24.8l10.7,9.2c2.5,2.1,5.1,4,7.9,5.5l22.9,12.7c4.2,2.3,8.8,4,13.5,5
		l30.7,6.2c3,0.6,6.2,0.9,9.3,0.9H256c3.2,0,6.4-0.3,9.5-1l29.3-6.1c4.7-1,9.1-2.6,13.3-5l17.9-10c1-0.6,2-1.2,2.9-1.8l14.8-9.7
		c4.3-2.8,8.1-6.3,11.4-10.4l2-2.5c6.9-8.7,10.7-19.8,10.7-31c0-6.8-1.3-13.3-3.9-19.5l-3.5-8.4c-2.1-5.1-5-9.7-8.7-13.7l-8.4-9.4
		c-3.6-4-7.8-7.4-12.5-10l-17.5-9.7c-3.1-1.7-6.4-3.1-9.8-4.1l-20.3-5.9c-1.8-0.5-3.7-0.9-5.5-1.2l-19.4-3.1
		c-1.7-0.3-3.4-0.5-5.2-0.5l-23.1-1.1C229.3,204.4,228.5,204.4,227.8,204.4L227.8,204.4z"/>
</g>
<g>
	<path d="M227.8,235.9c0.5,0,1.1,0,1.6,0l23.1,1c1.3,0.1,2.5,0.2,3.7,0.3l19.4,2.7c1.3,0.2,2.7,0.4,4,0.8l20.3,5.1
		c2.5,0.6,4.8,1.5,7.1,2.6l17.5,8.4c3.4,1.6,6.5,3.8,9.1,6.3l8.4,8.1c2.7,2.6,4.8,5.5,6.4,8.8l3.5,7.3c1.9,4,2.9,8.2,2.9,12.5
		c0,7.3-2.8,14.3-7.9,19.9l-2,2.1c-2.4,2.6-5.2,4.8-8.3,6.6l-14.8,8.4c-0.7,0.4-1.4,0.8-2.1,1.1l-17.9,8.6c-3,1.5-6.3,2.5-9.6,3.1
		L263,355c-2.3,0.4-4.6,0.6-6.9,0.6h-30.8c-2.2,0-4.5-0.2-6.7-0.6l-30.7-5.4c-3.4-0.6-6.7-1.6-9.7-3.1l-22.9-11
		c-2.1-1-4-2.2-5.8-3.5l-10.7-7.9c-5.5-4.1-9.5-9.6-11.4-15.8l-1.4-4.7c-1.5-5-1.7-10.3-0.4-15.4l1.4-5.4c1.3-5.2,4.2-10.1,8.2-14
		l7.5-7.4c2.4-2.4,5.2-4.4,8.2-6l15.4-8c2.1-1.1,4.2-2,6.5-2.6l17.7-5.3c2.7-0.8,5.5-1.3,8.3-1.5l26.3-1.8
		C226,235.9,226.9,235.9,227.8,235.9 M227.8,224.9c-1.1,0-2.3,0-3.4,0.1l-26.3,1.8c-3.7,0.3-7.3,0.9-10.7,2l-17.7,5.3
		c-2.9,0.9-5.8,2-8.4,3.4l-15.4,8c-4,2.1-7.7,4.8-10.9,7.9l-7.5,7.4c-5.4,5.4-9.3,12-11.1,19.1l-1.4,5.4c-1.8,7-1.6,14.4,0.5,21.4
		l1.4,4.7c2.6,8.5,7.9,15.9,15.3,21.4l10.7,7.9c2.4,1.8,4.9,3.3,7.6,4.6l22.9,11c4,1.9,8.2,3.3,12.6,4l30.7,5.4
		c2.8,0.5,5.7,0.7,8.6,0.7h30.8c3,0,5.9-0.3,8.8-0.8l29.3-5.3c4.3-0.8,8.5-2.1,12.5-4l17.9-8.6c0.9-0.5,1.9-0.9,2.8-1.5l14.8-8.4
		c4.2-2.4,7.9-5.3,11-8.8l2-2.1c7-7.6,10.8-17.3,10.8-27.3c0-6-1.4-11.9-4-17.3l-3.5-7.3c-2.1-4.4-5-8.4-8.6-11.9l-8.4-8.1
		c-3.5-3.4-7.5-6.2-12-8.4l-17.5-8.4c-2.9-1.4-6-2.5-9.2-3.3l-20.3-5.1c-1.7-0.4-3.4-0.8-5.1-1l-19.4-2.7c-1.6-0.2-3.2-0.4-4.8-0.4
		l-23.1-1C229.2,224.9,228.5,224.9,227.8,224.9L227.8,224.9z"/>
</g>
<polyline class="st0" points="59.6,220.3 98.6,332.1 188.9,386.7 219.2,382.3 261,382.4 308,377.5 375.6,338.6 399.1,256.7 
	400.1,149 403.4,156.8 400.6,167.5 389.9,191 368.6,226.6 350,238.7 327.3,247.9 305.2,251.5 220.4,261.4 189.4,257 147.5,243.6 
	89.9,206.8 71.3,193.7 "/>
<polygon class="st0" points="367.2,171.7 373.7,209.8 373.7,255.7 196.4,284.7 93.7,244.9 93.7,184.7 114,177.5 120.5,192.8 
	148.8,217.4 187.6,235.9 239.7,238.7 283.3,235.9 334.6,215.6 358.5,193.2 "/>
<g>
	<path class="st0" d="M221.7,246.4c-2.9,0-5.8-0.3-8.7-0.8l-36.4-7.1c-4.4-0.9-8.7-2.4-12.7-4.5l-27.1-14.5c-2.7-1.4-5.2-3.1-7.5-5
		L116.7,204c-7.2-5.9-12.3-13.8-14.8-22.8l-1.7-6.2c-2-7.2-2.2-14.9-0.5-22.3l1.7-7.1c1.7-7.5,5.4-14.5,10.6-20.2l8.8-9.7
		c3.1-3.4,6.7-6.3,10.7-8.6l18.2-10.6c2.7-1.6,5.5-2.8,8.4-3.8l21-7c3.5-1.2,7.2-1.9,10.8-2.2l31.1-2.4c1.1-0.1,2.3-0.1,3.5-0.1
		c0.7,0,1.4,0,2.1,0l27.4,1.3c1.6,0.1,3.3,0.2,4.8,0.5l23,3.6c1.7,0.3,3.5,0.6,5.2,1.1l24,6.7c3.2,0.9,6.3,2.1,9.2,3.7l20.7,11
		c4.4,2.4,8.4,5.5,11.9,9.1l9.9,10.7c3.5,3.7,6.2,8,8.3,12.7l4.2,9.6c2.5,5.7,3.8,11.8,3.8,18.1c0,10.4-3.6,20.6-10.3,28.7l-2.3,2.8
		c-3.1,3.7-6.7,6.9-10.8,9.5L338.1,221c-0.9,0.6-1.8,1.1-2.8,1.6L314.2,234c-3.9,2.1-8.1,3.6-12.5,4.5l-34.7,7
		c-2.9,0.6-5.9,0.9-8.9,0.9H221.7z M228.1,96.6c-0.7,0-1.4,0-2.1,0.1l-23.4,1.8c-2.2,0.2-4.4,0.6-6.5,1.3l-15.7,5.2
		c-1.7,0.6-3.4,1.3-5,2.3l-13.6,7.9c-2.4,1.4-4.5,3.1-6.4,5.1l-6.6,7.3c-3.1,3.4-5.3,7.6-6.3,12l-1.2,5.4c-1,4.4-0.9,8.9,0.3,13.3
		l1.3,4.6c1.5,5.4,4.5,10.1,8.8,13.6l9.5,7.8c1.4,1.1,2.9,2.2,4.5,3l20.4,10.9c2.4,1.3,4.9,2.2,7.5,2.7l27.3,5.3
		c1.7,0.3,3.4,0.5,5.2,0.5h27.3c1.8,0,3.6-0.2,5.3-0.5l26-5.2c2.6-0.5,5.1-1.4,7.4-2.7l15.9-8.5c0.6-0.3,1.1-0.6,1.6-1l13.1-8.3
		c2.4-1.5,4.6-3.4,6.4-5.7l1.7-2.1c3.9-4.8,6.1-10.9,6.1-17.1c0-3.7-0.8-7.4-2.2-10.8l-3.1-7.2c-1.2-2.8-2.9-5.3-4.9-7.5l-7.4-8
		c-2-2.2-4.4-4-7.1-5.4l-15.5-8.3c-1.7-0.9-3.6-1.7-5.5-2.2l-18-5c-1-0.3-2-0.5-3.1-0.7l-17.2-2.7c-1-0.1-1.9-0.2-2.9-0.3l-20.5-1
		C229,96.6,228.6,96.6,228.1,96.6z"/>
	<path d="M224.6,84.9c0.6,0,1.3,0,1.9,0l27.4,1.3c1.5,0.1,3,0.2,4.4,0.4l23,3.6c1.6,0.2,3.2,0.6,4.7,1l24,6.7
		c2.9,0.8,5.7,1.9,8.4,3.4l20.7,11c4,2.2,7.7,5,10.8,8.3l9.9,10.7c3.1,3.4,5.7,7.3,7.5,11.5l4.2,9.6c2.3,5.2,3.4,10.8,3.4,16.5l0,0
		c0,9.5-3.3,18.8-9.4,26.2l-2.3,2.8c-2.8,3.4-6.1,6.3-9.8,8.7L336,217.7c-0.8,0.5-1.7,1-2.5,1.5l-21.1,11.4
		c-3.6,1.9-7.4,3.3-11.4,4.1l-34.7,7c-2.7,0.5-5.4,0.8-8.1,0.8h-36.4c-2.7,0-5.3-0.3-7.9-0.8l-36.4-7.1c-4-0.8-7.9-2.2-11.5-4.1
		L138.9,216c-2.4-1.3-4.7-2.8-6.8-4.6L119.5,201c-6.5-5.4-11.2-12.7-13.5-20.8l-1.7-6.2c-1.8-6.6-2-13.6-0.4-20.3l1.7-7.1
		c1.6-6.9,4.9-13.2,9.7-18.4l8.8-9.7c2.8-3.1,6.1-5.8,9.7-7.9L152,100c2.4-1.4,5-2.6,7.7-3.5l21-7c3.2-1.1,6.5-1.7,9.9-2l31.1-2.4
		C222.5,84.9,223.6,84.9,224.6,84.9 M225.9,210.7h27.3c2,0,4.1-0.2,6.1-0.6l26-5.2c3-0.6,5.9-1.6,8.5-3.1l15.9-8.5
		c0.6-0.3,1.3-0.7,1.9-1.1l13.1-8.3c2.8-1.8,5.3-4,7.4-6.5l1.7-2.1c4.5-5.5,7-12.5,7-19.6l0,0c0-4.3-0.9-8.5-2.6-12.4l-3.1-7.2
		c-1.4-3.2-3.3-6.1-5.7-8.7l-7.4-8c-2.3-2.5-5.1-4.6-8.1-6.3l-15.5-8.3c-2-1.1-4.1-1.9-6.3-2.5l-18-5c-1.2-0.3-2.3-0.6-3.5-0.8
		l-17.2-2.7c-1.1-0.2-2.2-0.3-3.3-0.3l-20.5-1c-0.5,0-1,0-1.4,0c-0.8,0-1.6,0-2.4,0.1l-23.4,1.8c-2.5,0.2-5,0.7-7.4,1.5l-15.7,5.2
		c-2,0.7-3.9,1.5-5.8,2.6l-13.6,7.9c-2.7,1.6-5.2,3.6-7.3,5.9l-6.6,7.3c-3.6,3.9-6.1,8.7-7.3,13.8l-1.2,5.4
		c-1.2,5-1.1,10.3,0.3,15.2l1.3,4.6c1.7,6.1,5.2,11.6,10.1,15.6l9.5,7.8c1.6,1.3,3.3,2.5,5.1,3.4l20.4,10.9c2.7,1.5,5.6,2.5,8.7,3.1
		l27.3,5.3C222,210.5,224,210.7,225.9,210.7 M224.6,76.9c-1.3,0-2.5,0-3.8,0.1l-31.1,2.4c-4,0.3-8,1.1-11.8,2.4l-21,7
		c-3.2,1.1-6.3,2.5-9.2,4.2l-18.2,10.6c-4.3,2.5-8.3,5.7-11.6,9.4l-8.8,9.7c-5.7,6.2-9.7,13.8-11.6,22l-1.7,7.1
		c-1.8,8-1.7,16.3,0.5,24.2l1.7,6.2c2.7,9.8,8.3,18.4,16.1,24.8l12.6,10.4c2.5,2.1,5.3,3.9,8.2,5.5l27.1,14.5c4.3,2.3,9,4,13.8,4.9
		l36.4,7.1c3.1,0.6,6.3,0.9,9.4,0.9H258c3.3,0,6.5-0.3,9.7-1l34.7-7c4.8-1,9.3-2.6,13.6-4.9l21.1-11.4c1-0.5,2-1.1,3-1.8l17.5-11.1
		c4.4-2.8,8.4-6.3,11.7-10.4l2.3-2.8c7.2-8.8,11.2-19.9,11.2-31.2c0-6.8-1.4-13.4-4.1-19.7l-4.2-9.6c-2.2-5.1-5.2-9.7-9-13.8
		l-9.9-10.7c-3.7-4-8.1-7.4-12.9-10l-20.7-11c-3.2-1.7-6.6-3-10-4l-24-6.7c-1.8-0.5-3.7-0.9-5.6-1.2l-23-3.6
		c-1.7-0.3-3.5-0.4-5.3-0.5L226.9,77C226.1,76.9,225.4,76.9,224.6,76.9L224.6,76.9z M225.9,202.7c-1.5,0-2.9-0.1-4.4-0.4l-27.3-5.3
		c-2.2-0.4-4.4-1.2-6.4-2.3l-20.4-10.9c-1.3-0.7-2.6-1.6-3.8-2.6l-9.5-7.8c-3.6-3-6.2-7-7.5-11.6l-1.3-4.6c-1-3.7-1.1-7.6-0.2-11.3
		l1.2-5.4c0.9-3.8,2.7-7.4,5.4-10.3l6.6-7.3c1.6-1.7,3.4-3.2,5.4-4.4l13.6-7.9c1.4-0.8,2.8-1.4,4.3-1.9l15.7-5.2
		c1.8-0.6,3.6-1,5.5-1.1l23.4-1.8c0.6,0,1.2-0.1,1.8-0.1c0.4,0,0.7,0,1.1,0l20.5,1c0.8,0,1.6,0.1,2.5,0.2l17.2,2.7
		c0.9,0.1,1.8,0.3,2.6,0.6l18,5c1.6,0.4,3.2,1.1,4.7,1.9l15.5,8.3c2.3,1.2,4.3,2.8,6,4.6l7.4,8c1.8,1.9,3.2,4.1,4.2,6.4l3.1,7.2
		c1.3,2.9,1.9,6,1.9,9.2c0,5.3-1.8,10.5-5.2,14.5l-1.7,2.1c-1.6,1.9-3.4,3.5-5.5,4.8l-13.1,8.3c-0.5,0.3-0.9,0.6-1.4,0.8l-15.9,8.5
		c-2,1.1-4.1,1.8-6.3,2.3l-26,5.2c-1.5,0.3-3,0.5-4.5,0.5h-27.2V202.7z"/>
</g>
<g>
	<path d="M226,80.6c0.6,0,1.2,0,1.7,0l24.7,1.1c1.3,0.1,2.7,0.2,4,0.4l20.8,3.2c1.4,0.2,2.8,0.5,4.2,0.9l21.7,6
		c2.6,0.7,5.2,1.7,7.6,3l18.6,10c3.7,1.9,7,4.5,9.8,7.5l8.9,9.6c2.8,3.1,5.1,6.6,6.8,10.4l3.8,8.6c2.1,4.7,3.1,9.8,3.1,14.9l0,0
		c0,8.6-3,17-8.4,23.6l-2.1,2.5c-2.5,3.1-5.5,5.7-8.9,7.8l-15.8,10c-0.7,0.5-1.5,0.9-2.3,1.3l-19,10.6c-3.2,1.7-6.7,3-10.3,3.7
		l-31.3,6.3c-2.4,0.5-4.9,0.7-7.3,0.7h-32.9c-2.4,0-4.8-0.2-7.1-0.7l-32.8-6.4c-3.6-0.7-7.1-2-10.4-3.7l-24.5-13.1
		c-2.2-1.2-4.3-2.6-6.2-4.1l-11.4-9.4c-5.9-4.9-10.1-11.4-12.2-18.8l-1.5-5.6c-1.6-6-1.8-12.3-0.4-18.3l1.5-6.4
		c1.4-6.2,4.5-11.9,8.7-16.7l8-8.8c2.6-2.8,5.5-5.2,8.8-7.1l16.4-9.5c2.2-1.3,4.5-2.3,6.9-3.1l18.9-6.3c2.9-1,5.9-1.6,8.9-1.8
		l28.1-2.2C224.1,80.6,225,80.6,226,80.6 M226,72.6L226,72.6c-1.2,0-2.3,0-3.5,0.1l-28.1,2.2c-3.7,0.3-7.3,1-10.8,2.2l-18.9,6.3
		c-2.9,1-5.8,2.3-8.4,3.8l-16.4,9.5c-4,2.3-7.6,5.2-10.7,8.6l-8,8.8c-5.2,5.7-8.9,12.7-10.6,20.2l-1.5,6.4c-1.7,7.3-1.5,15,0.5,22.3
		l1.5,5.6c2.5,9,7.6,16.9,14.8,22.8l11.4,9.4c2.3,1.9,4.8,3.6,7.5,5l24.5,13.1c4,2.1,8.2,3.6,12.6,4.5l32.8,6.4
		c2.8,0.6,5.8,0.8,8.7,0.8h32.9c3,0,6-0.3,8.9-0.9l31.3-6.3c4.4-0.9,8.6-2.4,12.5-4.5l19.1-10.3c0.9-0.5,1.9-1,2.8-1.6l15.8-10
		c4.1-2.6,7.7-5.8,10.8-9.5l2.1-2.5c6.6-8.1,10.3-18.3,10.3-28.7c0-6.3-1.3-12.4-3.8-18.1l-3.8-8.6c-2-4.7-4.8-8.9-8.3-12.7
		l-8.9-9.6c-3.4-3.7-7.4-6.8-11.9-9.1l-18.6-10c-2.9-1.6-6-2.8-9.2-3.7l-21.7-6c-1.7-0.5-3.4-0.8-5.2-1.1l-20.8-3.2
		c-1.6-0.2-3.2-0.4-4.8-0.5l-24.7-1.1C227.4,72.6,226.7,72.6,226,72.6L226,72.6z"/>
</g>
</svg>
