<?xml version="1.0" encoding="utf-8"?>
<!-- Generator: Adobe Illustrator 19.2.1, SVG Export Plug-In . SVG Version: 6.00 Build 0)  -->
<svg version="1.1" id="Layer_1" xmlns="http://www.w3.org/2000/svg" xmlns:xlink="http://www.w3.org/1999/xlink" x="0px" y="0px"
	 viewBox="0 0 477.5 477.5" style="enable-background:new 0 0 477.5 477.5;" xml:space="preserve">
<style type="text/css">
	.st0{fill:#FFFFFF;stroke:#000000;stroke-width:8;stroke-miterlimit:10;}
	.st1{fill:#FFFFFF;}
	.st2{fill:none;stroke:#000000;stroke-width:8;stroke-miterlimit:10;}
</style>
<polyline class="st0" points="160.7,289.7 160.7,353.7 179.1,365.1 179.2,295.4 "/>
<polyline class="st0" points="229.7,278.7 229.7,342.7 248.1,354.1 248.2,284.4 "/>
<polyline class="st0" points="293.7,251.7 293.7,315.7 312.1,327.1 312.2,257.4 "/>
<g>
	<polygon class="st1" points="122.7,267.8 122.7,131.9 295.6,85.7 354.7,122.9 354.7,259.3 178.6,312.3 	"/>
	<path d="M294.9,90l55.8,35.2v131.1l-171.3,51.6l-52.7-42v-131L294.9,90 M296.2,81.4l-177.5,47.4v141l59,47l181-54.5V120.7
		L296.2,81.4L296.2,81.4z"/>
</g>
<polyline class="st2" points="356.7,122.7 179.3,171.5 122.7,132.8 "/>
<line class="st2" x1="179.1" y1="310.1" x2="179.3" y2="171.5"/>
<g>
	<path class="st1" d="M154.2,263.8c-11.5,0-20-20.4-23-39.5c-1.7-10.7-1.8-21-0.3-29.1c2.3-12.1,7.3-15.4,11.2-16
		c0.5-0.1,1-0.1,1.5-0.1c11.5,0,20,20.4,23,39.4c1.7,10.7,1.8,21,0.3,29.1c-2.3,12.1-7.3,15.4-11.2,16
		C155.1,263.8,154.7,263.8,154.2,263.8z"/>
	<path d="M143.5,183.2c7.4,0,15.8,15.7,19.1,36.1c3.4,21.1,0,39.2-7.6,40.5c-0.3,0-0.5,0.1-0.8,0.1c-7.4,0-15.8-15.7-19.1-36.1
		c-3.4-21.1,0-39.2,7.6-40.5C142.9,183.3,143.2,183.2,143.5,183.2 M143.5,175.2L143.5,175.2c-0.7,0-1.4,0.1-2.1,0.2
		c-9.3,1.5-13,11.3-14.5,19.2c-1.6,8.5-1.5,19.3,0.3,30.4c1.7,10.7,4.9,20.7,8.8,28.2c3.5,6.7,9.6,14.7,18.2,14.7
		c0.7,0,1.4-0.1,2.1-0.2c9.3-1.5,13-11.3,14.5-19.2c1.6-8.5,1.5-19.3-0.3-30.4c-1.7-10.7-4.9-20.7-8.8-28.2
		C158.1,183.2,152,175.2,143.5,175.2L143.5,175.2z"/>
</g>
<g>
	<path class="st1" d="M87.6,234.7l1.3-21.4l56.6-15c2.5,0.5,8,8.2,10.9,25.3c1.9,11.3,0.3,19.5-2,22.4c-0.4,0.5-0.8,0.8-1,0.8h-0.5
		l-52.2,15.6L87.6,234.7z"/>
	<path d="M144.7,202.6c1.7,1.9,5.4,8,7.7,21.6c1.8,10.4,0.2,16.9-0.9,18.8l-0.2,0.1l-48.5,14.5l-11.1-23.7l1-17.5L144.7,202.6
		 M145.3,194.3c-0.1,0-0.2,0-0.3,0l-59.9,15.9l-1.5,25.3l14.9,31.8l55.1-16.5c5.8-0.4,9.4-12,6.7-27.9
		C157.3,204.9,151,194.3,145.3,194.3L145.3,194.3z"/>
</g>
<g>
	<path class="st1" d="M97.6,263.4c-1.9,0-8.4-7.2-12.2-23.1c-3.9-16.4-0.9-25.5,0.6-26.2c1.8,0,8.4,7.1,12.2,23.2
		C101.8,252.7,99.4,262.5,97.6,263.4z"/>
	<path d="M87.7,221.4c2.1,3.2,4.7,8.7,6.6,16.8c1.9,8,2,14.1,1.6,17.9c-2.1-3.2-4.7-8.7-6.6-16.8C87.4,231.3,87.3,225.2,87.7,221.4
		 M86,210.1c-0.3,0-0.6,0-0.9,0.1c-5.7,1.3-7.2,15.2-3.5,31c3.5,14.9,10.5,26.2,16.1,26.2c0.3,0,0.6,0,0.9-0.1
		c5.7-1.3,7.2-15.2,3.5-31C98.5,221.4,91.5,210.1,86,210.1L86,210.1z"/>
</g>
<path class="st2" d="M95.8,211.8c0.9-3.5,2.5-5.7,4.6-6.2c5.7-1.3,13.3,10.4,17,26.1s2.1,29.6-3.5,31c-2.1,0.5-4.4-0.8-6.7-3.4"/>
</svg>
