<?xml version="1.0" encoding="utf-8"?>
<!-- Generator: Adobe Illustrator 19.2.1, SVG Export Plug-In . SVG Version: 6.00 Build 0)  -->
<svg version="1.1" id="Layer_1" xmlns="http://www.w3.org/2000/svg" xmlns:xlink="http://www.w3.org/1999/xlink" x="0px" y="0px"
	 viewBox="0 0 477.5 477.5" style="enable-background:new 0 0 477.5 477.5;" xml:space="preserve">
<style type="text/css">
	.st0{fill:#FFFFFF;stroke:#000000;stroke-width:8;stroke-miterlimit:10;}
	.st1{fill:#FFFFFF;}
</style>
<g id="Layer_12">
	<path class="st0" d="M408.7,249.7l-1,20.7c-1,19.2-9.4,37.2-23.5,50.2c-22.5,20.7-65.8,49.1-148.4,48.7
		c-88.1-0.3-134-35.8-153.6-60.1c-7.7-9.6-12-21.4-12.4-33.7l-1-33.6"/>
	<g>
		<path class="st1" d="M248.9,352.7c-49.5,0-95.7-11.2-130.2-31.4c-32.1-18.7-50.5-43.6-50.5-68.1c0-33.2,18.6-59.3,55.3-77.2
			c28.8-14.1,67.6-22.3,106.4-22.3h0.3c66.7,0,109.5,18.9,133.6,34.5c26.4,17.1,44.1,40.1,45.1,58.4c1.1,20.6-5.9,39.1-20.9,55
			c-19.5,20.6-48.5,32.8-69.5,39.4c-27.5,8.6-53.9,11.8-69.4,11.8L248.9,352.7L248.9,352.7z"/>
		<path d="M229.7,157.7L229.7,157.7h0.4c65.7,0,107.7,18.5,131.4,33.9c13.5,8.7,24.7,19,32.4,29.5c6.6,9.1,10.5,18.2,10.9,25.7
			c1.1,19.5-5.6,37-19.8,52c-18.9,20-47.3,31.9-67.8,38.3c-27.1,8.4-53,11.6-68.3,11.6h-0.2c-48.8,0-94.3-11-128.2-30.8
			c-30.8-18-48.5-41.6-48.5-64.6c0-16.5,5-31.3,14.7-43.9c8.9-11.5,21.7-21.5,38.3-29.6c28.3-13.8,66.6-21.9,104.6-21.9
			 M229.8,149.7c-67.5,0-165.7,26.1-165.7,103.5c0,52.9,78.4,103.5,184.7,103.5c0.1,0,0.1,0,0.2,0c49.3,0,168.3-27.9,163.8-110.3
			c-1.9-35.4-62.3-96.7-182.7-96.7C230,149.7,229.9,149.7,229.8,149.7L229.8,149.7z"/>
	</g>
	<g>
		<path d="M237.7,221.7L237.7,221.7L237.7,221.7c21.1,0,34.5,5.9,42.1,10.8c8.8,5.7,12.3,12,12.4,14.8c0.3,5.2-1.5,9.8-5.3,13.9
			c-4.5,4.8-11.7,8.8-20.9,11.7c-8.7,2.7-17,3.7-21.8,3.7v8l-0.1-8c-31.6,0-55.2-14.4-55.2-27.3c0-8.7,5.1-15.5,15.3-20.5
			C213,224.5,225.7,221.8,237.7,221.7 M237.6,213.7c-23.1,0-56.7,9-56.7,35.5c0,18.1,26.8,35.5,63.2,35.5c0,0,0,0,0.1,0
			c16.9,0,57.6-9.6,56.1-37.8c-0.7-12.1-21.3-33.2-62.5-33.2C237.6,213.7,237.6,213.7,237.6,213.7L237.6,213.7z"/>
	</g>
</g>
</svg>
