<?xml version="1.0" encoding="utf-8"?>
<!-- Generator: Adobe Illustrator 19.1.0, SVG Export Plug-In . SVG Version: 6.00 Build 0)  -->
<svg version="1.1" id="Layer_1" xmlns="http://www.w3.org/2000/svg" xmlns:xlink="http://www.w3.org/1999/xlink" x="0px" y="0px"
	 viewBox="0 0 1000 1000" style="enable-background:new 0 0 1000 1000;" xml:space="preserve">
<style type="text/css">
	.st0{fill:#EFEFEF;}
	.st1{fill:#F4F4F4;}
	.st2{fill:#7F7F7F;}
</style>
<rect x="372.7" y="24.6" class="st0" width="254.6" height="950"/>
<rect x="24.9" y="372.4" class="st0" width="950" height="254.6"/>
<g>
	
		<rect x="152.2" y="151.9" transform="matrix(-0.5 0.866 -0.866 -0.5 1182.6184 316.4949)" class="st1" width="695.4" height="695.4"/>
</g>
<g>
	<path class="st2" d="M296.2,512c0.2-1,0.7-1.5,1.5-1.5c-0.5-6.6-0.7-10.6-0.7-12l1.9-68.1c-0.5,0-0.7-0.2-0.7-0.7v-1.1
		c0-0.4,0.5-0.9,1.5-1.5c11.7,0,19.6,5.4,23.9,16.1c0.7,2.4,1.2,5.3,1.5,8.6c0,15.6-2.7,32.7-8.2,51.2c-2.6,4.4-6.2,7.8-10.8,10.1
		c-3,0.2-4.5,0.6-4.5,1.1v0.4c0,3.3,0.1,6,0.4,8.2c-0.2,2.2-0.4,3.4-0.4,3.7c0.7,14.1,1.1,22.2,1.1,24.3c0.7,0.1,1.1,1.1,1.1,3v1.1
		c-0.7,1.9-1.5,3.1-2.2,3.4h-0.7c-0.4,0-0.9-0.5-1.5-1.5v-2.6c0-0.2,0.1-0.4,0.4-0.4c-0.4-2.4-0.8-5.7-1.1-9.7
		c0-0.2,0.1-0.4,0.4-0.4l-1.1-15.7c0.2-2.5,0.4-4.4,0.4-5.6c-0.2-4.5-0.4-7.4-0.4-8.6C296.7,513.4,296.2,512.8,296.2,512z
		 M300.7,498.6c0.2,5.2,0.4,8.9,0.4,10.8l0.7,0.4c2.9,0,5.7-1.5,8.6-4.5c4.3-2.7,7.8-18.1,10.5-46c0.2-4.5,0.4-7.5,0.4-9
		c0-6.5-3.7-12.3-11.2-17.6c-2.2-0.7-4.7-1.4-7.5-1.9L300.7,498.6z"/>
	<path class="st2" d="M345.8,421.5l1.5-1.1h0.7c0.7,0.9,2.8,1.6,6.4,2.2c4.7,1.9,8.6,5.4,11.6,10.5c4.2,10.3,6.4,17.9,6.4,22.8v3.7
		c0,16.3-4.7,28.2-14.2,35.5c11,2.6,17.3,15.6,19.1,38.9v14.2c0,2.1,0.1,5.2,0.4,9.4l-1.1,0.7h-1.1l-1.5-1.1
		c-0.2-5-0.4-8.7-0.4-11.2v-13.5c0-9.4-2.9-19-8.6-28.8c-4-3.7-7.5-5.6-10.5-5.6h-0.4c0.2,5.4,0.4,9.4,0.4,12v14.2
		c0.5,12.3,0.7,19.3,0.7,20.9v0.7c-0.5,1-1.2,1.5-2.2,1.5c-0.4,0-1-0.5-1.9-1.5l0.4-2.6c-0.5-10.5-0.7-17.5-0.7-20.9v-22.4
		c-0.9,0-1.5-0.5-1.9-1.5v-1.1c0.4-1,0.9-1.5,1.5-1.5C349.3,461.7,347.8,436.9,345.8,421.5z M350.1,425.6c1.4,18.2,2.7,40.8,4,67.7
		c9.7-6.6,14.6-17.2,14.6-31.8v-5.2c0-6.5-2.7-14.9-8.2-25.1c-4.1-3.7-7.1-5.6-9.2-5.6H350.1z"/>
	<path class="st2" d="M398.6,505.7c0-35.1,4.4-59.4,13.1-72.9c2.3-1.7,4.4-2.6,6.4-2.6c7,0,12.7,16.8,16.8,50.5
		c0.2,3.2,0.4,7.3,0.4,12.3v1.5c0,0.9-0.1,2-0.4,3.4c0.2,0.3,0.4,1.2,0.4,2.6v0.4c0,1.4-0.1,2.3-0.4,2.6c0.2,1.3,0.4,2.1,0.4,2.2
		c0,26.3-3.6,42.5-10.8,48.6c-2.6,1-4.3,1.5-5.2,1.5h-2.6c-9-2.2-14.6-13.8-16.8-34.8L398.6,505.7z M402.3,504.5
		c0,14.1,1.9,26.4,5.6,37c3.5,7,6.6,10.5,9.4,10.5h0.4c5,0,8.3-3.5,9.7-10.5c2.7-6.5,4.1-20.3,4.1-41.5v-7.5
		c0-14.6-2.6-31.5-7.9-50.5c-1.9-4.2-3.7-6.9-5.6-8.2c-2.9,1.1-4.7,2.5-5.2,4.1C405.8,452.7,402.3,474.9,402.3,504.5z"/>
	<path class="st2" d="M452.9,534.5c0.8-0.7,1.4-1.1,1.9-1.1c1.2,0.4,1.9,1.2,1.9,2.6c0,11.7,1.9,17.6,5.6,17.6
		c1.3,0.7,2.6,1.1,3.7,1.1h0.4c4.2,0,6.9-7.1,7.9-21.3v-1.9c-0.5-13.1-0.7-20.9-0.7-23.6v-4.5c0-13.8-0.1-31.6-0.4-53.5
		c-0.5-3.4-0.7-7-0.7-10.8v-2.6c0-0.3,0.6-0.9,1.9-1.9c0.7,0,1.4,0.2,2.2,0.7c0,0.1-0.1,1.7-0.4,4.9c0.7,9.3,1.1,31.2,1.1,65.8v2.6
		c0,2.4,0.2,10.4,0.7,23.9c-0.9,17.2-4.7,25.8-11.2,25.8h-1.5c-6.7-1.7-10.1-3.8-10.1-6.4C453.9,551.4,453.2,545.5,452.9,534.5z"/>
	<path class="st2" d="M508.5,430.9l1.5-1.1h4.1c1.4,0,3.4-0.1,6-0.4l0.8,0.4c0.2,0,0.4-0.1,0.4-0.4c8,0.7,12,1.6,12,2.6v0.4
		c-0.4,1.2-1.1,1.9-1.9,1.9l-10.8-1.1c-0.7,0-3.2,0.1-7.5,0.4l0.4,4.5c0,4.1,0.6,20.5,1.9,49.4h2.6c2.1,0,3.7-0.1,4.9-0.4
		c5.6,0.5,9.7,0.7,12.3,0.7l1.1,1.5v1.1c0,0.7-0.5,1.1-1.5,1.1c-2.2,0-5.8-0.2-10.8-0.7c-3.4,0.2-6.2,0.4-8.6,0.4v1.5
		c0,17.6,0.9,37.9,2.6,61c0.2,0,0.4,0.1,0.4,0.4c9.4-0.5,15-0.7,16.8-0.7c1.1,0.3,1.8,0.9,2.2,1.9v0.4c0,0.4-0.5,0.9-1.5,1.5
		c-9.5,0.2-15.2,0.5-17.2,0.7c-3,0-4.5-1.6-4.5-4.9c-1.7-23.8-2.6-43.6-2.6-59.5v-12c-1.2-21.9-1.9-36.8-1.9-44.5
		C508.9,433.2,508.5,431.2,508.5,430.9z"/>
	<path class="st2" d="M559.1,483.2V481c0.4-25.2,4.5-40.8,12.3-46.8c3.7-1.7,6-2.6,7.1-2.6h2.6c4.5,0.8,6.7,2.4,6.7,4.9
		c0,0.4-0.5,0.9-1.5,1.5h-1.5c-1.6-2-3.4-3-5.2-3c-6.2,2.2-9.4,4.2-9.4,6c-5,9.5-7.5,22.4-7.5,38.9v6.4c0,11.1,1.5,24.4,4.5,40
		c1.8,11.4,4.3,19.1,7.5,23.2c3.9,3.4,7.2,5.1,10.1,5.2c3.7,0,7.7-2.7,12-8.2h1.1c0.4,0,0.7,0.4,1.1,1.1v0.7c0,2.2-2.7,5.1-8.2,8.6
		c-2.3,1-4.4,1.5-6.4,1.5h-0.4c-3.7-0.4-7.5-2.4-11.6-6c-4.4-3.5-8.3-17.7-11.6-42.6C559.8,504.4,559.1,495.6,559.1,483.2z"/>
	<path class="st2" d="M614.1,438.6c0-0.4,0.5-0.8,1.5-1.3c1.7,0.4,2.7,0.7,3,0.7c4.8-0.4,8.2-0.7,10.1-0.7H644
		c3.2,0,6.4-0.2,9.7-0.7l1.1,1.3v0.9c0,1.1-3.5,1.6-10.5,1.6h-10.5c-0.4,0-0.7,0.4-1.1,1.3l0.7,17.1c-0.2,1.6-0.4,2.4-0.4,2.6
		c2.2,37.7,3.4,64.7,3.4,81.1c0.2,0.4,0.4,0.8,0.4,1c-0.2,0.4-0.4,0.7-0.4,0.9l0.4,2.2c-0.4,0.9-0.7,1.3-1.1,1.3h-1.5
		c-0.2,0-0.7-0.4-1.5-1.3c0-0.4,0.1-1.6,0.4-3.6c0-5.4-1.1-32.3-3.4-80.8c0-7.9-0.2-15.1-0.7-21.6l-0.7-0.4h-1.1l-12,1
		C614.5,440.7,614.1,439.7,614.1,438.6z"/>
	<path class="st2" d="M671.7,460.8c0-8,1.5-15.1,4.5-21.3c3.4-4.9,10.2-7.4,20.2-7.4l1.1,1.4v0.7c0,0.3-0.6,0.9-1.9,1.8h-3.7
		c-6.6,0-11.1,2.5-13.5,7.4c-2,5.4-3,11.5-3,18.1c0,4.1,1.7,10.8,5.2,20c1.2,2.5,8,9.3,20.2,20.3c6.2,9,9.4,17.8,9.4,26.6
		c0,6.9-1.5,13.7-4.5,20.3c-1.4,3.1-5.1,5.8-11.2,8c-2.2,1.2-3.9,1.8-5.2,1.8c-1.3,0-2.2-0.5-2.6-1.4v-1c0-0.7,1.4-1.2,4.1-1.4
		c8.2-3.1,12.3-6.4,12.3-9.8c2.2-4.5,3.4-10.3,3.4-17.5c0-9.4-4.2-18.6-12.7-27.7c-6.7-5-11.7-9.9-15-14.7
		c-2.2-2.4-4.5-8.9-6.7-19.3C672.1,464.4,672,462.8,671.7,460.8z"/>
</g>
<g>
</g>
<g>
</g>
<g>
</g>
<g>
</g>
<g>
</g>
<g>
</g>
</svg>
