<?xml version="1.0" encoding="utf-8"?>
<!-- Generator: Adobe Illustrator 19.2.1, SVG Export Plug-In . SVG Version: 6.00 Build 0)  -->
<svg version="1.1" id="Layer_1" xmlns="http://www.w3.org/2000/svg" xmlns:xlink="http://www.w3.org/1999/xlink" x="0px" y="0px"
	 viewBox="0 0 477.5 477.5" style="enable-background:new 0 0 477.5 477.5;" xml:space="preserve">
<style type="text/css">
	.st0{fill:#FFFFFF;}
</style>
<g>
	<path class="st0" d="M193.3,392.2c-9.2,0-18.1-1.9-26.5-5.5l-13.2-5.8c-4.5-1.9-8.7-4.4-12.6-7.3l-56.2-41.2
		c-7.1-5.2-13-11.7-17.6-19.3l-2.9-4.8c-6.2-10.3-9.5-22.1-9.5-34.1V209c0-10.1,2.4-20.2,6.8-29.2l8.6-17.4c1.6-3.3,3.5-6.4,5.6-9.4
		l25.8-36c3.3-4.6,7.2-8.7,11.5-12.3l4.5-3.8c5-4.1,10.6-7.5,16.5-10.1l3.8-1.6c6.6-2.8,13.6-4.5,20.8-5l70.5-5.3
		c1.6-0.1,3.3-0.2,5-0.2h47.7c4,0,8.1,0.4,12,1.1l10,1.8c7.3,1.3,14.2,3.9,20.7,7.5l18.8,10.7c2.6,1.4,5,3.1,7.4,4.9l18.7,14.2
		l22.5,15.8c4.9,3.4,9.3,7.5,13,12.1c10.6,12.9,15.9,29.1,15,45.7l-3.4,60.9c-0.4,6.8-1.8,13.5-4.2,19.8l-4,10.5
		c-0.9,2.3-1.9,4.6-3,6.8l-26.6,51.8c-6.7,13.1-17.8,23.7-31.2,29.9l-9.5,4.4c-7.1,3.3-14.7,5.2-22.4,5.9L198.5,392
		C196.8,392.1,195,392.2,193.3,392.2L193.3,392.2z"/>
	<path d="M281.8,82.8c3.8,0,7.6,0.3,11.3,1l10,1.8c6.8,1.3,13.4,3.6,19.4,7.1l18.8,10.7c2.4,1.4,4.7,2.9,6.9,4.6l18.7,14.2l0.1,0.1
		l0.1,0.1l22.5,15.8c4.6,3.2,8.7,7,12.2,11.3c9.9,12.1,14.9,27.3,14.1,43l-3.4,60.9c-0.4,6.4-1.7,12.7-3.9,18.6l-4,10.5
		c-0.8,2.2-1.8,4.3-2.8,6.4l-26.6,51.8C369,353,358.6,363,346,368.8l-9.5,4.4c-6.7,3.1-13.8,4.9-21.1,5.5L198.2,388
		c-1.6,0.1-3.3,0.2-4.9,0.2c-8.6,0-17-1.7-24.9-5.2l-13.2-5.8c-4.2-1.8-8.2-4.1-11.9-6.8L87,329.2c-6.7-4.9-12.3-11-16.5-18.1
		l-2.9-4.8c-5.8-9.7-8.9-20.8-8.9-32.1v-56.5V209c0-9.5,2.2-19,6.4-27.5l8.6-17.4c1.5-3.1,3.3-6,5.3-8.8l25.8-36
		c3.1-4.3,6.7-8.2,10.8-11.6l4.5-3.8c4.7-3.9,9.9-7.1,15.5-9.4l3.8-1.6c6.2-2.6,12.8-4.2,19.5-4.7l70.5-5.3c1.5-0.1,3.1-0.2,4.7-0.2
		L281.8,82.8 M281.8,74.8h-47.7c-1.8,0-3.5,0.1-5.3,0.2l-70.5,5.3c-7.6,0.6-15,2.4-22.1,5.3l-3.8,1.6c-6.3,2.7-12.2,6.3-17.5,10.7
		l-4.5,3.8c-4.6,3.8-8.7,8.2-12.2,13.1l-25.8,36c-2.3,3.1-4.2,6.5-5.9,9.9L58,178.1c-4.7,9.6-7.2,20.2-7.2,31v8.7v56.5
		c0,12.7,3.5,25.3,10,36.2l2.9,4.8c4.8,8,11.1,14.9,18.7,20.4l56.2,41.2c4.2,3.1,8.7,5.6,13.4,7.7l13.2,5.8
		c8.9,3.9,18.4,5.9,28.1,5.9c1.9,0,3.7-0.1,5.6-0.2l117.3-9.4c8.2-0.7,16.3-2.8,23.8-6.2l9.5-4.4c14.3-6.6,25.9-17.7,33.1-31.7
		l26.6-51.8c1.2-2.3,2.3-4.7,3.2-7.2l4-10.5c2.6-6.7,4.1-13.8,4.5-21L424,193c1-17.6-4.7-34.9-15.9-48.5l0,0
		c-4-4.9-8.7-9.2-13.8-12.8l-22.5-15.8l-18.7-14.2c-2.5-1.9-5.1-3.6-7.8-5.2l-18.8-10.7c-6.8-3.9-14.2-6.6-21.9-8l-10-1.8
		C290.4,75.2,286.1,74.8,281.8,74.8L281.8,74.8z"/>
</g>
<g>
	<path d="M227.8,121.2c0.5,0,1.1,0,1.6,0l23.1,1.1c1.3,0.1,2.5,0.2,3.7,0.4l19.4,3.1c1.3,0.2,2.7,0.5,4,0.9l20.3,5.9
		c2.5,0.7,4.8,1.7,7.1,2.9l17.5,9.7c3.4,1.9,6.5,4.4,9.1,7.3l8.4,9.4c2.7,3,4.8,6.4,6.4,10.1l3.5,8.4c1.9,4.6,2.9,9.5,2.9,14.5
		c0,8.4-2.8,16.5-7.9,23l-2,2.5c-2.4,3-5.2,5.6-8.3,7.6l-14.8,9.7c-0.7,0.5-1.4,0.9-2.1,1.3l-17.9,10c-3,1.7-6.3,2.9-9.6,3.6
		l-29.3,6.1c-2.3,0.5-4.6,0.7-6.9,0.7h-30.8c-2.2,0-4.5-0.2-6.7-0.7l-30.7-6.2c-3.4-0.7-6.7-1.9-9.7-3.6l-22.9-12.7
		c-2.1-1.1-4-2.5-5.8-4l-10.7-9.2c-5.5-4.7-9.5-11.1-11.4-18.3l-1.4-5.4c-1.5-5.8-1.7-11.9-0.4-17.8l1.4-6.3
		c1.3-6,4.2-11.6,8.2-16.2l7.5-8.5c2.4-2.7,5.2-5.1,8.2-6.9l15.4-9.3c2.1-1.2,4.2-2.3,6.5-3.1l17.7-6.1c2.7-0.9,5.5-1.5,8.3-1.8
		l26.3-2.1C226,121.2,226.9,121.2,227.8,121.2 M227.8,109.2v12V109.2c-1.2,0-2.4,0-3.6,0.1l-26.3,2.1c-3.8,0.3-7.7,1.1-11.3,2.4
		l-17.7,6.1c-3.1,1.1-6,2.4-8.8,4.1l-15.4,9.3c-4.1,2.5-7.8,5.6-11,9.3l-7.5,8.5c-5.3,6.1-9.1,13.5-10.9,21.5l-1.4,6.3
		c-1.7,7.7-1.6,15.9,0.5,23.5l1.4,5.4c2.5,9.5,7.8,17.9,15.2,24.3l10.7,9.2c2.4,2.1,5,3.9,7.8,5.4l22.9,12.7
		c4.1,2.3,8.6,3.9,13.2,4.9l30.7,6.2c3,0.6,6,0.9,9.1,0.9h30.8c3.1,0,6.3-0.3,9.3-1l29.3-6.1c4.6-1,8.9-2.6,13-4.9l17.9-10
		c1-0.5,1.9-1.1,2.9-1.7l14.8-9.7c4.2-2.8,8-6.2,11.1-10.2l2-2.5c6.8-8.6,10.5-19.4,10.5-30.4c0-6.6-1.3-13.1-3.8-19.1l-3.5-8.4
		c-2.1-5-4.9-9.5-8.5-13.5l-8.4-9.4c-3.5-4-7.7-7.3-12.3-9.8L313,125c-3-1.7-6.3-3-9.6-4l-20.3-5.9c-1.8-0.5-3.6-0.9-5.4-1.2
		l-19.4-3.1c-1.7-0.3-3.4-0.4-5.1-0.5l-23.1-1.1C229.2,109.2,228.5,109.2,227.8,109.2L227.8,109.2z"/>
</g>
<g>
	<path d="M227.8,146.5c0.5,0,1.1,0,1.6,0l23.1,1.1c1.3,0.1,2.5,0.2,3.7,0.4l19.4,3.1c1.3,0.2,2.7,0.5,4,0.9l20.3,5.9
		c2.5,0.7,4.8,1.7,7.1,2.9l17.5,9.7c3.4,1.9,6.5,4.4,9.1,7.3l8.4,9.4c2.7,3,4.8,6.4,6.4,10.1l3.5,8.4c1.9,4.6,2.9,9.5,2.9,14.5
		c0,8.4-2.8,16.5-7.9,23l-2,2.5c-2.4,3-5.2,5.6-8.3,7.6l-14.8,9.7c-0.7,0.5-1.4,0.9-2.1,1.3l-17.9,10c-3,1.7-6.3,2.9-9.6,3.6
		L263,284c-2.3,0.5-4.6,0.7-6.9,0.7h-30.8c-2.2,0-4.5-0.2-6.7-0.7l-30.7-6.2c-3.4-0.7-6.7-1.9-9.7-3.6l-22.9-12.7
		c-2.1-1.1-4-2.5-5.8-4l-10.7-9.2c-5.5-4.7-9.5-11.1-11.4-18.3l-1.4-5.4c-1.5-5.8-1.7-11.9-0.4-17.8l1.4-6.3
		c1.3-6,4.2-11.6,8.2-16.2l7.5-8.5c2.4-2.7,5.2-5.1,8.2-6.9l15.4-9.3c2.1-1.2,4.2-2.3,6.5-3.1l17.7-6.1c2.7-0.9,5.5-1.5,8.3-1.8
		l26.3-2.1C226,146.5,226.9,146.5,227.8,146.5 M227.8,132.5c-1.3,0-2.5,0.1-3.8,0.2l-26.3,2.1c-4,0.3-8,1.2-11.8,2.5l-17.7,6.1
		c-3.2,1.1-6.3,2.5-9.2,4.3l-15.4,9.3c-4.3,2.6-8.2,5.8-11.5,9.7l-7.5,8.5c-5.6,6.3-9.5,14.1-11.3,22.4l-1.4,6.3
		c-1.8,8-1.6,16.5,0.5,24.5l1.4,5.4c2.6,9.9,8.1,18.7,15.8,25.3l10.7,9.2c2.5,2.2,5.2,4.1,8.1,5.7l22.9,12.7
		c4.3,2.4,8.9,4.1,13.8,5.1l30.7,6.2c3.1,0.6,6.3,0.9,9.5,0.9h30.8c3.3,0,6.5-0.3,9.7-1l29.3-6.1c4.8-1,9.3-2.7,13.6-5.1l17.9-10
		c1-0.6,2-1.2,3-1.8l14.8-9.7c4.4-2.9,8.3-6.5,11.6-10.6l2-2.5c7-8.9,10.9-20.2,10.9-31.6c0-6.9-1.3-13.6-4-19.9l-3.5-8.4
		c-2.2-5.2-5.1-9.9-8.8-14l-8.4-9.4c-3.7-4.1-8-7.6-12.8-10.2l-17.5-9.7c-3.2-1.8-6.5-3.2-10-4.2l-20.3-5.9c-1.8-0.5-3.7-1-5.6-1.3
		l-19.4-3.1c-1.7-0.3-3.5-0.5-5.3-0.6l-23.1-1.1C229.3,132.5,228.5,132.5,227.8,132.5L227.8,132.5z"/>
</g>
<g>
	<path d="M227.8,171.7c0.5,0,1.1,0,1.6,0l23.1,1.1c1.3,0.1,2.5,0.2,3.7,0.4l19.4,3.1c1.3,0.2,2.7,0.5,4,0.9l20.3,5.9
		c2.5,0.7,4.8,1.7,7.1,2.9l17.5,9.7c3.4,1.9,6.5,4.4,9.1,7.3l8.4,9.4c2.7,3,4.8,6.4,6.4,10.1l3.5,8.4c1.9,4.6,2.9,9.5,2.9,14.5
		c0,8.4-2.8,16.5-7.9,23l-2,2.5c-2.4,3-5.2,5.6-8.3,7.6l-14.8,9.7c-0.7,0.5-1.4,0.9-2.1,1.3l-17.9,10c-3,1.7-6.3,2.9-9.6,3.6
		l-29.3,6.1c-2.3,0.5-4.6,0.7-6.9,0.7h-30.8c-2.2,0-4.5-0.2-6.7-0.7l-30.7-6.2c-3.4-0.7-6.7-1.9-9.7-3.6l-22.9-12.7
		c-2.1-1.1-4-2.5-5.8-4l-10.7-9.2c-5.5-4.7-9.5-11.1-11.4-18.3l-1.4-5.4c-1.5-5.8-1.7-11.9-0.4-17.8l1.4-6.3
		c1.3-6,4.2-11.6,8.2-16.2l7.5-8.5c2.4-2.7,5.2-5.1,8.2-6.9l15.4-9.3c2.1-1.2,4.2-2.3,6.5-3.1l17.7-6.1c2.7-0.9,5.5-1.5,8.3-1.8
		l26.3-2.1C226,171.8,226.9,171.7,227.8,171.7 M227.8,158.7c-1.2,0-2.5,0-3.7,0.1l-26.3,2.1c-3.9,0.3-7.8,1.1-11.6,2.4l-17.7,6.1
		c-3.1,1.1-6.1,2.5-9,4.2l-15.4,9.3c-4.2,2.5-8,5.7-11.3,9.5l-7.5,8.5c-5.4,6.2-9.3,13.8-11.1,21.9l-1.4,6.3
		c-1.8,7.9-1.6,16.2,0.5,24l1.4,5.4c2.6,9.7,7.9,18.3,15.5,24.8l10.7,9.2c2.5,2.1,5.1,4,7.9,5.5l22.9,12.7c4.2,2.3,8.8,4,13.5,5
		L216,322c3,0.6,6.2,0.9,9.3,0.9h30.8c3.2,0,6.4-0.3,9.5-1l29.3-6.1c4.7-1,9.1-2.6,13.3-5l17.9-10c1-0.6,2-1.2,2.9-1.8l14.8-9.7
		c4.3-2.8,8.1-6.3,11.4-10.4l2-2.5c6.9-8.7,10.7-19.8,10.7-31c0-6.8-1.3-13.3-3.9-19.5l-3.5-8.4c-2.1-5.1-5-9.7-8.7-13.7l-8.4-9.4
		c-3.6-4-7.8-7.4-12.5-10l-17.5-9.7c-3.1-1.7-6.4-3.1-9.8-4.1l-20.3-5.9c-1.8-0.5-3.7-0.9-5.5-1.2l-19.4-3.1
		c-1.7-0.3-3.4-0.5-5.2-0.5l-23.1-1.1C229.3,158.8,228.5,158.7,227.8,158.7L227.8,158.7z"/>
</g>
<g>
	<path d="M227.8,196c0.5,0,1.1,0,1.6,0l23.1,1.1c1.3,0.1,2.5,0.2,3.7,0.4l19.4,3.1c1.3,0.2,2.7,0.5,4,0.9l20.3,5.9
		c2.5,0.7,4.8,1.7,7.1,2.9l17.5,9.7c3.4,1.9,6.5,4.4,9.1,7.3l8.4,9.4c2.7,3,4.8,6.4,6.4,10.1l3.5,8.4c1.9,4.6,2.9,9.5,2.9,14.5
		c0,8.4-2.8,16.5-7.9,23l-2,2.5c-2.4,3-5.2,5.6-8.3,7.6l-14.8,9.7c-0.7,0.5-1.4,0.9-2.1,1.3l-17.9,10c-3,1.7-6.3,2.9-9.6,3.6
		l-29.3,6.1c-2.3,0.5-4.6,0.7-6.9,0.7h-30.8c-2.2,0-4.5-0.2-6.7-0.7l-30.7-6.2c-3.4-0.7-6.7-1.9-9.7-3.6L155.2,311
		c-2.1-1.1-4-2.5-5.8-4l-10.7-9.2c-5.5-4.7-9.5-11.1-11.4-18.3l-1.4-5.4c-1.5-5.8-1.7-11.9-0.4-17.8l1.4-6.3
		c1.3-6,4.2-11.6,8.2-16.2l7.5-8.5c2.4-2.7,5.2-5.1,8.2-6.9l15.4-9.3c2.1-1.2,4.2-2.3,6.5-3.1l17.7-6.1c2.7-0.9,5.5-1.5,8.3-1.8
		L225,196C226,196.1,226.9,196,227.8,196 M227.8,183c-1.2,0-2.5,0-3.7,0.1l-26.3,2.1c-3.9,0.3-7.8,1.1-11.6,2.4l-17.7,6.1
		c-3.1,1.1-6.1,2.5-9,4.2l-15.4,9.3c-4.2,2.5-8,5.7-11.3,9.5l-7.5,8.5c-5.4,6.2-9.3,13.8-11.1,21.9l-1.4,6.3
		c-1.8,7.9-1.6,16.2,0.5,24l1.4,5.4c2.6,9.7,7.9,18.3,15.5,24.8l10.7,9.2c2.5,2.1,5.1,4,7.9,5.5l22.9,12.7c4.2,2.3,8.8,4,13.5,5
		l30.7,6.2c3,0.6,6.2,0.9,9.3,0.9H256c3.2,0,6.4-0.3,9.5-1l29.3-6.1c4.7-1,9.1-2.6,13.3-5l17.9-10c1-0.6,2-1.2,2.9-1.8l14.8-9.7
		c4.3-2.8,8.1-6.3,11.4-10.4l2-2.5c6.9-8.7,10.7-19.8,10.7-31c0-6.8-1.3-13.3-3.9-19.5l-3.5-8.4c-2.1-5.1-5-9.7-8.7-13.7l-8.4-9.4
		c-3.6-4-7.8-7.4-12.5-10l-17.5-9.7c-3.1-1.7-6.4-3.1-9.8-4.1l-20.3-5.9c-1.8-0.5-3.7-0.9-5.5-1.2l-19.4-3.1
		c-1.7-0.3-3.4-0.5-5.2-0.5L230,183C229.3,183.1,228.5,183,227.8,183L227.8,183z"/>
</g>
<g>
	<path d="M227.8,217.4c0.5,0,1.1,0,1.6,0l23.1,1.1c1.3,0.1,2.5,0.2,3.7,0.4l19.4,3.1c1.3,0.2,2.7,0.5,4,0.9l20.3,5.9
		c2.5,0.7,4.8,1.7,7.1,2.9l17.5,9.7c3.4,1.9,6.5,4.4,9.1,7.3l8.4,9.4c2.7,3,4.8,6.4,6.4,10.1l3.5,8.4c1.9,4.6,2.9,9.5,2.9,14.5
		c0,8.4-2.8,16.5-7.9,23l-2,2.5c-2.4,3-5.2,5.6-8.3,7.6l-14.8,9.7c-0.7,0.5-1.4,0.9-2.1,1.3l-17.9,10c-3,1.7-6.3,2.9-9.6,3.6
		l-29.3,6.1c-2.3,0.5-4.6,0.7-6.9,0.7h-30.8c-2.2,0-4.5-0.2-6.7-0.7l-30.7-6.2c-3.4-0.7-6.7-1.9-9.7-3.6l-22.9-12.7
		c-2.1-1.1-4-2.5-5.8-4l-10.7-9.2c-5.5-4.7-9.5-11.1-11.4-18.3l-1.4-5.4c-1.5-5.8-1.7-11.9-0.4-17.8l1.4-6.3
		c1.3-6,4.2-11.6,8.2-16.2l7.5-8.5c2.4-2.7,5.2-5.1,8.2-6.9l15.4-9.3c2.1-1.2,4.2-2.3,6.5-3.1l17.7-6.1c2.7-0.9,5.5-1.5,8.3-1.8
		l26.3-2.1C226,217.5,226.9,217.4,227.8,217.4 M227.8,204.4c-1.2,0-2.5,0-3.7,0.1l-26.3,2.1c-3.9,0.3-7.8,1.1-11.6,2.4l-17.7,6.1
		c-3.1,1.1-6.1,2.5-9,4.2l-15.4,9.3c-4.2,2.5-8,5.7-11.3,9.5l-7.5,8.5c-5.4,6.2-9.3,13.8-11.1,21.9l-1.4,6.3
		c-1.8,7.9-1.6,16.2,0.5,24l1.4,5.4c2.6,9.7,7.9,18.3,15.5,24.8l10.7,9.2c2.5,2.1,5.1,4,7.9,5.5l22.9,12.7c4.2,2.3,8.8,4,13.5,5
		l30.7,6.2c3,0.6,6.2,0.9,9.3,0.9H256c3.2,0,6.4-0.3,9.5-1l29.3-6.1c4.7-1,9.1-2.6,13.3-5l17.9-10c1-0.6,2-1.2,2.9-1.8l14.8-9.7
		c4.3-2.8,8.1-6.3,11.4-10.4l2-2.5c6.9-8.7,10.7-19.8,10.7-31c0-6.8-1.3-13.3-3.9-19.5l-3.5-8.4c-2.1-5.1-5-9.7-8.7-13.7l-8.4-9.4
		c-3.6-4-7.8-7.4-12.5-10l-17.5-9.7c-3.1-1.7-6.4-3.1-9.8-4.1l-20.3-5.9c-1.8-0.5-3.7-0.9-5.5-1.2l-19.4-3.1
		c-1.7-0.3-3.4-0.5-5.2-0.5l-23.1-1.1C229.3,204.4,228.5,204.4,227.8,204.4L227.8,204.4z"/>
</g>
<g>
	<path d="M227.8,235.9c0.5,0,1.1,0,1.6,0l23.1,1c1.3,0.1,2.5,0.2,3.7,0.3l19.4,2.7c1.3,0.2,2.7,0.4,4,0.8l20.3,5.1
		c2.5,0.6,4.8,1.5,7.1,2.6l17.5,8.4c3.4,1.6,6.5,3.8,9.1,6.3l8.4,8.1c2.7,2.6,4.8,5.5,6.4,8.8l3.5,7.3c1.9,4,2.9,8.2,2.9,12.5
		c0,7.3-2.8,14.3-7.9,19.9l-2,2.1c-2.4,2.6-5.2,4.8-8.3,6.6l-14.8,8.4c-0.7,0.4-1.4,0.8-2.1,1.1l-17.9,8.6c-3,1.5-6.3,2.5-9.6,3.1
		L263,355c-2.3,0.4-4.6,0.6-6.9,0.6h-30.8c-2.2,0-4.5-0.2-6.7-0.6l-30.7-5.4c-3.4-0.6-6.7-1.6-9.7-3.1l-22.9-11
		c-2.1-1-4-2.2-5.8-3.5l-10.7-7.9c-5.5-4.1-9.5-9.6-11.4-15.8l-1.4-4.7c-1.5-5-1.7-10.3-0.4-15.4l1.4-5.4c1.3-5.2,4.2-10.1,8.2-14
		l7.5-7.4c2.4-2.4,5.2-4.4,8.2-6l15.4-8c2.1-1.1,4.2-2,6.5-2.6l17.7-5.3c2.7-0.8,5.5-1.3,8.3-1.5l26.3-1.8
		C226,235.9,226.9,235.9,227.8,235.9 M227.8,224.9c-1.1,0-2.3,0-3.4,0.1l-26.3,1.8c-3.7,0.3-7.3,0.9-10.7,2l-17.7,5.3
		c-2.9,0.9-5.8,2-8.4,3.4l-15.4,8c-4,2.1-7.7,4.8-10.9,7.9l-7.5,7.4c-5.4,5.4-9.3,12-11.1,19.1l-1.4,5.4c-1.8,7-1.6,14.4,0.5,21.4
		l1.4,4.7c2.6,8.5,7.9,15.9,15.3,21.4l10.7,7.9c2.4,1.8,4.9,3.3,7.6,4.6l22.9,11c4,1.9,8.2,3.3,12.6,4l30.7,5.4
		c2.8,0.5,5.7,0.7,8.6,0.7h30.8c3,0,5.9-0.3,8.8-0.8l29.3-5.3c4.3-0.8,8.5-2.1,12.5-4l17.9-8.6c0.9-0.5,1.9-0.9,2.8-1.5l14.8-8.4
		c4.2-2.4,7.9-5.3,11-8.8l2-2.1c7-7.6,10.8-17.3,10.8-27.3c0-6-1.4-11.9-4-17.3l-3.5-7.3c-2.1-4.4-5-8.4-8.6-11.9l-8.4-8.1
		c-3.5-3.4-7.5-6.2-12-8.4l-17.5-8.4c-2.9-1.4-6-2.5-9.2-3.3l-20.3-5.1c-1.7-0.4-3.4-0.8-5.1-1l-19.4-2.7c-1.6-0.2-3.2-0.4-4.8-0.4
		l-23.1-1C229.2,224.9,228.5,224.9,227.8,224.9L227.8,224.9z"/>
</g>
<polyline class="st0" points="59.6,220.3 98.6,332.1 188.9,386.7 219.2,382.3 261,382.4 308,377.5 375.6,338.6 399.1,256.7 
	400.1,149 403.4,156.8 400.6,167.5 389.9,191 368.6,226.6 350,238.7 327.3,247.9 305.2,251.5 220.4,261.4 189.4,257 147.5,243.6 
	89.9,206.8 71.3,193.7 "/>
<polygon class="st0" points="360.2,169.7 375.7,188.6 366.7,253.7 189.4,282.7 86.7,242.9 86.7,182.7 118.1,156.2 126.3,186.8 
	146.8,208.4 181.8,227.7 232.7,236.7 276.3,233.9 327.6,213.6 351.5,191.2 "/>
<g>
	<path d="M226.9,99.6c0.5,0,1.1,0,1.6,0l22.9,1.1c1.2,0.1,2.5,0.2,3.7,0.4l19.3,3c1.3,0.2,2.6,0.5,3.9,0.8l20.2,5.6
		c2.4,0.7,4.8,1.6,7,2.8l17.3,9.2c3.4,1.8,6.5,4.2,9.1,7l8.3,9c2.6,2.8,4.8,6.1,6.3,9.7l3.5,8c1.9,4.4,2.9,9.1,2.9,13.8
		c0,8-2.8,15.7-7.8,21.9l-1.9,2.4c-2.3,2.9-5.1,5.3-8.2,7.3l-14.7,9.3c-0.7,0.4-1.4,0.8-2.1,1.2l-17.7,9.5c-3,1.6-6.2,2.8-9.5,3.4
		l-29.1,5.8c-2.2,0.5-4.5,0.7-6.8,0.7h-30.5c-2.2,0-4.4-0.2-6.6-0.6l-30.5-5.9c-3.4-0.7-6.6-1.8-9.7-3.4L155,209.4
		c-2-1.1-4-2.4-5.7-3.8l-10.6-8.7c-5.5-4.5-9.4-10.6-11.3-17.4l-1.4-5.2c-1.5-5.6-1.7-11.4-0.3-17l1.4-6c1.3-5.8,4.1-11.1,8.1-15.5
		l7.4-8.1c2.4-2.6,5.1-4.8,8.2-6.6l15.2-8.9c2-1.2,4.2-2.2,6.5-2.9l17.6-5.9c2.7-0.9,5.5-1.5,8.3-1.7l26.1-2
		C225.1,99.7,226,99.6,226.9,99.6 M226.9,91.6L226.9,91.6c-1.1,0-2.2,0-3.3,0.1l-26.1,2c-3.5,0.3-6.9,1-10.2,2.1l-17.6,5.9
		c-2.8,0.9-5.4,2.1-7.9,3.6l-15.2,8.9c-3.8,2.2-7.1,4.9-10.1,8.1l-7.4,8.1c-4.9,5.4-8.4,12-10,19l-1.4,6c-1.6,6.9-1.4,14.1,0.4,20.9
		l1.4,5.2c2.3,8.5,7.1,15.9,13.9,21.5l10.6,8.7c2.2,1.8,4.6,3.4,7.1,4.7l22.8,12.2c3.7,2,7.7,3.4,11.9,4.2l30.5,5.9
		c2.7,0.5,5.4,0.8,8.1,0.8H255c2.8,0,5.6-0.3,8.4-0.8l29.1-5.8c4.1-0.8,8.1-2.3,11.8-4.2l17.7-9.5c0.9-0.5,1.8-1,2.6-1.5l14.7-9.3
		c3.8-2.4,7.3-5.4,10.1-9l1.9-2.4c6.2-7.6,9.7-17.2,9.7-27c0-5.9-1.2-11.6-3.6-17l-3.5-8c-1.9-4.4-4.5-8.4-7.8-11.9l-8.3-9
		c-3.2-3.5-7-6.4-11.2-8.6l-17.3-9.2c-2.7-1.5-5.7-2.6-8.7-3.5l-20.2-5.6c-1.6-0.4-3.2-0.8-4.9-1l-19.3-3c-1.5-0.2-3-0.4-4.6-0.5
		l-22.9-1.1C228.2,91.7,227.6,91.6,226.9,91.6L226.9,91.6z"/>
</g>
</svg>
