<?xml version="1.0" encoding="utf-8"?>
<!-- Generator: Adobe Illustrator 19.1.0, SVG Export Plug-In . SVG Version: 6.00 Build 0)  -->
<svg version="1.1" id="Layer_1" xmlns="http://www.w3.org/2000/svg" xmlns:xlink="http://www.w3.org/1999/xlink" x="0px" y="0px"
	 viewBox="-194 21.2 435.3 436.3" style="enable-background:new -194 21.2 435.3 436.3;" xml:space="preserve">
<style type="text/css">
	.st0{fill:#FFFFFF;}
	.st1{fill:#010101;}
	.st2{fill:#FFFFFF;stroke:#010101;stroke-miterlimit:10;}
	.st3{fill:#FFFFFF;stroke:#E6E7E8;stroke-width:5;stroke-miterlimit:10;}
</style>
<g>
	<polygon class="st0" points="-81.7,400 -62.7,70.7 86.7,68.3 134.6,400 	"/>
	<path class="st1" d="M84.4,70.9l47.3,326.7H-79l18.6-324.4L84.4,70.9 M88.8,65.8L-65,68.3l-19.2,334.3h221.8L88.8,65.8L88.8,65.8z"
		/>
</g>
<g>
	<polygon class="st0" points="-80,412.5 -81.2,405 134.5,405 133.2,412.5 	"/>
	<path class="st1" d="M131.5,407.5l-0.4,2.4h-209l-0.4-2.4H131.5 M137.5,402.5H-84.2l2.2,12.4h217.3L137.5,402.5L137.5,402.5z"/>
</g>
<g>
	<path class="st1" d="M17.7,221.5c-9.7,0-17.6-6.2-17.6-13.7s7.9-13.7,17.6-13.7s17.6,6.2,17.6,13.7S27.4,221.5,17.7,221.5z"/>
	<path class="st1" d="M17.7,195c9.2,0,16.6,5.7,16.6,12.7s-7.4,12.7-16.6,12.7s-16.6-5.7-16.6-12.7S8.5,195,17.7,195 M17.7,193
		c-10.3,0-18.6,6.6-18.6,14.7s8.3,14.7,18.6,14.7s18.6-6.6,18.6-14.7C36.3,199.6,28,193,17.7,193L17.7,193z"/>
</g>
<g>
	<path class="st1" d="M-33.3,117.7c-5.4,0-9.7-3.2-9.7-7.1s4.4-7.1,9.7-7.1s9.7,3.2,9.7,7.1S-28,117.7-33.3,117.7z"/>
</g>
<path class="st2" d="M33,212.7c-2.5,4.6-8.4,7.7-15.3,7.7c-6.8,0-12.7-3.2-15.3-7.7l0,0c2.5-4.6,8.4-7.8,15.3-7.8
	C24.5,205,30.4,208.2,33,212.7"/>
<polyline class="st3" points="63.8,116.7 83.4,306.1 87.4,345.7 92.2,392.7 "/>
<polyline class="st3" points="-66.4,326.5 -59.4,326.5 -17.4,326.5 63.7,326.5 104.7,326.5 113.7,326.5 "/>
<g>
	<path class="st1" d="M10.4,214.8l-0.2-0.2l0.4-0.4c-0.1-0.2-0.2-0.4-0.3-0.6c-0.1-0.2-0.1-0.4-0.1-0.7c0-0.5,0.1-0.9,0.4-1.3
		c0.3-0.4,0.8-0.6,1.3-0.6c0.3,0,0.5,0,0.7,0.1s0.4,0.2,0.5,0.3l0.4-0.4l0.2,0.2l-0.4,0.4c0.1,0.1,0.2,0.3,0.3,0.4
		c0.1,0.2,0.1,0.5,0.1,0.8c0,0.6-0.2,1.1-0.5,1.4c-0.3,0.4-0.7,0.5-1.3,0.5c-0.3,0-0.6-0.1-0.8-0.2c-0.1-0.1-0.3-0.2-0.4-0.3
		L10.4,214.8z M12.6,211.5c-0.2-0.1-0.4-0.1-0.6-0.1c-0.4,0-0.7,0.1-0.9,0.4c-0.2,0.3-0.3,0.6-0.3,1.1c0,0.2,0,0.3,0,0.5
		s0.1,0.3,0.2,0.4l1.9-2.1C12.7,211.7,12.6,211.6,12.6,211.5z M11.5,214.3c0.1,0.1,0.3,0.1,0.5,0.1c0.4,0,0.8-0.2,1-0.5
		s0.2-0.6,0.2-1c0-0.2,0-0.4-0.1-0.6c0-0.1-0.1-0.2-0.2-0.3l-1.9,2.1C11.2,214.1,11.3,214.2,11.5,214.3z"/>
	<path class="st1" d="M17.6,209.4c0-0.1,0-0.2-0.1-0.4s-0.4-0.3-0.7-0.3c-0.5,0-0.8,0.3-1,0.8c-0.1,0.3-0.2,0.7-0.2,1.2
		c0.2-0.2,0.4-0.4,0.6-0.4s0.5-0.1,0.8-0.1c0.6,0,1.1,0.2,1.5,0.6s0.6,1,0.6,1.6c0,0.7-0.2,1.2-0.6,1.7s-1,0.8-1.8,0.8
		c-0.9,0-1.5-0.4-2-1.1c-0.3-0.6-0.5-1.3-0.5-2.3c0-0.5,0-1,0.1-1.3c0.1-0.6,0.2-1.1,0.5-1.5c0.2-0.3,0.5-0.6,0.8-0.8
		s0.7-0.3,1.2-0.3c0.7,0,1.2,0.2,1.6,0.5s0.6,0.8,0.7,1.3H17.6z M15.9,213.4c0.2,0.2,0.5,0.4,0.8,0.4s0.6-0.1,0.7-0.3
		c0.2-0.2,0.3-0.5,0.3-0.9s-0.1-0.7-0.3-1c-0.2-0.2-0.4-0.3-0.7-0.3c-0.2,0-0.4,0.1-0.6,0.2c-0.3,0.2-0.4,0.6-0.4,1
		C15.6,212.8,15.7,213.1,15.9,213.4z"/>
	<path class="st1" d="M19.7,213.1H20v0.2c0.1-0.1,0.1-0.1,0.2-0.2c0.1-0.1,0.2-0.1,0.3-0.1s0.2,0,0.3,0.1c0,0,0.1,0.1,0.1,0.2
		c0.1-0.1,0.1-0.1,0.2-0.2c0.1,0,0.2-0.1,0.3-0.1c0.2,0,0.4,0.1,0.4,0.2c0,0.1,0.1,0.2,0.1,0.3v1h-0.3v-1.1c0-0.1,0-0.2-0.1-0.2
		s-0.1-0.1-0.2-0.1s-0.2,0-0.3,0.1s-0.1,0.2-0.1,0.3v0.9h-0.3v-1c0-0.1,0-0.2,0-0.2c0-0.1-0.1-0.1-0.2-0.1s-0.2,0-0.3,0.1
		s-0.1,0.2-0.1,0.4v0.8h-0.3V213.1L19.7,213.1z"/>
	<path class="st1" d="M22.2,213.1h0.3v0.2c0.1-0.1,0.1-0.1,0.2-0.2c0.1-0.1,0.2-0.1,0.3-0.1s0.2,0,0.3,0.1c0,0,0.1,0.1,0.1,0.2
		c0.1-0.1,0.1-0.1,0.2-0.2c0.1,0,0.2-0.1,0.3-0.1c0.2,0,0.4,0.1,0.4,0.2c0,0.1,0.1,0.2,0.1,0.3v1h-0.3v-1.1c0-0.1,0-0.2-0.1-0.2
		s-0.1-0.1-0.2-0.1s-0.2,0-0.3,0.1s-0.1,0.2-0.1,0.3v0.9h-0.3v-1c0-0.1,0-0.2,0-0.2c0-0.1-0.1-0.1-0.2-0.1s-0.2,0-0.3,0.1
		s-0.1,0.2-0.1,0.4v0.8h-0.3V213.1L22.2,213.1z"/>
	<path class="st1" d="M24.7,214.4H25v0.3h-0.3V214.4z"/>
</g>
<g>
	<path class="st0" d="M-39.5,112.7l-0.2-0.2l0.4-0.4c-0.1-0.2-0.2-0.4-0.3-0.6s-0.1-0.4-0.1-0.7c0-0.5,0.1-0.9,0.4-1.3
		c0.3-0.4,0.8-0.6,1.3-0.6c0.3,0,0.5,0,0.7,0.1s0.4,0.2,0.5,0.3l0.4-0.4l0.2,0.2l-0.4,0.4c0.1,0.1,0.2,0.3,0.3,0.4
		c0.1,0.2,0.1,0.5,0.1,0.8c0,0.6-0.2,1.1-0.5,1.4c-0.3,0.4-0.7,0.5-1.3,0.5c-0.3,0-0.6-0.1-0.8-0.2c-0.1-0.1-0.3-0.2-0.4-0.3
		L-39.5,112.7z M-37.4,109.5c-0.2-0.1-0.4-0.1-0.6-0.1c-0.4,0-0.7,0.1-0.9,0.4s-0.3,0.6-0.3,1.1c0,0.2,0,0.3,0,0.5s0.1,0.3,0.2,0.4
		l1.9-2.1C-37.2,109.6-37.2,109.5-37.4,109.5z M-38.4,112.2c0.1,0.1,0.3,0.1,0.5,0.1c0.4,0,0.8-0.2,1-0.5s0.2-0.6,0.2-1
		c0-0.2,0-0.4-0.1-0.6c0-0.1-0.1-0.2-0.2-0.3l-1.9,2.1C-38.7,112.1-38.6,112.2-38.4,112.2z"/>
	<path class="st0" d="M-32.8,111.7h-0.5v0.9h-0.8v-0.9h-1.7V111l1.6-2.6h0.9v2.7h0.5V111.7z M-34.1,111.1v-1.8l-1.1,1.8H-34.1z"/>
	<path class="st0" d="M-32.4,111.1h0.3v0.2c0.1-0.1,0.1-0.1,0.2-0.2s0.2-0.1,0.3-0.1s0.2,0,0.3,0.1c0,0,0.1,0.1,0.1,0.2
		c0.1-0.1,0.1-0.1,0.2-0.2c0.1,0,0.2-0.1,0.3-0.1c0.2,0,0.4,0.1,0.4,0.2s0.1,0.2,0.1,0.3v1h-0.3v-1.1c0-0.1,0-0.2-0.1-0.2
		s-0.1-0.1-0.2-0.1s-0.2,0-0.3,0.1s-0.1,0.2-0.1,0.3v0.9h-0.3v-1c0-0.1,0-0.2,0-0.2c0-0.1-0.1-0.1-0.2-0.1s-0.2,0-0.3,0.1
		s-0.1,0.2-0.1,0.4v0.8h-0.3C-32.4,112.4-32.4,111.1-32.4,111.1z"/>
	<path class="st0" d="M-30,111.1h0.3v0.2c0.1-0.1,0.1-0.1,0.2-0.2s0.2-0.1,0.3-0.1s0.2,0,0.3,0.1c0,0,0.1,0.1,0.1,0.2
		c0.1-0.1,0.1-0.1,0.2-0.2c0.1,0,0.2-0.1,0.3-0.1c0.2,0,0.4,0.1,0.4,0.2s0.1,0.2,0.1,0.3v1h-0.3v-1.1c0-0.1,0-0.2-0.1-0.2
		s-0.1-0.1-0.2-0.1s-0.2,0-0.3,0.1s-0.1,0.2-0.1,0.3v0.9h-0.3v-1c0-0.1,0-0.2,0-0.2c0-0.1-0.1-0.1-0.2-0.1s-0.2,0-0.3,0.1
		s-0.1,0.2-0.1,0.4v0.8H-30V111.1L-30,111.1z"/>
	<path class="st0" d="M-27.4,112.3h0.3v0.3h-0.3V112.3z"/>
</g>
<g>
	<path class="st1" d="M104.8,326.7c0.1,0.3,0.2,0.5,0.3,0.7c0.2,0.2,0.4,0.2,0.7,0.2c0.3,0,0.6-0.1,0.8-0.4c0.2-0.2,0.3-0.5,0.3-0.9
		s-0.1-0.7-0.3-0.9c-0.2-0.2-0.4-0.4-0.8-0.4c-0.2,0-0.3,0-0.4,0.1c-0.2,0.1-0.4,0.2-0.5,0.4l-1.2-0.1l0.5-3.9h3.9v1.2h-2.9
		l-0.3,1.5c0.2-0.1,0.4-0.2,0.5-0.3c0.2-0.1,0.4-0.1,0.7-0.1c0.6,0,1.1,0.2,1.5,0.6s0.7,1,0.7,1.7s-0.2,1.2-0.6,1.8
		c-0.4,0.5-1,0.8-1.9,0.8c-0.7,0-1.2-0.2-1.7-0.5s-0.7-0.9-0.7-1.5L104.8,326.7L104.8,326.7z"/>
	<path class="st1" d="M108.9,327h0.3v0.2c0.1-0.1,0.1-0.1,0.2-0.2s0.2-0.1,0.3-0.1c0.1,0,0.2,0,0.3,0.1c0,0,0.1,0.1,0.1,0.2
		c0.1-0.1,0.1-0.1,0.2-0.2c0.1,0,0.2-0.1,0.3-0.1c0.2,0,0.4,0.1,0.4,0.2s0.1,0.2,0.1,0.3v1h-0.3v-1.1c0-0.1,0-0.2-0.1-0.2
		s-0.1-0.1-0.2-0.1s-0.2,0-0.3,0.1c-0.1,0.1-0.1,0.2-0.1,0.3v0.9h-0.3v-1c0-0.1,0-0.2,0-0.2c0-0.1-0.1-0.1-0.2-0.1s-0.2,0-0.3,0.1
		c-0.1,0.1-0.1,0.2-0.1,0.4v0.8h-0.3V327z"/>
	<path class="st1" d="M111.4,327h0.3v0.2c0.1-0.1,0.1-0.1,0.2-0.2s0.2-0.1,0.3-0.1c0.1,0,0.2,0,0.3,0.1c0,0,0.1,0.1,0.1,0.2
		c0.1-0.1,0.1-0.1,0.2-0.2c0.1,0,0.2-0.1,0.3-0.1c0.2,0,0.4,0.1,0.4,0.2s0.1,0.2,0.1,0.3v1h-0.3v-1.1c0-0.1,0-0.2-0.1-0.2
		s-0.1-0.1-0.2-0.1s-0.2,0-0.3,0.1c-0.1,0.1-0.1,0.2-0.1,0.3v0.9h-0.3v-1c0-0.1,0-0.2,0-0.2c0-0.1-0.1-0.1-0.2-0.1s-0.2,0-0.3,0.1
		c-0.1,0.1-0.1,0.2-0.1,0.4v0.8h-0.3V327z"/>
	<path class="st1" d="M114,328.3h0.3v0.3H114V328.3z"/>
</g>
<g>
	<path class="st1" d="M11.6,325.7v-0.9c0.4,0,0.7,0,0.9-0.1c0.3-0.1,0.5-0.2,0.7-0.4c0.1-0.1,0.2-0.3,0.3-0.5c0-0.1,0.1-0.2,0.1-0.3
		h1.2v7.1h-1.4v-4.9L11.6,325.7L11.6,325.7z"/>
	<path class="st1" d="M21.8,324.7c-0.2,0.2-0.5,0.6-0.9,1.1s-0.7,1.1-0.9,1.6c-0.2,0.4-0.4,1-0.5,1.6s-0.2,1.2-0.2,1.6h-1.4
		c0-1.3,0.5-2.6,1.3-4c0.5-0.8,0.9-1.4,1.3-1.8H17v-1.2h5v1.1L21.8,324.7L21.8,324.7z"/>
	<path class="st1" d="M22.7,329.2h1.5v1.5h-1.5V329.2z"/>
	<path class="st1" d="M26.5,328.7c0.1,0.3,0.2,0.5,0.3,0.7c0.2,0.2,0.4,0.2,0.7,0.2c0.3,0,0.6-0.1,0.8-0.4c0.2-0.2,0.3-0.5,0.3-0.9
		s-0.1-0.7-0.3-0.9c-0.2-0.2-0.4-0.4-0.8-0.4c-0.2,0-0.3,0-0.4,0.1c-0.2,0.1-0.4,0.2-0.5,0.4l-1.2-0.1l0.5-3.9h3.9v1.2h-2.9
		l-0.3,1.5c0.2-0.1,0.4-0.2,0.5-0.3c0.2-0.1,0.4-0.1,0.7-0.1c0.6,0,1.1,0.2,1.5,0.6s0.7,1,0.7,1.7s-0.2,1.2-0.6,1.8
		c-0.4,0.5-1,0.8-1.9,0.8c-0.7,0-1.2-0.2-1.7-0.5c-0.4-0.4-0.7-0.9-0.7-1.5L26.5,328.7L26.5,328.7z"/>
	<path class="st1" d="M30.6,329h0.3v0.2c0.1-0.1,0.1-0.1,0.2-0.2c0.1-0.1,0.2-0.1,0.3-0.1s0.2,0,0.3,0.1c0,0,0.1,0.1,0.1,0.2
		c0.1-0.1,0.1-0.1,0.2-0.2c0.1,0,0.2-0.1,0.3-0.1c0.2,0,0.4,0.1,0.4,0.2s0.1,0.2,0.1,0.3v1h-0.3v-1.1c0-0.1,0-0.2-0.1-0.2
		s-0.1-0.1-0.2-0.1c-0.1,0-0.2,0-0.3,0.1c-0.1,0.1-0.1,0.2-0.1,0.3v0.9h-0.3v-1c0-0.1,0-0.2,0-0.2c0-0.1-0.1-0.1-0.2-0.1
		c-0.1,0-0.2,0-0.3,0.1s-0.1,0.2-0.1,0.4v0.8h-0.3C30.6,330.3,30.6,329,30.6,329z"/>
	<path class="st1" d="M33.1,329h0.3v0.2c0.1-0.1,0.1-0.1,0.2-0.2c0.1-0.1,0.2-0.1,0.3-0.1s0.2,0,0.3,0.1c0,0,0.1,0.1,0.1,0.2
		c0.1-0.1,0.1-0.1,0.2-0.2c0.1,0,0.2-0.1,0.3-0.1c0.2,0,0.4,0.1,0.4,0.2s0.1,0.2,0.1,0.3v1H35v-1.1c0-0.1,0-0.2-0.1-0.2
		s-0.1-0.1-0.2-0.1c-0.1,0-0.2,0-0.3,0.1s-0.1,0.2-0.1,0.3v0.9H34v-1c0-0.1,0-0.2,0-0.2c0-0.1-0.1-0.1-0.2-0.1c-0.1,0-0.2,0-0.3,0.1
		s-0.1,0.2-0.1,0.4v0.8h-0.3L33.1,329L33.1,329z"/>
	<path class="st1" d="M35.8,330.3H36v0.3h-0.3V330.3z"/>
</g>
<g>
	<path class="st1" d="M67.2,212.8c0.1,0.3,0.2,0.5,0.3,0.7c0.2,0.2,0.4,0.2,0.7,0.2c0.3,0,0.6-0.1,0.8-0.4c0.2-0.2,0.3-0.5,0.3-0.9
		s-0.1-0.7-0.3-0.9c-0.2-0.2-0.4-0.4-0.8-0.4c-0.2,0-0.3,0-0.4,0.1c-0.2,0.1-0.4,0.2-0.5,0.4l-1.2-0.1l0.5-3.9h3.9v1.2h-2.9
		l-0.3,1.5c0.2-0.1,0.4-0.2,0.5-0.3c0.2-0.1,0.4-0.1,0.7-0.1c0.6,0,1.1,0.2,1.5,0.6s0.7,1,0.7,1.7s-0.2,1.2-0.6,1.8
		c-0.4,0.5-1,0.8-1.9,0.8c-0.7,0-1.2-0.2-1.7-0.5c-0.4-0.4-0.7-0.9-0.7-1.5L67.2,212.8L67.2,212.8z"/>
	<path class="st1" d="M71.8,213.3c0.2-0.5,0.7-1,1.4-1.5c0.6-0.5,1.1-0.8,1.2-1c0.3-0.3,0.4-0.6,0.4-1c0-0.3-0.1-0.5-0.2-0.7
		s-0.4-0.3-0.7-0.3c-0.4,0-0.7,0.2-0.9,0.5c-0.1,0.2-0.1,0.5-0.2,0.9h-1.4c0-0.6,0.1-1.1,0.3-1.5c0.4-0.7,1-1.1,2-1.1
		c0.7,0,1.3,0.2,1.8,0.6c0.4,0.4,0.7,1,0.7,1.6c0,0.5-0.2,1-0.5,1.4c-0.2,0.3-0.5,0.6-1,0.9l-0.6,0.4c-0.3,0.2-0.6,0.4-0.7,0.5
		s-0.2,0.2-0.3,0.4h3.1v1.2h-4.8C71.3,214.2,71.4,213.7,71.8,213.3z"/>
	<path class="st1" d="M76.8,213.1h0.3v0.2c0.1-0.1,0.1-0.1,0.2-0.2c0.1-0.1,0.2-0.1,0.3-0.1c0.1,0,0.2,0,0.3,0.1
		c0,0,0.1,0.1,0.1,0.2c0.1-0.1,0.1-0.1,0.2-0.2c0.1,0,0.2-0.1,0.3-0.1c0.2,0,0.4,0.1,0.4,0.2c0,0.1,0.1,0.2,0.1,0.3v1h-0.4v-1.1
		c0-0.1,0-0.2-0.1-0.2s-0.1-0.1-0.2-0.1s-0.2,0-0.3,0.1c-0.1,0.1-0.1,0.2-0.1,0.3v0.9h-0.3v-1c0-0.1,0-0.2,0-0.2
		c0-0.1-0.1-0.1-0.2-0.1s-0.2,0-0.3,0.1c-0.1,0.1-0.1,0.2-0.1,0.4v0.8h-0.3L76.8,213.1L76.8,213.1L76.8,213.1z"/>
	<path class="st1" d="M79.3,213.1h0.3v0.2c0.1-0.1,0.1-0.1,0.2-0.2c0.1-0.1,0.2-0.1,0.3-0.1c0.1,0,0.2,0,0.3,0.1
		c0,0,0.1,0.1,0.1,0.2c0.1-0.1,0.1-0.1,0.2-0.2c0.1,0,0.2-0.1,0.3-0.1c0.2,0,0.4,0.1,0.4,0.2c0,0.1,0.1,0.2,0.1,0.3v1h-0.3v-1.1
		c0-0.1,0-0.2-0.1-0.2s-0.1-0.1-0.2-0.1s-0.2,0-0.3,0.1c-0.1,0.1-0.1,0.2-0.1,0.3v0.9h-0.3v-1c0-0.1,0-0.2,0-0.2
		c0-0.1-0.1-0.1-0.2-0.1s-0.2,0-0.3,0.1c-0.1,0.1-0.1,0.2-0.1,0.4v0.8h-0.3V213.1z"/>
	<path class="st1" d="M81.8,214.4h0.3v0.3h-0.3V214.4z"/>
</g>
<g>
	<path class="st1" d="M82.4,368.9V368c0.4,0,0.7,0,0.9-0.1c0.3-0.1,0.5-0.2,0.7-0.4c0.1-0.1,0.2-0.3,0.3-0.5c0-0.1,0.1-0.2,0.1-0.3
		h1.2v7.1h-1.4v-4.9L82.4,368.9L82.4,368.9z"/>
	<path class="st1" d="M88.9,371.6c0,0.3,0,0.5,0.1,0.7c0.2,0.3,0.5,0.5,0.9,0.5c0.3,0,0.5-0.1,0.7-0.3c0.2-0.2,0.3-0.5,0.3-0.8
		c0-0.5-0.2-0.8-0.6-0.9c-0.2-0.1-0.6-0.1-1-0.1v-1c0.5,0,0.8-0.1,0.9-0.1c0.3-0.1,0.5-0.4,0.5-0.8c0-0.3-0.1-0.5-0.2-0.7
		s-0.4-0.3-0.7-0.3c-0.3,0-0.6,0.1-0.7,0.3s-0.2,0.5-0.2,0.8h-1.3c0-0.4,0.1-0.7,0.2-1s0.3-0.5,0.5-0.8c0.2-0.2,0.4-0.3,0.6-0.4
		c0.3-0.1,0.6-0.1,0.9-0.1c0.7,0,1.2,0.2,1.6,0.5c0.4,0.4,0.6,0.8,0.6,1.4c0,0.4-0.1,0.8-0.4,1.1c-0.2,0.2-0.3,0.3-0.5,0.4
		c0.1,0,0.3,0.1,0.5,0.3c0.4,0.3,0.5,0.8,0.5,1.3c0,0.6-0.2,1.1-0.6,1.6s-1,0.7-1.8,0.7c-1,0-1.7-0.3-2.1-1
		c-0.2-0.3-0.3-0.8-0.3-1.4L88.9,371.6L88.9,371.6z"/>
	<path class="st1" d="M93,372.2h0.3v0.2c0.1-0.1,0.1-0.1,0.2-0.2s0.2-0.1,0.3-0.1c0.1,0,0.2,0,0.3,0.1c0,0,0.1,0.1,0.1,0.2
		c0.1-0.1,0.1-0.1,0.2-0.2c0.1,0,0.2-0.1,0.3-0.1c0.2,0,0.4,0.1,0.4,0.2s0.1,0.2,0.1,0.3v1h-0.3v-1.1c0-0.1,0-0.2-0.1-0.2
		s-0.1-0.1-0.2-0.1s-0.2,0-0.3,0.1c-0.1,0.1-0.1,0.2-0.1,0.3v0.9h-0.3v-1c0-0.1,0-0.2,0-0.2c0-0.1-0.1-0.1-0.2-0.1s-0.2,0-0.3,0.1
		c-0.1,0.1-0.1,0.2-0.1,0.4v0.8H93V372.2z"/>
	<path class="st1" d="M95.5,372.2h0.3v0.2c0.1-0.1,0.1-0.1,0.2-0.2s0.2-0.1,0.3-0.1c0.1,0,0.2,0,0.3,0.1c0,0,0.1,0.1,0.1,0.2
		c0.1-0.1,0.1-0.1,0.2-0.2c0.1,0,0.2-0.1,0.3-0.1c0.2,0,0.4,0.1,0.4,0.2s0.1,0.2,0.1,0.3v1h-0.3v-1.1c0-0.1,0-0.2-0.1-0.2
		s-0.1-0.1-0.2-0.1s-0.2,0-0.3,0.1c-0.1,0.1-0.1,0.2-0.1,0.3v0.9h-0.3v-1c0-0.1,0-0.2,0-0.2c0-0.1-0.1-0.1-0.2-0.1s-0.2,0-0.3,0.1
		c-0.1,0.1-0.1,0.2-0.1,0.4v0.8h-0.3V372.2z"/>
	<path class="st1" d="M98.2,373.5h0.3v0.3h-0.3V373.5z"/>
</g>
<g>
	<path class="st1" d="M-39.2,339c-8,0-14.6-5.6-14.6-12.4s6.5-12.4,14.6-12.4s14.6,5.6,14.6,12.4S-31.1,339-39.2,339z"/>
	<path class="st0" d="M-39.2,315.7c7.2,0,13.1,4.9,13.1,10.9s-5.9,10.9-13.1,10.9s-13.1-4.9-13.1-10.9S-46.4,315.7-39.2,315.7
		 M-39.2,312.7c-8.9,0-16.1,6.2-16.1,13.9s7.2,13.9,16.1,13.9s16.1-6.2,16.1-13.9S-30.3,312.7-39.2,312.7L-39.2,312.7z"/>
</g>
<g>
	<path class="st0" d="M-39.2,336c-5.1,0-9.7-2.3-12-6.1c-0.5-0.8-0.5-1.8,0-2.5c2.4-3.8,7-6.1,12.1-6.1c5,0,9.5,2.3,11.9,5.9
		c0.1,0.2,0.3,0.4,0.4,0.6l0.1,0.1v1.5l-0.1,0.1C-29.1,333.4-33.9,336-39.2,336z"/>
	<path class="st1" d="M-39.2,321.7c5,0,9.3,2.3,11.5,5.7c0.1,0.2,0.2,0.4,0.4,0.6c0,0.4,0,0.8,0,1.2c-2.1,3.7-6.6,6.3-11.9,6.3
		c-5,0-9.4-2.4-11.6-5.9c-0.4-0.6-0.4-1.4,0-2l0,0C-48.6,324.1-44.2,321.7-39.2,321.7 M-39.2,320.7c-5.3,0-10,2.4-12.5,6.4
		c-0.6,0.9-0.6,2.1,0,3.1c2.4,3.9,7.2,6.3,12.5,6.3c5.4,0,10.4-2.7,12.7-6.8l0.1-0.2v-0.3v-0.9V328v-0.3l-0.1-0.2
		c-0.1-0.2-0.3-0.4-0.4-0.6C-29.3,323.1-34,320.7-39.2,320.7L-39.2,320.7z"/>
</g>
<g>
	<path class="st1" d="M84.8,339c-8,0-14.6-5.6-14.6-12.4s6.5-12.4,14.6-12.4s14.6,5.6,14.6,12.4S92.9,339,84.8,339z"/>
	<path class="st0" d="M84.8,315.7c7.2,0,13.1,4.9,13.1,10.9s-5.9,10.9-13.1,10.9s-13.1-4.9-13.1-10.9S77.7,315.7,84.8,315.7
		 M84.8,312.7c-8.9,0-16.1,6.2-16.1,13.9s7.2,13.9,16.1,13.9s16.1-6.2,16.1-13.9S93.8,312.7,84.8,312.7L84.8,312.7z"/>
</g>
<path class="st2" d="M72.8,328.6c1.9,4,6.6,6.9,12.2,6.9c5.2,0,9.7-2.6,11.8-6.2c0.1-0.2,0.2-0.4,0.3-0.6c-0.2-0.4-0.4-0.8-0.7-1.2
	c-2.2-3.4-6.5-5.7-11.5-5.7c-5.1,0-9.4,2.4-11.6,5.9C73,327.9,72.8,328.3,72.8,328.6z"/>
<g>
	<path class="st1" d="M-46.2,330.7l-0.2-0.2l0.4-0.4c-0.1-0.2-0.2-0.4-0.3-0.6s-0.1-0.4-0.1-0.7c0-0.5,0.1-0.9,0.4-1.3
		c0.3-0.4,0.8-0.6,1.3-0.6c0.3,0,0.5,0,0.7,0.1s0.4,0.2,0.5,0.3l0.4-0.4l0.2,0.2l-0.4,0.4c0.1,0.1,0.2,0.3,0.3,0.4
		c0.1,0.2,0.1,0.5,0.1,0.8c0,0.6-0.2,1.1-0.5,1.4c-0.3,0.4-0.7,0.5-1.3,0.5c-0.3,0-0.6-0.1-0.8-0.2c-0.1-0.1-0.3-0.2-0.4-0.3
		L-46.2,330.7z M-44,327.5c-0.2-0.1-0.4-0.1-0.6-0.1c-0.4,0-0.7,0.1-0.9,0.4s-0.3,0.6-0.3,1.1c0,0.2,0,0.3,0,0.5s0.1,0.3,0.2,0.4
		l1.9-2.1C-43.8,327.6-43.9,327.5-44,327.5z M-45.1,330.2c0.1,0.1,0.3,0.1,0.5,0.1c0.4,0,0.8-0.2,1-0.5s0.2-0.6,0.2-1
		c0-0.2,0-0.4-0.1-0.6c0-0.1-0.1-0.2-0.2-0.3l-1.9,2.1C-45.4,330-45.2,330.1-45.1,330.2z"/>
	<path class="st1" d="M-39.5,329.7H-40v0.9h-0.8v-0.9h-1.7V329l1.6-2.6h0.9v2.7h0.5V329.7z M-40.8,329v-1.8l-1.1,1.8H-40.8z"/>
	<path class="st1" d="M-39.1,329h0.3v0.2c0.1-0.1,0.1-0.1,0.2-0.2c0.1-0.1,0.2-0.1,0.3-0.1s0.2,0,0.3,0.1c0,0,0.1,0.1,0.1,0.2
		c0.1-0.1,0.1-0.1,0.2-0.2c0.1,0,0.2-0.1,0.3-0.1c0.2,0,0.4,0.1,0.4,0.2s0.1,0.2,0.1,0.3v1h-0.3v-1.1c0-0.1,0-0.2-0.1-0.2
		s-0.1-0.1-0.2-0.1c-0.1,0-0.2,0-0.3,0.1s-0.1,0.2-0.1,0.3v0.9h-0.3v-1c0-0.1,0-0.2,0-0.2c0-0.1-0.1-0.1-0.2-0.1
		c-0.1,0-0.2,0-0.3,0.1s-0.1,0.2-0.1,0.4v0.8H-39L-39.1,329L-39.1,329z"/>
	<path class="st1" d="M-36.6,329h0.3v0.2c0.1-0.1,0.1-0.1,0.2-0.2c0.1-0.1,0.2-0.1,0.3-0.1s0.2,0,0.3,0.1c0,0,0.1,0.1,0.1,0.2
		c0.1-0.1,0.1-0.1,0.2-0.2c0.1,0,0.2-0.1,0.3-0.1c0.2,0,0.4,0.1,0.4,0.2s0.1,0.2,0.1,0.3v1h-0.3v-1.1c0-0.1,0-0.2-0.1-0.2
		c-0.1,0-0.1-0.1-0.2-0.1c-0.1,0-0.2,0-0.3,0.1s-0.1,0.2-0.1,0.3v0.9h-0.3v-1c0-0.1,0-0.2,0-0.2c0-0.1-0.1-0.1-0.2-0.1
		c-0.1,0-0.2,0-0.3,0.1s-0.1,0.2-0.1,0.4v0.8h-0.3V329L-36.6,329z"/>
	<path class="st1" d="M-34.1,330.3h0.3v0.3h-0.3V330.3z"/>
</g>
<g>
	<path class="st1" d="M79.2,330.7l-0.2-0.2l0.4-0.4c-0.1-0.2-0.2-0.4-0.3-0.6c-0.1-0.2-0.1-0.4-0.1-0.7c0-0.5,0.1-0.9,0.4-1.3
		s0.8-0.6,1.3-0.6c0.3,0,0.5,0,0.7,0.1s0.4,0.2,0.5,0.3l0.4-0.4l0.2,0.2l-0.4,0.4c0.1,0.1,0.2,0.3,0.3,0.4c0.1,0.2,0.1,0.5,0.1,0.8
		c0,0.6-0.2,1.1-0.5,1.4c-0.3,0.4-0.7,0.5-1.3,0.5c-0.3,0-0.6-0.1-0.8-0.2c-0.1-0.1-0.3-0.2-0.4-0.3L79.2,330.7z M81.4,327.5
		c-0.2-0.1-0.4-0.1-0.6-0.1c-0.4,0-0.7,0.1-0.9,0.4c-0.2,0.3-0.3,0.6-0.3,1.1c0,0.2,0,0.3,0,0.5s0.1,0.3,0.2,0.4l1.9-2.1
		C81.7,327.6,81.5,327.5,81.4,327.5z M80.3,330.2c0.1,0.1,0.3,0.1,0.5,0.1c0.4,0,0.8-0.2,1-0.5s0.2-0.6,0.2-1c0-0.2,0-0.4-0.1-0.6
		c0-0.1-0.1-0.2-0.2-0.3l-1.9,2.1C80.2,330,80.2,330.1,80.3,330.2z"/>
	<path class="st1" d="M85.9,329.7h-0.5v0.9h-0.8v-0.9h-1.7V329l1.6-2.6h0.9v2.7h0.5V329.7z M84.7,329v-1.8l-1,1.8H84.7z"/>
	<path class="st1" d="M86.3,329h0.3v0.2c0.1-0.1,0.1-0.1,0.2-0.2s0.2-0.1,0.3-0.1c0.1,0,0.2,0,0.3,0.1c0,0,0.1,0.1,0.1,0.2
		c0.1-0.1,0.1-0.1,0.2-0.2c0.1,0,0.2-0.1,0.3-0.1c0.2,0,0.4,0.1,0.4,0.2s0.1,0.2,0.1,0.3v1h-0.3v-1.1c0-0.1,0-0.2-0.1-0.2
		S88.1,329,88,329s-0.2,0-0.3,0.1c-0.1,0.1-0.1,0.2-0.1,0.3v0.9h-0.3v-1c0-0.1,0-0.2,0-0.2c0-0.1-0.1-0.1-0.2-0.1s-0.2,0-0.3,0.1
		c-0.1,0.1-0.1,0.2-0.1,0.4v0.8h-0.3V329z"/>
	<path class="st1" d="M88.8,329h0.3v0.2c0.1-0.1,0.1-0.1,0.2-0.2s0.2-0.1,0.3-0.1c0.1,0,0.2,0,0.3,0.1c0,0,0.1,0.1,0.1,0.2
		c0.1-0.1,0.1-0.1,0.2-0.2c0.1,0,0.2-0.1,0.3-0.1c0.2,0,0.4,0.1,0.4,0.2s0.1,0.2,0.1,0.3v1h-0.3v-1.1c0-0.1,0-0.2-0.1-0.2
		s-0.1-0.1-0.2-0.1s-0.2,0-0.3,0.1c-0.1,0.1-0.1,0.2-0.1,0.3v0.9h-0.3v-1c0-0.1,0-0.2,0-0.2c0-0.1-0.1-0.1-0.2-0.1s-0.2,0-0.3,0.1
		c-0.1,0.1-0.1,0.2-0.1,0.4v0.8h-0.3V329z"/>
	<path class="st1" d="M91.4,330.3h0.3v0.3h-0.3V330.3z"/>
</g>
<g>
	<path class="st1" d="M63.8,118.2c-5.7,0-10.2-3.3-10.2-7.6S58,103,63.8,103s10.2,3.3,10.2,7.6S69.4,118.2,63.8,118.2z"/>
	<path class="st0" d="M63.8,104.5c4.8,0,8.7,2.7,8.7,6.1s-3.9,6.1-8.7,6.1S55,114,55,110.6S58.8,104.5,63.8,104.5 M63.8,101.5
		c-6.6,0-11.7,4-11.7,9.1s5.1,9.1,11.7,9.1s11.7-4,11.7-9.1S70.2,101.5,63.8,101.5L63.8,101.5z"/>
</g>
<g>
	<path class="st0" d="M57.5,112.7l-0.2-0.2l0.4-0.4c-0.1-0.2-0.2-0.4-0.3-0.6s-0.1-0.4-0.1-0.7c0-0.5,0.1-0.9,0.4-1.3
		s0.8-0.6,1.3-0.6c0.3,0,0.5,0,0.7,0.1s0.4,0.2,0.5,0.3l0.4-0.4l0.2,0.2l-0.4,0.4c0.1,0.1,0.2,0.3,0.3,0.4c0.1,0.2,0.1,0.5,0.1,0.8
		c0,0.6-0.2,1.1-0.5,1.4c-0.3,0.4-0.7,0.5-1.3,0.5c-0.3,0-0.6-0.1-0.8-0.2c-0.1-0.1-0.3-0.2-0.4-0.3L57.5,112.7z M59.7,109.5
		c-0.2-0.1-0.4-0.1-0.6-0.1c-0.4,0-0.7,0.1-0.9,0.4s-0.3,0.6-0.3,1.1c0,0.2,0,0.3,0,0.5s0.1,0.3,0.2,0.4l1.9-2.1
		C59.8,109.6,59.8,109.5,59.7,109.5z M58.6,112.2c0.1,0.1,0.3,0.1,0.5,0.1c0.4,0,0.8-0.2,1-0.5c0.2-0.3,0.2-0.6,0.2-1
		c0-0.2,0-0.4-0.1-0.6c0-0.1-0.1-0.2-0.2-0.3l-1.9,2.1C58.3,112.1,58.4,112.2,58.6,112.2z"/>
	<path class="st0" d="M64.2,111.7h-0.5v0.9h-0.8v-0.9h-1.7V111l1.6-2.6h0.9v2.7h0.5V111.7z M62.9,111.1v-1.8l-1.1,1.8H62.9z"/>
	<path class="st0" d="M64.7,111.1H65v0.2c0.1-0.1,0.1-0.1,0.2-0.2s0.2-0.1,0.3-0.1s0.2,0,0.3,0.1c0,0,0.1,0.1,0.1,0.2
		c0.1-0.1,0.1-0.1,0.2-0.2c0.1,0,0.2-0.1,0.3-0.1c0.2,0,0.4,0.1,0.4,0.2s0.1,0.2,0.1,0.3v1h-0.3v-1.1c0-0.1,0-0.2-0.1-0.2
		s-0.1-0.1-0.2-0.1s-0.2,0-0.3,0.1s-0.1,0.2-0.1,0.3v0.9h-0.3v-1c0-0.1,0-0.2,0-0.2c0-0.1-0.1-0.1-0.2-0.1s-0.2,0-0.3,0.1
		s-0.1,0.2-0.1,0.4v0.8h-0.3C64.7,112.4,64.7,111.1,64.7,111.1z"/>
	<path class="st0" d="M67,111.1h0.3v0.2c0.1-0.1,0.1-0.1,0.2-0.2s0.2-0.1,0.3-0.1s0.2,0,0.3,0.1c0,0,0.1,0.1,0.1,0.2
		c0.1-0.1,0.1-0.1,0.2-0.2c0.1,0,0.2-0.1,0.3-0.1c0.2,0,0.4,0.1,0.4,0.2s0.1,0.2,0.1,0.3v1h-0.3v-1.1c0-0.1,0-0.2-0.1-0.2
		s-0.1-0.1-0.2-0.1s-0.2,0-0.3,0.1s-0.1,0.2-0.1,0.3v0.9h-0.3v-1c0-0.1,0-0.2,0-0.2c0-0.1-0.1-0.1-0.2-0.1s-0.2,0-0.3,0.1
		s-0.1,0.2-0.1,0.4v0.8H67C67,112.4,67,111.1,67,111.1z"/>
	<path class="st0" d="M69.7,112.3H70v0.3h-0.3V112.3z"/>
</g>
</svg>
