<?xml version="1.0" encoding="UTF-8" standalone="no"?>
<svg width="191px" height="206px" viewBox="0 0 191 206" version="1.1" xmlns="http://www.w3.org/2000/svg" xmlns:xlink="http://www.w3.org/1999/xlink">
    <!-- Generator: Sketch 3.7.2 (28276) - http://www.bohemiancoding.com/sketch -->
    <title>Side</title>
    <desc>Created with Sketch.</desc>
    <defs></defs>
    <g id="Page-1" stroke="none" stroke-width="1" fill="none" fill-rule="evenodd">
        <g id="Side">
            <g transform="translate(58.000000, 20.000000)">
                <g id="Bearings-Top-1" transform="translate(12.000000, 11.000000)" fill="#F9A129">
                    <circle id="Oval-1-Copy-4" cx="11" cy="130" r="11"></circle>
                    <circle id="Oval-1-Copy-7" cx="11" cy="11" r="11"></circle>
                </g>
                <g id="Bearings-Side" transform="translate(0.000000, 42.000000)">
                    <polygon id="Rectangle-8" fill="#9CD2FF" points="0 64 52 64 52 72 0 72"></polygon>
                    <rect id="Rectangle-8" fill="#EC46AC" x="0" y="62" width="5" height="12"></rect>
                    <rect id="Rectangle-8" fill="#9CD2FF" x="1" y="7" width="51" height="8"></rect>
                    <rect id="Rectangle-8" fill="#EC46AC" x="0" y="5" width="5" height="12"></rect>
                    <rect id="Rectangle-14-Copy-4" fill="#EC46AC" x="33" y="61" width="5" height="14"></rect>
                    <rect id="Rectangle-14-Copy-5" fill="#EC46AC" transform="translate(49.500000, 68.000000) scale(-1, 1) translate(-49.500000, -68.000000) " x="46" y="61" width="7" height="14"></rect>
                    <rect id="Rectangle-14-Copy-5" fill="#EC46AC" transform="translate(12.500000, 68.000000) scale(-1, 1) translate(-12.500000, -68.000000) " x="9" y="61" width="7" height="14"></rect>
                    <rect id="Rectangle-14-Copy-5" fill="#EC46AC" transform="translate(12.500000, 11.000000) scale(-1, 1) translate(-12.500000, -11.000000) " x="9" y="4" width="7" height="14"></rect>
                    <rect id="Rectangle-10" fill="#F9A129" x="38" y="57" width="8" height="22" rx="1"></rect>
                    <rect id="Rectangle-14-Copy-4" fill="#EC46AC" x="33" y="4" width="5" height="14"></rect>
                    <rect id="Rectangle-14-Copy-5" fill="#EC46AC" transform="translate(49.500000, 11.000000) scale(-1, 1) translate(-49.500000, -11.000000) " x="46" y="4" width="7" height="14"></rect>
                    <rect id="Rectangle-10" fill="#F9A129" x="38" y="0" width="8" height="22" rx="1"></rect>
                </g>
                <g id="Group-2" transform="translate(2.000000, 8.000000)">
                    <path d="M0,0.997030139 C0,0.446385598 0.442660332,0 0.998956561,0 L3,0 L3,2 L11,2 L11,6 L3,6 L3,8 L0.998956561,8 C0.447248087,8 0,7.54696369 0,7.00296986 L0,0.997030139 Z" id="Rectangle-39" fill="#0069C1"></path>
                    <rect id="Rectangle-40" fill="#EC46AC" x="7" y="0" width="2" height="8"></rect>
                    <path d="M0,20.9970301 C0,20.4463856 0.442660332,20 0.998956561,20 L3,20 L3,22 L11,22 L11,26 L3,26 L3,28 L0.998956561,28 C0.447248087,28 0,27.5469637 0,27.0029699 L0,20.9970301 Z" id="Rectangle-39" fill="#0069C1"></path>
                    <rect id="Rectangle-40" fill="#EC46AC" x="7" y="20" width="2" height="8"></rect>
                    <path d="M0,57.9970301 C0,57.4463856 0.442660332,57 0.998956561,57 L3,57 L3,59 L11,59 L11,63 L3,63 L3,65 L0.998956561,65 C0.447248087,65 0,64.5469637 0,64.0029699 L0,57.9970301 Z" id="Rectangle-39" fill="#0069C1"></path>
                    <rect id="Rectangle-40" fill="#EC46AC" x="7" y="57" width="2" height="8"></rect>
                    <path d="M0,82.9970301 C0,82.4463856 0.442660332,82 0.998956561,82 L3,82 L3,84 L11,84 L11,88 L3,88 L3,90 L0.998956561,90 C0.447248087,90 0,89.5469637 0,89.0029699 L0,82.9970301 Z" id="Rectangle-39" fill="#0069C1"></path>
                    <rect id="Rectangle-40" fill="#EC46AC" x="7" y="82" width="2" height="8"></rect>
                    <path d="M0,119.99703 C0,119.446386 0.442660332,119 0.998956561,119 L3,119 L3,121 L11,121 L11,125 L3,125 L3,127 L0.998956561,127 C0.447248087,127 0,126.546964 0,126.00297 L0,119.99703 Z" id="Rectangle-39" fill="#0069C1"></path>
                    <rect id="Rectangle-40" fill="#EC46AC" x="7" y="119" width="2" height="8"></rect>
                    <path d="M0,139.99703 C0,139.446386 0.442660332,139 0.998956561,139 L3,139 L3,141 L11,141 L11,145 L3,145 L3,147 L0.998956561,147 C0.447248087,147 0,146.546964 0,146.00297 L0,139.99703 Z" id="Rectangle-39" fill="#0069C1"></path>
                    <rect id="Rectangle-40" fill="#EC46AC" x="7" y="139" width="2" height="8"></rect>
                </g>
                <g id="Aluminum" opacity="0.74766791" transform="translate(5.000000, 0.000000)">
                    <path d="M3,0 L33,0 L33,163 L3,163 L3,0 Z M18,26 C20.209139,26 22,24.209139 22,22 C22,19.790861 20.209139,18 18,18 C15.790861,18 14,19.790861 14,22 C14,24.209139 15.790861,26 18,26 Z M18,145 C20.209139,145 22,143.209139 22,141 C22,138.790861 20.209139,137 18,137 C15.790861,137 14,138.790861 14,141 C14,143.209139 15.790861,145 18,145 Z" id="Combined-Shape" fill="#D4D4D4"></path>
                    <rect id="Rectangle-37" fill="#686868" opacity="0.524195429" x="0" y="0" width="3" height="163"></rect>
                </g>
                <g id="Bearings-Top" transform="translate(15.000000, 14.000000)">
                    <circle id="Oval-1-Copy" fill="#BFBFBF" cx="8" cy="8" r="8"></circle>
                    <circle id="Oval-1-Copy-9" fill="#9CD2FF" cx="8" cy="127" r="4"></circle>
                    <g id="8mm-Nut" transform="translate(0.000000, 119.000000)">
                        <path d="M7.69743797,0.243756162 C7.94164811,0.109806276 8.33952201,0.120123734 8.57306728,0.259040325 L14.6352958,3.86495415 C14.8746823,4.00734524 15.0647155,4.3535377 15.0600097,4.62313566 L14.937858,11.6211982 C14.9330344,11.8975392 14.7251937,12.2334142 14.4869426,12.3640955 L8.30256239,15.7562438 C8.05835227,15.8901937 7.66047837,15.8798762 7.42693309,15.7409596 L1.36470435,12.1350455 C1.12531776,11.9926544 0.935284554,11.646462 0.939990404,11.376864 L1.06214205,4.37880199 C1.0669656,4.10246103 1.2748063,3.76658604 1.51305743,3.63590468 L7.69743797,0.243756162 Z" id="Polygon-1" fill="#EC46AC" transform="translate(8.000000, 8.000000) rotate(179.000000) translate(-8.000000, -8.000000) "></path>
                        <circle id="Oval-59" fill="#9CD2FF" cx="8" cy="8" r="4"></circle>
                    </g>
                    <g id="8mm-Nut">
                        <path d="M7.69743797,0.243756162 C7.94164811,0.109806276 8.33952201,0.120123734 8.57306728,0.259040325 L14.6352958,3.86495415 C14.8746823,4.00734524 15.0647155,4.3535377 15.0600097,4.62313566 L14.937858,11.6211982 C14.9330344,11.8975392 14.7251937,12.2334142 14.4869426,12.3640955 L8.30256239,15.7562438 C8.05835227,15.8901937 7.66047837,15.8798762 7.42693309,15.7409596 L1.36470435,12.1350455 C1.12531776,11.9926544 0.935284554,11.646462 0.939990404,11.376864 L1.06214205,4.37880199 C1.0669656,4.10246103 1.2748063,3.76658604 1.51305743,3.63590468 L7.69743797,0.243756162 Z" id="Polygon-1" fill="#EC46AC" transform="translate(8.000000, 8.000000) rotate(179.000000) translate(-8.000000, -8.000000) "></path>
                        <circle id="Oval-59" fill="#9CD2FF" cx="8" cy="8" r="4"></circle>
                    </g>
                </g>
            </g>
        </g>
    </g>
</svg>