<?xml version="1.0" encoding="utf-8"?>
<!-- Generator: Adobe Illustrator 19.2.1, SVG Export Plug-In . SVG Version: 6.00 Build 0)  -->
<svg version="1.1" id="Layer_1" xmlns="http://www.w3.org/2000/svg" xmlns:xlink="http://www.w3.org/1999/xlink" x="0px" y="0px"
	 viewBox="0 0 477.5 477.5" style="enable-background:new 0 0 477.5 477.5;" xml:space="preserve">
<style type="text/css">
	.st0{fill:#FFFFFF;}
	.st1{fill:none;stroke:#000000;stroke-width:8;stroke-miterlimit:10;}
	.st2{fill:#FFFFFF;stroke:#000000;stroke-width:8;stroke-miterlimit:10;}
</style>
<g>
	<path d="M266.4,169L368,227.3L222,348.7l-99.7-66.2L266.4,169 M265.7,159.4L108.7,283l113.9,75.7L382,226.1L265.7,159.4
		L265.7,159.4z"/>
</g>
<g>
	<polygon class="st0" points="241.7,181.4 241.7,135.6 260.4,120.3 299.7,143 299.7,188.9 281,204.1 	"/>
	<path d="M260.7,125.2l34.9,20.2V187l-15,12.3l-34.9-20.2v-41.6L260.7,125.2 M260,115.5l-22.2,18.2v50l43.7,25.2l22.2-18.2v-50
		L260,115.5L260,115.5z"/>
</g>
<g>
	<path d="M260.7,125.2l28.9,16.7l-9,7.3l-28.9-16.7L260.7,125.2 M260,115.5l-22.2,18.2l43.7,25.2l22.2-18.2L260,115.5L260,115.5z"/>
</g>
<line class="st1" x1="281.7" y1="152.7" x2="281.7" y2="202.7"/>
<g>
	<polygon class="st0" points="296.7,214.4 296.7,168.6 315.4,153.3 354.7,176 354.7,221.9 336,237.1 	"/>
	<path d="M315.7,158.2l34.9,20.2V220l-15,12.3l-34.9-20.2v-41.6L315.7,158.2 M315,148.5l-22.2,18.2v50l43.7,25.2l22.2-18.2v-50
		L315,148.5L315,148.5z"/>
</g>
<g>
	<path d="M315.7,158.2l28.9,16.7l-9,7.3l-28.9-16.7L315.7,158.2 M315,148.5l-22.2,18.2l43.7,25.2l22.2-18.2L315,148.5L315,148.5z"/>
</g>
<line class="st1" x1="336.7" y1="185.7" x2="336.7" y2="235.7"/>
<polygon class="st2" points="172.7,238.7 172.7,170.7 199.7,149.1 199.7,215.7 "/>
<polygon class="st2" points="184.7,247.7 184.7,179.7 211.7,158.1 211.7,224.7 "/>
<polygon class="st2" points="195.7,252.7 195.7,184.7 222.7,163.1 222.7,229.7 "/>
<polygon class="st2" points="206.7,259.7 206.7,191.7 233.7,170.1 233.7,236.7 "/>
<polygon class="st2" points="217.7,266.7 217.7,198.7 244.7,177.1 244.7,243.7 "/>
<polygon class="st2" points="238.7,272.7 238.7,204.7 265.7,183.1 265.7,249.7 "/>
<polygon class="st2" points="250.7,279.7 250.7,211.7 277.7,190.1 277.7,256.7 "/>
<polygon class="st2" points="261.7,286.7 261.7,218.7 288.7,197.1 288.7,263.7 "/>
<polygon class="st2" points="272.7,293.7 272.7,225.7 299.7,204.1 299.7,270.7 "/>
<polygon class="st2" points="283.7,300.7 283.7,232.7 310.7,211.1 310.7,277.7 "/>
<path class="st2" d="M225.3,331.6l-14.6-8.4c-2.6-1.5-3.5-4.9-2-7.5l0,0c1.5-2.6,4.9-3.5,7.5-2l14.6,8.4c2.6,1.5,3.5,4.9,2,7.5l0,0
	C231.3,332.2,227.9,333.2,225.3,331.6z"/>
<path class="st2" d="M236.3,321l-14.6-8.4c-2.6-1.5-3.5-4.9-2-7.5l0,0c1.5-2.6,4.9-3.5,7.5-2l14.6,8.4c2.6,1.5,3.5,4.9,2,7.5l0,0
	C242.3,321.6,238.9,322.5,236.3,321z"/>
<path class="st2" d="M249.9,309.7l-14.6-8.4c-2.6-1.5-3.5-4.9-2-7.5l0,0c1.5-2.6,4.9-3.5,7.5-2l14.6,8.4c2.6,1.5,3.5,4.9,2,7.5l0,0
	C255.9,310.3,252.5,311.2,249.9,309.7z"/>
<path class="st2" d="M188.5,275.8l-14.6-8.4c-2.6-1.5-3.5-4.9-2-7.5l0,0c1.5-2.6,4.9-3.5,7.5-2l14.6,8.4c2.6,1.5,3.5,4.9,2,7.5l0,0
	C194.5,276.4,191.1,277.3,188.5,275.8z"/>
<path class="st2" d="M176,285.9l-14.6-8.4c-2.6-1.5-3.5-4.9-2-7.5l0,0c1.5-2.6,4.9-3.5,7.5-2l14.6,8.4c2.6,1.5,3.5,4.9,2,7.5l0,0
	C182,286.5,178.6,287.4,176,285.9z"/>
<path class="st2" d="M163.9,295.7l-14.6-8.4c-2.6-1.5-3.5-4.9-2-7.5l0,0c1.5-2.6,4.9-3.5,7.5-2l14.6,8.4c2.6,1.5,3.5,4.9,2,7.5l0,0
	C169.9,296.3,166.5,297.2,163.9,295.7z"/>
<polygon class="st2" points="178.7,251.3 157.4,267.8 143.1,261.6 164.7,244.5 "/>
<path class="st1" d="M160.9,256.1c0-39-56.8-18.2-79.4-3.4C47.1,275.3,38.2,319,64.1,351c43.3,53.3,180.1,84.1,228.6,35.6"/>
<path class="st1" d="M154.9,260.1c1.4-38.2-56.8-18.2-79.4-3.4C41.1,279.3,32.2,323,58.1,355c43.3,53.3,180.1,78.1,228.6,29.6"/>
<path class="st1" d="M165.9,253.1c1-45.2-56.8-18.2-79.4-3.4C52.1,272.3,43.2,316,69.1,348c43.3,53.3,182.1,90.1,230.6,41.6"/>
<ellipse class="st1" cx="314.3" cy="353.1" rx="40.1" ry="29.4"/>
<path class="st1" d="M354.3,374.2c0,16.2-17.9,29.4-40.1,29.4c-22.1,0-40.1-13.2-40.1-29.4v-21c0-16.2,17.9-29.4,40.1-29.4
	c22.1,0,40.1,13.2,40.1,29.4V374.2z"/>
<path class="st2" d="M339.1,353.1c0,10.1-11.1,18.2-24.8,18.2c-13.7,0-24.8-8.2-24.8-18.2l5.3-40c0-7.9,8.7-14.3,19.5-14.3
	s19.5,6.4,19.5,14.3L339.1,353.1z"/>
<ellipse class="st1" cx="314.3" cy="313.1" rx="19.5" ry="14.3"/>
<polyline class="st1" points="314.3,313.1 323.8,322.7 328.1,365.7 "/>
</svg>
