<?xml version="1.0" encoding="utf-8"?>
<!-- Generator: Adobe Illustrator 19.2.1, SVG Export Plug-In . SVG Version: 6.00 Build 0)  -->
<svg version="1.1" id="Layer_1" xmlns="http://www.w3.org/2000/svg" xmlns:xlink="http://www.w3.org/1999/xlink" x="0px" y="0px"
	 viewBox="0 0 477.5 477.5" style="enable-background:new 0 0 477.5 477.5;" xml:space="preserve">
<style type="text/css">
	.st0{fill:none;stroke:#000000;stroke-width:8;stroke-miterlimit:10;}
	.st1{fill:#FFFFFF;stroke:#000000;stroke-width:8;stroke-miterlimit:10;}
</style>
<path class="st0" d="M332.7,140.8c32.5-32.5,11-82.8,11-82.8"/>
<path class="st1" d="M347.7,189.1L189.1,347.7c-16.4,16.4-43,16.4-59.3,0l0,0c-16.4-16.4-16.4-43,0-59.3l158.6-158.6
	c16.4-16.4,43-16.4,59.3,0l0,0C364.1,146.2,364.1,172.7,347.7,189.1z"/>
<path class="st0" d="M138.7,338.7c-27.4,27.4-98.5,24-98.5,24"/>
<path class="st1" d="M255,163.2c16.4-16.4,43-16.4,59.3,0l0,0c16.4,16.4,16.4,43,0,59.3"/>
<path class="st1" d="M230.3,187.9c16.4-16.4,43-16.4,59.3,0l0,0c16.4,16.4,16.4,43,0,59.3"/>
<path class="st1" d="M206.8,211.3c16.4-16.4,43-16.4,59.3,0l0,0c16.4,16.4,16.4,43,0,59.3"/>
<path class="st1" d="M182.1,236c16.4-16.4,43-16.4,59.3,0l0,0c16.4,16.4,16.4,43,0,59.3"/>
<path class="st1" d="M155.6,262.5c16.4-16.4,43-16.4,59.3,0l0,0c16.4,16.4,16.4,43,0,59.3"/>
</svg>
