<?xml version="1.0" encoding="utf-8"?>
<!-- Generator: Adobe Illustrator 19.2.1, SVG Export Plug-In . SVG Version: 6.00 Build 0)  -->
<svg version="1.1" id="Layer_1" xmlns="http://www.w3.org/2000/svg" xmlns:xlink="http://www.w3.org/1999/xlink" x="0px" y="0px"
	 viewBox="0 0 477.5 477.5" style="enable-background:new 0 0 477.5 477.5;" xml:space="preserve">
<style type="text/css">
	.st0{fill:url(#SVGID_1_);}
	.st1{fill:url(#SVGID_2_);}
</style>
<g id="Layer_6">
	<g>
		<path d="M-9.9-13.8c6.5,0,13,1.7,18.6,4.9l387,287.8c1,0.9,9.2,8.2,14.9,19.2c7.9,15.4,7.4,30.7-1.5,45.5
			c-10,16.8-24.3,25.3-42.5,25.3c-11.4,0-20.8-3.4-23.5-4.5L-36,60.9l-0.3-0.2l-0.3-0.2c-8.7-5.8-14.6-15.1-16.3-25.4
			c-1.3-8.2,0.2-16.7,4.3-24l2.5-4.5c4.5-8.2,11.9-14.3,20.8-17.3l3.5-1.2C-18-13.1-14-13.8-9.9-13.8 M-9.9-21.8
			c-4.9,0-9.8,0.8-14.5,2.4l-3.5,1.2c-10.7,3.6-19.7,11.1-25.2,21l-2.5,4.5c-4.9,8.9-6.7,19.1-5.2,29.1l0,0
			c2,12.6,9.1,23.8,19.7,30.8l380,304.3c0,0,12.1,5.6,27.6,5.6c15.9,0,35.3-5.8,49.3-29.2c25.1-41.9-15.2-75.1-15.2-75.1L13.1-15.5
			C6.1-19.7-1.9-21.8-9.9-21.8L-9.9-21.8z"/>
	</g>
	<g>
		<path d="M371.1,272.1c10.4,0,19.8,3.8,25.2,7.3c10.2,6.7,28.3,34.8,12.5,64.7c-4.5,8.5-11.3,15-20.1,19.3
			c-9.5,4.6-19.1,5.6-25.4,5.6c-9.9,0-16.9-2.3-20-4.3c-5.9-3.8-34.1-24.9-10.1-67.6C342.5,280.5,355.2,272.1,371.1,272.1
			 M371.1,264.1c-15.4,0-32.5,6.9-44.9,29.1c-22.8,40.8-3.6,67.7,12.8,78.3c5.1,3.3,14.1,5.5,24.3,5.5c18.5,0,41.1-7.3,52.6-29.2
			c17.6-33.2-1.3-66-15.2-75.1C393.9,268.2,383.1,264.1,371.1,264.1L371.1,264.1z"/>
	</g>
</g>
<linearGradient id="SVGID_1_" gradientUnits="userSpaceOnUse" x1="221.65" y1="424.58" x2="221.65" y2="479.18" gradientTransform="matrix(1 0 0 -1 0 479.1801)">
	<stop  offset="0" style="stop-color:#FFFFFF;stop-opacity:0"/>
	<stop  offset="8.192581e-02" style="stop-color:#FFFFFF;stop-opacity:8.192581e-02"/>
	<stop  offset="1" style="stop-color:#FFFFFF"/>
</linearGradient>
<rect y="0" class="st0" width="443.3" height="54.6"/>
<linearGradient id="SVGID_2_" gradientUnits="userSpaceOnUse" x1="-1459.9762" y1="764.6489" x2="-1459.9762" y2="819.2489" gradientTransform="matrix(4.489700e-11 -1 -1 -4.489700e-11 819.2489 -1285.4261)">
	<stop  offset="0" style="stop-color:#FFFFFF;stop-opacity:0"/>
	<stop  offset="8.192581e-02" style="stop-color:#FFFFFF;stop-opacity:8.192581e-02"/>
	<stop  offset="1" style="stop-color:#FFFFFF"/>
</linearGradient>
<polygon class="st1" points="54.6,1.3 54.6,347.8 0,347.8 0,1.3 "/>
</svg>
