<?xml version="1.0" encoding="utf-8"?>
<!-- Generator: Adobe Illustrator 19.2.1, SVG Export Plug-In . SVG Version: 6.00 Build 0)  -->
<svg version="1.1" id="Layer_1" xmlns="http://www.w3.org/2000/svg" xmlns:xlink="http://www.w3.org/1999/xlink" x="0px" y="0px"
	 viewBox="0 0 477.5 477.5" style="enable-background:new 0 0 477.5 477.5;" xml:space="preserve">
<style type="text/css">
	.st0{fill:#FFFFFF;}
	.st1{fill:#FFFFFF;stroke:#000000;stroke-width:8;stroke-miterlimit:10;}
</style>
<g>
	<path class="st0" d="M116.1,234.5c-2.4,0-4.9-0.3-7.2-1l-45-12.1c-0.3-0.1-0.5-0.1-0.8-0.2l-8.3-1l-1.5-16c2.9-0.2,5.2-2.5,5.4-5.5
		l0.5-8.6c0.4-6.9,3-13.4,7.4-18.8c11.2-13.5,26.9-22.9,44.1-26.6l69.8-14.7c7.8-1.6,15.8-2.6,23.7-2.8l56.7-1.6c1,0,2,0,3,0
		c8.8,0,17.6,1.1,26.1,3.2l91.7,22.5c9,2.2,17.5,6.5,24.6,12.4l1,0.8c4.1,3.3,6.9,7.8,8.2,12.9l5.8,22.7c0.3,1,0.8,2,1.5,2.7
		l2.1,2.1l-2.6,14.9l-19.1,1.2l-57.9-9.3l-18.5-7.5l3.3-14.4c2.4-0.8,4.1-3,4.1-5.6v-13c0-1.4-0.5-2.8-1.4-3.8l-6.7-7.8
		c-0.7-0.8-1.7-1.5-2.8-1.8l-9.7-2.9L163,159.1l-13.9,10.8l-0.4,0.8c-0.4,0.8-0.6,1.7-0.6,2.6v9.1c0,0.6,0.1,1.2,0.3,1.7l6.5,20.9
		l-7.1,5c-0.7,0.5-1.3,1.1-1.7,1.9l-7.8,13.6l-7.6,4.7C126.3,233,121.3,234.5,116.1,234.5z"/>
	<path d="M264,129.8L264,129.8c8.5,0,16.9,1,25.1,3l91.7,22.5c8.4,2.1,16.3,6.1,23,11.6l1,0.8c3.4,2.8,5.7,6.5,6.8,10.8l5.7,22.7
		c0.4,1.7,1.3,3.3,2.6,4.5l0.6,0.6l-1.7,9.8l-15.5,1l-57-9.2l-15-6l2.1-9.2c2.8-1.7,4.6-4.8,4.6-8.3v-13c0-2.4-0.8-4.6-2.4-6.4
		l-6.7-7.8c-1.2-1.4-2.8-2.5-4.6-3l-9.1-2.7l-1.2-0.4h-1.3l-126.6,3.3l-22,0.6l-2.6,0.1l-2.1,1.6l-12.1,9.5l-1.4,1.1l-0.8,1.6
		c-0.7,1.4-1.1,2.9-1.1,4.5v9.1c0,1,0.1,2,0.4,2.9l5.6,18.1l-4.7,3.3c-1.2,0.8-2.2,1.9-2.9,3.2l-7.3,12.8l-6.7,4.2
		c-3.8,2.3-8.1,3.6-12.5,3.6c-2.1,0-4.2-0.3-6.2-0.8l-45-12.1c-0.4-0.1-0.9-0.2-1.4-0.3l-5.1-0.6l-0.9-9.6c2.9-1.6,4.9-4.6,5.1-8
		l0.5-8.6c0.4-6.1,2.6-11.8,6.5-16.5c10.7-12.8,25.5-21.8,41.8-25.2l69.8-14.7c7.6-1.6,15.3-2.5,23-2.7l56.7-1.6
		C262.1,129.8,263.1,129.8,264,129.8 M264,121.8c-1,0-2.1,0-3.1,0l-56.7,1.6c-8.2,0.2-16.4,1.2-24.4,2.9L110,140.9
		c-18.2,3.8-34.5,13.7-46.4,27.9c-5,6-7.9,13.3-8.4,21.1l-0.5,8.6c-0.1,1-0.9,1.7-1.8,1.7h-2c-1.1,0-1.9,0.9-1.8,2l1.9,20
		c0.1,0.9,0.7,1.6,1.6,1.7l10,1.2c0.1,0,0.2,0,0.3,0l45,12.1c2.7,0.7,5.5,1.1,8.3,1.1c5.9,0,11.7-1.6,16.8-4.8l8-5
		c0.3-0.2,0.5-0.4,0.6-0.6l8.1-14.1c0.1-0.2,0.3-0.4,0.5-0.6l8.4-5.9c0.7-0.5,0.9-1.3,0.7-2.1l-7-22.4c-0.1-0.2-0.1-0.4-0.1-0.5
		v-9.1c0-0.3,0.1-0.6,0.2-0.8l12.1-9.5l22-0.6l126.6-3.3l9.1,2.7c0.3,0.1,0.6,0.3,0.9,0.6l6.7,7.8c0.3,0.3,0.4,0.8,0.4,1.2v13
		c0,1-0.8,1.8-1.8,1.8l0,0c-0.9,0-1.6,0.6-1.8,1.4l-4,17.6c-0.2,0.9,0.3,1.8,1.1,2.1l20.5,8.3c0.1,0.1,0.3,0.1,0.4,0.1L403,225
		c0.1,0,0.2,0,0.3,0h0.1l21-1.4c0.8-0.1,1.5-0.7,1.7-1.5l3.1-17.7c0.1-0.6-0.1-1.2-0.5-1.6l-2.9-2.9c-0.2-0.2-0.4-0.5-0.5-0.9
		l-5.7-22.7c-1.5-5.9-4.8-11.1-9.5-15l-1-0.8c-7.6-6.3-16.6-10.8-26.2-13.2l-91.7-22.5C282.2,122.9,273.1,121.8,264,121.8L264,121.8
		z"/>
</g>
<path class="st1" d="M291.3,177c0.6-1.9,1.7-3.5,3.3-4.7l14.6-11.2c1-0.8,1.8-1.7,2.4-2.8l7.5-13.1c1.2-2,1.5-4.4,1-6.7l-4.3-19.2
	c-0.6-2.7-2.3-4.9-4.7-6.2l-2.7-1.4c-3.1-1.7-6.9-1.5-9.8,0.5l-3,2.1c-1.8,1.2-3.1,3.1-3.7,5.2l-7,24.3c-0.6,2-1.8,3.8-3.5,5
	l-3.5,2.6c-1.7,1.2-3.7,1.9-5.8,1.8l-59.6-1.3c-2.4-0.1-4.7-1-6.4-2.8l-3.5-3.5c-1-1-1.8-2.3-2.3-3.6l-8.5-25.1
	c-0.9-2.8-3.1-4.9-5.9-5.9l-1.4-0.5c-2.5-0.9-5.3-0.6-7.7,0.7l0,0c-2.4,1.4-4.1,3.7-4.6,6.5l-4.4,23.3c-0.6,3.1,0.4,6.2,2.6,8.4
	l20.9,20.9l-2,5.6c-12.5,7.6-20.2,18.1-20.2,29.6v6.5l-4.5,10.3l-7.8,16.3c-2.3,4.8-6,8.8-10.7,11.3l0,0c-3.9,2.1-7.3,5-10.1,8.4
	l-23.5,29c-2.7,3.3-4.8,7.1-6.3,11.2l0,0c-0.6,1.7-8.1,32.2-8.1,36.4V349c0,4.3,2.5,8.1,6.5,9.8l3.9,1.7c7.8,3.3,16.1,5.1,24.6,5.3
	l207.3,3c6.9,0.1,13.7-1.2,20-3.9l11.7-5c4.3-1.8,7-6,7-10.6v-24.6c0-1.6-8.4-31.1-9-32.1l-16.7-25c-5.2-7.8-12.5-13.9-21.1-17.6
	l-8.7-3.8l-10.4-27.4l-2.5-9.9v-3.2c0-9.8-5.6-18.9-15.1-26.1L291.3,177z"/>
</svg>
