<?xml version="1.0" encoding="utf-8"?>
<!-- Generator: Adobe Illustrator 19.2.1, SVG Export Plug-In . SVG Version: 6.00 Build 0)  -->
<svg version="1.1" id="Layer_1" xmlns="http://www.w3.org/2000/svg" xmlns:xlink="http://www.w3.org/1999/xlink" x="0px" y="0px"
	 viewBox="0 0 477.5 477.5" style="enable-background:new 0 0 477.5 477.5;" xml:space="preserve">
<style type="text/css">
	.st0{fill:#FFFFFF;}
</style>
<g>
	<path class="st0" d="M175.4,428.7l-8.6-8.9c-1.3-1.4-3.1-2.1-5-2.1h-59.4l-8.1-8v-92.9l8.3-8.2h7.9c1.9,0,3.6-0.7,4.9-2l7-7h20.8
		c3.9,0,7-3.1,7-7v-6.3c0-1.9-0.7-3.6-2-4.9l-14.7-14.7c-1.3-1.3-3.1-2.1-5-2.1h-5.3V113.7c3.4-0.5,6-3.4,6-6.9v-5.3
		c0-1.9-0.7-3.6-2.1-5l-3.9-3.9V80.7h163v8.8l-3.9,3.7c-1.4,1.3-2.1,3.1-2.1,5v4.4c0,3.5,2.6,6.4,6,6.9v155.1H282
		c-1.8,0-3.6,0.7-4.9,2L265.4,278c-1.4,1.3-2.1,3.1-2.1,5v5.6c0,3.9,3.1,7,7,7h22.3c1.8,0,3.6-0.7,4.9-2l25.4-25h36.3l22,22
		l2.2,41.6v65.2l-15.6,15.2H330c-1.9,0-3.7,0.8-5,2.1l-10.5,10.9h-27.1l-7.2-7c-1.3-1.3-3.1-2-4.9-2H252c-1.9,0-3.6,0.7-5,2.1
		l-9.9,9.9L175.4,428.7L175.4,428.7z"/>
	<path d="M282.2,84.7v3.1l-2.6,2.5c-2.1,2.1-3.4,4.9-3.4,7.9v4.4c0,4.3,2.4,8,6,9.8v148.2H282c-2.9,0-5.6,1.1-7.7,3.1l-11.7,11.4
		c-2.1,2.1-3.3,4.9-3.3,7.9v5.6c0,6.1,4.9,11,11,11h22.3c2.9,0,5.6-1.1,7.7-3.2l24.2-23.8h33l19.7,19.7l2.1,40v63.4l-13.3,13h-36
		c-3,0-5.8,1.2-7.9,3.3l-9.4,9.7H289l-6-5.9c-2.1-2-4.8-3.1-7.7-3.1H252c-2.9,0-5.7,1.2-7.8,3.2l-8.7,8.8h-58.3l-7.4-7.7
		c-2.1-2.1-4.9-3.3-7.9-3.3H104l-5.8-5.6v-89.5l6-5.9h6.3c2.9,0,5.7-1.1,7.8-3.2l5.8-5.8h19.1c6.1,0,11-4.9,11-11v-6.3
		c0-2.9-1.1-5.7-3.2-7.8L136.3,264c-2-2.1-4.9-3.2-7.8-3.2h-1.3V116.5c3.6-1.8,6-5.5,6-9.8v-5.3c0-2.9-1.1-5.7-3.2-7.8l-2.8-2.8
		v-6.2h155 M287.2,76.7h-165c-1.7,0-3,1.3-3,3V93c0,0.8,0.3,1.6,0.9,2.1l4.2,4.2c0.6,0.6,0.9,1.3,0.9,2.1v5.3c0,1.7-1.3,3-3,3
		s-3,1.3-3,3v153c0,1.7,1.3,3,3,3h6.3c0.8,0,1.6,0.3,2.1,0.9l14.7,14.7c0.6,0.6,0.9,1.3,0.9,2.1v6.3c0,1.7-1.3,3-3,3H122
		c-0.8,0-1.6,0.3-2.1,0.9l-7.3,7.3c-0.6,0.6-1.3,0.9-2.1,0.9h-8.3c-0.8,0-1.5,0.3-2.1,0.9l-8.9,8.8c-0.6,0.6-0.9,1.3-0.9,2.1v93.7
		c0,0.8,0.3,1.6,0.9,2.1l8.7,8.5c0.6,0.5,1.3,0.9,2.1,0.9h59.8c0.8,0,1.6,0.3,2.2,0.9l8.9,9.2c0.6,0.6,1.3,0.9,2.2,0.9h62.5
		c0.8,0,1.6-0.3,2.1-0.9l10.2-10.2c0.6-0.6,1.3-0.9,2.1-0.9h23.3c0.8,0,1.5,0.3,2.1,0.9l7.5,7.3c0.6,0.5,1.3,0.9,2.1,0.9h27.9
		c0.8,0,1.6-0.3,2.2-0.9l10.8-11.2c0.6-0.6,1.3-0.9,2.2-0.9h38.1c0.8,0,1.5-0.3,2.1-0.9l16.2-15.8c0.6-0.6,0.9-1.3,0.9-2.1v-65.7
		l-2.2-42.1c0-0.7-0.4-1.4-0.9-2l-22.6-22.6c-0.6-0.6-1.3-0.9-2.1-0.9h-37.1c-0.8,0-1.5,0.3-2.1,0.9L294.7,291
		c-0.6,0.6-1.3,0.9-2.1,0.9h-22.3c-1.7,0-3-1.3-3-3v-5.6c0-0.8,0.3-1.6,0.9-2.2l11.7-11.4c0.6-0.5,1.3-0.8,2.1-0.8h5.3
		c1.7,0,3-1.3,3-3v-157c0-1.7-1.3-3-3-3s-3-1.3-3-3v-4.4c0-0.8,0.3-1.6,0.9-2.2l4.2-4c0.6-0.6,0.9-1.3,0.9-2.2V79.7
		C290.2,78.1,288.9,76.7,287.2,76.7L287.2,76.7z"/>
</g>
</svg>
