<?xml version="1.0" encoding="utf-8"?>
<!-- Generator: Adobe Illustrator 19.1.0, SVG Export Plug-In . SVG Version: 6.00 Build 0)  -->
<svg version="1.1" id="Layer_1" xmlns="http://www.w3.org/2000/svg" xmlns:xlink="http://www.w3.org/1999/xlink" x="0px" y="0px"
	 viewBox="-195.5 21.2 435.3 435.3" style="enable-background:new -195.5 21.2 435.3 435.3;" xml:space="preserve">
<style type="text/css">
	.st0{fill:#FFFFFF;}
	.st1{fill:#010101;}
	.st2{fill:none;stroke:#CDCCCC;stroke-width:5;stroke-miterlimit:10;}
</style>
<g>
	<polygon class="st0" points="24.1,370.8 24.1,50.6 101.5,115.8 133.2,421 	"/>
	<path class="st1" d="M25.1,52.7l75.5,63.5l31.5,303.1l-107-49.2L25.1,52.7 M23.1,48.4v323l111.2,51.2l-31.8-307.3L23.1,48.4
		L23.1,48.4z"/>
</g>
<g>
	<polygon class="st0" points="-82.8,377.6 -40.6,354.1 -37.8,283.1 -75.3,305.6 -63.8,195.1 -27.9,165.7 -27.3,118.5 -58.5,144.3 
		-55.4,115.8 22.1,50.6 22.1,370.8 -87.1,421 	"/>
	<path class="st1" d="M21.1,52.7v317.5L-86,419.4l4.2-41.1l41.2-23l1-0.5v-1.1l2.7-68.6l0.1-3.7l-3.2,1.9l-34.1,20.4l11.2-108.1
		l35.2-28.8l0.7-0.6v-0.9l0.6-44.6l0.1-4.3l-3.3,2.8l-27.7,22.9l2.8-25.7L21.1,52.7 M23.1,48.4l-79.5,66.8l-3.3,31.4l31.4-26
		l-0.6,44.6l-35.8,29.3l-11.7,112.9l37.6-22.6l-2.7,68.6l-42.2,23.5l-4.6,45.6l111.4-51.1L23.1,48.4L23.1,48.4z"/>
</g>
<g>
	<polygon class="st0" points="-86.6,422.9 22.8,372.5 132.5,422.9 127.3,428 22.8,380.3 -80.6,428.1 	"/>
	<path class="st1" d="M22.8,373.6l107.9,49.6l-3.6,3.6L23.6,379.5l-0.8-0.4l-0.8,0.4l-102.4,47.3l-4.4-3.8L22.8,373.6 M22.8,371.4
		l-111.3,51.2l7.7,6.6l103.6-47.9l104.7,47.9l6.6-6.6L22.8,371.4L22.8,371.4z"/>
</g>
<g>
	<polygon class="st0" points="-74.6,307.5 -38.4,285.5 -38.8,291.9 -70.4,310.5 	"/>
	<path class="st1" d="M-39.5,287.3l-0.3,3.9l-30.6,18l-2.4-1.7L-39.5,287.3 M-37.2,283.6l-39.3,23.9l6,4.2l32.6-19.2L-37.2,283.6
		L-37.2,283.6z"/>
</g>
<g>
	<polygon class="st0" points="-58.1,146.6 -27.5,120.9 -27.6,127.9 -53.6,149.4 	"/>
	<path class="st1" d="M-28.5,123.1v4.3l-25.1,20.8l-2.7-1.8L-28.5,123.1 M-26.5,118.8l-33.3,27.9l6.3,4l26.9-22.3L-26.5,118.8
		L-26.5,118.8z"/>
</g>
<line class="st2" x1="-2.4" y1="103" x2="-7.8" y2="376.9"/>
<line class="st2" x1="46.1" y1="134.7" x2="57.1" y2="376.9"/>
<line class="st2" x1="111.2" y1="400.3" x2="89.4" y2="160.8"/>
<line class="st2" x1="29" y1="286.9" x2="119.7" y2="335.7"/>
<line class="st2" x1="-79.7" y1="384.3" x2="17.2" y2="334.6"/>
<g>
	<path class="st1" d="M58.7,314.1c-0.5,0-1-0.1-1.6-0.2c-4.6-1.1-9.3-6.6-10.9-12.9c-1-3.8-0.6-7.2,1-9.3c1.1-1.4,2.6-2.1,4.4-2.1
		c0.6,0,1.2,0.1,1.9,0.3c4.8,1.3,9.6,7.4,10.9,13.8c0.7,3.5,0.2,6.4-1.3,8.4C62,313.4,60.4,314.1,58.7,314.1z"/>
	<path class="st0" d="M51.6,291.6c0.4,0,0.9,0.1,1.3,0.2c4.1,1.1,8.3,6.7,9.4,12.3c1,4.7-0.7,8-3.7,8c-0.4,0-0.7,0-1.1-0.1
		c-3.8-0.9-8-5.9-9.4-11.4C46.8,295.4,48.4,291.6,51.6,291.6 M51.6,287.6L51.6,287.6c-2.4,0-4.5,1-6,2.9c-2,2.6-2.5,6.5-1.3,11
		c1.8,6.9,7.1,13.1,12.4,14.3c0.7,0.2,1.4,0.2,2,0.2c2.3,0,4.4-1,5.9-2.8c2-2.4,2.6-5.9,1.8-10c-1.5-7.2-6.8-13.8-12.3-15.4
		C53.2,287.7,52.4,287.6,51.6,287.6L51.6,287.6z"/>
</g>
<g>
	<path class="st1" d="M-11.3,360.1c-1.7,0-3.2-0.7-4.3-2c-1.6-1.9-2-4.9-1.3-8.4c1.3-6.4,6.1-12.5,10.9-13.8
		c0.6-0.2,1.3-0.3,1.9-0.3c1.8,0,3.3,0.8,4.4,2.1c1.6,2.1,2,5.5,1,9.3c-1.6,6.3-6.3,11.8-10.9,12.9C-10.3,360-10.8,360.1-11.3,360.1
		z"/>
	<path class="st0" d="M-4.2,337.6c3.3,0,4.8,3.7,3.5,8.9c-1.4,5.5-5.7,10.5-9.4,11.4c-0.4,0.1-0.8,0.1-1.1,0.1c-3,0-4.6-3.2-3.7-8
		c1.1-5.6,5.3-11.2,9.4-12.3C-5.1,337.7-4.7,337.6-4.2,337.6 M-4.2,333.6c-0.8,0-1.6,0.1-2.4,0.3c-5.6,1.5-10.9,8.1-12.3,15.4
		c-0.8,4.1-0.2,7.6,1.8,10c1.5,1.8,3.5,2.8,5.9,2.8c0.7,0,1.3-0.1,2-0.2c5.3-1.2,10.6-7.4,12.4-14.3c1.2-4.5,0.7-8.4-1.3-11
		C0.3,334.7-1.8,333.6-4.2,333.6L-4.2,333.6z"/>
</g>
<g>
	<path class="st1" d="M-5.7,99.4c-1.3,0-2.4-0.5-3.2-1.5c-0.7-0.9-1.5-2.7-0.7-5.8c1.1-4.8,5.4-10.8,9.9-12.2
		c0.6-0.2,1.1-0.3,1.6-0.3c1.4,0,2.6,0.6,3.3,1.7C6.4,83,6.3,85.8,5.1,89c-1.7,4.2-5.1,8.3-8.3,9.7C-4,99.2-4.8,99.4-5.7,99.4
		L-5.7,99.4z"/>
	<path class="st0" d="M2,81.7c2.3,0,2.8,2.9,1.3,6.7C1.8,92.2-1.3,95.8-4,97c-0.6,0.3-1.2,0.4-1.7,0.4c-1.8,0-2.7-1.7-2-4.8
		c1.1-4.6,5.1-9.7,8.6-10.7C1.3,81.8,1.7,81.7,2,81.7 M2,77.7c-0.7,0-1.4,0.1-2.2,0.3c-5.4,1.6-10.1,8.3-11.3,13.7
		c-0.9,3.9,0.1,6.2,1.1,7.5c1.2,1.5,2.8,2.3,4.8,2.3c1.1,0,2.2-0.3,3.4-0.8c3.6-1.7,7.5-6.1,9.3-10.8c1.5-3.8,1.5-7.2-0.1-9.5
		C5.8,78.6,4,77.7,2,77.7L2,77.7z"/>
</g>
<path class="st2" d="M101.5,160.8"/>
<path class="st2" d="M29.4,107.1"/>
<g>
	<path class="st1" d="M49.9,129.4c-0.8,0-1.7-0.2-2.5-0.6c-3.2-1.4-6.7-5.5-8.3-9.7c-1.3-3.2-1.3-5.9-0.1-7.7
		c0.8-1.1,1.9-1.7,3.3-1.7c0.5,0,1.1,0.1,1.6,0.3c4.5,1.4,8.8,7.4,9.9,12.2c0.7,3.1,0,4.8-0.7,5.8C52.4,128.9,51.2,129.4,49.9,129.4
		z"/>
	<path class="st0" d="M42.3,111.7c0.3,0,0.7,0.1,1.1,0.2c3.5,1,7.5,6.2,8.6,10.7c0.7,3.1-0.2,4.8-2,4.8c-0.5,0-1.1-0.1-1.7-0.4
		c-2.7-1.2-5.8-4.9-7.3-8.6C39.5,114.6,40,111.7,42.3,111.7 M42.3,107.7L42.3,107.7c-2,0-3.9,0.9-5,2.6c-1.6,2.3-1.6,5.7-0.1,9.5
		c1.9,4.7,5.7,9.1,9.3,10.8c1.1,0.5,2.3,0.8,3.4,0.8c1.9,0,3.6-0.8,4.8-2.3c1-1.3,2-3.6,1.1-7.5c-1.3-5.3-5.9-12-11.3-13.7
		C43.7,107.8,43,107.7,42.3,107.7L42.3,107.7z"/>
</g>
<path class="st2" d="M101.5,150.7"/>
<path class="st2" d="M27.4,95.1"/>
<g>
	<path class="st1" d="M91.9,152.4c-0.8,0-1.7-0.2-2.5-0.6c-3.2-1.4-6.7-5.5-8.3-9.7c-1.3-3.2-1.3-5.9-0.1-7.7
		c0.8-1.1,1.9-1.7,3.3-1.7c0.5,0,1.1,0.1,1.6,0.3c4.5,1.4,8.8,7.4,9.9,12.2c0.7,3.1,0,4.8-0.7,5.8C94.4,151.9,93.2,152.4,91.9,152.4
		z"/>
	<path class="st0" d="M84.3,134.7c0.3,0,0.7,0.1,1.1,0.2c3.5,1,7.5,6.2,8.6,10.7c0.7,3.1-0.2,4.8-2,4.8c-0.5,0-1.1-0.1-1.7-0.4
		c-2.7-1.2-5.8-4.9-7.3-8.6C81.5,137.6,82,134.7,84.3,134.7 M84.3,130.7L84.3,130.7c-2,0-3.9,0.9-5,2.6c-1.6,2.3-1.6,5.7-0.1,9.5
		c1.9,4.7,5.7,9.1,9.3,10.8c1.1,0.5,2.3,0.8,3.4,0.8c1.9,0,3.6-0.8,4.8-2.3c1-1.3,2-3.6,1.1-7.5c-1.3-5.3-5.9-12-11.3-13.7
		C85.7,130.8,85,130.7,84.3,130.7L84.3,130.7z"/>
</g>
<path class="st2" d="M103.2,162.2"/>
<path class="st2" d="M62.3,131.6"/>
<line class="st2" x1="30.8" y1="305.2" x2="121.7" y2="352.6"/>
<g>
	<path class="st1" d="M109.7,357.1c-0.5,0-1-0.1-1.6-0.2c-4.6-1.1-9.3-6.6-10.9-12.9c-1-3.8-0.6-7.2,1-9.3c1.1-1.4,2.6-2.1,4.4-2.1
		c0.6,0,1.2,0.1,1.9,0.3c4.8,1.3,9.6,7.4,10.9,13.8c0.7,3.5,0.2,6.4-1.3,8.4C113,356.4,111.4,357.1,109.7,357.1z"/>
	<path class="st0" d="M102.6,334.6c0.4,0,0.9,0.1,1.3,0.2c4.1,1.1,8.3,6.7,9.4,12.3c1,4.7-0.7,8-3.7,8c-0.4,0-0.7,0-1.1-0.1
		c-3.8-0.9-8-5.9-9.4-11.4C97.8,338.4,99.4,334.6,102.6,334.6 M102.6,330.6L102.6,330.6c-2.4,0-4.5,1-6,2.9c-2,2.6-2.5,6.5-1.3,11
		c1.8,6.9,7.1,13.1,12.4,14.3c0.7,0.2,1.4,0.2,2,0.2c2.3,0,4.4-1,5.9-2.8c2-2.4,2.6-5.9,1.8-10c-1.5-7.2-6.8-13.8-12.3-15.4
		C104.2,330.7,103.4,330.6,102.6,330.6L102.6,330.6z"/>
</g>
<g>
	<path class="st0" d="M-14,349.4l-0.2-0.2l0.4-0.4c-0.1-0.2-0.2-0.4-0.3-0.6s-0.1-0.4-0.1-0.7c0-0.5,0.1-0.9,0.4-1.3
		c0.3-0.4,0.8-0.6,1.3-0.6c0.3,0,0.5,0,0.7,0.1s0.4,0.2,0.5,0.3l0.4-0.4l0.2,0.2l-0.4,0.4c0.1,0.1,0.2,0.3,0.3,0.4
		c0.1,0.2,0.1,0.5,0.1,0.8c0,0.6-0.2,1.1-0.5,1.4c-0.3,0.4-0.7,0.5-1.3,0.5c-0.3,0-0.6-0.1-0.8-0.2c-0.1-0.1-0.3-0.2-0.4-0.3
		L-14,349.4z M-11.8,346.2c-0.2-0.1-0.4-0.1-0.6-0.1c-0.4,0-0.7,0.1-0.9,0.4s-0.3,0.6-0.3,1.1c0,0.2,0,0.3,0,0.5s0.1,0.3,0.2,0.4
		l1.9-2.1C-11.6,346.3-11.7,346.2-11.8,346.2z M-12.9,348.9c0.1,0.1,0.3,0.1,0.5,0.1c0.4,0,0.8-0.2,1-0.5s0.2-0.6,0.2-1
		c0-0.2,0-0.4-0.1-0.6c0-0.1-0.1-0.2-0.2-0.3l-1.9,2.1C-13.2,348.7-13,348.8-12.9,348.9z"/>
	<path class="st0" d="M-7.3,348.4h-0.5v0.9h-0.8v-0.9h-1.7v-0.7l1.6-2.6h0.9v2.7h0.5C-7.3,347.8-7.3,348.4-7.3,348.4z M-8.6,347.7
		v-1.8l-1.1,1.8H-8.6z"/>
	<path class="st0" d="M-6.9,347.7h0.3v0.2c0.1-0.1,0.1-0.1,0.2-0.2s0.2-0.1,0.3-0.1s0.2,0,0.3,0.1c0,0,0.1,0.1,0.1,0.2
		c0.1-0.1,0.1-0.1,0.2-0.2c0.1,0,0.2-0.1,0.3-0.1c0.2,0,0.4,0.1,0.4,0.2s0.1,0.2,0.1,0.3v1H-5V348c0-0.1,0-0.2-0.1-0.2
		s-0.1-0.1-0.2-0.1s-0.2,0-0.3,0.1s-0.1,0.2-0.1,0.3v0.9H-6v-1c0-0.1,0-0.2,0-0.2c0-0.1-0.1-0.1-0.2-0.1s-0.2,0-0.3,0.1
		s-0.1,0.2-0.1,0.4v0.8h-0.3V347.7z"/>
	<path class="st0" d="M-4.4,347.7h0.3v0.2c0.1-0.1,0.1-0.1,0.2-0.2c0.1-0.1,0.2-0.1,0.3-0.1s0.2,0,0.3,0.1c0,0,0.1,0.1,0.1,0.2
		c0.1-0.1,0.1-0.1,0.2-0.2c0.1,0,0.2-0.1,0.3-0.1c0.2,0,0.4,0.1,0.4,0.2s0.1,0.2,0.1,0.3v1h-0.3V348c0-0.1,0-0.2-0.1-0.2
		s-0.1-0.1-0.2-0.1c-0.1,0-0.2,0-0.3,0.1s-0.1,0.2-0.1,0.3v0.9h-0.3v-1c0-0.1,0-0.2,0-0.2c0-0.1-0.1-0.1-0.2-0.1
		c-0.1,0-0.2,0-0.3,0.1c-0.1,0.1-0.1,0.2-0.1,0.4v0.8h-0.3V347.7L-4.4,347.7z"/>
	<path class="st0" d="M-1.9,349h0.3v0.3h-0.3V349z"/>
</g>
<g>
	<path class="st0" d="M-8.1,91.6l-0.2-0.2l0.4-0.4c-0.1-0.2-0.2-0.4-0.3-0.6s-0.1-0.4-0.1-0.7c0-0.5,0.1-0.9,0.4-1.3
		s0.8-0.6,1.3-0.6c0.3,0,0.5,0,0.7,0.1s0.4,0.2,0.5,0.3l0.4-0.4l0.2,0.2l-0.4,0.4c0.1,0.1,0.2,0.3,0.3,0.4c0.1,0.2,0.1,0.5,0.1,0.8
		c0,0.6-0.2,1.1-0.5,1.4c-0.3,0.4-0.7,0.5-1.3,0.5c-0.3,0-0.6-0.1-0.8-0.2c-0.1-0.1-0.3-0.2-0.4-0.3L-8.1,91.6z M-5.9,88.4
		c-0.2-0.1-0.4-0.1-0.6-0.1c-0.4,0-0.7,0.1-0.9,0.4s-0.3,0.6-0.3,1.1c0,0.2,0,0.3,0,0.5s0.1,0.3,0.2,0.4l1.9-2.1
		C-5.7,88.5-5.8,88.4-5.9,88.4z M-7,91.1c0.1,0.1,0.3,0.1,0.5,0.1c0.4,0,0.8-0.2,1-0.5s0.2-0.6,0.2-1c0-0.2,0-0.4-0.1-0.6
		c0-0.1-0.1-0.2-0.2-0.3l-1.9,2.1C-7.2,90.9-7.1,91-7,91.1z"/>
	<path class="st0" d="M-1.4,90.6h-0.5v0.9h-0.8v-0.9h-1.7v-0.7l1.6-2.6h0.9V90h0.5C-1.4,90-1.4,90.6-1.4,90.6z M-2.7,89.9v-1.8
		l-1.1,1.8H-2.7z"/>
	<path class="st0" d="M-1,89.9h0.3v0.2c0.1-0.1,0.1-0.1,0.2-0.2s0.2-0.1,0.3-0.1s0.2,0,0.3,0.1c0,0,0.1,0.1,0.1,0.2
		C0.3,90,0.3,90,0.4,89.9c0.1,0,0.2-0.1,0.3-0.1c0.2,0,0.4,0.1,0.4,0.2s0.1,0.2,0.1,0.3v1H0.9v-1.1c0-0.1,0-0.2-0.1-0.2
		s-0.1-0.1-0.2-0.1s-0.2,0-0.3,0.1s-0.1,0.2-0.1,0.3v0.9h-0.3v-1c0-0.1,0-0.2,0-0.2c0-0.1-0.1-0.1-0.2-0.1s-0.2,0-0.3,0.1
		s-0.1,0.2-0.1,0.4v0.8H-1V89.9L-1,89.9z"/>
	<path class="st0" d="M1.5,89.9h0.3v0.2C1.9,90,1.9,90,2,89.9c0.1-0.1,0.2-0.1,0.3-0.1s0.2,0,0.3,0.1c0,0,0.1,0.1,0.1,0.2
		C2.8,90,2.8,90,2.9,89.9c0.1,0,0.2-0.1,0.3-0.1c0.2,0,0.4,0.1,0.4,0.2s0.1,0.2,0.1,0.3v1H3.4v-1.1c0-0.1,0-0.2-0.1-0.2
		s-0.1-0.1-0.2-0.1c-0.1,0-0.2,0-0.3,0.1s-0.1,0.2-0.1,0.3v0.9H2.4v-1c0-0.1,0-0.2,0-0.2c0-0.1-0.1-0.1-0.2-0.1
		c-0.1,0-0.2,0-0.3,0.1c-0.1,0.1-0.1,0.2-0.1,0.4v0.8H1.5V89.9L1.5,89.9z"/>
	<path class="st0" d="M4.1,91.2h0.3v0.3H4.1V91.2z"/>
</g>
<g>
	<path class="st0" d="M39.9,120.9l-0.2-0.2l0.4-0.4c-0.1-0.2-0.2-0.4-0.3-0.6s-0.1-0.4-0.1-0.7c0-0.5,0.1-0.9,0.4-1.3
		c0.3-0.4,0.8-0.6,1.3-0.6c0.3,0,0.5,0,0.7,0.1s0.4,0.2,0.5,0.3l0.4-0.4l0.2,0.2l-0.4,0.4c0.1,0.1,0.2,0.3,0.3,0.4
		c0.1,0.2,0.1,0.5,0.1,0.8c0,0.6-0.2,1.1-0.5,1.4c-0.3,0.4-0.7,0.5-1.3,0.5c-0.3,0-0.6-0.1-0.8-0.2c-0.1-0.1-0.3-0.2-0.4-0.3
		L39.9,120.9z M42.1,117.7c-0.2-0.1-0.4-0.1-0.6-0.1c-0.4,0-0.7,0.1-0.9,0.4s-0.3,0.6-0.3,1.1c0,0.2,0,0.3,0,0.5s0.1,0.3,0.2,0.4
		l1.9-2.1C42.3,117.8,42.2,117.7,42.1,117.7z M41,120.4c0.1,0.1,0.3,0.1,0.5,0.1c0.4,0,0.8-0.2,1-0.5s0.2-0.6,0.2-1
		c0-0.2,0-0.4-0.1-0.6c0-0.1-0.1-0.2-0.2-0.3l-1.9,2.1C40.8,120.2,40.9,120.3,41,120.4z"/>
	<path class="st0" d="M46.6,119.9h-0.5v0.9h-0.8v-0.9h-1.7v-0.7l1.6-2.6h0.9v2.7h0.5V119.9z M45.3,119.2v-1.8l-1.1,1.8H45.3z"/>
	<path class="st0" d="M47,119.2h0.3v0.2c0.1-0.1,0.1-0.1,0.2-0.2s0.2-0.1,0.3-0.1s0.2,0,0.3,0.1c0,0,0.1,0.1,0.1,0.2
		c0.1-0.1,0.1-0.1,0.2-0.2c0.1,0,0.2-0.1,0.3-0.1c0.2,0,0.4,0.1,0.4,0.2s0.1,0.2,0.1,0.3v1h-0.3v-0.9c0-0.1,0-0.2-0.1-0.2
		s-0.1-0.1-0.2-0.1s-0.2,0-0.3,0.1s-0.1,0.2-0.1,0.3v0.9h-0.3v-1c0-0.1,0-0.2,0-0.2c0-0.1-0.1-0.1-0.2-0.1s-0.2,0-0.3,0.1
		s-0.1,0.2-0.1,0.4v0.8H47C47,120.7,47,119.2,47,119.2z"/>
	<path class="st0" d="M49.5,119.2h0.3v0.2c0.1-0.1,0.1-0.1,0.2-0.2s0.2-0.1,0.3-0.1s0.2,0,0.3,0.1c0,0,0.1,0.1,0.1,0.2
		c0.1-0.1,0.1-0.1,0.2-0.2c0.1,0,0.2-0.1,0.3-0.1c0.2,0,0.4,0.1,0.4,0.2s0.1,0.2,0.1,0.3v1h-0.3v-0.9c0-0.1,0-0.2-0.1-0.2
		s-0.1-0.1-0.2-0.1s-0.2,0-0.3,0.1s-0.1,0.2-0.1,0.3v0.9h-0.3v-1c0-0.1,0-0.2,0-0.2c0-0.1-0.1-0.1-0.2-0.1s-0.2,0-0.3,0.1
		s-0.1,0.2-0.1,0.4v0.8h-0.3C49.5,120.7,49.5,119.2,49.5,119.2z"/>
	<path class="st0" d="M52.1,120.5h0.3v0.3h-0.3V120.5z"/>
</g>
<g>
	<path class="st0" d="M81.9,143.8l-0.2-0.2l0.4-0.4c-0.1-0.2-0.2-0.4-0.3-0.6c-0.1-0.2-0.1-0.4-0.1-0.7c0-0.5,0.1-0.9,0.4-1.3
		c0.3-0.4,0.8-0.6,1.3-0.6c0.3,0,0.5,0,0.7,0.1s0.4,0.2,0.5,0.3L85,140l0.2,0.2l-0.4,0.4c0.1,0.1,0.2,0.3,0.3,0.4
		c0.1,0.2,0.1,0.5,0.1,0.8c0,0.6-0.2,1.1-0.5,1.4c-0.3,0.4-0.7,0.5-1.3,0.5c-0.3,0-0.6-0.1-0.8-0.2c-0.1-0.1-0.3-0.2-0.4-0.3
		L81.9,143.8z M84.1,140.6c-0.2-0.1-0.4-0.1-0.6-0.1c-0.4,0-0.7,0.1-0.9,0.4c-0.2,0.3-0.3,0.6-0.3,1.1c0,0.2,0,0.3,0,0.5
		s0.1,0.3,0.2,0.4l1.9-2.1C84.3,140.7,84.2,140.6,84.1,140.6z M83,143.3c0.1,0.1,0.3,0.1,0.5,0.1c0.4,0,0.8-0.2,1-0.5s0.2-0.6,0.2-1
		c0-0.2,0-0.4-0.1-0.6c0-0.1-0.1-0.2-0.2-0.3l-1.9,2.1C82.8,143.2,82.9,143.2,83,143.3z"/>
	<path class="st0" d="M88.6,142.8h-0.5v0.9h-0.8v-0.9h-1.7v-0.7l1.6-2.6h0.9v2.7h0.5V142.8z M87.3,142.1v-1.8l-1.1,1.8H87.3z"/>
	<path class="st0" d="M89,142.1h0.3v0.2c0.1-0.1,0.1-0.1,0.2-0.2c0.1-0.1,0.2-0.1,0.3-0.1c0.1,0,0.2,0,0.3,0.1c0,0,0.1,0.1,0.1,0.2
		c0.1-0.1,0.1-0.1,0.2-0.2c0.1,0,0.2-0.1,0.3-0.1c0.2,0,0.4,0.1,0.4,0.2c0,0.1,0.1,0.2,0.1,0.3v1h-0.3v-1.1c0-0.1,0-0.2-0.1-0.2
		s-0.1-0.1-0.2-0.1s-0.2,0-0.3,0.1c-0.1,0.1-0.1,0.2-0.1,0.3v0.9h-0.3v-1c0-0.1,0-0.2,0-0.2c0-0.1-0.1-0.1-0.2-0.1s-0.2,0-0.3,0.1
		c-0.1,0.1-0.1,0.2-0.1,0.4v0.8H89V142.1z"/>
	<path class="st0" d="M91.5,142.1h0.3v0.2c0.1-0.1,0.1-0.1,0.2-0.2c0.1-0.1,0.2-0.1,0.3-0.1c0.1,0,0.2,0,0.3,0.1
		c0,0,0.1,0.1,0.1,0.2c0.1-0.1,0.1-0.1,0.2-0.2c0.1,0,0.2-0.1,0.3-0.1c0.2,0,0.4,0.1,0.4,0.2c0,0.1,0.1,0.2,0.1,0.3v1h-0.3v-1.1
		c0-0.1,0-0.2-0.1-0.2s-0.1-0.1-0.2-0.1s-0.2,0-0.3,0.1c-0.1,0.1-0.1,0.2-0.1,0.3v0.9h-0.3v-1c0-0.1,0-0.2,0-0.2
		c0-0.1-0.1-0.1-0.2-0.1s-0.2,0-0.3,0.1c-0.1,0.1-0.1,0.2-0.1,0.4v0.8h-0.3V142.1z"/>
	<path class="st0" d="M94.1,143.4h0.3v0.3h-0.3V143.4z"/>
</g>
<g>
	<path class="st0" d="M49,302.9l-0.2-0.2l0.4-0.4c-0.1-0.2-0.2-0.4-0.3-0.6s-0.1-0.4-0.1-0.7c0-0.5,0.1-0.9,0.4-1.3s0.8-0.6,1.3-0.6
		c0.3,0,0.5,0,0.7,0.1s0.4,0.2,0.5,0.3l0.4-0.4l0.2,0.2l-0.4,0.4c0.1,0.1,0.2,0.3,0.3,0.4c0.1,0.2,0.1,0.5,0.1,0.8
		c0,0.6-0.2,1.1-0.5,1.4c-0.3,0.4-0.7,0.5-1.3,0.5c-0.3,0-0.6-0.1-0.8-0.2c-0.1-0.1-0.3-0.2-0.4-0.3L49,302.9z M51.2,299.7
		c-0.2-0.1-0.4-0.1-0.6-0.1c-0.4,0-0.7,0.1-0.9,0.4s-0.3,0.6-0.3,1.1c0,0.2,0,0.3,0,0.5s0.1,0.3,0.2,0.4l1.9-2.1
		C51.4,299.8,51.3,299.8,51.2,299.7z M50.1,302.4c0.1,0.1,0.3,0.1,0.5,0.1c0.4,0,0.8-0.2,1-0.5s0.2-0.6,0.2-1c0-0.2,0-0.4-0.1-0.6
		c0-0.1-0.1-0.2-0.2-0.3l-1.9,2.1C49.8,302.3,50,302.4,50.1,302.4z"/>
	<path class="st0" d="M55.7,301.9h-0.5v0.9h-0.8v-0.9h-1.7v-0.7l1.6-2.6h0.9v2.7h0.5V301.9z M54.4,301.3v-1.8l-1.1,1.8H54.4z"/>
	<path class="st0" d="M56.1,301.3h0.3v0.2c0.1-0.1,0.1-0.1,0.2-0.2s0.2-0.1,0.3-0.1s0.2,0,0.3,0.1c0,0,0.1,0.1,0.1,0.2
		c0.1-0.1,0.1-0.1,0.2-0.2c0.1,0,0.2-0.1,0.3-0.1c0.2,0,0.4,0.1,0.4,0.2s0.1,0.2,0.1,0.3v1H58v-1.1c0-0.1,0-0.2-0.1-0.2
		s-0.1-0.1-0.2-0.1s-0.2,0-0.3,0.1s-0.1,0.2-0.1,0.3v0.9H57v-1c0-0.1,0-0.2,0-0.2c0-0.1-0.1-0.1-0.2-0.1s-0.2,0-0.3,0.1
		s-0.1,0.2-0.1,0.4v0.8h-0.3C56.1,302.6,56.1,301.3,56.1,301.3z"/>
	<path class="st0" d="M58.6,301.3h0.3v0.2c0.1-0.1,0.1-0.1,0.2-0.2s0.2-0.1,0.3-0.1s0.2,0,0.3,0.1c0,0,0.1,0.1,0.1,0.2
		c0.1-0.1,0.1-0.1,0.2-0.2c0.1,0,0.2-0.1,0.3-0.1c0.2,0,0.4,0.1,0.4,0.2s0.1,0.2,0.1,0.3v1h-0.3v-1.1c0-0.1,0-0.2-0.1-0.2
		s-0.1-0.1-0.2-0.1s-0.2,0-0.3,0.1s-0.1,0.2-0.1,0.3v0.9h-0.3v-1c0-0.1,0-0.2,0-0.2c0-0.1-0.1-0.1-0.2-0.1s-0.2,0-0.3,0.1
		s-0.1,0.2-0.1,0.4v0.8h-0.3C58.6,302.6,58.6,301.3,58.6,301.3z"/>
	<path class="st0" d="M61.1,302.5h0.3v0.3h-0.3V302.5z"/>
</g>
<g>
	<path class="st0" d="M100,346.9l-0.2-0.2l0.4-0.4c-0.1-0.2-0.2-0.4-0.3-0.6c-0.1-0.2-0.1-0.4-0.1-0.7c0-0.5,0.1-0.9,0.4-1.3
		s0.8-0.6,1.3-0.6c0.3,0,0.5,0,0.7,0.1s0.4,0.2,0.5,0.3l0.4-0.4l0.2,0.2l-0.4,0.4c0.1,0.1,0.2,0.3,0.3,0.4c0.1,0.2,0.1,0.5,0.1,0.8
		c0,0.6-0.2,1.1-0.5,1.4c-0.3,0.4-0.7,0.5-1.3,0.5c-0.3,0-0.6-0.1-0.8-0.2c-0.1-0.1-0.3-0.2-0.4-0.3L100,346.9z M102.2,343.7
		c-0.2-0.1-0.4-0.1-0.6-0.1c-0.4,0-0.7,0.1-0.9,0.4c-0.2,0.3-0.3,0.6-0.3,1.1c0,0.2,0,0.3,0,0.5s0.1,0.3,0.2,0.4l1.9-2.1
		C102.4,343.8,102.3,343.8,102.2,343.7z M101.1,346.4c0.1,0.1,0.3,0.1,0.5,0.1c0.4,0,0.8-0.2,1-0.5s0.2-0.6,0.2-1
		c0-0.2,0-0.4-0.1-0.6c0-0.1-0.1-0.2-0.2-0.3l-1.9,2.1C100.8,346.3,101,346.4,101.1,346.4z"/>
	<path class="st0" d="M106.7,345.9h-0.5v0.9h-0.8v-0.9h-1.7v-0.7l1.6-2.6h0.9v2.7h0.5V345.9z M105.4,345.3v-1.8l-1.1,1.8H105.4z"/>
	<path class="st0" d="M107.1,345.3h0.3v0.2c0.1-0.1,0.1-0.1,0.2-0.2s0.2-0.1,0.3-0.1c0.1,0,0.2,0,0.3,0.1c0,0,0.1,0.1,0.1,0.2
		c0.1-0.1,0.1-0.1,0.2-0.2c0.1,0,0.2-0.1,0.3-0.1c0.2,0,0.4,0.1,0.4,0.2s0.1,0.2,0.1,0.3v1H109v-1.1c0-0.1,0-0.2-0.1-0.2
		s-0.1-0.1-0.2-0.1s-0.2,0-0.3,0.1c-0.1,0.1-0.1,0.2-0.1,0.3v0.9H108v-1c0-0.1,0-0.2,0-0.2c0-0.1-0.1-0.1-0.2-0.1s-0.2,0-0.3,0.1
		c-0.1,0.1-0.1,0.2-0.1,0.4v0.8h-0.3V345.3z"/>
	<path class="st0" d="M109.6,345.3h0.3v0.2c0.1-0.1,0.1-0.1,0.2-0.2s0.2-0.1,0.3-0.1c0.1,0,0.2,0,0.3,0.1c0,0,0.1,0.1,0.1,0.2
		c0.1-0.1,0.1-0.1,0.2-0.2c0.1,0,0.2-0.1,0.3-0.1c0.2,0,0.4,0.1,0.4,0.2s0.1,0.2,0.1,0.3v1h-0.3v-1.1c0-0.1,0-0.2-0.1-0.2
		s-0.1-0.1-0.2-0.1s-0.2,0-0.3,0.1c-0.1,0.1-0.1,0.2-0.1,0.3v0.9h-0.3v-1c0-0.1,0-0.2,0-0.2c0-0.1-0.1-0.1-0.2-0.1s-0.2,0-0.3,0.1
		c-0.1,0.1-0.1,0.2-0.1,0.4v0.8h-0.3V345.3z"/>
	<path class="st0" d="M112.1,346.5h0.3v0.3h-0.3V346.5z"/>
</g>
<g>
	<path class="st1" d="M11.3,335.3c0-0.1,0-0.2-0.1-0.4c-0.1-0.2-0.4-0.3-0.7-0.3c-0.5,0-0.8,0.3-1,0.8c-0.1,0.3-0.2,0.7-0.2,1.2
		c0.2-0.2,0.4-0.4,0.6-0.4s0.5-0.1,0.8-0.1c0.6,0,1.1,0.2,1.5,0.6s0.6,1,0.6,1.6c0,0.7-0.2,1.2-0.6,1.7s-1,0.8-1.8,0.8
		c-0.9,0-1.5-0.4-2-1.1c-0.3-0.6-0.5-1.3-0.5-2.3c0-0.5,0-1,0.1-1.3c0.1-0.6,0.2-1.1,0.5-1.5c0.2-0.3,0.5-0.6,0.8-0.8
		s0.7-0.3,1.2-0.3c0.7,0,1.2,0.2,1.6,0.5c0.4,0.3,0.6,0.8,0.7,1.3L11.3,335.3L11.3,335.3z M9.7,339.3c0.2,0.2,0.5,0.4,0.8,0.4
		s0.6-0.1,0.7-0.3c0.2-0.2,0.3-0.5,0.3-0.9s-0.1-0.7-0.3-1c-0.2-0.2-0.4-0.3-0.7-0.3c-0.2,0-0.4,0.1-0.6,0.2c-0.3,0.2-0.4,0.6-0.4,1
		C9.4,338.7,9.5,339,9.7,339.3z"/>
	<path class="st1" d="M13.4,339h0.3v0.2c0.1-0.1,0.1-0.1,0.2-0.2c0.1-0.1,0.2-0.1,0.3-0.1s0.2,0,0.3,0.1c0,0,0.1,0.1,0.1,0.2
		c0.1-0.1,0.1-0.1,0.2-0.2c0.1,0,0.2-0.1,0.3-0.1c0.2,0,0.4,0.1,0.4,0.2s0.1,0.2,0.1,0.3v1h-0.3v-1.1c0-0.1,0-0.2-0.1-0.2
		S15.1,339,15,339c-0.1,0-0.2,0-0.3,0.1s-0.1,0.2-0.1,0.3v0.9h-0.3v-1c0-0.1,0-0.2,0-0.2c0-0.1-0.1-0.1-0.2-0.1
		c-0.1,0-0.2,0-0.3,0.1s-0.1,0.2-0.1,0.4v0.8h-0.3L13.4,339L13.4,339z"/>
	<path class="st1" d="M15.9,339h0.3v0.2c0.1-0.1,0.1-0.1,0.2-0.2s0.2-0.1,0.3-0.1s0.2,0,0.3,0.1c0,0,0.1,0.1,0.1,0.2
		c0.1-0.1,0.1-0.1,0.2-0.2c0.1,0,0.2-0.1,0.3-0.1c0.2,0,0.4,0.1,0.4,0.2s0.1,0.2,0.1,0.3v1h-0.3v-1.1c0-0.1,0-0.2-0.1-0.2
		s-0.1-0.1-0.2-0.1s-0.2,0-0.3,0.1s-0.1,0.2-0.1,0.3v0.9h-0.3v-1c0-0.1,0-0.2,0-0.2c0-0.1-0.1-0.1-0.2-0.1s-0.2,0-0.3,0.1
		s-0.1,0.2-0.1,0.4v0.8h-0.3V339L15.9,339z"/>
	<path class="st1" d="M18.5,340.2h0.3v0.3h-0.3V340.2z"/>
</g>
<g>
	<path class="st1" d="M-9.9,366.1c0-0.1,0-0.2-0.1-0.4c-0.1-0.2-0.4-0.3-0.7-0.3c-0.5,0-0.8,0.3-1,0.8c-0.1,0.3-0.2,0.7-0.2,1.2
		c0.2-0.2,0.4-0.4,0.6-0.4s0.5-0.1,0.8-0.1c0.6,0,1.1,0.2,1.5,0.6s0.6,1,0.6,1.6c0,0.7-0.2,1.2-0.6,1.7s-1,0.8-1.8,0.8
		c-0.9,0-1.5-0.4-2-1.1c-0.3-0.6-0.5-1.3-0.5-2.3c0-0.5,0-1,0.1-1.3c0.1-0.6,0.2-1.1,0.5-1.5c0.2-0.3,0.5-0.6,0.8-0.8
		s0.7-0.3,1.2-0.3c0.7,0,1.2,0.2,1.6,0.5c0.4,0.3,0.6,0.8,0.7,1.3L-9.9,366.1L-9.9,366.1z M-11.6,370.1c0.2,0.2,0.5,0.4,0.8,0.4
		s0.6-0.1,0.7-0.3c0.2-0.2,0.3-0.5,0.3-0.9s-0.1-0.7-0.3-1c-0.2-0.2-0.4-0.3-0.7-0.3c-0.2,0-0.4,0.1-0.6,0.2c-0.3,0.2-0.4,0.6-0.4,1
		C-11.9,369.6-11.8,369.9-11.6,370.1z"/>
	<path class="st1" d="M-7.8,369.9h0.3v0.2c0.1-0.1,0.1-0.1,0.2-0.2s0.2-0.1,0.3-0.1s0.2,0,0.3,0.1c0,0,0.1,0.1,0.1,0.2
		c0.1-0.1,0.1-0.1,0.2-0.2c0.1,0,0.2-0.1,0.3-0.1c0.2,0,0.4,0.1,0.4,0.2s0.1,0.2,0.1,0.3v1h-0.3v-1.1c0-0.1,0-0.2-0.1-0.2
		s-0.1-0.1-0.2-0.1s-0.2,0-0.3,0.1s-0.1,0.2-0.1,0.3v0.9h-0.3v-1c0-0.1,0-0.2,0-0.2c0-0.1-0.1-0.1-0.2-0.1s-0.2,0-0.3,0.1
		s-0.1,0.2-0.1,0.4v0.8h-0.3V369.9L-7.8,369.9z"/>
	<path class="st1" d="M-5.3,369.9H-5v0.2c0.1-0.1,0.1-0.1,0.2-0.2s0.2-0.1,0.3-0.1s0.2,0,0.3,0.1c0,0,0.1,0.1,0.1,0.2
		C-4,370-4,370-3.9,369.9c0.1,0,0.2-0.1,0.3-0.1c0.2,0,0.4,0.1,0.4,0.2s0.1,0.2,0.1,0.3v1h-0.3v-1.1c0-0.1,0-0.2-0.1-0.2
		s-0.1-0.1-0.2-0.1c-0.1,0-0.2,0-0.3,0.1s-0.1,0.2-0.1,0.3v0.9h-0.3v-1c0-0.1,0-0.2,0-0.2c0-0.1-0.1-0.1-0.2-0.1s-0.2,0-0.3,0.1
		s-0.1,0.2-0.1,0.4v0.8h-0.3V369.9L-5.3,369.9z"/>
	<path class="st1" d="M-2.8,371.1h0.3v0.3h-0.3V371.1z"/>
</g>
<g>
	<path class="st1" d="M-53.6,366.6v-0.9c0.4,0,0.7,0,0.9-0.1c0.3-0.1,0.5-0.2,0.7-0.4c0.1-0.1,0.2-0.3,0.3-0.5
		c0-0.1,0.1-0.2,0.1-0.3h1.2v7.1h-1.5v-4.9L-53.6,366.6L-53.6,366.6z"/>
	<path class="st1" d="M-47.7,365c0.4-0.5,1-0.7,1.7-0.7c1.1,0,1.8,0.5,2.2,1.4c0.2,0.5,0.3,1.3,0.3,2.1c0,0.9-0.1,1.6-0.3,2.1
		c-0.4,1.1-1.2,1.6-2.3,1.6c-0.5,0-1-0.2-1.4-0.5s-0.7-0.8-0.7-1.4h1.4c0,0.2,0.1,0.4,0.3,0.5s0.3,0.2,0.6,0.2c0.5,0,0.8-0.3,1-0.8
		c0.1-0.3,0.2-0.7,0.2-1.2c-0.1,0.2-0.3,0.3-0.4,0.4c-0.3,0.2-0.6,0.2-1,0.2c-0.6,0-1.1-0.2-1.5-0.6s-0.7-0.9-0.7-1.7
		C-48.4,366.1-48.2,365.5-47.7,365z M-45.4,367.8c0.3-0.2,0.5-0.6,0.5-1s-0.1-0.7-0.3-1s-0.4-0.4-0.8-0.4c-0.2,0-0.4,0.1-0.6,0.2
		c-0.3,0.2-0.4,0.6-0.4,1.1c0,0.4,0.1,0.7,0.3,0.9c0.2,0.2,0.4,0.3,0.8,0.3C-45.7,368-45.6,367.9-45.4,367.8z"/>
	<path class="st1" d="M-42.5,370h1.5v1.5h-1.5V370z"/>
	<path class="st1" d="M-38.7,369.5c0.1,0.3,0.2,0.5,0.3,0.7c0.2,0.2,0.4,0.2,0.7,0.2s0.6-0.1,0.8-0.4c0.2-0.2,0.3-0.5,0.3-0.9
		s-0.1-0.7-0.3-0.9c-0.2-0.2-0.4-0.4-0.8-0.4c-0.2,0-0.3,0-0.4,0.1c-0.2,0.1-0.4,0.2-0.5,0.4l-1.2-0.1l0.5-3.9h3.9v1.2h-2.9
		l-0.3,1.5c0.2-0.1,0.4-0.2,0.5-0.3c0.2-0.1,0.4-0.1,0.7-0.1c0.6,0,1.1,0.2,1.5,0.6s0.7,1,0.7,1.7s-0.2,1.2-0.6,1.8s-1,0.8-1.9,0.8
		c-0.7,0-1.2-0.2-1.7-0.5c-0.4-0.4-0.7-0.9-0.7-1.5L-38.7,369.5L-38.7,369.5z"/>
	<path class="st1" d="M-34.6,369.9h0.3v0.2c0.1-0.1,0.1-0.1,0.2-0.2c0.1-0.1,0.2-0.1,0.3-0.1s0.2,0,0.3,0.1c0,0,0.1,0.1,0.1,0.2
		c0.1-0.1,0.1-0.1,0.2-0.2c0.1,0,0.2-0.1,0.3-0.1c0.2,0,0.4,0.1,0.4,0.2s0.1,0.2,0.1,0.3v1h-0.3v-1.1c0-0.1,0-0.2-0.1-0.2
		s-0.1-0.1-0.2-0.1c-0.1,0-0.2,0-0.3,0.1s-0.1,0.2-0.1,0.3v0.9h-0.3v-1c0-0.1,0-0.2,0-0.2c0-0.1-0.1-0.1-0.2-0.1
		c-0.1,0-0.2,0-0.3,0.1s-0.1,0.2-0.1,0.4v0.8h-0.3L-34.6,369.9L-34.6,369.9z"/>
	<path class="st1" d="M-32.1,369.9h0.3v0.2c0.1-0.1,0.1-0.1,0.2-0.2s0.2-0.1,0.3-0.1s0.2,0,0.3,0.1c0,0,0.1,0.1,0.1,0.2
		c0.1-0.1,0.1-0.1,0.2-0.2c0.1,0,0.2-0.1,0.3-0.1c0.2,0,0.4,0.1,0.4,0.2s0.1,0.2,0.1,0.3v1h-0.3v-1.1c0-0.1,0-0.2-0.1-0.2
		s-0.1-0.1-0.2-0.1s-0.2,0-0.3,0.1s-0.1,0.2-0.1,0.3v0.9h-0.3v-1c0-0.1,0-0.2,0-0.2c0-0.1-0.1-0.1-0.2-0.1s-0.2,0-0.3,0.1
		s-0.1,0.2-0.1,0.4v0.8h-0.3V369.9L-32.1,369.9z"/>
	<path class="st1" d="M-29.5,371.1h0.3v0.3h-0.3V371.1z"/>
</g>
<g>
	<path class="st1" d="M-7.2,220.5c0-0.1,0-0.2-0.1-0.4s-0.4-0.3-0.7-0.3c-0.5,0-0.8,0.3-1,0.8c-0.1,0.3-0.2,0.7-0.2,1.2
		c0.2-0.2,0.4-0.4,0.6-0.4s0.5-0.1,0.8-0.1c0.6,0,1.1,0.2,1.5,0.6s0.6,1,0.6,1.6c0,0.7-0.2,1.2-0.6,1.7s-1,0.8-1.8,0.8
		c-0.9,0-1.5-0.4-2-1.1c-0.3-0.6-0.5-1.3-0.5-2.3c0-0.5,0-1,0.1-1.3c0.1-0.6,0.2-1.1,0.5-1.5c0.2-0.3,0.5-0.6,0.8-0.8
		s0.7-0.3,1.2-0.3c0.7,0,1.2,0.2,1.6,0.5s0.6,0.8,0.7,1.3H-7.2z M-8.9,224.5c0.2,0.2,0.5,0.4,0.8,0.4c0.3,0,0.6-0.1,0.7-0.3
		c0.2-0.2,0.3-0.5,0.3-0.9s-0.1-0.7-0.3-1c-0.2-0.2-0.4-0.3-0.7-0.3c-0.2,0-0.4,0.1-0.6,0.2c-0.3,0.2-0.4,0.6-0.4,1
		C-9.2,223.9-9.1,224.2-8.9,224.5z"/>
	<path class="st1" d="M-1.6,220.5c0-0.1,0-0.2-0.1-0.4s-0.4-0.3-0.7-0.3c-0.5,0-0.8,0.3-1,0.8c-0.1,0.3-0.2,0.7-0.2,1.2
		c0.2-0.2,0.4-0.4,0.6-0.4s0.5-0.1,0.8-0.1c0.6,0,1.1,0.2,1.5,0.6s0.6,1,0.6,1.6c0,0.7-0.2,1.2-0.6,1.7s-1,0.8-1.8,0.8
		c-0.9,0-1.5-0.4-2-1.1c-0.3-0.6-0.5-1.3-0.5-2.3c0-0.5,0-1,0.1-1.3c0.1-0.6,0.2-1.1,0.5-1.5c0.2-0.3,0.5-0.6,0.8-0.8
		s0.7-0.3,1.2-0.3c0.7,0,1.2,0.2,1.6,0.5s0.6,0.8,0.7,1.3H-1.6z M-3.3,224.5c0.2,0.2,0.5,0.4,0.8,0.4s0.6-0.1,0.7-0.3
		c0.2-0.2,0.3-0.5,0.3-0.9s-0.1-0.7-0.3-1c-0.2-0.2-0.4-0.3-0.7-0.3c-0.2,0-0.4,0.1-0.6,0.2c-0.3,0.2-0.4,0.6-0.4,1
		C-3.6,223.9-3.5,224.2-3.3,224.5z"/>
	<path class="st1" d="M0.4,224.2h0.3v0.2c0.1-0.1,0.1-0.1,0.2-0.2c0.1-0.1,0.2-0.1,0.3-0.1s0.2,0,0.3,0.1c0,0,0.1,0.1,0.1,0.2
		c0.1-0.1,0.1-0.1,0.2-0.2c0.1,0,0.2-0.1,0.3-0.1c0.2,0,0.4,0.1,0.4,0.2c0,0.1,0.1,0.2,0.1,0.3v1H2.3v-0.9c0-0.1,0-0.2-0.1-0.2
		s-0.1-0.1-0.2-0.1c-0.1,0-0.2,0-0.3,0.1s-0.1,0.2-0.1,0.3v0.9H1.3v-1c0-0.1,0-0.2,0-0.2c0-0.1-0.1-0.1-0.2-0.1s-0.2,0-0.3,0.1
		s-0.1,0.2-0.1,0.4v0.8H0.4V224.2L0.4,224.2z"/>
	<path class="st1" d="M2.9,224.2h0.3v0.2c0.1-0.1,0.1-0.1,0.2-0.2c0.1-0.1,0.2-0.1,0.3-0.1s0.2,0,0.3,0.1c0,0,0.1,0.1,0.1,0.2
		c0.1-0.1,0.1-0.1,0.2-0.2c0.1,0,0.2-0.1,0.3-0.1c0.2,0,0.4,0.1,0.4,0.2c0,0.1,0.1,0.2,0.1,0.3v1H4.8v-0.9c0-0.1,0-0.2-0.1-0.2
		s-0.1-0.1-0.2-0.1s-0.2,0-0.3,0.1s-0.1,0.2-0.1,0.3v0.9H3.8v-1c0-0.1,0-0.2,0-0.2c0-0.1-0.1-0.1-0.2-0.1c-0.1,0-0.2,0-0.3,0.1
		s-0.1,0.2-0.1,0.4v0.8H2.9V224.2L2.9,224.2z"/>
	<path class="st1" d="M5.5,225.5h0.3v0.3H5.5V225.5z"/>
</g>
<g>
	<path class="st1" d="M103.4,375.8v-0.9c0.4,0,0.7,0,0.9-0.1c0.3-0.1,0.5-0.2,0.7-0.4c0.1-0.1,0.2-0.3,0.3-0.5
		c0-0.1,0.1-0.2,0.1-0.3h1.2v7.1h-1.5v-4.9L103.4,375.8L103.4,375.8z"/>
	<path class="st1" d="M109.9,378.5c0,0.3,0,0.5,0.1,0.7c0.2,0.3,0.5,0.5,0.9,0.5c0.3,0,0.5-0.1,0.7-0.3c0.2-0.2,0.3-0.5,0.3-0.8
		c0-0.5-0.2-0.8-0.6-0.9c-0.2-0.1-0.6-0.1-1-0.1v-1c0.5,0,0.8-0.1,0.9-0.1c0.3-0.1,0.5-0.4,0.5-0.8c0-0.3-0.1-0.5-0.2-0.7
		s-0.4-0.3-0.7-0.3c-0.3,0-0.6,0.1-0.7,0.3s-0.2,0.5-0.2,0.8h-1.3c0-0.4,0.1-0.7,0.2-1s0.3-0.5,0.5-0.8c0.2-0.2,0.4-0.3,0.6-0.4
		c0.3-0.1,0.6-0.1,0.9-0.1c0.7,0,1.2,0.2,1.6,0.5c0.4,0.4,0.6,0.8,0.6,1.4c0,0.4-0.1,0.8-0.4,1.1c-0.2,0.2-0.3,0.3-0.5,0.4
		c0.1,0,0.3,0.1,0.5,0.3c0.4,0.3,0.5,0.8,0.5,1.3c0,0.6-0.2,1.1-0.6,1.6s-1,0.7-1.8,0.7c-1,0-1.7-0.3-2.1-1
		c-0.2-0.3-0.3-0.8-0.3-1.4L109.9,378.5L109.9,378.5z"/>
	<path class="st1" d="M114.1,379.1h0.3v0.2c0.1-0.1,0.1-0.1,0.2-0.2s0.2-0.1,0.3-0.1c0.1,0,0.2,0,0.3,0.1c0,0,0.1,0.1,0.1,0.2
		c0.1-0.1,0.1-0.1,0.2-0.2c0.1,0,0.2-0.1,0.3-0.1c0.2,0,0.4,0.1,0.4,0.2s0.1,0.2,0.1,0.3v1H116v-1.1c0-0.1,0-0.2-0.1-0.2
		s-0.1-0.1-0.2-0.1s-0.2,0-0.3,0.1c-0.1,0.1-0.1,0.2-0.1,0.3v0.9H115v-1c0-0.1,0-0.2,0-0.2c0-0.1-0.1-0.1-0.2-0.1s-0.2,0-0.3,0.1
		c-0.1,0.1-0.1,0.2-0.1,0.4v0.8h-0.3V379.1z"/>
	<path class="st1" d="M116.6,379.1h0.3v0.2c0.1-0.1,0.1-0.1,0.2-0.2s0.2-0.1,0.3-0.1c0.1,0,0.2,0,0.3,0.1c0,0,0.1,0.1,0.1,0.2
		c0.1-0.1,0.1-0.1,0.2-0.2c0.1,0,0.2-0.1,0.3-0.1c0.2,0,0.4,0.1,0.4,0.2s0.1,0.2,0.1,0.3v1h-0.3v-1.1c0-0.1,0-0.2-0.1-0.2
		s-0.1-0.1-0.2-0.1s-0.2,0-0.3,0.1c-0.1,0.1-0.1,0.2-0.1,0.3v0.9h-0.3v-1c0-0.1,0-0.2,0-0.2c0-0.1-0.1-0.1-0.2-0.1s-0.2,0-0.3,0.1
		c-0.1,0.1-0.1,0.2-0.1,0.4v0.8h-0.3V379.1z"/>
	<path class="st1" d="M119.1,380.4h0.3v0.3h-0.3V380.4z"/>
</g>
<g>
	<path class="st1" d="M49.3,347.7v-0.9c0.4,0,0.7,0,0.9-0.1c0.3-0.1,0.5-0.2,0.7-0.4c0.1-0.1,0.2-0.3,0.3-0.5c0-0.1,0.1-0.2,0.1-0.3
		h1.2v7.1h-1.4v-4.9L49.3,347.7L49.3,347.7z"/>
	<path class="st1" d="M57.8,347.3c0-0.1,0-0.2-0.1-0.4c-0.2-0.2-0.4-0.3-0.7-0.3c-0.5,0-0.8,0.3-1,0.8c-0.1,0.3-0.2,0.7-0.2,1.2
		c0.2-0.2,0.4-0.4,0.6-0.4c0.2-0.1,0.5-0.1,0.8-0.1c0.6,0,1.1,0.2,1.5,0.6s0.6,1,0.6,1.6c0,0.7-0.2,1.2-0.6,1.7s-1,0.8-1.8,0.8
		c-0.9,0-1.5-0.4-2-1.1c-0.3-0.6-0.5-1.3-0.5-2.3c0-0.5,0-1,0.1-1.3c0.1-0.6,0.2-1.1,0.5-1.5c0.2-0.3,0.5-0.6,0.8-0.8
		s0.7-0.3,1.2-0.3c0.7,0,1.2,0.2,1.6,0.5s0.6,0.8,0.7,1.3L57.8,347.3L57.8,347.3z M56.2,351.3c0.2,0.2,0.5,0.4,0.8,0.4
		s0.6-0.1,0.7-0.3c0.2-0.2,0.3-0.5,0.3-0.9s-0.1-0.7-0.3-1c-0.2-0.2-0.4-0.3-0.7-0.3c-0.2,0-0.4,0.1-0.6,0.2c-0.3,0.2-0.4,0.6-0.4,1
		C55.9,350.8,56,351.1,56.2,351.3z"/>
	<path class="st1" d="M59.9,351h0.3v0.2c0.1-0.1,0.1-0.1,0.2-0.2s0.2-0.1,0.3-0.1s0.2,0,0.3,0.1c0,0,0.1,0.1,0.1,0.2
		c0.1-0.1,0.1-0.1,0.2-0.2c0.1,0,0.2-0.1,0.3-0.1c0.2,0,0.4,0.1,0.4,0.2s0.1,0.2,0.1,0.3v1h-0.3v-1.1c0-0.1,0-0.2-0.1-0.2
		s-0.1-0.1-0.2-0.1s-0.2,0-0.3,0.1s-0.1,0.2-0.1,0.3v0.9h-0.3v-1c0-0.1,0-0.2,0-0.2c0-0.1-0.1-0.1-0.2-0.1s-0.2,0-0.3,0.1
		s-0.1,0.2-0.1,0.4v0.8h-0.3C59.9,352.3,59.9,351,59.9,351z"/>
	<path class="st1" d="M62.4,351h0.3v0.2c0.1-0.1,0.1-0.1,0.2-0.2s0.2-0.1,0.3-0.1s0.2,0,0.3,0.1c0,0,0.1,0.1,0.1,0.2
		c0.1-0.1,0.1-0.1,0.2-0.2c0.1,0,0.2-0.1,0.3-0.1c0.2,0,0.4,0.1,0.4,0.2s0.1,0.2,0.1,0.3v1h-0.3v-1.1c0-0.1,0-0.2-0.1-0.2
		S64.1,351,64,351s-0.2,0-0.3,0.1s-0.1,0.2-0.1,0.3v0.9h-0.3v-1c0-0.1,0-0.2,0-0.2c0-0.1-0.1-0.1-0.2-0.1s-0.2,0-0.3,0.1
		s-0.1,0.2-0.1,0.4v0.8h-0.3C62.4,352.3,62.4,351,62.4,351z"/>
	<path class="st1" d="M65,352.3h0.3v0.3H65V352.3z"/>
</g>
<g>
	<path class="st1" d="M91.9,236.4c0.1,0.3,0.2,0.5,0.3,0.7c0.2,0.2,0.4,0.2,0.7,0.2c0.3,0,0.6-0.1,0.8-0.4c0.2-0.2,0.3-0.5,0.3-0.9
		s-0.1-0.7-0.3-0.9c-0.2-0.2-0.4-0.4-0.8-0.4c-0.2,0-0.3,0-0.4,0.1c-0.2,0.1-0.4,0.2-0.5,0.4l-1.2-0.1l0.5-3.9h3.9v1.2h-2.9
		l-0.3,1.5c0.2-0.1,0.4-0.2,0.5-0.3c0.2-0.1,0.4-0.1,0.7-0.1c0.6,0,1.1,0.2,1.5,0.6s0.7,1,0.7,1.7s-0.2,1.2-0.6,1.8
		c-0.4,0.5-1,0.8-1.9,0.8c-0.7,0-1.2-0.2-1.7-0.5c-0.4-0.4-0.7-0.9-0.7-1.5L91.9,236.4L91.9,236.4z"/>
	<path class="st1" d="M96.4,236.9c0.2-0.5,0.7-1,1.4-1.5c0.6-0.5,1.1-0.8,1.2-1c0.3-0.3,0.4-0.6,0.4-1c0-0.3-0.1-0.5-0.2-0.7
		s-0.4-0.3-0.7-0.3c-0.4,0-0.7,0.2-0.9,0.5c-0.1,0.2-0.1,0.5-0.2,0.9H96c0-0.6,0.1-1.1,0.3-1.5c0.4-0.7,1-1.1,2-1.1
		c0.7,0,1.3,0.2,1.8,0.6c0.4,0.4,0.7,1,0.7,1.6c0,0.5-0.2,1-0.5,1.4c-0.2,0.3-0.5,0.6-1,0.9l-0.6,0.4c-0.3,0.2-0.6,0.4-0.7,0.5
		s-0.2,0.2-0.3,0.4h3.1v1.2h-4.7C96.1,237.8,96.2,237.3,96.4,236.9z"/>
	<path class="st1" d="M101.5,236.7h0.3v0.2c0.1-0.1,0.1-0.1,0.2-0.2c0.1-0.1,0.2-0.1,0.3-0.1c0.1,0,0.2,0,0.3,0.1
		c0,0,0.1,0.1,0.1,0.2c0.1-0.1,0.1-0.1,0.2-0.2c0.1,0,0.2-0.1,0.3-0.1c0.2,0,0.4,0.1,0.4,0.2c0,0.1,0.1,0.2,0.1,0.3v1h-0.3V237
		c0-0.1,0-0.2-0.1-0.2s-0.1-0.1-0.2-0.1s-0.2,0-0.3,0.1c-0.1,0.1-0.1,0.2-0.1,0.3v0.9h-0.3v-1c0-0.1,0-0.2,0-0.2
		c0-0.1-0.1-0.1-0.2-0.1s-0.2,0-0.3,0.1c-0.1,0.1-0.1,0.2-0.1,0.4v0.8h-0.3V236.7z"/>
	<path class="st1" d="M104,236.7h0.3v0.2c0.1-0.1,0.1-0.1,0.2-0.2c0.1-0.1,0.2-0.1,0.3-0.1c0.1,0,0.2,0,0.3,0.1c0,0,0.1,0.1,0.1,0.2
		c0.1-0.1,0.1-0.1,0.2-0.2c0.1,0,0.2-0.1,0.3-0.1c0.2,0,0.4,0.1,0.4,0.2c0,0.1,0.1,0.2,0.1,0.3v1h-0.3V237c0-0.1,0-0.2-0.1-0.2
		s-0.1-0.1-0.2-0.1s-0.2,0-0.3,0.1c-0.1,0.1-0.1,0.2-0.1,0.3v0.9h-0.3v-1c0-0.1,0-0.2,0-0.2c0-0.1-0.1-0.1-0.2-0.1s-0.2,0-0.3,0.1
		c-0.1,0.1-0.1,0.2-0.1,0.4v0.8H104V236.7z"/>
	<path class="st1" d="M106.6,238h0.3v0.3h-0.3V238z"/>
</g>
<g>
	<path class="st1" d="M48.9,224.3h-0.8v1.5h-1.4v-1.5h-2.8v-1.2l2.6-4.3h1.6v4.4h0.8L48.9,224.3L48.9,224.3z M46.8,223.2v-3l-1.8,3
		H46.8z"/>
	<path class="st1" d="M52.9,220.5c0-0.1,0-0.2-0.1-0.4s-0.4-0.3-0.7-0.3c-0.5,0-0.8,0.3-1,0.8c-0.1,0.3-0.2,0.7-0.2,1.2
		c0.2-0.2,0.4-0.4,0.6-0.4c0.2-0.1,0.5-0.1,0.8-0.1c0.6,0,1.1,0.2,1.5,0.6c0.4,0.4,0.6,1,0.6,1.6c0,0.7-0.2,1.2-0.6,1.7
		s-1,0.8-1.8,0.8c-0.9,0-1.5-0.4-2-1.1c-0.3-0.6-0.5-1.3-0.5-2.3c0-0.5,0-1,0.1-1.3c0.1-0.6,0.2-1.1,0.5-1.5
		c0.2-0.3,0.5-0.6,0.8-0.8s0.7-0.3,1.2-0.3c0.7,0,1.2,0.2,1.6,0.5s0.6,0.8,0.7,1.3H52.9z M51.3,224.5c0.2,0.2,0.5,0.4,0.8,0.4
		s0.6-0.1,0.7-0.3c0.2-0.2,0.3-0.5,0.3-0.9s-0.1-0.7-0.3-1c-0.2-0.2-0.4-0.3-0.7-0.3c-0.2,0-0.4,0.1-0.6,0.2c-0.3,0.2-0.4,0.6-0.4,1
		C51,223.9,51.1,224.2,51.3,224.5z"/>
	<path class="st1" d="M55,224.2h0.3v0.2c0.1-0.1,0.1-0.1,0.2-0.2c0.1-0.1,0.2-0.1,0.3-0.1s0.2,0,0.3,0.1c0,0,0.1,0.1,0.1,0.2
		c0.1-0.1,0.1-0.1,0.2-0.2c0.1,0,0.2-0.1,0.3-0.1c0.2,0,0.4,0.1,0.4,0.2c0,0.1,0.1,0.2,0.1,0.3v1h-0.3v-0.9c0-0.1,0-0.2-0.1-0.2
		s-0.1-0.1-0.2-0.1s-0.2,0-0.3,0.1s-0.1,0.2-0.1,0.3v0.9h-0.3v-1c0-0.1,0-0.2,0-0.2c0-0.1-0.1-0.1-0.2-0.1s-0.2,0-0.3,0.1
		s-0.1,0.2-0.1,0.4v0.8H55C55,225.7,55,224.2,55,224.2z"/>
	<path class="st1" d="M57.5,224.2h0.3v0.2c0.1-0.1,0.1-0.1,0.2-0.2c0.1-0.1,0.2-0.1,0.3-0.1s0.2,0,0.3,0.1c0,0,0.1,0.1,0.1,0.2
		c0.1-0.1,0.1-0.1,0.2-0.2c0.1,0,0.2-0.1,0.3-0.1c0.2,0,0.4,0.1,0.4,0.2c0,0.1,0.1,0.2,0.1,0.3v1h-0.3v-0.9c0-0.1,0-0.2-0.1-0.2
		s-0.1-0.1-0.2-0.1s-0.2,0-0.3,0.1s-0.1,0.2-0.1,0.3v0.9h-0.3v-1c0-0.1,0-0.2,0-0.2c0-0.1-0.1-0.1-0.2-0.1s-0.2,0-0.3,0.1
		s-0.1,0.2-0.1,0.4v0.8h-0.3C57.5,225.7,57.5,224.2,57.5,224.2z"/>
	<path class="st1" d="M60.1,225.5h0.3v0.3h-0.3V225.5z"/>
</g>
<g>
	<path class="st1" d="M115.7,350.7c0.1,0.3,0.2,0.5,0.3,0.7c0.2,0.2,0.4,0.2,0.7,0.2c0.3,0,0.6-0.1,0.8-0.4c0.2-0.2,0.3-0.5,0.3-0.9
		s-0.1-0.7-0.3-0.9c-0.2-0.2-0.4-0.4-0.8-0.4c-0.2,0-0.3,0-0.4,0.1c-0.2,0.1-0.4,0.2-0.5,0.4l-1.2-0.1l0.5-3.9h3.9v1.2h-2.9
		l-0.3,1.5c0.2-0.1,0.4-0.2,0.5-0.3c0.2-0.1,0.4-0.1,0.7-0.1c0.6,0,1.1,0.2,1.5,0.6s0.7,1,0.7,1.7s-0.2,1.2-0.6,1.8
		c-0.4,0.5-1,0.8-1.9,0.8c-0.7,0-1.2-0.2-1.7-0.5c-0.4-0.4-0.7-0.9-0.7-1.5L115.7,350.7L115.7,350.7z"/>
	<path class="st1" d="M119.8,351h0.3v0.2c0.1-0.1,0.1-0.1,0.2-0.2s0.2-0.1,0.3-0.1c0.1,0,0.2,0,0.3,0.1c0,0,0.1,0.1,0.1,0.2
		c0.1-0.1,0.1-0.1,0.2-0.2c0.1,0,0.2-0.1,0.3-0.1c0.2,0,0.4,0.1,0.4,0.2s0.1,0.2,0.1,0.3v1h-0.3v-1.1c0-0.1,0-0.2-0.1-0.2
		s-0.1-0.1-0.2-0.1s-0.2,0-0.3,0.1c-0.1,0.1-0.1,0.2-0.1,0.3v0.9h-0.3v-1c0-0.1,0-0.2,0-0.2c0-0.1-0.1-0.1-0.2-0.1s-0.2,0-0.3,0.1
		c-0.1,0.1-0.1,0.2-0.1,0.4v0.8h-0.3V351z"/>
	<path class="st1" d="M122.3,351h0.3v0.2c0.1-0.1,0.1-0.1,0.2-0.2s0.2-0.1,0.3-0.1c0.1,0,0.2,0,0.3,0.1c0,0,0.1,0.1,0.1,0.2
		c0.1-0.1,0.1-0.1,0.2-0.2c0.1,0,0.2-0.1,0.3-0.1c0.2,0,0.4,0.1,0.4,0.2s0.1,0.2,0.1,0.3v1h-0.4v-1.1c0-0.1,0-0.2-0.1-0.2
		s-0.1-0.1-0.2-0.1s-0.2,0-0.3,0.1c-0.1,0.1-0.1,0.2-0.1,0.3v0.9h-0.3v-1c0-0.1,0-0.2,0-0.2c0-0.1-0.1-0.1-0.2-0.1s-0.2,0-0.3,0.1
		c-0.1,0.1-0.1,0.2-0.1,0.4v0.8h-0.3L122.3,351L122.3,351L122.3,351z"/>
	<path class="st1" d="M124.9,352.3h0.3v0.3h-0.3V352.3z"/>
</g>
<g>
	<path class="st1" d="M59.1,324.9c0.2-0.5,0.7-1,1.4-1.5c0.6-0.5,1.1-0.8,1.2-1c0.3-0.3,0.4-0.6,0.4-1c0-0.3-0.1-0.5-0.2-0.7
		s-0.4-0.3-0.7-0.3c-0.4,0-0.7,0.2-0.9,0.5c-0.1,0.2-0.1,0.5-0.2,0.9h-1.4c0-0.6,0.1-1.1,0.3-1.5c0.4-0.7,1-1.1,2-1.1
		c0.7,0,1.3,0.2,1.8,0.6c0.4,0.4,0.7,1,0.7,1.6c0,0.5-0.2,1-0.5,1.4c-0.2,0.3-0.5,0.6-1,0.9l-0.6,0.4c-0.3,0.2-0.6,0.4-0.7,0.5
		s-0.2,0.2-0.3,0.4h3.1v1.2h-4.8C58.8,325.8,58.9,325.3,59.1,324.9z"/>
	<path class="st1" d="M68.7,320.1c0.4,0.6,0.5,1.5,0.5,2.7s-0.2,2.1-0.5,2.7c-0.4,0.6-1,0.9-1.9,0.9s-1.5-0.3-1.9-0.9
		s-0.5-1.5-0.5-2.7s0.2-2.1,0.5-2.7c0.4-0.6,1-1,1.9-1S68.3,319.5,68.7,320.1z M66,324.7c0.1,0.4,0.4,0.6,0.8,0.6s0.7-0.2,0.8-0.6
		c0.1-0.4,0.2-1.1,0.2-1.9c0-0.9-0.1-1.5-0.2-1.9s-0.4-0.6-0.8-0.6s-0.7,0.2-0.8,0.6c-0.1,0.4-0.2,1-0.2,1.9
		C65.8,323.6,65.9,324.2,66,324.7z"/>
	<path class="st1" d="M70.2,324.8h1.5v1.5h-1.5V324.8z"/>
	<path class="st1" d="M74,324.4c0.1,0.3,0.2,0.5,0.3,0.7c0.2,0.2,0.4,0.2,0.7,0.2c0.3,0,0.6-0.1,0.8-0.4c0.2-0.2,0.3-0.5,0.3-0.9
		s-0.1-0.7-0.3-0.9c-0.2-0.2-0.4-0.4-0.8-0.4c-0.2,0-0.3,0-0.4,0.1c-0.2,0.1-0.4,0.2-0.5,0.4l-1.2-0.1l0.5-3.9h3.9v1.2h-2.9
		l-0.3,1.5c0.2-0.1,0.4-0.2,0.5-0.3c0.2-0.1,0.4-0.1,0.7-0.1c0.6,0,1.1,0.2,1.5,0.6s0.7,1,0.7,1.7s-0.2,1.2-0.6,1.8
		c-0.4,0.5-1,0.8-1.9,0.8c-0.7,0-1.2-0.2-1.7-0.5c-0.4-0.4-0.7-0.9-0.7-1.5L74,324.4L74,324.4z"/>
	<path class="st1" d="M78.2,324.7h0.3v0.2c0.1-0.1,0.1-0.1,0.2-0.2s0.2-0.1,0.3-0.1c0.1,0,0.2,0,0.3,0.1c0,0,0.1,0.1,0.1,0.2
		c0.1-0.1,0.1-0.1,0.2-0.2c0.1,0,0.2-0.1,0.3-0.1c0.2,0,0.4,0.1,0.4,0.2s0.1,0.2,0.1,0.3v1h-0.3V325c0-0.1,0-0.2-0.1-0.2
		s-0.1-0.1-0.2-0.1s-0.2,0-0.3,0.1c-0.1,0.1-0.1,0.2-0.1,0.3v0.9h-0.3v-1c0-0.1,0-0.2,0-0.2c0-0.1-0.1-0.1-0.2-0.1s-0.2,0-0.3,0.1
		c-0.1,0.1-0.1,0.2-0.1,0.4v0.8h-0.3V324.7z"/>
	<path class="st1" d="M80.7,324.7H81v0.2c0.1-0.1,0.1-0.1,0.2-0.2s0.2-0.1,0.3-0.1c0.1,0,0.2,0,0.3,0.1c0,0,0.1,0.1,0.1,0.2
		c0.1-0.1,0.1-0.1,0.2-0.2c0.1,0,0.2-0.1,0.3-0.1c0.2,0,0.4,0.1,0.4,0.2s0.1,0.2,0.1,0.3v1h-0.3V325c0-0.1,0-0.2-0.1-0.2
		s-0.1-0.1-0.2-0.1s-0.2,0-0.3,0.1c-0.1,0.1-0.1,0.2-0.1,0.3v0.9h-0.3v-1c0-0.1,0-0.2,0-0.2c0-0.1-0.1-0.1-0.2-0.1s-0.2,0-0.3,0.1
		c-0.1,0.1-0.1,0.2-0.1,0.4v0.8h-0.3V324.7z"/>
	<path class="st1" d="M83.2,326h0.3v0.3h-0.3V326z"/>
</g>
<g>
	<path class="st1" d="M77.5,314.3v-0.9c0.4,0,0.7,0,0.9-0.1c0.3-0.1,0.5-0.2,0.7-0.4c0.1-0.1,0.2-0.3,0.3-0.5c0-0.1,0.1-0.2,0.1-0.3
		h1.2v7.1h-1.6v-4.9L77.5,314.3L77.5,314.3z"/>
	<path class="st1" d="M83.3,312.8c0.4-0.5,1-0.7,1.7-0.7c1.1,0,1.8,0.5,2.2,1.4c0.2,0.5,0.3,1.3,0.3,2.1c0,0.9-0.1,1.6-0.3,2.1
		c-0.4,1.1-1.2,1.6-2.3,1.6c-0.5,0-1-0.2-1.4-0.5s-0.7-0.8-0.7-1.4h1.4c0,0.2,0.1,0.4,0.3,0.5c0.1,0.1,0.3,0.2,0.6,0.2
		c0.5,0,0.8-0.3,1-0.8c0.1-0.3,0.2-0.7,0.2-1.2c-0.1,0.2-0.3,0.3-0.4,0.4c-0.3,0.2-0.6,0.2-1,0.2c-0.6,0-1.1-0.2-1.5-0.6
		s-0.7-0.9-0.7-1.7C82.6,313.9,82.9,313.2,83.3,312.8z M85.6,315.6c0.3-0.2,0.5-0.6,0.5-1s-0.1-0.7-0.3-1c-0.2-0.2-0.4-0.4-0.8-0.4
		c-0.2,0-0.4,0.1-0.6,0.2c-0.3,0.2-0.4,0.6-0.4,1.1c0,0.4,0.1,0.7,0.3,0.9c0.2,0.2,0.4,0.3,0.8,0.3
		C85.3,315.7,85.5,315.7,85.6,315.6z"/>
	<path class="st1" d="M88.5,317.7H90v1.5h-1.5V317.7z"/>
	<path class="st1" d="M92.3,317.3c0.1,0.3,0.2,0.5,0.3,0.7c0.2,0.2,0.4,0.2,0.7,0.2c0.3,0,0.6-0.1,0.8-0.4c0.2-0.2,0.3-0.5,0.3-0.9
		s-0.1-0.7-0.3-0.9c-0.2-0.2-0.4-0.4-0.8-0.4c-0.2,0-0.3,0-0.4,0.1c-0.2,0.1-0.4,0.2-0.5,0.4l-1.2-0.1l0.5-3.9h3.9v1.2h-2.9
		l-0.3,1.5c0.2-0.1,0.4-0.2,0.5-0.3c0.2-0.1,0.4-0.1,0.7-0.1c0.6,0,1.1,0.2,1.5,0.6s0.7,1,0.7,1.7s-0.2,1.2-0.6,1.8
		c-0.4,0.5-1,0.8-1.9,0.8c-0.7,0-1.2-0.2-1.7-0.5c-0.4-0.4-0.7-0.9-0.7-1.5L92.3,317.3L92.3,317.3z"/>
	<path class="st1" d="M96.4,317.6h0.3v0.2c0.1-0.1,0.1-0.1,0.2-0.2s0.2-0.1,0.3-0.1c0.1,0,0.2,0,0.3,0.1c0,0,0.1,0.1,0.1,0.2
		c0.1-0.1,0.1-0.1,0.2-0.2c0.1,0,0.2-0.1,0.3-0.1c0.2,0,0.4,0.1,0.4,0.2s0.1,0.2,0.1,0.3v1h-0.3v-1.1c0-0.1,0-0.2-0.1-0.2
		s-0.1-0.1-0.2-0.1s-0.2,0-0.3,0.1c-0.1,0.1-0.1,0.2-0.1,0.3v0.9h-0.3v-1c0-0.1,0-0.2,0-0.2c0-0.1-0.1-0.1-0.2-0.1s-0.2,0-0.3,0.1
		c-0.1,0.1-0.1,0.2-0.1,0.4v0.8h-0.3V317.6z"/>
	<path class="st1" d="M98.9,317.6h0.3v0.2c0.1-0.1,0.1-0.1,0.2-0.2s0.2-0.1,0.3-0.1c0.1,0,0.2,0,0.3,0.1c0,0,0.1,0.1,0.1,0.2
		c0.1-0.1,0.1-0.1,0.2-0.2c0.1,0,0.2-0.1,0.3-0.1c0.2,0,0.4,0.1,0.4,0.2s0.1,0.2,0.1,0.3v1h-0.3v-1.1c0-0.1,0-0.2-0.1-0.2
		s-0.1-0.1-0.2-0.1s-0.2,0-0.3,0.1c-0.1,0.1-0.1,0.2-0.1,0.3v0.9h-0.3v-1c0-0.1,0-0.2,0-0.2c0-0.1-0.1-0.1-0.2-0.1s-0.2,0-0.3,0.1
		c-0.1,0.1-0.1,0.2-0.1,0.4v0.8h-0.3V317.6z"/>
	<path class="st1" d="M101.5,318.9h0.3v0.3h-0.3V318.9z"/>
</g>
<g>
	<path class="st1" d="M37.1,288.6c0-0.1,0-0.2-0.1-0.4c-0.2-0.2-0.4-0.3-0.7-0.3c-0.5,0-0.8,0.3-1,0.8c-0.1,0.3-0.2,0.7-0.2,1.2
		c0.2-0.2,0.4-0.4,0.6-0.4c0.2-0.1,0.5-0.1,0.8-0.1c0.6,0,1.1,0.2,1.5,0.6s0.6,1,0.6,1.6c0,0.7-0.2,1.2-0.6,1.7
		c-0.4,0.5-1,0.8-1.8,0.8c-0.9,0-1.5-0.4-2-1.1c-0.3-0.6-0.5-1.3-0.5-2.3c0-0.5,0-1,0.1-1.3c0.1-0.6,0.2-1.1,0.5-1.5
		c0.2-0.3,0.5-0.6,0.8-0.8s0.7-0.3,1.2-0.3c0.7,0,1.2,0.2,1.6,0.5c0.4,0.3,0.6,0.8,0.7,1.3L37.1,288.6L37.1,288.6z M35.5,292.5
		c0.2,0.2,0.5,0.4,0.8,0.4s0.6-0.1,0.7-0.3c0.2-0.2,0.3-0.5,0.3-0.9s-0.1-0.7-0.3-1c-0.2-0.2-0.4-0.3-0.7-0.3
		c-0.2,0-0.4,0.1-0.6,0.2c-0.3,0.2-0.4,0.6-0.4,1C35.2,292,35.3,292.3,35.5,292.5z"/>
	<path class="st1" d="M39.2,292.3h0.3v0.2c0.1-0.1,0.1-0.1,0.2-0.2c0.1-0.1,0.2-0.1,0.3-0.1s0.2,0,0.3,0.1c0,0,0.1,0.1,0.1,0.2
		c0.1-0.1,0.1-0.1,0.2-0.2c0.1,0,0.2-0.1,0.3-0.1c0.2,0,0.4,0.1,0.4,0.2s0.1,0.2,0.1,0.3v1h-0.3v-1.1c0-0.1,0-0.2-0.1-0.2
		s-0.1-0.1-0.2-0.1s-0.2,0-0.3,0.1s-0.1,0.2-0.1,0.3v0.9h-0.3v-1c0-0.1,0-0.2,0-0.2c0-0.1-0.1-0.1-0.2-0.1c-0.1,0-0.2,0-0.3,0.1
		s-0.1,0.2-0.1,0.4v0.8h-0.3L39.2,292.3L39.2,292.3z"/>
	<path class="st1" d="M41.7,292.3H42v0.2c0.1-0.1,0.1-0.1,0.2-0.2s0.2-0.1,0.3-0.1s0.2,0,0.3,0.1c0,0,0.1,0.1,0.1,0.2
		c0.1-0.1,0.1-0.1,0.2-0.2c0.1,0,0.2-0.1,0.3-0.1c0.2,0,0.4,0.1,0.4,0.2s0.1,0.2,0.1,0.3v1h-0.3v-1.1c0-0.1,0-0.2-0.1-0.2
		s-0.1-0.1-0.2-0.1s-0.2,0-0.3,0.1s-0.1,0.2-0.1,0.3v0.9h-0.3v-1c0-0.1,0-0.2,0-0.2c0-0.1-0.1-0.1-0.2-0.1s-0.2,0-0.3,0.1
		s-0.1,0.2-0.1,0.4v0.8h-0.3C41.7,293.6,41.7,292.3,41.7,292.3z"/>
	<path class="st1" d="M44.3,293.5h0.3v0.3h-0.3V293.5z"/>
</g>
</svg>
