<?xml version="1.0" encoding="UTF-8" standalone="no"?>
<svg width="127px" height="50px" viewBox="0 0 127 50" version="1.1" xmlns="http://www.w3.org/2000/svg" xmlns:xlink="http://www.w3.org/1999/xlink">
    <!-- Generator: Sketch 3.7.2 (28276) - http://www.bohemiancoding.com/sketch -->
    <title>Front  Copy</title>
    <desc>Created with Sketch.</desc>
    <defs>
        <rect id="path-1" x="0" y="6" width="20" height="20"></rect>
        <mask id="mask-2" maskContentUnits="userSpaceOnUse" maskUnits="objectBoundingBox" x="0" y="0" width="20" height="20" fill="white">
            <use xlink:href="#path-1"></use>
        </mask>
        <rect id="path-3" x="102" y="6" width="20" height="20"></rect>
        <mask id="mask-4" maskContentUnits="userSpaceOnUse" maskUnits="objectBoundingBox" x="0" y="0" width="20" height="20" fill="white">
            <use xlink:href="#path-3"></use>
        </mask>
    </defs>
    <g id="Page-1" stroke="none" stroke-width="1" fill="none" fill-rule="evenodd">
        <g id="Front--Copy">
            <g id="Front" transform="translate(3.000000, 12.000000)">
                <g id="Group-5" transform="translate(61.000000, 13.000000) rotate(-180.000000) translate(-61.000000, -13.000000) ">
                    <use id="Rectangle-65" stroke="#874747" mask="url(#mask-2)" stroke-width="2" opacity="0.524195429" xlink:href="#path-1"></use>
                    <use id="Rectangle-65" stroke="#874747" mask="url(#mask-4)" stroke-width="2" opacity="0.524195429" xlink:href="#path-3"></use>
                    <path d="M112,3.00292933 C112,2.44902676 112.44266,2 112.998957,2 L115,2 L115,3.5 L123,3.5 L123,7.5 L115,7.5 L115,9 L112.998957,9 C112.447248,9 112,8.56211865 112,7.99707067 L112,3.00292933 Z" id="Rectangle-39" fill="#0069C1" transform="translate(117.500000, 5.500000) scale(-1, -1) rotate(-90.000000) translate(-117.500000, -5.500000) "></path>
                    <rect id="Rectangle-40" fill="#EC46AC" transform="translate(117.500000, 8.000000) scale(-1, -1) rotate(-270.000000) translate(-117.500000, -8.000000) " x="116.5" y="4.5" width="2" height="7"></rect>
                    <path d="M-1,3.00292933 C-1,2.44902676 -0.557339668,2 -0.00104343891,2 L2,2 L2,3.5 L10,3.5 L10,7.5 L2,7.5 L2,9 L-0.00104343891,9 C-0.552751913,9 -1,8.56211865 -1,7.99707067 L-1,3.00292933 Z" id="Rectangle-39" fill="#0069C1" transform="translate(4.500000, 5.500000) scale(-1, -1) rotate(-90.000000) translate(-4.500000, -5.500000) "></path>
                    <rect id="Rectangle-40" fill="#EC46AC" transform="translate(4.500000, 8.000000) scale(-1, -1) rotate(-270.000000) translate(-4.500000, -8.000000) " x="3.5" y="4.5" width="2" height="7"></rect>
                    <rect id="Rectangle-91" fill="#686868" opacity="0.524195429" x="0" y="3" width="122" height="3"></rect>
                </g>
            </g>
        </g>
    </g>
</svg>