<?xml version="1.0" encoding="utf-8"?>
<!-- Generator: Adobe Illustrator 19.2.1, SVG Export Plug-In . SVG Version: 6.00 Build 0)  -->
<svg version="1.1" id="Layer_1" xmlns="http://www.w3.org/2000/svg" xmlns:xlink="http://www.w3.org/1999/xlink" x="0px" y="0px"
	 viewBox="0 0 477.5 477.5" style="enable-background:new 0 0 477.5 477.5;" xml:space="preserve">
<style type="text/css">
	.st0{fill:none;stroke:#000000;stroke-width:8;stroke-miterlimit:10;}
	.st1{fill:#FFFFFF;stroke:#000000;stroke-width:8;stroke-miterlimit:10;}
	.st2{fill:url(#SVGID_1_);}
	.st3{fill:url(#SVGID_2_);}
</style>
<g id="Layer_9">
	<line class="st0" x1="191.8" y1="380" x2="-51.7" y2="108"/>
	<line class="st0" x1="381.8" y1="282.8" x2="112.2" y2="54.6"/>
	<polyline class="st1" points="391.1,177.6 128.2,-54.4 -44.1,13 184.9,268.1 	"/>
	<g>
		<path d="M385.2,186.9l-4.7,95.9L196,370.5l-6.3-101.1L385.2,186.9 M393.8,174.5l-212.4,89.7l7.4,118.6L388.2,288L393.8,174.5
			L393.8,174.5z"/>
	</g>
	<g>
		<path d="M385.2,187.8l-3.4,95l-184.6,86.6L191.8,269L385.2,187.8 M393.6,175.5l-11.5,4.8l-193.3,81.2l-5.2,2.2l0.3,5.6l5.4,100.4
			l0.6,11.9l10.8-5L385.2,290l4.4-2.1l0.2-4.9l3.4-95L393.6,175.5L393.6,175.5z"/>
	</g>
</g>
<linearGradient id="SVGID_1_" gradientUnits="userSpaceOnUse" x1="221.65" y1="424.58" x2="221.65" y2="479.18" gradientTransform="matrix(1 0 0 -1 0 479.1801)">
	<stop  offset="0" style="stop-color:#FFFFFF;stop-opacity:0"/>
	<stop  offset="8.192581e-02" style="stop-color:#FFFFFF;stop-opacity:8.192581e-02"/>
	<stop  offset="1" style="stop-color:#FFFFFF"/>
</linearGradient>
<rect y="0" class="st2" width="443.3" height="54.6"/>
<linearGradient id="SVGID_2_" gradientUnits="userSpaceOnUse" x1="-1459.9762" y1="764.6489" x2="-1459.9762" y2="819.2489" gradientTransform="matrix(4.489700e-11 -1 -1 -4.489700e-11 819.2489 -1285.4261)">
	<stop  offset="0" style="stop-color:#FFFFFF;stop-opacity:0"/>
	<stop  offset="8.192581e-02" style="stop-color:#FFFFFF;stop-opacity:8.192581e-02"/>
	<stop  offset="1" style="stop-color:#FFFFFF"/>
</linearGradient>
<polygon class="st3" points="54.6,1.3 54.6,347.8 0,347.8 0,1.3 "/>
</svg>
