<?xml version="1.0" encoding="UTF-8" standalone="no"?>
<svg width="227px" height="322px" viewBox="0 0 227 322" version="1.1" xmlns="http://www.w3.org/2000/svg" xmlns:xlink="http://www.w3.org/1999/xlink">
    <!-- Generator: Sketch 3.7.2 (28276) - http://www.bohemiancoding.com/sketch -->
    <title>Top Copy</title>
    <desc>Created with Sketch.</desc>
    <defs></defs>
    <g id="Page-1" stroke="none" stroke-width="1" fill="none" fill-rule="evenodd">
        <g id="Top-Copy">
            <g id="Top" transform="translate(19.000000, 9.000000)">
                <g id="Rail">
                    <rect id="Rectangle-26" fill="#686868" opacity="0.524195429" x="0" y="265" width="122" height="35"></rect>
                    <rect id="Rectangle-26-Copy" fill="#686868" opacity="0.524195429" x="0" y="0" width="122" height="35"></rect>
                    <g id="4mm-Nut" transform="translate(114.000000, 269.000000)" fill="#0069C1">
                        <polygon id="Polygon-1" transform="translate(3.500000, 4.000000) rotate(-180.000000) translate(-3.500000, -4.000000) " points="3.5 0.000620976367 7 1.99999991 7 5.99999991 3.5 7.99937893 8.8817842e-16 5.99999991 8.8817842e-16 1.99999991"></polygon>
                    </g>
                    <g id="4mm-Nut" transform="translate(114.000000, 286.000000)" fill="#0069C1">
                        <polygon id="Polygon-1" transform="translate(3.500000, 4.000000) rotate(-180.000000) translate(-3.500000, -4.000000) " points="3.5 0.000620976367 7 1.99999991 7 5.99999991 3.5 7.99937893 8.8817842e-16 5.99999991 8.8817842e-16 1.99999991"></polygon>
                    </g>
                    <g id="4mm-Nut" transform="translate(1.000000, 269.000000)" fill="#0069C1">
                        <polygon id="Polygon-1" transform="translate(3.500000, 4.000000) rotate(-180.000000) translate(-3.500000, -4.000000) " points="3.5 0.000620976367 7 1.99999991 7 5.99999991 3.5 7.99937893 8.8817842e-16 5.99999991 8.8817842e-16 1.99999991"></polygon>
                    </g>
                    <g id="4mm-Nut" transform="translate(1.000000, 286.000000)" fill="#0069C1">
                        <polygon id="Polygon-1" transform="translate(3.500000, 4.000000) rotate(-180.000000) translate(-3.500000, -4.000000) " points="3.5 0.000620976367 7 1.99999991 7 5.99999991 3.5 7.99937893 8.8817842e-16 5.99999991 8.8817842e-16 1.99999991"></polygon>
                    </g>
                    <g id="4mm-Nut" transform="translate(114.000000, 4.000000)" fill="#0069C1">
                        <polygon id="Polygon-1" transform="translate(3.500000, 4.000000) rotate(-180.000000) translate(-3.500000, -4.000000) " points="3.5 0.000620976367 7 1.99999991 7 5.99999991 3.5 7.99937893 8.8817842e-16 5.99999991 8.8817842e-16 1.99999991"></polygon>
                    </g>
                    <g id="4mm-Nut" transform="translate(114.000000, 21.000000)" fill="#0069C1">
                        <polygon id="Polygon-1" transform="translate(3.500000, 4.000000) rotate(-180.000000) translate(-3.500000, -4.000000) " points="3.5 0.000620976367 7 1.99999991 7 5.99999991 3.5 7.99937893 8.8817842e-16 5.99999991 8.8817842e-16 1.99999991"></polygon>
                    </g>
                    <g id="4mm-Nut" transform="translate(1.000000, 4.000000)" fill="#0069C1">
                        <polygon id="Polygon-1" transform="translate(3.500000, 4.000000) rotate(-180.000000) translate(-3.500000, -4.000000) " points="3.5 0.000620976367 7 1.99999991 7 5.99999991 3.5 7.99937893 8.8817842e-16 5.99999991 8.8817842e-16 1.99999991"></polygon>
                    </g>
                    <g id="4mm-Nut" transform="translate(1.000000, 21.000000)" fill="#0069C1">
                        <polygon id="Polygon-1" transform="translate(3.500000, 4.000000) rotate(-180.000000) translate(-3.500000, -4.000000) " points="3.5 0.000620976367 7 1.99999991 7 5.99999991 3.5 7.99937893 8.8817842e-16 5.99999991 8.8817842e-16 1.99999991"></polygon>
                    </g>
                    <polygon id="Rectangle-6" fill="#874646" opacity="0.524195429" points="0 0 20 0 20 189.094444 0 202"></polygon>
                    <polygon id="Rectangle-6" fill="#874646" opacity="0.524195429" points="0 221.5 20 208.5 20 300 0 300"></polygon>
                    <polygon id="Rectangle-6-Copy" fill="#874646" opacity="0.524195429" points="102 0 122 0 122 122.331878 102 136"></polygon>
                    <polygon id="Rectangle-6-Copy" fill="#874646" opacity="0.524195429" points="102 155 122 142 122 300 102 300"></polygon>
                </g>
            </g>
            <path d="M204,280.002929 C204,279.449027 204.44266,279 204.998957,279 L207,279 L207,280.5 L215,280.5 L215,284.5 L207,284.5 L207,286 L204.998957,286 C204.447248,286 204,285.562119 204,284.997071 L204,280.002929 Z" id="Rectangle-39" fill="#0069C1" transform="translate(209.500000, 282.500000) scale(-1, 1) translate(-209.500000, -282.500000) "></path>
            <rect id="Rectangle-40" fill="#EC46AC" transform="translate(207.000000, 283.000000) scale(-1, 1) translate(-207.000000, -283.000000) " x="206" y="279" width="2" height="8"></rect>
            <path d="M204,297.002929 C204,296.449027 204.44266,296 204.998957,296 L207,296 L207,297.5 L215,297.5 L215,301.5 L207,301.5 L207,303 L204.998957,303 C204.447248,303 204,302.562119 204,301.997071 L204,297.002929 Z" id="Rectangle-39" fill="#0069C1" transform="translate(209.500000, 299.500000) scale(-1, 1) translate(-209.500000, -299.500000) "></path>
            <rect id="Rectangle-40" fill="#EC46AC" transform="translate(207.000000, 300.000000) scale(-1, 1) translate(-207.000000, -300.000000) " x="206" y="296" width="2" height="8"></rect>
            <path d="M204,16.0029293 C204,15.4490268 204.44266,15 204.998957,15 L207,15 L207,16.5 L215,16.5 L215,20.5 L207,20.5 L207,22 L204.998957,22 C204.447248,22 204,21.5621186 204,20.9970707 L204,16.0029293 Z" id="Rectangle-39" fill="#0069C1" transform="translate(209.500000, 18.500000) scale(-1, 1) translate(-209.500000, -18.500000) "></path>
            <rect id="Rectangle-40" fill="#EC46AC" transform="translate(207.000000, 18.000000) scale(-1, 1) translate(-207.000000, -18.000000) " x="206" y="14" width="2" height="8"></rect>
            <path d="M204,32.0029293 C204,31.4490268 204.44266,31 204.998957,31 L207,31 L207,32.5 L215,32.5 L215,36.5 L207,36.5 L207,38 L204.998957,38 C204.447248,38 204,37.5621186 204,36.9970707 L204,32.0029293 Z" id="Rectangle-39" fill="#0069C1" transform="translate(209.500000, 34.500000) scale(-1, 1) translate(-209.500000, -34.500000) "></path>
            <rect id="Rectangle-40" fill="#EC46AC" transform="translate(207.000000, 35.000000) scale(-1, 1) translate(-207.000000, -35.000000) " x="206" y="31" width="2" height="8"></rect>
            <polygon id="Rectangle-6-Copy" fill="#874646" opacity="0.524195429" points="189 9 209 9 209 85 189 99"></polygon>
            <polygon id="Rectangle-6-Copy" fill="#874646" opacity="0.524195429" points="189 117 209 105 209 309 189 309"></polygon>
            <rect id="Rectangle-53" fill="#686868" opacity="0.524195429" x="209" y="274" width="3" height="35"></rect>
            <rect id="Rectangle-53" fill="#686868" opacity="0.524195429" x="209" y="9" width="3" height="35"></rect>
            <path d="M223.000002,96 L6,240.000004" id="Path-32" stroke="#000000" stroke-width="4"></path>
            <path d="M223.000002,76 L6,220.000004" id="Path-32" stroke="#000000" stroke-width="4"></path>
            <text id="Rail-length" transform="translate(28.000000, 215.000000) rotate(-32.000000) translate(-28.000000, -215.000000) " font-family="Helvetica-Light, Helvetica" font-size="5" font-weight="300" fill="#000000">
                <tspan x="16.19" y="217">Rail length</tspan>
            </text>
            <text id="Rail-length" transform="translate(131.000000, 147.000000) rotate(-32.000000) translate(-131.000000, -147.000000) " font-family="Helvetica-Light, Helvetica" font-size="5" font-weight="300" fill="#000000">
                <tspan x="119.19" y="149">Rail length</tspan>
            </text>
            <text id="Rail-length" transform="translate(199.000000, 101.000000) rotate(-32.000000) translate(-199.000000, -101.000000) " font-family="Helvetica-Light, Helvetica" font-size="5" font-weight="300" fill="#000000">
                <tspan x="187.19" y="103">Rail length</tspan>
            </text>
        </g>
    </g>
</svg>