<?xml version="1.0" encoding="UTF-8" standalone="no"?>
<svg width="191px" height="206px" viewBox="0 0 191 206" version="1.1" xmlns="http://www.w3.org/2000/svg" xmlns:xlink="http://www.w3.org/1999/xlink">
    <!-- Generator: Sketch 3.7.2 (28276) - http://www.bohemiancoding.com/sketch -->
    <title>Top</title>
    <desc>Created with Sketch.</desc>
    <defs></defs>
    <g id="Page-1" stroke="none" stroke-width="1" fill="none" fill-rule="evenodd">
        <g id="Top">
            <g transform="translate(26.000000, -125.000000)">
                <circle id="Oval-1" fill="#F9A129" cx="42" cy="198" r="11"></circle>
                <circle id="Oval-1-Copy-3" fill="#F9A129" cx="42" cy="255" r="11"></circle>
                <circle id="Oval-1-Copy-2" fill="#F9A129" cx="102" cy="198" r="11"></circle>
                <circle id="Oval-1-Copy-4" fill="#F9A129" cx="102" cy="255" r="11"></circle>
                <g id="Outer-Bearings-+-Bolts" transform="translate(7.000000, 156.000000)">
                    <rect id="Rectangle-8" fill="#9CD2FF" x="0" y="7" width="130" height="8"></rect>
                    <rect id="Rectangle-8-Copy" fill="#9CD2FF" x="0" y="126" width="130" height="8"></rect>
                    <rect id="Rectangle-14-Copy-4" fill="#EC46AC" x="1" y="4" width="7" height="14"></rect>
                    <rect id="Rectangle-14-Copy-5" fill="#EC46AC" transform="translate(19.500000, 11.000000) scale(-1, 1) translate(-19.500000, -11.000000) " x="16" y="4" width="7" height="14"></rect>
                    <rect id="Rectangle-14-Copy-4" fill="#EC46AC" x="1" y="123" width="7" height="14"></rect>
                    <rect id="Rectangle-14-Copy-5" fill="#EC46AC" transform="translate(19.500000, 130.000000) scale(-1, 1) translate(-19.500000, -130.000000) " x="16" y="123" width="7" height="14"></rect>
                    <rect id="Rectangle-14-Copy-4" fill="#EC46AC" x="107" y="123" width="7" height="14"></rect>
                    <rect id="Rectangle-14-Copy-5" fill="#EC46AC" transform="translate(125.500000, 130.000000) scale(-1, 1) translate(-125.500000, -130.000000) " x="122" y="123" width="7" height="14"></rect>
                    <rect id="Rectangle-14-Copy-4" fill="#EC46AC" x="107" y="4" width="7" height="14"></rect>
                    <rect id="Rectangle-14-Copy-5" fill="#EC46AC" transform="translate(125.500000, 11.000000) scale(-1, 1) translate(-125.500000, -11.000000) " x="122" y="4" width="7" height="14"></rect>
                    <rect id="Rectangle-10" fill="#F9A129" x="114" y="0" width="8" height="22" rx="1"></rect>
                    <rect id="Rectangle-10-Copy-2" fill="#F9A129" x="114" y="119" width="8" height="22" rx="1"></rect>
                    <rect id="Rectangle-10-Copy" fill="#F9A129" x="8" y="0" width="8" height="22" rx="1"></rect>
                    <rect id="Rectangle-10-Copy-3" fill="#F9A129" x="8" y="119" width="8" height="22" rx="1"></rect>
                </g>
                <g id="Aluminium-Structure" opacity="0.687266791" transform="translate(7.000000, 145.000000)">
                    <path d="M0,0 L40,0 L40,49 L30,49 L30,57 L40,57 L40,106 C40,106.081193 30,106 30,106 L30,114 L40,114 L40,163 L0,163 L0,0 Z M4.5,96 C5.6045695,96 6.5,95.1045695 6.5,94 C6.5,92.8954305 5.6045695,92 4.5,92 C3.3954305,92 2.5,92.8954305 2.5,94 C2.5,95.1045695 3.3954305,96 4.5,96 Z M4.5,71 C5.6045695,71 6.5,70.1045695 6.5,69 C6.5,67.8954305 5.6045695,67 4.5,67 C3.3954305,67 2.5,67.8954305 2.5,69 C2.5,70.1045695 3.3954305,71 4.5,71 Z M4.5,14 C5.6045695,14 6.5,13.1045695 6.5,12 C6.5,10.8954305 5.6045695,10 4.5,10 C3.3954305,10 2.5,10.8954305 2.5,12 C2.5,13.1045695 3.3954305,14 4.5,14 Z M24,14 C25.1045695,14 26,13.1045695 26,12 C26,10.8954305 25.1045695,10 24,10 C22.8954305,10 22,10.8954305 22,12 C22,13.1045695 22.8954305,14 24,14 Z M4.5,34 C5.6045695,34 6.5,33.1045695 6.5,32 C6.5,30.8954305 5.6045695,30 4.5,30 C3.3954305,30 2.5,30.8954305 2.5,32 C2.5,33.1045695 3.3954305,34 4.5,34 Z M24,34 C25.1045695,34 26,33.1045695 26,32 C26,30.8954305 25.1045695,30 24,30 C22.8954305,30 22,30.8954305 22,32 C22,33.1045695 22.8954305,34 24,34 Z M24,133 C25.1045695,133 26,132.104569 26,131 C26,129.895431 25.1045695,129 24,129 C22.8954305,129 22,129.895431 22,131 C22,132.104569 22.8954305,133 24,133 Z M4.5,133 C5.6045695,133 6.5,132.104569 6.5,131 C6.5,129.895431 5.6045695,129 4.5,129 C3.3954305,129 2.5,129.895431 2.5,131 C2.5,132.104569 3.3954305,133 4.5,133 Z M24,153 C25.1045695,153 26,152.104569 26,151 C26,149.895431 25.1045695,149 24,149 C22.8954305,149 22,149.895431 22,151 C22,152.104569 22.8954305,153 24,153 Z M4.5,153 C5.6045695,153 6.5,152.104569 6.5,151 C6.5,149.895431 5.6045695,149 4.5,149 C3.3954305,149 2.5,149.895431 2.5,151 C2.5,152.104569 3.3954305,153 4.5,153 Z" id="Combined-Shape" fill="#D4D4D4"></path>
                    <path d="M130,0 L90,0 L90,49 L100,49 L100,57 L90,57 L90,106 C90,106.081193 100,106 100,106 L100,114 L90,114 L90,163 L130,163 L130,0 Z M125.5,153 C126.604569,153 127.5,152.104569 127.5,151 C127.5,149.895431 126.604569,149 125.5,149 C124.395431,149 123.5,149.895431 123.5,151 C123.5,152.104569 124.395431,153 125.5,153 Z M125.5,133 C126.604569,133 127.5,132.104569 127.5,131 C127.5,129.895431 126.604569,129 125.5,129 C124.395431,129 123.5,129.895431 123.5,131 C123.5,132.104569 124.395431,133 125.5,133 Z M106,153 C107.104569,153 108,152.104569 108,151 C108,149.895431 107.104569,149 106,149 C104.895431,149 104,149.895431 104,151 C104,152.104569 104.895431,153 106,153 Z M106,133 C107.104569,133 108,132.104569 108,131 C108,129.895431 107.104569,129 106,129 C104.895431,129 104,129.895431 104,131 C104,132.104569 104.895431,133 106,133 Z M125.5,71 C126.604569,71 127.5,70.1045695 127.5,69 C127.5,67.8954305 126.604569,67 125.5,67 C124.395431,67 123.5,67.8954305 123.5,69 C123.5,70.1045695 124.395431,71 125.5,71 Z M125.5,96 C126.604569,96 127.5,95.1045695 127.5,94 C127.5,92.8954305 126.604569,92 125.5,92 C124.395431,92 123.5,92.8954305 123.5,94 C123.5,95.1045695 124.395431,96 125.5,96 Z M106,34 C107.104569,34 108,33.1045695 108,32 C108,30.8954305 107.104569,30 106,30 C104.895431,30 104,30.8954305 104,32 C104,33.1045695 104.895431,34 106,34 Z M125.5,34 C126.604569,34 127.5,33.1045695 127.5,32 C127.5,30.8954305 126.604569,30 125.5,30 C124.395431,30 123.5,30.8954305 123.5,32 C123.5,33.1045695 124.395431,34 125.5,34 Z M106,14 C107.104569,14 108,13.1045695 108,12 C108,10.8954305 107.104569,10 106,10 C104.895431,10 104,10.8954305 104,12 C104,13.1045695 104.895431,14 106,14 Z M125.5,14 C126.604569,14 127.5,13.1045695 127.5,12 C127.5,10.8954305 126.604569,10 125.5,10 C124.395431,10 123.5,10.8954305 123.5,12 C123.5,13.1045695 124.395431,14 125.5,14 Z" id="Combined-Shape" fill="#D4D4D4"></path>
                    <path d="M0,0 L130,0 L130,49 L0,49 L0,0 Z M4.5,14 C5.6045695,14 6.5,13.1045695 6.5,12 C6.5,10.8954305 5.6045695,10 4.5,10 C3.3954305,10 2.5,10.8954305 2.5,12 C2.5,13.1045695 3.3954305,14 4.5,14 Z M24,14 C25.1045695,14 26,13.1045695 26,12 C26,10.8954305 25.1045695,10 24,10 C22.8954305,10 22,10.8954305 22,12 C22,13.1045695 22.8954305,14 24,14 Z M4.5,34 C5.6045695,34 6.5,33.1045695 6.5,32 C6.5,30.8954305 5.6045695,30 4.5,30 C3.3954305,30 2.5,30.8954305 2.5,32 C2.5,33.1045695 3.3954305,34 4.5,34 Z M24,34 C25.1045695,34 26,33.1045695 26,32 C26,30.8954305 25.1045695,30 24,30 C22.8954305,30 22,30.8954305 22,32 C22,33.1045695 22.8954305,34 24,34 Z M125.5,14 C126.604569,14 127.5,13.1045695 127.5,12 C127.5,10.8954305 126.604569,10 125.5,10 C124.395431,10 123.5,10.8954305 123.5,12 C123.5,13.1045695 124.395431,14 125.5,14 Z M106,14 C107.104569,14 108,13.1045695 108,12 C108,10.8954305 107.104569,10 106,10 C104.895431,10 104,10.8954305 104,12 C104,13.1045695 104.895431,14 106,14 Z M125.5,34 C126.604569,34 127.5,33.1045695 127.5,32 C127.5,30.8954305 126.604569,30 125.5,30 C124.395431,30 123.5,30.8954305 123.5,32 C123.5,33.1045695 124.395431,34 125.5,34 Z M106,34 C107.104569,34 108,33.1045695 108,32 C108,30.8954305 107.104569,30 106,30 C104.895431,30 104,30.8954305 104,32 C104,33.1045695 104.895431,34 106,34 Z" id="Combined-Shape" fill="#686868" opacity="0.524195429"></path>
                    <path d="M0,114 L130,114 L130,163 L0,163 L0,114 Z M4.5,128 C5.6045695,128 6.5,127.104569 6.5,126 C6.5,124.895431 5.6045695,124 4.5,124 C3.3954305,124 2.5,124.895431 2.5,126 C2.5,127.104569 3.3954305,128 4.5,128 Z M24,128 C25.1045695,128 26,127.104569 26,126 C26,124.895431 25.1045695,124 24,124 C22.8954305,124 22,124.895431 22,126 C22,127.104569 22.8954305,128 24,128 Z M4.5,148 C5.6045695,148 6.5,147.104569 6.5,146 C6.5,144.895431 5.6045695,144 4.5,144 C3.3954305,144 2.5,144.895431 2.5,146 C2.5,147.104569 3.3954305,148 4.5,148 Z M24,148 C25.1045695,148 26,147.104569 26,146 C26,144.895431 25.1045695,144 24,144 C22.8954305,144 22,144.895431 22,146 C22,147.104569 22.8954305,148 24,148 Z M125.5,128 C126.604569,128 127.5,127.104569 127.5,126 C127.5,124.895431 126.604569,124 125.5,124 C124.395431,124 123.5,124.895431 123.5,126 C123.5,127.104569 124.395431,128 125.5,128 Z M106,128 C107.104569,128 108,127.104569 108,126 C108,124.895431 107.104569,124 106,124 C104.895431,124 104,124.895431 104,126 C104,127.104569 104.895431,128 106,128 Z M125.5,148 C126.604569,148 127.5,147.104569 127.5,146 C127.5,144.895431 126.604569,144 125.5,144 C124.395431,144 123.5,144.895431 123.5,146 C123.5,147.104569 124.395431,148 125.5,148 Z M106,148 C107.104569,148 108,147.104569 108,146 C108,144.895431 107.104569,144 106,144 C104.895431,144 104,144.895431 104,146 C104,147.104569 104.895431,148 106,148 Z" id="Combined-Shape" fill="#686868" opacity="0.524195429" transform="translate(65.000000, 138.500000) scale(1, -1) translate(-65.000000, -138.500000) "></path>
                    <path d="M0,57 L130,57 L130,106 L0,106 L0,57 Z M4.5,71 C5.6045695,71 6.5,70.1045695 6.5,69 C6.5,67.8954305 5.6045695,67 4.5,67 C3.3954305,67 2.5,67.8954305 2.5,69 C2.5,70.1045695 3.3954305,71 4.5,71 Z M4.5,96 C5.6045695,96 6.5,95.1045695 6.5,94 C6.5,92.8954305 5.6045695,92 4.5,92 C3.3954305,92 2.5,92.8954305 2.5,94 C2.5,95.1045695 3.3954305,96 4.5,96 Z M125.5,71 C126.604569,71 127.5,70.1045695 127.5,69 C127.5,67.8954305 126.604569,67 125.5,67 C124.395431,67 123.5,67.8954305 123.5,69 C123.5,70.1045695 124.395431,71 125.5,71 Z M125.5,96 C126.604569,96 127.5,95.1045695 127.5,94 C127.5,92.8954305 126.604569,92 125.5,92 C124.395431,92 123.5,92.8954305 123.5,94 C123.5,95.1045695 124.395431,96 125.5,96 Z" id="Combined-Shape" fill="#686868" opacity="0.524195429" transform="translate(65.000000, 81.500000) scale(1, -1) translate(-65.000000, -81.500000) "></path>
                </g>
                <g id="Outer-Bearings" transform="translate(0.000000, 160.000000)">
                    <circle id="Oval-1" fill="#BFBFBF" cx="42" cy="38" r="8"></circle>
                    <circle id="Oval-1-Copy-5" fill="#BFBFBF" cx="42" cy="95" r="8"></circle>
                    <circle id="Oval-1-Copy" fill="#BFBFBF" cx="102" cy="38" r="8"></circle>
                    <circle id="Oval-1-Copy-6" fill="#BFBFBF" cx="102" cy="95" r="8"></circle>
                    <rect id="Rectangle-14" fill="#EC46AC" x="0" y="0" width="7" height="14"></rect>
                    <rect id="Rectangle-14-Copy-2" fill="#EC46AC" transform="translate(140.500000, 7.000000) scale(-1, 1) translate(-140.500000, -7.000000) " x="137" y="0" width="7" height="14"></rect>
                    <rect id="Rectangle-14-Copy" fill="#EC46AC" x="0" y="119" width="7" height="14"></rect>
                    <rect id="Rectangle-14-Copy-3" fill="#EC46AC" transform="translate(140.500000, 126.000000) scale(-1, 1) translate(-140.500000, -126.000000) " x="137" y="119" width="7" height="14"></rect>
                    <g id="8mm-Nut" transform="translate(94.000000, 30.000000)">
                        <path d="M7.69743797,0.243756162 C7.94164811,0.109806276 8.33952201,0.120123734 8.57306728,0.259040325 L14.6352958,3.86495415 C14.8746823,4.00734524 15.0647155,4.3535377 15.0600097,4.62313566 L14.937858,11.6211982 C14.9330344,11.8975392 14.7251937,12.2334142 14.4869426,12.3640955 L8.30256239,15.7562438 C8.05835227,15.8901937 7.66047837,15.8798762 7.42693309,15.7409596 L1.36470435,12.1350455 C1.12531776,11.9926544 0.935284554,11.646462 0.939990404,11.376864 L1.06214205,4.37880199 C1.0669656,4.10246103 1.2748063,3.76658604 1.51305743,3.63590468 L7.69743797,0.243756162 Z" id="Polygon-1" fill="#EC46AC" transform="translate(8.000000, 8.000000) rotate(179.000000) translate(-8.000000, -8.000000) "></path>
                        <circle id="Oval-59" fill="#9CD2FF" cx="8" cy="8" r="4"></circle>
                    </g>
                    <g id="8mm-Nut" transform="translate(94.000000, 87.000000)">
                        <path d="M7.69743797,0.243756162 C7.94164811,0.109806276 8.33952201,0.120123734 8.57306728,0.259040325 L14.6352958,3.86495415 C14.8746823,4.00734524 15.0647155,4.3535377 15.0600097,4.62313566 L14.937858,11.6211982 C14.9330344,11.8975392 14.7251937,12.2334142 14.4869426,12.3640955 L8.30256239,15.7562438 C8.05835227,15.8901937 7.66047837,15.8798762 7.42693309,15.7409596 L1.36470435,12.1350455 C1.12531776,11.9926544 0.935284554,11.646462 0.939990404,11.376864 L1.06214205,4.37880199 C1.0669656,4.10246103 1.2748063,3.76658604 1.51305743,3.63590468 L7.69743797,0.243756162 Z" id="Polygon-1" fill="#EC46AC" transform="translate(8.000000, 8.000000) rotate(179.000000) translate(-8.000000, -8.000000) "></path>
                        <circle id="Oval-59" fill="#9CD2FF" cx="8" cy="8" r="4"></circle>
                    </g>
                    <g id="8mm-Nut" transform="translate(34.000000, 30.000000)">
                        <path d="M7.69743797,0.243756162 C7.94164811,0.109806276 8.33952201,0.120123734 8.57306728,0.259040325 L14.6352958,3.86495415 C14.8746823,4.00734524 15.0647155,4.3535377 15.0600097,4.62313566 L14.937858,11.6211982 C14.9330344,11.8975392 14.7251937,12.2334142 14.4869426,12.3640955 L8.30256239,15.7562438 C8.05835227,15.8901937 7.66047837,15.8798762 7.42693309,15.7409596 L1.36470435,12.1350455 C1.12531776,11.9926544 0.935284554,11.646462 0.939990404,11.376864 L1.06214205,4.37880199 C1.0669656,4.10246103 1.2748063,3.76658604 1.51305743,3.63590468 L7.69743797,0.243756162 Z" id="Polygon-1" fill="#EC46AC" transform="translate(8.000000, 8.000000) rotate(179.000000) translate(-8.000000, -8.000000) "></path>
                        <circle id="Oval-59" fill="#9CD2FF" cx="8" cy="8" r="4"></circle>
                    </g>
                    <g id="8mm-Nut" transform="translate(34.000000, 87.000000)">
                        <path d="M7.69743797,0.243756162 C7.94164811,0.109806276 8.33952201,0.120123734 8.57306728,0.259040325 L14.6352958,3.86495415 C14.8746823,4.00734524 15.0647155,4.3535377 15.0600097,4.62313566 L14.937858,11.6211982 C14.9330344,11.8975392 14.7251937,12.2334142 14.4869426,12.3640955 L8.30256239,15.7562438 C8.05835227,15.8901937 7.66047837,15.8798762 7.42693309,15.7409596 L1.36470435,12.1350455 C1.12531776,11.9926544 0.935284554,11.646462 0.939990404,11.376864 L1.06214205,4.37880199 C1.0669656,4.10246103 1.2748063,3.76658604 1.51305743,3.63590468 L7.69743797,0.243756162 Z" id="Polygon-1" fill="#EC46AC" transform="translate(8.000000, 8.000000) rotate(179.000000) translate(-8.000000, -8.000000) "></path>
                        <circle id="Oval-59" fill="#9CD2FF" cx="8" cy="8" r="4"></circle>
                    </g>
                </g>
                <g id="Group-4" transform="translate(8.000000, 153.000000)" fill="#0069C1">
                    <g id="4mm-Nut" transform="translate(121.000000, 139.000000)">
                        <polygon id="Polygon-1" transform="translate(3.500000, 4.000000) rotate(-180.000000) translate(-3.500000, -4.000000) " points="3.5 0.000620976367 7 1.99999991 7 5.99999991 3.5 7.99937893 8.8817842e-16 5.99999991 8.8817842e-16 1.99999991"></polygon>
                    </g>
                    <g id="4mm-Nut" transform="translate(101.500000, 139.000000)">
                        <polygon id="Polygon-1" transform="translate(3.500000, 4.000000) rotate(-180.000000) translate(-3.500000, -4.000000) " points="3.5 0.000620976367 7 1.99999991 7 5.99999991 3.5 7.99937893 8.8817842e-16 5.99999991 8.8817842e-16 1.99999991"></polygon>
                    </g>
                    <g id="4mm-Nut" transform="translate(101.500000, 119.000000)">
                        <polygon id="Polygon-1" transform="translate(3.500000, 4.000000) rotate(-180.000000) translate(-3.500000, -4.000000) " points="3.5 0.000620976367 7 1.99999991 7 5.99999991 3.5 7.99937893 8.8817842e-16 5.99999991 8.8817842e-16 1.99999991"></polygon>
                    </g>
                    <g id="4mm-Nut" transform="translate(121.000000, 119.000000)">
                        <polygon id="Polygon-1" transform="translate(3.500000, 4.000000) rotate(-180.000000) translate(-3.500000, -4.000000) " points="3.5 0.000620976367 7 1.99999991 7 5.99999991 3.5 7.99937893 8.8817842e-16 5.99999991 8.8817842e-16 1.99999991"></polygon>
                    </g>
                    <g id="4mm-Nut" transform="translate(19.500000, 139.000000)">
                        <polygon id="Polygon-1" transform="translate(3.500000, 4.000000) rotate(-180.000000) translate(-3.500000, -4.000000) " points="3.5 0.000620976367 7 1.99999991 7 5.99999991 3.5 7.99937893 8.8817842e-16 5.99999991 8.8817842e-16 1.99999991"></polygon>
                    </g>
                    <g id="4mm-Nut" transform="translate(0.000000, 139.000000)">
                        <polygon id="Polygon-1" transform="translate(3.500000, 4.000000) rotate(-180.000000) translate(-3.500000, -4.000000) " points="3.5 0.000620976367 7 1.99999991 7 5.99999991 3.5 7.99937893 8.8817842e-16 5.99999991 8.8817842e-16 1.99999991"></polygon>
                    </g>
                    <g id="4mm-Nut" transform="translate(0.000000, 119.000000)">
                        <polygon id="Polygon-1" transform="translate(3.500000, 4.000000) rotate(-180.000000) translate(-3.500000, -4.000000) " points="3.5 0.000620976367 7 1.99999991 7 5.99999991 3.5 7.99937893 8.8817842e-16 5.99999991 8.8817842e-16 1.99999991"></polygon>
                    </g>
                    <g id="4mm-Nut" transform="translate(19.500000, 119.000000)">
                        <polygon id="Polygon-1" transform="translate(3.500000, 4.000000) rotate(-180.000000) translate(-3.500000, -4.000000) " points="3.5 0.000620976367 7 1.99999991 7 5.99999991 3.5 7.99937893 8.8817842e-16 5.99999991 8.8817842e-16 1.99999991"></polygon>
                    </g>
                    <g id="4mm-Nut" transform="translate(121.000000, 20.000000)">
                        <polygon id="Polygon-1" transform="translate(3.500000, 4.000000) rotate(-180.000000) translate(-3.500000, -4.000000) " points="3.5 0.000620976367 7 1.99999991 7 5.99999991 3.5 7.99937893 8.8817842e-16 5.99999991 8.8817842e-16 1.99999991"></polygon>
                    </g>
                    <g id="4mm-Nut" transform="translate(101.500000, 20.000000)">
                        <polygon id="Polygon-1" transform="translate(3.500000, 4.000000) rotate(-180.000000) translate(-3.500000, -4.000000) " points="3.5 0.000620976367 7 1.99999991 7 5.99999991 3.5 7.99937893 8.8817842e-16 5.99999991 8.8817842e-16 1.99999991"></polygon>
                    </g>
                    <g id="4mm-Nut" transform="translate(101.500000, 0.000000)">
                        <polygon id="Polygon-1" transform="translate(3.500000, 4.000000) rotate(-180.000000) translate(-3.500000, -4.000000) " points="3.5 0.000620976367 7 1.99999991 7 5.99999991 3.5 7.99937893 8.8817842e-16 5.99999991 8.8817842e-16 1.99999991"></polygon>
                    </g>
                    <g id="4mm-Nut" transform="translate(121.000000, 0.000000)">
                        <polygon id="Polygon-1" transform="translate(3.500000, 4.000000) rotate(-180.000000) translate(-3.500000, -4.000000) " points="3.5 0.000620976367 7 1.99999991 7 5.99999991 3.5 7.99937893 8.8817842e-16 5.99999991 8.8817842e-16 1.99999991"></polygon>
                    </g>
                    <g id="4mm-Nut" transform="translate(19.500000, 20.000000)">
                        <polygon id="Polygon-1" transform="translate(3.500000, 4.000000) rotate(-180.000000) translate(-3.500000, -4.000000) " points="3.5 0.000620976367 7 1.99999991 7 5.99999991 3.5 7.99937893 8.8817842e-16 5.99999991 8.8817842e-16 1.99999991"></polygon>
                    </g>
                    <g id="4mm-Nut" transform="translate(0.000000, 20.000000)">
                        <polygon id="Polygon-1" transform="translate(3.500000, 4.000000) rotate(-180.000000) translate(-3.500000, -4.000000) " points="3.5 0.000620976367 7 1.99999991 7 5.99999991 3.5 7.99937893 8.8817842e-16 5.99999991 8.8817842e-16 1.99999991"></polygon>
                    </g>
                    <g id="4mm-Nut">
                        <polygon id="Polygon-1" transform="translate(3.500000, 4.000000) rotate(-180.000000) translate(-3.500000, -4.000000) " points="3.5 0.000620976367 7 1.99999991 7 5.99999991 3.5 7.99937893 8.8817842e-16 5.99999991 8.8817842e-16 1.99999991"></polygon>
                    </g>
                    <g id="4mm-Nut" transform="translate(19.500000, 0.000000)">
                        <polygon id="Polygon-1" transform="translate(3.500000, 4.000000) rotate(-180.000000) translate(-3.500000, -4.000000) " points="3.5 0.000620976367 7 1.99999991 7 5.99999991 3.5 7.99937893 8.8817842e-16 5.99999991 8.8817842e-16 1.99999991"></polygon>
                    </g>
                    <g id="4mm-Nut" transform="translate(0.000000, 82.000000)">
                        <polygon id="Polygon-1" transform="translate(3.500000, 4.000000) rotate(-180.000000) translate(-3.500000, -4.000000) " points="3.5 0.000620976367 7 1.99999991 7 5.99999991 3.5 7.99937893 8.8817842e-16 5.99999991 8.8817842e-16 1.99999991"></polygon>
                    </g>
                    <g id="4mm-Nut" transform="translate(0.000000, 57.000000)">
                        <polygon id="Polygon-1" transform="translate(3.500000, 4.000000) rotate(-180.000000) translate(-3.500000, -4.000000) " points="3.5 0.000620976367 7 1.99999991 7 5.99999991 3.5 7.99937893 8.8817842e-16 5.99999991 8.8817842e-16 1.99999991"></polygon>
                    </g>
                    <g id="4mm-Nut" transform="translate(121.000000, 82.000000)">
                        <polygon id="Polygon-1" transform="translate(3.500000, 4.000000) rotate(-180.000000) translate(-3.500000, -4.000000) " points="3.5 0.000620976367 7 1.99999991 7 5.99999991 3.5 7.99937893 8.8817842e-16 5.99999991 8.8817842e-16 1.99999991"></polygon>
                    </g>
                    <g id="4mm-Nut" transform="translate(121.000000, 57.000000)">
                        <polygon id="Polygon-1" transform="translate(3.500000, 4.000000) rotate(-180.000000) translate(-3.500000, -4.000000) " points="3.5 0.000620976367 7 1.99999991 7 5.99999991 3.5 7.99937893 8.8817842e-16 5.99999991 8.8817842e-16 1.99999991"></polygon>
                    </g>
                </g>
            </g>
        </g>
    </g>
</svg>