<?xml version="1.0" encoding="UTF-8" standalone="no"?>
<svg width="122px" height="206px" viewBox="0 0 122 206" version="1.1" xmlns="http://www.w3.org/2000/svg" xmlns:xlink="http://www.w3.org/1999/xlink">
    <!-- Generator: Sketch 3.7.2 (28276) - http://www.bohemiancoding.com/sketch -->
    <title>Drillsheet Top Plates</title>
    <desc>Created with Sketch.</desc>
    <defs>
        <path d="M-40.5,40.5 L89.5,40.5 L89.5,89.5 L-40.5,89.5 L-40.5,40.5 Z M-36,54.5 C-34.8954305,54.5 -34,53.6045695 -34,52.5 C-34,51.3954305 -34.8954305,50.5 -36,50.5 C-37.1045695,50.5 -38,51.3954305 -38,52.5 C-38,53.6045695 -37.1045695,54.5 -36,54.5 Z M-36,79.5 C-34.8954305,79.5 -34,78.6045695 -34,77.5 C-34,76.3954305 -34.8954305,75.5 -36,75.5 C-37.1045695,75.5 -38,76.3954305 -38,77.5 C-38,78.6045695 -37.1045695,79.5 -36,79.5 Z M85,54.5 C86.1045695,54.5 87,53.6045695 87,52.5 C87,51.3954305 86.1045695,50.5 85,50.5 C83.8954305,50.5 83,51.3954305 83,52.5 C83,53.6045695 83.8954305,54.5 85,54.5 Z M85,79.5 C86.1045695,79.5 87,78.6045695 87,77.5 C87,76.3954305 86.1045695,75.5 85,75.5 C83.8954305,75.5 83,76.3954305 83,77.5 C83,78.6045695 83.8954305,79.5 85,79.5 Z M24.5,69 C26.709139,69 28.5,67.209139 28.5,65 C28.5,62.790861 26.709139,61 24.5,61 C22.290861,61 20.5,62.790861 20.5,65 C20.5,67.209139 22.290861,69 24.5,69 Z" id="path-1"></path>
        <mask id="mask-2" maskContentUnits="userSpaceOnUse" maskUnits="objectBoundingBox" x="0" y="0" width="130" height="49" fill="white">
            <use xlink:href="#path-1"></use>
        </mask>
        <path d="M-40,40.5 L90,40.5 L90,89.5 L-40,89.5 L-40,40.5 Z M-35.5,54.5 C-34.3954305,54.5 -33.5,53.6045695 -33.5,52.5 C-33.5,51.3954305 -34.3954305,50.5 -35.5,50.5 C-36.6045695,50.5 -37.5,51.3954305 -37.5,52.5 C-37.5,53.6045695 -36.6045695,54.5 -35.5,54.5 Z M-16,54.5 C-14.8954305,54.5 -14,53.6045695 -14,52.5 C-14,51.3954305 -14.8954305,50.5 -16,50.5 C-17.1045695,50.5 -18,51.3954305 -18,52.5 C-18,53.6045695 -17.1045695,54.5 -16,54.5 Z M-35.5,74.5 C-34.3954305,74.5 -33.5,73.6045695 -33.5,72.5 C-33.5,71.3954305 -34.3954305,70.5 -35.5,70.5 C-36.6045695,70.5 -37.5,71.3954305 -37.5,72.5 C-37.5,73.6045695 -36.6045695,74.5 -35.5,74.5 Z M-16,74.5 C-14.8954305,74.5 -14,73.6045695 -14,72.5 C-14,71.3954305 -14.8954305,70.5 -16,70.5 C-17.1045695,70.5 -18,71.3954305 -18,72.5 C-18,73.6045695 -17.1045695,74.5 -16,74.5 Z M85.5,54.5 C86.6045695,54.5 87.5,53.6045695 87.5,52.5 C87.5,51.3954305 86.6045695,50.5 85.5,50.5 C84.3954305,50.5 83.5,51.3954305 83.5,52.5 C83.5,53.6045695 84.3954305,54.5 85.5,54.5 Z M66,54.5 C67.1045695,54.5 68,53.6045695 68,52.5 C68,51.3954305 67.1045695,50.5 66,50.5 C64.8954305,50.5 64,51.3954305 64,52.5 C64,53.6045695 64.8954305,54.5 66,54.5 Z M85.5,74.5 C86.6045695,74.5 87.5,73.6045695 87.5,72.5 C87.5,71.3954305 86.6045695,70.5 85.5,70.5 C84.3954305,70.5 83.5,71.3954305 83.5,72.5 C83.5,73.6045695 84.3954305,74.5 85.5,74.5 Z M66,74.5 C67.1045695,74.5 68,73.6045695 68,72.5 C68,71.3954305 67.1045695,70.5 66,70.5 C64.8954305,70.5 64,71.3954305 64,72.5 C64,73.6045695 64.8954305,74.5 66,74.5 Z" id="path-3"></path>
        <mask id="mask-4" maskContentUnits="userSpaceOnUse" maskUnits="objectBoundingBox" x="0" y="0" width="130" height="49" fill="white">
            <use xlink:href="#path-3"></use>
        </mask>
    </defs>
    <g id="Page-1" stroke="none" stroke-width="1" fill="none" fill-rule="evenodd">
        <g id="Drillsheet-Top-Plates">
            <g id="2" transform="translate(65.000000, 68.000000)">
                <polyline id="Path-1" stroke="#000000" stroke-width="0.3" opacity="0.15" transform="translate(6.000000, 127.750000) scale(1, -1) translate(-6.000000, -127.750000) " points="12 125.5 12 130 0 130"></polyline>
                <polyline id="Path-3" stroke="#000000" stroke-width="0.3" opacity="0.15" transform="translate(43.000000, 127.750000) scale(1, -1) translate(-43.000000, -127.750000) " points="37 125.5 37 130 49 130"></polyline>
                <polyline id="Path-1" stroke="#000000" stroke-width="0.3" opacity="0.15" points="12 0 12 4.5 0 4.5"></polyline>
                <polyline id="Path-1" stroke="#000000" stroke-width="0.3" opacity="0.15" points="24.5 0 24.5 65 0 65"></polyline>
                <polyline id="Path-1" stroke="#000000" stroke-width="0.3" opacity="0.15" transform="translate(43.000000, 2.250000) scale(-1, 1) translate(-43.000000, -2.250000) " points="49 0 49 4.5 37 4.5"></polyline>
                <use id="Combined-Shape" stroke="#D9D9D9" mask="url(#mask-2)" stroke-width="2" transform="translate(24.500000, 65.000000) scale(1, -1) rotate(-270.000000) translate(-24.500000, -65.000000) " xlink:href="#path-1"></use>
                <text id="12" font-family="Helvetica" font-size="3" font-weight="normal" fill="#000000">
                    <tspan x="5" y="7">12</tspan>
                </text>
                <text id="12" font-family="Helvetica" font-size="3" font-weight="normal" fill="#000000">
                    <tspan x="42" y="7">12</tspan>
                </text>
                <text id="4,5" font-family="Helvetica" font-size="3" font-weight="normal" fill="#000000">
                    <tspan x="14" y="4">4,5</tspan>
                </text>
                <text id="24,5" font-family="Helvetica" font-size="3" font-weight="normal" fill="#000000">
                    <tspan x="9" y="69">24,5</tspan>
                </text>
                <text id="65" font-family="Helvetica" font-size="3" font-weight="normal" fill="#000000">
                    <tspan x="26" y="36">65</tspan>
                </text>
                <text id="4,5" font-family="Helvetica" font-size="3" font-weight="normal" fill="#000000">
                    <tspan x="31" y="4">4,5</tspan>
                </text>
                <text id="12" font-family="Helvetica" font-size="3" font-weight="normal" fill="#000000">
                    <tspan x="5" y="125">12</tspan>
                </text>
                <text id="12" font-family="Helvetica" font-size="3" font-weight="normal" fill="#000000">
                    <tspan x="42" y="125">12</tspan>
                </text>
                <text id="4,5" font-family="Helvetica" font-size="3" font-weight="normal" fill="#000000">
                    <tspan x="14" y="128">4,5</tspan>
                </text>
                <text id="4,5" font-family="Helvetica" font-size="3" font-weight="normal" fill="#000000">
                    <tspan x="31" y="128">4,5</tspan>
                </text>
            </g>
            <g id="1" transform="translate(7.000000, 68.000000)">
                <use id="Combined-Shape" stroke="#D9D9D9" mask="url(#mask-4)" stroke-width="2" transform="translate(25.000000, 65.000000) rotate(-90.000000) translate(-25.000000, -65.000000) " xlink:href="#path-3"></use>
                <polyline id="Path-1" stroke="#000000" stroke-width="0.3" opacity="0.145405784" transform="translate(6.500000, 127.750000) scale(1, -1) translate(-6.500000, -127.750000) " points="12.5 125.5 12.5 130 0.5 130"></polyline>
                <polyline id="Path-2" stroke="#000000" stroke-width="0.3" opacity="0.145405784" transform="translate(6.500000, 118.000000) scale(1, -1) translate(-6.500000, -118.000000) " points="12.5 106 12.5 130 0.5 130"></polyline>
                <polyline id="Path-3" stroke="#000000" stroke-width="0.3" opacity="0.145405784" transform="translate(41.000000, 127.750000) scale(1, -1) translate(-41.000000, -127.750000) " points="32.5 125.5 32.5 130 49.5 130"></polyline>
                <polyline id="Path-4" stroke="#000000" stroke-width="0.3" opacity="0.145405784" transform="translate(41.000000, 118.000000) scale(1, -1) translate(-41.000000, -118.000000) " points="32.5 106 32.5 130 49.5 130"></polyline>
                <polyline id="Path-2" stroke="#000000" stroke-width="0.3" opacity="0.145405784" points="12.5 0 12.5 24 0.5 24"></polyline>
                <polyline id="Path-3" stroke="#000000" stroke-width="0.3" opacity="0.145405784" points="32.5 0 32.5 4.5 49.5 4.5"></polyline>
                <polyline id="Path-4" stroke="#000000" stroke-width="0.3" opacity="0.145405784" points="32.5 0 32.5 24 49.5 24"></polyline>
                <polyline id="Path-1" stroke="#000000" stroke-width="0.3" opacity="0.145405784" points="12.5 0 12.5 4.5 0.5 4.5"></polyline>
                <text id="12" font-family="Helvetica" font-size="3" font-weight="normal" fill="#000000">
                    <tspan x="5" y="7">12</tspan>
                </text>
                <text id="17" font-family="Helvetica" font-size="3" font-weight="normal" fill="#000000">
                    <tspan x="39" y="7">17</tspan>
                </text>
                <text id="17" font-family="Helvetica" font-size="3" font-weight="normal" fill="#000000">
                    <tspan x="39" y="27">17</tspan>
                </text>
                <text id="4,5" font-family="Helvetica" font-size="3" font-weight="normal" fill="#000000">
                    <tspan x="14" y="4">4,5</tspan>
                </text>
                <text id="12" font-family="Helvetica" font-size="3" font-weight="normal" fill="#000000">
                    <tspan x="5" y="27">12</tspan>
                </text>
                <text id="12" font-family="Helvetica" font-size="3" font-weight="normal" fill="#000000">
                    <tspan x="5" y="105">12</tspan>
                </text>
                <text id="17" font-family="Helvetica" font-size="3" font-weight="normal" fill="#000000">
                    <tspan x="39" y="105">17</tspan>
                </text>
                <text id="17" font-family="Helvetica" font-size="3" font-weight="normal" fill="#000000">
                    <tspan x="39" y="125">17</tspan>
                </text>
                <text id="12" font-family="Helvetica" font-size="3" font-weight="normal" fill="#000000">
                    <tspan x="5" y="125">12</tspan>
                </text>
                <text id="24" font-family="Helvetica" font-size="3" font-weight="normal" fill="#000000">
                    <tspan x="14" y="14">24</tspan>
                </text>
                <text id="4,5" font-family="Helvetica" font-size="3" font-weight="normal" fill="#000000">
                    <tspan x="27" y="4">4,5</tspan>
                </text>
                <text id="4,5" font-family="Helvetica" font-size="3" font-weight="normal" fill="#000000">
                    <tspan x="14" y="128">4,5</tspan>
                </text>
                <text id="4,5" font-family="Helvetica" font-size="3" font-weight="normal" fill="#000000">
                    <tspan x="27" y="128">4,5</tspan>
                </text>
                <text id="24" font-family="Helvetica" font-size="3" font-weight="normal" fill="#000000">
                    <tspan x="27" y="14">24</tspan>
                </text>
                <text id="24" font-family="Helvetica" font-size="3" font-weight="normal" fill="#000000">
                    <tspan x="14" y="117">24</tspan>
                </text>
                <text id="24" font-family="Helvetica" font-size="3" font-weight="normal" fill="#000000">
                    <tspan x="27" y="117">24</tspan>
                </text>
            </g>
            <text id="Top-Plates" font-family="Helvetica-Light, Helvetica" font-size="12" font-weight="300" fill="#000000">
                <tspan x="32.822" y="25">Top Plates</tspan>
            </text>
            <text id="x2" font-family="Helvetica-Light, Helvetica" font-size="12" font-weight="300" fill="#000000">
                <tspan x="26.164" y="41">x2</tspan>
            </text>
            <text id="x1" font-family="Helvetica-Light, Helvetica" font-size="12" font-weight="300" fill="#000000">
                <tspan x="84.164" y="41">x1</tspan>
            </text>
            <text id="top" font-family="Helvetica-Light, Helvetica" font-size="12" font-weight="300" fill="#000000">
                <tspan x="23.83" y="58">top</tspan>
            </text>
            <text id="top" font-family="Helvetica-Light, Helvetica" font-size="12" font-weight="300" fill="#000000">
                <tspan x="81.83" y="58">top</tspan>
            </text>
        </g>
    </g>
</svg>