<?xml version="1.0" encoding="utf-8"?>
<!-- Generator: Adobe Illustrator 19.1.0, SVG Export Plug-In . SVG Version: 6.00 Build 0)  -->
<svg version="1.1" xmlns="http://www.w3.org/2000/svg" xmlns:xlink="http://www.w3.org/1999/xlink" x="0px" y="0px"
	 viewBox="0 0 477.5 477.5" style="enable-background:new 0 0 477.5 477.5;" xml:space="preserve">
<style type="text/css">
	.st0{fill:#FFFFFF;}
	.st1{fill:#A7A9AC;}
	.st2{stroke:#E6E7E8;stroke-width:5;stroke-miterlimit:10;}
	.st3{fill:#E6E7E8;}
</style>
<g id="Layer_1">
</g>
<g id="Layer_2">
	<g>
		<g>
			<g>
				<rect x="69.6" y="429.9" class="st0" width="43.5" height="5"/>
				<polygon points="115.6,427.4 67.1,427.4 67.1,437.4 115.6,437.4 115.6,427.4 				"/>
			</g>
			<g>
				<polygon points="81.6,448.5 70.5,437.4 81.6,426.3 101,426.3 112.1,437.4 101,448.5 				"/>
				<path d="M99.9,428.8l8.6,8.6l-8.6,8.6H82.7l-8.6-8.6l8.6-8.6H99.9 M102,423.8h-2.1H82.7h-2.1l-1.5,1.5l-8.6,8.6l-3.6,3.5
					l3.6,3.5l8.6,8.6l1.5,1.5h2.1h17.3h2.1l1.5-1.5l8.6-8.6l3.6-3.5l-3.6-3.5l-8.6-8.6L102,423.8L102,423.8z"/>
			</g>
			<g>
				<polygon class="st0" points="80.2,437 70.6,427.4 80.2,417.8 102.4,417.8 112,427.4 102.4,437 				"/>
				<path d="M101.4,420.3l7.1,7.1l-7.1,7.1H81.3l-7.1-7.1l7.1-7.1H101.4 M103.4,415.3H79.2l-12.1,12.1l12.1,12.1h24.2l12.1-12.1
					L103.4,415.3L103.4,415.3z"/>
			</g>
		</g>
		<g>
			<path class="st0" d="M91.2,224.8c-16.2,0-29.9-6.8-29.9-14.8s13.7-14.8,29.9-14.8S121,202.1,121,210S107.4,224.8,91.2,224.8z"/>
			<path d="M91.2,197.8c17,0,27.4,7.1,27.4,12.3c0,5.1-10.4,12.3-27.4,12.3s-27.4-7.1-27.4-12.3C63.8,204.9,74.2,197.8,91.2,197.8
				 M91.2,192.8c-17.9,0-32.4,7.7-32.4,17.3c0,9.5,14.5,17.3,32.4,17.3s32.4-7.7,32.4-17.3C123.5,200.5,109,192.8,91.2,192.8
				L91.2,192.8z"/>
		</g>
		<g>
			<path class="st0" d="M91.2,204.1c-11.4,0-19.4-4.8-19.4-9.2c0-4.3,8-9.2,19.4-9.2s19.4,4.8,19.4,9.2
				C110.6,199.3,102.6,204.1,91.2,204.1z"/>
			<path d="M91.2,188.3c10.5,0,16.9,4.3,16.9,6.7s-6.4,6.7-16.9,6.7s-16.9-4.3-16.9-6.7S80.7,188.3,91.2,188.3 M91.2,183.3
				c-12.1,0-21.9,5.2-21.9,11.7s9.8,11.7,21.9,11.7c12.1,0,21.9-5.2,21.9-11.7S103.3,183.3,91.2,183.3L91.2,183.3z"/>
		</g>
		<g>
			<path class="st0" d="M91.2,200.7c-16.2,0-29.9-6.8-29.9-14.8s13.7-14.8,29.9-14.8S121,178,121,186S107.4,200.7,91.2,200.7z"/>
			<path d="M91.2,173.7c17,0,27.4,7.1,27.4,12.3s-10.4,12.3-27.4,12.3s-27.4-7.1-27.4-12.3S74.2,173.7,91.2,173.7 M91.2,168.7
				c-17.9,0-32.4,7.7-32.4,17.3c0,9.5,14.5,17.3,32.4,17.3s32.4-7.7,32.4-17.3C123.5,176.4,109,168.7,91.2,168.7L91.2,168.7z"/>
		</g>
		<g>
			<path class="st0" d="M91.2,164.6c-14.6,0-24.4-6.1-24.4-11.8S76.6,141,91.2,141s24.4,6.1,24.4,11.8S105.7,164.6,91.2,164.6z"/>
			<path d="M91.2,143.5c13.4,0,21.9,5.5,21.9,9.3s-8.5,9.3-21.9,9.3s-21.9-5.5-21.9-9.3S77.8,143.5,91.2,143.5 M91.2,138.5
				c-14.8,0-26.9,6.4-26.9,14.3s12,14.3,26.9,14.3s26.9-6.4,26.9-14.3S106,138.5,91.2,138.5L91.2,138.5z"/>
		</g>
		<g>
			<polygon points="81.5,135 70.3,123.9 81.5,112.8 100.8,112.8 112,123.9 100.8,135 			"/>
			<path d="M99.8,115.3l8.6,8.6l-8.6,8.6H82.5l-8.6-8.6l8.6-8.6H99.8 M101.9,110.3h-2.1H82.5h-2.1l-1.5,1.5l-8.6,8.6l-3.6,3.5
				l3.6,3.5l8.6,8.6l1.5,1.5h2.1h17.3h2.1l1.5-1.5l8.6-8.6l3.6-3.5l-3.6-3.5l-8.6-8.6L101.9,110.3L101.9,110.3z"/>
		</g>
		<g>
			<rect x="69.4" y="116.4" class="st0" width="43.5" height="5"/>
			<polygon points="115.4,113.9 66.9,113.9 66.9,123.9 115.4,123.9 115.4,113.9 			"/>
		</g>
		<g>
			<polygon class="st0" points="81.5,125 70.3,113.9 81.5,102.8 100.8,102.8 112,113.9 100.8,125 			"/>
			<path d="M99.8,105.3l8.6,8.6l-8.6,8.6H82.5l-8.6-8.6l8.6-8.6H99.8 M101.9,100.3h-2.1H82.5h-2.1l-1.5,1.5l-8.6,8.6l-3.6,3.5
				l3.6,3.5l8.6,8.6l1.5,1.5h2.1h17.3h2.1l1.5-1.5l8.6-8.6l3.6-3.5l-3.6-3.5l-8.6-8.6L101.9,100.3L101.9,100.3z"/>
		</g>
		<g>
			<path d="M91.2,262.5c-4.9,0-7.9-2-7.9-3.1s3-3.1,7.9-3.1s7.9,2,7.9,3.1S96,262.5,91.2,262.5z"/>
			<path d="M91.2,258.7c1.7,0,3,0.3,4,0.6c-1,0.3-2.3,0.6-4,0.6s-3-0.3-4-0.6C88.1,259,89.4,258.7,91.2,258.7 M91.2,253.7
				c-5.7,0-10.4,2.5-10.4,5.6s4.6,5.6,10.4,5.6c5.7,0,10.4-2.5,10.4-5.6S96.9,253.7,91.2,253.7L91.2,253.7z"/>
		</g>
		<g>
			<path class="st0" d="M90.8,427.5c-4.7,0-7.9-1-9.4-2v-178c3.7,1.1,8.2,1.2,9.9,1.2c2.1,0,6.3-0.1,9.9-1.2v177.9
				C99.4,426.4,95.6,427.5,90.8,427.5z"/>
			<path d="M98.7,250.5l0,173.2c-1.6,0.6-4.4,1.2-8,1.2c-3.3,0-5.6-0.5-6.9-1V250.5c2.7,0.5,5.4,0.6,7.4,0.6
				C93.3,251.1,96,251,98.7,250.5 M78.9,243.5v183c1.9,2.4,6.8,3.5,11.9,3.5c5.3,0,10.7-1.2,13-3.5l0-183c-2.2,1.8-7.3,2.6-12.4,2.6
				C86,246.1,80.8,245.2,78.9,243.5L78.9,243.5z"/>
		</g>
		<g>
			<path class="st0" d="M91.3,243.9c-2.4,0-4.5-0.2-6.1-0.4c1.6-0.2,3.7-0.4,6.1-0.4s4.5,0.2,6.1,0.4
				C95.8,243.7,93.7,243.9,91.3,243.9z"/>
			<path d="M91.3,240.6c-6.9,0-12.4,1.3-12.4,2.9c0,1.6,5.6,2.9,12.4,2.9s12.4-1.3,12.4-2.9C103.7,241.9,98.2,240.6,91.3,240.6
				L91.3,240.6z"/>
		</g>
		<g>
			<polygon points="81.5,96 70.3,84.9 81.5,73.8 100.8,73.8 112,84.9 100.8,96 			"/>
			<path d="M99.8,76.3l8.6,8.6l-8.6,8.6H82.5l-8.6-8.6l8.6-8.6H99.8 M101.9,71.3h-2.1H82.5h-2.1L79,72.8l-8.6,8.6l-3.6,3.5l3.6,3.5
				l8.6,8.6l1.5,1.5h2.1h17.3h2.1l1.5-1.5l8.6-8.6l3.6-3.5l-3.6-3.5l-8.6-8.6L101.9,71.3L101.9,71.3z"/>
		</g>
		<g>
			<rect x="69.4" y="77.4" class="st0" width="43.5" height="5"/>
			<polygon points="115.4,74.9 66.9,74.9 66.9,84.9 115.4,84.9 115.4,74.9 			"/>
		</g>
		<g>
			<polygon class="st0" points="81.5,86 70.3,74.9 81.5,63.8 100.8,63.8 112,74.9 100.8,86 			"/>
			<path d="M99.8,66.3l8.6,8.6l-8.6,8.6H82.5l-8.6-8.6l8.6-8.6H99.8 M101.9,61.3h-2.1H82.5h-2.1L79,62.8l-8.6,8.6l-3.6,3.5l3.6,3.5
				l8.6,8.6l1.5,1.5h2.1h17.3h2.1l1.5-1.5l8.6-8.6l3.6-3.5l-3.6-3.5l-8.6-8.6L101.9,61.3L101.9,61.3z"/>
		</g>
		<g>
			<path class="st0" d="M91.2,57.6c-14.6,0-24.4-6.1-24.4-11.8S76.6,34,91.2,34s24.4,6.1,24.4,11.8S105.7,57.6,91.2,57.6z"/>
			<path d="M91.2,36.5c13.4,0,21.9,5.5,21.9,9.3c0,3.8-8.5,9.3-21.9,9.3s-21.9-5.5-21.9-9.3C69.3,42,77.8,36.5,91.2,36.5 M91.2,31.5
				c-14.8,0-26.9,6.4-26.9,14.3c0,7.9,12,14.3,26.9,14.3S118,53.7,118,45.8C118,37.9,106,31.5,91.2,31.5L91.2,31.5z"/>
		</g>
		<g>
			<path class="st0" d="M91.2,186.3c-3.1,0-5.4-0.7-6.4-1.3c1-0.6,3.2-1.3,6.4-1.3s5.4,0.7,6.4,1.3
				C96.5,185.6,94.3,186.3,91.2,186.3z"/>
			<path d="M91.2,181.3c-5.1,0-9.3,1.7-9.3,3.8s4.2,3.8,9.3,3.8s9.3-1.7,9.3-3.8S96.3,181.3,91.2,181.3L91.2,181.3z"/>
		</g>
		<g>
			<path class="st0" d="M91.2,154.3c-3.5,0-6-0.7-7.2-1.3c1.2-0.6,3.7-1.3,7.2-1.3c3.5,0,6,0.7,7.2,1.3
				C97.1,153.6,94.6,154.3,91.2,154.3z"/>
			<path d="M91.2,149.3c-5.7,0-10.3,1.7-10.3,3.8s4.6,3.8,10.3,3.8c5.7,0,10.3-1.7,10.3-3.8S96.9,149.3,91.2,149.3L91.2,149.3z"/>
		</g>
		<g>
			<path class="st0" d="M91.2,115.3c-3.1,0-5-0.7-5.8-1.3c0.8-0.5,2.7-1.3,5.8-1.3c3.1,0,5,0.7,5.8,1.3
				C96.1,114.6,94.2,115.3,91.2,115.3z"/>
			<path d="M91.2,110.3c-4.8,0-8.6,1.7-8.6,3.8c0,2.1,3.9,3.8,8.6,3.8c4.8,0,8.6-1.7,8.6-3.8C99.8,112,95.9,110.3,91.2,110.3
				L91.2,110.3z"/>
		</g>
		<g>
			<path class="st0" d="M91.2,75.3c-3.1,0-5.4-0.7-6.4-1.3c1-0.6,3.2-1.3,6.4-1.3s5.4,0.7,6.4,1.3C96.5,74.6,94.3,75.3,91.2,75.3z"
				/>
			<path d="M91.2,70.3c-5.1,0-9.3,1.7-9.3,3.8s4.2,3.8,9.3,3.8s9.3-1.7,9.3-3.8S96.3,70.3,91.2,70.3L91.2,70.3z"/>
		</g>
		<g>
			<path class="st0" d="M91.2,47.3c-3.5,0-6-0.7-7.2-1.3c1.2-0.6,3.7-1.3,7.2-1.3c3.5,0,6,0.7,7.2,1.3
				C97.1,46.6,94.6,47.3,91.2,47.3z"/>
			<path d="M91.2,42.3c-5.7,0-10.3,1.7-10.3,3.8c0,2.1,4.6,3.8,10.3,3.8c5.7,0,10.3-1.7,10.3-3.8C101.5,44,96.9,42.3,91.2,42.3
				L91.2,42.3z"/>
		</g>
	</g>
	<g>
		<g>
			<g>
				<rect x="364.6" y="319.9" class="st0" width="43.5" height="5"/>
				<polygon points="410.6,317.4 362.1,317.4 362.1,327.4 410.6,327.4 410.6,317.4 				"/>
			</g>
			<g>
				<polygon points="376.7,338.5 365.5,327.4 376.7,316.3 396,316.3 407.1,327.4 396,338.5 				"/>
				<path d="M395,318.8l8.6,8.6L395,336h-17.3l-8.6-8.6l8.6-8.6H395 M397,313.8H395h-17.3h-2.1l-1.5,1.5l-8.6,8.6l-3.6,3.5l3.6,3.5
					l8.6,8.6l1.5,1.5h2.1H395h2.1l1.5-1.5l8.6-8.6l3.6-3.5l-3.6-3.5l-8.6-8.6L397,313.8L397,313.8z"/>
			</g>
			<g>
				<polygon class="st0" points="375.2,327 365.6,317.4 375.2,307.8 397.4,307.8 407,317.4 397.4,327 				"/>
				<path d="M396.4,310.3l7.1,7.1l-7.1,7.1h-20.1l-7.1-7.1l7.1-7.1H396.4 M398.5,305.3h-24.2l-12.1,12.1l12.1,12.1h24.2l12.1-12.1
					L398.5,305.3L398.5,305.3z"/>
			</g>
		</g>
		<g>
			<path class="st0" d="M386.3,323.9c-16.2,0-29.9-6.8-29.9-14.8s13.7-14.8,29.9-14.8c16.2,0,29.9,6.8,29.9,14.8
				S402.5,323.9,386.3,323.9z"/>
			<path d="M386.3,296.9c17,0,27.4,7.1,27.4,12.3c0,5.1-10.4,12.3-27.4,12.3s-27.4-7.1-27.4-12.3C358.9,304,369.4,296.9,386.3,296.9
				 M386.3,291.9c-17.9,0-32.4,7.7-32.4,17.3c0,9.5,14.5,17.3,32.4,17.3c17.9,0,32.4-7.7,32.4-17.3
				C418.7,299.6,404.2,291.9,386.3,291.9L386.3,291.9z"/>
		</g>
		<g>
			<path class="st0" d="M386.3,303.2c-11.4,0-19.4-4.8-19.4-9.2c0-4.3,8-9.2,19.4-9.2c11.4,0,19.4,4.8,19.4,9.2
				C405.7,298.4,397.8,303.2,386.3,303.2z"/>
			<path d="M386.3,287.4c10.5,0,16.9,4.3,16.9,6.7c0,2.4-6.4,6.7-16.9,6.7c-10.5,0-16.9-4.3-16.9-6.7
				C369.4,291.7,375.8,287.4,386.3,287.4 M386.3,282.4c-12.1,0-21.9,5.2-21.9,11.7s9.8,11.7,21.9,11.7c12.1,0,21.9-5.2,21.9-11.7
				S398.4,282.4,386.3,282.4L386.3,282.4z"/>
		</g>
		<g>
			<path class="st0" d="M386.3,299.8c-16.2,0-29.9-6.8-29.9-14.8s13.7-14.8,29.9-14.8c16.2,0,29.9,6.8,29.9,14.8
				S402.5,299.8,386.3,299.8z"/>
			<path d="M386.3,272.8c17,0,27.4,7.1,27.4,12.3c0,5.1-10.4,12.3-27.4,12.3s-27.4-7.1-27.4-12.3
				C358.9,279.9,369.4,272.8,386.3,272.8 M386.3,267.8c-17.9,0-32.4,7.7-32.4,17.3c0,9.5,14.5,17.3,32.4,17.3
				c17.9,0,32.4-7.7,32.4-17.3C418.7,275.5,404.2,267.8,386.3,267.8L386.3,267.8z"/>
		</g>
		<g>
			<path class="st0" d="M386.3,290.7c-14.6,0-24.4-6.1-24.4-11.8s9.8-11.8,24.4-11.8c14.6,0,24.4,6.1,24.4,11.8
				S400.9,290.7,386.3,290.7z"/>
			<path d="M386.3,269.5c13.4,0,21.9,5.5,21.9,9.3s-8.5,9.3-21.9,9.3c-13.4,0-21.9-5.5-21.9-9.3S373,269.5,386.3,269.5 M386.3,264.5
				c-14.8,0-26.9,6.4-26.9,14.3s12,14.3,26.9,14.3s26.9-6.4,26.9-14.3S401.2,264.5,386.3,264.5L386.3,264.5z"/>
		</g>
		<g>
			<polygon points="376.7,286.1 365.5,275 376.7,263.9 396,263.9 407.1,275 396,286.1 			"/>
			<path d="M395,266.4l8.6,8.6l-8.6,8.6h-17.3l-8.6-8.6l8.6-8.6H395 M397,261.4H395h-17.3h-2.1l-1.5,1.5l-8.6,8.6L362,275l3.6,3.5
				l8.6,8.6l1.5,1.5h2.1H395h2.1l1.5-1.5l8.6-8.6l3.6-3.5l-3.6-3.5l-8.6-8.6L397,261.4L397,261.4z"/>
		</g>
		<g>
			<rect x="364.6" y="267.5" class="st0" width="43.5" height="5"/>
			<polygon points="410.6,265 362.1,265 362.1,275 410.6,275 410.6,265 			"/>
		</g>
		<g>
			<polygon class="st0" points="376.7,276.1 365.5,265 376.7,253.9 396,253.9 407.1,265 396,276.1 			"/>
			<path d="M395,256.4l8.6,8.6l-8.6,8.6h-17.3l-8.6-8.6l8.6-8.6H395 M397,251.4H395h-17.3h-2.1l-1.5,1.5l-8.6,8.6L362,265l3.6,3.5
				l8.6,8.6l1.5,1.5h2.1H395h2.1l1.5-1.5l8.6-8.6l3.6-3.5l-3.6-3.5l-8.6-8.6L397,251.4L397,251.4z"/>
		</g>
		<g>
			<path d="M386.2,262.5c-4.9,0-7.9-2-7.9-3.1s3-3.1,7.9-3.1c4.9,0,7.9,2,7.9,3.1S391.1,262.5,386.2,262.5z"/>
			<path d="M386.2,258.7c1.7,0,3,0.3,4,0.6c-1,0.3-2.3,0.6-4,0.6s-3-0.3-4-0.6C383.1,259,384.5,258.7,386.2,258.7 M386.2,253.7
				c-5.7,0-10.4,2.5-10.4,5.6c0,3.1,4.6,5.6,10.4,5.6c5.7,0,10.4-2.5,10.4-5.6C396.6,256.3,391.9,253.7,386.2,253.7L386.2,253.7z"/>
		</g>
		<g>
			<path class="st0" d="M385.8,265.5c-4.7,0-7.9-1-9.4-2v-126c3.7,1.1,8.2,1.2,9.9,1.2c2.1,0,6.3-0.1,9.9-1.2v125.9
				C394.4,264.4,390.6,265.5,385.8,265.5z"/>
			<path d="M393.7,140.5l0,121.2c-1.6,0.6-4.4,1.2-8,1.2c-3.3,0-5.6-0.5-6.9-1V140.5c2.7,0.5,5.4,0.6,7.4,0.6
				C388.3,141.1,391,141,393.7,140.5 M373.9,133.5v131c1.9,2.4,6.8,3.5,11.9,3.5c5.3,0,10.7-1.2,13-3.5l0-131
				c-2.2,1.8-7.3,2.6-12.4,2.6C381.1,136.1,375.8,135.2,373.9,133.5L373.9,133.5z"/>
		</g>
		<g>
			<path class="st0" d="M386.3,133.9c-2.4,0-4.5-0.2-6.1-0.4c1.6-0.2,3.7-0.4,6.1-0.4c2.4,0,4.5,0.2,6.1,0.4
				C390.8,133.7,388.7,133.9,386.3,133.9z"/>
			<path d="M386.3,130.6c-6.9,0-12.4,1.3-12.4,2.9c0,1.6,5.6,2.9,12.4,2.9c6.9,0,12.4-1.3,12.4-2.9
				C398.7,131.9,393.2,130.6,386.3,130.6L386.3,130.6z"/>
		</g>
		<g>
			<polygon points="376.7,207.1 365.5,196 376.7,184.9 396,184.9 407.1,196 396,207.1 			"/>
			<path d="M395,187.4l8.6,8.6l-8.6,8.6h-17.3l-8.6-8.6l8.6-8.6H395 M397,182.4H395h-17.3h-2.1l-1.5,1.5l-8.6,8.6L362,196l3.6,3.5
				l8.6,8.6l1.5,1.5h2.1H395h2.1l1.5-1.5l8.6-8.6l3.6-3.5l-3.6-3.5l-8.6-8.6L397,182.4L397,182.4z"/>
		</g>
		<g>
			<rect x="364.6" y="188.5" class="st0" width="43.5" height="5"/>
			<polygon points="410.6,186 362.1,186 362.1,196 410.6,196 410.6,186 			"/>
		</g>
		<g>
			<polygon class="st0" points="376.7,197.1 365.5,186 376.7,174.9 396,174.9 407.1,186 396,197.1 			"/>
			<path d="M395,177.4l8.6,8.6l-8.6,8.6h-17.3l-8.6-8.6l8.6-8.6H395 M397,172.4H395h-17.3h-2.1l-1.5,1.5l-8.6,8.6L362,186l3.6,3.5
				l8.6,8.6l1.5,1.5h2.1H395h2.1l1.5-1.5l8.6-8.6l3.6-3.5l-3.6-3.5l-8.6-8.6L397,172.4L397,172.4z"/>
		</g>
		<g>
			<path class="st0" d="M386.3,190.7c-14.6,0-24.4-6.1-24.4-11.8s9.8-11.8,24.4-11.8c14.6,0,24.4,6.1,24.4,11.8
				S400.9,190.7,386.3,190.7z"/>
			<path d="M386.3,169.5c13.4,0,21.9,5.5,21.9,9.3s-8.5,9.3-21.9,9.3c-13.4,0-21.9-5.5-21.9-9.3S373,169.5,386.3,169.5 M386.3,164.5
				c-14.8,0-26.9,6.4-26.9,14.3s12,14.3,26.9,14.3s26.9-6.4,26.9-14.3S401.2,164.5,386.3,164.5L386.3,164.5z"/>
		</g>
		<g>
			<path class="st0" d="M385.8,177.5c-4.7,0-7.9-1-9.4-2v-38c3.7,1.1,8.2,1.2,9.9,1.2c2.1,0,6.3-0.1,9.9-1.2v37.9
				C394.4,176.4,390.6,177.5,385.8,177.5z"/>
			<path d="M393.7,140.5v33.2c-1.6,0.6-4.4,1.2-8,1.2c-3.3,0-5.6-0.5-6.9-1l0-33.4c2.7,0.5,5.4,0.6,7.4,0.6
				C388.3,141.1,391,141,393.7,140.5 M373.9,133.5l0,43c1.9,2.4,6.8,3.5,11.9,3.5c5.3,0,10.7-1.2,13-3.5l0-43
				c-2.2,1.8-7.3,2.6-12.4,2.6C381.1,136.1,375.8,135.2,373.9,133.5L373.9,133.5z"/>
		</g>
	</g>
	<g>
		<path class="st1" d="M134.9,310.2h3.7c1,0,1.7,0.3,2.2,0.9c0.3,0.4,0.4,0.8,0.4,1.2c0,0.5-0.2,1-0.5,1.3c-0.2,0.2-0.4,0.4-0.7,0.5
			c0.4,0.2,0.8,0.4,1,0.6c0.4,0.4,0.6,0.9,0.6,1.6c0,0.6-0.2,1.1-0.5,1.5c-0.5,0.7-1.4,1-2.5,1h-3.7V310.2z M138.2,313.8
			c0.5,0,0.9-0.1,1.2-0.2c0.4-0.2,0.7-0.6,0.7-1.2c0-0.6-0.2-0.9-0.7-1.1c-0.3-0.1-0.6-0.2-1.2-0.2h-2.1v2.7H138.2z M138.6,317.8
			c0.7,0,1.2-0.2,1.5-0.6c0.2-0.3,0.3-0.6,0.3-0.9c0-0.6-0.3-1.1-0.8-1.3c-0.3-0.1-0.7-0.2-1.2-0.2h-2.3v3H138.6z"/>
		<path class="st1" d="M147.4,313.1c0.6,0.5,0.8,1.3,0.8,2.4c0,1-0.2,1.8-0.7,2.5c-0.5,0.7-1.2,1-2.3,1c-0.9,0-1.5-0.3-2-0.9
			c-0.5-0.6-0.8-1.4-0.8-2.4c0-1.1,0.3-1.9,0.8-2.5c0.5-0.6,1.2-0.9,2.1-0.9C146.1,312.3,146.8,312.6,147.4,313.1z M146.7,317.3
			c0.3-0.5,0.4-1.1,0.4-1.8c0-0.6-0.1-1.1-0.3-1.4c-0.3-0.6-0.8-0.9-1.5-0.9c-0.6,0-1.1,0.2-1.4,0.7c-0.3,0.5-0.4,1.1-0.4,1.8
			c0,0.7,0.1,1.2,0.4,1.7c0.3,0.4,0.7,0.7,1.4,0.7C146,318.1,146.5,317.8,146.7,317.3z"/>
		<path class="st1" d="M149.5,310.2h1.1v8.6h-1.1V310.2z"/>
		<path class="st1" d="M152.4,310.8h1.1v1.8h1v0.9h-1v4.1c0,0.2,0.1,0.4,0.2,0.4c0.1,0,0.2,0.1,0.4,0.1c0.1,0,0.1,0,0.2,0
			s0.1,0,0.2,0v0.8c-0.1,0-0.2,0.1-0.4,0.1s-0.3,0-0.4,0c-0.5,0-0.8-0.1-1-0.4s-0.3-0.6-0.3-1v-4.2h-0.8v-0.9h0.8V310.8z"/>
		<path class="st1" d="M159,318.2c-0.4-0.5-0.7-1.2-0.7-2h1.1c0,0.5,0.1,0.9,0.3,1.2c0.3,0.4,0.8,0.7,1.5,0.7c0.6,0,1-0.1,1.3-0.4
			s0.5-0.7,0.5-1.1c0-0.6-0.2-1-0.5-1.2s-0.8-0.3-1.5-0.3c-0.1,0-0.1,0-0.2,0s-0.1,0-0.2,0V314c0.1,0,0.2,0,0.3,0s0.2,0,0.2,0
			c0.4,0,0.7-0.1,1-0.2c0.4-0.2,0.7-0.6,0.7-1.2c0-0.4-0.1-0.7-0.4-1s-0.6-0.3-1-0.3c-0.7,0-1.2,0.2-1.5,0.7
			c-0.1,0.3-0.2,0.6-0.3,1.1h-1c0-0.6,0.1-1.2,0.4-1.6c0.4-0.8,1.2-1.2,2.3-1.2c0.9,0,1.5,0.2,2,0.6s0.7,0.9,0.7,1.7
			c0,0.5-0.1,0.9-0.4,1.3c-0.2,0.2-0.4,0.4-0.7,0.5c0.4,0.1,0.8,0.4,1,0.7s0.4,0.8,0.4,1.3c0,0.8-0.3,1.5-0.8,2s-1.3,0.8-2.2,0.8
			C160.2,319,159.5,318.7,159,318.2z"/>
		<path class="st1" d="M170.3,311.7c0.4,0.7,0.6,1.6,0.6,2.8c0,1.1-0.2,2.1-0.5,2.8c-0.5,1.1-1.3,1.6-2.4,1.6c-1,0-1.8-0.4-2.2-1.3
			c-0.4-0.7-0.6-1.7-0.6-2.9c0-1,0.1-1.8,0.4-2.5c0.5-1.3,1.3-1.9,2.5-1.9C169.1,310.4,169.8,310.8,170.3,311.7z M169.3,317.3
			c0.3-0.5,0.5-1.4,0.5-2.7c0-1-0.1-1.7-0.4-2.4c-0.2-0.6-0.7-0.9-1.4-0.9c-0.6,0-1.1,0.3-1.4,0.9c-0.3,0.6-0.4,1.4-0.4,2.6
			c0,0.9,0.1,1.5,0.3,2.1c0.3,0.8,0.8,1.2,1.4,1.2C168.5,318.1,168.9,317.8,169.3,317.3z"/>
		<path class="st1" d="M172.2,312.5h1v0.9c0.2-0.3,0.5-0.5,0.7-0.7c0.3-0.2,0.7-0.4,1.2-0.4c0.5,0,0.9,0.1,1.2,0.4
			c0.2,0.1,0.3,0.3,0.5,0.6c0.2-0.3,0.5-0.6,0.8-0.7s0.7-0.2,1.1-0.2c0.8,0,1.4,0.3,1.7,0.9c0.2,0.3,0.2,0.8,0.2,1.3v4.2h-1.1v-4.4
			c0-0.4-0.1-0.7-0.3-0.9s-0.5-0.2-0.8-0.2c-0.4,0-0.8,0.1-1.1,0.4s-0.4,0.7-0.4,1.4v3.7h-1.1v-4.1c0-0.4-0.1-0.7-0.2-0.9
			c-0.2-0.3-0.5-0.4-0.9-0.4c-0.4,0-0.8,0.2-1.1,0.5s-0.5,0.9-0.5,1.7v3.3h-1.1V312.5z"/>
		<path class="st1" d="M182.2,312.5h1v0.9c0.2-0.3,0.5-0.5,0.7-0.7c0.3-0.2,0.7-0.4,1.2-0.4c0.5,0,0.9,0.1,1.2,0.4
			c0.2,0.1,0.3,0.3,0.5,0.6c0.2-0.3,0.5-0.6,0.8-0.7s0.7-0.2,1.1-0.2c0.8,0,1.4,0.3,1.7,0.9c0.2,0.3,0.2,0.8,0.2,1.3v4.2h-1.1v-4.4
			c0-0.4-0.1-0.7-0.3-0.9s-0.5-0.2-0.8-0.2c-0.4,0-0.8,0.1-1.1,0.4s-0.4,0.7-0.4,1.4v3.7h-1.1v-4.1c0-0.4-0.1-0.7-0.2-0.9
			c-0.2-0.3-0.5-0.4-0.9-0.4c-0.4,0-0.8,0.2-1.1,0.5s-0.5,0.9-0.5,1.7v3.3h-1.1V312.5z"/>
		<path class="st1" d="M192.4,317.5h1.2v1.3h-1.2V317.5z"/>
	</g>
	<g>
		<path class="st1" d="M134.9,196h3.7c1,0,1.7,0.3,2.2,0.9c0.3,0.4,0.4,0.8,0.4,1.2c0,0.5-0.2,1-0.5,1.3c-0.2,0.2-0.4,0.4-0.7,0.5
			c0.4,0.2,0.8,0.4,1,0.6c0.4,0.4,0.6,0.9,0.6,1.6c0,0.6-0.2,1.1-0.5,1.5c-0.5,0.7-1.4,1-2.5,1h-3.7V196z M138.2,199.6
			c0.5,0,0.9-0.1,1.2-0.2c0.4-0.2,0.7-0.6,0.7-1.2c0-0.6-0.2-0.9-0.7-1.1c-0.3-0.1-0.6-0.2-1.2-0.2h-2.1v2.7H138.2z M138.6,203.6
			c0.7,0,1.2-0.2,1.5-0.6c0.2-0.3,0.3-0.6,0.3-0.9c0-0.6-0.3-1.1-0.8-1.3c-0.3-0.1-0.7-0.2-1.2-0.2h-2.3v3H138.6z"/>
		<path class="st1" d="M146.7,198.5c0.4,0.2,0.7,0.5,0.9,0.8c0.2,0.3,0.3,0.7,0.4,1.1c0.1,0.3,0.1,0.8,0.1,1.4h-4.6
			c0,0.6,0.2,1.2,0.4,1.5c0.3,0.4,0.7,0.6,1.3,0.6c0.5,0,1-0.2,1.3-0.5c0.2-0.2,0.3-0.5,0.4-0.7h1c0,0.2-0.1,0.5-0.3,0.8
			s-0.3,0.5-0.5,0.7c-0.3,0.3-0.7,0.5-1.2,0.6c-0.3,0.1-0.5,0.1-0.9,0.1c-0.8,0-1.4-0.3-2-0.9c-0.5-0.6-0.8-1.4-0.8-2.4
			c0-1,0.3-1.8,0.8-2.5c0.5-0.6,1.3-0.9,2.1-0.9C145.8,198.2,146.3,198.3,146.7,198.5z M147.1,201c0-0.5-0.1-0.8-0.3-1.1
			c-0.3-0.5-0.8-0.8-1.4-0.8c-0.5,0-0.9,0.2-1.2,0.5s-0.5,0.8-0.5,1.3H147.1z"/>
		<path class="st1" d="M152.9,200.8c0.2,0,0.4-0.1,0.5-0.3c0-0.1,0.1-0.2,0.1-0.4c0-0.4-0.1-0.6-0.4-0.8c-0.3-0.2-0.6-0.2-1.1-0.2
			c-0.5,0-0.9,0.1-1.2,0.4c-0.1,0.2-0.2,0.4-0.3,0.7h-1c0-0.8,0.3-1.3,0.8-1.6s1-0.5,1.7-0.5c0.7,0,1.3,0.1,1.8,0.4
			c0.5,0.3,0.7,0.7,0.7,1.3v3.6c0,0.1,0,0.2,0.1,0.3s0.1,0.1,0.3,0.1c0,0,0.1,0,0.2,0s0.1,0,0.2,0v0.8c-0.2,0-0.3,0.1-0.4,0.1
			s-0.2,0-0.4,0c-0.4,0-0.6-0.1-0.8-0.4c-0.1-0.1-0.1-0.3-0.2-0.6c-0.2,0.3-0.5,0.5-0.9,0.7s-0.8,0.3-1.3,0.3
			c-0.6,0-1.1-0.2-1.4-0.5c-0.4-0.4-0.6-0.8-0.6-1.3c0-0.6,0.2-1,0.5-1.4c0.4-0.3,0.8-0.5,1.4-0.6L152.9,200.8z M150.6,203.6
			c0.2,0.2,0.5,0.3,0.8,0.3c0.4,0,0.7-0.1,1.1-0.3c0.6-0.3,0.9-0.8,0.9-1.4v-0.8c-0.1,0.1-0.3,0.2-0.5,0.2s-0.4,0.1-0.6,0.1
			l-0.6,0.1c-0.4,0.1-0.7,0.1-0.9,0.2c-0.3,0.2-0.5,0.5-0.5,0.9C150.3,203.2,150.4,203.5,150.6,203.6z"/>
		<path class="st1" d="M156.2,198.3h1v1.1c0.1-0.2,0.3-0.5,0.6-0.8s0.7-0.5,1.1-0.5c0,0,0.1,0,0.1,0s0.1,0,0.2,0v1.1
			c-0.1,0-0.1,0-0.2,0s-0.1,0-0.2,0c-0.5,0-0.9,0.2-1.2,0.5s-0.4,0.7-0.4,1.2v3.6h-1.1V198.3z"/>
		<path class="st1" d="M160.2,196h1.1v1.2h-1.1V196z M160.2,198.3h1.1v6.2h-1.1V198.3z"/>
		<path class="st1" d="M162.8,198.3h1v0.9c0.3-0.4,0.6-0.6,0.9-0.8s0.7-0.2,1.1-0.2c0.9,0,1.5,0.3,1.8,0.9c0.2,0.3,0.3,0.8,0.3,1.5
			v4h-1.1v-4c0-0.4-0.1-0.7-0.2-0.9c-0.2-0.4-0.5-0.6-1-0.6c-0.2,0-0.5,0-0.6,0.1c-0.3,0.1-0.5,0.3-0.8,0.5
			c-0.2,0.2-0.3,0.4-0.3,0.6s-0.1,0.5-0.1,0.9v3.3h-1.1V198.3z"/>
		<path class="st1" d="M173,198.6c0.2,0.1,0.4,0.3,0.6,0.6v-0.8h1v5.7c0,0.8-0.1,1.4-0.4,1.9c-0.4,0.9-1.3,1.3-2.5,1.3
			c-0.7,0-1.2-0.2-1.7-0.5s-0.7-0.8-0.8-1.4h1.1c0.1,0.3,0.2,0.5,0.3,0.7c0.2,0.2,0.6,0.4,1.1,0.4c0.8,0,1.3-0.3,1.6-0.9
			c0.1-0.3,0.2-0.9,0.2-1.8c-0.2,0.3-0.5,0.6-0.8,0.7c-0.3,0.2-0.7,0.2-1.2,0.2c-0.7,0-1.3-0.2-1.8-0.7s-0.8-1.3-0.8-2.4
			c0-1.1,0.3-1.9,0.8-2.5s1.1-0.9,1.9-0.9C172.2,198.2,172.6,198.3,173,198.6z M173.1,199.7c-0.3-0.4-0.7-0.6-1.2-0.6
			c-0.7,0-1.2,0.3-1.5,1c-0.1,0.4-0.2,0.9-0.2,1.5c0,0.7,0.1,1.2,0.4,1.6c0.3,0.4,0.7,0.6,1.2,0.6c0.8,0,1.3-0.3,1.6-1
			c0.2-0.4,0.3-0.8,0.3-1.4C173.6,200.6,173.4,200.1,173.1,199.7z"/>
	</g>
	<g>
		<path class="st1" d="M135.5,146l1.6,7l1.9-7h1.3l2,7l1.6-7h1.3l-2.3,8.6h-1.2l-2-7.1l-2,7.1h-1.2l-2.2-8.6H135.5z"/>
		<path class="st1" d="M149.1,150.8c0.2,0,0.4-0.1,0.5-0.3c0-0.1,0.1-0.2,0.1-0.4c0-0.4-0.1-0.6-0.4-0.8c-0.3-0.2-0.6-0.2-1.1-0.2
			c-0.5,0-0.9,0.1-1.2,0.4c-0.1,0.2-0.2,0.4-0.3,0.7h-1c0-0.8,0.3-1.3,0.8-1.6s1-0.5,1.7-0.5c0.7,0,1.3,0.1,1.8,0.4
			c0.5,0.3,0.7,0.7,0.7,1.3v3.6c0,0.1,0,0.2,0.1,0.3s0.1,0.1,0.3,0.1c0,0,0.1,0,0.2,0s0.1,0,0.2,0v0.8c-0.2,0-0.3,0.1-0.4,0.1
			s-0.2,0-0.4,0c-0.4,0-0.6-0.1-0.8-0.4c-0.1-0.1-0.1-0.3-0.2-0.6c-0.2,0.3-0.5,0.5-0.9,0.7s-0.8,0.3-1.3,0.3
			c-0.6,0-1.1-0.2-1.4-0.5c-0.4-0.4-0.6-0.8-0.6-1.3c0-0.6,0.2-1,0.5-1.4c0.4-0.3,0.8-0.5,1.4-0.6L149.1,150.8z M146.8,153.6
			c0.2,0.2,0.5,0.3,0.8,0.3c0.4,0,0.7-0.1,1.1-0.3c0.6-0.3,0.9-0.8,0.9-1.4v-0.8c-0.1,0.1-0.3,0.2-0.5,0.2s-0.4,0.1-0.6,0.1
			l-0.6,0.1c-0.4,0.1-0.7,0.1-0.9,0.2c-0.3,0.2-0.5,0.5-0.5,0.9C146.5,153.2,146.6,153.5,146.8,153.6z"/>
		<path class="st1" d="M153,152.6c0,0.4,0.1,0.6,0.3,0.8c0.3,0.3,0.7,0.5,1.4,0.5c0.4,0,0.7-0.1,1.1-0.3s0.5-0.4,0.5-0.8
			c0-0.3-0.1-0.5-0.4-0.6c-0.2-0.1-0.5-0.2-0.9-0.3l-0.9-0.2c-0.5-0.1-0.9-0.3-1.2-0.4c-0.5-0.3-0.7-0.7-0.7-1.2
			c0-0.6,0.2-1.1,0.7-1.4c0.4-0.4,1-0.6,1.7-0.6c1,0,1.6,0.3,2.1,0.8c0.3,0.4,0.4,0.7,0.4,1.1h-1c0-0.2-0.1-0.5-0.3-0.6
			c-0.2-0.3-0.7-0.4-1.3-0.4c-0.4,0-0.7,0.1-0.9,0.2c-0.2,0.2-0.3,0.4-0.3,0.6c0,0.3,0.1,0.5,0.4,0.7c0.2,0.1,0.4,0.2,0.7,0.3
			l0.7,0.2c0.8,0.2,1.3,0.4,1.6,0.5c0.4,0.3,0.6,0.7,0.6,1.3c0,0.6-0.2,1-0.6,1.4c-0.4,0.4-1.1,0.6-2,0.6c-0.9,0-1.6-0.2-2-0.6
			s-0.6-0.9-0.6-1.6H153z"/>
		<path class="st1" d="M158.4,146h1.1v3.2c0.2-0.3,0.5-0.5,0.7-0.7c0.3-0.2,0.8-0.3,1.3-0.3c0.9,0,1.5,0.3,1.9,1
			c0.2,0.3,0.3,0.8,0.3,1.4v4h-1.1v-4c0-0.5-0.1-0.8-0.2-1c-0.2-0.3-0.6-0.5-1.1-0.5c-0.4,0-0.8,0.2-1.2,0.5s-0.5,0.9-0.5,1.7v3.3
			h-1.1V146z"/>
		<path class="st1" d="M168.9,148.5c0.4,0.2,0.7,0.5,0.9,0.8c0.2,0.3,0.3,0.7,0.4,1.1c0.1,0.3,0.1,0.8,0.1,1.4h-4.6
			c0,0.6,0.2,1.2,0.4,1.5c0.3,0.4,0.7,0.6,1.3,0.6c0.5,0,1-0.2,1.3-0.5c0.2-0.2,0.3-0.5,0.4-0.7h1c0,0.2-0.1,0.5-0.3,0.8
			s-0.3,0.5-0.5,0.7c-0.3,0.3-0.7,0.5-1.2,0.6c-0.3,0.1-0.5,0.1-0.9,0.1c-0.8,0-1.4-0.3-2-0.9c-0.5-0.6-0.8-1.4-0.8-2.4
			c0-1,0.3-1.8,0.8-2.5c0.5-0.6,1.3-0.9,2.1-0.9C168.1,148.2,168.5,148.3,168.9,148.5z M169.3,151c0-0.5-0.1-0.8-0.3-1.1
			c-0.3-0.5-0.8-0.8-1.4-0.8c-0.5,0-0.9,0.2-1.2,0.5s-0.5,0.8-0.5,1.3H169.3z"/>
		<path class="st1" d="M171.8,148.3h1v1.1c0.1-0.2,0.3-0.5,0.6-0.8s0.7-0.5,1.1-0.5c0,0,0.1,0,0.1,0s0.1,0,0.2,0v1.1
			c-0.1,0-0.1,0-0.2,0s-0.1,0-0.2,0c-0.5,0-0.9,0.2-1.2,0.5s-0.4,0.7-0.4,1.2v3.6h-1.1V148.3z"/>
	</g>
	<g>
		<path class="st1" d="M135,116h1.4l4.3,7v-7h1.1v8.6h-1.3l-4.4-6.9v6.9H135V116z"/>
		<path class="st1" d="M144.5,118.3v4.2c0,0.3,0,0.6,0.1,0.8c0.2,0.4,0.5,0.6,1,0.6c0.7,0,1.2-0.3,1.5-1c0.1-0.4,0.2-0.8,0.2-1.4
			v-3.1h1.1v6.3h-1l0-0.9c-0.1,0.2-0.3,0.4-0.5,0.6c-0.4,0.3-0.9,0.5-1.4,0.5c-0.9,0-1.5-0.3-1.8-0.9c-0.2-0.3-0.3-0.7-0.3-1.3v-4.3
			H144.5z"/>
		<path class="st1" d="M150.4,116.6h1.1v1.8h1v0.9h-1v4.1c0,0.2,0.1,0.4,0.2,0.4c0.1,0,0.2,0.1,0.4,0.1c0.1,0,0.1,0,0.2,0
			s0.1,0,0.2,0v0.8c-0.1,0-0.2,0.1-0.4,0.1s-0.3,0-0.4,0c-0.5,0-0.8-0.1-1-0.4s-0.3-0.6-0.3-1v-4.2h-0.8v-0.9h0.8V116.6z"/>
	</g>
	<g>
		<path class="st1" d="M135,76h1.4l4.3,7v-7h1.1v8.6h-1.3l-4.4-6.9v6.9H135V76z"/>
		<path class="st1" d="M147.4,78.3h1.2c-0.1,0.4-0.5,1.3-1,2.8c-0.4,1.1-0.7,2-1,2.6c-0.6,1.6-1,2.6-1.3,2.9
			c-0.2,0.4-0.7,0.5-1.3,0.5c-0.1,0-0.3,0-0.3,0c-0.1,0-0.2,0-0.3-0.1v-1c0.2,0.1,0.3,0.1,0.4,0.1c0.1,0,0.2,0,0.2,0
			c0.2,0,0.3,0,0.4-0.1c0.1-0.1,0.2-0.1,0.2-0.2c0,0,0.1-0.2,0.2-0.5c0.1-0.3,0.2-0.5,0.3-0.6l-2.3-6.5h1.2l1.7,5.1L147.4,78.3z"/>
		<path class="st1" d="M149.5,76h1.1v8.6h-1.1V76z"/>
		<path class="st1" d="M156.7,78.9c0.6,0.5,0.8,1.3,0.8,2.4c0,1-0.2,1.8-0.7,2.5c-0.5,0.7-1.2,1-2.3,1c-0.9,0-1.5-0.3-2-0.9
			c-0.5-0.6-0.8-1.4-0.8-2.4c0-1.1,0.3-1.9,0.8-2.5c0.5-0.6,1.2-0.9,2.1-0.9C155.5,78.1,156.1,78.4,156.7,78.9z M156,83.1
			c0.3-0.5,0.4-1.1,0.4-1.8c0-0.6-0.1-1.1-0.3-1.4c-0.3-0.6-0.8-0.9-1.5-0.9c-0.6,0-1.1,0.2-1.4,0.7c-0.3,0.5-0.4,1.1-0.4,1.8
			c0,0.7,0.1,1.2,0.4,1.7c0.3,0.4,0.7,0.7,1.4,0.7C155.3,83.9,155.8,83.6,156,83.1z"/>
		<path class="st1" d="M163,78.6c0.4,0.3,0.7,0.9,0.8,1.8h-1c-0.1-0.4-0.2-0.7-0.4-1s-0.6-0.4-1.1-0.4c-0.7,0-1.2,0.3-1.4,1
			c-0.2,0.4-0.3,1-0.3,1.6c0,0.6,0.1,1.2,0.4,1.6c0.3,0.4,0.7,0.6,1.3,0.6c0.4,0,0.8-0.1,1-0.4s0.4-0.6,0.5-1.1h1
			c-0.1,0.8-0.4,1.4-0.9,1.8s-1.1,0.6-1.8,0.6c-0.8,0-1.5-0.3-2-0.9s-0.7-1.3-0.7-2.2c0-1.1,0.3-2,0.8-2.6s1.2-0.9,2-0.9
			C161.9,78.1,162.5,78.3,163,78.6z"/>
		<path class="st1" d="M168.3,76h1.4l4.3,7v-7h1.1v8.6h-1.3l-4.4-6.9v6.9h-1.1V76z"/>
		<path class="st1" d="M177.9,78.3v4.2c0,0.3,0,0.6,0.1,0.8c0.2,0.4,0.5,0.6,1,0.6c0.7,0,1.2-0.3,1.5-1c0.1-0.4,0.2-0.8,0.2-1.4
			v-3.1h1.1v6.3h-1l0-0.9c-0.1,0.2-0.3,0.4-0.5,0.6c-0.4,0.3-0.9,0.5-1.4,0.5c-0.9,0-1.5-0.3-1.8-0.9c-0.2-0.3-0.3-0.7-0.3-1.3v-4.3
			H177.9z"/>
		<path class="st1" d="M183.7,76.6h1.1v1.8h1v0.9h-1v4.1c0,0.2,0.1,0.4,0.2,0.4c0.1,0,0.2,0.1,0.4,0.1c0.1,0,0.1,0,0.2,0
			s0.1,0,0.2,0v0.8c-0.1,0-0.2,0.1-0.4,0.1s-0.3,0-0.4,0c-0.5,0-0.8-0.1-1-0.4s-0.3-0.6-0.3-1v-4.2h-0.8v-0.9h0.8V76.6z"/>
	</g>
	<g>
		<path class="st1" d="M135.5,46l1.6,7l1.9-7h1.3l2,7l1.6-7h1.3l-2.3,8.6h-1.2l-2-7.1l-2,7.1h-1.2l-2.2-8.6H135.5z"/>
		<path class="st1" d="M149.1,50.8c0.2,0,0.4-0.1,0.5-0.3c0-0.1,0.1-0.2,0.1-0.4c0-0.4-0.1-0.6-0.4-0.8c-0.3-0.2-0.6-0.2-1.1-0.2
			c-0.5,0-0.9,0.1-1.2,0.4c-0.1,0.2-0.2,0.4-0.3,0.7h-1c0-0.8,0.3-1.3,0.8-1.6s1-0.5,1.7-0.5c0.7,0,1.3,0.1,1.8,0.4
			c0.5,0.3,0.7,0.7,0.7,1.3v3.6c0,0.1,0,0.2,0.1,0.3s0.1,0.1,0.3,0.1c0,0,0.1,0,0.2,0s0.1,0,0.2,0v0.8c-0.2,0-0.3,0.1-0.4,0.1
			s-0.2,0-0.4,0c-0.4,0-0.6-0.1-0.8-0.4c-0.1-0.1-0.1-0.3-0.2-0.6c-0.2,0.3-0.5,0.5-0.9,0.7s-0.8,0.3-1.3,0.3
			c-0.6,0-1.1-0.2-1.4-0.5c-0.4-0.4-0.6-0.8-0.6-1.3c0-0.6,0.2-1,0.5-1.4c0.4-0.3,0.8-0.5,1.4-0.6L149.1,50.8z M146.8,53.6
			c0.2,0.2,0.5,0.3,0.8,0.3c0.4,0,0.7-0.1,1.1-0.3c0.6-0.3,0.9-0.8,0.9-1.4v-0.8c-0.1,0.1-0.3,0.2-0.5,0.2s-0.4,0.1-0.6,0.1
			l-0.6,0.1c-0.4,0.1-0.7,0.1-0.9,0.2c-0.3,0.2-0.5,0.5-0.5,0.9C146.5,53.2,146.6,53.5,146.8,53.6z"/>
		<path class="st1" d="M153,52.6c0,0.4,0.1,0.6,0.3,0.8c0.3,0.3,0.7,0.5,1.4,0.5c0.4,0,0.7-0.1,1.1-0.3s0.5-0.4,0.5-0.8
			c0-0.3-0.1-0.5-0.4-0.6c-0.2-0.1-0.5-0.2-0.9-0.3l-0.9-0.2c-0.5-0.1-0.9-0.3-1.2-0.4c-0.5-0.3-0.7-0.7-0.7-1.2
			c0-0.6,0.2-1.1,0.7-1.4c0.4-0.4,1-0.6,1.7-0.6c1,0,1.6,0.3,2.1,0.8c0.3,0.4,0.4,0.7,0.4,1.1h-1c0-0.2-0.1-0.5-0.3-0.6
			c-0.2-0.3-0.7-0.4-1.3-0.4c-0.4,0-0.7,0.1-0.9,0.2c-0.2,0.2-0.3,0.4-0.3,0.6c0,0.3,0.1,0.5,0.4,0.7c0.2,0.1,0.4,0.2,0.7,0.3
			l0.7,0.2c0.8,0.2,1.3,0.4,1.6,0.5c0.4,0.3,0.6,0.7,0.6,1.3c0,0.6-0.2,1-0.6,1.4c-0.4,0.4-1.1,0.6-2,0.6c-0.9,0-1.6-0.2-2-0.6
			s-0.6-0.9-0.6-1.6H153z"/>
		<path class="st1" d="M158.4,46h1.1v3.2c0.2-0.3,0.5-0.5,0.7-0.7c0.3-0.2,0.8-0.3,1.3-0.3c0.9,0,1.5,0.3,1.9,1
			c0.2,0.3,0.3,0.8,0.3,1.4v4h-1.1v-4c0-0.5-0.1-0.8-0.2-1c-0.2-0.3-0.6-0.5-1.1-0.5c-0.4,0-0.8,0.2-1.2,0.5s-0.5,0.9-0.5,1.7v3.3
			h-1.1V46z"/>
		<path class="st1" d="M168.9,48.5c0.4,0.2,0.7,0.5,0.9,0.8c0.2,0.3,0.3,0.7,0.4,1.1c0.1,0.3,0.1,0.8,0.1,1.4h-4.6
			c0,0.6,0.2,1.2,0.4,1.5c0.3,0.4,0.7,0.6,1.3,0.6c0.5,0,1-0.2,1.3-0.5c0.2-0.2,0.3-0.5,0.4-0.7h1c0,0.2-0.1,0.5-0.3,0.8
			s-0.3,0.5-0.5,0.7c-0.3,0.3-0.7,0.5-1.2,0.6c-0.3,0.1-0.5,0.1-0.9,0.1c-0.8,0-1.4-0.3-2-0.9c-0.5-0.6-0.8-1.4-0.8-2.4
			c0-1,0.3-1.8,0.8-2.5c0.5-0.6,1.3-0.9,2.1-0.9C168.1,48.2,168.5,48.3,168.9,48.5z M169.3,51c0-0.5-0.1-0.8-0.3-1.1
			c-0.3-0.5-0.8-0.8-1.4-0.8c-0.5,0-0.9,0.2-1.2,0.5s-0.5,0.8-0.5,1.3H169.3z"/>
		<path class="st1" d="M171.8,48.3h1v1.1c0.1-0.2,0.3-0.5,0.6-0.8s0.7-0.5,1.1-0.5c0,0,0.1,0,0.1,0s0.1,0,0.2,0v1.1
			c-0.1,0-0.1,0-0.2,0s-0.1,0-0.2,0c-0.5,0-0.9,0.2-1.2,0.5s-0.4,0.7-0.4,1.2v3.6h-1.1V48.3z"/>
	</g>
	<line class="st2" x1="359.4" y1="210" x2="359.4" y2="256.4"/>
	<g>
		<path d="M317.6,232.2v-0.9h2.6v-1.9h1v1.9h2.6v0.9h-2.6v1.9h-1v-1.9H317.6z M323.7,234.5v0.9h-6.1v-0.9H323.7z"/>
		<path d="M324.6,228.1v-1.4c0.7,0,1.1-0.1,1.4-0.1c0.4-0.1,0.8-0.3,1-0.6c0.2-0.2,0.3-0.4,0.4-0.8c0.1-0.2,0.1-0.3,0.1-0.4h1.7
			v10.6h-2.1v-7.3H324.6z"/>
		<path d="M338.9,226.2c0.5,1,0.8,2.3,0.8,4.1s-0.3,3.1-0.8,4.1c-0.5,0.9-1.5,1.4-2.8,1.4s-2.3-0.5-2.8-1.4
			c-0.5-0.9-0.8-2.3-0.8-4.1s0.3-3.1,0.8-4.1c0.5-1,1.5-1.4,2.8-1.4S338.4,225.2,338.9,226.2z M334.8,233c0.2,0.6,0.6,1,1.2,1
			s1-0.3,1.2-1c0.2-0.6,0.3-1.6,0.3-2.8c0-1.3-0.1-2.2-0.3-2.8c-0.2-0.6-0.6-0.9-1.2-0.9s-1,0.3-1.2,0.9s-0.3,1.6-0.3,2.8
			C334.5,231.4,334.6,232.4,334.8,233z"/>
		<path d="M340.7,231.8h0.6v0.5c0.1-0.2,0.3-0.3,0.4-0.4c0.2-0.1,0.4-0.2,0.7-0.2c0.3,0,0.5,0.1,0.7,0.2c0.1,0.1,0.2,0.2,0.3,0.4
			c0.1-0.2,0.3-0.3,0.5-0.4c0.2-0.1,0.4-0.1,0.6-0.1c0.5,0,0.8,0.2,1,0.5c0.1,0.2,0.1,0.4,0.1,0.8v2.4H345v-2.5
			c0-0.2-0.1-0.4-0.2-0.5s-0.3-0.1-0.4-0.1c-0.2,0-0.4,0.1-0.6,0.2c-0.2,0.2-0.3,0.4-0.3,0.8v2.1h-0.6V233c0-0.2,0-0.4-0.1-0.5
			c-0.1-0.2-0.3-0.3-0.5-0.3c-0.2,0-0.4,0.1-0.6,0.3s-0.3,0.5-0.3,1v1.9h-0.6V231.8z"/>
		<path d="M346.6,231.8h0.6v0.5c0.1-0.2,0.3-0.3,0.4-0.4c0.2-0.1,0.4-0.2,0.7-0.2c0.3,0,0.5,0.1,0.7,0.2c0.1,0.1,0.2,0.2,0.3,0.4
			c0.1-0.2,0.3-0.3,0.5-0.4c0.2-0.1,0.4-0.1,0.6-0.1c0.5,0,0.8,0.2,1,0.5c0.1,0.2,0.1,0.4,0.1,0.8v2.4h-0.6v-2.5
			c0-0.2-0.1-0.4-0.2-0.5s-0.3-0.1-0.4-0.1c-0.2,0-0.4,0.1-0.6,0.2c-0.2,0.2-0.3,0.4-0.3,0.8v2.1h-0.6V233c0-0.2,0-0.4-0.1-0.5
			c-0.1-0.2-0.3-0.3-0.5-0.3c-0.2,0-0.4,0.1-0.6,0.3s-0.3,0.5-0.3,1v1.9h-0.6V231.8z"/>
		<path d="M352.5,234.7h0.7v0.7h-0.7V234.7z"/>
	</g>
	<line class="st2" x1="359.4" y1="136.4" x2="359.4" y2="166.4"/>
	<g>
		<path d="M317.6,152.2v-0.9h2.6v-1.9h1v1.9h2.6v0.9h-2.6v1.9h-1v-1.9H317.6z M323.7,154.5v0.9h-6.1v-0.9H323.7z"/>
		<path d="M329.1,147.5c0-0.2-0.1-0.4-0.2-0.6c-0.2-0.3-0.6-0.5-1-0.5c-0.7,0-1.2,0.4-1.5,1.1c-0.2,0.4-0.3,1-0.3,1.9
			c0.3-0.3,0.6-0.5,0.9-0.7s0.7-0.2,1.2-0.2c0.9,0,1.7,0.3,2.3,1c0.6,0.6,0.9,1.5,0.9,2.5c0,1-0.3,1.9-0.9,2.6
			c-0.6,0.8-1.5,1.1-2.8,1.1c-1.3,0-2.3-0.6-3-1.7c-0.5-0.9-0.7-2-0.7-3.4c0-0.8,0-1.5,0.1-2c0.1-0.9,0.4-1.7,0.7-2.3
			c0.3-0.5,0.7-0.9,1.2-1.2c0.5-0.3,1.1-0.5,1.8-0.5c1,0,1.8,0.3,2.4,0.8c0.6,0.5,0.9,1.2,1,2H329.1z M326.6,153.5
			c0.3,0.4,0.7,0.5,1.2,0.5c0.5,0,0.8-0.2,1.1-0.5c0.3-0.3,0.4-0.8,0.4-1.4c0-0.6-0.2-1.1-0.5-1.4c-0.3-0.3-0.7-0.5-1.1-0.5
			c-0.4,0-0.7,0.1-0.9,0.3c-0.4,0.3-0.6,0.8-0.6,1.5C326.2,152.6,326.3,153.1,326.6,153.5z"/>
		<path d="M332.4,151.8h0.6v0.5c0.1-0.2,0.3-0.3,0.4-0.4c0.2-0.1,0.4-0.2,0.7-0.2c0.3,0,0.5,0.1,0.7,0.2c0.1,0.1,0.2,0.2,0.3,0.4
			c0.1-0.2,0.3-0.3,0.5-0.4c0.2-0.1,0.4-0.1,0.6-0.1c0.5,0,0.8,0.2,1,0.5c0.1,0.2,0.1,0.4,0.1,0.8v2.4h-0.6v-2.5
			c0-0.2-0.1-0.4-0.2-0.5s-0.3-0.1-0.4-0.1c-0.2,0-0.4,0.1-0.6,0.2c-0.2,0.2-0.3,0.4-0.3,0.8v2.1h-0.6V153c0-0.2,0-0.4-0.1-0.5
			c-0.1-0.2-0.3-0.3-0.5-0.3c-0.2,0-0.4,0.1-0.6,0.3s-0.3,0.5-0.3,1v1.9h-0.6V151.8z"/>
		<path d="M338.2,151.8h0.6v0.5c0.1-0.2,0.3-0.3,0.4-0.4c0.2-0.1,0.4-0.2,0.7-0.2c0.3,0,0.5,0.1,0.7,0.2c0.1,0.1,0.2,0.2,0.3,0.4
			c0.1-0.2,0.3-0.3,0.5-0.4c0.2-0.1,0.4-0.1,0.6-0.1c0.5,0,0.8,0.2,1,0.5c0.1,0.2,0.1,0.4,0.1,0.8v2.4h-0.6v-2.5
			c0-0.2-0.1-0.4-0.2-0.5s-0.3-0.1-0.4-0.1c-0.2,0-0.4,0.1-0.6,0.2c-0.2,0.2-0.3,0.4-0.3,0.8v2.1h-0.6V153c0-0.2,0-0.4-0.1-0.5
			c-0.1-0.2-0.3-0.3-0.5-0.3c-0.2,0-0.4,0.1-0.6,0.3s-0.3,0.5-0.3,1v1.9h-0.6V151.8z"/>
		<path d="M344.2,154.7h0.7v0.7h-0.7V154.7z"/>
	</g>
	<rect x="202.7" y="210" class="st3" width="64.1" height="73.5"/>
	<polygon class="st3" points="254.8,195.2 306.2,246.6 255.1,297.6 	"/>
	<g>
		<path class="st1" d="M222.4,258.4H219l7.4-10.8l-7-10.2h3.5l5.3,8l5.2-8h3.4l-6.9,10.2l7.3,10.8h-3.5l-5.6-8.6L222.4,258.4z"/>
		<path class="st1" d="M257,252.8h-2.9v5.6h-5v-5.6h-10.2v-4.4l9.5-15.7h5.7v16.2h2.9V252.8z M249.1,248.8v-11.1l-6.5,11.1H249.1z"
			/>
	</g>
	<g>
	</g>
	<g>
	</g>
	<g>
	</g>
	<g>
	</g>
	<g>
	</g>
	<g>
	</g>
</g>
</svg>
