<?xml version="1.0" encoding="utf-8"?>
<!-- Generator: Adobe Illustrator 19.2.1, SVG Export Plug-In . SVG Version: 6.00 Build 0)  -->
<svg version="1.1" id="Layer_1" xmlns="http://www.w3.org/2000/svg" xmlns:xlink="http://www.w3.org/1999/xlink" x="0px" y="0px"
	 viewBox="0 0 477.5 477.5" style="enable-background:new 0 0 477.5 477.5;" xml:space="preserve">
<style type="text/css">
	.st0{fill:#FFFFFF;stroke:#000000;stroke-width:20;stroke-miterlimit:10;}
	.st1{fill:#FFFFFF;stroke:#000000;stroke-width:8;stroke-miterlimit:10;}
	.st2{fill:url(#SVGID_1_);}
	.st3{fill:url(#SVGID_2_);}
</style>
<g id="_x35_.5x_2.1mm_Female_To_Male_Plug">
	
		<image style="display:none;overflow:visible;enable-background:new    ;" width="1200" height="1200" xlink:href="../../../../../Library/Containers/at.EternalStorms.Yoink/Data/Documents/YoinkPromisedFiles/yoinkFilePromiseCreationFolder464573E1-BF78-426D-89BE-A443B91FBFFF/add464573E1-BF78-426D-89BE-A443B91FBFFF/s-l1600.jpg"  transform="matrix(-0.521 0 0 0.5684 609.6823 -169.0095)">
	</image>
	<path class="st0" d="M0,54.6c0,0,40.4-7.2,79.5,12.6c61.2,31,91.4,42,91.4,42"/>
	<path class="st0" d="M0,211.3c0,0,16.3,7.6,21.4,10.7c38.9,23.7,69,50.7,69,50.7"/>
	<path class="st1" d="M166.2,133.7c-6.2-3.5-6.9-13.6-1.1-23.7c5.7-10.1,15.9-15.5,22-12l68.2,39.9l11.1,0.5l18.3,10.7l8.7-2.4
		l20.2,11.8l4,9.8l50.8,29.7c8.3,4.7,8.8,19.6,1,33.3s-21.5,20.6-29.8,15.9L289.7,218l-11.5,0.8l-19.8-11.6l-2.7-9.1l-18.3-10.7
		l-3.3-13.9L166.2,133.7z"/>
	<path class="st1" d="M368.5,198.1c-8.3-4.7-22.3,3.4-30,17c-7.8,13.7-7,27.4,1.3,32.1"/>
	<path class="st1" d="M84.6,291.7c-6.2-3.5-6.9-13.6-1.1-23.7c5.7-10.1,15.9-15.5,22-12l68.2,39.9l11.1,0.5l18.3,10.7l8.7-2.4
		l20.2,11.8l4,9.8l50.8,29.7c8.3,4.7,8.8,19.6,1,33.3c-7.8,13.7-21.5,20.6-29.8,15.9L208.3,376l-11.5,0.8L177,365.2l-2.7-9.1
		L156,345.4l-3.3-13.9L84.6,291.7z"/>
	<path class="st1" d="M286.9,356c-8.3-4.7-22.3,3.4-30,17c-7.8,13.7-7,27.4,1.3,32.1"/>
	<path class="st1" d="M359.5,446.5L266.8,395c-3.4-2-3.1-8.9,0.7-15.5s9.7-10.3,13.1-8.4l92.7,51.5"/>
	<ellipse transform="matrix(0.5 -0.866 0.866 0.5 -193.1844 534.629)" class="st1" cx="366.4" cy="434.6" rx="13.8" ry="7.2"/>
	<ellipse transform="matrix(0.5 -0.866 0.866 0.5 -16.3794 419.8239)" class="st1" cx="355.4" cy="224.1" rx="13.8" ry="7.2"/>
</g>
<g id="Layer_24">
	
		<linearGradient id="SVGID_1_" gradientUnits="userSpaceOnUse" x1="-1459.9762" y1="728.8489" x2="-1459.9762" y2="819.2489" gradientTransform="matrix(4.489700e-11 -1 -1 -4.489700e-11 819.2489 -1285.4261)">
		<stop  offset="0" style="stop-color:#FFFFFF;stop-opacity:0"/>
		<stop  offset="8.192581e-02" style="stop-color:#FFFFFF;stop-opacity:8.192581e-02"/>
		<stop  offset="1" style="stop-color:#FFFFFF"/>
	</linearGradient>
	<polygon class="st2" points="90.4,1.3 90.4,347.8 0,347.8 0,1.3 	"/>
	
		<linearGradient id="SVGID_2_" gradientUnits="userSpaceOnUse" x1="221.65" y1="397.88" x2="221.65" y2="479.18" gradientTransform="matrix(1 0 0 -1 0 479.1801)">
		<stop  offset="0" style="stop-color:#FFFFFF;stop-opacity:0"/>
		<stop  offset="8.192581e-02" style="stop-color:#FFFFFF;stop-opacity:8.192581e-02"/>
		<stop  offset="1" style="stop-color:#FFFFFF"/>
	</linearGradient>
	<rect y="0" class="st3" width="443.3" height="81.3"/>
</g>
</svg>
