<?xml version="1.0" encoding="utf-8"?>
<!-- Generator: Adobe Illustrator 19.2.0, SVG Export Plug-In . SVG Version: 6.00 Build 0)  -->
<svg version="1.1" xmlns="http://www.w3.org/2000/svg" xmlns:xlink="http://www.w3.org/1999/xlink" x="0px" y="0px"
	 viewBox="0 0 477.5 428.5" style="enable-background:new 0 0 477.5 428.5;" xml:space="preserve">
<style type="text/css">
	.st0{display:none;}
	.st1{display:inline;fill:#FFFFFF;}
	.st2{display:inline;}
	.st3{display:inline;fill:#FFFFFF;stroke:#000000;stroke-width:8;stroke-miterlimit:10;}
	.st4{fill:#FFFFFF;}
	.st5{display:inline;fill:#FFFFFF;stroke:#000000;stroke-miterlimit:10;}
	.st6{fill:#CCCCCC;}
	.st7{fill:#FFFFFF;stroke:#999999;stroke-miterlimit:10;}
	.st8{fill:none;stroke:#000000;stroke-miterlimit:10;}
	.st9{fill:#D0D2D3;}
	.st10{fill:#FFFFFF;stroke:#A6A8AB;stroke-miterlimit:10;}
	.st11{fill:none;stroke:#231F20;stroke-miterlimit:10;}
	.st12{display:inline;fill:none;stroke:#CCCCCC;stroke-width:5;stroke-miterlimit:10;}
	.st13{display:inline;fill:none;stroke:#000000;stroke-width:8;stroke-miterlimit:10;}
	.st14{display:none;fill:url(#SVGID_1_);}
	.st15{display:none;fill:url(#SVGID_2_);}
</style>
<g id="Hyperlapse" class="st0">
	<g>
		<path class="st1" d="M175.4,379.8l-8.6-8.9c-1.3-1.4-3.1-2.1-5-2.1h-59.4l-8.1-8V268l8.3-8.2h7.9c1.9,0,3.6-0.7,4.9-2l7-7h20.8
			c3.9,0,7-3.1,7-7v-6.3c0-1.9-0.7-3.6-2-4.9l-14.7-14.7c-1.3-1.3-3.1-2.1-5-2.1h-5.3V64.7c3.4-0.5,6-3.4,6-6.9v-5.3
			c0-1.9-0.7-3.6-2.1-5l-3.9-3.9V31.8h163v8.8l-3.9,3.7c-1.4,1.3-2.1,3.1-2.1,5v4.4c0,3.5,2.6,6.4,6,6.9v155.1H282
			c-1.8,0-3.6,0.7-4.9,2l-11.7,11.4c-1.4,1.3-2.1,3.1-2.1,5v5.6c0,3.9,3.1,7,7,7h22.3c1.8,0,3.6-0.7,4.9-2l25.4-25h36.3l22,22
			l2.2,41.6v65.2l-15.6,15.2H330c-1.9,0-3.7,0.8-5,2.1l-10.5,10.9h-27.1l-7.2-7c-1.3-1.3-3.1-2-4.9-2H252c-1.9,0-3.6,0.7-5,2.1
			l-9.9,9.9H175.4z"/>
		<path class="st2" d="M282.2,35.8v3.1l-2.6,2.5c-2.1,2.1-3.4,4.9-3.4,7.9v4.4c0,4.3,2.4,8,6,9.8v148.2H282c-2.9,0-5.6,1.1-7.7,3.1
			l-11.7,11.4c-2.1,2.1-3.3,4.9-3.3,7.9v5.6c0,6.1,4.9,11,11,11h22.3c2.9,0,5.6-1.1,7.7-3.2l24.2-23.8h33l19.7,19.7l2.1,40v63.4
			L366,359.8h-36c-3,0-5.8,1.2-7.9,3.3l-9.4,9.7H289l-6-5.9c-2.1-2-4.8-3.1-7.7-3.1H252c-2.9,0-5.7,1.2-7.8,3.2l-8.7,8.8h-58.3
			l-7.4-7.7c-2.1-2.1-4.9-3.3-7.9-3.3H104l-5.8-5.6v-89.5l6-5.9h6.3c2.9,0,5.7-1.1,7.8-3.2l5.8-5.8h19.1c6.1,0,11-4.9,11-11v-6.3
			c0-2.9-1.1-5.7-3.2-7.8L136.3,215c-2-2.1-4.9-3.2-7.8-3.2h-1.3V67.6c3.6-1.8,6-5.5,6-9.8v-5.3c0-2.9-1.1-5.7-3.2-7.8l-2.8-2.8
			v-6.2H282.2 M287.2,27.8h-165c-1.7,0-3,1.3-3,3v13.3c0,0.8,0.3,1.6,0.9,2.1l4.2,4.2c0.6,0.6,0.9,1.3,0.9,2.1v5.3c0,1.7-1.3,3-3,3
			s-3,1.3-3,3v153c0,1.7,1.3,3,3,3h6.3c0.8,0,1.6,0.3,2.1,0.9l14.7,14.7c0.6,0.6,0.9,1.3,0.9,2.1v6.3c0,1.7-1.3,3-3,3H122
			c-0.8,0-1.6,0.3-2.1,0.9l-7.3,7.3c-0.6,0.6-1.3,0.9-2.1,0.9h-8.3c-0.8,0-1.5,0.3-2.1,0.9l-8.9,8.8c-0.6,0.6-0.9,1.3-0.9,2.1v93.7
			c0,0.8,0.3,1.6,0.9,2.1l8.7,8.5c0.6,0.5,1.3,0.9,2.1,0.9h59.8c0.8,0,1.6,0.3,2.2,0.9l8.9,9.2c0.6,0.6,1.3,0.9,2.2,0.9h62.5
			c0.8,0,1.6-0.3,2.1-0.9l10.2-10.2c0.6-0.6,1.3-0.9,2.1-0.9h23.3c0.8,0,1.5,0.3,2.1,0.9l7.5,7.3c0.6,0.5,1.3,0.9,2.1,0.9h27.9
			c0.8,0,1.6-0.3,2.2-0.9l10.8-11.2c0.6-0.6,1.3-0.9,2.2-0.9h38.1c0.8,0,1.5-0.3,2.1-0.9l16.2-15.8c0.6-0.6,0.9-1.3,0.9-2.1v-65.7
			l-2.2-42.1c0-0.7-0.4-1.4-0.9-2l-22.6-22.6c-0.6-0.6-1.3-0.9-2.1-0.9h-37.1c-0.8,0-1.5,0.3-2.1,0.9l-25.7,25.3
			c-0.6,0.6-1.3,0.9-2.1,0.9h-22.3c-1.7,0-3-1.3-3-3v-5.6c0-0.8,0.3-1.6,0.9-2.2l11.7-11.4c0.6-0.5,1.3-0.8,2.1-0.8h5.3
			c1.7,0,3-1.3,3-3v-157c0-1.7-1.3-3-3-3s-3-1.3-3-3v-4.4c0-0.8,0.3-1.6,0.9-2.2l4.2-4c0.6-0.6,0.9-1.3,0.9-2.2V30.8
			C290.2,29.1,288.9,27.8,287.2,27.8L287.2,27.8z"/>
	</g>
	<g>
		<path class="st3" d="M385.2,126.2v176.9c0,3.3-1.4,6.4-3.8,8.7l-0.2,0.2c-2.2,2.1-5.1,3.3-8.2,3.3H104.4c-3.3,0-6.4-1.4-8.7-3.8
			l-0.2-0.2c-2.1-2.2-3.3-5.1-3.3-8.2V126.4c0-3.3,1.4-6.4,3.7-8.7l0.2-0.2c2.2-2.1,5.2-3.3,8.2-3.3h268.9c3.2,0,6.2,1.3,8.4,3.5
			l0,0C384,120,385.2,123,385.2,126.2z"/>
		<g class="st2">
			<g>
				<path d="M254.2,211.9c-0.6,1.8-1.4,3.6-2.7,5.5c-1.9,2.8-3.8,4.2-5.6,4.2c-0.7,0-1.8-0.2-3.2-0.7c-1.4-0.5-2.5-0.7-3.2-0.7
					s-1.8,0.2-3.1,0.7c-1.3,0.5-2.3,0.7-3,0.7c-2.6,0-5-2.2-7.1-6.6c-1.8-3.8-2.7-7.1-2.7-10.1c0-3,0.7-5.5,2.1-7.6
					c1.6-2.5,3.8-3.7,6.6-3.7c0.9,0,2.1,0.2,3.7,0.7c1.6,0.4,2.6,0.7,3.2,0.7c0.7,0,1.8-0.2,3.3-0.7c1.5-0.5,2.7-0.7,3.6-0.7
					c2.7,0,5,1.2,7,3.6c-1.1,1-2,1.9-2.5,2.6c-1,1.3-1.4,2.8-1.4,4.5c0,1.6,0.5,3.2,1.4,4.6C251.5,210.5,252.7,211.5,254.2,211.9z
					 M246,186.2c0,1.5-0.5,3-1.5,4.5c-1,1.6-2.2,2.6-3.6,3.1c-0.4,0.1-1.2,0.3-2.2,0.4c0.1-4.8,2.5-7.8,7.2-8.9
					C245.9,185.6,246,185.9,246,186.2z"/>
			</g>
		</g>
	</g>
	<g>
		<path class="st1" d="M244.5,390.3l-8.6-8.8v-5.8l-1.8,2.1H221l-10-10.2v-59.4l-4.4-4.3v-44.6l4.4-4.2V90.2c0-3.9,3.2-7.1,7.1-7.1
			h6.2V70.4l5.1-5.3V19.1h10.3V9.5h-13.1l-3.6,3.7h-8.4v7.4H199c-3.9,0-7.1-3.2-7.1-7.1V-0.3c0-3.9,3.2-7.1,7.1-7.1h14.9v6.6h2.3
			v-3.2c0-3.9,3.2-7.1,7.1-7.1H267c3.9,0,7.1,3.2,7.1,7.1V9.5h-16.9v9.6h10.3v16.2h9.8l3.4,3.4V60l-3.5,5.4h-7.6l2.2,2.4v13.7
			l9.2,0.1c3.8,0,7,3.2,7,7.1v168.4l5.1,5v43.2l-4.4,4.3v63.1l-8.3,9.5h-8.7l-8-7.8v9.3l-5.4,6.6H244.5z M261,366.2V263.7l4.4-4.5
			V119.1l-0.8,0l0,137l-5.1,5.1v103.4L261,366.2z M241,361.1L241,361.1l0.1-100L241,261V361.1z M235.3,254.2V118.3V254.2
			L235.3,254.2z"/>
		<path class="st2" d="M267-7c1.7,0,3.1,1.4,3.1,3.1v9.4h-16.9v17.6h10.3v22.8h2.9v-5.5l1.8-1.1h7.4l1.1,1.1v18.4l-1.6,2.6h-5.3
			l-3.3-3v-5.8h-2.9v12.1l4.4,4.7V79c-2.8,0-4.1,4.5-2.1,6.4l15.2,0.2c1.7,0,3.1,1.4,3.1,3.1v170l5.1,5v39.8l-4.4,4.3v63.3l-6.2,7
			h-5.2l-8.5-8.3V265.4l4.4-4.5V119.1c0-2.2-1.8-4-4-4h-0.7c-2.2,0-4,1.8-4,4v135.3l-5.1,5.1v106.6l4.4,4.7v11.4l-3.3,4h-10.3
			l-6.2-6.5v-12.3l5.1-4.8V259.5l-5.9-6.1v-135c0-2.2-1.8-4-4-4h0c-2.2,0-4,1.8-4,4v137.5l5.9,5.8v106.7l-4.7,5.5h-9.6L215,366
			v-59.5l-4.4-4.3v-41.2l4.4-4.2V90.2c0-1.7,1.4-3.1,3.1-3.1h12.7l0.6-0.6c2-1.9,0.7-5.3-2.1-5.3h-1.1V72l5.1-5.3V23.1h10.3V5.5
			h-18.7l-3.6,3.7h-10.8v7.4H199c-1.7,0-3.1-1.4-3.1-3.1V-0.3c0-1.7,1.4-3.1,3.1-3.1h10.9v6.6h10.3v-7.2c0-1.7,1.4-3.1,3.1-3.1H267
			 M267-15h-43.8c-3.3,0-6.2,1.4-8.2,3.7h-5.1H199c-6.1,0-11.1,5-11.1,11.1v13.7c0,6.1,5,11.1,11.1,11.1h11.6h8v-7.4h2.8h3.4
			l0.7-0.7v6.6v40.3l-2.9,3l-2.2,2.3V72v7.1h-2.2c-6.1,0-11.1,5-11.1,11.1v163.2l-1.9,1.8l-2.5,2.4v3.4v41.2v3.3l2.4,2.3l2,2V366
			v3.3l2.3,2.3l7.7,7.8l2.3,2.4h3.3h9.3v1.3l2.3,2.3l6.2,6.5l2.4,2.4h3.4h10.3h3.8l2.4-2.9l3.3-4l1.8-2.2v-1.2l2.3,2.3h3.3h5.2h3.6
			l2.4-2.7l6.2-7l2-2.3v-3v-59.9l2-2l2.4-2.4v-3.3v-39.8v-3.4l-2.4-2.4l-2.7-2.7V88.7c0-6.1-4.9-11-11-11.1l-5.2-0.1v-8.2h3.6
			l2.4-3.7l1.6-2.6l1.3-2v-2.3V40.4v-3.3l-2.3-2.3l-1.1-1.1l-2.3-2.3h-3.3h-4.1v-8.2v-8h-8h-2.3v-1.6h8.9h8v-8v-9.4
			C278.1-10,273.2-15,267-15L267-15z M228.3,13.5h7.4v1.6h-2.3h-6.7l0.4-0.4L228.3,13.5L228.3,13.5z"/>
	</g>
</g>
<g id="Mini_Slider">
	<g id="Graphic_1" class="st0">
		<g class="st2">
			<polygon class="st4" points="130.7,355.1 149.7,25.8 299,23.4 347,355.1 			"/>
			<path d="M296.8,25.9l47.3,326.7H133.4L152,28.2L296.8,25.9 M301.2,20.8l-153.9,2.5l-19.2,334.3h221.8L301.2,20.8L301.2,20.8z"/>
		</g>
		<g class="st2">
			<polygon class="st4" points="132.4,367.5 131.1,360.1 346.9,360.1 345.6,367.5 			"/>
			<path d="M343.9,362.6l-0.4,2.4h-209l-0.4-2.4H343.9 M349.9,357.6H128.1l2.2,12.4h217.3L349.9,357.6L349.9,357.6z"/>
		</g>
		<g class="st2">
			<path d="M173.2,292.6c-7.8,0-14.1-5.3-14.1-11.9s6.3-11.9,14.1-11.9s14.1,5.3,14.1,11.9S181,292.6,173.2,292.6z"/>
			<path d="M173.2,269.8c7.2,0,13.1,4.9,13.1,10.9s-5.9,10.9-13.1,10.9c-7.2,0-13.1-4.9-13.1-10.9S166,269.8,173.2,269.8
				 M173.2,267.8c-8.3,0-15.1,5.8-15.1,12.9s6.8,12.9,15.1,12.9c8.3,0,15.1-5.8,15.1-12.9S181.6,267.8,173.2,267.8L173.2,267.8z"/>
		</g>
		<g class="st2">
			<path d="M230.1,175.5c-9.7,0-17.6-6.2-17.6-13.7s7.9-13.7,17.6-13.7c9.7,0,17.6,6.2,17.6,13.7S239.8,175.5,230.1,175.5z"/>
			<path d="M230.1,149.1c9.2,0,16.6,5.7,16.6,12.7c0,7-7.4,12.7-16.6,12.7s-16.6-5.7-16.6-12.7C213.5,154.8,220.9,149.1,230.1,149.1
				 M230.1,147.1c-10.3,0-18.6,6.6-18.6,14.7c0,8.1,8.3,14.7,18.6,14.7s18.6-6.6,18.6-14.7C248.7,153.7,240.4,147.1,230.1,147.1
				L230.1,147.1z"/>
		</g>
		<g class="st2">
			<path d="M179.1,71.8c-5.4,0-9.7-3.2-9.7-7.1s4.4-7.1,9.7-7.1s9.7,3.2,9.7,7.1S184.4,71.8,179.1,71.8z"/>
			<path d="M179.1,58.6c4.8,0,8.7,2.7,8.7,6.1c0,3.4-3.9,6.1-8.7,6.1s-8.7-2.7-8.7-6.1C170.3,61.3,174.2,58.6,179.1,58.6
				 M179.1,56.6c-6,0-10.7,3.6-10.7,8.1s4.7,8.1,10.7,8.1s10.7-3.6,10.7-8.1S185.1,56.6,179.1,56.6L179.1,56.6z"/>
		</g>
		<g class="st2">
			<path d="M276.1,71.8c-5.4,0-9.7-3.2-9.7-7.1s4.4-7.1,9.7-7.1s9.7,3.2,9.7,7.1S281.4,71.8,276.1,71.8z"/>
			<path d="M276.1,58.6c4.8,0,8.7,2.7,8.7,6.1c0,3.4-3.9,6.1-8.7,6.1s-8.7-2.7-8.7-6.1C267.3,61.3,271.2,58.6,276.1,58.6
				 M276.1,56.6c-6,0-10.7,3.6-10.7,8.1s4.7,8.1,10.7,8.1s10.7-3.6,10.7-8.1S282.1,56.6,276.1,56.6L276.1,56.6z"/>
		</g>
		<path class="st5" d="M245.4,166.8c-2.5,4.6-8.4,7.7-15.3,7.7c-6.8,0-12.7-3.2-15.3-7.7l0,0c2.5-4.6,8.4-7.8,15.3-7.8
			C236.9,159.1,242.8,162.2,245.4,166.8"/>
		<path class="st5" d="M161.1,284.7c1.9,4,6.6,6.9,12.2,6.9c5.2,0,9.7-2.6,11.8-6.2c0.1-0.2,0.2-0.4,0.3-0.6
			c-0.2-0.4-0.4-0.8-0.7-1.2c-2.2-3.4-6.5-5.7-11.5-5.7c-5.1,0-9.4,2.4-11.6,5.9C161.4,284,161.2,284.3,161.1,284.7z"/>
		<g class="st2">
			<path d="M297.2,292.6c-7.8,0-14.1-5.3-14.1-11.9s6.3-11.9,14.1-11.9s14.1,5.3,14.1,11.9S305,292.6,297.2,292.6z"/>
			<path d="M297.2,269.8c7.2,0,13.1,4.9,13.1,10.9s-5.9,10.9-13.1,10.9c-7.2,0-13.1-4.9-13.1-10.9S290,269.8,297.2,269.8
				 M297.2,267.8c-8.3,0-15.1,5.8-15.1,12.9s6.8,12.9,15.1,12.9c8.3,0,15.1-5.8,15.1-12.9S305.6,267.8,297.2,267.8L297.2,267.8z"/>
		</g>
		<path class="st5" d="M285.1,284.7c1.9,4,6.6,6.9,12.2,6.9c5.2,0,9.7-2.6,11.8-6.2c0.1-0.2,0.2-0.4,0.3-0.6
			c-0.2-0.4-0.4-0.8-0.7-1.2c-2.2-3.4-6.5-5.7-11.5-5.7c-5.1,0-9.4,2.4-11.6,5.9C285.4,284,285.2,284.3,285.1,284.7z"/>
	</g>
	<g id="Drill_Sheet_1">
		<rect x="11.5" y="49.1" class="st6" width="149.2" height="361.4"/>
		<circle class="st7" cx="40.9" cy="112.2" r="8.4"/>
		<circle class="st7" cx="131.2" cy="112.2" r="8.4"/>
		<circle class="st7" cx="40.9" cy="347.7" r="8.4"/>
		<circle class="st7" cx="131.2" cy="347.7" r="8.4"/>
		<circle class="st7" cx="86.1" cy="229.8" r="12.6"/>
		<polyline class="st8" points="160.7,112.2 131.2,112.2 131.2,49.1 		"/>
		<polyline class="st8" points="11.5,112.2 40.9,112.2 40.9,49.1 		"/>
		<polyline class="st8" points="160.7,347.7 131.2,347.7 131.2,410.5 		"/>
		<polyline class="st8" points="160.7,229.8 86.1,229.8 86.1,410.5 		"/>
		<polyline class="st8" points="40.9,410.5 40.9,347.7 11.5,347.7 		"/>
		<g>
			<path d="M144.3,99l-0.7,3.6l0,0c0.3-0.3,0.6-0.5,1-0.7c0.4-0.1,0.8-0.2,1.3-0.2c0.5,0,1.1,0.1,1.6,0.3c0.5,0.2,0.9,0.4,1.3,0.8
				c0.4,0.4,0.6,0.8,0.9,1.3c0.2,0.5,0.3,1.2,0.3,1.9c0,0.5-0.1,1-0.3,1.5c-0.2,0.5-0.5,0.9-0.8,1.3c-0.4,0.4-0.8,0.7-1.4,0.9
				c-0.5,0.2-1.2,0.3-1.9,0.3c-0.5,0-1-0.1-1.5-0.2c-0.5-0.2-0.9-0.4-1.3-0.7c-0.4-0.3-0.6-0.7-0.9-1.1c-0.2-0.4-0.3-0.9-0.3-1.5
				h1.5c0,0.3,0.1,0.6,0.2,0.9s0.3,0.5,0.5,0.7c0.2,0.2,0.5,0.4,0.8,0.5s0.7,0.2,1,0.2c0.4,0,0.7-0.1,1-0.2s0.6-0.3,0.8-0.6
				s0.4-0.6,0.6-0.9s0.2-0.8,0.2-1.3c0-0.4-0.1-0.8-0.2-1.1c-0.1-0.3-0.3-0.6-0.6-0.9s-0.5-0.4-0.9-0.6c-0.3-0.1-0.7-0.2-1.1-0.2
				c-0.5,0-0.9,0.1-1.3,0.3c-0.4,0.2-0.7,0.5-1,0.8l-1.3-0.1l1.2-6.4h6.1V99H144.3z"/>
		</g>
		<g>
			<path d="M144.3,334.4l-0.7,3.6l0,0c0.3-0.3,0.6-0.5,1-0.7c0.4-0.1,0.8-0.2,1.3-0.2c0.5,0,1.1,0.1,1.6,0.3
				c0.5,0.2,0.9,0.4,1.3,0.8c0.4,0.4,0.6,0.8,0.9,1.3c0.2,0.5,0.3,1.2,0.3,1.9c0,0.5-0.1,1-0.3,1.5s-0.5,0.9-0.8,1.3
				c-0.4,0.4-0.8,0.7-1.4,0.9c-0.5,0.2-1.2,0.3-1.9,0.3c-0.5,0-1-0.1-1.5-0.2c-0.5-0.2-0.9-0.4-1.3-0.7s-0.6-0.7-0.9-1.1
				c-0.2-0.4-0.3-0.9-0.3-1.5h1.5c0,0.3,0.1,0.6,0.2,0.9c0.1,0.3,0.3,0.5,0.5,0.7s0.5,0.4,0.8,0.5s0.7,0.2,1,0.2
				c0.4,0,0.7-0.1,1-0.2c0.3-0.1,0.6-0.3,0.8-0.6s0.4-0.6,0.6-0.9c0.1-0.4,0.2-0.8,0.2-1.3c0-0.4-0.1-0.8-0.2-1.1
				c-0.1-0.3-0.3-0.6-0.6-0.9s-0.5-0.4-0.9-0.6c-0.3-0.1-0.7-0.2-1.1-0.2c-0.5,0-0.9,0.1-1.3,0.3c-0.4,0.2-0.7,0.5-1,0.8l-1.3-0.1
				l1.2-6.4h6.1v1.3H144.3z"/>
		</g>
		<g>
			<path d="M25.1,99l-0.7,3.6l0,0c0.3-0.3,0.6-0.5,1-0.7c0.4-0.1,0.8-0.2,1.3-0.2c0.5,0,1.1,0.1,1.6,0.3c0.5,0.2,0.9,0.4,1.3,0.8
				c0.4,0.4,0.6,0.8,0.9,1.3c0.2,0.5,0.3,1.2,0.3,1.9c0,0.5-0.1,1-0.3,1.5c-0.2,0.5-0.5,0.9-0.8,1.3c-0.4,0.4-0.8,0.7-1.4,0.9
				c-0.5,0.2-1.2,0.3-1.9,0.3c-0.5,0-1-0.1-1.5-0.2c-0.5-0.2-0.9-0.4-1.3-0.7c-0.4-0.3-0.6-0.7-0.9-1.1c-0.2-0.4-0.3-0.9-0.3-1.5H24
				c0,0.3,0.1,0.6,0.2,0.9s0.3,0.5,0.5,0.7c0.2,0.2,0.5,0.4,0.8,0.5s0.7,0.2,1,0.2c0.4,0,0.7-0.1,1-0.2s0.6-0.3,0.8-0.6
				s0.4-0.6,0.6-0.9s0.2-0.8,0.2-1.3c0-0.4-0.1-0.8-0.2-1.1c-0.1-0.3-0.3-0.6-0.6-0.9s-0.5-0.4-0.9-0.6c-0.3-0.1-0.7-0.2-1.1-0.2
				c-0.5,0-0.9,0.1-1.3,0.3c-0.4,0.2-0.7,0.5-1,0.8l-1.3-0.1l1.2-6.4h6.1V99H25.1z"/>
		</g>
		<g>
			<path d="M25.1,334.4l-0.7,3.6l0,0c0.3-0.3,0.6-0.5,1-0.7c0.4-0.1,0.8-0.2,1.3-0.2c0.5,0,1.1,0.1,1.6,0.3c0.5,0.2,0.9,0.4,1.3,0.8
				c0.4,0.4,0.6,0.8,0.9,1.3c0.2,0.5,0.3,1.2,0.3,1.9c0,0.5-0.1,1-0.3,1.5s-0.5,0.9-0.8,1.3c-0.4,0.4-0.8,0.7-1.4,0.9
				c-0.5,0.2-1.2,0.3-1.9,0.3c-0.5,0-1-0.1-1.5-0.2c-0.5-0.2-0.9-0.4-1.3-0.7s-0.6-0.7-0.9-1.1c-0.2-0.4-0.3-0.9-0.3-1.5H24
				c0,0.3,0.1,0.6,0.2,0.9c0.1,0.3,0.3,0.5,0.5,0.7s0.5,0.4,0.8,0.5s0.7,0.2,1,0.2c0.4,0,0.7-0.1,1-0.2c0.3-0.1,0.6-0.3,0.8-0.6
				s0.4-0.6,0.6-0.9c0.1-0.4,0.2-0.8,0.2-1.3c0-0.4-0.1-0.8-0.2-1.1c-0.1-0.3-0.3-0.6-0.6-0.9s-0.5-0.4-0.9-0.6
				c-0.3-0.1-0.7-0.2-1.1-0.2c-0.5,0-0.9,0.1-1.3,0.3c-0.4,0.2-0.7,0.5-1,0.8l-1.3-0.1l1.2-6.4h6.1v1.3H25.1z"/>
		</g>
		<g>
			<path d="M110.5,226.7v-8.9h-3.2v-1.2c0.4,0,0.8,0,1.2-0.1c0.4-0.1,0.8-0.2,1.1-0.4c0.3-0.2,0.6-0.4,0.8-0.7
				c0.2-0.3,0.4-0.7,0.5-1.2h1.1v12.4H110.5z"/>
			<path d="M123,218c-0.5,0.9-1,1.8-1.5,2.7c-0.4,1-0.8,2-1,3s-0.4,2-0.5,3h-1.7c0.1-1.1,0.2-2.1,0.5-3.1c0.3-1,0.6-2,1.1-2.9
				c0.4-0.9,0.9-1.8,1.5-2.6s1.2-1.6,1.8-2.3h-6.5v-1.4h8v1.3C124.2,216.4,123.6,217.1,123,218z"/>
			<path d="M129.4,224.7v1.8c0,0.7-0.2,1.2-0.5,1.7s-0.8,0.8-1.5,1v-0.9c0.2-0.1,0.4-0.2,0.5-0.3c0.1-0.1,0.2-0.3,0.3-0.4
				c0.1-0.2,0.1-0.3,0.2-0.5c0-0.2,0-0.3,0-0.5h-1v-1.9H129.4z"/>
			<path d="M138.3,218c-0.5,0.9-1,1.8-1.5,2.7c-0.4,1-0.8,2-1,3s-0.4,2-0.5,3h-1.7c0.1-1.1,0.2-2.1,0.5-3.1c0.3-1,0.6-2,1.1-2.9
				c0.4-0.9,0.9-1.8,1.5-2.6s1.2-1.6,1.8-2.3h-6.5v-1.4h8v1.3C139.5,216.4,138.9,217.1,138.3,218z"/>
		</g>
		<g>
			<path d="M128,389.7h-8.9v3.2h-1.2c0-0.4,0-0.8-0.1-1.2c-0.1-0.4-0.2-0.8-0.4-1.1c-0.2-0.3-0.4-0.6-0.7-0.8s-0.7-0.4-1.2-0.5v-1.1
				H128V389.7z"/>
			<path d="M121,380.4c0-0.1,0-0.1,0-0.2v-0.3c0-0.3,0-0.6-0.1-0.9c-0.1-0.3-0.2-0.5-0.4-0.8c-0.2-0.2-0.4-0.4-0.6-0.5
				c-0.3-0.1-0.5-0.2-0.9-0.2c-0.7,0-1.2,0.2-1.5,0.6c-0.3,0.4-0.5,0.9-0.5,1.6c0,0.4,0.1,0.7,0.2,1c0.1,0.3,0.3,0.5,0.6,0.7
				s0.5,0.3,0.9,0.4c0.3,0.1,0.7,0.1,1,0.1v1.5c-0.6,0-1.1-0.1-1.6-0.3c-0.5-0.2-0.9-0.4-1.3-0.7c-0.4-0.3-0.6-0.7-0.8-1.2
				c-0.2-0.5-0.3-1-0.3-1.6c0-0.5,0.1-1,0.2-1.5c0.1-0.5,0.3-0.9,0.6-1.2s0.6-0.6,1-0.8c0.4-0.2,0.9-0.3,1.5-0.3
				c0.6,0,1.1,0.2,1.5,0.5s0.8,0.7,1,1.2h0c0.2-0.8,0.5-1.3,1.1-1.7c0.5-0.4,1.2-0.6,1.9-0.6c0.6,0,1.2,0.1,1.6,0.3
				c0.5,0.2,0.9,0.5,1.2,0.9c0.3,0.4,0.6,0.8,0.7,1.4c0.2,0.5,0.2,1.1,0.2,1.7c0,0.6-0.1,1.2-0.3,1.7c-0.2,0.5-0.4,1-0.8,1.3
				c-0.3,0.4-0.8,0.6-1.3,0.8s-1.1,0.3-1.7,0.3v-1.5c0.8,0,1.5-0.3,2-0.7c0.5-0.4,0.8-1.1,0.8-1.9c0-0.4-0.1-0.7-0.2-1
				c-0.1-0.3-0.3-0.6-0.5-0.9s-0.5-0.4-0.8-0.6c-0.3-0.1-0.6-0.2-1-0.2c-0.4,0-0.7,0.1-1,0.2c-0.3,0.1-0.5,0.3-0.8,0.6
				s-0.4,0.5-0.5,0.8c-0.1,0.3-0.1,0.7-0.1,1c0,0.3,0,0.6,0.1,0.9h-1.3C121,380.5,121,380.4,121,380.4z"/>
		</g>
		<g>
			<path d="M128,85.8h-8.9V89h-1.2c0-0.4,0-0.8-0.1-1.2c-0.1-0.4-0.2-0.8-0.4-1.1c-0.2-0.3-0.4-0.6-0.7-0.8
				c-0.3-0.2-0.7-0.4-1.2-0.5v-1.1H128V85.8z"/>
			<path d="M121,76.5c0-0.1,0-0.1,0-0.2V76c0-0.3,0-0.6-0.1-0.9c-0.1-0.3-0.2-0.5-0.4-0.8c-0.2-0.2-0.4-0.4-0.6-0.5
				c-0.3-0.1-0.5-0.2-0.9-0.2c-0.7,0-1.2,0.2-1.5,0.6s-0.5,0.9-0.5,1.6c0,0.4,0.1,0.7,0.2,1c0.1,0.3,0.3,0.5,0.6,0.7
				c0.2,0.2,0.5,0.3,0.9,0.4c0.3,0.1,0.7,0.1,1,0.1v1.5c-0.6,0-1.1-0.1-1.6-0.3c-0.5-0.2-0.9-0.4-1.3-0.7c-0.4-0.3-0.6-0.7-0.8-1.2
				c-0.2-0.5-0.3-1-0.3-1.6c0-0.5,0.1-1,0.2-1.5c0.1-0.5,0.3-0.9,0.6-1.2c0.3-0.3,0.6-0.6,1-0.8c0.4-0.2,0.9-0.3,1.5-0.3
				c0.6,0,1.1,0.2,1.5,0.5c0.4,0.3,0.8,0.7,1,1.2h0c0.2-0.8,0.5-1.3,1.1-1.7c0.5-0.4,1.2-0.6,1.9-0.6c0.6,0,1.2,0.1,1.6,0.3
				c0.5,0.2,0.9,0.5,1.2,0.9s0.6,0.8,0.7,1.4c0.2,0.5,0.2,1.1,0.2,1.7c0,0.6-0.1,1.2-0.3,1.7c-0.2,0.5-0.4,1-0.8,1.3
				c-0.3,0.4-0.8,0.6-1.3,0.8s-1.1,0.3-1.7,0.3v-1.5c0.8,0,1.5-0.3,2-0.7s0.8-1.1,0.8-1.9c0-0.4-0.1-0.7-0.2-1
				c-0.1-0.3-0.3-0.6-0.5-0.9c-0.2-0.2-0.5-0.4-0.8-0.6c-0.3-0.1-0.6-0.2-1-0.2c-0.4,0-0.7,0.1-1,0.2s-0.5,0.3-0.8,0.6
				c-0.2,0.2-0.4,0.5-0.5,0.8c-0.1,0.3-0.1,0.7-0.1,1c0,0.3,0,0.6,0.1,0.9h-1.3C121,76.6,121,76.6,121,76.5z"/>
		</g>
		<g>
			<path d="M37.2,85.8h-8.9V89h-1.2c0-0.4,0-0.8-0.1-1.2c-0.1-0.4-0.2-0.8-0.4-1.1c-0.2-0.3-0.4-0.6-0.7-0.8
				c-0.3-0.2-0.7-0.4-1.2-0.5v-1.1h12.4V85.8z"/>
			<path d="M30.1,76.5c0-0.1,0-0.1,0-0.2V76c0-0.3,0-0.6-0.1-0.9c-0.1-0.3-0.2-0.5-0.4-0.8c-0.2-0.2-0.4-0.4-0.6-0.5
				c-0.3-0.1-0.5-0.2-0.9-0.2c-0.7,0-1.2,0.2-1.5,0.6s-0.5,0.9-0.5,1.6c0,0.4,0.1,0.7,0.2,1c0.1,0.3,0.3,0.5,0.6,0.7
				c0.2,0.2,0.5,0.3,0.9,0.4c0.3,0.1,0.7,0.1,1,0.1v1.5c-0.6,0-1.1-0.1-1.6-0.3c-0.5-0.2-0.9-0.4-1.3-0.7c-0.4-0.3-0.6-0.7-0.8-1.2
				c-0.2-0.5-0.3-1-0.3-1.6c0-0.5,0.1-1,0.2-1.5c0.1-0.5,0.3-0.9,0.6-1.2c0.3-0.3,0.6-0.6,1-0.8c0.4-0.2,0.9-0.3,1.5-0.3
				c0.6,0,1.1,0.2,1.5,0.5c0.4,0.3,0.8,0.7,1,1.2h0c0.2-0.8,0.5-1.3,1.1-1.7c0.5-0.4,1.2-0.6,1.9-0.6c0.6,0,1.2,0.1,1.6,0.3
				c0.5,0.2,0.9,0.5,1.2,0.9s0.6,0.8,0.7,1.4c0.2,0.5,0.2,1.1,0.2,1.7c0,0.6-0.1,1.2-0.3,1.7c-0.2,0.5-0.4,1-0.8,1.3
				c-0.3,0.4-0.8,0.6-1.3,0.8S34,80,33.3,80v-1.5c0.8,0,1.5-0.3,2-0.7s0.8-1.1,0.8-1.9c0-0.4-0.1-0.7-0.2-1
				c-0.1-0.3-0.3-0.6-0.5-0.9c-0.2-0.2-0.5-0.4-0.8-0.6c-0.3-0.1-0.6-0.2-1-0.2c-0.4,0-0.7,0.1-1,0.2s-0.5,0.3-0.8,0.6
				c-0.2,0.2-0.4,0.5-0.5,0.8c-0.1,0.3-0.1,0.7-0.1,1c0,0.3,0,0.6,0.1,0.9h-1.3C30.1,76.6,30.1,76.6,30.1,76.5z"/>
		</g>
		<g>
			<path d="M37.2,389.7h-8.9v3.2h-1.2c0-0.4,0-0.8-0.1-1.2c-0.1-0.4-0.2-0.8-0.4-1.1c-0.2-0.3-0.4-0.6-0.7-0.8s-0.7-0.4-1.2-0.5
				v-1.1h12.4V389.7z"/>
			<path d="M30.1,380.4c0-0.1,0-0.1,0-0.2v-0.3c0-0.3,0-0.6-0.1-0.9c-0.1-0.3-0.2-0.5-0.4-0.8c-0.2-0.2-0.4-0.4-0.6-0.5
				c-0.3-0.1-0.5-0.2-0.9-0.2c-0.7,0-1.2,0.2-1.5,0.6c-0.3,0.4-0.5,0.9-0.5,1.6c0,0.4,0.1,0.7,0.2,1c0.1,0.3,0.3,0.5,0.6,0.7
				s0.5,0.3,0.9,0.4c0.3,0.1,0.7,0.1,1,0.1v1.5c-0.6,0-1.1-0.1-1.6-0.3c-0.5-0.2-0.9-0.4-1.3-0.7c-0.4-0.3-0.6-0.7-0.8-1.2
				c-0.2-0.5-0.3-1-0.3-1.6c0-0.5,0.1-1,0.2-1.5c0.1-0.5,0.3-0.9,0.6-1.2s0.6-0.6,1-0.8c0.4-0.2,0.9-0.3,1.5-0.3
				c0.6,0,1.1,0.2,1.5,0.5s0.8,0.7,1,1.2h0c0.2-0.8,0.5-1.3,1.1-1.7c0.5-0.4,1.2-0.6,1.9-0.6c0.6,0,1.2,0.1,1.6,0.3
				c0.5,0.2,0.9,0.5,1.2,0.9c0.3,0.4,0.6,0.8,0.7,1.4c0.2,0.5,0.2,1.1,0.2,1.7c0,0.6-0.1,1.2-0.3,1.7c-0.2,0.5-0.4,1-0.8,1.3
				c-0.3,0.4-0.8,0.6-1.3,0.8s-1.1,0.3-1.7,0.3v-1.5c0.8,0,1.5-0.3,2-0.7c0.5-0.4,0.8-1.1,0.8-1.9c0-0.4-0.1-0.7-0.2-1
				c-0.1-0.3-0.3-0.6-0.5-0.9s-0.5-0.4-0.8-0.6c-0.3-0.1-0.6-0.2-1-0.2c-0.4,0-0.7,0.1-1,0.2c-0.3,0.1-0.5,0.3-0.8,0.6
				s-0.4,0.5-0.5,0.8c-0.1,0.3-0.1,0.7-0.1,1c0,0.3,0,0.6,0.1,0.9h-1.3C30.1,380.5,30.1,380.4,30.1,380.4z"/>
		</g>
		<g>
			<path d="M77.4,321.1h1.3v1.7h2.9v1.4h-2.9v5.4h-1.4l-8.1-5.7v-1.2h8.2V321.1z M71.4,324.1L71.4,324.1l6.1,4.2v-4.2H71.4z"/>
			<path d="M74.6,316c0-0.1,0-0.1,0-0.2v-0.3c0-0.3,0-0.6-0.1-0.9c-0.1-0.3-0.2-0.5-0.4-0.8c-0.2-0.2-0.4-0.4-0.6-0.5
				c-0.3-0.1-0.5-0.2-0.9-0.2c-0.7,0-1.2,0.2-1.5,0.6c-0.3,0.4-0.5,0.9-0.5,1.6c0,0.4,0.1,0.7,0.2,1c0.1,0.3,0.3,0.5,0.6,0.7
				s0.5,0.3,0.9,0.4c0.3,0.1,0.7,0.1,1,0.1v1.5c-0.6,0-1.1-0.1-1.6-0.3c-0.5-0.2-0.9-0.4-1.3-0.7c-0.4-0.3-0.6-0.7-0.8-1.2
				c-0.2-0.5-0.3-1-0.3-1.6c0-0.5,0.1-1,0.2-1.5c0.1-0.5,0.3-0.9,0.6-1.2s0.6-0.6,1-0.8c0.4-0.2,0.9-0.3,1.5-0.3
				c0.6,0,1.1,0.2,1.5,0.5s0.8,0.7,1,1.2h0c0.2-0.8,0.5-1.3,1.1-1.7c0.5-0.4,1.2-0.6,1.9-0.6c0.6,0,1.2,0.1,1.6,0.3
				c0.5,0.2,0.9,0.5,1.2,0.9c0.3,0.4,0.6,0.8,0.7,1.4c0.2,0.5,0.2,1.1,0.2,1.7c0,0.6-0.1,1.2-0.3,1.7c-0.2,0.5-0.4,1-0.8,1.3
				c-0.3,0.4-0.8,0.6-1.3,0.8s-1.1,0.3-1.7,0.3V318c0.8,0,1.5-0.3,2-0.7c0.5-0.4,0.8-1.1,0.8-1.9c0-0.4-0.1-0.7-0.2-1
				c-0.1-0.3-0.3-0.6-0.5-0.9s-0.5-0.4-0.8-0.6c-0.3-0.1-0.6-0.2-1-0.2c-0.4,0-0.7,0.1-1,0.2c-0.3,0.1-0.5,0.3-0.8,0.6
				s-0.4,0.5-0.5,0.8c-0.1,0.3-0.1,0.7-0.1,1c0,0.3,0,0.6,0.1,0.9h-1.3C74.6,316.1,74.6,316.1,74.6,316z"/>
		</g>
	</g>
	<g id="Drill_Sheet_2">
		<polyline class="st9" points="205.8,281.1 205.8,169.9 248.4,169.9 248.4,103.6 205.8,103.6 205.8,48.9 329.8,48.9 329.8,410.3 
			205.8,410.3 205.8,347.5 248.4,347.5 248.4,281.1 205.8,281.1 		"/>
		<rect x="341.4" y="48.9" class="st9" width="124" height="361.4"/>
		<circle class="st10" cx="296.1" cy="82.5" r="8.4"/>
		<circle class="st10" cx="296.1" cy="376.7" r="8.4"/>
		<circle class="st10" cx="375.1" cy="124.6" r="8.4"/>
		<circle class="st10" cx="375.1" cy="334.6" r="8.4"/>
		<circle class="st10" cx="436" cy="347.2" r="8.4"/>
		<circle class="st10" cx="436" cy="112" r="8.4"/>
		<polyline class="st11" points="329.8,82.5 296.1,82.5 296.1,48.9 		"/>
		<polyline class="st11" points="329.8,376.7 296.1,376.7 296.1,410.3 		"/>
		<polyline class="st11" points="341.4,334.6 375.1,334.6 375.1,410.5 		"/>
		<polyline class="st11" points="436,410.3 436,347.2 465.4,347.2 		"/>
		<polyline class="st11" points="465.4,112 436,112 436,48.9 		"/>
		<polyline class="st11" points="375.1,48.9 375.1,124.6 341.4,124.6 		"/>
		<g>
			<path d="M453,335.4c-0.5,0.9-1,1.8-1.5,2.7c-0.4,1-0.8,2-1,3c-0.3,1-0.4,2-0.5,3h-1.7c0.1-1.1,0.2-2.1,0.5-3.1
				c0.3-1,0.6-2,1.1-2.9c0.4-0.9,0.9-1.8,1.5-2.6c0.6-0.8,1.2-1.6,1.8-2.3h-6.5v-1.4h8v1.3C454.1,333.8,453.5,334.5,453,335.4z"/>
		</g>
		<g>
			<path d="M429.9,383.9H421v3.2h-1.2c0-0.4,0-0.8-0.1-1.2c-0.1-0.4-0.2-0.8-0.4-1.1c-0.2-0.3-0.4-0.6-0.7-0.8s-0.7-0.4-1.2-0.5
				v-1.1h12.4V383.9z"/>
			<path d="M419,375.4l3.6,0.7l0,0c-0.3-0.3-0.5-0.6-0.7-1c-0.1-0.4-0.2-0.8-0.2-1.3c0-0.5,0.1-1.1,0.3-1.6c0.2-0.5,0.4-0.9,0.8-1.3
				c0.4-0.4,0.8-0.6,1.3-0.9c0.5-0.2,1.2-0.3,1.9-0.3c0.5,0,1,0.1,1.5,0.3s0.9,0.5,1.3,0.8c0.4,0.4,0.7,0.8,0.9,1.4
				c0.2,0.5,0.3,1.2,0.3,1.9c0,0.5-0.1,1-0.2,1.5c-0.2,0.5-0.4,0.9-0.7,1.3s-0.7,0.6-1.1,0.9c-0.4,0.2-0.9,0.3-1.5,0.3v-1.5
				c0.3,0,0.6-0.1,0.9-0.2c0.3-0.1,0.5-0.3,0.7-0.5s0.4-0.5,0.5-0.8s0.2-0.7,0.2-1c0-0.4-0.1-0.7-0.2-1c-0.1-0.3-0.3-0.6-0.6-0.8
				s-0.6-0.4-0.9-0.6c-0.4-0.1-0.8-0.2-1.3-0.2c-0.4,0-0.8,0.1-1.1,0.2c-0.3,0.1-0.6,0.3-0.9,0.6s-0.4,0.5-0.6,0.9
				c-0.1,0.3-0.2,0.7-0.2,1.1c0,0.5,0.1,0.9,0.3,1.3c0.2,0.4,0.5,0.7,0.8,1l-0.1,1.3l-6.4-1.2v-6.1h1.3V375.4z"/>
		</g>
		<g>
			<path d="M453,99.2c-0.5,0.9-1,1.8-1.5,2.7c-0.4,1-0.8,2-1,3c-0.3,1-0.4,2-0.5,3h-1.7c0.1-1.1,0.2-2.1,0.5-3.1
				c0.3-1,0.6-2,1.1-2.9c0.4-0.9,0.9-1.8,1.5-2.6c0.6-0.8,1.2-1.6,1.8-2.3h-6.5v-1.4h8V97C454.1,97.6,453.5,98.3,453,99.2z"/>
		</g>
		<g>
			<path d="M429.9,90.6H421v3.2h-1.2c0-0.4,0-0.8-0.1-1.2c-0.1-0.4-0.2-0.8-0.4-1.1c-0.2-0.3-0.4-0.6-0.7-0.8s-0.7-0.4-1.2-0.5v-1.1
				h12.4V90.6z"/>
			<path d="M419,82.1l3.6,0.7l0,0c-0.3-0.3-0.5-0.6-0.7-1c-0.1-0.4-0.2-0.8-0.2-1.3c0-0.5,0.1-1.1,0.3-1.6c0.2-0.5,0.4-0.9,0.8-1.3
				c0.4-0.4,0.8-0.6,1.3-0.9c0.5-0.2,1.2-0.3,1.9-0.3c0.5,0,1,0.1,1.5,0.3s0.9,0.5,1.3,0.8c0.4,0.4,0.7,0.8,0.9,1.4
				c0.2,0.5,0.3,1.2,0.3,1.9c0,0.5-0.1,1-0.2,1.5c-0.2,0.5-0.4,0.9-0.7,1.3s-0.7,0.6-1.1,0.9c-0.4,0.2-0.9,0.3-1.5,0.3v-1.5
				c0.3,0,0.6-0.1,0.9-0.2c0.3-0.1,0.5-0.3,0.7-0.5s0.4-0.5,0.5-0.8s0.2-0.7,0.2-1c0-0.4-0.1-0.7-0.2-1c-0.1-0.3-0.3-0.6-0.6-0.8
				s-0.6-0.4-0.9-0.6c-0.4-0.1-0.8-0.2-1.3-0.2c-0.4,0-0.8,0.1-1.1,0.2c-0.3,0.1-0.6,0.3-0.9,0.6s-0.4,0.5-0.6,0.9
				c-0.1,0.3-0.2,0.7-0.2,1.1c0,0.5,0.1,0.9,0.3,1.3c0.2,0.4,0.5,0.7,0.8,1l-0.1,1.3l-6.4-1.2v-6.1h1.3V82.1z"/>
		</g>
		<g>
			<path d="M371.9,90.6H363v3.2h-1.2c0-0.4,0-0.8-0.1-1.2c-0.1-0.4-0.2-0.8-0.4-1.1c-0.2-0.3-0.4-0.6-0.7-0.8s-0.7-0.4-1.2-0.5v-1.1
				h12.4V90.6z"/>
			<path d="M361.3,83.9c-0.4-0.2-0.7-0.5-1-0.8c-0.3-0.3-0.5-0.7-0.6-1.2c-0.1-0.4-0.2-0.9-0.2-1.4c0-0.7,0.1-1.3,0.3-1.7
				c0.2-0.5,0.4-0.9,0.7-1.2s0.6-0.5,1-0.7c0.4-0.1,0.8-0.2,1.2-0.2c0.6,0,1.1,0.2,1.5,0.5c0.5,0.3,0.8,0.7,1,1.3
				c0.2-0.7,0.6-1.3,1.1-1.7c0.5-0.4,1.2-0.5,2-0.5c0.6,0,1.1,0.1,1.6,0.3c0.5,0.2,0.9,0.5,1.2,0.9c0.3,0.4,0.6,0.8,0.7,1.3
				s0.2,1,0.2,1.6c0,0.6-0.1,1.1-0.2,1.7c-0.2,0.5-0.4,1-0.7,1.3c-0.3,0.4-0.7,0.7-1.2,0.9s-1,0.3-1.7,0.3c-0.7,0-1.4-0.2-1.9-0.6
				s-0.9-0.9-1.2-1.6c-0.2,0.5-0.6,0.9-1,1.3s-1,0.5-1.5,0.5C362.1,84.2,361.6,84.1,361.3,83.9z M363.5,82.4
				c0.3-0.1,0.5-0.3,0.6-0.5c0.2-0.2,0.3-0.4,0.4-0.7c0.1-0.3,0.1-0.6,0.1-0.9c0-0.6-0.2-1.1-0.5-1.5c-0.3-0.4-0.8-0.6-1.5-0.6
				c-0.6,0-1.1,0.2-1.4,0.6c-0.3,0.4-0.5,0.9-0.5,1.5c0,0.3,0,0.6,0.1,0.8c0.1,0.3,0.2,0.5,0.4,0.7c0.2,0.2,0.4,0.3,0.6,0.5
				c0.2,0.1,0.5,0.2,0.8,0.2C363,82.6,363.3,82.5,363.5,82.4z M370.1,82.3c0.4-0.5,0.6-1.1,0.6-1.9c0-0.4-0.1-0.7-0.2-1
				c-0.1-0.3-0.3-0.6-0.5-0.8c-0.2-0.2-0.5-0.4-0.8-0.5c-0.3-0.1-0.6-0.2-1-0.2c-0.3,0-0.7,0.1-0.9,0.2c-0.3,0.1-0.5,0.3-0.7,0.6
				c-0.2,0.2-0.4,0.5-0.5,0.8c-0.1,0.3-0.2,0.6-0.2,1c0,0.4,0.1,0.7,0.2,1c0.1,0.3,0.3,0.6,0.5,0.8s0.5,0.4,0.8,0.6
				c0.3,0.1,0.6,0.2,1,0.2C369.1,83,369.7,82.8,370.1,82.3z"/>
		</g>
		<g>
			<path d="M371.9,380.8H363v3.2h-1.2c0-0.4,0-0.8-0.1-1.2c-0.1-0.4-0.2-0.8-0.4-1.1c-0.2-0.3-0.4-0.6-0.7-0.8s-0.7-0.4-1.2-0.5
				v-1.1h12.4V380.8z"/>
			<path d="M361.3,374c-0.4-0.2-0.7-0.5-1-0.8c-0.3-0.3-0.5-0.7-0.6-1.2c-0.1-0.4-0.2-0.9-0.2-1.4c0-0.7,0.1-1.3,0.3-1.7
				c0.2-0.5,0.4-0.9,0.7-1.2s0.6-0.5,1-0.7c0.4-0.1,0.8-0.2,1.2-0.2c0.6,0,1.1,0.2,1.5,0.5c0.5,0.3,0.8,0.7,1,1.3
				c0.2-0.7,0.6-1.3,1.1-1.7c0.5-0.4,1.2-0.5,2-0.5c0.6,0,1.1,0.1,1.6,0.3c0.5,0.2,0.9,0.5,1.2,0.9c0.3,0.4,0.6,0.8,0.7,1.3
				s0.2,1,0.2,1.6c0,0.6-0.1,1.1-0.2,1.7c-0.2,0.5-0.4,1-0.7,1.3c-0.3,0.4-0.7,0.7-1.2,0.9s-1,0.3-1.7,0.3c-0.7,0-1.4-0.2-1.9-0.6
				s-0.9-0.9-1.2-1.6c-0.2,0.5-0.6,0.9-1,1.3s-1,0.5-1.5,0.5C362.1,374.3,361.6,374.2,361.3,374z M363.5,372.6
				c0.3-0.1,0.5-0.3,0.6-0.5c0.2-0.2,0.3-0.4,0.4-0.7c0.1-0.3,0.1-0.6,0.1-0.9c0-0.6-0.2-1.1-0.5-1.5c-0.3-0.4-0.8-0.6-1.5-0.6
				c-0.6,0-1.1,0.2-1.4,0.6c-0.3,0.4-0.5,0.9-0.5,1.5c0,0.3,0,0.6,0.1,0.8c0.1,0.3,0.2,0.5,0.4,0.7c0.2,0.2,0.4,0.3,0.6,0.5
				c0.2,0.1,0.5,0.2,0.8,0.2C363,372.7,363.3,372.7,363.5,372.6z M370.1,372.4c0.4-0.5,0.6-1.1,0.6-1.9c0-0.4-0.1-0.7-0.2-1
				c-0.1-0.3-0.3-0.6-0.5-0.8c-0.2-0.2-0.5-0.4-0.8-0.5c-0.3-0.1-0.6-0.2-1-0.2c-0.3,0-0.7,0.1-0.9,0.2c-0.3,0.1-0.5,0.3-0.7,0.6
				c-0.2,0.2-0.4,0.5-0.5,0.8c-0.1,0.3-0.2,0.6-0.2,1c0,0.4,0.1,0.7,0.2,1c0.1,0.3,0.3,0.6,0.5,0.8s0.5,0.4,0.8,0.6
				c0.3,0.1,0.6,0.2,1,0.2C369.1,373.2,369.7,372.9,370.1,372.4z"/>
		</g>
		<g>
			<path d="M357.2,319.5c0.2-0.4,0.5-0.7,0.8-1c0.3-0.3,0.7-0.5,1.2-0.6c0.4-0.1,0.9-0.2,1.4-0.2c0.7,0,1.3,0.1,1.7,0.3
				c0.5,0.2,0.9,0.4,1.2,0.7s0.5,0.6,0.7,1c0.1,0.4,0.2,0.8,0.2,1.2c0,0.6-0.2,1.1-0.5,1.5c-0.3,0.5-0.7,0.8-1.3,1
				c0.7,0.2,1.3,0.6,1.7,1.1c0.4,0.5,0.5,1.2,0.5,2c0,0.6-0.1,1.1-0.3,1.6c-0.2,0.5-0.5,0.9-0.9,1.2c-0.4,0.3-0.8,0.6-1.3,0.7
				s-1,0.2-1.6,0.2c-0.6,0-1.1-0.1-1.7-0.2c-0.5-0.2-1-0.4-1.3-0.7c-0.4-0.3-0.7-0.7-0.9-1.2s-0.3-1-0.3-1.7c0-0.7,0.2-1.4,0.6-1.9
				s0.9-0.9,1.6-1.2c-0.5-0.2-0.9-0.6-1.3-1s-0.5-1-0.5-1.5C356.9,320.3,357,319.9,357.2,319.5z M358.8,328.4
				c0.5,0.4,1.1,0.6,1.9,0.6c0.4,0,0.7-0.1,1-0.2c0.3-0.1,0.6-0.3,0.8-0.5c0.2-0.2,0.4-0.5,0.5-0.8c0.1-0.3,0.2-0.6,0.2-1
				c0-0.3-0.1-0.7-0.2-0.9c-0.1-0.3-0.3-0.5-0.6-0.7c-0.2-0.2-0.5-0.4-0.8-0.5c-0.3-0.1-0.6-0.2-1-0.2c-0.4,0-0.7,0.1-1,0.2
				c-0.3,0.1-0.6,0.3-0.8,0.5s-0.4,0.5-0.6,0.8c-0.1,0.3-0.2,0.6-0.2,1C358,327.3,358.3,327.9,358.8,328.4z M358.6,321.8
				c0.1,0.3,0.3,0.5,0.5,0.6c0.2,0.2,0.4,0.3,0.7,0.4c0.3,0.1,0.6,0.1,0.9,0.1c0.6,0,1.1-0.2,1.5-0.5c0.4-0.3,0.6-0.8,0.6-1.5
				c0-0.6-0.2-1.1-0.6-1.4c-0.4-0.3-0.9-0.5-1.5-0.5c-0.3,0-0.6,0-0.8,0.1c-0.3,0.1-0.5,0.2-0.7,0.4c-0.2,0.2-0.3,0.4-0.5,0.6
				c-0.1,0.2-0.2,0.5-0.2,0.8C358.5,321.2,358.5,321.5,358.6,321.8z"/>
		</g>
		<g>
			<path d="M357.2,109.4c0.2-0.4,0.5-0.7,0.8-1c0.3-0.3,0.7-0.5,1.2-0.6c0.4-0.1,0.9-0.2,1.4-0.2c0.7,0,1.3,0.1,1.7,0.3
				c0.5,0.2,0.9,0.4,1.2,0.7s0.5,0.6,0.7,1c0.1,0.4,0.2,0.8,0.2,1.2c0,0.6-0.2,1.1-0.5,1.5c-0.3,0.5-0.7,0.8-1.3,1
				c0.7,0.2,1.3,0.6,1.7,1.1c0.4,0.5,0.5,1.2,0.5,2c0,0.6-0.1,1.1-0.3,1.6c-0.2,0.5-0.5,0.9-0.9,1.2c-0.4,0.3-0.8,0.6-1.3,0.7
				s-1,0.2-1.6,0.2c-0.6,0-1.1-0.1-1.7-0.2c-0.5-0.2-1-0.4-1.3-0.7c-0.4-0.3-0.7-0.7-0.9-1.2s-0.3-1-0.3-1.7c0-0.7,0.2-1.4,0.6-1.9
				s0.9-0.9,1.6-1.2c-0.5-0.2-0.9-0.6-1.3-1s-0.5-1-0.5-1.5C356.9,110.2,357,109.8,357.2,109.4z M358.8,118.2
				c0.5,0.4,1.1,0.6,1.9,0.6c0.4,0,0.7-0.1,1-0.2c0.3-0.1,0.6-0.3,0.8-0.5c0.2-0.2,0.4-0.5,0.5-0.8c0.1-0.3,0.2-0.6,0.2-1
				c0-0.3-0.1-0.7-0.2-0.9c-0.1-0.3-0.3-0.5-0.6-0.7c-0.2-0.2-0.5-0.4-0.8-0.5c-0.3-0.1-0.6-0.2-1-0.2c-0.4,0-0.7,0.1-1,0.2
				c-0.3,0.1-0.6,0.3-0.8,0.5s-0.4,0.5-0.6,0.8c-0.1,0.3-0.2,0.6-0.2,1C358,117.2,358.3,117.8,358.8,118.2z M358.6,111.7
				c0.1,0.3,0.3,0.5,0.5,0.6c0.2,0.2,0.4,0.3,0.7,0.4c0.3,0.1,0.6,0.1,0.9,0.1c0.6,0,1.1-0.2,1.5-0.5c0.4-0.3,0.6-0.8,0.6-1.5
				c0-0.6-0.2-1.1-0.6-1.4c-0.4-0.3-0.9-0.5-1.5-0.5c-0.3,0-0.6,0-0.8,0.1c-0.3,0.1-0.5,0.2-0.7,0.4c-0.2,0.2-0.3,0.4-0.5,0.6
				c-0.1,0.2-0.2,0.5-0.2,0.8C358.5,111.1,358.5,111.4,358.6,111.7z"/>
		</g>
		<g>
			<path d="M311.3,67.9c0.2-0.4,0.5-0.7,0.8-1c0.3-0.3,0.7-0.5,1.2-0.6c0.4-0.1,0.9-0.2,1.4-0.2c0.7,0,1.3,0.1,1.7,0.3
				c0.5,0.2,0.9,0.4,1.2,0.7s0.5,0.6,0.7,1c0.1,0.4,0.2,0.8,0.2,1.2c0,0.6-0.2,1.1-0.5,1.5c-0.3,0.5-0.7,0.8-1.3,1
				c0.7,0.2,1.3,0.6,1.7,1.1c0.4,0.5,0.5,1.2,0.5,2c0,0.6-0.1,1.1-0.3,1.6c-0.2,0.5-0.5,0.9-0.9,1.2c-0.4,0.3-0.8,0.6-1.3,0.7
				s-1,0.2-1.6,0.2c-0.6,0-1.1-0.1-1.7-0.2c-0.5-0.2-1-0.4-1.3-0.7c-0.4-0.3-0.7-0.7-0.9-1.2s-0.3-1-0.3-1.7c0-0.7,0.2-1.4,0.6-1.9
				s0.9-0.9,1.6-1.2c-0.5-0.2-0.9-0.6-1.3-1s-0.5-1-0.5-1.5C311,68.7,311.1,68.3,311.3,67.9z M312.9,76.7c0.5,0.4,1.1,0.6,1.9,0.6
				c0.4,0,0.7-0.1,1-0.2c0.3-0.1,0.6-0.3,0.8-0.5c0.2-0.2,0.4-0.5,0.5-0.8c0.1-0.3,0.2-0.6,0.2-1c0-0.3-0.1-0.7-0.2-0.9
				c-0.1-0.3-0.3-0.5-0.6-0.7c-0.2-0.2-0.5-0.4-0.8-0.5c-0.3-0.1-0.6-0.2-1-0.2c-0.4,0-0.7,0.1-1,0.2c-0.3,0.1-0.6,0.3-0.8,0.5
				s-0.4,0.5-0.6,0.8c-0.1,0.3-0.2,0.6-0.2,1C312.1,75.7,312.4,76.3,312.9,76.7z M312.7,70.2c0.1,0.3,0.3,0.5,0.5,0.6
				c0.2,0.2,0.4,0.3,0.7,0.4c0.3,0.1,0.6,0.1,0.9,0.1c0.6,0,1.1-0.2,1.5-0.5c0.4-0.3,0.6-0.8,0.6-1.5c0-0.6-0.2-1.1-0.6-1.4
				c-0.4-0.3-0.9-0.5-1.5-0.5c-0.3,0-0.6,0-0.8,0.1c-0.3,0.1-0.5,0.2-0.7,0.4c-0.2,0.2-0.3,0.4-0.5,0.6c-0.1,0.2-0.2,0.5-0.2,0.8
				C312.6,69.6,312.6,69.9,312.7,70.2z"/>
		</g>
		<g>
			<path d="M281.6,67.8c-0.4-0.2-0.7-0.5-1-0.8c-0.3-0.3-0.5-0.7-0.6-1.2c-0.1-0.4-0.2-0.9-0.2-1.4c0-0.7,0.1-1.3,0.3-1.7
				c0.2-0.5,0.4-0.9,0.7-1.2s0.6-0.5,1-0.7c0.4-0.1,0.8-0.2,1.2-0.2c0.6,0,1.1,0.2,1.5,0.5c0.5,0.3,0.8,0.7,1,1.3
				c0.2-0.7,0.6-1.3,1.1-1.7c0.5-0.4,1.2-0.5,2-0.5c0.6,0,1.1,0.1,1.6,0.3c0.5,0.2,0.9,0.5,1.2,0.9c0.3,0.4,0.6,0.8,0.7,1.3
				s0.2,1,0.2,1.6c0,0.6-0.1,1.1-0.2,1.7c-0.2,0.5-0.4,1-0.7,1.3c-0.3,0.4-0.7,0.7-1.2,0.9s-1,0.3-1.7,0.3c-0.7,0-1.4-0.2-1.9-0.6
				s-0.9-0.9-1.2-1.6c-0.2,0.5-0.6,0.9-1,1.3s-1,0.5-1.5,0.5C282.4,68.1,281.9,68,281.6,67.8z M283.8,66.3c0.3-0.1,0.5-0.3,0.6-0.5
				c0.2-0.2,0.3-0.4,0.4-0.7c0.1-0.3,0.1-0.6,0.1-0.9c0-0.6-0.2-1.1-0.5-1.5c-0.3-0.4-0.8-0.6-1.5-0.6c-0.6,0-1.1,0.2-1.4,0.6
				c-0.3,0.4-0.5,0.9-0.5,1.5c0,0.3,0,0.6,0.1,0.8c0.1,0.3,0.2,0.5,0.4,0.7c0.2,0.2,0.4,0.3,0.6,0.5c0.2,0.1,0.5,0.2,0.8,0.2
				C283.3,66.5,283.6,66.4,283.8,66.3z M290.4,66.2c0.4-0.5,0.6-1.1,0.6-1.9c0-0.4-0.1-0.7-0.2-1c-0.1-0.3-0.3-0.6-0.5-0.8
				c-0.2-0.2-0.5-0.4-0.8-0.5c-0.3-0.1-0.6-0.2-1-0.2c-0.3,0-0.7,0.1-0.9,0.2c-0.3,0.1-0.5,0.3-0.7,0.6c-0.2,0.2-0.4,0.5-0.5,0.8
				c-0.1,0.3-0.2,0.6-0.2,1c0,0.4,0.1,0.7,0.2,1c0.1,0.3,0.3,0.6,0.5,0.8s0.5,0.4,0.8,0.6c0.3,0.1,0.6,0.2,1,0.2
				C289.4,66.9,290,66.7,290.4,66.2z"/>
		</g>
		<g>
			<path d="M311.3,362c0.2-0.4,0.5-0.7,0.8-1c0.3-0.3,0.7-0.5,1.2-0.6c0.4-0.1,0.9-0.2,1.4-0.2c0.7,0,1.3,0.1,1.7,0.3
				c0.5,0.2,0.9,0.4,1.2,0.7s0.5,0.6,0.7,1c0.1,0.4,0.2,0.8,0.2,1.2c0,0.6-0.2,1.1-0.5,1.5c-0.3,0.5-0.7,0.8-1.3,1
				c0.7,0.2,1.3,0.6,1.7,1.1c0.4,0.5,0.5,1.2,0.5,2c0,0.6-0.1,1.1-0.3,1.6c-0.2,0.5-0.5,0.9-0.9,1.2c-0.4,0.3-0.8,0.6-1.3,0.7
				s-1,0.2-1.6,0.2c-0.6,0-1.1-0.1-1.7-0.2c-0.5-0.2-1-0.4-1.3-0.7c-0.4-0.3-0.7-0.7-0.9-1.2s-0.3-1-0.3-1.7c0-0.7,0.2-1.4,0.6-1.9
				s0.9-0.9,1.6-1.2c-0.5-0.2-0.9-0.6-1.3-1s-0.5-1-0.5-1.5C311,362.9,311.1,362.4,311.3,362z M312.9,370.9c0.5,0.4,1.1,0.6,1.9,0.6
				c0.4,0,0.7-0.1,1-0.2c0.3-0.1,0.6-0.3,0.8-0.5c0.2-0.2,0.4-0.5,0.5-0.8c0.1-0.3,0.2-0.6,0.2-1c0-0.3-0.1-0.7-0.2-0.9
				c-0.1-0.3-0.3-0.5-0.6-0.7c-0.2-0.2-0.5-0.4-0.8-0.5c-0.3-0.1-0.6-0.2-1-0.2c-0.4,0-0.7,0.1-1,0.2c-0.3,0.1-0.6,0.3-0.8,0.5
				s-0.4,0.5-0.6,0.8c-0.1,0.3-0.2,0.6-0.2,1C312.1,369.9,312.4,370.5,312.9,370.9z M312.7,364.3c0.1,0.3,0.3,0.5,0.5,0.6
				c0.2,0.2,0.4,0.3,0.7,0.4c0.3,0.1,0.6,0.1,0.9,0.1c0.6,0,1.1-0.2,1.5-0.5c0.4-0.3,0.6-0.8,0.6-1.5c0-0.6-0.2-1.1-0.6-1.4
				c-0.4-0.3-0.9-0.5-1.5-0.5c-0.3,0-0.6,0-0.8,0.1c-0.3,0.1-0.5,0.2-0.7,0.4c-0.2,0.2-0.3,0.4-0.5,0.6c-0.1,0.2-0.2,0.5-0.2,0.8
				C312.6,363.8,312.6,364.1,312.7,364.3z"/>
		</g>
		<g>
			<path d="M281.6,398c-0.4-0.2-0.7-0.5-1-0.8c-0.3-0.3-0.5-0.7-0.6-1.2c-0.1-0.4-0.2-0.9-0.2-1.4c0-0.7,0.1-1.3,0.3-1.7
				c0.2-0.5,0.4-0.9,0.7-1.2s0.6-0.5,1-0.7c0.4-0.1,0.8-0.2,1.2-0.2c0.6,0,1.1,0.2,1.5,0.5c0.5,0.3,0.8,0.7,1,1.3
				c0.2-0.7,0.6-1.3,1.1-1.7c0.5-0.4,1.2-0.5,2-0.5c0.6,0,1.1,0.1,1.6,0.3c0.5,0.2,0.9,0.5,1.2,0.9c0.3,0.4,0.6,0.8,0.7,1.3
				s0.2,1,0.2,1.6c0,0.6-0.1,1.1-0.2,1.7c-0.2,0.5-0.4,1-0.7,1.3c-0.3,0.4-0.7,0.7-1.2,0.9s-1,0.3-1.7,0.3c-0.7,0-1.4-0.2-1.9-0.6
				s-0.9-0.9-1.2-1.6c-0.2,0.5-0.6,0.9-1,1.3s-1,0.5-1.5,0.5C282.4,398.3,281.9,398.2,281.6,398z M283.8,396.5
				c0.3-0.1,0.5-0.3,0.6-0.5c0.2-0.2,0.3-0.4,0.4-0.7c0.1-0.3,0.1-0.6,0.1-0.9c0-0.6-0.2-1.1-0.5-1.5c-0.3-0.4-0.8-0.6-1.5-0.6
				c-0.6,0-1.1,0.2-1.4,0.6c-0.3,0.4-0.5,0.9-0.5,1.5c0,0.3,0,0.6,0.1,0.8c0.1,0.3,0.2,0.5,0.4,0.7c0.2,0.2,0.4,0.3,0.6,0.5
				c0.2,0.1,0.5,0.2,0.8,0.2C283.3,396.7,283.6,396.6,283.8,396.5z M290.4,396.4c0.4-0.5,0.6-1.1,0.6-1.9c0-0.4-0.1-0.7-0.2-1
				c-0.1-0.3-0.3-0.6-0.5-0.8c-0.2-0.2-0.5-0.4-0.8-0.5c-0.3-0.1-0.6-0.2-1-0.2c-0.3,0-0.7,0.1-0.9,0.2c-0.3,0.1-0.5,0.3-0.7,0.6
				c-0.2,0.2-0.4,0.5-0.5,0.8c-0.1,0.3-0.2,0.6-0.2,1c0,0.4,0.1,0.7,0.2,1c0.1,0.3,0.3,0.6,0.5,0.8s0.5,0.4,0.8,0.6
				c0.3,0.1,0.6,0.2,1,0.2C289.4,397.1,290,396.9,290.4,396.4z"/>
		</g>
		<g>
			<path d="M42.7,14.6v0.6h-3.4v14.4h-0.7V15.2h-3.5v-0.6H42.7z"/>
			<path d="M44,28.4c-0.9-1-1.4-2.1-1.4-3.3c0-1.3,0.5-2.4,1.4-3.3c0.9-0.9,2.1-1.4,3.4-1.4c1.3,0,2.4,0.5,3.4,1.4
				c0.9,0.9,1.4,2,1.4,3.3s-0.5,2.4-1.4,3.3c-0.9,0.9-2,1.4-3.3,1.4h-0.2C46,29.8,44.9,29.3,44,28.4z M51.5,25.1
				c0-1.1-0.4-2.1-1.2-2.9c-0.8-0.8-1.8-1.2-2.9-1.2s-2.1,0.4-2.9,1.2c-0.8,0.8-1.2,1.8-1.2,2.9s0.4,2.1,1.2,2.9
				c0.8,0.8,1.8,1.2,2.9,1.2c1.1,0,2.1-0.4,2.9-1.2C51.1,27.2,51.5,26.2,51.5,25.1z"/>
			<path d="M54.5,33.6v-13h0.6v2.2c0.4-0.7,0.9-1.3,1.7-1.8s1.6-0.7,2.4-0.7c1.3,0,2.4,0.5,3.4,1.4c0.9,0.9,1.4,2,1.4,3.3
				c0,1.3-0.5,2.4-1.4,3.3s-2,1.4-3.4,1.4c-0.8,0-1.6-0.2-2.3-0.7c-0.8-0.4-1.3-1-1.7-1.8v6.2H54.5z M55.1,25.1
				c0,1.1,0.4,2.1,1.2,2.9c0.8,0.8,1.8,1.2,2.9,1.2c1.1,0,2.1-0.4,2.9-1.2c0.8-0.8,1.2-1.8,1.2-2.9c0-1.1-0.4-2.1-1.2-2.9
				c-0.8-0.8-1.8-1.2-2.9-1.2s-2.1,0.4-2.9,1.2C55.5,23,55.1,24,55.1,25.1z"/>
			<path d="M73.9,14.6h0.7c1.4,0,2.6,0.5,3.5,1.4c1,1,1.5,2.1,1.5,3.4c0,1.3-0.5,2.4-1.5,3.3s-2.1,1.4-3.3,1.4h-0.2v5.5h-0.7V14.6z
				 M74.6,23.6h0.2c1.1,0,2.1-0.4,2.9-1.2c0.8-0.8,1.2-1.8,1.2-2.9c0-1.1-0.4-2.1-1.3-3c-0.8-0.8-1.8-1.3-2.9-1.3h-0.2V23.6z"/>
			<path d="M85.3,29.2v0.6c-0.9,0-1.8-0.3-2.4-1c-0.7-0.6-1-1.4-1-2.4V14.6h0.6v11.8c0,0.8,0.3,1.5,0.8,2
				C83.8,29,84.5,29.2,85.3,29.2z"/>
			<path d="M95.4,20.6v9h-0.6v-2.2c-0.4,0.8-0.9,1.4-1.7,1.8s-1.5,0.7-2.4,0.7c-1.3,0-2.4-0.5-3.4-1.4c-0.9-0.9-1.4-2-1.4-3.3
				c0-1.3,0.5-2.4,1.4-3.3c0.9-0.9,2.1-1.4,3.4-1.4c0.9,0,1.7,0.2,2.5,0.7c0.8,0.5,1.3,1.1,1.6,1.8v-2.3H95.4z M86.6,25.1
				c0,1.1,0.4,2.1,1.2,2.9c0.8,0.8,1.8,1.2,2.9,1.2c1.1,0,2.1-0.4,2.9-1.2c0.8-0.8,1.2-1.8,1.2-2.9c0-1.1-0.4-2.1-1.2-2.9
				c-0.8-0.8-1.8-1.2-2.9-1.2s-2.1,0.4-2.9,1.2C87,23,86.6,24,86.6,25.1z"/>
			<path d="M101.5,29.2v0.6c-0.9,0-1.8-0.3-2.4-1c-0.7-0.6-1-1.4-1-2.4V17h0.6v3.6h2.8v0.6h-2.8v5.2c0,0.8,0.3,1.5,0.8,2
				C100,28.9,100.7,29.2,101.5,29.2z"/>
			<path d="M108,29.8h-0.2c-1.3,0-2.4-0.5-3.3-1.4c-0.9-1-1.4-2.1-1.4-3.3c0-1.3,0.5-2.4,1.4-3.3c0.9-0.9,2.1-1.4,3.5-1.4
				c1.4,0,2.6,0.5,3.5,1.6l-6.3,6.2c0.9,0.7,1.7,1,2.5,1c0.8,0,1.5-0.2,2.1-0.6c0.6-0.4,1.2-0.9,1.6-1.5v1
				C110.5,29.3,109.3,29.8,108,29.8z M107.8,21c-1.1,0-2,0.4-2.8,1.2c-0.8,0.8-1.2,1.8-1.2,2.8c0,1.1,0.4,2,1.1,2.8l5.8-5.8
				C109.8,21.3,108.8,21,107.8,21z"/>
		</g>
		<g>
			<path d="M303.5,15.9v2.4h-0.7v-2.4c0-0.6,0.2-1.2,0.5-1.6c0.3-0.4,0.8-0.8,1.4-0.9v0.7C303.9,14.4,303.5,15,303.5,15.9z
				 M306,15.9v2.4h-0.7v-2.4c0-0.6,0.2-1.2,0.5-1.6c0.3-0.4,0.8-0.8,1.4-0.9v0.7C306.4,14.4,306,15,306,15.9z"/>
			<path d="M310.2,14.6V29h4.6v0.6h-5.3v-15H310.2z"/>
			<path d="M317.3,15.7v-2.3h0.7v2.3c0,0.6-0.2,1.2-0.5,1.6s-0.8,0.8-1.4,0.9v-0.7C316.9,17.2,317.3,16.6,317.3,15.7z M319.8,15.7
				v-2.3h0.7v2.3c0,0.6-0.2,1.2-0.5,1.6s-0.8,0.8-1.4,0.9v-0.7C319.4,17.2,319.8,16.6,319.8,15.7z"/>
			<path d="M331.8,14.6h0.7c1.4,0,2.6,0.5,3.5,1.4c1,1,1.5,2.1,1.5,3.4c0,1.3-0.5,2.4-1.5,3.3s-2.1,1.4-3.3,1.4h-0.2v5.5h-0.7V14.6z
				 M332.5,23.6h0.2c1.1,0,2.1-0.4,2.9-1.2c0.8-0.8,1.2-1.8,1.2-2.9c0-1.1-0.4-2.1-1.3-3c-0.8-0.8-1.8-1.3-2.9-1.3h-0.2V23.6z"/>
			<path d="M343.2,29.2v0.6c-0.9,0-1.8-0.3-2.4-1s-1-1.4-1-2.4V14.6h0.6v11.8c0,0.8,0.3,1.5,0.8,2C341.7,29,342.4,29.2,343.2,29.2z"
				/>
			<path d="M353.3,20.6v9h-0.6v-2.2c-0.4,0.8-0.9,1.4-1.7,1.8c-0.7,0.4-1.5,0.7-2.4,0.7c-1.3,0-2.4-0.5-3.4-1.4
				c-0.9-0.9-1.4-2-1.4-3.3c0-1.3,0.5-2.4,1.4-3.3c0.9-0.9,2.1-1.4,3.4-1.4c0.9,0,1.7,0.2,2.5,0.7c0.8,0.5,1.3,1.1,1.6,1.8v-2.3
				H353.3z M344.5,25.1c0,1.1,0.4,2.1,1.2,2.9c0.8,0.8,1.8,1.2,2.9,1.2s2.1-0.4,2.9-1.2c0.8-0.8,1.2-1.8,1.2-2.9
				c0-1.1-0.4-2.1-1.2-2.9s-1.8-1.2-2.9-1.2s-2.1,0.4-2.9,1.2C344.9,23,344.5,24,344.5,25.1z"/>
			<path d="M359.4,29.2v0.6c-0.9,0-1.8-0.3-2.4-1c-0.7-0.6-1-1.4-1-2.4V17h0.6v3.6h2.8v0.6h-2.8v5.2c0,0.8,0.3,1.5,0.8,2
				C357.9,28.9,358.6,29.2,359.4,29.2z"/>
			<path d="M365.9,29.8h-0.2c-1.3,0-2.4-0.5-3.3-1.4c-0.9-1-1.4-2.1-1.4-3.3c0-1.3,0.5-2.4,1.4-3.3c0.9-0.9,2.1-1.4,3.5-1.4
				c1.4,0,2.6,0.5,3.5,1.6l-6.3,6.2c0.9,0.7,1.7,1,2.5,1s1.5-0.2,2.1-0.6c0.6-0.4,1.2-0.9,1.6-1.5v1
				C368.4,29.3,367.2,29.8,365.9,29.8z M365.7,21c-1.1,0-2,0.4-2.8,1.2c-0.8,0.8-1.2,1.8-1.2,2.8c0,1.1,0.4,2,1.1,2.8l5.8-5.8
				C367.7,21.3,366.7,21,365.7,21z"/>
		</g>
	</g>
	<g id="Graphic_2" class="st0">
		<g class="st2">
			<polygon class="st4" points="239.7,321.2 239.7,0.9 317.3,66.1 348.9,371.3 			"/>
			<path d="M240.7,3.1l75.6,63.5l31.4,303.1l-107-49.2V2.8 M238.7-1.2v323l111.4,51.2L318.3,65.6L238.7-1.2L238.7-1.2z"/>
		</g>
		<g class="st2">
			<polygon class="st4" points="133.1,328 175.3,304.5 178.1,233.4 140.6,255.9 152.1,145.4 188,116.1 188.6,68.9 157.4,94.7 
				160.4,66.1 237.7,0.9 237.7,321.2 128.6,371.3 			"/>
			<path d="M236.7,2.8v317.7l-106.9,49.2l4.3-41.1l41.2-23l1-0.5l0-1.1l2.7-68.6l0.1-3.7l-3.2,1.9L141.8,254L153.1,146l35.2-28.8
				l0.7-0.6l0-0.9l0.6-44.6l0.1-4.3l-3.3,2.8l-27.7,22.9l2.7-25.7l75.4-63.7 M238.7-1.2l-79.3,66.8L156.1,97l31.5-26l-0.6,44.6
				l-35.8,29.3l-11.7,112.9l37.6-22.6l-2.7,68.6l-42.2,23.5l-4.7,45.6l111.3-51.2V-1.2L238.7-1.2z"/>
		</g>
		<g class="st2">
			<polygon class="st4" points="129.3,373.2 238.7,322.9 348.4,373.3 343.2,378.4 238.7,330.6 135.3,378.4 			"/>
			<path d="M238.7,324l107.9,49.6l-3.6,3.6l-103.5-47.3l-0.8-0.4l-0.8,0.4l-102.4,47.3l-4.4-3.8L238.7,324 M238.7,321.8l-111.3,51.2
				l7.7,6.6l103.6-47.9l104.7,47.9l6.6-6.6L238.7,321.8L238.7,321.8z"/>
		</g>
		<g class="st2">
			<polygon class="st4" points="141.3,257.9 177.5,235.8 177.1,242.2 145.5,260.8 			"/>
			<path d="M176.4,237.7l-0.3,3.9l-30.6,18l-2.4-1.7L176.4,237.7 M178.7,234l-39.3,23.9l6,4.2l32.6-19.2L178.7,234L178.7,234z"/>
		</g>
		<g class="st2">
			<polygon class="st4" points="157.8,96.9 188.4,71.3 188.3,78.2 162.3,99.8 			"/>
			<path d="M187.4,73.4l0,4.3l-25.1,20.8l-2.7-1.8L187.4,73.4 M189.4,69.1L156.1,97l6.3,4l26.9-22.3L189.4,69.1L189.4,69.1z"/>
		</g>
		<g class="st2">
			<path d="M274.6,264.4c-0.5,0-1-0.1-1.6-0.2c-4.6-1.1-9.3-6.6-10.9-12.9c-1-3.8-0.6-7.2,1-9.3c1.1-1.4,2.6-2.1,4.4-2.1
				c0.6,0,1.2,0.1,1.9,0.3c4.8,1.3,9.6,7.4,10.9,13.8c0.7,3.5,0.2,6.4-1.3,8.4C277.9,263.7,276.3,264.4,274.6,264.4z"/>
			<path class="st4" d="M267.5,242c0.4,0,0.9,0.1,1.3,0.2c4.1,1.1,8.3,6.7,9.4,12.3c1,4.7-0.7,8-3.7,8c-0.4,0-0.7,0-1.1-0.1
				c-3.8-0.9-8-5.9-9.4-11.4C262.7,245.7,264.3,242,267.5,242 M267.5,238L267.5,238c-2.4,0-4.5,1-6,2.9c-2,2.6-2.5,6.5-1.3,11
				c1.8,6.9,7.1,13.1,12.4,14.3c0.7,0.2,1.4,0.2,2,0.2c2.3,0,4.4-1,5.9-2.8c2-2.4,2.6-5.9,1.8-10c-1.5-7.2-6.8-13.8-12.3-15.4
				C269.1,238.1,268.3,238,267.5,238L267.5,238z"/>
		</g>
		<g class="st2">
			<path d="M204.6,310.4c-1.7,0-3.2-0.7-4.3-2c-1.6-1.9-2-4.9-1.3-8.4c1.3-6.4,6.1-12.5,10.9-13.8c0.6-0.2,1.3-0.3,1.9-0.3
				c1.8,0,3.3,0.8,4.4,2.1c1.6,2.1,2,5.5,1,9.3c-1.6,6.3-6.3,11.8-10.9,12.9C205.6,310.4,205.1,310.4,204.6,310.4z"/>
			<path class="st4" d="M211.7,288c3.3,0,4.8,3.7,3.5,8.9c-1.4,5.5-5.7,10.5-9.4,11.4c-0.4,0.1-0.8,0.1-1.1,0.1c-3,0-4.6-3.2-3.7-8
				c1.1-5.6,5.3-11.2,9.4-12.3C210.8,288,211.2,288,211.7,288 M211.7,284c-0.8,0-1.6,0.1-2.4,0.3c-5.6,1.5-10.9,8.1-12.3,15.4
				c-0.8,4.1-0.2,7.6,1.8,10c1.5,1.8,3.5,2.8,5.9,2.8c0.7,0,1.3-0.1,2-0.2c5.3-1.2,10.6-7.4,12.4-14.3c1.2-4.5,0.7-8.4-1.3-11
				C216.2,285,214.1,284,211.7,284L211.7,284z"/>
		</g>
		<g class="st2">
			<path d="M210.3,49.8c-1.3,0-2.4-0.5-3.2-1.5c-0.7-0.9-1.5-2.7-0.7-5.8c1.1-4.8,5.4-10.8,9.9-12.2c0.6-0.2,1.1-0.3,1.6-0.3
				c1.4,0,2.6,0.6,3.3,1.7c1.2,1.7,1.1,4.5-0.1,7.7c-1.7,4.2-5.1,8.3-8.3,9.7C211.9,49.6,211.1,49.8,210.3,49.8L210.3,49.8z"/>
			<path class="st4" d="M217.9,32.1c2.3,0,2.8,2.9,1.3,6.7c-1.5,3.8-4.6,7.4-7.3,8.6c-0.6,0.3-1.2,0.4-1.7,0.4c-1.8,0-2.7-1.7-2-4.8
				c1.1-4.6,5.1-9.7,8.6-10.7C217.2,32.1,217.6,32.1,217.9,32.1 M217.9,28.1c-0.7,0-1.4,0.1-2.2,0.3c-5.4,1.6-10.1,8.3-11.3,13.7
				c-0.9,3.9,0.1,6.2,1.1,7.5c1.2,1.5,2.8,2.3,4.8,2.3c1.1,0,2.2-0.3,3.4-0.8c3.6-1.7,7.5-6.1,9.3-10.8c1.5-3.8,1.5-7.2-0.1-9.5
				C221.7,29,219.9,28.1,217.9,28.1L217.9,28.1z"/>
		</g>
		<path class="st12" d="M317.4,111.2"/>
		<path class="st12" d="M245.3,57.5"/>
		<g class="st2">
			<path d="M265.8,79.8c-0.8,0-1.7-0.2-2.5-0.6c-3.2-1.4-6.7-5.5-8.3-9.7c-1.3-3.2-1.3-5.9-0.1-7.7c0.8-1.1,1.9-1.7,3.3-1.7
				c0.5,0,1.1,0.1,1.6,0.3c4.5,1.4,8.8,7.4,9.9,12.2c0.7,3.1,0,4.8-0.7,5.8C268.3,79.2,267.1,79.8,265.8,79.8z"/>
			<path class="st4" d="M258.2,62.1c0.3,0,0.7,0.1,1.1,0.2c3.5,1,7.5,6.2,8.6,10.7c0.7,3.1-0.2,4.8-2,4.8c-0.5,0-1.1-0.1-1.7-0.4
				c-2.7-1.2-5.8-4.9-7.3-8.6C255.4,65,255.9,62.1,258.2,62.1 M258.2,58.1L258.2,58.1c-2,0-3.9,0.9-5,2.6c-1.6,2.3-1.6,5.7-0.1,9.5
				c1.9,4.7,5.7,9.1,9.3,10.8c1.1,0.5,2.3,0.8,3.4,0.8c1.9,0,3.6-0.8,4.8-2.3c1-1.3,2-3.6,1.1-7.5c-1.3-5.3-5.9-12-11.3-13.7
				C259.6,58.2,258.9,58.1,258.2,58.1L258.2,58.1z"/>
		</g>
		<path class="st12" d="M317.4,101"/>
		<path class="st12" d="M243.3,45.5"/>
		<g class="st2">
			<path d="M307.8,102.8c-0.8,0-1.7-0.2-2.5-0.6c-3.2-1.4-6.7-5.5-8.3-9.7c-1.3-3.2-1.3-5.9-0.1-7.7c0.8-1.1,1.9-1.7,3.3-1.7
				c0.5,0,1.1,0.1,1.6,0.3c4.5,1.4,8.8,7.4,9.9,12.2c0.7,3.1,0,4.8-0.7,5.8C310.3,102.2,309.1,102.8,307.8,102.8z"/>
			<path class="st4" d="M300.2,85.1c0.3,0,0.7,0.1,1.1,0.2c3.5,1,7.5,6.2,8.6,10.7c0.7,3.1-0.2,4.8-2,4.8c-0.5,0-1.1-0.1-1.7-0.4
				c-2.7-1.2-5.8-4.9-7.3-8.6C297.4,88,297.9,85.1,300.2,85.1 M300.2,81.1L300.2,81.1c-2,0-3.9,0.9-5,2.6c-1.6,2.3-1.6,5.7-0.1,9.5
				c1.9,4.7,5.7,9.1,9.3,10.8c1.1,0.5,2.3,0.8,3.4,0.8c1.9,0,3.6-0.8,4.8-2.3c1-1.3,2-3.6,1.1-7.5c-1.3-5.3-5.9-12-11.3-13.7
				C301.6,81.2,300.9,81.1,300.2,81.1L300.2,81.1z"/>
		</g>
		<path class="st12" d="M319.1,112.5"/>
		<path class="st12" d="M278.2,82"/>
		<g class="st2">
			<path d="M325.6,307.4c-0.5,0-1-0.1-1.6-0.2c-4.6-1.1-9.3-6.6-10.9-12.9c-1-3.8-0.6-7.2,1-9.3c1.1-1.4,2.6-2.1,4.4-2.1
				c0.6,0,1.2,0.1,1.9,0.3c4.8,1.3,9.6,7.4,10.9,13.8c0.7,3.5,0.2,6.4-1.3,8.4C328.9,306.7,327.3,307.4,325.6,307.4z"/>
			<path class="st4" d="M318.5,285c0.4,0,0.9,0.1,1.3,0.2c4.1,1.1,8.3,6.7,9.4,12.3c1,4.7-0.7,8-3.7,8c-0.4,0-0.7,0-1.1-0.1
				c-3.8-0.9-8-5.9-9.4-11.4C313.7,288.7,315.3,285,318.5,285 M318.5,281L318.5,281c-2.4,0-4.5,1-6,2.9c-2,2.6-2.5,6.5-1.3,11
				c1.8,6.9,7.1,13.1,12.4,14.3c0.7,0.2,1.4,0.2,2,0.2c2.3,0,4.4-1,5.9-2.8c2-2.4,2.6-5.9,1.8-10c-1.5-7.2-6.8-13.8-12.3-15.4
				C320.1,281.1,319.3,281,318.5,281L318.5,281z"/>
		</g>
	</g>
	<g id="Layer_9" class="st0">
		<line class="st13" x1="191.8" y1="331.1" x2="-51.7" y2="59"/>
		<line class="st13" x1="381.8" y1="233.8" x2="112.2" y2="5.7"/>
		<polyline class="st3" points="391.1,128.6 128.2,-103.3 -44.1,-35.9 184.9,219.1 		"/>
		<g class="st2">
			<path d="M385.2,137.9l-4.7,95.9L196,321.6l-6.3-101.1L385.2,137.9 M393.8,125.6l-212.4,89.7l7.4,118.6L388.2,239L393.8,125.6
				L393.8,125.6z"/>
		</g>
		<g class="st2">
			<path d="M385.2,138.8l-3.4,95l-184.6,86.6l-5.4-100.4L385.2,138.8 M393.6,126.6l-11.5,4.8l-193.3,81.2l-5.2,2.2l0.3,5.6
				l5.4,100.4l0.6,11.9l10.8-5l184.6-86.6l4.4-2.1l0.2-4.9l3.4-95L393.6,126.6L393.6,126.6z"/>
		</g>
	</g>
	<g id="Layer_11" class="st0">
		<g class="st2">
			<path d="M403.7,17.8v224.5L158,323.6l0-3.1l239.1-78l5.5-1.8l0-5.8l-0.5-216.8l1.6-0.4 M411.7,7.2L394.1,12l0.6,222.9L150,314.7
				l0,20l261.8-86.7V7.2L411.7,7.2z"/>
		</g>
		<line class="st13" x1="154.4" y1="318.2" x2="-28.4" y2="135.4"/>
		<line class="st13" x1="153.1" y1="331.8" x2="-10.1" y2="168.6"/>
		<line class="st13" x1="396.9" y1="237.2" x2="92.1" y2="-67.5"/>
		<line class="st13" x1="397.7" y1="15.4" x2="288.3" y2="-94"/>
		<line class="st13" x1="408.9" y1="10" x2="312.8" y2="-86"/>
	</g>
	<g id="Layer_10" class="st0">
		<g class="st2">
			<path d="M409.7,246.8v3.5l-206,72.2v-4l206-71.6 M417.7,235.8l-222,77v21l222-77.8V235.8L417.7,235.8z"/>
		</g>
		<line class="st13" x1="414.9" y1="238.6" x2="88.2" y2="-86.3"/>
		<line class="st13" x1="199" y1="316" x2="-34.4" y2="80.6"/>
		<line class="st13" x1="198.7" y1="330.9" x2="-56" y2="73.5"/>
	</g>
	<g id="Layer_6" class="st0">
		<g class="st2">
			<path d="M-9.9-62.8c6.5,0,13,1.7,18.6,4.9l387,287.8c1,0.9,9.2,8.2,14.9,19.2c7.9,15.4,7.4,30.7-1.5,45.5
				c-10,16.8-24.3,25.3-42.5,25.3c-11.4,0-20.8-3.4-23.5-4.5L-36,12l-0.3-0.2l-0.3-0.2c-8.7-5.8-14.6-15.1-16.3-25.4
				c-1.3-8.2,0.2-16.7,4.3-24l2.5-4.5c4.5-8.2,11.9-14.3,20.8-17.3l3.5-1.2C-18-62.1-14-62.8-9.9-62.8 M-9.9-70.8
				c-4.9,0-9.8,0.8-14.5,2.4l-3.5,1.2c-10.7,3.6-19.7,11.1-25.2,21l-2.5,4.5c-4.9,8.9-6.7,19.1-5.2,29.1v0
				c2,12.6,9.1,23.8,19.7,30.8l380,304.3c0,0,12.1,5.6,27.6,5.6c15.9,0,35.3-5.8,49.3-29.2c25.1-41.9-15.2-75.1-15.2-75.1L13.1-64.5
				C6.1-68.6-1.9-70.8-9.9-70.8L-9.9-70.8z"/>
		</g>
		<g class="st2">
			<path d="M371.1,223.1c10.4,0,19.8,3.8,25.2,7.3c10.2,6.7,28.3,34.8,12.5,64.7c-4.5,8.5-11.3,15-20.1,19.3
				c-9.5,4.6-19.1,5.6-25.4,5.6c-9.9,0-16.9-2.3-20-4.3c-5.9-3.8-34.1-24.9-10.1-67.6C342.5,231.5,355.2,223.1,371.1,223.1
				 M371.1,215.1c-15.4,0-32.5,6.9-44.9,29.1c-22.8,40.8-3.6,67.7,12.8,78.3c5.1,3.3,14.1,5.5,24.3,5.5c18.5,0,41.1-7.3,52.6-29.2
				c17.6-33.2-1.3-66-15.2-75.1C393.9,219.3,383.1,215.1,371.1,215.1L371.1,215.1z"/>
		</g>
	</g>
	<g id="Layer_7" class="st0">
		<g class="st2">
			<path d="M-25.1-37.1c6,0,12,1.6,17.2,4.6l368.2,243.7l1.6,8.2l-53.5,68L-49.4,31.2l-0.1-0.1l-0.1-0.1c-8-5.3-13.4-13.8-14.9-23.3
				c-1.2-7.5,0.2-15.3,3.9-22l2.3-4.2c4.2-7.5,10.9-13.1,19.1-15.9l3.2-1.1C-32.5-36.5-28.8-37.1-25.1-37.1 M-25.1-45.1
				c-4.6,0-9.1,0.7-13.5,2.2l-3.2,1.1c-10,3.4-18.4,10.3-23.5,19.6l-2.3,4.2C-72.3-9.9-74-0.3-72.5,9v0c1.8,11.7,8.5,22.1,18.4,28.7
				L310,298.4l60.5-76.9l-3-15.1L-3.6-39.3C-10.2-43.2-17.6-45.1-25.1-45.1L-25.1-45.1z"/>
		</g>
		<g class="st2">
			<path class="st4" d="M299.5,323.4c-3.7-3.3-5.4-8.4-4.4-13.3l13.6-70.6c0.8-4.4,3.5-8.2,7.3-10.6l60.9-38.2
				c1.2-0.8,2.7-1.2,4.2-1.2c1.2,0,2.3,0.3,3.3,0.8l27.6,12.4l-58.2,32c-12.9,7.1-21.8,19.5-24.3,34L317,340.1L299.5,323.4z"/>
			<path d="M381,193.5c0.6,0,1.1,0.1,1.6,0.4l0.1,0l0.1,0l20.2,9.1l-51.2,28.1c-14,7.7-23.6,21.1-26.3,36.8l-11.1,64.1l-12-11.5
				l-0.1-0.1l-0.1-0.1c-2.6-2.4-3.9-6-3.2-9.5l13.6-70.6c0.6-3.3,2.6-6.2,5.5-8l60.9-38.2C379.5,193.7,380.2,193.5,381,193.5
				 M381,185.5c-2.2,0-4.4,0.6-6.3,1.8l-60.9,38.2c-4.7,3-8,7.8-9.1,13.2l-13.6,70.6c-1.2,6.3,0.9,12.7,5.7,17l22.9,21.8l13.7-78.9
				c2.3-13.2,10.5-24.7,22.3-31.2l65.2-35.8L386,186.6C384.4,185.9,382.7,185.5,381,185.5L381,185.5z"/>
		</g>
		<g class="st2">
			<path d="M419.4,215.1L419.4,215.1c4.1,0,8.1,1.2,11.6,3.5l17.2,11.4c6.6,4.4,10.2,12,9.3,19.9l-6.4,57.7
				c-0.6,5.4-3.2,10.3-7.4,13.8l-54,45.2c-3.8,3.2-8.6,4.9-13.5,4.9c-4.1,0-8.1-1.2-11.5-3.4l-25.2-16.5
				c-6.8-4.4-10.5-12.5-9.3-20.6l9.3-65.7c0.9-6.6,5-12.4,10.8-15.5l59.1-32.1C412.4,216,415.9,215.1,419.4,215.1 M419.4,207.1
				c-4.8,0-9.5,1.2-13.9,3.5l-59.1,32.1c-8.1,4.4-13.6,12.3-14.9,21.5l-9.3,65.7c-1.6,11.2,3.4,22.2,12.9,28.4l25.2,16.5
				c4.8,3.2,10.4,4.7,15.9,4.7c6.7,0,13.3-2.3,18.6-6.8l54-45.2c5.7-4.8,9.4-11.6,10.2-19.1l6.4-57.7c1.2-10.8-3.8-21.4-12.9-27.4
				l-17.2-11.4C430.6,208.7,425,207.1,419.4,207.1L419.4,207.1z"/>
		</g>
		<g class="st2">
			<polygon points="322,328.4 319.7,348.2 331.8,355.8 322,328.4 			"/>
		</g>
		<g class="st2">
			<polygon class="st4" points="420.6,206.9 421.6,207.6 418.7,207.8 			"/>
			<polygon points="420.9,202.3 399,213 433.7,210.9 420.9,202.3 			"/>
		</g>
	</g>
	<g id="Layer_3" class="st0">
		<g class="st2">
			<path d="M59.5,23.9c6.1,0,12,1.6,17.3,4.6l283.6,182.8l1.6,8.2l-53.5,68L35.1,92.2L35,92.2l-0.1-0.1c-8-5.3-13.4-13.8-14.9-23.3
				c-1.2-7.5,0.2-15.3,3.9-22l2.3-4.2c4.2-7.5,10.9-13.1,19.1-15.9l3.2-1.1C52,24.5,55.7,23.9,59.5,23.9 M59.5,15.9
				c-4.6,0-9.1,0.7-13.5,2.2l-3.2,1.1c-10,3.4-18.4,10.3-23.5,19.6l-2.3,4.2C12.3,51.1,10.6,60.7,12,70v0
				c1.8,11.7,8.5,22.1,18.4,28.7L310,298.4l60.5-76.9l-3-15.1L80.9,21.7C74.3,17.8,66.9,15.9,59.5,15.9L59.5,15.9z"/>
		</g>
		<g class="st2">
			<path class="st4" d="M299.5,323.4c-3.7-3.3-5.4-8.4-4.4-13.3l12.1-62.7c1.8-9.4,7.5-17.8,15.7-22.9l54-33.9
				c1.2-0.8,2.7-1.2,4.2-1.2c1.2,0,2.3,0.3,3.3,0.8l27.6,12.4L342,241c-5.5,3-9.3,8.3-10.3,14.5L317,340.1L299.5,323.4z"/>
			<path d="M381,193.5c0.6,0,1.1,0.1,1.6,0.4l0.1,0l0.1,0l20.2,9.1l-62.8,34.5c-6.6,3.6-11.1,9.9-12.4,17.3l-13.4,77.3l-12-11.5
				l-0.1-0.1l-0.1-0.1c-2.6-2.4-3.9-6-3.2-9.5l12.1-62.7c1.6-8.3,6.7-15.7,13.9-20.2l54-33.9C379.5,193.7,380.2,193.5,381,193.5
				 M381,185.5c-2.2,0-4.4,0.6-6.3,1.8l-54,33.9c-9.1,5.7-15.4,15-17.5,25.5l-12.1,62.7c-1.2,6.3,0.9,12.7,5.7,17l22.9,21.8l16-92
				c0.9-4.9,3.9-9.2,8.3-11.6l76.9-42.2L386,186.6C384.4,185.9,382.7,185.5,381,185.5L381,185.5z"/>
		</g>
		<g>
			<path class="st2" d="M409.8,221.5c3.3,0,6.7,1.1,9.4,3.2l19.6,11.8c16.4,15.3,12.1,30.4,9.7,43.8l-8.2,35.2
				c-1.8,10.2-7.9,19.1-16.7,24.4l-25.4,15.6c-5.8,3.6-12.4,5.3-18.9,5.3c-8.3,0-16.5-2.8-23.2-8.4l-19.4-16.2
				c-4.5-3.7-6.5-9.7-5.2-15.4l13.6-58.9c1-4.2,3.7-7.9,7.4-10l49.5-28.2C404.6,222.2,407.2,221.5,409.8,221.5 M409.8,200.5
				c-6.3,0-12.6,1.7-18.1,4.8l-49.5,28.2c-8.8,5-15.2,13.6-17.5,23.5L311.2,316c-3.1,13.5,1.6,27.4,12.2,36.2l19.4,16.2
				c10.3,8.6,23.3,13.3,36.7,13.3c10.6,0,20.9-2.9,29.9-8.4l25.4-15.6c13.7-8.4,23.3-22.3,26.3-38.1l8.1-34.7l0.1-0.5l0.1-0.5
				c0.2-0.9,0.3-1.8,0.5-2.7c1.4-7.3,3.1-16.3,1.7-26.6c-1.7-12.6-7.9-23.9-18.2-33.5l-1.6-1.5l-1.9-1.1l-18.9-11.3
				C424.7,202.8,417.3,200.5,409.8,200.5L409.8,200.5z"/>
		</g>
		<g class="st2">
			<path d="M419.4,215.1L419.4,215.1c4.1,0,8.1,1.2,11.6,3.5l17.2,11.4c6.6,4.4,10.2,12,9.3,19.9l-6.4,57.7
				c-0.6,5.4-3.2,10.3-7.4,13.8l-54,45.2c-3.8,3.2-8.6,4.9-13.5,4.9c-4.1,0-8.1-1.2-11.5-3.4l-25.2-16.5
				c-6.8-4.4-10.5-12.5-9.3-20.6l9.3-65.7c0.9-6.6,5-12.4,10.8-15.5l59.1-32.1C412.4,216,415.9,215.1,419.4,215.1 M419.4,207.1
				c-4.8,0-9.5,1.2-13.9,3.5l-59.1,32.1c-8.1,4.4-13.6,12.3-14.9,21.5l-9.3,65.7c-1.6,11.2,3.4,22.2,12.9,28.4l25.2,16.5
				c4.8,3.2,10.4,4.7,15.9,4.7c6.7,0,13.3-2.3,18.6-6.8l54-45.2c5.7-4.8,9.4-11.6,10.2-19.1l6.4-57.7c1.2-10.8-3.8-21.4-12.9-27.4
				l-17.2-11.4C430.6,208.7,425,207.1,419.4,207.1L419.4,207.1z"/>
		</g>
		<g class="st2">
			<polygon points="322,328.4 319.7,348.2 331.8,355.8 322,328.4 			"/>
		</g>
		<g class="st2">
			<polygon class="st4" points="420.6,206.9 421.6,207.6 418.7,207.8 			"/>
			<polygon points="420.9,202.3 399,213 433.7,210.9 420.9,202.3 			"/>
		</g>
	</g>
	<g id="Layer_8" class="st0">
		<g class="st2">
			<path d="M232.7,141.8L232.7,141.8h0.4c34,0,65.1,5.1,92.5,14.9c22.9,8.2,42.8,19.8,57.7,33.4c14.7,13.5,23.9,28.8,24.6,40.8
				c1.1,19.5-5.6,37-19.8,52c-18.9,20-47.3,31.9-67.8,38.3c-27.1,8.4-53,11.6-68.3,11.6h-0.2c-48.8,0-94.3-11-128.2-30.8
				c-30.8-18-48.5-41.6-48.5-64.6c0-19.7,7.1-36.9,21-51.2c14.1-14.4,35.7-26.2,62.4-34c22.8-6.6,49.2-10.3,74.2-10.3 M232.8,133.8
				c-47.1,0-109.2,12.7-142.3,46.6c-14.4,14.7-23.3,33.5-23.3,56.9c0,52.9,78.4,103.4,184.7,103.4c0.1,0,0.1,0,0.2,0
				c49.3,0,168.3-27.8,163.8-110.1c-0.7-13.3-9.7-30.5-27.1-46.4c-28.8-26.4-80.5-50.4-155.6-50.4
				C233,133.8,232.9,133.8,232.8,133.8L232.8,133.8z"/>
		</g>
		<g class="st2">
			<path d="M235.7,114.8L235.7,114.8L235.7,114.8c44.8,0,73.4,12.6,89.5,23c9.1,5.9,16.6,12.7,21.7,19.8c4.3,5.9,6.8,11.7,7.1,16.5
				c0.7,12.9-3.6,24.2-13,34.2c-21.9,23.1-67.1,33.6-92.2,33.6h-0.1c-33.3,0-64.3-7.5-87.4-20.9c-20.5-12-32.3-27.5-32.3-42.5
				c0-20.8,12-37.2,35.4-48.6C183.3,120.4,209.7,114.9,235.7,114.8 M235.5,106.8c-46.7,0-114.5,18-114.5,71.5
				c0,36.6,54.2,71.5,127.7,71.5c0,0,0.1,0,0.1,0c34.1,0,116.3-19.3,113.2-76.2c-1.3-24.5-43.1-66.8-126.3-66.8
				C235.7,106.8,235.6,106.8,235.5,106.8L235.5,106.8z"/>
		</g>
		<path class="st13" d="M411.7,233.8l-1,20.7c-1,19.2-9.4,37.2-23.5,50.2c-22.5,20.7-65.8,49.1-148.4,48.7
			c-88.1-0.3-134-35.8-153.6-60.1c-7.7-9.6-12-21.4-12.4-33.7l-1-33.6"/>
		<path class="st3" d="M411.7,114.8l-1,20.7c-1,19.2-9.4,37.2-23.5,50.2c-22.5,20.7-65.8,49.1-148.4,48.7
			c-88.1-0.3-134-35.8-153.6-60.1c-7.7-9.6-12-21.4-12.4-33.7l-1-33.6"/>
		<g class="st2">
			<path class="st4" d="M251.9,217.8c-49.5,0-95.7-11.2-130.2-31.4c-32.1-18.7-50.5-43.6-50.5-68.1c0-33.2,18.6-59.3,55.3-77.2
				C155.2,27,194,18.8,232.8,18.8h0.3c66.7,0,109.5,18.9,133.6,34.5c26.4,17.1,44.1,40.1,45.1,58.4c1.1,20.6-5.9,39.1-20.9,55
				c-19.5,20.6-48.5,32.8-69.5,39.4c-27.5,8.6-53.9,11.8-69.4,11.8H251.9z"/>
			<path d="M232.7,22.8L232.7,22.8h0.4c65.7,0,107.7,18.5,131.4,33.9c13.5,8.7,24.7,19,32.4,29.5c6.6,9.1,10.5,18.2,10.9,25.7
				c1.1,19.5-5.6,37-19.8,52c-18.9,20-47.3,31.9-67.8,38.3c-27.1,8.4-53,11.6-68.3,11.6h-0.2c-48.8,0-94.3-11-128.2-30.8
				c-30.8-18-48.5-41.6-48.5-64.6c0-16.5,5-31.3,14.7-43.9c8.9-11.5,21.7-21.5,38.3-29.6c28.3-13.8,66.6-21.9,104.6-21.9
				 M232.8,14.8c-67.5,0-165.7,26.1-165.7,103.5c0,52.9,78.4,103.5,184.7,103.5c0.1,0,0.1,0,0.2,0c49.3,0,168.3-27.9,163.8-110.3
				c-1.9-35.4-62.3-96.7-182.7-96.7C233,14.8,232.9,14.8,232.8,14.8L232.8,14.8z"/>
		</g>
		<g class="st2">
			<path d="M235.7,59.8L235.7,59.8L235.7,59.8c43.6,0,71.3,12.1,86.8,22.2c17.6,11.4,26.1,24.8,26.5,32.3
				c0.6,11.5-3.2,21.5-11.7,30.4c-9.5,10-24.6,18.5-43.6,24.4c-17.9,5.6-35,7.6-45,7.6h-0.1h-0.1c-32.4,0-62.5-7.2-84.9-20.3
				c-19-11.1-29.8-25-29.8-38.2c0-9.8,2.8-18.3,8.6-25.8c5.4-7.1,13.6-13.2,24-18.3C184.9,65.2,210.7,59.9,235.7,59.8 M235.5,46.8
				c-46.7,0-114.5,18-114.5,71.5c0,36.6,54.2,71.5,127.7,71.5c0,0,0.1,0,0.1,0c34.1,0,116.3-19.3,113.2-76.2
				c-1.3-24.5-43.1-66.8-126.3-66.8C235.7,46.8,235.6,46.8,235.5,46.8L235.5,46.8z"/>
		</g>
		<g class="st2">
			<path d="M236.7,61.8c0,0,0.1,0,0.2,0c66,0,99.1,33.4,100.2,52.8c2.5,45.1-62.8,60.2-89.8,60.2c0,0-0.1,0-0.1,0
				c-58.3,0-101.3-27.5-101.3-56.5C145.9,75.9,199.7,61.8,236.7,61.8 M236.7,48.8L236.7,48.8c-23-0.1-47.2,4.9-65,13.6
				c-11.5,5.6-20.6,12.7-27.1,21.2c-7.8,10.1-11.7,21.7-11.7,34.7c0,19,12.8,37.3,35.2,50.3c21.2,12.4,49.3,19.1,79,19.1h0.1h0h0.1
				c22.6,0,64.5-8.7,87.2-32.6c11-11.7,16.4-25.9,15.6-41.4c-0.8-15.2-12.7-31.5-31.6-43.8c-15-9.7-41.2-21.2-81.5-21.2H236.7
				L236.7,48.8z"/>
		</g>
		<g class="st2">
			<path d="M240.7,86.8L240.7,86.8L240.7,86.8c21.1,0,34.5,5.9,42.1,10.8c8.8,5.7,12.3,12,12.4,14.8c0.3,5.2-1.5,9.8-5.3,13.9
				c-4.5,4.8-11.7,8.8-20.9,11.7c-8.7,2.7-17,3.7-21.8,3.7l0,8l-0.1-8c-31.6,0-55.2-14.4-55.2-27.3c0-8.7,5.1-15.5,15.3-20.5
				C216,89.5,228.7,86.9,240.7,86.8 M240.6,78.8c-23.1,0-56.7,9-56.7,35.5c0,18.1,26.8,35.5,63.2,35.5c0,0,0,0,0.1,0
				c16.9,0,57.6-9.6,56.1-37.8c-0.7-12.1-21.3-33.2-62.5-33.2C240.6,78.8,240.6,78.8,240.6,78.8L240.6,78.8z"/>
		</g>
	</g>
	<g id="Layer_5" class="st0">
		<g class="st2">
			<path class="st4" d="M193.3,343.3c-9.2,0-18.1-1.9-26.5-5.5l-13.2-5.8c-4.5-1.9-8.7-4.4-12.6-7.3l-56.2-41.2
				c-7.1-5.2-13-11.7-17.6-19.3l-2.9-4.8c-6.2-10.3-9.5-22.1-9.5-34.1v-65.2c0-10.1,2.4-20.2,6.8-29.2l8.6-17.4
				c1.6-3.3,3.5-6.4,5.6-9.4l25.8-36c3.3-4.6,7.2-8.7,11.5-12.3l4.5-3.8c5-4.1,10.6-7.5,16.5-10.1l3.8-1.6c6.6-2.8,13.6-4.5,20.8-5
				l70.5-5.3c1.6-0.1,3.3-0.2,5-0.2h47.7c4,0,8.1,0.4,12,1.1l10,1.8c7.3,1.3,14.2,3.9,20.7,7.5L343.3,51c2.6,1.4,5,3.1,7.4,4.9
				l18.7,14.2L392,86c4.9,3.4,9.3,7.5,13,12.1c10.6,12.9,15.9,29.1,15,45.7l-3.4,60.9c-0.4,6.8-1.8,13.5-4.2,19.8l-4,10.5
				c-0.9,2.3-1.9,4.6-3,6.8l-26.6,51.8c-6.7,13.1-17.8,23.7-31.2,29.9l-9.5,4.4c-7.1,3.3-14.7,5.2-22.4,5.9L198.5,343
				C196.8,343.2,195,343.3,193.3,343.3C193.3,343.3,193.3,343.3,193.3,343.3z"/>
			<path d="M281.8,33.9c3.8,0,7.6,0.3,11.3,1l10,1.8c6.8,1.3,13.4,3.6,19.4,7.1l18.8,10.7c2.4,1.4,4.7,2.9,6.9,4.6L367,73.3l0.1,0.1
				l0.1,0.1l22.5,15.8c4.6,3.2,8.7,7,12.2,11.3c9.9,12.1,14.9,27.3,14.1,43l-3.4,60.9c-0.4,6.4-1.7,12.7-3.9,18.6l-4,10.5
				c-0.8,2.2-1.8,4.3-2.8,6.4l-26.6,51.8c-6.3,12.3-16.7,22.3-29.3,28.1l-9.5,4.4c-6.7,3.1-13.8,4.9-21.1,5.5l-117.3,9.4
				c-1.6,0.1-3.3,0.2-4.9,0.2c-8.6,0-17-1.7-24.9-5.2l-13.2-5.8c-4.2-1.8-8.2-4.1-11.9-6.8L87,280.2c-6.7-4.9-12.3-11-16.5-18.1
				l-2.9-4.8c-5.8-9.7-8.9-20.8-8.9-32.1v-56.5v-8.7c0-9.5,2.2-19,6.4-27.5l8.6-17.4c1.5-3.1,3.3-6,5.3-8.8l25.8-36
				c3.1-4.3,6.7-8.2,10.8-11.6l4.5-3.8c4.7-3.9,9.9-7.1,15.5-9.4l3.8-1.6c6.2-2.6,12.8-4.2,19.5-4.7l70.5-5.3
				c1.5-0.1,3.1-0.2,4.7-0.2H281.8 M281.8,25.9h-47.7c-1.8,0-3.5,0.1-5.3,0.2l-70.5,5.3c-7.6,0.6-15,2.4-22.1,5.3l-3.8,1.6
				C126.2,41,120.3,44.6,115,49l-4.5,3.8c-4.6,3.8-8.7,8.2-12.2,13.1l-25.8,36c-2.3,3.1-4.2,6.5-5.9,9.9L58,129.1
				c-4.7,9.6-7.2,20.2-7.2,31v8.7v56.5c0,12.7,3.5,25.3,10,36.2l2.9,4.8c4.8,8,11.1,14.9,18.7,20.4l56.2,41.2
				c4.2,3.1,8.7,5.6,13.4,7.7l13.2,5.8c8.9,3.9,18.4,5.9,28.1,5.9c1.9,0,3.7-0.1,5.6-0.2l117.3-9.4c8.2-0.7,16.3-2.8,23.8-6.2
				l9.5-4.4c14.3-6.6,25.9-17.7,33.1-31.7l26.6-51.8c1.2-2.3,2.3-4.7,3.2-7.2l4-10.5c2.6-6.7,4.1-13.8,4.5-21L424,144
				c1-17.6-4.7-34.9-15.9-48.5l0,0c-4-4.9-8.7-9.2-13.8-12.8l-22.5-15.8l-18.7-14.2c-2.5-1.9-5.1-3.6-7.8-5.2l-18.8-10.7
				c-6.8-3.9-14.2-6.6-21.9-8l-10-1.8C290.4,26.3,286.1,25.9,281.8,25.9L281.8,25.9z"/>
		</g>
		<g class="st2">
			<path d="M227.8,97.5c0.5,0,1.1,0,1.6,0l23.1,1.1c1.3,0.1,2.5,0.2,3.7,0.4l19.4,3.1c1.3,0.2,2.7,0.5,4,0.9l20.3,5.9
				c2.5,0.7,4.8,1.7,7.1,2.9l17.5,9.7c3.4,1.9,6.5,4.4,9.1,7.3l8.4,9.4c2.7,3,4.8,6.4,6.4,10.1l3.5,8.4c1.9,4.6,2.9,9.5,2.9,14.5
				c0,8.4-2.8,16.5-7.9,23l-2,2.5c-2.4,3-5.2,5.6-8.3,7.6l-14.8,9.7c-0.7,0.5-1.4,0.9-2.1,1.3l-17.9,10c-3,1.7-6.3,2.9-9.6,3.6
				L263,235c-2.3,0.5-4.6,0.7-6.9,0.7h-30.8c-2.2,0-4.5-0.2-6.7-0.7l-30.7-6.2c-3.4-0.7-6.7-1.9-9.7-3.6l-22.9-12.7
				c-2.1-1.1-4-2.5-5.8-4l-10.7-9.2c-5.5-4.7-9.5-11.1-11.4-18.3l-1.4-5.4c-1.5-5.8-1.7-11.9-0.4-17.8l1.4-6.3
				c1.3-6,4.2-11.6,8.2-16.2l7.5-8.5c2.4-2.7,5.2-5.1,8.2-6.9l15.4-9.3c2.1-1.2,4.2-2.3,6.5-3.1l17.7-6.1c2.7-0.9,5.5-1.5,8.3-1.8
				l26.3-2.1C226,97.6,226.9,97.5,227.8,97.5 M227.8,83.5c-1.3,0-2.5,0.1-3.8,0.2l-26.3,2.1c-4,0.3-8,1.2-11.8,2.5l-17.7,6.1
				c-3.2,1.1-6.3,2.5-9.2,4.3l-15.4,9.3c-4.3,2.6-8.2,5.8-11.5,9.7l-7.5,8.5c-5.6,6.3-9.5,14.1-11.3,22.4l-1.4,6.3
				c-1.8,8-1.6,16.5,0.5,24.5l1.4,5.4c2.6,9.9,8.1,18.7,15.8,25.3l10.7,9.2c2.5,2.2,5.2,4.1,8.1,5.7l22.9,12.7
				c4.3,2.4,8.9,4.1,13.8,5.1l30.7,6.2c3.1,0.6,6.3,0.9,9.5,0.9h30.8c3.3,0,6.5-0.3,9.7-1l29.3-6.1c4.8-1,9.3-2.7,13.6-5.1l17.9-10
				c1-0.6,2-1.2,3-1.8l14.8-9.7c4.4-2.9,8.3-6.5,11.6-10.6l2-2.5c7-8.9,10.9-20.2,10.9-31.6c0-6.9-1.3-13.6-4-19.9l-3.5-8.4
				c-2.2-5.2-5.1-9.9-8.8-14l-8.4-9.4c-3.7-4.1-8-7.6-12.8-10.2l-17.5-9.7c-3.2-1.8-6.5-3.2-10-4.2l-20.3-5.9
				c-1.8-0.5-3.7-1-5.6-1.3l-19.4-3.1c-1.7-0.3-3.5-0.5-5.3-0.6l-23.1-1.1C229.3,83.5,228.5,83.5,227.8,83.5L227.8,83.5z"/>
		</g>
		<g class="st2">
			<path d="M227.8,122.8c0.5,0,1.1,0,1.6,0l23.1,1.1c1.3,0.1,2.5,0.2,3.7,0.4l19.4,3.1c1.3,0.2,2.7,0.5,4,0.9l20.3,5.9
				c2.5,0.7,4.8,1.7,7.1,2.9l17.5,9.7c3.4,1.9,6.5,4.4,9.1,7.3l8.4,9.4c2.7,3,4.8,6.4,6.4,10.1l3.5,8.4c1.9,4.6,2.9,9.5,2.9,14.5
				c0,8.4-2.8,16.5-7.9,23l-2,2.5c-2.4,3-5.2,5.6-8.3,7.6l-14.8,9.7c-0.7,0.5-1.4,0.9-2.1,1.3l-17.9,10c-3,1.7-6.3,2.9-9.6,3.6
				l-29.3,6.1c-2.3,0.5-4.6,0.7-6.9,0.7h-30.8c-2.2,0-4.5-0.2-6.7-0.7l-30.7-6.2c-3.4-0.7-6.7-1.9-9.7-3.6l-22.9-12.7
				c-2.1-1.1-4-2.5-5.8-4l-10.7-9.2c-5.5-4.7-9.5-11.1-11.4-18.3l-1.4-5.4c-1.5-5.8-1.7-11.9-0.4-17.8l1.4-6.3
				c1.3-6,4.2-11.6,8.2-16.2l7.5-8.5c2.4-2.7,5.2-5.1,8.2-6.9l15.4-9.3c2.1-1.2,4.2-2.3,6.5-3.1l17.7-6.1c2.7-0.9,5.5-1.5,8.3-1.8
				l26.3-2.1C226,122.8,226.9,122.8,227.8,122.8 M227.8,109.8c-1.2,0-2.5,0-3.7,0.1l-26.3,2.1c-3.9,0.3-7.8,1.1-11.6,2.4l-17.7,6.1
				c-3.1,1.1-6.1,2.5-9,4.2l-15.4,9.3c-4.2,2.5-8,5.7-11.3,9.5l-7.5,8.5c-5.4,6.2-9.3,13.8-11.1,21.9l-1.4,6.3
				c-1.8,7.9-1.6,16.2,0.5,24l1.4,5.4c2.6,9.7,7.9,18.3,15.5,24.8l10.7,9.2c2.5,2.1,5.1,4,7.9,5.5l22.9,12.7c4.2,2.3,8.8,4,13.5,5
				l30.7,6.2c3,0.6,6.2,0.9,9.3,0.9h30.8c3.2,0,6.4-0.3,9.5-1l29.3-6.1c4.7-1,9.1-2.6,13.3-5l17.9-10c1-0.6,2-1.2,2.9-1.8l14.8-9.7
				c4.3-2.8,8.1-6.3,11.4-10.4l2-2.5c6.9-8.7,10.7-19.8,10.7-31c0-6.8-1.3-13.3-3.9-19.5l-3.5-8.4c-2.1-5.1-5-9.7-8.7-13.7l-8.4-9.4
				c-3.6-4-7.8-7.4-12.5-10l-17.5-9.7c-3.1-1.7-6.4-3.1-9.8-4.1l-20.3-5.9c-1.8-0.5-3.7-0.9-5.5-1.2l-19.4-3.1
				c-1.7-0.3-3.4-0.5-5.2-0.5l-23.1-1.1C229.3,109.8,228.5,109.8,227.8,109.8L227.8,109.8z"/>
		</g>
		<g class="st2">
			<path d="M227.8,147.1c0.5,0,1.1,0,1.6,0l23.1,1.1c1.3,0.1,2.5,0.2,3.7,0.4l19.4,3.1c1.3,0.2,2.7,0.5,4,0.9l20.3,5.9
				c2.5,0.7,4.8,1.7,7.1,2.9l17.5,9.7c3.4,1.9,6.5,4.4,9.1,7.3l8.4,9.4c2.7,3,4.8,6.4,6.4,10.1l3.5,8.4c1.9,4.6,2.9,9.5,2.9,14.5
				c0,8.4-2.8,16.5-7.9,23l-2,2.5c-2.4,3-5.2,5.6-8.3,7.6l-14.8,9.7c-0.7,0.5-1.4,0.9-2.1,1.3l-17.9,10c-3,1.7-6.3,2.9-9.6,3.6
				l-29.3,6.1c-2.3,0.5-4.6,0.7-6.9,0.7h-30.8c-2.2,0-4.5-0.2-6.7-0.7l-30.7-6.2c-3.4-0.7-6.7-1.9-9.7-3.6l-22.9-12.7
				c-2.1-1.1-4-2.5-5.8-4l-10.7-9.2c-5.5-4.7-9.5-11.1-11.4-18.3l-1.4-5.4c-1.5-5.8-1.7-11.9-0.4-17.8l1.4-6.3
				c1.3-6,4.2-11.6,8.2-16.2l7.5-8.5c2.4-2.7,5.2-5.1,8.2-6.9l15.4-9.3c2.1-1.2,4.2-2.3,6.5-3.1l17.7-6.1c2.7-0.9,5.5-1.5,8.3-1.8
				l26.3-2.1C226,147.1,226.9,147.1,227.8,147.1 M227.8,134.1c-1.2,0-2.5,0-3.7,0.1l-26.3,2.1c-3.9,0.3-7.8,1.1-11.6,2.4l-17.7,6.1
				c-3.1,1.1-6.1,2.5-9,4.2l-15.4,9.3c-4.2,2.5-8,5.7-11.3,9.5l-7.5,8.5c-5.4,6.2-9.3,13.8-11.1,21.9l-1.4,6.3
				c-1.8,7.9-1.6,16.2,0.5,24l1.4,5.4c2.6,9.7,7.9,18.3,15.5,24.8l10.7,9.2c2.5,2.1,5.1,4,7.9,5.5l22.9,12.7c4.2,2.3,8.8,4,13.5,5
				l30.7,6.2c3,0.6,6.2,0.9,9.3,0.9h30.8c3.2,0,6.4-0.3,9.5-1l29.3-6.1c4.7-1,9.1-2.6,13.3-5l17.9-10c1-0.6,2-1.2,2.9-1.8l14.8-9.7
				c4.3-2.8,8.1-6.3,11.4-10.4l2-2.5c6.9-8.7,10.7-19.8,10.7-31c0-6.8-1.3-13.3-3.9-19.5l-3.5-8.4c-2.1-5.1-5-9.7-8.7-13.7l-8.4-9.4
				c-3.6-4-7.8-7.4-12.5-10l-17.5-9.7c-3.1-1.7-6.4-3.1-9.8-4.1l-20.3-5.9c-1.8-0.5-3.7-0.9-5.5-1.2l-19.4-3.1
				c-1.7-0.3-3.4-0.5-5.2-0.5l-23.1-1.1C229.3,134.1,228.5,134.1,227.8,134.1L227.8,134.1z"/>
		</g>
		<g class="st2">
			<path d="M227.8,168.5c0.5,0,1.1,0,1.6,0l23.1,1.1c1.3,0.1,2.5,0.2,3.7,0.4l19.4,3.1c1.3,0.2,2.7,0.5,4,0.9l20.3,5.9
				c2.5,0.7,4.8,1.7,7.1,2.9l17.5,9.7c3.4,1.9,6.5,4.4,9.1,7.3l8.4,9.4c2.7,3,4.8,6.4,6.4,10.1l3.5,8.4c1.9,4.6,2.9,9.5,2.9,14.5
				c0,8.4-2.8,16.5-7.9,23l-2,2.5c-2.4,3-5.2,5.6-8.3,7.6l-14.8,9.7c-0.7,0.5-1.4,0.9-2.1,1.3l-17.9,10c-3,1.7-6.3,2.9-9.6,3.6
				L263,306c-2.3,0.5-4.6,0.7-6.9,0.7h-30.8c-2.2,0-4.5-0.2-6.7-0.7l-30.7-6.2c-3.4-0.7-6.7-1.9-9.7-3.6l-22.9-12.7
				c-2.1-1.1-4-2.5-5.8-4l-10.7-9.2c-5.5-4.7-9.5-11.1-11.4-18.3l-1.4-5.4c-1.5-5.8-1.7-11.9-0.4-17.8l1.4-6.3
				c1.3-6,4.2-11.6,8.2-16.2l7.5-8.5c2.4-2.7,5.2-5.1,8.2-6.9l15.4-9.3c2.1-1.2,4.2-2.3,6.5-3.1l17.7-6.1c2.7-0.9,5.5-1.5,8.3-1.8
				l26.3-2.1C226,168.5,226.9,168.5,227.8,168.5 M227.8,155.5c-1.2,0-2.5,0-3.7,0.1l-26.3,2.1c-3.9,0.3-7.8,1.1-11.6,2.4l-17.7,6.1
				c-3.1,1.1-6.1,2.5-9,4.2l-15.4,9.3c-4.2,2.5-8,5.7-11.3,9.5l-7.5,8.5c-5.4,6.2-9.3,13.8-11.1,21.9l-1.4,6.3
				c-1.8,7.9-1.6,16.2,0.5,24l1.4,5.4c2.6,9.7,7.9,18.3,15.5,24.8l10.7,9.2c2.5,2.1,5.1,4,7.9,5.5l22.9,12.7c4.2,2.3,8.8,4,13.5,5
				l30.7,6.2c3,0.6,6.2,0.9,9.3,0.9h30.8c3.2,0,6.4-0.3,9.5-1l29.3-6.1c4.7-1,9.1-2.6,13.3-5l17.9-10c1-0.6,2-1.2,2.9-1.8l14.8-9.7
				c4.3-2.8,8.1-6.3,11.4-10.4l2-2.5c6.9-8.7,10.7-19.8,10.7-31c0-6.8-1.3-13.3-3.9-19.5l-3.5-8.4c-2.1-5.1-5-9.7-8.7-13.7l-8.4-9.4
				c-3.6-4-7.8-7.4-12.5-10l-17.5-9.7c-3.1-1.7-6.4-3.1-9.8-4.1l-20.3-5.9c-1.8-0.5-3.7-0.9-5.5-1.2l-19.4-3.1
				c-1.7-0.3-3.4-0.5-5.2-0.5l-23.1-1.1C229.3,155.5,228.5,155.5,227.8,155.5L227.8,155.5z"/>
		</g>
		<g class="st2">
			<path d="M227.8,186.9c0.5,0,1.1,0,1.6,0l23.1,1c1.3,0.1,2.5,0.2,3.7,0.3l19.4,2.7c1.3,0.2,2.7,0.4,4,0.8l20.3,5.1
				c2.5,0.6,4.8,1.5,7.1,2.6l17.5,8.4c3.4,1.6,6.5,3.8,9.1,6.3l8.4,8.1c2.7,2.6,4.8,5.5,6.4,8.8l3.5,7.3c1.9,4,2.9,8.2,2.9,12.5
				c0,7.3-2.8,14.3-7.9,19.9l-2,2.1c-2.4,2.6-5.2,4.8-8.3,6.6l-14.8,8.4c-0.7,0.4-1.4,0.8-2.1,1.1l-17.9,8.6c-3,1.5-6.3,2.5-9.6,3.1
				l-29.3,5.3c-2.3,0.4-4.6,0.6-6.9,0.6h-30.8c-2.2,0-4.5-0.2-6.7-0.6l-30.7-5.4c-3.4-0.6-6.7-1.6-9.7-3.1l-22.9-11
				c-2.1-1-4-2.2-5.8-3.5l-10.7-7.9c-5.5-4.1-9.5-9.6-11.4-15.8l-1.4-4.7c-1.5-5-1.7-10.3-0.4-15.4l1.4-5.4c1.3-5.2,4.2-10.1,8.2-14
				l7.5-7.4c2.4-2.4,5.2-4.4,8.2-6l15.4-8c2.1-1.1,4.2-2,6.5-2.6l17.7-5.3c2.7-0.8,5.5-1.3,8.3-1.5l26.3-1.8
				C226,187,226.9,186.9,227.8,186.9 M227.8,175.9c-1.1,0-2.3,0-3.4,0.1l-26.3,1.8c-3.7,0.3-7.3,0.9-10.7,2l-17.7,5.3
				c-2.9,0.9-5.8,2-8.4,3.4l-15.4,8c-4,2.1-7.7,4.8-10.9,7.9l-7.5,7.4c-5.4,5.4-9.3,12-11.1,19.1l-1.4,5.4c-1.8,7-1.6,14.4,0.5,21.4
				l1.4,4.7c2.6,8.5,7.9,15.9,15.3,21.4l10.7,7.9c2.4,1.8,4.9,3.3,7.6,4.6l22.9,11c4,1.9,8.2,3.3,12.6,4l30.7,5.4
				c2.8,0.5,5.7,0.7,8.6,0.7h30.8c3,0,5.9-0.3,8.8-0.8l29.3-5.3c4.3-0.8,8.5-2.1,12.5-4l17.9-8.6c0.9-0.5,1.9-0.9,2.8-1.5l14.8-8.4
				c4.2-2.4,7.9-5.3,11-8.8l2-2.1c7-7.6,10.8-17.3,10.8-27.3c0-6-1.4-11.9-4-17.3l-3.5-7.3c-2.1-4.4-5-8.4-8.6-11.9l-8.4-8.1
				c-3.5-3.4-7.5-6.2-12-8.4l-17.5-8.4c-2.9-1.4-6-2.5-9.2-3.3l-20.3-5.1c-1.7-0.4-3.4-0.8-5.1-1l-19.4-2.7
				c-1.6-0.2-3.2-0.4-4.8-0.4l-23.1-1C229.2,176,228.5,175.9,227.8,175.9L227.8,175.9z"/>
		</g>
		<polyline class="st1" points="59.6,171.3 98.6,283.2 188.9,337.7 219.2,333.3 261,333.5 308,328.5 375.6,289.7 399.1,207.7 
			400.1,100.1 403.4,107.9 400.6,118.5 389.9,142 368.6,177.6 350,189.8 327.3,199 305.2,202.5 220.4,212.5 189.4,208 147.5,194.7 
			89.9,157.9 71.3,144.8 		"/>
		<polygon class="st1" points="367.2,122.8 373.7,160.8 373.7,206.8 196.4,235.7 93.7,196 93.7,135.8 114,128.5 120.5,143.9 
			148.8,168.5 187.6,186.9 239.7,189.8 283.3,186.9 334.6,166.6 358.5,144.3 		"/>
		
			<image style="overflow:visible;" width="257" height="196" xlink:href="B6BD955B6B224C92.jpg"  transform="matrix(2.1456 0 0 2.1476 -34.0444 -20.6685)">
		</image>
		<g class="st2">
			<path class="st4" d="M221.7,197.4c-2.9,0-5.8-0.3-8.7-0.8l-36.4-7.1c-4.4-0.9-8.7-2.4-12.7-4.5l-27.1-14.5
				c-2.7-1.4-5.2-3.1-7.5-5L116.7,155c-7.2-5.9-12.3-13.8-14.8-22.8l-1.7-6.2c-2-7.2-2.2-14.9-0.5-22.3l1.7-7.1
				c1.7-7.5,5.4-14.5,10.6-20.2l8.8-9.7c3.1-3.4,6.7-6.3,10.7-8.6l18.2-10.6c2.7-1.6,5.5-2.8,8.4-3.8l21-7c3.5-1.2,7.2-1.9,10.8-2.2
				l31.1-2.4c1.1-0.1,2.3-0.1,3.5-0.1c0.7,0,1.4,0,2.1,0l27.4,1.3c1.6,0.1,3.3,0.2,4.8,0.5l23,3.6c1.7,0.3,3.5,0.6,5.2,1.1l24,6.7
				c3.2,0.9,6.3,2.1,9.2,3.7l20.7,11c4.4,2.4,8.4,5.5,11.9,9.1l9.9,10.7c3.5,3.7,6.2,8,8.3,12.7l4.2,9.6c2.5,5.7,3.8,11.8,3.8,18.1
				c0,10.4-3.6,20.6-10.3,28.7l-2.3,2.8c-3.1,3.7-6.7,6.9-10.8,9.5l-17.5,11.1c-0.9,0.6-1.8,1.1-2.8,1.6l-21.1,11.4
				c-3.9,2.1-8.1,3.6-12.5,4.5l-34.7,7c-2.9,0.6-5.9,0.9-8.9,0.9H221.7z M228.1,47.6c-0.7,0-1.4,0-2.1,0.1l-23.4,1.8
				c-2.2,0.2-4.4,0.6-6.5,1.3L180.5,56c-1.7,0.6-3.4,1.3-5,2.3l-13.6,7.9c-2.4,1.4-4.5,3.1-6.4,5.1l-6.6,7.3
				c-3.1,3.4-5.3,7.6-6.3,12l-1.2,5.4c-1,4.4-0.9,8.9,0.3,13.3l1.3,4.6c1.5,5.4,4.5,10.1,8.8,13.6l9.5,7.8c1.4,1.1,2.9,2.2,4.5,3
				l20.4,10.9c2.4,1.3,4.9,2.2,7.5,2.7l27.3,5.3c1.7,0.3,3.4,0.5,5.2,0.5h27.3c1.8,0,3.6-0.2,5.3-0.5l26-5.2
				c2.6-0.5,5.1-1.4,7.4-2.7l15.9-8.5c0.6-0.3,1.1-0.6,1.6-1l13.1-8.3c2.4-1.5,4.6-3.4,6.4-5.7l1.7-2.1c3.9-4.8,6.1-10.9,6.1-17.1
				c0-3.7-0.8-7.4-2.2-10.8l-3.1-7.2c-1.2-2.8-2.9-5.3-4.9-7.5l-7.4-8c-2-2.2-4.4-4-7.1-5.4l-15.5-8.3c-1.7-0.9-3.6-1.7-5.5-2.2
				l-18-5c-1-0.3-2-0.5-3.1-0.7l-17.2-2.7c-1-0.1-1.9-0.2-2.9-0.3l-20.5-1C229,47.6,228.6,47.6,228.1,47.6z"/>
			<path d="M224.6,36c0.6,0,1.3,0,1.9,0l27.4,1.3c1.5,0.1,3,0.2,4.4,0.4l23,3.6c1.6,0.2,3.2,0.6,4.7,1l24,6.7
				c2.9,0.8,5.7,1.9,8.4,3.4l20.7,11c4,2.2,7.7,5,10.8,8.3l9.9,10.7c3.1,3.4,5.7,7.3,7.5,11.5l4.2,9.6c2.3,5.2,3.4,10.8,3.4,16.5v0
				c0,9.5-3.3,18.8-9.4,26.2l-2.3,2.8c-2.8,3.4-6.1,6.3-9.8,8.7L336,168.7c-0.8,0.5-1.7,1-2.5,1.5l-21.1,11.4
				c-3.6,1.9-7.4,3.3-11.4,4.1l-34.7,7c-2.7,0.5-5.4,0.8-8.1,0.8h-36.4c-2.7,0-5.3-0.3-7.9-0.8l-36.4-7.1c-4-0.8-7.9-2.2-11.5-4.1
				L138.7,167c-2.4-1.3-4.7-2.8-6.8-4.6l-12.6-10.4c-6.5-5.4-11.2-12.7-13.5-20.8l-1.7-6.2c-1.8-6.6-2-13.6-0.4-20.3l1.7-7.1
				c1.6-6.9,4.9-13.2,9.7-18.4l8.8-9.7c2.8-3.1,6.1-5.8,9.7-7.9l18.2-10.6c2.4-1.4,5-2.6,7.7-3.5l21-7c3.2-1.1,6.5-1.7,9.9-2
				l31.1-2.4C222.5,36,223.6,36,224.6,36 M225.9,161.8h27.3c2,0,4.1-0.2,6.1-0.6l26-5.2c3-0.6,5.9-1.6,8.5-3.1l15.9-8.5
				c0.6-0.3,1.3-0.7,1.9-1.1l13.1-8.3c2.8-1.8,5.3-4,7.4-6.5l1.7-2.1c4.5-5.5,7-12.5,7-19.6v0c0-4.3-0.9-8.5-2.6-12.4l-3.1-7.2
				c-1.4-3.2-3.3-6.1-5.7-8.7l-7.4-8c-2.3-2.5-5.1-4.6-8.1-6.3l-15.5-8.3c-2-1.1-4.1-1.9-6.3-2.5l-18-5c-1.2-0.3-2.3-0.6-3.5-0.8
				l-17.2-2.7c-1.1-0.2-2.2-0.3-3.3-0.3l-20.5-1c-0.5,0-1,0-1.4,0c-0.8,0-1.6,0-2.4,0.1l-23.4,1.8c-2.5,0.2-5,0.7-7.4,1.5l-15.7,5.2
				c-2,0.7-3.9,1.5-5.8,2.6l-13.6,7.9c-2.7,1.6-5.2,3.6-7.3,5.9l-6.6,7.3c-3.6,3.9-6.1,8.7-7.3,13.8l-1.2,5.4
				c-1.2,5-1.1,10.3,0.3,15.2l1.3,4.6c1.7,6.1,5.2,11.6,10.1,15.6l9.5,7.8c1.6,1.3,3.3,2.5,5.1,3.4l20.4,10.9
				c2.7,1.5,5.6,2.5,8.7,3.1l27.3,5.3C222,161.6,224,161.8,225.9,161.8 M224.6,28c-1.3,0-2.5,0-3.8,0.1l-31.1,2.4
				c-4,0.3-8,1.1-11.8,2.4l-21,7c-3.2,1.1-6.3,2.5-9.2,4.2l-18.2,10.6c-4.3,2.5-8.3,5.7-11.6,9.4l-8.8,9.7
				c-5.7,6.2-9.7,13.8-11.6,22l-1.7,7.1c-1.8,8-1.7,16.3,0.5,24.2l1.7,6.2c2.7,9.8,8.3,18.4,16.1,24.8l12.6,10.4
				c2.5,2.1,5.3,3.9,8.2,5.5l27.1,14.5c4.3,2.3,9,4,13.8,4.9l36.4,7.1c3.1,0.6,6.3,0.9,9.4,0.9h36.4c3.3,0,6.5-0.3,9.7-1l34.7-7
				c4.8-1,9.3-2.6,13.6-4.9l21.1-11.4c1-0.5,2-1.1,3-1.8l17.5-11.1c4.4-2.8,8.4-6.3,11.7-10.4l2.3-2.8c7.2-8.8,11.2-19.9,11.2-31.2
				c0-6.8-1.4-13.4-4.1-19.7l-4.2-9.6c-2.2-5.1-5.2-9.7-9-13.8l-9.9-10.7c-3.7-4-8.1-7.4-12.9-10l-20.7-11c-3.2-1.7-6.6-3-10-4
				l-24-6.7c-1.8-0.5-3.7-0.9-5.6-1.2l-23-3.6c-1.7-0.3-3.5-0.4-5.3-0.5L226.9,28C226.1,28,225.4,28,224.6,28L224.6,28z
				 M225.9,153.8c-1.5,0-2.9-0.1-4.4-0.4l-27.3-5.3c-2.2-0.4-4.4-1.2-6.4-2.3l-20.4-10.9c-1.3-0.7-2.6-1.6-3.8-2.6l-9.5-7.8
				c-3.6-3-6.2-7-7.5-11.6l-1.3-4.6c-1-3.7-1.1-7.6-0.2-11.3l1.2-5.4c0.9-3.8,2.7-7.4,5.4-10.3l6.6-7.3c1.6-1.7,3.4-3.2,5.4-4.4
				l13.6-7.9c1.4-0.8,2.8-1.4,4.3-1.9l15.7-5.2c1.8-0.6,3.6-1,5.5-1.1l23.4-1.8c0.6,0,1.2-0.1,1.8-0.1c0.4,0,0.7,0,1.1,0l20.5,1
				c0.8,0,1.6,0.1,2.5,0.2l17.2,2.7c0.9,0.1,1.8,0.3,2.6,0.6l18,5c1.6,0.4,3.2,1.1,4.7,1.9l15.5,8.3c2.3,1.2,4.3,2.8,6,4.6l7.4,8
				c1.8,1.9,3.2,4.1,4.2,6.4l3.1,7.2c1.3,2.9,1.9,6,1.9,9.2c0,5.3-1.8,10.5-5.2,14.5l-1.7,2.1c-1.6,1.9-3.4,3.5-5.5,4.8l-13.1,8.3
				c-0.5,0.3-0.9,0.6-1.4,0.8l-15.9,8.5c-2,1.1-4.1,1.8-6.3,2.3l-26,5.2c-1.5,0.3-3,0.5-4.5,0.5H225.9L225.9,153.8z"/>
		</g>
		<g class="st2">
			<path d="M226,31.6c0.6,0,1.2,0,1.7,0l24.7,1.1c1.3,0.1,2.7,0.2,4,0.4l20.8,3.2c1.4,0.2,2.8,0.5,4.2,0.9l21.7,6
				c2.6,0.7,5.2,1.7,7.6,3l18.6,10c3.7,1.9,7,4.5,9.8,7.5l8.9,9.6c2.8,3.1,5.1,6.6,6.8,10.4l3.8,8.6c2.1,4.7,3.1,9.8,3.1,14.9v0
				c0,8.6-3,17-8.4,23.6l-2.1,2.5c-2.5,3.1-5.5,5.7-8.9,7.8l-15.8,10c-0.7,0.5-1.5,0.9-2.3,1.3l-19.1,10.3c-3.2,1.7-6.7,3-10.3,3.7
				l-31.3,6.3c-2.4,0.5-4.9,0.7-7.3,0.7h-32.9c-2.4,0-4.8-0.2-7.1-0.7l-32.8-6.4c-3.6-0.7-7.1-2-10.4-3.7l-24.5-13.1
				c-2.2-1.2-4.3-2.6-6.2-4.1l-11.4-9.4c-5.9-4.9-10.1-11.4-12.2-18.8l-1.5-5.6c-1.6-6-1.8-12.3-0.4-18.3l1.5-6.4
				c1.4-6.2,4.5-11.9,8.7-16.7l8-8.8c2.6-2.8,5.5-5.2,8.8-7.1l16.4-9.5c2.2-1.3,4.5-2.3,6.9-3.1l18.9-6.3c2.9-1,5.9-1.6,8.9-1.8
				l28.1-2.2C224.1,31.6,225,31.6,226,31.6 M226,23.6L226,23.6c-1.2,0-2.3,0-3.5,0.1l-28.1,2.2c-3.7,0.3-7.3,1-10.8,2.2l-18.9,6.3
				c-2.9,1-5.8,2.3-8.4,3.8l-16.4,9.5c-4,2.3-7.6,5.2-10.7,8.6l-8,8.8c-5.2,5.7-8.9,12.7-10.6,20.2l-1.5,6.4
				c-1.7,7.3-1.5,15,0.5,22.3l1.5,5.6c2.5,9,7.6,16.9,14.8,22.8l11.4,9.4c2.3,1.9,4.8,3.6,7.5,5l24.5,13.1c4,2.1,8.2,3.6,12.6,4.5
				l32.8,6.4c2.8,0.6,5.8,0.8,8.7,0.8h32.9c3,0,6-0.3,8.9-0.9l31.3-6.3c4.4-0.9,8.6-2.4,12.5-4.5l19.1-10.3c0.9-0.5,1.9-1,2.8-1.6
				l15.8-10c4.1-2.6,7.7-5.8,10.8-9.5l2.1-2.5c6.6-8.1,10.3-18.3,10.3-28.7c0-6.3-1.3-12.4-3.8-18.1l-3.8-8.6
				c-2-4.7-4.8-8.9-8.3-12.7l-8.9-9.6c-3.4-3.7-7.4-6.8-11.9-9.1l-18.6-10c-2.9-1.6-6-2.8-9.2-3.7l-21.7-6c-1.7-0.5-3.4-0.8-5.2-1.1
				l-20.8-3.2c-1.6-0.2-3.2-0.4-4.8-0.5l-24.7-1.1C227.4,23.6,226.7,23.6,226,23.6L226,23.6z"/>
		</g>
	</g>
	<g id="Layer_4" class="st0">
		<g class="st2">
			<path class="st4" d="M193.3,343.3c-9.2,0-18.1-1.9-26.5-5.5l-13.2-5.8c-4.5-1.9-8.7-4.4-12.6-7.3l-56.2-41.2
				c-7.1-5.2-13-11.7-17.6-19.3l-2.9-4.8c-6.2-10.3-9.5-22.1-9.5-34.1v-65.2c0-10.1,2.4-20.2,6.8-29.2l8.6-17.4
				c1.6-3.3,3.5-6.4,5.6-9.4l25.8-36c3.3-4.6,7.2-8.7,11.5-12.3l4.5-3.8c5-4.1,10.6-7.5,16.5-10.1l3.8-1.6c6.6-2.8,13.6-4.5,20.8-5
				l70.5-5.3c1.6-0.1,3.3-0.2,5-0.2h47.7c4,0,8.1,0.4,12,1.1l10,1.8c7.3,1.3,14.2,3.9,20.7,7.5L343.3,51c2.6,1.4,5,3.1,7.4,4.9
				l18.7,14.2L392,86c4.9,3.4,9.3,7.5,13,12.1c10.6,12.9,15.9,29.1,15,45.7l-3.4,60.9c-0.4,6.8-1.8,13.5-4.2,19.8l-4,10.5
				c-0.9,2.3-1.9,4.6-3,6.8l-26.6,51.8c-6.7,13.1-17.8,23.7-31.2,29.9l-9.5,4.4c-7.1,3.3-14.7,5.2-22.4,5.9L198.5,343
				C196.8,343.2,195,343.3,193.3,343.3C193.3,343.3,193.3,343.3,193.3,343.3z"/>
			<path d="M281.8,33.9c3.8,0,7.6,0.3,11.3,1l10,1.8c6.8,1.3,13.4,3.6,19.4,7.1l18.8,10.7c2.4,1.4,4.7,2.9,6.9,4.6L367,73.3l0.1,0.1
				l0.1,0.1l22.5,15.8c4.6,3.2,8.7,7,12.2,11.3c9.9,12.1,14.9,27.3,14.1,43l-3.4,60.9c-0.4,6.4-1.7,12.7-3.9,18.6l-4,10.5
				c-0.8,2.2-1.8,4.3-2.8,6.4l-26.6,51.8c-6.3,12.3-16.7,22.3-29.3,28.1l-9.5,4.4c-6.7,3.1-13.8,4.9-21.1,5.5l-117.3,9.4
				c-1.6,0.1-3.3,0.2-4.9,0.2c-8.6,0-17-1.7-24.9-5.2l-13.2-5.8c-4.2-1.8-8.2-4.1-11.9-6.8L87,280.2c-6.7-4.9-12.3-11-16.5-18.1
				l-2.9-4.8c-5.8-9.7-8.9-20.8-8.9-32.1v-56.5v-8.7c0-9.5,2.2-19,6.4-27.5l8.6-17.4c1.5-3.1,3.3-6,5.3-8.8l25.8-36
				c3.1-4.3,6.7-8.2,10.8-11.6l4.5-3.8c4.7-3.9,9.9-7.1,15.5-9.4l3.8-1.6c6.2-2.6,12.8-4.2,19.5-4.7l70.5-5.3
				c1.5-0.1,3.1-0.2,4.7-0.2H281.8 M281.8,25.9h-47.7c-1.8,0-3.5,0.1-5.3,0.2l-70.5,5.3c-7.6,0.6-15,2.4-22.1,5.3l-3.8,1.6
				C126.2,41,120.3,44.6,115,49l-4.5,3.8c-4.6,3.8-8.7,8.2-12.2,13.1l-25.8,36c-2.3,3.1-4.2,6.5-5.9,9.9L58,129.1
				c-4.7,9.6-7.2,20.2-7.2,31v8.7v56.5c0,12.7,3.5,25.3,10,36.2l2.9,4.8c4.8,8,11.1,14.9,18.7,20.4l56.2,41.2
				c4.2,3.1,8.7,5.6,13.4,7.7l13.2,5.8c8.9,3.9,18.4,5.9,28.1,5.9c1.9,0,3.7-0.1,5.6-0.2l117.3-9.4c8.2-0.7,16.3-2.8,23.8-6.2
				l9.5-4.4c14.3-6.6,25.9-17.7,33.1-31.7l26.6-51.8c1.2-2.3,2.3-4.7,3.2-7.2l4-10.5c2.6-6.7,4.1-13.8,4.5-21L424,144
				c1-17.6-4.7-34.9-15.9-48.5l0,0c-4-4.9-8.7-9.2-13.8-12.8l-22.5-15.8l-18.7-14.2c-2.5-1.9-5.1-3.6-7.8-5.2l-18.8-10.7
				c-6.8-3.9-14.2-6.6-21.9-8l-10-1.8C290.4,26.3,286.1,25.9,281.8,25.9L281.8,25.9z"/>
		</g>
		<g class="st2">
			<path d="M227.8,72.2c0.5,0,1.1,0,1.6,0l23.1,1.1c1.3,0.1,2.5,0.2,3.7,0.4l19.4,3.1c1.3,0.2,2.7,0.5,4,0.9l20.3,5.9
				c2.5,0.7,4.8,1.7,7.1,2.9l17.5,9.7c3.4,1.9,6.5,4.4,9.1,7.3l8.4,9.4c2.7,3,4.8,6.4,6.4,10.1l3.5,8.4c1.9,4.6,2.9,9.5,2.9,14.5
				c0,8.4-2.8,16.5-7.9,23l-2,2.5c-2.4,3-5.2,5.6-8.3,7.6l-14.8,9.7c-0.7,0.5-1.4,0.9-2.1,1.3l-17.9,10c-3,1.7-6.3,2.9-9.6,3.6
				l-29.3,6.1c-2.3,0.5-4.6,0.7-6.9,0.7h-30.8c-2.2,0-4.5-0.2-6.7-0.7l-30.7-6.2c-3.4-0.7-6.7-1.9-9.7-3.6l-22.9-12.7
				c-2.1-1.1-4-2.5-5.8-4l-10.7-9.2c-5.5-4.7-9.5-11.1-11.4-18.3l-1.4-5.4c-1.5-5.8-1.7-11.9-0.4-17.8l1.4-6.3
				c1.3-6,4.2-11.6,8.2-16.2l7.5-8.5c2.4-2.7,5.2-5.1,8.2-6.9l15.4-9.3c2.1-1.2,4.2-2.3,6.5-3.1l17.7-6.1c2.7-0.9,5.5-1.5,8.3-1.8
				l26.3-2.1C226,72.3,226.9,72.2,227.8,72.2 M227.8,60.2v12V60.2c-1.2,0-2.4,0-3.6,0.1l-26.3,2.1c-3.8,0.3-7.7,1.1-11.3,2.4
				L168.8,71c-3.1,1.1-6,2.4-8.8,4.1l-15.4,9.3c-4.1,2.5-7.8,5.6-11,9.3l-7.5,8.5c-5.3,6.1-9.1,13.5-10.9,21.5l-1.4,6.3
				c-1.7,7.7-1.6,15.9,0.5,23.5l1.4,5.4c2.5,9.5,7.8,17.9,15.2,24.3l10.7,9.2c2.4,2.1,5,3.9,7.8,5.4l22.9,12.7
				c4.1,2.3,8.6,3.9,13.2,4.9l30.7,6.2c3,0.6,6,0.9,9.1,0.9h30.8c3.1,0,6.3-0.3,9.3-1l29.3-6.1c4.6-1,8.9-2.6,13-4.9l17.9-10
				c1-0.5,1.9-1.1,2.9-1.7l14.8-9.7c4.2-2.8,8-6.2,11.1-10.2l2-2.5c6.8-8.6,10.5-19.4,10.5-30.4c0-6.6-1.3-13.1-3.8-19.1l-3.5-8.4
				c-2.1-5-4.9-9.5-8.5-13.5l-8.4-9.4c-3.5-4-7.7-7.3-12.3-9.8l-17.5-9.7c-3-1.7-6.3-3-9.6-4L283,66.3c-1.8-0.5-3.6-0.9-5.4-1.2
				l-19.4-3.1c-1.7-0.3-3.4-0.4-5.1-0.5L230,60.3C229.2,60.3,228.5,60.2,227.8,60.2L227.8,60.2z"/>
		</g>
		<g class="st2">
			<path d="M227.8,97.5c0.5,0,1.1,0,1.6,0l23.1,1.1c1.3,0.1,2.5,0.2,3.7,0.4l19.4,3.1c1.3,0.2,2.7,0.5,4,0.9l20.3,5.9
				c2.5,0.7,4.8,1.7,7.1,2.9l17.5,9.7c3.4,1.9,6.5,4.4,9.1,7.3l8.4,9.4c2.7,3,4.8,6.4,6.4,10.1l3.5,8.4c1.9,4.6,2.9,9.5,2.9,14.5
				c0,8.4-2.8,16.5-7.9,23l-2,2.5c-2.4,3-5.2,5.6-8.3,7.6l-14.8,9.7c-0.7,0.5-1.4,0.9-2.1,1.3l-17.9,10c-3,1.7-6.3,2.9-9.6,3.6
				L263,235c-2.3,0.5-4.6,0.7-6.9,0.7h-30.8c-2.2,0-4.5-0.2-6.7-0.7l-30.7-6.2c-3.4-0.7-6.7-1.9-9.7-3.6l-22.9-12.7
				c-2.1-1.1-4-2.5-5.8-4l-10.7-9.2c-5.5-4.7-9.5-11.1-11.4-18.3l-1.4-5.4c-1.5-5.8-1.7-11.9-0.4-17.8l1.4-6.3
				c1.3-6,4.2-11.6,8.2-16.2l7.5-8.5c2.4-2.7,5.2-5.1,8.2-6.9l15.4-9.3c2.1-1.2,4.2-2.3,6.5-3.1l17.7-6.1c2.7-0.9,5.5-1.5,8.3-1.8
				l26.3-2.1C226,97.6,226.9,97.5,227.8,97.5 M227.8,83.5c-1.3,0-2.5,0.1-3.8,0.2l-26.3,2.1c-4,0.3-8,1.2-11.8,2.5l-17.7,6.1
				c-3.2,1.1-6.3,2.5-9.2,4.3l-15.4,9.3c-4.3,2.6-8.2,5.8-11.5,9.7l-7.5,8.5c-5.6,6.3-9.5,14.1-11.3,22.4l-1.4,6.3
				c-1.8,8-1.6,16.5,0.5,24.5l1.4,5.4c2.6,9.9,8.1,18.7,15.8,25.3l10.7,9.2c2.5,2.2,5.2,4.1,8.1,5.7l22.9,12.7
				c4.3,2.4,8.9,4.1,13.8,5.1l30.7,6.2c3.1,0.6,6.3,0.9,9.5,0.9h30.8c3.3,0,6.5-0.3,9.7-1l29.3-6.1c4.8-1,9.3-2.7,13.6-5.1l17.9-10
				c1-0.6,2-1.2,3-1.8l14.8-9.7c4.4-2.9,8.3-6.5,11.6-10.6l2-2.5c7-8.9,10.9-20.2,10.9-31.6c0-6.9-1.3-13.6-4-19.9l-3.5-8.4
				c-2.2-5.2-5.1-9.9-8.8-14l-8.4-9.4c-3.7-4.1-8-7.6-12.8-10.2l-17.5-9.7c-3.2-1.8-6.5-3.2-10-4.2l-20.3-5.9
				c-1.8-0.5-3.7-1-5.6-1.3l-19.4-3.1c-1.7-0.3-3.5-0.5-5.3-0.6l-23.1-1.1C229.3,83.5,228.5,83.5,227.8,83.5L227.8,83.5z"/>
		</g>
		<g class="st2">
			<path d="M227.8,122.8c0.5,0,1.1,0,1.6,0l23.1,1.1c1.3,0.1,2.5,0.2,3.7,0.4l19.4,3.1c1.3,0.2,2.7,0.5,4,0.9l20.3,5.9
				c2.5,0.7,4.8,1.7,7.1,2.9l17.5,9.7c3.4,1.9,6.5,4.4,9.1,7.3l8.4,9.4c2.7,3,4.8,6.4,6.4,10.1l3.5,8.4c1.9,4.6,2.9,9.5,2.9,14.5
				c0,8.4-2.8,16.5-7.9,23l-2,2.5c-2.4,3-5.2,5.6-8.3,7.6l-14.8,9.7c-0.7,0.5-1.4,0.9-2.1,1.3l-17.9,10c-3,1.7-6.3,2.9-9.6,3.6
				l-29.3,6.1c-2.3,0.5-4.6,0.7-6.9,0.7h-30.8c-2.2,0-4.5-0.2-6.7-0.7l-30.7-6.2c-3.4-0.7-6.7-1.9-9.7-3.6l-22.9-12.7
				c-2.1-1.1-4-2.5-5.8-4l-10.7-9.2c-5.5-4.7-9.5-11.1-11.4-18.3l-1.4-5.4c-1.5-5.8-1.7-11.9-0.4-17.8l1.4-6.3
				c1.3-6,4.2-11.6,8.2-16.2l7.5-8.5c2.4-2.7,5.2-5.1,8.2-6.9l15.4-9.3c2.1-1.2,4.2-2.3,6.5-3.1l17.7-6.1c2.7-0.9,5.5-1.5,8.3-1.8
				l26.3-2.1C226,122.8,226.9,122.8,227.8,122.8 M227.8,109.8c-1.2,0-2.5,0-3.7,0.1l-26.3,2.1c-3.9,0.3-7.8,1.1-11.6,2.4l-17.7,6.1
				c-3.1,1.1-6.1,2.5-9,4.2l-15.4,9.3c-4.2,2.5-8,5.7-11.3,9.5l-7.5,8.5c-5.4,6.2-9.3,13.8-11.1,21.9l-1.4,6.3
				c-1.8,7.9-1.6,16.2,0.5,24l1.4,5.4c2.6,9.7,7.9,18.3,15.5,24.8l10.7,9.2c2.5,2.1,5.1,4,7.9,5.5l22.9,12.7c4.2,2.3,8.8,4,13.5,5
				l30.7,6.2c3,0.6,6.2,0.9,9.3,0.9h30.8c3.2,0,6.4-0.3,9.5-1l29.3-6.1c4.7-1,9.1-2.6,13.3-5l17.9-10c1-0.6,2-1.2,2.9-1.8l14.8-9.7
				c4.3-2.8,8.1-6.3,11.4-10.4l2-2.5c6.9-8.7,10.7-19.8,10.7-31c0-6.8-1.3-13.3-3.9-19.5l-3.5-8.4c-2.1-5.1-5-9.7-8.7-13.7l-8.4-9.4
				c-3.6-4-7.8-7.4-12.5-10l-17.5-9.7c-3.1-1.7-6.4-3.1-9.8-4.1l-20.3-5.9c-1.8-0.5-3.7-0.9-5.5-1.2l-19.4-3.1
				c-1.7-0.3-3.4-0.5-5.2-0.5l-23.1-1.1C229.3,109.8,228.5,109.8,227.8,109.8L227.8,109.8z"/>
		</g>
		<g class="st2">
			<path d="M227.8,147.1c0.5,0,1.1,0,1.6,0l23.1,1.1c1.3,0.1,2.5,0.2,3.7,0.4l19.4,3.1c1.3,0.2,2.7,0.5,4,0.9l20.3,5.9
				c2.5,0.7,4.8,1.7,7.1,2.9l17.5,9.7c3.4,1.9,6.5,4.4,9.1,7.3l8.4,9.4c2.7,3,4.8,6.4,6.4,10.1l3.5,8.4c1.9,4.6,2.9,9.5,2.9,14.5
				c0,8.4-2.8,16.5-7.9,23l-2,2.5c-2.4,3-5.2,5.6-8.3,7.6l-14.8,9.7c-0.7,0.5-1.4,0.9-2.1,1.3l-17.9,10c-3,1.7-6.3,2.9-9.6,3.6
				l-29.3,6.1c-2.3,0.5-4.6,0.7-6.9,0.7h-30.8c-2.2,0-4.5-0.2-6.7-0.7l-30.7-6.2c-3.4-0.7-6.7-1.9-9.7-3.6l-22.9-12.7
				c-2.1-1.1-4-2.5-5.8-4l-10.7-9.2c-5.5-4.7-9.5-11.1-11.4-18.3l-1.4-5.4c-1.5-5.8-1.7-11.9-0.4-17.8l1.4-6.3
				c1.3-6,4.2-11.6,8.2-16.2l7.5-8.5c2.4-2.7,5.2-5.1,8.2-6.9l15.4-9.3c2.1-1.2,4.2-2.3,6.5-3.1l17.7-6.1c2.7-0.9,5.5-1.5,8.3-1.8
				l26.3-2.1C226,147.1,226.9,147.1,227.8,147.1 M227.8,134.1c-1.2,0-2.5,0-3.7,0.1l-26.3,2.1c-3.9,0.3-7.8,1.1-11.6,2.4l-17.7,6.1
				c-3.1,1.1-6.1,2.5-9,4.2l-15.4,9.3c-4.2,2.5-8,5.7-11.3,9.5l-7.5,8.5c-5.4,6.2-9.3,13.8-11.1,21.9l-1.4,6.3
				c-1.8,7.9-1.6,16.2,0.5,24l1.4,5.4c2.6,9.7,7.9,18.3,15.5,24.8l10.7,9.2c2.5,2.1,5.1,4,7.9,5.5l22.9,12.7c4.2,2.3,8.8,4,13.5,5
				l30.7,6.2c3,0.6,6.2,0.9,9.3,0.9h30.8c3.2,0,6.4-0.3,9.5-1l29.3-6.1c4.7-1,9.1-2.6,13.3-5l17.9-10c1-0.6,2-1.2,2.9-1.8l14.8-9.7
				c4.3-2.8,8.1-6.3,11.4-10.4l2-2.5c6.9-8.7,10.7-19.8,10.7-31c0-6.8-1.3-13.3-3.9-19.5l-3.5-8.4c-2.1-5.1-5-9.7-8.7-13.7l-8.4-9.4
				c-3.6-4-7.8-7.4-12.5-10l-17.5-9.7c-3.1-1.7-6.4-3.1-9.8-4.1l-20.3-5.9c-1.8-0.5-3.7-0.9-5.5-1.2l-19.4-3.1
				c-1.7-0.3-3.4-0.5-5.2-0.5l-23.1-1.1C229.3,134.1,228.5,134.1,227.8,134.1L227.8,134.1z"/>
		</g>
		<g class="st2">
			<path d="M227.8,168.5c0.5,0,1.1,0,1.6,0l23.1,1.1c1.3,0.1,2.5,0.2,3.7,0.4l19.4,3.1c1.3,0.2,2.7,0.5,4,0.9l20.3,5.9
				c2.5,0.7,4.8,1.7,7.1,2.9l17.5,9.7c3.4,1.9,6.5,4.4,9.1,7.3l8.4,9.4c2.7,3,4.8,6.4,6.4,10.1l3.5,8.4c1.9,4.6,2.9,9.5,2.9,14.5
				c0,8.4-2.8,16.5-7.9,23l-2,2.5c-2.4,3-5.2,5.6-8.3,7.6l-14.8,9.7c-0.7,0.5-1.4,0.9-2.1,1.3l-17.9,10c-3,1.7-6.3,2.9-9.6,3.6
				L263,306c-2.3,0.5-4.6,0.7-6.9,0.7h-30.8c-2.2,0-4.5-0.2-6.7-0.7l-30.7-6.2c-3.4-0.7-6.7-1.9-9.7-3.6l-22.9-12.7
				c-2.1-1.1-4-2.5-5.8-4l-10.7-9.2c-5.5-4.7-9.5-11.1-11.4-18.3l-1.4-5.4c-1.5-5.8-1.7-11.9-0.4-17.8l1.4-6.3
				c1.3-6,4.2-11.6,8.2-16.2l7.5-8.5c2.4-2.7,5.2-5.1,8.2-6.9l15.4-9.3c2.1-1.2,4.2-2.3,6.5-3.1l17.7-6.1c2.7-0.9,5.5-1.5,8.3-1.8
				l26.3-2.1C226,168.5,226.9,168.5,227.8,168.5 M227.8,155.5c-1.2,0-2.5,0-3.7,0.1l-26.3,2.1c-3.9,0.3-7.8,1.1-11.6,2.4l-17.7,6.1
				c-3.1,1.1-6.1,2.5-9,4.2l-15.4,9.3c-4.2,2.5-8,5.7-11.3,9.5l-7.5,8.5c-5.4,6.2-9.3,13.8-11.1,21.9l-1.4,6.3
				c-1.8,7.9-1.6,16.2,0.5,24l1.4,5.4c2.6,9.7,7.9,18.3,15.5,24.8l10.7,9.2c2.5,2.1,5.1,4,7.9,5.5l22.9,12.7c4.2,2.3,8.8,4,13.5,5
				l30.7,6.2c3,0.6,6.2,0.9,9.3,0.9h30.8c3.2,0,6.4-0.3,9.5-1l29.3-6.1c4.7-1,9.1-2.6,13.3-5l17.9-10c1-0.6,2-1.2,2.9-1.8l14.8-9.7
				c4.3-2.8,8.1-6.3,11.4-10.4l2-2.5c6.9-8.7,10.7-19.8,10.7-31c0-6.8-1.3-13.3-3.9-19.5l-3.5-8.4c-2.1-5.1-5-9.7-8.7-13.7l-8.4-9.4
				c-3.6-4-7.8-7.4-12.5-10l-17.5-9.7c-3.1-1.7-6.4-3.1-9.8-4.1l-20.3-5.9c-1.8-0.5-3.7-0.9-5.5-1.2l-19.4-3.1
				c-1.7-0.3-3.4-0.5-5.2-0.5l-23.1-1.1C229.3,155.5,228.5,155.5,227.8,155.5L227.8,155.5z"/>
		</g>
		<g class="st2">
			<path d="M227.8,186.9c0.5,0,1.1,0,1.6,0l23.1,1c1.3,0.1,2.5,0.2,3.7,0.3l19.4,2.7c1.3,0.2,2.7,0.4,4,0.8l20.3,5.1
				c2.5,0.6,4.8,1.5,7.1,2.6l17.5,8.4c3.4,1.6,6.5,3.8,9.1,6.3l8.4,8.1c2.7,2.6,4.8,5.5,6.4,8.8l3.5,7.3c1.9,4,2.9,8.2,2.9,12.5
				c0,7.3-2.8,14.3-7.9,19.9l-2,2.1c-2.4,2.6-5.2,4.8-8.3,6.6l-14.8,8.4c-0.7,0.4-1.4,0.8-2.1,1.1l-17.9,8.6c-3,1.5-6.3,2.5-9.6,3.1
				l-29.3,5.3c-2.3,0.4-4.6,0.6-6.9,0.6h-30.8c-2.2,0-4.5-0.2-6.7-0.6l-30.7-5.4c-3.4-0.6-6.7-1.6-9.7-3.1l-22.9-11
				c-2.1-1-4-2.2-5.8-3.5l-10.7-7.9c-5.5-4.1-9.5-9.6-11.4-15.8l-1.4-4.7c-1.5-5-1.7-10.3-0.4-15.4l1.4-5.4c1.3-5.2,4.2-10.1,8.2-14
				l7.5-7.4c2.4-2.4,5.2-4.4,8.2-6l15.4-8c2.1-1.1,4.2-2,6.5-2.6l17.7-5.3c2.7-0.8,5.5-1.3,8.3-1.5l26.3-1.8
				C226,187,226.9,186.9,227.8,186.9 M227.8,175.9c-1.1,0-2.3,0-3.4,0.1l-26.3,1.8c-3.7,0.3-7.3,0.9-10.7,2l-17.7,5.3
				c-2.9,0.9-5.8,2-8.4,3.4l-15.4,8c-4,2.1-7.7,4.8-10.9,7.9l-7.5,7.4c-5.4,5.4-9.3,12-11.1,19.1l-1.4,5.4c-1.8,7-1.6,14.4,0.5,21.4
				l1.4,4.7c2.6,8.5,7.9,15.9,15.3,21.4l10.7,7.9c2.4,1.8,4.9,3.3,7.6,4.6l22.9,11c4,1.9,8.2,3.3,12.6,4l30.7,5.4
				c2.8,0.5,5.7,0.7,8.6,0.7h30.8c3,0,5.9-0.3,8.8-0.8l29.3-5.3c4.3-0.8,8.5-2.1,12.5-4l17.9-8.6c0.9-0.5,1.9-0.9,2.8-1.5l14.8-8.4
				c4.2-2.4,7.9-5.3,11-8.8l2-2.1c7-7.6,10.8-17.3,10.8-27.3c0-6-1.4-11.9-4-17.3l-3.5-7.3c-2.1-4.4-5-8.4-8.6-11.9l-8.4-8.1
				c-3.5-3.4-7.5-6.2-12-8.4l-17.5-8.4c-2.9-1.4-6-2.5-9.2-3.3l-20.3-5.1c-1.7-0.4-3.4-0.8-5.1-1l-19.4-2.7
				c-1.6-0.2-3.2-0.4-4.8-0.4l-23.1-1C229.2,176,228.5,175.9,227.8,175.9L227.8,175.9z"/>
		</g>
		<polyline class="st1" points="59.6,171.3 98.6,283.2 188.9,337.7 219.2,333.3 261,333.5 308,328.5 375.6,289.7 399.1,207.7 
			400.1,100.1 403.4,107.9 400.6,118.5 389.9,142 368.6,177.6 350,189.8 327.3,199 305.2,202.5 220.4,212.5 189.4,208 147.5,194.7 
			89.9,157.9 71.3,144.8 		"/>
		<polygon class="st1" points="360.2,120.8 375.7,139.7 366.7,204.8 189.4,233.7 86.7,194 86.7,133.8 118.1,107.3 126.3,137.8 
			146.8,159.4 181.8,178.8 232.7,187.8 276.3,184.9 327.6,164.6 351.5,142.3 		"/>
		<g class="st2">
			<path d="M226.9,50.7c0.5,0,1.1,0,1.6,0l22.9,1.1c1.2,0.1,2.5,0.2,3.7,0.4l19.3,3c1.3,0.2,2.6,0.5,3.9,0.8l20.2,5.6
				c2.4,0.7,4.8,1.6,7,2.8l17.3,9.2c3.4,1.8,6.5,4.2,9.1,7l8.3,9c2.6,2.8,4.8,6.1,6.3,9.7l3.5,8c1.9,4.4,2.9,9.1,2.9,13.8
				c0,8-2.8,15.7-7.8,21.9l-1.9,2.4c-2.3,2.9-5.1,5.3-8.2,7.3l-14.7,9.3c-0.7,0.4-1.4,0.8-2.1,1.2l-17.7,9.5c-3,1.6-6.2,2.8-9.5,3.4
				l-29.1,5.8c-2.2,0.5-4.5,0.7-6.8,0.7h-30.5c-2.2,0-4.4-0.2-6.6-0.6l-30.5-5.9c-3.4-0.7-6.6-1.8-9.7-3.4l-22.8-12.2
				c-2-1.1-4-2.4-5.7-3.8l-10.6-8.7c-5.5-4.5-9.4-10.6-11.3-17.4l-1.4-5.2c-1.5-5.6-1.7-11.4-0.3-17l1.4-6
				c1.3-5.8,4.1-11.1,8.1-15.5l7.4-8.1c2.4-2.6,5.1-4.8,8.2-6.6l15.2-8.9c2-1.2,4.2-2.2,6.5-2.9l17.6-5.9c2.7-0.9,5.5-1.5,8.3-1.7
				l26.1-2C225.1,50.7,226,50.7,226.9,50.7 M226.9,42.7L226.9,42.7c-1.1,0-2.2,0-3.3,0.1l-26.1,2c-3.5,0.3-6.9,1-10.2,2.1l-17.6,5.9
				c-2.8,0.9-5.4,2.1-7.9,3.6l-15.2,8.9c-3.8,2.2-7.1,4.9-10.1,8.1l-7.4,8.1c-4.9,5.4-8.4,12-10,19l-1.4,6
				c-1.6,6.9-1.4,14.1,0.4,20.9l1.4,5.2c2.3,8.5,7.1,15.9,13.9,21.5l10.6,8.7c2.2,1.8,4.6,3.4,7.1,4.7l22.8,12.2
				c3.7,2,7.7,3.4,11.9,4.2l30.5,5.9c2.7,0.5,5.4,0.8,8.1,0.8H255c2.8,0,5.6-0.3,8.4-0.8l29.1-5.8c4.1-0.8,8.1-2.3,11.8-4.2
				l17.7-9.5c0.9-0.5,1.8-1,2.6-1.5l14.7-9.3c3.8-2.4,7.3-5.4,10.1-9l1.9-2.4c6.2-7.6,9.7-17.2,9.7-27c0-5.9-1.2-11.6-3.6-17l-3.5-8
				c-1.9-4.4-4.5-8.4-7.8-11.9l-8.3-9c-3.2-3.5-7-6.4-11.2-8.6l-17.3-9.2c-2.7-1.5-5.7-2.6-8.7-3.5l-20.2-5.6
				c-1.6-0.4-3.2-0.8-4.9-1l-19.3-3c-1.5-0.2-3-0.4-4.6-0.5l-22.9-1.1C228.2,42.7,227.6,42.7,226.9,42.7L226.9,42.7z"/>
		</g>
		
			<image style="overflow:visible;" width="257" height="196" xlink:href="B6BD955B6B224C9E.jpg"  transform="matrix(2.1456 0 0 2.1476 -34.0444 -20.6685)">
		</image>
	</g>
	<g id="Layer_12" class="st0">
		<path class="st3" d="M408.7,200.8l-1,20.7c-1,19.2-9.4,37.2-23.5,50.2c-22.5,20.7-65.8,49.1-148.4,48.7
			c-88.1-0.3-134-35.8-153.6-60.1c-7.7-9.6-12-21.4-12.4-33.7l-1-33.6"/>
		<g class="st2">
			<path class="st4" d="M248.9,303.8c-49.5,0-95.7-11.2-130.2-31.4c-32.1-18.7-50.5-43.6-50.5-68.1c0-33.2,18.6-59.3,55.3-77.2
				c28.8-14.1,67.6-22.3,106.4-22.3h0.3c66.7,0,109.5,18.9,133.6,34.5c26.4,17.1,44.1,40.1,45.1,58.4c1.1,20.6-5.9,39.1-20.9,55
				c-19.5,20.6-48.5,32.8-69.5,39.4c-27.5,8.6-53.9,11.8-69.4,11.8H248.9z"/>
			<path d="M229.7,108.8L229.7,108.8h0.4c65.7,0,107.7,18.5,131.4,33.9c13.5,8.7,24.7,19,32.4,29.5c6.6,9.1,10.5,18.2,10.9,25.7
				c1.1,19.5-5.6,37-19.8,52c-18.9,20-47.3,31.9-67.8,38.3c-27.1,8.4-53,11.6-68.3,11.6h-0.2c-48.8,0-94.3-11-128.2-30.8
				c-30.8-18-48.5-41.6-48.5-64.6c0-16.5,5-31.3,14.7-43.9c8.9-11.5,21.7-21.5,38.3-29.6c28.3-13.8,66.6-21.9,104.6-21.9
				 M229.8,100.8c-67.5,0-165.7,26.1-165.7,103.5c0,52.9,78.4,103.5,184.7,103.5c0.1,0,0.1,0,0.2,0c49.3,0,168.3-27.9,163.8-110.3
				c-1.9-35.4-62.3-96.7-182.7-96.7C230,100.8,229.9,100.8,229.8,100.8L229.8,100.8z"/>
		</g>
		<g class="st2">
			<path d="M237.7,172.8L237.7,172.8L237.7,172.8c21.1,0,34.5,5.9,42.1,10.8c8.8,5.7,12.3,12,12.4,14.8c0.3,5.2-1.5,9.8-5.3,13.9
				c-4.5,4.8-11.7,8.8-20.9,11.7c-8.7,2.7-17,3.7-21.8,3.7l0,8l-0.1-8c-31.6,0-55.2-14.4-55.2-27.3c0-8.7,5.1-15.5,15.3-20.5
				C213,175.5,225.7,172.9,237.7,172.8 M237.6,164.8c-23.1,0-56.7,9-56.7,35.5c0,18.1,26.8,35.5,63.2,35.5c0,0,0,0,0.1,0
				c16.9,0,57.6-9.6,56.1-37.8c-0.7-12.1-21.3-33.2-62.5-33.2C237.6,164.8,237.6,164.8,237.6,164.8L237.6,164.8z"/>
		</g>
	</g>
	<linearGradient id="SVGID_1_" gradientUnits="userSpaceOnUse" x1="221.6422" y1="5.6779" x2="221.6422" y2="-48.9479">
		<stop  offset="0" style="stop-color:#FFFFFF;stop-opacity:0"/>
		<stop  offset="8.192581e-02" style="stop-color:#FFFFFF;stop-opacity:8.192581e-02"/>
		<stop  offset="1" style="stop-color:#FFFFFF"/>
	</linearGradient>
	<rect y="-48.9" class="st14" width="443.3" height="54.6"/>
	
		<linearGradient id="SVGID_2_" gradientUnits="userSpaceOnUse" x1="187.035" y1="90.6089" x2="187.035" y2="35.9832" gradientTransform="matrix(4.489700e-11 -1 1 4.489700e-11 -35.9832 312.6259)">
		<stop  offset="0" style="stop-color:#FFFFFF;stop-opacity:0"/>
		<stop  offset="8.192581e-02" style="stop-color:#FFFFFF;stop-opacity:8.192581e-02"/>
		<stop  offset="1" style="stop-color:#FFFFFF"/>
	</linearGradient>
	<polygon class="st15" points="54.6,-47.6 54.6,298.8 0,298.8 0,-47.6 	"/>
	<g>
	</g>
	<g>
	</g>
	<g>
	</g>
	<g>
	</g>
	<g>
	</g>
	<g>
	</g>
	<g>
	</g>
	<g>
	</g>
	<g>
	</g>
	<g>
	</g>
	<g>
	</g>
	<g>
	</g>
	<g>
	</g>
	<g>
	</g>
	<g>
	</g>
</g>
</svg>
