<?xml version="1.0" encoding="UTF-8" standalone="no"?>
<svg width="400px" height="476px" viewBox="0 0 400 476" version="1.1" xmlns="http://www.w3.org/2000/svg" xmlns:xlink="http://www.w3.org/1999/xlink">
    <!-- Generator: Sketch 3.7.2 (28276) - http://www.bohemiancoding.com/sketch -->
    <title>A4</title>
    <desc>Created with Sketch.</desc>
    <defs></defs>
    <g id="Page-1" stroke="none" stroke-width="1" fill="none" fill-rule="evenodd">
        <g id="A4">
            <g id="Top" transform="translate(26.000000, 71.000000)">
                <g id="Rail" transform="translate(11.000000, 77.000000)">
                    <rect id="Rectangle-26" fill="#686868" opacity="0.524195429" x="0" y="265" width="122" height="35"></rect>
                    <rect id="Rectangle-26-Copy" fill="#686868" opacity="0.524195429" x="0" y="0" width="122" height="35"></rect>
                    <g id="4mm-Nut" transform="translate(114.000000, 269.000000)" fill="#0069C1">
                        <polygon id="Polygon-1" transform="translate(3.500000, 4.000000) rotate(-180.000000) translate(-3.500000, -4.000000) " points="3.5 0.000620976367 7 1.99999991 7 5.99999991 3.5 7.99937893 8.8817842e-16 5.99999991 8.8817842e-16 1.99999991"></polygon>
                    </g>
                    <g id="4mm-Nut" transform="translate(114.000000, 286.000000)" fill="#0069C1">
                        <polygon id="Polygon-1" transform="translate(3.500000, 4.000000) rotate(-180.000000) translate(-3.500000, -4.000000) " points="3.5 0.000620976367 7 1.99999991 7 5.99999991 3.5 7.99937893 8.8817842e-16 5.99999991 8.8817842e-16 1.99999991"></polygon>
                    </g>
                    <g id="4mm-Nut" transform="translate(1.000000, 269.000000)" fill="#0069C1">
                        <polygon id="Polygon-1" transform="translate(3.500000, 4.000000) rotate(-180.000000) translate(-3.500000, -4.000000) " points="3.5 0.000620976367 7 1.99999991 7 5.99999991 3.5 7.99937893 8.8817842e-16 5.99999991 8.8817842e-16 1.99999991"></polygon>
                    </g>
                    <g id="4mm-Nut" transform="translate(1.000000, 286.000000)" fill="#0069C1">
                        <polygon id="Polygon-1" transform="translate(3.500000, 4.000000) rotate(-180.000000) translate(-3.500000, -4.000000) " points="3.5 0.000620976367 7 1.99999991 7 5.99999991 3.5 7.99937893 8.8817842e-16 5.99999991 8.8817842e-16 1.99999991"></polygon>
                    </g>
                    <g id="4mm-Nut" transform="translate(114.000000, 4.000000)" fill="#0069C1">
                        <polygon id="Polygon-1" transform="translate(3.500000, 4.000000) rotate(-180.000000) translate(-3.500000, -4.000000) " points="3.5 0.000620976367 7 1.99999991 7 5.99999991 3.5 7.99937893 8.8817842e-16 5.99999991 8.8817842e-16 1.99999991"></polygon>
                    </g>
                    <g id="4mm-Nut" transform="translate(114.000000, 21.000000)" fill="#0069C1">
                        <polygon id="Polygon-1" transform="translate(3.500000, 4.000000) rotate(-180.000000) translate(-3.500000, -4.000000) " points="3.5 0.000620976367 7 1.99999991 7 5.99999991 3.5 7.99937893 8.8817842e-16 5.99999991 8.8817842e-16 1.99999991"></polygon>
                    </g>
                    <g id="4mm-Nut" transform="translate(1.000000, 4.000000)" fill="#0069C1">
                        <polygon id="Polygon-1" transform="translate(3.500000, 4.000000) rotate(-180.000000) translate(-3.500000, -4.000000) " points="3.5 0.000620976367 7 1.99999991 7 5.99999991 3.5 7.99937893 8.8817842e-16 5.99999991 8.8817842e-16 1.99999991"></polygon>
                    </g>
                    <g id="4mm-Nut" transform="translate(1.000000, 21.000000)" fill="#0069C1">
                        <polygon id="Polygon-1" transform="translate(3.500000, 4.000000) rotate(-180.000000) translate(-3.500000, -4.000000) " points="3.5 0.000620976367 7 1.99999991 7 5.99999991 3.5 7.99937893 8.8817842e-16 5.99999991 8.8817842e-16 1.99999991"></polygon>
                    </g>
                    <rect id="Rectangle-6" fill="#874646" opacity="0.524195429" x="0" y="0" width="20" height="300"></rect>
                    <rect id="Rectangle-6-Copy" fill="#874646" opacity="0.524195429" x="102" y="0" width="20" height="300"></rect>
                </g>
                <circle id="Oval-1" fill="#F9A129" cx="42" cy="198" r="11"></circle>
                <circle id="Oval-1-Copy-3" fill="#F9A129" cx="42" cy="255" r="11"></circle>
                <circle id="Oval-1-Copy-2" fill="#F9A129" cx="102" cy="198" r="11"></circle>
                <circle id="Oval-1-Copy-4" fill="#F9A129" cx="102" cy="255" r="11"></circle>
                <g id="Outer-Bearings-+-Bolts" transform="translate(7.000000, 156.000000)">
                    <rect id="Rectangle-8" fill="#9CD2FF" x="0" y="7" width="130" height="8"></rect>
                    <rect id="Rectangle-8-Copy" fill="#9CD2FF" x="0" y="126" width="130" height="8"></rect>
                    <rect id="Rectangle-14-Copy-4" fill="#EC46AC" x="1" y="4" width="7" height="14"></rect>
                    <rect id="Rectangle-14-Copy-5" fill="#EC46AC" transform="translate(19.500000, 11.000000) scale(-1, 1) translate(-19.500000, -11.000000) " x="16" y="4" width="7" height="14"></rect>
                    <rect id="Rectangle-14-Copy-4" fill="#EC46AC" x="1" y="123" width="7" height="14"></rect>
                    <rect id="Rectangle-14-Copy-5" fill="#EC46AC" transform="translate(19.500000, 130.000000) scale(-1, 1) translate(-19.500000, -130.000000) " x="16" y="123" width="7" height="14"></rect>
                    <rect id="Rectangle-14-Copy-4" fill="#EC46AC" x="107" y="123" width="7" height="14"></rect>
                    <rect id="Rectangle-14-Copy-5" fill="#EC46AC" transform="translate(125.500000, 130.000000) scale(-1, 1) translate(-125.500000, -130.000000) " x="122" y="123" width="7" height="14"></rect>
                    <rect id="Rectangle-14-Copy-4" fill="#EC46AC" x="107" y="4" width="7" height="14"></rect>
                    <rect id="Rectangle-14-Copy-5" fill="#EC46AC" transform="translate(125.500000, 11.000000) scale(-1, 1) translate(-125.500000, -11.000000) " x="122" y="4" width="7" height="14"></rect>
                    <rect id="Rectangle-10" fill="#F9A129" x="114" y="0" width="8" height="22" rx="1"></rect>
                    <rect id="Rectangle-10-Copy-2" fill="#F9A129" x="114" y="119" width="8" height="22" rx="1"></rect>
                    <rect id="Rectangle-10-Copy" fill="#F9A129" x="8" y="0" width="8" height="22" rx="1"></rect>
                    <rect id="Rectangle-10-Copy-3" fill="#F9A129" x="8" y="119" width="8" height="22" rx="1"></rect>
                </g>
                <g id="Aluminium-Structure" opacity="0.687266791" transform="translate(7.000000, 145.000000)">
                    <path d="M0,0 L40,0 L40,49 L30,49 L30,57 L40,57 L40,106 C40,106.081193 30,106 30,106 L30,114 L40,114 L40,163 L0,163 L0,0 Z" id="Rectangle-1-Copy-3" fill="#D4D4D4"></path>
                    <path d="M90,0 L130,0 L130,49 L120,49 L120,57 L130,57 L130,106 C130,106.081193 120,106 120,106 L120,114 L130,114 L130,163 L90,163 L90,0 Z" id="Rectangle-1-Copy-3" fill="#D4D4D4" transform="translate(110.000000, 81.500000) scale(-1, 1) translate(-110.000000, -81.500000) "></path>
                    <rect id="Rectangle-1" fill="#686868" opacity="0.524195429" x="0" y="0" width="130" height="49"></rect>
                    <rect id="Rectangle-1-Copy" fill="#686868" opacity="0.524195429" x="0" y="57" width="130" height="49"></rect>
                    <rect id="Rectangle-1-Copy-2" fill="#686868" opacity="0.524195429" x="0" y="114" width="130" height="49"></rect>
                </g>
                <g id="Inner-Bearings-+-Bolts" transform="translate(34.000000, 0.000000)"></g>
                <g id="Outer-Bearings" transform="translate(0.000000, 160.000000)">
                    <circle id="Oval-1" fill="#BFBFBF" cx="42" cy="38" r="8"></circle>
                    <circle id="Oval-1-Copy-5" fill="#BFBFBF" cx="42" cy="95" r="8"></circle>
                    <circle id="Oval-1-Copy" fill="#BFBFBF" cx="102" cy="38" r="8"></circle>
                    <circle id="Oval-1-Copy-6" fill="#BFBFBF" cx="102" cy="95" r="8"></circle>
                    <rect id="Rectangle-14" fill="#EC46AC" x="0" y="0" width="7" height="14"></rect>
                    <rect id="Rectangle-14-Copy-2" fill="#EC46AC" transform="translate(140.500000, 7.000000) scale(-1, 1) translate(-140.500000, -7.000000) " x="137" y="0" width="7" height="14"></rect>
                    <rect id="Rectangle-14-Copy" fill="#EC46AC" x="0" y="119" width="7" height="14"></rect>
                    <rect id="Rectangle-14-Copy-3" fill="#EC46AC" transform="translate(140.500000, 126.000000) scale(-1, 1) translate(-140.500000, -126.000000) " x="137" y="119" width="7" height="14"></rect>
                    <g id="8mm-Nut" transform="translate(94.000000, 30.000000)">
                        <path d="M7.69743797,0.243756162 C7.94164811,0.109806276 8.33952201,0.120123734 8.57306728,0.259040325 L14.6352958,3.86495415 C14.8746823,4.00734524 15.0647155,4.3535377 15.0600097,4.62313566 L14.937858,11.6211982 C14.9330344,11.8975392 14.7251937,12.2334142 14.4869426,12.3640955 L8.30256239,15.7562438 C8.05835227,15.8901937 7.66047837,15.8798762 7.42693309,15.7409596 L1.36470435,12.1350455 C1.12531776,11.9926544 0.935284554,11.646462 0.939990404,11.376864 L1.06214205,4.37880199 C1.0669656,4.10246103 1.2748063,3.76658604 1.51305743,3.63590468 L7.69743797,0.243756162 Z" id="Polygon-1" fill="#EC46AC" transform="translate(8.000000, 8.000000) rotate(179.000000) translate(-8.000000, -8.000000) "></path>
                        <circle id="Oval-59" fill="#9CD2FF" cx="8" cy="8" r="4"></circle>
                    </g>
                    <g id="8mm-Nut" transform="translate(94.000000, 87.000000)">
                        <path d="M7.69743797,0.243756162 C7.94164811,0.109806276 8.33952201,0.120123734 8.57306728,0.259040325 L14.6352958,3.86495415 C14.8746823,4.00734524 15.0647155,4.3535377 15.0600097,4.62313566 L14.937858,11.6211982 C14.9330344,11.8975392 14.7251937,12.2334142 14.4869426,12.3640955 L8.30256239,15.7562438 C8.05835227,15.8901937 7.66047837,15.8798762 7.42693309,15.7409596 L1.36470435,12.1350455 C1.12531776,11.9926544 0.935284554,11.646462 0.939990404,11.376864 L1.06214205,4.37880199 C1.0669656,4.10246103 1.2748063,3.76658604 1.51305743,3.63590468 L7.69743797,0.243756162 Z" id="Polygon-1" fill="#EC46AC" transform="translate(8.000000, 8.000000) rotate(179.000000) translate(-8.000000, -8.000000) "></path>
                        <circle id="Oval-59" fill="#9CD2FF" cx="8" cy="8" r="4"></circle>
                    </g>
                    <g id="8mm-Nut" transform="translate(34.000000, 30.000000)">
                        <path d="M7.69743797,0.243756162 C7.94164811,0.109806276 8.33952201,0.120123734 8.57306728,0.259040325 L14.6352958,3.86495415 C14.8746823,4.00734524 15.0647155,4.3535377 15.0600097,4.62313566 L14.937858,11.6211982 C14.9330344,11.8975392 14.7251937,12.2334142 14.4869426,12.3640955 L8.30256239,15.7562438 C8.05835227,15.8901937 7.66047837,15.8798762 7.42693309,15.7409596 L1.36470435,12.1350455 C1.12531776,11.9926544 0.935284554,11.646462 0.939990404,11.376864 L1.06214205,4.37880199 C1.0669656,4.10246103 1.2748063,3.76658604 1.51305743,3.63590468 L7.69743797,0.243756162 Z" id="Polygon-1" fill="#EC46AC" transform="translate(8.000000, 8.000000) rotate(179.000000) translate(-8.000000, -8.000000) "></path>
                        <circle id="Oval-59" fill="#9CD2FF" cx="8" cy="8" r="4"></circle>
                    </g>
                    <g id="8mm-Nut" transform="translate(34.000000, 87.000000)">
                        <path d="M7.69743797,0.243756162 C7.94164811,0.109806276 8.33952201,0.120123734 8.57306728,0.259040325 L14.6352958,3.86495415 C14.8746823,4.00734524 15.0647155,4.3535377 15.0600097,4.62313566 L14.937858,11.6211982 C14.9330344,11.8975392 14.7251937,12.2334142 14.4869426,12.3640955 L8.30256239,15.7562438 C8.05835227,15.8901937 7.66047837,15.8798762 7.42693309,15.7409596 L1.36470435,12.1350455 C1.12531776,11.9926544 0.935284554,11.646462 0.939990404,11.376864 L1.06214205,4.37880199 C1.0669656,4.10246103 1.2748063,3.76658604 1.51305743,3.63590468 L7.69743797,0.243756162 Z" id="Polygon-1" fill="#EC46AC" transform="translate(8.000000, 8.000000) rotate(179.000000) translate(-8.000000, -8.000000) "></path>
                        <circle id="Oval-59" fill="#9CD2FF" cx="8" cy="8" r="4"></circle>
                    </g>
                </g>
                <g id="Group-4" transform="translate(8.000000, 153.000000)" fill="#0069C1">
                    <g id="4mm-Nut" transform="translate(121.000000, 139.000000)">
                        <polygon id="Polygon-1" transform="translate(3.500000, 4.000000) rotate(-180.000000) translate(-3.500000, -4.000000) " points="3.5 0.000620976367 7 1.99999991 7 5.99999991 3.5 7.99937893 8.8817842e-16 5.99999991 8.8817842e-16 1.99999991"></polygon>
                    </g>
                    <g id="4mm-Nut" transform="translate(101.500000, 139.000000)">
                        <polygon id="Polygon-1" transform="translate(3.500000, 4.000000) rotate(-180.000000) translate(-3.500000, -4.000000) " points="3.5 0.000620976367 7 1.99999991 7 5.99999991 3.5 7.99937893 8.8817842e-16 5.99999991 8.8817842e-16 1.99999991"></polygon>
                    </g>
                    <g id="4mm-Nut" transform="translate(101.500000, 119.000000)">
                        <polygon id="Polygon-1" transform="translate(3.500000, 4.000000) rotate(-180.000000) translate(-3.500000, -4.000000) " points="3.5 0.000620976367 7 1.99999991 7 5.99999991 3.5 7.99937893 8.8817842e-16 5.99999991 8.8817842e-16 1.99999991"></polygon>
                    </g>
                    <g id="4mm-Nut" transform="translate(121.000000, 119.000000)">
                        <polygon id="Polygon-1" transform="translate(3.500000, 4.000000) rotate(-180.000000) translate(-3.500000, -4.000000) " points="3.5 0.000620976367 7 1.99999991 7 5.99999991 3.5 7.99937893 8.8817842e-16 5.99999991 8.8817842e-16 1.99999991"></polygon>
                    </g>
                    <g id="4mm-Nut" transform="translate(19.500000, 138.000000)">
                        <polygon id="Polygon-1" transform="translate(3.500000, 4.000000) rotate(-180.000000) translate(-3.500000, -4.000000) " points="3.5 0.000620976367 7 1.99999991 7 5.99999991 3.5 7.99937893 8.8817842e-16 5.99999991 8.8817842e-16 1.99999991"></polygon>
                    </g>
                    <g id="4mm-Nut" transform="translate(0.000000, 138.000000)">
                        <polygon id="Polygon-1" transform="translate(3.500000, 4.000000) rotate(-180.000000) translate(-3.500000, -4.000000) " points="3.5 0.000620976367 7 1.99999991 7 5.99999991 3.5 7.99937893 8.8817842e-16 5.99999991 8.8817842e-16 1.99999991"></polygon>
                    </g>
                    <g id="4mm-Nut" transform="translate(0.000000, 118.000000)">
                        <polygon id="Polygon-1" transform="translate(3.500000, 4.000000) rotate(-180.000000) translate(-3.500000, -4.000000) " points="3.5 0.000620976367 7 1.99999991 7 5.99999991 3.5 7.99937893 8.8817842e-16 5.99999991 8.8817842e-16 1.99999991"></polygon>
                    </g>
                    <g id="4mm-Nut" transform="translate(19.500000, 118.000000)">
                        <polygon id="Polygon-1" transform="translate(3.500000, 4.000000) rotate(-180.000000) translate(-3.500000, -4.000000) " points="3.5 0.000620976367 7 1.99999991 7 5.99999991 3.5 7.99937893 8.8817842e-16 5.99999991 8.8817842e-16 1.99999991"></polygon>
                    </g>
                    <g id="4mm-Nut" transform="translate(121.000000, 20.000000)">
                        <polygon id="Polygon-1" transform="translate(3.500000, 4.000000) rotate(-180.000000) translate(-3.500000, -4.000000) " points="3.5 0.000620976367 7 1.99999991 7 5.99999991 3.5 7.99937893 8.8817842e-16 5.99999991 8.8817842e-16 1.99999991"></polygon>
                    </g>
                    <g id="4mm-Nut" transform="translate(101.500000, 20.000000)">
                        <polygon id="Polygon-1" transform="translate(3.500000, 4.000000) rotate(-180.000000) translate(-3.500000, -4.000000) " points="3.5 0.000620976367 7 1.99999991 7 5.99999991 3.5 7.99937893 8.8817842e-16 5.99999991 8.8817842e-16 1.99999991"></polygon>
                    </g>
                    <g id="4mm-Nut" transform="translate(101.500000, 0.000000)">
                        <polygon id="Polygon-1" transform="translate(3.500000, 4.000000) rotate(-180.000000) translate(-3.500000, -4.000000) " points="3.5 0.000620976367 7 1.99999991 7 5.99999991 3.5 7.99937893 8.8817842e-16 5.99999991 8.8817842e-16 1.99999991"></polygon>
                    </g>
                    <g id="4mm-Nut" transform="translate(121.000000, 0.000000)">
                        <polygon id="Polygon-1" transform="translate(3.500000, 4.000000) rotate(-180.000000) translate(-3.500000, -4.000000) " points="3.5 0.000620976367 7 1.99999991 7 5.99999991 3.5 7.99937893 8.8817842e-16 5.99999991 8.8817842e-16 1.99999991"></polygon>
                    </g>
                    <g id="4mm-Nut" transform="translate(19.500000, 20.000000)">
                        <polygon id="Polygon-1" transform="translate(3.500000, 4.000000) rotate(-180.000000) translate(-3.500000, -4.000000) " points="3.5 0.000620976367 7 1.99999991 7 5.99999991 3.5 7.99937893 8.8817842e-16 5.99999991 8.8817842e-16 1.99999991"></polygon>
                    </g>
                    <g id="4mm-Nut" transform="translate(0.000000, 20.000000)">
                        <polygon id="Polygon-1" transform="translate(3.500000, 4.000000) rotate(-180.000000) translate(-3.500000, -4.000000) " points="3.5 0.000620976367 7 1.99999991 7 5.99999991 3.5 7.99937893 8.8817842e-16 5.99999991 8.8817842e-16 1.99999991"></polygon>
                    </g>
                    <g id="4mm-Nut">
                        <polygon id="Polygon-1" transform="translate(3.500000, 4.000000) rotate(-180.000000) translate(-3.500000, -4.000000) " points="3.5 0.000620976367 7 1.99999991 7 5.99999991 3.5 7.99937893 8.8817842e-16 5.99999991 8.8817842e-16 1.99999991"></polygon>
                    </g>
                    <g id="4mm-Nut" transform="translate(19.500000, 0.000000)">
                        <polygon id="Polygon-1" transform="translate(3.500000, 4.000000) rotate(-180.000000) translate(-3.500000, -4.000000) " points="3.5 0.000620976367 7 1.99999991 7 5.99999991 3.5 7.99937893 8.8817842e-16 5.99999991 8.8817842e-16 1.99999991"></polygon>
                    </g>
                    <g id="4mm-Nut" transform="translate(0.000000, 82.000000)">
                        <polygon id="Polygon-1" transform="translate(3.500000, 4.000000) rotate(-180.000000) translate(-3.500000, -4.000000) " points="3.5 0.000620976367 7 1.99999991 7 5.99999991 3.5 7.99937893 8.8817842e-16 5.99999991 8.8817842e-16 1.99999991"></polygon>
                    </g>
                    <g id="4mm-Nut" transform="translate(0.000000, 57.000000)">
                        <polygon id="Polygon-1" transform="translate(3.500000, 4.000000) rotate(-180.000000) translate(-3.500000, -4.000000) " points="3.5 0.000620976367 7 1.99999991 7 5.99999991 3.5 7.99937893 8.8817842e-16 5.99999991 8.8817842e-16 1.99999991"></polygon>
                    </g>
                    <g id="4mm-Nut" transform="translate(121.000000, 82.000000)">
                        <polygon id="Polygon-1" transform="translate(3.500000, 4.000000) rotate(-180.000000) translate(-3.500000, -4.000000) " points="3.5 0.000620976367 7 1.99999991 7 5.99999991 3.5 7.99937893 8.8817842e-16 5.99999991 8.8817842e-16 1.99999991"></polygon>
                    </g>
                    <g id="4mm-Nut" transform="translate(121.000000, 57.000000)">
                        <polygon id="Polygon-1" transform="translate(3.500000, 4.000000) rotate(-180.000000) translate(-3.500000, -4.000000) " points="3.5 0.000620976367 7 1.99999991 7 5.99999991 3.5 7.99937893 8.8817842e-16 5.99999991 8.8817842e-16 1.99999991"></polygon>
                    </g>
                </g>
            </g>
            <g id="Side" transform="translate(306.000000, 148.000000)">
                <g id="Rail" transform="translate(34.000000, 0.000000)">
                    <path d="M15,271.502929 C15,270.949027 15.4426603,270.5 15.9989566,270.5 L18,270.5 L18,272 L26,272 L26,276 L18,276 L18,277.5 L15.9989566,277.5 C15.4472481,277.5 15,277.062119 15,276.497071 L15,271.502929 Z" id="Rectangle-39" fill="#0069C1" transform="translate(20.500000, 274.000000) scale(-1, 1) translate(-20.500000, -274.000000) "></path>
                    <rect id="Rectangle-40" fill="#EC46AC" transform="translate(18.000000, 274.000000) scale(-1, 1) translate(-18.000000, -274.000000) " x="17" y="270" width="2" height="8"></rect>
                    <path d="M15,288.502929 C15,287.949027 15.4426603,287.5 15.9989566,287.5 L18,287.5 L18,289 L26,289 L26,293 L18,293 L18,294.5 L15.9989566,294.5 C15.4472481,294.5 15,294.062119 15,293.497071 L15,288.502929 Z" id="Rectangle-39" fill="#0069C1" transform="translate(20.500000, 291.000000) scale(-1, 1) translate(-20.500000, -291.000000) "></path>
                    <rect id="Rectangle-40" fill="#EC46AC" transform="translate(18.000000, 291.000000) scale(-1, 1) translate(-18.000000, -291.000000) " x="17" y="287" width="2" height="8"></rect>
                    <path d="M15,6.50292933 C15,5.94902676 15.4426603,5.5 15.9989566,5.5 L18,5.5 L18,7 L26,7 L26,11 L18,11 L18,13 L18,12.5 L15.9989566,12.5 C15.4472481,12.5 15,12.0621186 15,11.4970707 L15,6.50292933 Z" id="Rectangle-39" fill="#0069C1" transform="translate(20.500000, 9.250000) scale(-1, 1) translate(-20.500000, -9.250000) "></path>
                    <rect id="Rectangle-40" fill="#EC46AC" transform="translate(18.000000, 9.000000) scale(-1, 1) translate(-18.000000, -9.000000) " x="17" y="5" width="2" height="8"></rect>
                    <path d="M15,23.5029293 C15,22.9490268 15.4426603,22.5 15.9989566,22.5 L18,22.5 L18,24 L26,24 L26,28 L18,28 L18,29.5 L15.9989566,29.5 C15.4472481,29.5 15,29.0621186 15,28.4970707 L15,23.5029293 Z" id="Rectangle-39" fill="#0069C1" transform="translate(20.500000, 26.000000) scale(-1, 1) translate(-20.500000, -26.000000) "></path>
                    <rect id="Rectangle-40" fill="#EC46AC" transform="translate(18.000000, 26.000000) scale(-1, 1) translate(-18.000000, -26.000000) " x="17" y="22" width="2" height="8"></rect>
                    <rect id="Rectangle-6-Copy" fill="#874646" opacity="0.524195429" x="0" y="0" width="20" height="300"></rect>
                    <rect id="Rectangle-53" fill="#686868" opacity="0.524195429" x="20" y="265" width="3" height="35"></rect>
                    <rect id="Rectangle-53" fill="#686868" opacity="0.524195429" x="20" y="0" width="3" height="35"></rect>
                </g>
                <g id="Bearings-Top-1" transform="translate(12.000000, 79.000000)" fill="#F9A129">
                    <circle id="Oval-1-Copy-4" cx="11" cy="130" r="11"></circle>
                    <circle id="Oval-1-Copy-7" cx="11" cy="11" r="11"></circle>
                </g>
                <g id="Bearings-Side" transform="translate(0.000000, 110.000000)">
                    <polygon id="Rectangle-8" fill="#9CD2FF" points="0 64 52 64 52 72 0 72"></polygon>
                    <rect id="Rectangle-8" fill="#EC46AC" x="0" y="62" width="5" height="12"></rect>
                    <rect id="Rectangle-8" fill="#9CD2FF" x="1" y="7" width="51" height="8"></rect>
                    <rect id="Rectangle-8" fill="#EC46AC" x="0" y="5" width="5" height="12"></rect>
                    <rect id="Rectangle-14-Copy-4" fill="#EC46AC" x="33" y="61" width="5" height="14"></rect>
                    <rect id="Rectangle-14-Copy-5" fill="#EC46AC" transform="translate(49.500000, 68.000000) scale(-1, 1) translate(-49.500000, -68.000000) " x="46" y="61" width="7" height="14"></rect>
                    <rect id="Rectangle-14-Copy-5" fill="#EC46AC" transform="translate(12.500000, 68.000000) scale(-1, 1) translate(-12.500000, -68.000000) " x="9" y="61" width="7" height="14"></rect>
                    <rect id="Rectangle-14-Copy-5" fill="#EC46AC" transform="translate(12.500000, 11.000000) scale(-1, 1) translate(-12.500000, -11.000000) " x="9" y="4" width="7" height="14"></rect>
                    <rect id="Rectangle-10" fill="#F9A129" x="38" y="57" width="8" height="22" rx="1"></rect>
                    <rect id="Rectangle-14-Copy-4" fill="#EC46AC" x="33" y="4" width="5" height="14"></rect>
                    <rect id="Rectangle-14-Copy-5" fill="#EC46AC" transform="translate(49.500000, 11.000000) scale(-1, 1) translate(-49.500000, -11.000000) " x="46" y="4" width="7" height="14"></rect>
                    <rect id="Rectangle-10" fill="#F9A129" x="38" y="0" width="8" height="22" rx="1"></rect>
                </g>
                <g id="Group-2" transform="translate(2.000000, 76.000000)">
                    <path d="M0,0.997030139 C0,0.446385598 0.442660332,0 0.998956561,0 L3,0 L3,2 L11,2 L11,6 L3,6 L3,8 L0.998956561,8 C0.447248087,8 0,7.54696369 0,7.00296986 L0,0.997030139 Z" id="Rectangle-39" fill="#0069C1"></path>
                    <rect id="Rectangle-40" fill="#EC46AC" x="7" y="0" width="2" height="8"></rect>
                    <path d="M0,20.9970301 C0,20.4463856 0.442660332,20 0.998956561,20 L3,20 L3,22 L11,22 L11,26 L3,26 L3,28 L0.998956561,28 C0.447248087,28 0,27.5469637 0,27.0029699 L0,20.9970301 Z" id="Rectangle-39" fill="#0069C1"></path>
                    <rect id="Rectangle-40" fill="#EC46AC" x="7" y="20" width="2" height="8"></rect>
                    <path d="M0,57.9970301 C0,57.4463856 0.442660332,57 0.998956561,57 L3,57 L3,59 L11,59 L11,63 L3,63 L3,65 L0.998956561,65 C0.447248087,65 0,64.5469637 0,64.0029699 L0,57.9970301 Z" id="Rectangle-39" fill="#0069C1"></path>
                    <rect id="Rectangle-40" fill="#EC46AC" x="7" y="57" width="2" height="8"></rect>
                    <path d="M0,82.9970301 C0,82.4463856 0.442660332,82 0.998956561,82 L3,82 L3,84 L11,84 L11,88 L3,88 L3,90 L0.998956561,90 C0.447248087,90 0,89.5469637 0,89.0029699 L0,82.9970301 Z" id="Rectangle-39" fill="#0069C1"></path>
                    <rect id="Rectangle-40" fill="#EC46AC" x="7" y="82" width="2" height="8"></rect>
                    <path d="M0,119.99703 C0,119.446386 0.442660332,119 0.998956561,119 L3,119 L3,121 L11,121 L11,125 L3,125 L3,127 L0.998956561,127 C0.447248087,127 0,126.546964 0,126.00297 L0,119.99703 Z" id="Rectangle-39" fill="#0069C1"></path>
                    <rect id="Rectangle-40" fill="#EC46AC" x="7" y="119" width="2" height="8"></rect>
                    <path d="M0,139.99703 C0,139.446386 0.442660332,139 0.998956561,139 L3,139 L3,141 L11,141 L11,145 L3,145 L3,147 L0.998956561,147 C0.447248087,147 0,146.546964 0,146.00297 L0,139.99703 Z" id="Rectangle-39" fill="#0069C1"></path>
                    <rect id="Rectangle-40" fill="#EC46AC" x="7" y="139" width="2" height="8"></rect>
                </g>
                <g id="Aluminum" opacity="0.74766791" transform="translate(5.000000, 68.000000)">
                    <rect id="Rectangle-37" fill="#D4D4D4" x="3" y="0" width="30" height="163"></rect>
                    <rect id="Rectangle-37" fill="#686868" opacity="0.524195429" x="0" y="0" width="3" height="163"></rect>
                </g>
                <g id="Bearings-Top" transform="translate(15.000000, 82.000000)">
                    <circle id="Oval-1-Copy" fill="#BFBFBF" cx="8" cy="8" r="8"></circle>
                    <circle id="Oval-1-Copy-9" fill="#9CD2FF" cx="8" cy="127" r="4"></circle>
                    <g id="8mm-Nut" transform="translate(0.000000, 119.000000)">
                        <path d="M7.69743797,0.243756162 C7.94164811,0.109806276 8.33952201,0.120123734 8.57306728,0.259040325 L14.6352958,3.86495415 C14.8746823,4.00734524 15.0647155,4.3535377 15.0600097,4.62313566 L14.937858,11.6211982 C14.9330344,11.8975392 14.7251937,12.2334142 14.4869426,12.3640955 L8.30256239,15.7562438 C8.05835227,15.8901937 7.66047837,15.8798762 7.42693309,15.7409596 L1.36470435,12.1350455 C1.12531776,11.9926544 0.935284554,11.646462 0.939990404,11.376864 L1.06214205,4.37880199 C1.0669656,4.10246103 1.2748063,3.76658604 1.51305743,3.63590468 L7.69743797,0.243756162 Z" id="Polygon-1" fill="#EC46AC" transform="translate(8.000000, 8.000000) rotate(179.000000) translate(-8.000000, -8.000000) "></path>
                        <circle id="Oval-59" fill="#9CD2FF" cx="8" cy="8" r="4"></circle>
                    </g>
                    <g id="8mm-Nut">
                        <path d="M7.69743797,0.243756162 C7.94164811,0.109806276 8.33952201,0.120123734 8.57306728,0.259040325 L14.6352958,3.86495415 C14.8746823,4.00734524 15.0647155,4.3535377 15.0600097,4.62313566 L14.937858,11.6211982 C14.9330344,11.8975392 14.7251937,12.2334142 14.4869426,12.3640955 L8.30256239,15.7562438 C8.05835227,15.8901937 7.66047837,15.8798762 7.42693309,15.7409596 L1.36470435,12.1350455 C1.12531776,11.9926544 0.935284554,11.646462 0.939990404,11.376864 L1.06214205,4.37880199 C1.0669656,4.10246103 1.2748063,3.76658604 1.51305743,3.63590468 L7.69743797,0.243756162 Z" id="Polygon-1" fill="#EC46AC" transform="translate(8.000000, 8.000000) rotate(179.000000) translate(-8.000000, -8.000000) "></path>
                        <circle id="Oval-59" fill="#9CD2FF" cx="8" cy="8" r="4"></circle>
                    </g>
                </g>
            </g>
            <g id="Front" transform="translate(26.000000, 31.000000)">
                <g id="Group-5" transform="translate(72.000000, 30.000000) rotate(-180.000000) translate(-72.000000, -30.000000) ">
                    <rect id="Rectangle-8" fill="#9CD2FF" x="7" y="33" width="130" height="8"></rect>
                    <rect id="Rectangle-14-Copy-4" fill="#EC46AC" x="8" y="30" width="7" height="14"></rect>
                    <rect id="Rectangle-14-Copy-5" fill="#EC46AC" transform="translate(26.500000, 37.000000) scale(-1, 1) translate(-26.500000, -37.000000) " x="23" y="30" width="7" height="14"></rect>
                    <rect id="Rectangle-14-Copy-4" fill="#EC46AC" x="114" y="30" width="7" height="14"></rect>
                    <rect id="Rectangle-14-Copy-5" fill="#EC46AC" transform="translate(132.500000, 37.000000) scale(-1, 1) translate(-132.500000, -37.000000) " x="129" y="30" width="7" height="14"></rect>
                    <rect id="Rectangle-10" fill="#F9A129" x="121" y="26" width="8" height="22" rx="1"></rect>
                    <rect id="Rectangle-10-Copy" fill="#F9A129" x="15" y="26" width="8" height="22" rx="1"></rect>
                    <rect id="Rectangle-14" fill="#EC46AC" x="0" y="30" width="7" height="14"></rect>
                    <rect id="Rectangle-14-Copy-2" fill="#EC46AC" transform="translate(140.500000, 37.000000) scale(-1, 1) translate(-140.500000, -37.000000) " x="137" y="30" width="7" height="14"></rect>
                    <rect id="Rectangle-65" fill="#874646" opacity="0.524195429" x="11" y="6" width="20" height="20"></rect>
                    <rect id="Rectangle-65" fill="#874646" opacity="0.524195429" x="113" y="6" width="20" height="20"></rect>
                    <g id="Bearings-Side" transform="translate(91.000000, 7.000000)">
                        <polygon id="Rectangle-8" fill="#9CD2FF" transform="translate(11.000000, 27.000000) rotate(-270.000000) translate(-11.000000, -27.000000) " points="-15 23 37 23 37 31 -15 31"></polygon>
                        <rect id="Rectangle-8" fill="#EC46AC" transform="translate(11.000000, 17.500000) scale(1, -1) rotate(-270.000000) translate(-11.000000, -17.500000) " x="8.5" y="10.5" width="5" height="14"></rect>
                        <rect id="Rectangle-14-Copy-4" fill="#EC46AC" transform="translate(11.000000, 50.500000) scale(1, -1) rotate(-270.000000) translate(-11.000000, -50.500000) " x="8.5" y="43.5" width="5" height="14"></rect>
                        <rect id="Rectangle-14-Copy-5" fill="#EC46AC" transform="translate(11.000000, 3.500000) scale(-1, 1) rotate(-270.000000) translate(-11.000000, -3.500000) " x="7.5" y="-3.5" width="7" height="14"></rect>
                        <rect id="Rectangle-14-Copy-5" fill="#EC46AC" transform="translate(11.000000, 40.500000) scale(-1, 1) rotate(-270.000000) translate(-11.000000, -40.500000) " x="7.5" y="33.5" width="7" height="14"></rect>
                        <rect id="Rectangle-10" fill="#F9A129" transform="translate(11.000000, 11.000000) rotate(-270.000000) translate(-11.000000, -11.000000) " x="7" y="0" width="8" height="22" rx="1"></rect>
                    </g>
                    <g id="Bearings-Side" transform="translate(31.000000, 7.000000)">
                        <polygon id="Rectangle-8" fill="#9CD2FF" transform="translate(11.000000, 27.000000) rotate(-270.000000) translate(-11.000000, -27.000000) " points="-15 23 37 23 37 31 -15 31"></polygon>
                        <rect id="Rectangle-8" fill="#EC46AC" transform="translate(11.000000, 17.500000) scale(1, -1) rotate(-270.000000) translate(-11.000000, -17.500000) " x="8.5" y="10.5" width="5" height="14"></rect>
                        <rect id="Rectangle-14-Copy-4" fill="#EC46AC" transform="translate(11.000000, 50.500000) scale(1, -1) rotate(-270.000000) translate(-11.000000, -50.500000) " x="8.5" y="43.5" width="5" height="14"></rect>
                        <rect id="Rectangle-14-Copy-5" fill="#EC46AC" transform="translate(11.000000, 3.500000) scale(-1, 1) rotate(-270.000000) translate(-11.000000, -3.500000) " x="7.5" y="-3.5" width="7" height="14"></rect>
                        <rect id="Rectangle-14-Copy-5" fill="#EC46AC" transform="translate(11.000000, 40.500000) scale(-1, 1) rotate(-270.000000) translate(-11.000000, -40.500000) " x="7.5" y="33.5" width="7" height="14"></rect>
                        <rect id="Rectangle-10" fill="#F9A129" transform="translate(11.000000, 11.000000) rotate(-270.000000) translate(-11.000000, -11.000000) " x="7" y="0" width="8" height="22" rx="1"></rect>
                    </g>
                    <path d="M127,50.0029293 C127,49.4490268 127.44266,49 127.998957,49 L130,49 L130,50.5 L138,50.5 L138,54.5 L130,54.5 L130,56 L127.998957,56 C127.447248,56 127,55.5621186 127,54.9970707 L127,50.0029293 Z" id="Rectangle-39" fill="#0069C1" transform="translate(132.500000, 52.500000) scale(-1, 1) rotate(-90.000000) translate(-132.500000, -52.500000) "></path>
                    <path d="M108,50.0029293 C108,49.4490268 108.44266,49 108.998957,49 L111,49 L111,50.5 L119,50.5 L119,54.5 L111,54.5 L111,56 L108.998957,56 C108.447248,56 108,55.5621186 108,54.9970707 L108,50.0029293 Z" id="Rectangle-39" fill="#0069C1" transform="translate(113.500000, 52.500000) scale(-1, 1) rotate(-90.000000) translate(-113.500000, -52.500000) "></path>
                    <path d="M25,50.0029293 C25,49.4490268 25.4426603,49 25.9989566,49 L28,49 L28,50.5 L36,50.5 L36,54.5 L28,54.5 L28,56 L25.9989566,56 C25.4472481,56 25,55.5621186 25,54.9970707 L25,50.0029293 Z" id="Rectangle-39" fill="#0069C1" transform="translate(30.500000, 52.500000) scale(-1, 1) rotate(-90.000000) translate(-30.500000, -52.500000) "></path>
                    <path d="M6,50.0029293 C6,49.4490268 6.44266033,49 6.99895656,49 L9,49 L9,50.5 L17,50.5 L17,54.5 L9,54.5 L9,56 L6.99895656,56 C6.44724809,56 6,55.5621186 6,54.9970707 L6,50.0029293 Z" id="Rectangle-39" fill="#0069C1" transform="translate(11.500000, 52.500000) scale(-1, 1) rotate(-90.000000) translate(-11.500000, -52.500000) "></path>
                    <rect id="Rectangle-88" fill="#686868" opacity="0.524195429" x="7" y="52" width="130" height="3"></rect>
                    <path d="M123,3.00292933 C123,2.44902676 123.44266,2 123.998957,2 L126,2 L126,3.5 L134,3.5 L134,7.5 L126,7.5 L126,9 L123.998957,9 C123.447248,9 123,8.56211865 123,7.99707067 L123,3.00292933 Z" id="Rectangle-39" fill="#0069C1" transform="translate(128.500000, 5.500000) scale(-1, -1) rotate(-90.000000) translate(-128.500000, -5.500000) "></path>
                    <rect id="Rectangle-40" fill="#EC46AC" transform="translate(128.500000, 7.000000) scale(-1, -1) rotate(-270.000000) translate(-128.500000, -7.000000) " x="127.5" y="3.5" width="2" height="7"></rect>
                    <path d="M10,3.00292933 C10,2.44902676 10.4426603,2 10.9989566,2 L13,2 L13,3.5 L21,3.5 L21,7.5 L13,7.5 L13,9 L10.9989566,9 C10.4472481,9 10,8.56211865 10,7.99707067 L10,3.00292933 Z" id="Rectangle-39" fill="#0069C1" transform="translate(15.500000, 5.500000) scale(-1, -1) rotate(-90.000000) translate(-15.500000, -5.500000) "></path>
                    <rect id="Rectangle-40" fill="#EC46AC" transform="translate(15.500000, 7.000000) scale(-1, -1) rotate(-270.000000) translate(-15.500000, -7.000000) " x="14.5" y="3.5" width="2" height="7"></rect>
                    <polygon id="Rectangle-89" fill="#D4D4D4" points="97 51 136 51 136 21 137 21 137 51.1142857 137 52 97 52"></polygon>
                    <polygon id="Rectangle-89" fill="#D4D4D4" transform="translate(27.000000, 36.500000) scale(-1, 1) translate(-27.000000, -36.500000) " points="7 51 46 51 46 21 47 21 47 51.1142857 47 52 7 52"></polygon>
                    <rect id="Rectangle-91" fill="#686868" opacity="0.524195429" x="11" y="3" width="122" height="3"></rect>
                    <rect id="Rectangle-40" fill="#EC46AC" transform="translate(113.500000, 50.000000) scale(-1, 1) rotate(-270.000000) translate(-113.500000, -50.000000) " x="112.5" y="46.5" width="2" height="7"></rect>
                    <rect id="Rectangle-40" fill="#EC46AC" transform="translate(132.500000, 50.000000) scale(-1, 1) rotate(-270.000000) translate(-132.500000, -50.000000) " x="131.5" y="46.5" width="2" height="7"></rect>
                    <rect id="Rectangle-40" fill="#EC46AC" transform="translate(11.500000, 50.000000) scale(-1, 1) rotate(-270.000000) translate(-11.500000, -50.000000) " x="10.5" y="46.5" width="2" height="7"></rect>
                    <rect id="Rectangle-40" fill="#EC46AC" transform="translate(30.500000, 50.000000) scale(-1, 1) rotate(-270.000000) translate(-30.500000, -50.000000) " x="29.5" y="46.5" width="2" height="7"></rect>
                </g>
            </g>
        </g>
    </g>
</svg>