<?xml version="1.0" encoding="UTF-8" standalone="no"?>
<svg width="127px" height="203px" viewBox="0 0 127 203" version="1.1" xmlns="http://www.w3.org/2000/svg" xmlns:xlink="http://www.w3.org/1999/xlink">
    <!-- Generator: Sketch 3.7.2 (28276) - http://www.bohemiancoding.com/sketch -->
    <title>Top Copy 2</title>
    <desc>Created with Sketch.</desc>
    <defs>
        <path d="M0,0 L20,0 L20,55 L0,75 L0,0 Z M4.5,29 C5.6045695,29 6.5,28.1045695 6.5,27 C6.5,25.8954305 5.6045695,25 4.5,25 C3.3954305,25 2.5,25.8954305 2.5,27 C2.5,28.1045695 3.3954305,29 4.5,29 Z M4.5,10 C5.6045695,10 6.5,9.1045695 6.5,8 C6.5,6.8954305 5.6045695,6 4.5,6 C3.3954305,6 2.5,6.8954305 2.5,8 C2.5,9.1045695 3.3954305,10 4.5,10 Z" id="path-1"></path>
        <mask id="mask-2" maskContentUnits="userSpaceOnUse" maskUnits="objectBoundingBox" x="0" y="0" width="20" height="75" fill="white">
            <use xlink:href="#path-1"></use>
        </mask>
        <path d="M0,90 L20,70 L20,135 L0,135 L0,90 Z M4.5,127 C5.6045695,127 6.5,126.104569 6.5,125 C6.5,123.895431 5.6045695,123 4.5,123 C3.3954305,123 2.5,123.895431 2.5,125 C2.5,126.104569 3.3954305,127 4.5,127 Z M4.5,108 C5.6045695,108 6.5,107.104569 6.5,106 C6.5,104.895431 5.6045695,104 4.5,104 C3.3954305,104 2.5,104.895431 2.5,106 C2.5,107.104569 3.3954305,108 4.5,108 Z" id="path-3"></path>
        <mask id="mask-4" maskContentUnits="userSpaceOnUse" maskUnits="objectBoundingBox" x="0" y="0" width="20" height="65" fill="white">
            <use xlink:href="#path-3"></use>
        </mask>
        <path d="M29,102.5 L151,102.5 L151,137.5 L29,137.5 L29,102.5 Z M33.5,112.5 C34.6045695,112.5 35.5,111.604569 35.5,110.5 C35.5,109.395431 34.6045695,108.5 33.5,108.5 C32.3954305,108.5 31.5,109.395431 31.5,110.5 C31.5,111.604569 32.3954305,112.5 33.5,112.5 Z M33.5,131.5 C34.6045695,131.5 35.5,130.604569 35.5,129.5 C35.5,128.395431 34.6045695,127.5 33.5,127.5 C32.3954305,127.5 31.5,128.395431 31.5,129.5 C31.5,130.604569 32.3954305,131.5 33.5,131.5 Z M146.5,112.5 C147.604569,112.5 148.5,111.604569 148.5,110.5 C148.5,109.395431 147.604569,108.5 146.5,108.5 C145.395431,108.5 144.5,109.395431 144.5,110.5 C144.5,111.604569 145.395431,112.5 146.5,112.5 Z M146.5,131.5 C147.604569,131.5 148.5,130.604569 148.5,129.5 C148.5,128.395431 147.604569,127.5 146.5,127.5 C145.395431,127.5 144.5,128.395431 144.5,129.5 C144.5,130.604569 145.395431,131.5 146.5,131.5 Z" id="path-5"></path>
        <mask id="mask-6" maskContentUnits="userSpaceOnUse" maskUnits="objectBoundingBox" x="0" y="0" width="122" height="35" fill="white">
            <use xlink:href="#path-5"></use>
        </mask>
    </defs>
    <g id="Page-1" stroke="none" stroke-width="1" fill="none" fill-rule="evenodd">
        <g id="Top-Copy-2">
            <g id="Top" transform="translate(19.000000, 59.000000)" stroke-width="2" stroke="#D9D9D9">
                <g id="Rail">
                    <use id="Combined-Shape" mask="url(#mask-2)" xlink:href="#path-1"></use>
                    <use id="Combined-Shape" mask="url(#mask-4)" xlink:href="#path-3"></use>
                </g>
            </g>
            <use id="Combined-Shape" stroke="#D9D9D9" mask="url(#mask-6)" stroke-width="2" transform="translate(90.000000, 120.000000) rotate(-270.000000) translate(-90.000000, -120.000000) " xlink:href="#path-5"></use>
            <polyline id="Path-34" stroke="#000000" stroke-width="0.3" opacity="0.15" points="23.5 194 23.5 165 19 165"></polyline>
            <polyline id="Path-34" stroke="#000000" stroke-width="0.3" opacity="0.15" points="23.5 194 23.5 184 19 184"></polyline>
            <polyline id="Path-36" stroke="#000000" stroke-width="0.3" opacity="0.15" points="23.5 59 23.5 67 19 67"></polyline>
            <polyline id="Path-37" stroke="#000000" stroke-width="0.3" opacity="0.15" points="23.5 59 23.5 86 19 86"></polyline>
            <polyline id="Path-38" stroke="#000000" stroke-width="0.3" opacity="0.15" transform="translate(76.500000, 61.250000) scale(-1, -1) rotate(-90.000000) translate(-76.500000, -61.250000) " points="78.75 65.25 78.75 57.25 74.25 57.25"></polyline>
            <polyline id="Path-38" stroke="#000000" stroke-width="0.3" opacity="0.15" transform="translate(103.500000, 61.250000) scale(1, -1) rotate(-90.000000) translate(-103.500000, -61.250000) " points="105.75 65.25 105.75 57.25 101.25 57.25"></polyline>
            <polyline id="Path-38" stroke="#000000" stroke-width="0.3" opacity="0.15" transform="translate(76.500000, 178.750000) scale(-1, 1) rotate(-90.000000) translate(-76.500000, -178.750000) " points="78.75 182.75 78.75 174.75 74.25 174.75"></polyline>
            <polyline id="Path-38" stroke="#000000" stroke-width="0.3" opacity="0.15" transform="translate(103.500000, 178.750000) rotate(-90.000000) translate(-103.500000, -178.750000) " points="105.75 182.75 105.75 174.75 101.25 174.75"></polyline>
            <text id="8" font-family="Helvetica" font-size="3" font-weight="normal" fill="#000000">
                <tspan x="24" y="65">8</tspan>
            </text>
            <text id="4,5" font-family="Helvetica" font-size="3" font-weight="normal" fill="#000000">
                <tspan x="20" y="70">4,5</tspan>
            </text>
            <text id="8" font-family="Helvetica" font-size="3" font-weight="normal" fill="#000000">
                <tspan x="76" y="67">8</tspan>
            </text>
            <text id="8" font-family="Helvetica" font-size="3" font-weight="normal" fill="#000000">
                <tspan x="103" y="67">8</tspan>
            </text>
            <text id="8" font-family="Helvetica" font-size="3" font-weight="normal" fill="#000000">
                <tspan x="76" y="175">8</tspan>
            </text>
            <text id="8" font-family="Helvetica" font-size="3" font-weight="normal" fill="#000000">
                <tspan x="103" y="175">8</tspan>
            </text>
            <text id="4,5" font-family="Helvetica" font-size="3" font-weight="normal" fill="#000000">
                <tspan x="82" y="63">4,5</tspan>
            </text>
            <text id="4,5" font-family="Helvetica" font-size="3" font-weight="normal" fill="#000000">
                <tspan x="94" y="63">4,5</tspan>
            </text>
            <text id="4,5" font-family="Helvetica" font-size="3" font-weight="normal" fill="#000000">
                <tspan x="82" y="179">4,5</tspan>
            </text>
            <text id="4,5" font-family="Helvetica" font-size="3" font-weight="normal" fill="#000000">
                <tspan x="94" y="179">4,5</tspan>
            </text>
            <text id="27" font-family="Helvetica" font-size="3" font-weight="normal" fill="#000000">
                <tspan x="24" y="76">27</tspan>
            </text>
            <text id="4,5" font-family="Helvetica" font-size="3" font-weight="normal" fill="#000000">
                <tspan x="20" y="89">4,5</tspan>
            </text>
            <text id="8" font-family="Helvetica" font-size="3" font-weight="normal" fill="#000000">
                <tspan x="24" y="190">8</tspan>
            </text>
            <text id="4,5" font-family="Helvetica" font-size="3" font-weight="normal" fill="#000000">
                <tspan x="20" y="164">4,5</tspan>
            </text>
            <text id="27" font-family="Helvetica" font-size="3" font-weight="normal" fill="#000000">
                <tspan x="24" y="177">27</tspan>
            </text>
            <text id="4,5" font-family="Helvetica" font-size="3" font-weight="normal" fill="#000000">
                <tspan x="20" y="183">4,5</tspan>
            </text>
            <text id="Tube-and-Plate" font-family="Helvetica-Light, Helvetica" font-size="12" font-weight="300" fill="#000000">
                <tspan x="20.366" y="15">Tube and Plate</tspan>
            </text>
            <text id="x2" font-family="Helvetica-Light, Helvetica" font-size="12" font-weight="300" fill="#000000">
                <tspan x="26.164" y="31">x2</tspan>
            </text>
            <text id="x2" font-family="Helvetica-Light, Helvetica" font-size="12" font-weight="300" fill="#000000">
                <tspan x="84.164" y="31">x2</tspan>
            </text>
            <text id="top" font-family="Helvetica-Light, Helvetica" font-size="12" font-weight="300" fill="#000000">
                <tspan x="23.83" y="48">top</tspan>
            </text>
            <text id="top" font-family="Helvetica-Light, Helvetica" font-size="12" font-weight="300" fill="#000000">
                <tspan x="81.83" y="48">top</tspan>
            </text>
            <text id="Rail-length" transform="translate(28.000000, 132.000000) rotate(-45.000000) translate(-28.000000, -132.000000) " font-family="Helvetica-Light, Helvetica" font-size="5" font-weight="300" fill="#000000">
                <tspan x="16.19" y="134">Rail length</tspan>
            </text>
        </g>
    </g>
</svg>