<?xml version="1.0" encoding="utf-8"?>
<!-- Generator: Adobe Illustrator 19.2.1, SVG Export Plug-In . SVG Version: 6.00 Build 0)  -->
<svg version="1.1" id="Layer_1" xmlns="http://www.w3.org/2000/svg" xmlns:xlink="http://www.w3.org/1999/xlink" x="0px" y="0px"
	 viewBox="0 0 477.5 477.5" style="enable-background:new 0 0 477.5 477.5;" xml:space="preserve">
<style type="text/css">
	.st0{fill:#FFFFFF;stroke:#000000;stroke-width:8;stroke-miterlimit:10;}
</style>
<path class="st0" d="M385.2,175.2V352c0,3.3-1.4,6.4-3.8,8.7l-0.2,0.2c-2.2,2.1-5.1,3.3-8.2,3.3H104.4c-3.3,0-6.4-1.4-8.7-3.8
	l-0.2-0.2c-2.1-2.2-3.3-5.1-3.3-8.2V175.4c0-3.3,1.4-6.4,3.7-8.7l0.2-0.2c2.2-2.1,5.2-3.3,8.2-3.3h268.9c3.2,0,6.2,1.3,8.4,3.5l0,0
	C384,168.9,385.2,172,385.2,175.2z"/>
<path d="M254.2,260.9c-0.6,1.8-1.4,3.6-2.7,5.5c-1.9,2.8-3.8,4.2-5.6,4.2c-0.7,0-1.8-0.2-3.2-0.7s-2.5-0.7-3.2-0.7s-1.8,0.2-3.1,0.7
	s-2.3,0.7-3,0.7c-2.6,0-5-2.2-7.1-6.6c-1.8-3.8-2.7-7.1-2.7-10.1s0.7-5.5,2.1-7.6c1.6-2.5,3.8-3.7,6.6-3.7c0.9,0,2.1,0.2,3.7,0.7
	c1.6,0.4,2.6,0.7,3.2,0.7c0.7,0,1.8-0.2,3.3-0.7s2.7-0.7,3.6-0.7c2.7,0,5,1.2,7,3.6c-1.1,1-2,1.9-2.5,2.6c-1,1.3-1.4,2.8-1.4,4.5
	c0,1.6,0.5,3.2,1.4,4.6C251.5,259.4,252.7,260.4,254.2,260.9z M246,235.1c0,1.5-0.5,3-1.5,4.5c-1,1.6-2.2,2.6-3.6,3.1
	c-0.4,0.1-1.2,0.3-2.2,0.4c0.1-4.8,2.5-7.8,7.2-8.9C245.9,234.5,246,234.8,246,235.1z"/>
</svg>
