<?xml version="1.0" encoding="utf-8"?>
<!-- Generator: Adobe Illustrator 19.2.1, SVG Export Plug-In . SVG Version: 6.00 Build 0)  -->
<svg version="1.1" id="Layer_1" xmlns="http://www.w3.org/2000/svg" xmlns:xlink="http://www.w3.org/1999/xlink" x="0px" y="0px"
	 viewBox="0 0 477.5 428.5" style="enable-background:new 0 0 477.5 428.5;" xml:space="preserve">
<style type="text/css">
	.st0{fill:#CCCCCC;}
	.st1{fill:#FFFFFF;stroke:#999999;stroke-miterlimit:10;}
	.st2{fill:none;stroke:#000000;stroke-miterlimit:10;}
	.st3{fill:#D0D2D3;}
	.st4{fill:#FFFFFF;stroke:#A6A8AB;stroke-miterlimit:10;}
	.st5{fill:none;stroke:#231F20;stroke-miterlimit:10;}
</style>
<g id="Drill_Sheet_1">
	<rect x="12.5" y="52.1" class="st0" width="149.2" height="361.4"/>
	<circle class="st1" cx="41.9" cy="115.2" r="8.4"/>
	<circle class="st1" cx="132.2" cy="115.2" r="8.4"/>
	<circle class="st1" cx="41.9" cy="350.7" r="8.4"/>
	<circle class="st1" cx="132.2" cy="350.7" r="8.4"/>
	<circle class="st1" cx="87.1" cy="232.8" r="12.6"/>
	<polyline class="st2" points="161.7,115.2 132.2,115.2 132.2,52.1 	"/>
	<polyline class="st2" points="12.5,115.2 41.9,115.2 41.9,52.1 	"/>
	<polyline class="st2" points="161.7,350.7 132.2,350.7 132.2,413.5 	"/>
	<polyline class="st2" points="161.7,232.8 87.1,232.8 87.1,413.5 	"/>
	<polyline class="st2" points="41.9,413.5 41.9,350.7 12.5,350.7 	"/>
	<g>
		<path d="M145.3,102l-0.7,3.6l0,0c0.3-0.3,0.6-0.5,1-0.7c0.4-0.1,0.8-0.2,1.3-0.2s1.1,0.1,1.6,0.3c0.5,0.2,0.9,0.4,1.3,0.8
			c0.4,0.4,0.6,0.8,0.9,1.3c0.2,0.5,0.3,1.2,0.3,1.9c0,0.5-0.1,1-0.3,1.5s-0.5,0.9-0.8,1.3c-0.4,0.4-0.8,0.7-1.4,0.9
			c-0.5,0.2-1.2,0.3-1.9,0.3c-0.5,0-1-0.1-1.5-0.2c-0.5-0.2-0.9-0.4-1.3-0.7c-0.4-0.3-0.6-0.7-0.9-1.1c-0.2-0.4-0.3-0.9-0.3-1.5h1.5
			c0,0.3,0.1,0.6,0.2,0.9s0.3,0.5,0.5,0.7s0.5,0.4,0.8,0.5s0.7,0.2,1,0.2c0.4,0,0.7-0.1,1-0.2s0.6-0.3,0.8-0.6s0.4-0.6,0.6-0.9
			s0.2-0.8,0.2-1.3c0-0.4-0.1-0.8-0.2-1.1c-0.1-0.3-0.3-0.6-0.6-0.9s-0.5-0.4-0.9-0.6c-0.3-0.1-0.7-0.2-1.1-0.2
			c-0.5,0-0.9,0.1-1.3,0.3c-0.4,0.2-0.7,0.5-1,0.8l-1.3-0.1l1.2-6.4h6.1v1.4H145.3z"/>
	</g>
	<g>
		<path d="M145.3,337.4l-0.7,3.6l0,0c0.3-0.3,0.6-0.5,1-0.7c0.4-0.1,0.8-0.2,1.3-0.2s1.1,0.1,1.6,0.3c0.5,0.2,0.9,0.4,1.3,0.8
			c0.4,0.4,0.6,0.8,0.9,1.3c0.2,0.5,0.3,1.2,0.3,1.9c0,0.5-0.1,1-0.3,1.5s-0.5,0.9-0.8,1.3c-0.4,0.4-0.8,0.7-1.4,0.9
			c-0.5,0.2-1.2,0.3-1.9,0.3c-0.5,0-1-0.1-1.5-0.2c-0.5-0.2-0.9-0.4-1.3-0.7s-0.6-0.7-0.9-1.1c-0.2-0.4-0.3-0.9-0.3-1.5h1.5
			c0,0.3,0.1,0.6,0.2,0.9c0.1,0.3,0.3,0.5,0.5,0.7s0.5,0.4,0.8,0.5s0.7,0.2,1,0.2c0.4,0,0.7-0.1,1-0.2s0.6-0.3,0.8-0.6
			s0.4-0.6,0.6-0.9c0.1-0.4,0.2-0.8,0.2-1.3c0-0.4-0.1-0.8-0.2-1.1c-0.1-0.3-0.3-0.6-0.6-0.9s-0.5-0.4-0.9-0.6
			c-0.3-0.1-0.7-0.2-1.1-0.2c-0.5,0-0.9,0.1-1.3,0.3c-0.4,0.2-0.7,0.5-1,0.8l-1.3-0.1l1.2-6.4h6.1v1.3h-4.8V337.4z"/>
	</g>
	<g>
		<path d="M26.1,102l-0.7,3.6l0,0c0.3-0.3,0.6-0.5,1-0.7c0.4-0.1,0.8-0.2,1.3-0.2s1.1,0.1,1.6,0.3c0.5,0.2,0.9,0.4,1.3,0.8
			s0.6,0.8,0.9,1.3c0.2,0.5,0.3,1.2,0.3,1.9c0,0.5-0.1,1-0.3,1.5c-0.2,0.5-0.5,0.9-0.8,1.3c-0.4,0.4-0.8,0.7-1.4,0.9
			c-0.5,0.2-1.2,0.3-1.9,0.3c-0.5,0-1-0.1-1.5-0.2c-0.5-0.2-0.9-0.4-1.3-0.7c-0.4-0.3-0.6-0.7-0.9-1.1c-0.2-0.4-0.3-0.9-0.3-1.5H25
			c0,0.3,0.1,0.6,0.2,0.9s0.3,0.5,0.5,0.7s0.5,0.4,0.8,0.5s0.7,0.2,1,0.2c0.4,0,0.7-0.1,1-0.2s0.6-0.3,0.8-0.6s0.4-0.6,0.6-0.9
			s0.2-0.8,0.2-1.3c0-0.4-0.1-0.8-0.2-1.1c-0.1-0.3-0.3-0.6-0.6-0.9s-0.5-0.4-0.9-0.6c-0.3-0.1-0.7-0.2-1.1-0.2
			c-0.5,0-0.9,0.1-1.3,0.3c-0.4,0.2-0.7,0.5-1,0.8l-1.3-0.1l1.2-6.4H31v1.4H26.1z"/>
	</g>
	<g>
		<path d="M26.1,337.4l-0.7,3.6l0,0c0.3-0.3,0.6-0.5,1-0.7c0.4-0.1,0.8-0.2,1.3-0.2s1.1,0.1,1.6,0.3c0.5,0.2,0.9,0.4,1.3,0.8
			s0.6,0.8,0.9,1.3c0.2,0.5,0.3,1.2,0.3,1.9c0,0.5-0.1,1-0.3,1.5s-0.5,0.9-0.8,1.3c-0.4,0.4-0.8,0.7-1.4,0.9
			c-0.5,0.2-1.2,0.3-1.9,0.3c-0.5,0-1-0.1-1.5-0.2c-0.5-0.2-0.9-0.4-1.3-0.7s-0.6-0.7-0.9-1.1c-0.2-0.4-0.3-0.9-0.3-1.5H25
			c0,0.3,0.1,0.6,0.2,0.9s0.3,0.5,0.5,0.7s0.5,0.4,0.8,0.5s0.7,0.2,1,0.2c0.4,0,0.7-0.1,1-0.2s0.6-0.3,0.8-0.6s0.4-0.6,0.6-0.9
			c0.1-0.4,0.2-0.8,0.2-1.3c0-0.4-0.1-0.8-0.2-1.1c-0.1-0.3-0.3-0.6-0.6-0.9s-0.5-0.4-0.9-0.6c-0.3-0.1-0.7-0.2-1.1-0.2
			c-0.5,0-0.9,0.1-1.3,0.3c-0.4,0.2-0.7,0.5-1,0.8l-1.3-0.1l1.2-6.4H31v1.3h-4.9V337.4z"/>
	</g>
	<g>
		<path d="M111.5,229.7v-8.9h-3.2v-1.2c0.4,0,0.8,0,1.2-0.1c0.4-0.1,0.8-0.2,1.1-0.4c0.3-0.2,0.6-0.4,0.8-0.7
			c0.2-0.3,0.4-0.7,0.5-1.2h1.1v12.4L111.5,229.7L111.5,229.7z"/>
		<path d="M124,221c-0.5,0.9-1,1.8-1.5,2.7c-0.4,1-0.8,2-1,3s-0.4,2-0.5,3h-1.7c0.1-1.1,0.2-2.1,0.5-3.1s0.6-2,1.1-2.9
			c0.4-0.9,0.9-1.8,1.5-2.6s1.2-1.6,1.8-2.3h-6.5v-1.4h8v1.3C125.2,219.4,124.6,220.1,124,221z"/>
		<path d="M130.4,227.7v1.8c0,0.7-0.2,1.2-0.5,1.7s-0.8,0.8-1.5,1v-0.9c0.2-0.1,0.4-0.2,0.5-0.3s0.2-0.3,0.3-0.4
			c0.1-0.2,0.1-0.3,0.2-0.5c0-0.2,0-0.3,0-0.5h-1v-1.9L130.4,227.7L130.4,227.7z"/>
		<path d="M139.3,221c-0.5,0.9-1,1.8-1.5,2.7c-0.4,1-0.8,2-1,3s-0.4,2-0.5,3h-1.7c0.1-1.1,0.2-2.1,0.5-3.1s0.6-2,1.1-2.9
			c0.4-0.9,0.9-1.8,1.5-2.6s1.2-1.6,1.8-2.3H133v-1.4h8v1.3C140.5,219.4,139.9,220.1,139.3,221z"/>
	</g>
	<g>
		<path d="M129,392.7h-8.9v3.2h-1.2c0-0.4,0-0.8-0.1-1.2c-0.1-0.4-0.2-0.8-0.4-1.1c-0.2-0.3-0.4-0.6-0.7-0.8s-0.7-0.4-1.2-0.5v-1.1
			H129V392.7z"/>
		<path d="M122,383.4c0-0.1,0-0.1,0-0.2v-0.3c0-0.3,0-0.6-0.1-0.9s-0.2-0.5-0.4-0.8c-0.2-0.2-0.4-0.4-0.6-0.5
			c-0.3-0.1-0.5-0.2-0.9-0.2c-0.7,0-1.2,0.2-1.5,0.6s-0.5,0.9-0.5,1.6c0,0.4,0.1,0.7,0.2,1s0.3,0.5,0.6,0.7s0.5,0.3,0.9,0.4
			c0.3,0.1,0.7,0.1,1,0.1v1.5c-0.6,0-1.1-0.1-1.6-0.3c-0.5-0.2-0.9-0.4-1.3-0.7c-0.4-0.3-0.6-0.7-0.8-1.2c-0.2-0.5-0.3-1-0.3-1.6
			c0-0.5,0.1-1,0.2-1.5s0.3-0.9,0.6-1.2s0.6-0.6,1-0.8c0.4-0.2,0.9-0.3,1.5-0.3s1.1,0.2,1.5,0.5s0.8,0.7,1,1.2l0,0
			c0.2-0.8,0.5-1.3,1.1-1.7c0.5-0.4,1.2-0.6,1.9-0.6c0.6,0,1.2,0.1,1.6,0.3c0.5,0.2,0.9,0.5,1.2,0.9c0.3,0.4,0.6,0.8,0.7,1.4
			c0.2,0.5,0.2,1.1,0.2,1.7s-0.1,1.2-0.3,1.7s-0.4,1-0.8,1.3c-0.3,0.4-0.8,0.6-1.3,0.8s-1.1,0.3-1.7,0.3v-1.5c0.8,0,1.5-0.3,2-0.7
			c0.5-0.4,0.8-1.1,0.8-1.9c0-0.4-0.1-0.7-0.2-1s-0.3-0.6-0.5-0.9s-0.5-0.4-0.8-0.6c-0.3-0.1-0.6-0.2-1-0.2s-0.7,0.1-1,0.2
			s-0.5,0.3-0.8,0.6s-0.4,0.5-0.5,0.8s-0.1,0.7-0.1,1s0,0.6,0.1,0.9h-1.3C122,383.5,122,383.4,122,383.4z"/>
	</g>
	<g>
		<path d="M129,88.8h-8.9V92h-1.2c0-0.4,0-0.8-0.1-1.2c-0.1-0.4-0.2-0.8-0.4-1.1c-0.2-0.3-0.4-0.6-0.7-0.8c-0.3-0.2-0.7-0.4-1.2-0.5
			v-1.1H129V88.8z"/>
		<path d="M122,79.5c0-0.1,0-0.1,0-0.2V79c0-0.3,0-0.6-0.1-0.9s-0.2-0.5-0.4-0.8c-0.2-0.2-0.4-0.4-0.6-0.5c-0.3-0.1-0.5-0.2-0.9-0.2
			c-0.7,0-1.2,0.2-1.5,0.6s-0.5,0.9-0.5,1.6c0,0.4,0.1,0.7,0.2,1s0.3,0.5,0.6,0.7c0.2,0.2,0.5,0.3,0.9,0.4c0.3,0.1,0.7,0.1,1,0.1
			v1.5c-0.6,0-1.1-0.1-1.6-0.3c-0.5-0.2-0.9-0.4-1.3-0.7c-0.4-0.3-0.6-0.7-0.8-1.2c-0.2-0.5-0.3-1-0.3-1.6c0-0.5,0.1-1,0.2-1.5
			s0.3-0.9,0.6-1.2c0.3-0.3,0.6-0.6,1-0.8c0.4-0.2,0.9-0.3,1.5-0.3s1.1,0.2,1.5,0.5s0.8,0.7,1,1.2l0,0c0.2-0.8,0.5-1.3,1.1-1.7
			c0.5-0.4,1.2-0.6,1.9-0.6c0.6,0,1.2,0.1,1.6,0.3c0.5,0.2,0.9,0.5,1.2,0.9c0.3,0.4,0.6,0.8,0.7,1.4c0.2,0.5,0.2,1.1,0.2,1.7
			s-0.1,1.2-0.3,1.7s-0.4,1-0.8,1.3c-0.3,0.4-0.8,0.6-1.3,0.8s-1.1,0.3-1.7,0.3v-1.5c0.8,0,1.5-0.3,2-0.7s0.8-1.1,0.8-1.9
			c0-0.4-0.1-0.7-0.2-1s-0.3-0.6-0.5-0.9c-0.2-0.2-0.5-0.4-0.8-0.6c-0.3-0.1-0.6-0.2-1-0.2s-0.7,0.1-1,0.2s-0.5,0.3-0.8,0.6
			c-0.2,0.2-0.4,0.5-0.5,0.8s-0.1,0.7-0.1,1s0,0.6,0.1,0.9h-1.3C122,79.6,122,79.6,122,79.5z"/>
	</g>
	<g>
		<path d="M38.2,88.8h-8.9V92h-1.2c0-0.4,0-0.8-0.1-1.2c-0.1-0.4-0.2-0.8-0.4-1.1c-0.2-0.3-0.4-0.6-0.7-0.8
			c-0.3-0.2-0.7-0.4-1.2-0.5v-1.1h12.4v1.5H38.2z"/>
		<path d="M31.1,79.5c0-0.1,0-0.1,0-0.2V79c0-0.3,0-0.6-0.1-0.9s-0.2-0.5-0.4-0.8c-0.2-0.2-0.4-0.4-0.6-0.5
			c-0.3-0.1-0.5-0.2-0.9-0.2c-0.7,0-1.2,0.2-1.5,0.6s-0.5,0.9-0.5,1.6c0,0.4,0.1,0.7,0.2,1s0.3,0.5,0.6,0.7c0.2,0.2,0.5,0.3,0.9,0.4
			c0.3,0.1,0.7,0.1,1,0.1v1.5c-0.6,0-1.1-0.1-1.6-0.3c-0.5-0.2-0.9-0.4-1.3-0.7c-0.4-0.3-0.6-0.7-0.8-1.2c-0.2-0.5-0.3-1-0.3-1.6
			c0-0.5,0.1-1,0.2-1.5s0.3-0.9,0.6-1.2c0.3-0.3,0.6-0.6,1-0.8c0.4-0.2,0.9-0.3,1.5-0.3s1.1,0.2,1.5,0.5s0.8,0.7,1,1.2l0,0
			c0.2-0.8,0.5-1.3,1.1-1.7c0.5-0.4,1.2-0.6,1.9-0.6c0.6,0,1.2,0.1,1.6,0.3c0.5,0.2,0.9,0.5,1.2,0.9s0.6,0.8,0.7,1.4
			c0.2,0.5,0.2,1.1,0.2,1.7s-0.1,1.2-0.3,1.7s-0.4,1-0.8,1.3c-0.3,0.4-0.8,0.6-1.3,0.8S35,83,34.3,83v-1.5c0.8,0,1.5-0.3,2-0.7
			s0.8-1.1,0.8-1.9c0-0.4-0.1-0.7-0.2-1c-0.1-0.3-0.3-0.6-0.5-0.9c-0.2-0.2-0.5-0.4-0.8-0.6c-0.3-0.1-0.6-0.2-1-0.2s-0.7,0.1-1,0.2
			s-0.5,0.3-0.8,0.6c-0.2,0.2-0.4,0.5-0.5,0.8s-0.1,0.7-0.1,1s0,0.6,0.1,0.9H31C31.1,79.6,31.1,79.6,31.1,79.5z"/>
	</g>
	<g>
		<path d="M38.2,392.7h-8.9v3.2h-1.2c0-0.4,0-0.8-0.1-1.2c-0.1-0.4-0.2-0.8-0.4-1.1c-0.2-0.3-0.4-0.6-0.7-0.8s-0.7-0.4-1.2-0.5v-1.1
			h12.4v1.5H38.2z"/>
		<path d="M31.1,383.4c0-0.1,0-0.1,0-0.2v-0.3c0-0.3,0-0.6-0.1-0.9s-0.2-0.5-0.4-0.8c-0.2-0.2-0.4-0.4-0.6-0.5
			c-0.3-0.1-0.5-0.2-0.9-0.2c-0.7,0-1.2,0.2-1.5,0.6s-0.5,0.9-0.5,1.6c0,0.4,0.1,0.7,0.2,1s0.3,0.5,0.6,0.7s0.5,0.3,0.9,0.4
			c0.3,0.1,0.7,0.1,1,0.1v1.5c-0.6,0-1.1-0.1-1.6-0.3c-0.5-0.2-0.9-0.4-1.3-0.7c-0.4-0.3-0.6-0.7-0.8-1.2c-0.2-0.5-0.3-1-0.3-1.6
			c0-0.5,0.1-1,0.2-1.5s0.3-0.9,0.6-1.2s0.6-0.6,1-0.8c0.4-0.2,0.9-0.3,1.5-0.3s1.1,0.2,1.5,0.5s0.8,0.7,1,1.2l0,0
			c0.2-0.8,0.5-1.3,1.1-1.7c0.5-0.4,1.2-0.6,1.9-0.6c0.6,0,1.2,0.1,1.6,0.3c0.5,0.2,0.9,0.5,1.2,0.9s0.6,0.8,0.7,1.4
			c0.2,0.5,0.2,1.1,0.2,1.7s-0.1,1.2-0.3,1.7s-0.4,1-0.8,1.3c-0.3,0.4-0.8,0.6-1.3,0.8s-1.1,0.3-1.7,0.3v-1.5c0.8,0,1.5-0.3,2-0.7
			c0.5-0.4,0.8-1.1,0.8-1.9c0-0.4-0.1-0.7-0.2-1c-0.1-0.3-0.3-0.6-0.5-0.9s-0.5-0.4-0.8-0.6c-0.3-0.1-0.6-0.2-1-0.2s-0.7,0.1-1,0.2
			s-0.5,0.3-0.8,0.6s-0.4,0.5-0.5,0.8s-0.1,0.7-0.1,1s0,0.6,0.1,0.9h-1.3C31.1,383.5,31.1,383.4,31.1,383.4z"/>
	</g>
	<g>
		<path d="M78.4,324.1h1.3v1.7h2.9v1.4h-2.9v5.4h-1.4l-8.1-5.7v-1.2h8.2V324.1z M72.4,327.1L72.4,327.1l6.1,4.2v-4.2H72.4z"/>
		<path d="M75.6,319c0-0.1,0-0.1,0-0.2v-0.3c0-0.3,0-0.6-0.1-0.9s-0.2-0.5-0.4-0.8c-0.2-0.2-0.4-0.4-0.6-0.5
			c-0.3-0.1-0.5-0.2-0.9-0.2c-0.7,0-1.2,0.2-1.5,0.6s-0.5,0.9-0.5,1.6c0,0.4,0.1,0.7,0.2,1s0.3,0.5,0.6,0.7s0.5,0.3,0.9,0.4
			c0.3,0.1,0.7,0.1,1,0.1v1.5c-0.6,0-1.1-0.1-1.6-0.3c-0.5-0.2-0.9-0.4-1.3-0.7c-0.4-0.3-0.6-0.7-0.8-1.2c-0.2-0.5-0.3-1-0.3-1.6
			c0-0.5,0.1-1,0.2-1.5s0.3-0.9,0.6-1.2s0.6-0.6,1-0.8c0.4-0.2,0.9-0.3,1.5-0.3s1.1,0.2,1.5,0.5s0.8,0.7,1,1.2l0,0
			c0.2-0.8,0.5-1.3,1.1-1.7c0.5-0.4,1.2-0.6,1.9-0.6c0.6,0,1.2,0.1,1.6,0.3c0.5,0.2,0.9,0.5,1.2,0.9c0.3,0.4,0.6,0.8,0.7,1.4
			c0.2,0.5,0.2,1.1,0.2,1.7s-0.1,1.2-0.3,1.7c-0.2,0.5-0.4,1-0.8,1.3c-0.3,0.4-0.8,0.6-1.3,0.8s-1.1,0.3-1.7,0.3V321
			c0.8,0,1.5-0.3,2-0.7c0.5-0.4,0.8-1.1,0.8-1.9c0-0.4-0.1-0.7-0.2-1s-0.3-0.6-0.5-0.9s-0.5-0.4-0.8-0.6c-0.3-0.1-0.6-0.2-1-0.2
			s-0.7,0.1-1,0.2s-0.5,0.3-0.8,0.6s-0.4,0.5-0.5,0.8s-0.1,0.7-0.1,1s0,0.6,0.1,0.9h-1.3C75.6,319.1,75.6,319.1,75.6,319z"/>
	</g>
</g>
<g id="Drill_Sheet_2">
	<polyline class="st3" points="206.8,284.1 206.8,172.9 249.4,172.9 249.4,106.6 206.8,106.6 206.8,51.9 330.8,51.9 330.8,413.3 
		206.8,413.3 206.8,350.5 249.4,350.5 249.4,284.1 206.8,284.1 	"/>
	<rect x="342.4" y="51.9" class="st3" width="124" height="361.4"/>
	<circle class="st4" cx="297.1" cy="85.5" r="8.4"/>
	<circle class="st4" cx="297.1" cy="379.7" r="8.4"/>
	<circle class="st4" cx="376.1" cy="127.6" r="8.4"/>
	<circle class="st4" cx="376.1" cy="337.6" r="8.4"/>
	<circle class="st4" cx="437" cy="350.2" r="8.4"/>
	<circle class="st4" cx="437" cy="115" r="8.4"/>
	<polyline class="st5" points="330.8,85.5 297.1,85.5 297.1,51.9 	"/>
	<polyline class="st5" points="330.8,379.7 297.1,379.7 297.1,413.3 	"/>
	<polyline class="st5" points="342.4,337.6 376.1,337.6 376.1,413.5 	"/>
	<polyline class="st5" points="437,413.3 437,350.2 466.4,350.2 	"/>
	<polyline class="st5" points="466.4,115 437,115 437,51.9 	"/>
	<polyline class="st5" points="376.1,51.9 376.1,127.6 342.4,127.6 	"/>
	<g>
		<path d="M454,338.4c-0.5,0.9-1,1.8-1.5,2.7c-0.4,1-0.8,2-1,3c-0.3,1-0.4,2-0.5,3h-1.7c0.1-1.1,0.2-2.1,0.5-3.1s0.6-2,1.1-2.9
			c0.4-0.9,0.9-1.8,1.5-2.6c0.6-0.8,1.2-1.6,1.8-2.3h-6.5v-1.4h8v1.3C455.1,336.8,454.5,337.5,454,338.4z"/>
	</g>
	<g>
		<path d="M430.9,386.9H422v3.2h-1.2c0-0.4,0-0.8-0.1-1.2c-0.1-0.4-0.2-0.8-0.4-1.1c-0.2-0.3-0.4-0.6-0.7-0.8s-0.7-0.4-1.2-0.5v-1.1
			h12.4v1.5H430.9z"/>
		<path d="M420,378.4l3.6,0.7l0,0c-0.3-0.3-0.5-0.6-0.7-1c-0.1-0.4-0.2-0.8-0.2-1.3s0.1-1.1,0.3-1.6c0.2-0.5,0.4-0.9,0.8-1.3
			s0.8-0.6,1.3-0.9c0.5-0.2,1.2-0.3,1.9-0.3c0.5,0,1,0.1,1.5,0.3s0.9,0.5,1.3,0.8c0.4,0.4,0.7,0.8,0.9,1.4c0.2,0.5,0.3,1.2,0.3,1.9
			c0,0.5-0.1,1-0.2,1.5c-0.2,0.5-0.4,0.9-0.7,1.3s-0.7,0.6-1.1,0.9c-0.4,0.2-0.9,0.3-1.5,0.3v-1.5c0.3,0,0.6-0.1,0.9-0.2
			s0.5-0.3,0.7-0.5s0.4-0.5,0.5-0.8s0.2-0.7,0.2-1c0-0.4-0.1-0.7-0.2-1s-0.3-0.6-0.6-0.8s-0.6-0.4-0.9-0.6c-0.4-0.1-0.8-0.2-1.3-0.2
			c-0.4,0-0.8,0.1-1.1,0.2c-0.3,0.1-0.6,0.3-0.9,0.6s-0.4,0.5-0.6,0.9c-0.1,0.3-0.2,0.7-0.2,1.1c0,0.5,0.1,0.9,0.3,1.3
			c0.2,0.4,0.5,0.7,0.8,1l-0.1,1.3l-6.4-1.2v-6.1h1.3v4.8H420z"/>
	</g>
	<g>
		<path d="M454,102.2c-0.5,0.9-1,1.8-1.5,2.7c-0.4,1-0.8,2-1,3c-0.3,1-0.4,2-0.5,3h-1.7c0.1-1.1,0.2-2.1,0.5-3.1s0.6-2,1.1-2.9
			c0.4-0.9,0.9-1.8,1.5-2.6c0.6-0.8,1.2-1.6,1.8-2.3h-6.5v-1.4h8v1.4C455.1,100.6,454.5,101.3,454,102.2z"/>
	</g>
	<g>
		<path d="M430.9,93.6H422v3.2h-1.2c0-0.4,0-0.8-0.1-1.2c-0.1-0.4-0.2-0.8-0.4-1.1c-0.2-0.3-0.4-0.6-0.7-0.8s-0.7-0.4-1.2-0.5v-1.1
			h12.4v1.5H430.9z"/>
		<path d="M420,85.1l3.6,0.7l0,0c-0.3-0.3-0.5-0.6-0.7-1c-0.1-0.4-0.2-0.8-0.2-1.3s0.1-1.1,0.3-1.6c0.2-0.5,0.4-0.9,0.8-1.3
			s0.8-0.6,1.3-0.9c0.5-0.2,1.2-0.3,1.9-0.3c0.5,0,1,0.1,1.5,0.3s0.9,0.5,1.3,0.8c0.4,0.4,0.7,0.8,0.9,1.4c0.2,0.5,0.3,1.2,0.3,1.9
			c0,0.5-0.1,1-0.2,1.5c-0.2,0.5-0.4,0.9-0.7,1.3s-0.7,0.6-1.1,0.9c-0.4,0.2-0.9,0.3-1.5,0.3v-1.5c0.3,0,0.6-0.1,0.9-0.2
			s0.5-0.3,0.7-0.5s0.4-0.5,0.5-0.8s0.2-0.7,0.2-1c0-0.4-0.1-0.7-0.2-1s-0.3-0.6-0.6-0.8s-0.6-0.4-0.9-0.6c-0.4-0.1-0.8-0.2-1.3-0.2
			c-0.4,0-0.8,0.1-1.1,0.2c-0.3,0.1-0.6,0.3-0.9,0.6s-0.4,0.5-0.6,0.9c-0.1,0.3-0.2,0.7-0.2,1.1c0,0.5,0.1,0.9,0.3,1.3
			c0.2,0.4,0.5,0.7,0.8,1l-0.1,1.3l-6.4-1.2v-6.1h1.3v4.8H420z"/>
	</g>
	<g>
		<path d="M372.9,93.6H364v3.2h-1.2c0-0.4,0-0.8-0.1-1.2c-0.1-0.4-0.2-0.8-0.4-1.1c-0.2-0.3-0.4-0.6-0.7-0.8s-0.7-0.4-1.2-0.5v-1.1
			h12.4v1.5H372.9z"/>
		<path d="M362.3,86.9c-0.4-0.2-0.7-0.5-1-0.8s-0.5-0.7-0.6-1.2c-0.1-0.4-0.2-0.9-0.2-1.4c0-0.7,0.1-1.3,0.3-1.7
			c0.2-0.5,0.4-0.9,0.7-1.2s0.6-0.5,1-0.7c0.4-0.1,0.8-0.2,1.2-0.2c0.6,0,1.1,0.2,1.5,0.5c0.5,0.3,0.8,0.7,1,1.3
			c0.2-0.7,0.6-1.3,1.1-1.7c0.5-0.4,1.2-0.5,2-0.5c0.6,0,1.1,0.1,1.6,0.3c0.5,0.2,0.9,0.5,1.2,0.9c0.3,0.4,0.6,0.8,0.7,1.3
			s0.2,1,0.2,1.6s-0.1,1.1-0.2,1.7c-0.2,0.5-0.4,1-0.7,1.3c-0.3,0.4-0.7,0.7-1.2,0.9s-1,0.3-1.7,0.3s-1.4-0.2-1.9-0.6
			s-0.9-0.9-1.2-1.6c-0.2,0.5-0.6,0.9-1,1.3s-1,0.5-1.5,0.5C363.1,87.2,362.6,87.1,362.3,86.9z M364.5,85.4c0.3-0.1,0.5-0.3,0.6-0.5
			c0.2-0.2,0.3-0.4,0.4-0.7c0.1-0.3,0.1-0.6,0.1-0.9c0-0.6-0.2-1.1-0.5-1.5s-0.8-0.6-1.5-0.6c-0.6,0-1.1,0.2-1.4,0.6
			s-0.5,0.9-0.5,1.5c0,0.3,0,0.6,0.1,0.8c0.1,0.3,0.2,0.5,0.4,0.7c0.2,0.2,0.4,0.3,0.6,0.5c0.2,0.1,0.5,0.2,0.8,0.2
			C364,85.6,364.3,85.5,364.5,85.4z M371.1,85.3c0.4-0.5,0.6-1.1,0.6-1.9c0-0.4-0.1-0.7-0.2-1s-0.3-0.6-0.5-0.8
			c-0.2-0.2-0.5-0.4-0.8-0.5s-0.6-0.2-1-0.2c-0.3,0-0.7,0.1-0.9,0.2c-0.3,0.1-0.5,0.3-0.7,0.6c-0.2,0.2-0.4,0.5-0.5,0.8
			s-0.2,0.6-0.2,1s0.1,0.7,0.2,1s0.3,0.6,0.5,0.8s0.5,0.4,0.8,0.6c0.3,0.1,0.6,0.2,1,0.2C370.1,86,370.7,85.8,371.1,85.3z"/>
	</g>
	<g>
		<path d="M372.9,383.8H364v3.2h-1.2c0-0.4,0-0.8-0.1-1.2c-0.1-0.4-0.2-0.8-0.4-1.1c-0.2-0.3-0.4-0.6-0.7-0.8s-0.7-0.4-1.2-0.5v-1.1
			h12.4v1.5H372.9z"/>
		<path d="M362.3,377c-0.4-0.2-0.7-0.5-1-0.8s-0.5-0.7-0.6-1.2c-0.1-0.4-0.2-0.9-0.2-1.4c0-0.7,0.1-1.3,0.3-1.7
			c0.2-0.5,0.4-0.9,0.7-1.2s0.6-0.5,1-0.7c0.4-0.1,0.8-0.2,1.2-0.2c0.6,0,1.1,0.2,1.5,0.5c0.5,0.3,0.8,0.7,1,1.3
			c0.2-0.7,0.6-1.3,1.1-1.7c0.5-0.4,1.2-0.5,2-0.5c0.6,0,1.1,0.1,1.6,0.3c0.5,0.2,0.9,0.5,1.2,0.9c0.3,0.4,0.6,0.8,0.7,1.3
			s0.2,1,0.2,1.6s-0.1,1.1-0.2,1.7c-0.2,0.5-0.4,1-0.7,1.3c-0.3,0.4-0.7,0.7-1.2,0.9s-1,0.3-1.7,0.3s-1.4-0.2-1.9-0.6
			s-0.9-0.9-1.2-1.6c-0.2,0.5-0.6,0.9-1,1.3s-1,0.5-1.5,0.5C363.1,377.3,362.6,377.2,362.3,377z M364.5,375.6
			c0.3-0.1,0.5-0.3,0.6-0.5c0.2-0.2,0.3-0.4,0.4-0.7c0.1-0.3,0.1-0.6,0.1-0.9c0-0.6-0.2-1.1-0.5-1.5s-0.8-0.6-1.5-0.6
			c-0.6,0-1.1,0.2-1.4,0.6s-0.5,0.9-0.5,1.5c0,0.3,0,0.6,0.1,0.8c0.1,0.3,0.2,0.5,0.4,0.7c0.2,0.2,0.4,0.3,0.6,0.5
			c0.2,0.1,0.5,0.2,0.8,0.2C364,375.7,364.3,375.7,364.5,375.6z M371.1,375.4c0.4-0.5,0.6-1.1,0.6-1.9c0-0.4-0.1-0.7-0.2-1
			s-0.3-0.6-0.5-0.8c-0.2-0.2-0.5-0.4-0.8-0.5s-0.6-0.2-1-0.2c-0.3,0-0.7,0.1-0.9,0.2c-0.3,0.1-0.5,0.3-0.7,0.6
			c-0.2,0.2-0.4,0.5-0.5,0.8s-0.2,0.6-0.2,1s0.1,0.7,0.2,1s0.3,0.6,0.5,0.8s0.5,0.4,0.8,0.6c0.3,0.1,0.6,0.2,1,0.2
			C370.1,376.2,370.7,375.9,371.1,375.4z"/>
	</g>
	<g>
		<path d="M358.2,322.5c0.2-0.4,0.5-0.7,0.8-1s0.7-0.5,1.2-0.6c0.4-0.1,0.9-0.2,1.4-0.2c0.7,0,1.3,0.1,1.7,0.3
			c0.5,0.2,0.9,0.4,1.2,0.7s0.5,0.6,0.7,1c0.1,0.4,0.2,0.8,0.2,1.2c0,0.6-0.2,1.1-0.5,1.5c-0.3,0.5-0.7,0.8-1.3,1
			c0.7,0.2,1.3,0.6,1.7,1.1c0.4,0.5,0.5,1.2,0.5,2c0,0.6-0.1,1.1-0.3,1.6c-0.2,0.5-0.5,0.9-0.9,1.2c-0.4,0.3-0.8,0.6-1.3,0.7
			s-1,0.2-1.6,0.2s-1.1-0.1-1.7-0.2c-0.5-0.2-1-0.4-1.3-0.7c-0.4-0.3-0.7-0.7-0.9-1.2s-0.3-1-0.3-1.7s0.2-1.4,0.6-1.9
			s0.9-0.9,1.6-1.2c-0.5-0.2-0.9-0.6-1.3-1s-0.5-1-0.5-1.5C357.9,323.3,358,322.9,358.2,322.5z M359.8,331.4
			c0.5,0.4,1.1,0.6,1.9,0.6c0.4,0,0.7-0.1,1-0.2s0.6-0.3,0.8-0.5c0.2-0.2,0.4-0.5,0.5-0.8s0.2-0.6,0.2-1c0-0.3-0.1-0.7-0.2-0.9
			c-0.1-0.3-0.3-0.5-0.6-0.7c-0.2-0.2-0.5-0.4-0.8-0.5s-0.6-0.2-1-0.2s-0.7,0.1-1,0.2s-0.6,0.3-0.8,0.5s-0.4,0.5-0.6,0.8
			c-0.1,0.3-0.2,0.6-0.2,1C359,330.3,359.3,330.9,359.8,331.4z M359.6,324.8c0.1,0.3,0.3,0.5,0.5,0.6c0.2,0.2,0.4,0.3,0.7,0.4
			c0.3,0.1,0.6,0.1,0.9,0.1c0.6,0,1.1-0.2,1.5-0.5s0.6-0.8,0.6-1.5c0-0.6-0.2-1.1-0.6-1.4s-0.9-0.5-1.5-0.5c-0.3,0-0.6,0-0.8,0.1
			c-0.3,0.1-0.5,0.2-0.7,0.4c-0.2,0.2-0.3,0.4-0.5,0.6c-0.1,0.2-0.2,0.5-0.2,0.8C359.5,324.2,359.5,324.5,359.6,324.8z"/>
	</g>
	<g>
		<path d="M358.2,112.4c0.2-0.4,0.5-0.7,0.8-1s0.7-0.5,1.2-0.6c0.4-0.1,0.9-0.2,1.4-0.2c0.7,0,1.3,0.1,1.7,0.3
			c0.5,0.2,0.9,0.4,1.2,0.7s0.5,0.6,0.7,1c0.1,0.4,0.2,0.8,0.2,1.2c0,0.6-0.2,1.1-0.5,1.5c-0.3,0.5-0.7,0.8-1.3,1
			c0.7,0.2,1.3,0.6,1.7,1.1c0.4,0.5,0.5,1.2,0.5,2c0,0.6-0.1,1.1-0.3,1.6c-0.2,0.5-0.5,0.9-0.9,1.2c-0.4,0.3-0.8,0.6-1.3,0.7
			s-1,0.2-1.6,0.2s-1.1-0.1-1.7-0.2c-0.5-0.2-1-0.4-1.3-0.7c-0.4-0.3-0.7-0.7-0.9-1.2s-0.3-1-0.3-1.7s0.2-1.4,0.6-1.9
			s0.9-0.9,1.6-1.2c-0.5-0.2-0.9-0.6-1.3-1s-0.5-1-0.5-1.5C357.9,113.2,358,112.8,358.2,112.4z M359.8,121.2
			c0.5,0.4,1.1,0.6,1.9,0.6c0.4,0,0.7-0.1,1-0.2s0.6-0.3,0.8-0.5c0.2-0.2,0.4-0.5,0.5-0.8s0.2-0.6,0.2-1c0-0.3-0.1-0.7-0.2-0.9
			c-0.1-0.3-0.3-0.5-0.6-0.7c-0.2-0.2-0.5-0.4-0.8-0.5s-0.6-0.2-1-0.2s-0.7,0.1-1,0.2s-0.6,0.3-0.8,0.5s-0.4,0.5-0.6,0.8
			c-0.1,0.3-0.2,0.6-0.2,1C359,120.2,359.3,120.8,359.8,121.2z M359.6,114.7c0.1,0.3,0.3,0.5,0.5,0.6c0.2,0.2,0.4,0.3,0.7,0.4
			c0.3,0.1,0.6,0.1,0.9,0.1c0.6,0,1.1-0.2,1.5-0.5s0.6-0.8,0.6-1.5c0-0.6-0.2-1.1-0.6-1.4s-0.9-0.5-1.5-0.5c-0.3,0-0.6,0-0.8,0.1
			c-0.3,0.1-0.5,0.2-0.7,0.4c-0.2,0.2-0.3,0.4-0.5,0.6c-0.1,0.2-0.2,0.5-0.2,0.8S359.5,114.4,359.6,114.7z"/>
	</g>
	<g>
		<path d="M312.3,70.9c0.2-0.4,0.5-0.7,0.8-1s0.7-0.5,1.2-0.6c0.4-0.1,0.9-0.2,1.4-0.2c0.7,0,1.3,0.1,1.7,0.3
			c0.5,0.2,0.9,0.4,1.2,0.7s0.5,0.6,0.7,1c0.1,0.4,0.2,0.8,0.2,1.2c0,0.6-0.2,1.1-0.5,1.5c-0.3,0.5-0.7,0.8-1.3,1
			c0.7,0.2,1.3,0.6,1.7,1.1c0.4,0.5,0.5,1.2,0.5,2c0,0.6-0.1,1.1-0.3,1.6c-0.2,0.5-0.5,0.9-0.9,1.2c-0.4,0.3-0.8,0.6-1.3,0.7
			s-1,0.2-1.6,0.2s-1.1-0.1-1.7-0.2c-0.5-0.2-1-0.4-1.3-0.7c-0.4-0.3-0.7-0.7-0.9-1.2s-0.3-1-0.3-1.7s0.2-1.4,0.6-1.9
			s0.9-0.9,1.6-1.2c-0.5-0.2-0.9-0.6-1.3-1s-0.5-1-0.5-1.5C312,71.7,312.1,71.3,312.3,70.9z M313.9,79.7c0.5,0.4,1.1,0.6,1.9,0.6
			c0.4,0,0.7-0.1,1-0.2s0.6-0.3,0.8-0.5c0.2-0.2,0.4-0.5,0.5-0.8s0.2-0.6,0.2-1c0-0.3-0.1-0.7-0.2-0.9c-0.1-0.3-0.3-0.5-0.6-0.7
			c-0.2-0.2-0.5-0.4-0.8-0.5s-0.6-0.2-1-0.2s-0.7,0.1-1,0.2s-0.6,0.3-0.8,0.5s-0.4,0.5-0.6,0.8c-0.1,0.3-0.2,0.6-0.2,1
			C313.1,78.7,313.4,79.3,313.9,79.7z M313.7,73.2c0.1,0.3,0.3,0.5,0.5,0.6c0.2,0.2,0.4,0.3,0.7,0.4c0.3,0.1,0.6,0.1,0.9,0.1
			c0.6,0,1.1-0.2,1.5-0.5s0.6-0.8,0.6-1.5c0-0.6-0.2-1.1-0.6-1.4s-0.9-0.5-1.5-0.5c-0.3,0-0.6,0-0.8,0.1c-0.3,0.1-0.5,0.2-0.7,0.4
			c-0.2,0.2-0.3,0.4-0.5,0.6c-0.1,0.2-0.2,0.5-0.2,0.8S313.6,72.9,313.7,73.2z"/>
	</g>
	<g>
		<path d="M282.6,70.8c-0.4-0.2-0.7-0.5-1-0.8s-0.5-0.7-0.6-1.2c-0.1-0.4-0.2-0.9-0.2-1.4c0-0.7,0.1-1.3,0.3-1.7
			c0.2-0.5,0.4-0.9,0.7-1.2c0.3-0.3,0.6-0.5,1-0.7c0.4-0.1,0.8-0.2,1.2-0.2c0.6,0,1.1,0.2,1.5,0.5c0.5,0.3,0.8,0.7,1,1.3
			c0.2-0.7,0.6-1.3,1.1-1.7s1.2-0.5,2-0.5c0.6,0,1.1,0.1,1.6,0.3s0.9,0.5,1.2,0.9c0.3,0.4,0.6,0.8,0.7,1.3s0.2,1,0.2,1.6
			s-0.1,1.1-0.2,1.7c-0.2,0.5-0.4,1-0.7,1.3c-0.3,0.4-0.7,0.7-1.2,0.9s-1,0.3-1.7,0.3s-1.4-0.2-1.9-0.6s-0.9-0.9-1.2-1.6
			c-0.2,0.5-0.6,0.9-1,1.3s-1,0.5-1.5,0.5C283.4,71.1,282.9,71,282.6,70.8z M284.8,69.3c0.3-0.1,0.5-0.3,0.6-0.5
			c0.2-0.2,0.3-0.4,0.4-0.7c0.1-0.3,0.1-0.6,0.1-0.9c0-0.6-0.2-1.1-0.5-1.5s-0.8-0.6-1.5-0.6c-0.6,0-1.1,0.2-1.4,0.6
			s-0.5,0.9-0.5,1.5c0,0.3,0,0.6,0.1,0.8c0.1,0.3,0.2,0.5,0.4,0.7c0.2,0.2,0.4,0.3,0.6,0.5c0.2,0.1,0.5,0.2,0.8,0.2
			C284.3,69.5,284.6,69.4,284.8,69.3z M291.4,69.2c0.4-0.5,0.6-1.1,0.6-1.9c0-0.4-0.1-0.7-0.2-1c-0.1-0.3-0.3-0.6-0.5-0.8
			c-0.2-0.2-0.5-0.4-0.8-0.5s-0.6-0.2-1-0.2c-0.3,0-0.7,0.1-0.9,0.2c-0.3,0.1-0.5,0.3-0.7,0.6c-0.2,0.2-0.4,0.5-0.5,0.8
			c-0.1,0.3-0.2,0.6-0.2,1s0.1,0.7,0.2,1s0.3,0.6,0.5,0.8s0.5,0.4,0.8,0.6c0.3,0.1,0.6,0.2,1,0.2C290.4,69.9,291,69.7,291.4,69.2z"
			/>
	</g>
	<g>
		<path d="M312.3,365c0.2-0.4,0.5-0.7,0.8-1s0.7-0.5,1.2-0.6c0.4-0.1,0.9-0.2,1.4-0.2c0.7,0,1.3,0.1,1.7,0.3
			c0.5,0.2,0.9,0.4,1.2,0.7s0.5,0.6,0.7,1c0.1,0.4,0.2,0.8,0.2,1.2c0,0.6-0.2,1.1-0.5,1.5c-0.3,0.5-0.7,0.8-1.3,1
			c0.7,0.2,1.3,0.6,1.7,1.1c0.4,0.5,0.5,1.2,0.5,2c0,0.6-0.1,1.1-0.3,1.6c-0.2,0.5-0.5,0.9-0.9,1.2c-0.4,0.3-0.8,0.6-1.3,0.7
			s-1,0.2-1.6,0.2s-1.1-0.1-1.7-0.2c-0.5-0.2-1-0.4-1.3-0.7c-0.4-0.3-0.7-0.7-0.9-1.2s-0.3-1-0.3-1.7s0.2-1.4,0.6-1.9
			s0.9-0.9,1.6-1.2c-0.5-0.2-0.9-0.6-1.3-1s-0.5-1-0.5-1.5C312,365.9,312.1,365.4,312.3,365z M313.9,373.9c0.5,0.4,1.1,0.6,1.9,0.6
			c0.4,0,0.7-0.1,1-0.2s0.6-0.3,0.8-0.5c0.2-0.2,0.4-0.5,0.5-0.8s0.2-0.6,0.2-1c0-0.3-0.1-0.7-0.2-0.9c-0.1-0.3-0.3-0.5-0.6-0.7
			c-0.2-0.2-0.5-0.4-0.8-0.5s-0.6-0.2-1-0.2s-0.7,0.1-1,0.2s-0.6,0.3-0.8,0.5s-0.4,0.5-0.6,0.8c-0.1,0.3-0.2,0.6-0.2,1
			C313.1,372.9,313.4,373.5,313.9,373.9z M313.7,367.3c0.1,0.3,0.3,0.5,0.5,0.6c0.2,0.2,0.4,0.3,0.7,0.4c0.3,0.1,0.6,0.1,0.9,0.1
			c0.6,0,1.1-0.2,1.5-0.5s0.6-0.8,0.6-1.5c0-0.6-0.2-1.1-0.6-1.4s-0.9-0.5-1.5-0.5c-0.3,0-0.6,0-0.8,0.1c-0.3,0.1-0.5,0.2-0.7,0.4
			c-0.2,0.2-0.3,0.4-0.5,0.6c-0.1,0.2-0.2,0.5-0.2,0.8C313.6,366.8,313.6,367.1,313.7,367.3z"/>
	</g>
	<g>
		<path d="M282.6,401c-0.4-0.2-0.7-0.5-1-0.8s-0.5-0.7-0.6-1.2c-0.1-0.4-0.2-0.9-0.2-1.4c0-0.7,0.1-1.3,0.3-1.7
			c0.2-0.5,0.4-0.9,0.7-1.2s0.6-0.5,1-0.7c0.4-0.1,0.8-0.2,1.2-0.2c0.6,0,1.1,0.2,1.5,0.5c0.5,0.3,0.8,0.7,1,1.3
			c0.2-0.7,0.6-1.3,1.1-1.7c0.5-0.4,1.2-0.5,2-0.5c0.6,0,1.1,0.1,1.6,0.3c0.5,0.2,0.9,0.5,1.2,0.9c0.3,0.4,0.6,0.8,0.7,1.3
			s0.2,1,0.2,1.6s-0.1,1.1-0.2,1.7c-0.2,0.5-0.4,1-0.7,1.3c-0.3,0.4-0.7,0.7-1.2,0.9s-1,0.3-1.7,0.3s-1.4-0.2-1.9-0.6
			s-0.9-0.9-1.2-1.6c-0.2,0.5-0.6,0.9-1,1.3s-1,0.5-1.5,0.5C283.4,401.3,282.9,401.2,282.6,401z M284.8,399.5
			c0.3-0.1,0.5-0.3,0.6-0.5c0.2-0.2,0.3-0.4,0.4-0.7c0.1-0.3,0.1-0.6,0.1-0.9c0-0.6-0.2-1.1-0.5-1.5s-0.8-0.6-1.5-0.6
			c-0.6,0-1.1,0.2-1.4,0.6s-0.5,0.9-0.5,1.5c0,0.3,0,0.6,0.1,0.8c0.1,0.3,0.2,0.5,0.4,0.7c0.2,0.2,0.4,0.3,0.6,0.5
			c0.2,0.1,0.5,0.2,0.8,0.2C284.3,399.7,284.6,399.6,284.8,399.5z M291.4,399.4c0.4-0.5,0.6-1.1,0.6-1.9c0-0.4-0.1-0.7-0.2-1
			s-0.3-0.6-0.5-0.8c-0.2-0.2-0.5-0.4-0.8-0.5s-0.6-0.2-1-0.2c-0.3,0-0.7,0.1-0.9,0.2c-0.3,0.1-0.5,0.3-0.7,0.6
			c-0.2,0.2-0.4,0.5-0.5,0.8s-0.2,0.6-0.2,1s0.1,0.7,0.2,1s0.3,0.6,0.5,0.8s0.5,0.4,0.8,0.6c0.3,0.1,0.6,0.2,1,0.2
			C290.4,400.1,291,399.9,291.4,399.4z"/>
	</g>
	<g>
		<path d="M43.7,17.6v0.6h-3.4v14.4h-0.7V18.2h-3.5v-0.6C36.1,17.6,43.7,17.6,43.7,17.6z"/>
		<path d="M45,31.4c-0.9-1-1.4-2.1-1.4-3.3c0-1.3,0.5-2.4,1.4-3.3s2.1-1.4,3.4-1.4c1.3,0,2.4,0.5,3.4,1.4c0.9,0.9,1.4,2,1.4,3.3
			s-0.5,2.4-1.4,3.3s-2,1.4-3.3,1.4h-0.2C47,32.8,45.9,32.3,45,31.4z M52.5,28.1c0-1.1-0.4-2.1-1.2-2.9S49.5,24,48.4,24
			s-2.1,0.4-2.9,1.2c-0.8,0.8-1.2,1.8-1.2,2.9s0.4,2.1,1.2,2.9s1.8,1.2,2.9,1.2c1.1,0,2.1-0.4,2.9-1.2
			C52.1,30.2,52.5,29.2,52.5,28.1z"/>
		<path d="M55.5,36.6v-13h0.6v2.2c0.4-0.7,0.9-1.3,1.7-1.8s1.6-0.7,2.4-0.7c1.3,0,2.4,0.5,3.4,1.4c0.9,0.9,1.4,2,1.4,3.3
			s-0.5,2.4-1.4,3.3s-2,1.4-3.4,1.4c-0.8,0-1.6-0.2-2.3-0.7c-0.8-0.4-1.3-1-1.7-1.8v6.2h-0.7V36.6z M56.1,28.1
			c0,1.1,0.4,2.1,1.2,2.9s1.8,1.2,2.9,1.2c1.1,0,2.1-0.4,2.9-1.2c0.8-0.8,1.2-1.8,1.2-2.9s-0.4-2.1-1.2-2.9S61.3,24,60.2,24
			s-2.1,0.4-2.9,1.2C56.5,26,56.1,27,56.1,28.1z"/>
		<path d="M74.9,17.6h0.7c1.4,0,2.6,0.5,3.5,1.4c1,1,1.5,2.1,1.5,3.4s-0.5,2.4-1.5,3.3s-2.1,1.4-3.3,1.4h-0.2v5.5h-0.7V17.6z
			 M75.6,26.6h0.2c1.1,0,2.1-0.4,2.9-1.2c0.8-0.8,1.2-1.8,1.2-2.9s-0.4-2.1-1.3-3c-0.8-0.8-1.8-1.3-2.9-1.3h-0.2v8.4H75.6z"/>
		<path d="M86.3,32.2v0.6c-0.9,0-1.8-0.3-2.4-1c-0.7-0.6-1-1.4-1-2.4V17.6h0.6v11.8c0,0.8,0.3,1.5,0.8,2
			C84.8,32,85.5,32.2,86.3,32.2z"/>
		<path d="M96.4,23.6v9h-0.6v-2.2c-0.4,0.8-0.9,1.4-1.7,1.8c-0.8,0.4-1.5,0.7-2.4,0.7c-1.3,0-2.4-0.5-3.4-1.4
			c-0.9-0.9-1.4-2-1.4-3.3s0.5-2.4,1.4-3.3s2.1-1.4,3.4-1.4c0.9,0,1.7,0.2,2.5,0.7s1.3,1.1,1.6,1.8v-2.3h0.6V23.6z M87.6,28.1
			c0,1.1,0.4,2.1,1.2,2.9c0.8,0.8,1.8,1.2,2.9,1.2s2.1-0.4,2.9-1.2c0.8-0.8,1.2-1.8,1.2-2.9s-0.4-2.1-1.2-2.9
			c-0.8-0.8-1.8-1.2-2.9-1.2s-2.1,0.4-2.9,1.2C88,26,87.6,27,87.6,28.1z"/>
		<path d="M102.5,32.2v0.6c-0.9,0-1.8-0.3-2.4-1c-0.7-0.6-1-1.4-1-2.4V20h0.6v3.6h2.8v0.6h-2.8v5.2c0,0.8,0.3,1.5,0.8,2
			C101,31.9,101.7,32.2,102.5,32.2z"/>
		<path d="M109,32.8h-0.2c-1.3,0-2.4-0.5-3.3-1.4c-0.9-1-1.4-2.1-1.4-3.3c0-1.3,0.5-2.4,1.4-3.3s2.1-1.4,3.5-1.4s2.6,0.5,3.5,1.6
			l-6.3,6.2c0.9,0.7,1.7,1,2.5,1s1.5-0.2,2.1-0.6s1.2-0.9,1.6-1.5v1C111.5,32.3,110.3,32.8,109,32.8z M108.8,24
			c-1.1,0-2,0.4-2.8,1.2c-0.8,0.8-1.2,1.8-1.2,2.8c0,1.1,0.4,2,1.1,2.8l5.8-5.8C110.8,24.3,109.8,24,108.8,24z"/>
	</g>
	<g>
		<path d="M304.5,18.9v2.4h-0.7v-2.4c0-0.6,0.2-1.2,0.5-1.6s0.8-0.8,1.4-0.9v0.7C304.9,17.4,304.5,18,304.5,18.9z M307,18.9v2.4
			h-0.7v-2.4c0-0.6,0.2-1.2,0.5-1.6s0.8-0.8,1.4-0.9v0.7C307.4,17.4,307,18,307,18.9z"/>
		<path d="M311.2,17.6V32h4.6v0.6h-5.3v-15H311.2z"/>
		<path d="M318.3,18.7v-2.3h0.7v2.3c0,0.6-0.2,1.2-0.5,1.6s-0.8,0.8-1.4,0.9v-0.7C317.9,20.2,318.3,19.6,318.3,18.7z M320.8,18.7
			v-2.3h0.7v2.3c0,0.6-0.2,1.2-0.5,1.6s-0.8,0.8-1.4,0.9v-0.7C320.4,20.2,320.8,19.6,320.8,18.7z"/>
		<path d="M332.8,17.6h0.7c1.4,0,2.6,0.5,3.5,1.4c1,1,1.5,2.1,1.5,3.4s-0.5,2.4-1.5,3.3s-2.1,1.4-3.3,1.4h-0.2v5.5h-0.7V17.6z
			 M333.5,26.6h0.2c1.1,0,2.1-0.4,2.9-1.2c0.8-0.8,1.2-1.8,1.2-2.9s-0.4-2.1-1.3-3c-0.8-0.8-1.8-1.3-2.9-1.3h-0.2L333.5,26.6
			L333.5,26.6z"/>
		<path d="M344.2,32.2v0.6c-0.9,0-1.8-0.3-2.4-1c-0.6-0.7-1-1.4-1-2.4V17.6h0.6v11.8c0,0.8,0.3,1.5,0.8,2
			C342.7,32,343.4,32.2,344.2,32.2z"/>
		<path d="M354.3,23.6v9h-0.6v-2.2c-0.4,0.8-0.9,1.4-1.7,1.8c-0.7,0.4-1.5,0.7-2.4,0.7c-1.3,0-2.4-0.5-3.4-1.4
			c-0.9-0.9-1.4-2-1.4-3.3s0.5-2.4,1.4-3.3s2.1-1.4,3.4-1.4c0.9,0,1.7,0.2,2.5,0.7s1.3,1.1,1.6,1.8v-2.3h0.6V23.6z M345.5,28.1
			c0,1.1,0.4,2.1,1.2,2.9c0.8,0.8,1.8,1.2,2.9,1.2s2.1-0.4,2.9-1.2c0.8-0.8,1.2-1.8,1.2-2.9s-0.4-2.1-1.2-2.9s-1.8-1.2-2.9-1.2
			s-2.1,0.4-2.9,1.2C345.9,26,345.5,27,345.5,28.1z"/>
		<path d="M360.4,32.2v0.6c-0.9,0-1.8-0.3-2.4-1c-0.7-0.6-1-1.4-1-2.4V20h0.6v3.6h2.8v0.6h-2.8v5.2c0,0.8,0.3,1.5,0.8,2
			C358.9,31.9,359.6,32.2,360.4,32.2z"/>
		<path d="M366.9,32.8h-0.2c-1.3,0-2.4-0.5-3.3-1.4c-0.9-1-1.4-2.1-1.4-3.3c0-1.3,0.5-2.4,1.4-3.3s2.1-1.4,3.5-1.4s2.6,0.5,3.5,1.6
			l-6.3,6.2c0.9,0.7,1.7,1,2.5,1s1.5-0.2,2.1-0.6s1.2-0.9,1.6-1.5v1C369.4,32.3,368.2,32.8,366.9,32.8z M366.7,24
			c-1.1,0-2,0.4-2.8,1.2c-0.8,0.8-1.2,1.8-1.2,2.8c0,1.1,0.4,2,1.1,2.8l5.8-5.8C368.7,24.3,367.7,24,366.7,24z"/>
	</g>
</g>
</svg>
