<?xml version="1.0" encoding="UTF-8" standalone="no"?>
<svg width="122px" height="238px" viewBox="0 0 122 238" version="1.1" xmlns="http://www.w3.org/2000/svg" xmlns:xlink="http://www.w3.org/1999/xlink">
    <!-- Generator: Sketch 3.7.2 (28276) - http://www.bohemiancoding.com/sketch -->
    <title>Drillsheet L Plates</title>
    <desc>Created with Sketch.</desc>
    <defs>
        <path d="M1,1 L31,1 L31,164 L1,164 L1,1 Z M16,27 C18.209139,27 20,25.209139 20,23 C20,20.790861 18.209139,19 16,19 C13.790861,19 12,20.790861 12,23 C12,25.209139 13.790861,27 16,27 Z M16,146 C18.209139,146 20,144.209139 20,142 C20,139.790861 18.209139,138 16,138 C13.790861,138 12,139.790861 12,142 C12,144.209139 13.790861,146 16,146 Z" id="path-1"></path>
        <mask id="mask-2" maskContentUnits="userSpaceOnUse" maskUnits="objectBoundingBox" x="0" y="0" width="30" height="163" fill="white">
            <use xlink:href="#path-1"></use>
        </mask>
        <path d="M0.5,0 L40.5,0 L40.5,49 L30.5,49 L30.5,57 L40.5,57 L40.5,106 C40.5,106.081193 30.5,106 30.5,106 L30.5,114 L40.5,114 L40.5,163 L0.5,163 L0.5,0 Z M5,96 C6.1045695,96 7,95.1045695 7,94 C7,92.8954305 6.1045695,92 5,92 C3.8954305,92 3,92.8954305 3,94 C3,95.1045695 3.8954305,96 5,96 Z M5,71 C6.1045695,71 7,70.1045695 7,69 C7,67.8954305 6.1045695,67 5,67 C3.8954305,67 3,67.8954305 3,69 C3,70.1045695 3.8954305,71 5,71 Z M5,14 C6.1045695,14 7,13.1045695 7,12 C7,10.8954305 6.1045695,10 5,10 C3.8954305,10 3,10.8954305 3,12 C3,13.1045695 3.8954305,14 5,14 Z M24.5,14 C25.6045695,14 26.5,13.1045695 26.5,12 C26.5,10.8954305 25.6045695,10 24.5,10 C23.3954305,10 22.5,10.8954305 22.5,12 C22.5,13.1045695 23.3954305,14 24.5,14 Z M5,34 C6.1045695,34 7,33.1045695 7,32 C7,30.8954305 6.1045695,30 5,30 C3.8954305,30 3,30.8954305 3,32 C3,33.1045695 3.8954305,34 5,34 Z M24.5,34 C25.6045695,34 26.5,33.1045695 26.5,32 C26.5,30.8954305 25.6045695,30 24.5,30 C23.3954305,30 22.5,30.8954305 22.5,32 C22.5,33.1045695 23.3954305,34 24.5,34 Z M24.5,133 C25.6045695,133 26.5,132.104569 26.5,131 C26.5,129.895431 25.6045695,129 24.5,129 C23.3954305,129 22.5,129.895431 22.5,131 C22.5,132.104569 23.3954305,133 24.5,133 Z M5,133 C6.1045695,133 7,132.104569 7,131 C7,129.895431 6.1045695,129 5,129 C3.8954305,129 3,129.895431 3,131 C3,132.104569 3.8954305,133 5,133 Z M24.5,153 C25.6045695,153 26.5,152.104569 26.5,151 C26.5,149.895431 25.6045695,149 24.5,149 C23.3954305,149 22.5,149.895431 22.5,151 C22.5,152.104569 23.3954305,153 24.5,153 Z M5,153 C6.1045695,153 7,152.104569 7,151 C7,149.895431 6.1045695,149 5,149 C3.8954305,149 3,149.895431 3,151 C3,152.104569 3.8954305,153 5,153 Z" id="path-3"></path>
        <mask id="mask-4" maskContentUnits="userSpaceOnUse" maskUnits="objectBoundingBox" x="0" y="0" width="40" height="163" fill="white">
            <use xlink:href="#path-3"></use>
        </mask>
    </defs>
    <g id="Page-1" stroke="none" stroke-width="1" fill="none" fill-rule="evenodd">
        <g id="Drillsheet-L-Plates">
            <g id="4" transform="translate(22.000000, 67.000000)">
                <use id="Combined-Shape" stroke="#D9D9D9" mask="url(#mask-2)" stroke-width="2" xlink:href="#path-1"></use>
                <polyline id="Path-23" stroke="#000000" stroke-width="0.3" opacity="0.15" points="16 164 16 142 1 142"></polyline>
                <polyline id="Path-23" stroke="#000000" stroke-width="0.3" opacity="0.15" transform="translate(8.495735, 11.997024) scale(1, -1) translate(-8.495735, -11.997024) " points="16 23 16 0.994048462 0.991469527 0.994048462"></polyline>
                <text id="15" font-family="Helvetica" font-size="3" font-weight="normal" fill="#000000">
                    <tspan x="7" y="141">15</tspan>
                </text>
                <text id="22" font-family="Helvetica" font-size="3" font-weight="normal" fill="#000000">
                    <tspan x="17" y="152">22</tspan>
                </text>
                <text id="15" font-family="Helvetica" font-size="3" font-weight="normal" fill="#000000">
                    <tspan x="7" y="26">15</tspan>
                </text>
                <text id="22" font-family="Helvetica" font-size="3" font-weight="normal" fill="#000000">
                    <tspan x="17" y="13">22</tspan>
                </text>
            </g>
            <g id="3" transform="translate(60.000000, 68.000000)">
                <use id="Combined-Shape" stroke="#D9D9D9" mask="url(#mask-4)" stroke-width="2" xlink:href="#path-3"></use>
                <polyline id="Path-13" stroke="#000000" stroke-width="0.3" opacity="0.15" points="5 0 5 12 0.5 12"></polyline>
                <polyline id="Path-14" stroke="#000000" stroke-width="0.3" opacity="0.15" points="24.5 0 24.5 12 40.5 12"></polyline>
                <polyline id="Path-15" stroke="#000000" stroke-width="0.3" opacity="0.15" points="24.5 0 24.5 32 0.5 32"></polyline>
                <polyline id="Path-16" stroke="#000000" stroke-width="0.3" opacity="0.15" points="5 0 5 32 0.5 32"></polyline>
                <polyline id="Path-16" stroke="#000000" stroke-width="0.3" opacity="0.15" points="5 0 5 69 0.5 69"></polyline>
                <polyline id="Path-13" stroke="#000000" stroke-width="0.3" opacity="0.15" transform="translate(2.750000, 157.000000) scale(1, -1) translate(-2.750000, -157.000000) " points="5 151 5 163 0.5 163"></polyline>
                <polyline id="Path-13" stroke="#000000" stroke-width="0.3" opacity="0.15" transform="translate(2.750000, 147.000000) scale(1, -1) translate(-2.750000, -147.000000) " points="5 131 5 163 0.5 163"></polyline>
                <polyline id="Path-14" stroke="#000000" stroke-width="0.3" opacity="0.15" transform="translate(32.503744, 157.005206) scale(1, -1) translate(-32.503744, -157.005206) " points="24.5 151 24.5 163.010412 40.5074888 163.010412"></polyline>
                <polyline id="Path-15" stroke="#000000" stroke-width="0.3" opacity="0.15" transform="translate(12.500000, 147.000000) scale(1, -1) translate(-12.500000, -147.000000) " points="24.5 131 24.5 163 0.5 163"></polyline>
                <polyline id="Path-16" stroke="#000000" stroke-width="0.3" opacity="0.15" transform="translate(2.750000, 128.500000) scale(1, -1) translate(-2.750000, -128.500000) " points="5 94 5 163 0.5 163"></polyline>
                <text id="4,5" font-family="Helvetica" font-size="3" font-weight="normal" fill="#000000">
                    <tspan x="1" y="15">4,5</tspan>
                </text>
                <text id="4,5" font-family="Helvetica" font-size="3" font-weight="normal" fill="#000000">
                    <tspan x="1" y="35">4,5</tspan>
                </text>
                <text id="4,5" font-family="Helvetica" font-size="3" font-weight="normal" fill="#000000">
                    <tspan x="1" y="72">4,5</tspan>
                </text>
                <text id="69" font-family="Helvetica" font-size="3" font-weight="normal" fill="#000000">
                    <tspan x="6" y="51">69</tspan>
                </text>
                <text id="24" font-family="Helvetica" font-size="3" font-weight="normal" fill="#000000">
                    <tspan x="13" y="35">24</tspan>
                </text>
                <text id="16" font-family="Helvetica" font-size="3" font-weight="normal" fill="#000000">
                    <tspan x="31" y="15">16</tspan>
                </text>
                <text id="32" font-family="Helvetica" font-size="3" font-weight="normal" fill="#000000">
                    <tspan x="25" y="21">32</tspan>
                </text>
                <text id="12" font-family="Helvetica" font-size="3" font-weight="normal" fill="#000000">
                    <tspan x="6" y="6">12</tspan>
                </text>
                <text id="32" font-family="Helvetica" font-size="3" font-weight="normal" fill="#000000">
                    <tspan x="6" y="21">32</tspan>
                </text>
                <text id="4,5" font-family="Helvetica" font-size="3" font-weight="normal" fill="#000000">
                    <tspan x="20" y="6">12</tspan>
                </text>
                <text id="4,5" font-family="Helvetica" font-size="3" font-weight="normal" fill="#000000">
                    <tspan x="1" y="93">4,5</tspan>
                </text>
                <text id="4,5" font-family="Helvetica" font-size="3" font-weight="normal" fill="#000000">
                    <tspan x="1" y="130">4,5</tspan>
                </text>
                <text id="4,5" font-family="Helvetica" font-size="3" font-weight="normal" fill="#000000">
                    <tspan x="1" y="150">4,5</tspan>
                </text>
                <text id="69" font-family="Helvetica" font-size="3" font-weight="normal" fill="#000000">
                    <tspan x="6" y="119">69</tspan>
                </text>
                <text id="24" font-family="Helvetica" font-size="3" font-weight="normal" fill="#000000">
                    <tspan x="13" y="130">24</tspan>
                </text>
                <text id="16" font-family="Helvetica" font-size="3" font-weight="normal" fill="#000000">
                    <tspan x="31" y="150">16</tspan>
                </text>
                <text id="32" font-family="Helvetica" font-size="3" font-weight="normal" fill="#000000">
                    <tspan x="25" y="142">32</tspan>
                </text>
                <text id="12" font-family="Helvetica" font-size="3" font-weight="normal" fill="#000000">
                    <tspan x="6" y="157">12</tspan>
                </text>
                <text id="32" font-family="Helvetica" font-size="3" font-weight="normal" fill="#000000">
                    <tspan x="6" y="142">32</tspan>
                </text>
                <text id="4,5" font-family="Helvetica" font-size="3" font-weight="normal" fill="#000000">
                    <tspan x="20" y="157">12</tspan>
                </text>
            </g>
            <text id="x2" font-family="Helvetica-Light, Helvetica" font-size="12" font-weight="300" fill="#000000">
                <tspan x="54.164" y="41">x2</tspan>
            </text>
            <text id="side" font-family="Helvetica-Light, Helvetica" font-size="12" font-weight="300" fill="#000000">
                <tspan x="29.166" y="58">side</tspan>
            </text>
            <text id="top" font-family="Helvetica-Light, Helvetica" font-size="12" font-weight="300" fill="#000000">
                <tspan x="71.83" y="58">top</tspan>
            </text>
            <text id="“L”-Plate" font-family="Helvetica-Light, Helvetica" font-size="12" font-weight="300" fill="#000000">
                <tspan x="37.49" y="25">“L” Plate</tspan>
            </text>
            <text id="4,5-copy" font-family="Helvetica" font-size="3" font-weight="normal" fill="#000000">
                <tspan x="104" y="93">49</tspan>
            </text>
            <text id="4,5-copy" font-family="Helvetica" font-size="3" font-weight="normal" fill="#000000">
                <tspan x="93" y="123">10</tspan>
            </text>
            <path d="M102.5,68 L102.5,117.002577 L102.5,68 Z" id="Path-26" stroke="#000000" stroke-width="0.3" opacity="0.149999991"></path>
            <path d="M90.5,119 L100.5,119" id="Path-27" stroke="#000000" stroke-width="0.3" opacity="0.15"></path>
            <text id="4,5-copy" font-family="Helvetica" font-size="3" font-weight="normal" fill="#000000">
                <tspan x="85" y="122">8</tspan>
            </text>
            <path d="M88,117 L88,125" id="Path-27" stroke="#000000" stroke-width="0.3" opacity="0.15"></path>
            <text id="4,5-copy" font-family="Helvetica" font-size="3" font-weight="normal" fill="#000000">
                <tspan x="85" y="179">8</tspan>
            </text>
            <path d="M88,174 L88,182" id="Path-27" stroke="#000000" stroke-width="0.3" opacity="0.15"></path>
            <text id="4,5-copy" font-family="Helvetica" font-size="3" font-weight="normal" fill="#000000">
                <tspan x="104" y="208">49</tspan>
            </text>
            <text id="4,5-copy" font-family="Helvetica" font-size="3" font-weight="normal" fill="#000000">
                <tspan x="93" y="178">10</tspan>
            </text>
            <path d="M102.5,182 L102.5,231.002577 L102.5,182 Z" id="Path-26" stroke="#000000" stroke-width="0.3" opacity="0.149999991"></path>
            <path d="M90.5,180 L100.5,180" id="Path-27" stroke="#000000" stroke-width="0.3" opacity="0.15"></path>
        </g>
    </g>
</svg>