<?xml version="1.0" encoding="utf-8"?>
<!-- Generator: Adobe Illustrator 19.2.1, SVG Export Plug-In . SVG Version: 6.00 Build 0)  -->
<svg version="1.1" id="Layer_1" xmlns="http://www.w3.org/2000/svg" xmlns:xlink="http://www.w3.org/1999/xlink" x="0px" y="0px"
	 viewBox="0 0 477.5 477.5" style="enable-background:new 0 0 477.5 477.5;" xml:space="preserve">
<style type="text/css">
	.st0{fill:#FFFFFF;}
	.st1{fill:#E6E7E8;}
	.st2{fill:#A7A9AC;}
	.st3{font-family:'Helvetica';}
	.st4{font-size:29.2195px;}
	.st5{font-family:'Helvetica-Bold';}
	.st6{font-size:36.5243px;}
	.st7{fill:#B4B4B4;}
	.st8{font-family:'Ubuntu';}
	.st9{font-size:10px;}
</style>
<g id="Layer_1_1_">
</g>
<g id="Layer_2">
	<g>
		<g>
			<g>
				<rect x="69.6" y="439.9" class="st0" width="43.5" height="5"/>
				<polygon points="115.6,437.4 67.1,437.4 67.1,447.4 115.6,447.4 				"/>
			</g>
			<g>
				<polygon points="81.6,458.5 70.5,447.4 81.6,436.3 101,436.3 112.1,447.4 101,458.5 				"/>
				<path d="M99.9,438.8l8.6,8.6l-8.6,8.6H82.7l-8.6-8.6l8.6-8.6H99.9 M102,433.8h-2.1H82.7h-2.1l-1.5,1.5l-8.6,8.6l-3.6,3.5
					l3.6,3.5l8.6,8.6l1.5,1.5h2.1H100h2.1l1.5-1.5l8.6-8.6l3.6-3.5l-3.6-3.5l-8.6-8.6L102,433.8L102,433.8z"/>
			</g>
			<g>
				<polygon class="st0" points="80.2,447 70.6,437.4 80.2,427.8 102.4,427.8 112,437.4 102.4,447 				"/>
				<path d="M101.4,430.3l7.1,7.1l-7.1,7.1H81.3l-7.1-7.1l7.1-7.1H101.4 M103.4,425.3H79.2l-12.1,12.1l12.1,12.1h24.2l12.1-12.1
					L103.4,425.3L103.4,425.3z"/>
			</g>
		</g>
		<g>
			<path class="st0" d="M91.2,164.6c-14.6,0-24.4-6.1-24.4-11.8S76.6,141,91.2,141s24.4,6.1,24.4,11.8S105.7,164.6,91.2,164.6z"/>
			<path d="M91.2,143.5c13.4,0,21.9,5.5,21.9,9.3s-8.5,9.3-21.9,9.3s-21.9-5.5-21.9-9.3S77.8,143.5,91.2,143.5 M91.2,138.5
				c-14.8,0-26.9,6.4-26.9,14.3s12,14.3,26.9,14.3s26.9-6.4,26.9-14.3S106,138.5,91.2,138.5L91.2,138.5z"/>
		</g>
		<g>
			<polygon points="81.5,135 70.3,123.9 81.5,112.8 100.8,112.8 112,123.9 100.8,135 			"/>
			<path d="M99.8,115.3l8.6,8.6l-8.6,8.6H82.5l-8.6-8.6l8.6-8.6H99.8 M101.9,110.3h-2.1H82.5h-2.1l-1.5,1.5l-8.6,8.6l-3.6,3.5
				l3.6,3.5l8.6,8.6l1.5,1.5h2.1h17.3h2.1l1.5-1.5l8.6-8.6l3.6-3.5l-3.6-3.5l-8.6-8.6L101.9,110.3L101.9,110.3z"/>
		</g>
		<g>
			<rect x="69.4" y="116.4" class="st0" width="43.5" height="5"/>
			<polygon points="115.4,113.9 66.9,113.9 66.9,123.9 115.4,123.9 			"/>
		</g>
		<g>
			<polygon class="st0" points="81.5,125 70.3,113.9 81.5,102.8 100.8,102.8 112,113.9 100.8,125 			"/>
			<path d="M99.8,105.3l8.6,8.6l-8.6,8.6H82.5l-8.6-8.6l8.6-8.6H99.8 M101.9,100.3h-2.1H82.5h-2.1l-1.5,1.5l-8.6,8.6l-3.6,3.5
				l3.6,3.5l8.6,8.6l1.5,1.5h2.1h17.3h2.1l1.5-1.5l8.6-8.6l3.6-3.5l-3.6-3.5l-8.6-8.6L101.9,100.3L101.9,100.3z"/>
		</g>
		<g>
			<path d="M91.2,267.5c-4.9,0-7.9-2-7.9-3.1s3-3.1,7.9-3.1s7.9,2,7.9,3.1S96,267.5,91.2,267.5z"/>
			<path d="M91.2,263.7c1.7,0,3,0.3,4,0.6c-1,0.3-2.3,0.6-4,0.6s-3-0.3-4-0.6C88.1,264,89.4,263.7,91.2,263.7 M91.2,258.7
				c-5.7,0-10.4,2.5-10.4,5.6s4.6,5.6,10.4,5.6c5.7,0,10.4-2.5,10.4-5.6S96.9,258.7,91.2,258.7L91.2,258.7z"/>
		</g>
		<g>
			<path class="st0" d="M90.9,416.5c-3.5,0-6.1-0.7-7.3-1.5V268.8c3,0.8,6.4,0.8,7.8,0.8c1.6,0,4.9-0.1,7.8-0.9v146.1
				C97.6,415.7,94.5,416.5,90.9,416.5z"/>
			<path d="M96.6,271.8v141.4c-1.3,0.4-3.3,0.8-5.7,0.8c-2.2,0-3.8-0.3-4.8-0.6V271.8c2,0.3,3.8,0.3,5.3,0.3
				C92.7,272.1,94.6,272,96.6,271.8 M81.1,265v151.1c1.6,1.9,5.6,2.9,9.8,2.9c4.4,0,8.9-1,10.7-2.9V265c-1.8,1.4-6.1,2.1-10.3,2.1
				C87,267.1,82.6,266.4,81.1,265L81.1,265z"/>
		</g>
		<g>
			<path class="st0" d="M91.3,243.9c-2.4,0-4.5-0.2-6.1-0.4c1.6-0.2,3.7-0.4,6.1-0.4s4.5,0.2,6.1,0.4
				C95.8,243.7,93.7,243.9,91.3,243.9z"/>
			<path d="M91.3,240.6c-6.9,0-12.4,1.3-12.4,2.9c0,1.6,5.6,2.9,12.4,2.9s12.4-1.3,12.4-2.9C103.7,241.9,98.2,240.6,91.3,240.6
				L91.3,240.6z"/>
		</g>
		<g>
			<polygon points="81.5,96 70.3,84.9 81.5,73.8 100.8,73.8 112,84.9 100.8,96 			"/>
			<path d="M99.8,76.3l8.6,8.6l-8.6,8.6H82.5l-8.6-8.6l8.6-8.6H99.8 M101.9,71.3h-2.1H82.5h-2.1L79,72.8l-8.6,8.6l-3.6,3.5l3.6,3.5
				L79,97l1.5,1.5h2.1h17.3h2.1l1.5-1.5l8.6-8.6l3.6-3.5l-3.6-3.5l-8.6-8.6L101.9,71.3L101.9,71.3z"/>
		</g>
		<g>
			<rect x="69.4" y="77.4" class="st0" width="43.5" height="5"/>
			<polygon points="115.4,74.9 66.9,74.9 66.9,84.9 115.4,84.9 			"/>
		</g>
		<g>
			<polygon class="st0" points="81.5,86 70.3,74.9 81.5,63.8 100.8,63.8 112,74.9 100.8,86 			"/>
			<path d="M99.8,66.3l8.6,8.6l-8.6,8.6H82.5l-8.6-8.6l8.6-8.6H99.8 M101.9,61.3h-2.1H82.5h-2.1L79,62.8l-8.6,8.6l-3.6,3.5l3.6,3.5
				L79,87l1.5,1.5h2.1h17.3h2.1l1.5-1.5l8.6-8.6l3.6-3.5l-3.6-3.5l-8.6-8.6L101.9,61.3L101.9,61.3z"/>
		</g>
		<g>
			<path class="st0" d="M91.2,57.6c-14.6,0-24.4-6.1-24.4-11.8S76.6,34,91.2,34s24.4,6.1,24.4,11.8S105.7,57.6,91.2,57.6z"/>
			<path d="M91.2,36.5c13.4,0,21.9,5.5,21.9,9.3s-8.5,9.3-21.9,9.3s-21.9-5.5-21.9-9.3C69.3,42,77.8,36.5,91.2,36.5 M91.2,31.5
				c-14.8,0-26.9,6.4-26.9,14.3s12,14.3,26.9,14.3S118,53.7,118,45.8S106,31.5,91.2,31.5L91.2,31.5z"/>
		</g>
		<g>
			<path class="st0" d="M91.2,154.3c-3.5,0-6-0.7-7.2-1.3c1.2-0.6,3.7-1.3,7.2-1.3s6,0.7,7.2,1.3C97.1,153.6,94.6,154.3,91.2,154.3z
				"/>
			<path d="M91.2,149.3c-5.7,0-10.3,1.7-10.3,3.8s4.6,3.8,10.3,3.8c5.7,0,10.3-1.7,10.3-3.8S96.9,149.3,91.2,149.3L91.2,149.3z"/>
		</g>
		<g>
			<path class="st0" d="M91.2,115.3c-3.1,0-5-0.7-5.8-1.3c0.8-0.5,2.7-1.3,5.8-1.3c3.1,0,5,0.7,5.8,1.3
				C96.1,114.6,94.2,115.3,91.2,115.3z"/>
			<path d="M91.2,110.3c-4.8,0-8.6,1.7-8.6,3.8c0,2.1,3.9,3.8,8.6,3.8c4.8,0,8.6-1.7,8.6-3.8C99.8,112,95.9,110.3,91.2,110.3
				L91.2,110.3z"/>
		</g>
		<g>
			<path class="st0" d="M91.2,75.3c-3.1,0-5.4-0.7-6.4-1.3c1-0.6,3.2-1.3,6.4-1.3s5.4,0.7,6.4,1.3C96.5,74.6,94.3,75.3,91.2,75.3z"
				/>
			<path d="M91.2,70.3c-5.1,0-9.3,1.7-9.3,3.8s4.2,3.8,9.3,3.8s9.3-1.7,9.3-3.8S96.3,70.3,91.2,70.3L91.2,70.3z"/>
		</g>
		<g>
			<path class="st0" d="M91.2,47.3c-3.5,0-6-0.7-7.2-1.3c1.2-0.6,3.7-1.3,7.2-1.3s6,0.7,7.2,1.3C97.1,46.6,94.6,47.3,91.2,47.3z"/>
			<path d="M91.2,42.3c-5.7,0-10.3,1.7-10.3,3.8s4.6,3.8,10.3,3.8c5.7,0,10.3-1.7,10.3-3.8S96.9,42.3,91.2,42.3L91.2,42.3z"/>
		</g>
		<g>
			<path class="st0" d="M91.3,249.5c-23.6,0-43.6-10.1-43.6-22.1v-34.3c0-12,20-22.1,43.6-22.1s43.6,10.1,43.6,22.1v34.3
				C134.9,239.4,114.9,249.5,91.3,249.5z"/>
			<path d="M91.3,173.6c11.5,0,22.2,2.3,30.2,6.6c6.9,3.7,10.8,8.4,10.8,12.9v34.3c0,4.6-4,9.3-10.8,12.9c-8,4.3-18.7,6.6-30.2,6.6
				s-22.2-2.3-30.2-6.6c-6.9-3.7-10.8-8.4-10.8-12.9v-34.3c0-4.6,4-9.3,10.8-12.9C69.1,175.9,79.8,173.6,91.3,173.6 M91.3,168.6
				c-25.5,0-46.1,11-46.1,24.6v34.3c0,13.6,20.6,24.6,46.1,24.6s46.1-11,46.1-24.6v-34.3C137.4,179.6,116.8,168.6,91.3,168.6
				L91.3,168.6z"/>
		</g>
		<g>
			<path class="st0" d="M91.3,215.2c-23.6,0-43.6-10.1-43.6-22.1s20-22.1,43.6-22.1s43.6,10.1,43.6,22.1S114.9,215.2,91.3,215.2z"/>
			<path d="M91.3,173.6c11.5,0,22.2,2.3,30.2,6.6c6.9,3.7,10.8,8.4,10.8,12.9c0,4.6-4,9.3-10.8,12.9c-8,4.3-18.7,6.6-30.2,6.6
				s-22.2-2.3-30.2-6.6c-6.9-3.7-10.8-8.4-10.8-12.9c0-4.6,4-9.3,10.8-12.9C69.1,175.9,79.8,173.6,91.3,173.6 M91.3,168.6
				c-25.5,0-46.1,11-46.1,24.6s20.6,24.6,46.1,24.6s46.1-11,46.1-24.6S116.8,168.6,91.3,168.6L91.3,168.6z"/>
		</g>
		<g>
			<path class="st0" d="M91.3,199.8c-11.4,0-19.4-4.8-19.4-9.2s8-9.2,19.4-9.2s19.4,4.8,19.4,9.2S102.8,199.8,91.3,199.8z"/>
			<path d="M91.3,183.9c10.5,0,16.9,4.3,16.9,6.7s-6.4,6.7-16.9,6.7s-16.9-4.3-16.9-6.7C74.4,188.3,80.8,183.9,91.3,183.9
				 M91.3,178.9c-12.1,0-21.9,5.2-21.9,11.7c0,6.4,9.8,11.7,21.9,11.7s21.9-5.2,21.9-11.7C113.2,184.2,103.4,178.9,91.3,178.9
				L91.3,178.9z"/>
		</g>
		<g>
			<path class="st0" d="M91.3,191c-3.1,0-5.4-0.7-6.4-1.3c1-0.6,3.2-1.3,6.4-1.3s5.4,0.7,6.4,1.3C96.7,190.3,94.5,191,91.3,191z"/>
			<path d="M91.3,186c-5.1,0-9.3,1.7-9.3,3.8s4.2,3.8,9.3,3.8c5.1,0,9.3-1.7,9.3-3.8S96.5,186,91.3,186L91.3,186z"/>
		</g>
		<g>
			<path class="st0" d="M91.3,438.1c-3.1,0-5.4-0.7-6.4-1.3c1-0.6,3.2-1.3,6.4-1.3s5.4,0.7,6.4,1.3
				C96.7,437.4,94.5,438.1,91.3,438.1z"/>
			<path d="M91.3,433.1c-5.1,0-9.3,1.7-9.3,3.8c0,2.1,4.2,3.8,9.3,3.8c5.1,0,9.3-1.7,9.3-3.8C100.6,434.8,96.5,433.1,91.3,433.1
				L91.3,433.1z"/>
		</g>
	</g>
	<g>
		<g>
			<g>
				<rect x="364.6" y="319.9" class="st0" width="43.5" height="5"/>
				<polygon points="410.6,317.4 362.1,317.4 362.1,327.4 410.6,327.4 				"/>
			</g>
			<g>
				<polygon points="376.7,338.5 365.5,327.4 376.7,316.3 396,316.3 407.1,327.4 396,338.5 				"/>
				<path d="M395,318.8l8.6,8.6L395,336h-17.3l-8.6-8.6l8.6-8.6H395 M397,313.8h-2h-17.3h-2.1l-1.5,1.5l-8.6,8.6l-3.6,3.5l3.6,3.5
					l8.6,8.6l1.5,1.5h2.1H395h2.1l1.5-1.5l8.6-8.6l3.6-3.5l-3.6-3.5l-8.6-8.6L397,313.8L397,313.8z"/>
			</g>
			<g>
				<polygon class="st0" points="375.2,327 365.6,317.4 375.2,307.8 397.4,307.8 407,317.4 397.4,327 				"/>
				<path d="M396.4,310.3l7.1,7.1l-7.1,7.1h-20.1l-7.1-7.1l7.1-7.1H396.4 M398.5,305.3h-24.2l-12.1,12.1l12.1,12.1h24.2l12.1-12.1
					L398.5,305.3L398.5,305.3z"/>
			</g>
		</g>
		<g>
			<g>
				<rect x="364.6" y="320.9" class="st0" width="43.5" height="5"/>
				<polygon points="410.6,318.4 362.1,318.4 362.1,328.4 410.6,328.4 				"/>
			</g>
			<g>
				<polygon points="376.7,339.5 365.5,328.4 376.7,317.3 396,317.3 407.1,328.4 396,339.5 				"/>
				<path d="M395,319.8l8.6,8.6L395,337h-17.3l-8.6-8.6l8.6-8.6H395 M397,314.8h-2h-17.3h-2.1l-1.5,1.5l-8.6,8.6l-3.6,3.5l3.6,3.5
					l8.6,8.6l1.5,1.5h2.1H395h2.1l1.5-1.5l8.6-8.6l3.6-3.5l-3.6-3.5l-8.6-8.6L397,314.8L397,314.8z"/>
			</g>
			<g>
				<polygon class="st0" points="375.2,328 365.6,318.4 375.2,308.8 397.4,308.8 407,318.4 397.4,328 				"/>
				<path d="M396.4,311.3l7.1,7.1l-7.1,7.1h-20.1l-7.1-7.1l7.1-7.1H396.4 M398.5,306.3h-24.2l-12.1,12.1l12.1,12.1h24.2l12.1-12.1
					L398.5,306.3L398.5,306.3z"/>
			</g>
		</g>
		<g>
			<g>
				<rect x="364.6" y="321.9" class="st0" width="43.5" height="5"/>
				<polygon points="410.6,319.4 362.1,319.4 362.1,329.4 410.6,329.4 				"/>
			</g>
			<g>
				<polygon points="376.7,340.5 365.5,329.4 376.7,318.3 396,318.3 407.1,329.4 396,340.5 				"/>
				<path d="M395,320.8l8.6,8.6L395,338h-17.3l-8.6-8.6l8.6-8.6H395 M397,315.8h-2h-17.3h-2.1l-1.5,1.5l-8.6,8.6l-3.6,3.5l3.6,3.5
					l8.6,8.6l1.5,1.5h2.1H395h2.1l1.5-1.5l8.6-8.6l3.6-3.5l-3.6-3.5l-8.6-8.6L397,315.8L397,315.8z"/>
			</g>
			<g>
				<polygon class="st0" points="375.2,329 365.6,319.4 375.2,309.8 397.4,309.8 407,319.4 397.4,329 				"/>
				<path d="M396.4,312.3l7.1,7.1l-7.1,7.1h-20.1l-7.1-7.1l7.1-7.1H396.4 M398.5,307.3h-24.2l-12.1,12.1l12.1,12.1h24.2l12.1-12.1
					L398.5,307.3L398.5,307.3z"/>
			</g>
		</g>
		<g>
			<g>
				<rect x="364.6" y="322.9" class="st0" width="43.5" height="5"/>
				<polygon points="410.6,320.4 362.1,320.4 362.1,330.4 410.6,330.4 				"/>
			</g>
			<g>
				<polygon points="376.7,341.5 365.5,330.4 376.7,319.3 396,319.3 407.1,330.4 396,341.5 				"/>
				<path d="M395,321.8l8.6,8.6L395,339h-17.3l-8.6-8.6l8.6-8.6H395 M397,316.8h-2h-17.3h-2.1l-1.5,1.5l-8.6,8.6l-3.6,3.5l3.6,3.5
					l8.6,8.6l1.5,1.5h2.1H395h2.1l1.5-1.5l8.6-8.6l3.6-3.5l-3.6-3.5l-8.6-8.6L397,316.8L397,316.8z"/>
			</g>
			<g>
				<polygon class="st0" points="375.2,330 365.6,320.4 375.2,310.8 397.4,310.8 407,320.4 397.4,330 				"/>
				<path d="M396.4,313.3l7.1,7.1l-7.1,7.1h-20.1l-7.1-7.1l7.1-7.1H396.4 M398.5,308.3h-24.2l-12.1,12.1l12.1,12.1h24.2l12.1-12.1
					L398.5,308.3L398.5,308.3z"/>
			</g>
		</g>
		<g>
			<g>
				<rect x="364.6" y="323.9" class="st0" width="43.5" height="5"/>
				<polygon points="410.6,321.4 362.1,321.4 362.1,331.4 410.6,331.4 				"/>
			</g>
			<g>
				<polygon points="376.7,342.5 365.5,331.4 376.7,320.3 396,320.3 407.1,331.4 396,342.5 				"/>
				<path d="M395,322.8l8.6,8.6L395,340h-17.3l-8.6-8.6l8.6-8.6H395 M397,317.8h-2h-17.3h-2.1l-1.5,1.5l-8.6,8.6l-3.6,3.5l3.6,3.5
					l8.6,8.6l1.5,1.5h2.1H395h2.1l1.5-1.5l8.6-8.6l3.6-3.5l-3.6-3.5l-8.6-8.6L397,317.8L397,317.8z"/>
			</g>
			<g>
				<polygon class="st0" points="375.2,331 365.6,321.4 375.2,311.8 397.4,311.8 407,321.4 397.4,331 				"/>
				<path d="M396.4,314.3l7.1,7.1l-7.1,7.1h-20.1l-7.1-7.1l7.1-7.1H396.4 M398.5,309.3h-24.2l-12.1,12.1l12.1,12.1h24.2l12.1-12.1
					L398.5,309.3L398.5,309.3z"/>
			</g>
		</g>
		<g>
			<g>
				<rect x="364.6" y="324.9" class="st0" width="43.5" height="5"/>
				<polygon points="410.6,322.4 362.1,322.4 362.1,332.4 410.6,332.4 				"/>
			</g>
			<g>
				<polygon points="376.7,343.5 365.5,332.4 376.7,321.3 396,321.3 407.1,332.4 396,343.5 				"/>
				<path d="M395,323.8l8.6,8.6L395,341h-17.3l-8.6-8.6l8.6-8.6H395 M397,318.8h-2h-17.3h-2.1l-1.5,1.5l-8.6,8.6l-3.6,3.5l3.6,3.5
					l8.6,8.6l1.5,1.5h2.1H395h2.1l1.5-1.5l8.6-8.6l3.6-3.5l-3.6-3.5l-8.6-8.6L397,318.8L397,318.8z"/>
			</g>
			<g>
				<polygon class="st0" points="375.2,332 365.6,322.4 375.2,312.8 397.4,312.8 407,322.4 397.4,332 				"/>
				<path d="M396.4,315.3l7.1,7.1l-7.1,7.1h-20.1l-7.1-7.1l7.1-7.1H396.4 M398.5,310.3h-24.2l-12.1,12.1l12.1,12.1h24.2l12.1-12.1
					L398.5,310.3L398.5,310.3z"/>
			</g>
		</g>
		<g>
			<g>
				<rect x="364.6" y="325.9" class="st0" width="43.5" height="5"/>
				<polygon points="410.6,323.4 362.1,323.4 362.1,333.4 410.6,333.4 				"/>
			</g>
			<g>
				<polygon points="376.7,344.5 365.5,333.4 376.7,322.3 396,322.3 407.1,333.4 396,344.5 				"/>
				<path d="M395,324.8l8.6,8.6L395,342h-17.3l-8.6-8.6l8.6-8.6H395 M397,319.8h-2h-17.3h-2.1l-1.5,1.5l-8.6,8.6l-3.6,3.5l3.6,3.5
					l8.6,8.6l1.5,1.5h2.1H395h2.1l1.5-1.5l8.6-8.6l3.6-3.5l-3.6-3.5l-8.6-8.6L397,319.8L397,319.8z"/>
			</g>
			<g>
				<polygon class="st0" points="375.2,333 365.6,323.4 375.2,313.8 397.4,313.8 407,323.4 397.4,333 				"/>
				<path d="M396.4,316.3l7.1,7.1l-7.1,7.1h-20.1l-7.1-7.1l7.1-7.1H396.4 M398.5,311.3h-24.2l-12.1,12.1l12.1,12.1h24.2l12.1-12.1
					L398.5,311.3L398.5,311.3z"/>
			</g>
		</g>
		<g>
			<g>
				<rect x="364.6" y="326.9" class="st0" width="43.5" height="5"/>
				<polygon points="410.6,324.4 362.1,324.4 362.1,334.4 410.6,334.4 				"/>
			</g>
			<g>
				<polygon points="376.7,345.5 365.5,334.4 376.7,323.3 396,323.3 407.1,334.4 396,345.5 				"/>
				<path d="M395,325.8l8.6,8.6L395,343h-17.3l-8.6-8.6l8.6-8.6H395 M397,320.8h-2h-17.3h-2.1l-1.5,1.5l-8.6,8.6l-3.6,3.5l3.6,3.5
					l8.6,8.6l1.5,1.5h2.1H395h2.1l1.5-1.5l8.6-8.6l3.6-3.5l-3.6-3.5l-8.6-8.6L397,320.8L397,320.8z"/>
			</g>
			<g>
				<polygon class="st0" points="375.2,334 365.6,324.4 375.2,314.8 397.4,314.8 407,324.4 397.4,334 				"/>
				<path d="M396.4,317.3l7.1,7.1l-7.1,7.1h-20.1l-7.1-7.1l7.1-7.1H396.4 M398.5,312.3h-24.2l-12.1,12.1l12.1,12.1h24.2l12.1-12.1
					L398.5,312.3L398.5,312.3z"/>
			</g>
		</g>
		<g>
			<path class="st0" d="M386.2,336.8c-23.6,0-43.6-10.1-43.6-22.1v-34.3c0-12,20-22.1,43.6-22.1s43.6,10.1,43.6,22.1v34.3
				C429.7,326.7,409.8,336.8,386.2,336.8z"/>
			<path d="M386.2,260.9c11.5,0,22.2,2.3,30.2,6.6c6.9,3.7,10.8,8.4,10.8,12.9v34.3c0,4.6-4,9.3-10.8,12.9c-8,4.3-18.7,6.6-30.2,6.6
				s-22.2-2.3-30.2-6.6c-6.9-3.7-10.8-8.4-10.8-12.9v-34.3c0-4.6,4-9.3,10.8-12.9C363.9,263.3,374.7,260.9,386.2,260.9 M386.2,255.9
				c-25.5,0-46.1,11-46.1,24.6v34.3c0,13.6,20.6,24.6,46.1,24.6s46.1-11,46.1-24.6v-34.3C432.2,266.9,411.6,255.9,386.2,255.9
				L386.2,255.9z"/>
		</g>
		<g>
			<path class="st0" d="M386.2,302.5c-23.6,0-43.6-10.1-43.6-22.1s20-22.1,43.6-22.1s43.6,10.1,43.6,22.1S409.8,302.5,386.2,302.5z"
				/>
			<path d="M386.2,260.9c11.5,0,22.2,2.3,30.2,6.6c6.9,3.7,10.8,8.4,10.8,12.9s-4,9.3-10.8,12.9c-8,4.3-18.7,6.6-30.2,6.6
				s-22.2-2.3-30.2-6.6c-6.9-3.7-10.8-8.4-10.8-12.9s4-9.3,10.8-12.9C363.9,263.3,374.7,260.9,386.2,260.9 M386.2,255.9
				c-25.5,0-46.1,11-46.1,24.6s20.6,24.6,46.1,24.6s46.1-11,46.1-24.6C432.2,266.9,411.6,255.9,386.2,255.9L386.2,255.9z"/>
		</g>
		<g>
			<path class="st0" d="M386.2,287.1c-11.4,0-19.4-4.8-19.4-9.2s8-9.2,19.4-9.2s19.4,4.8,19.4,9.2S397.6,287.1,386.2,287.1z"/>
			<path d="M386.2,271.3c10.5,0,16.9,4.3,16.9,6.7s-6.4,6.7-16.9,6.7s-16.9-4.3-16.9-6.7S375.7,271.3,386.2,271.3 M386.2,266.3
				c-12.1,0-21.9,5.2-21.9,11.7s9.8,11.7,21.9,11.7s21.9-5.2,21.9-11.7S398.3,266.3,386.2,266.3L386.2,266.3z"/>
		</g>
		<g>
			<path class="st0" d="M386.2,278.3c-3.1,0-5.4-0.7-6.4-1.3c1-0.6,3.2-1.3,6.4-1.3s5.4,0.7,6.4,1.3
				C391.5,277.6,389.3,278.3,386.2,278.3z"/>
			<path d="M386.2,273.3c-5.1,0-9.3,1.7-9.3,3.8c0,2.1,4.2,3.8,9.3,3.8c5.1,0,9.3-1.7,9.3-3.8S391.3,273.3,386.2,273.3L386.2,273.3z
				"/>
		</g>
		<g>
			<path class="st0" d="M386.3,290.7c-14.6,0-24.4-6.1-24.4-11.8s9.8-11.8,24.4-11.8s24.4,6.1,24.4,11.8S400.9,290.7,386.3,290.7z"
				/>
			<path d="M386.3,269.5c13.4,0,21.9,5.5,21.9,9.3s-8.5,9.3-21.9,9.3s-21.9-5.5-21.9-9.3S373,269.5,386.3,269.5 M386.3,264.5
				c-14.8,0-26.9,6.4-26.9,14.3s12,14.3,26.9,14.3s26.9-6.4,26.9-14.3S401.2,264.5,386.3,264.5L386.3,264.5z"/>
		</g>
		<g>
			<polygon points="376.7,286.1 365.5,275 376.7,263.9 396,263.9 407.1,275 396,286.1 			"/>
			<path d="M395,266.4l8.6,8.6l-8.6,8.6h-17.3l-8.6-8.6l8.6-8.6H395 M397,261.4h-2h-17.3h-2.1l-1.5,1.5l-8.6,8.6L362,275l3.6,3.5
				l8.6,8.6l1.5,1.5h2.1H395h2.1l1.5-1.5l8.6-8.6l3.6-3.5l-3.6-3.5l-8.6-8.6L397,261.4L397,261.4z"/>
		</g>
		<g>
			<rect x="364.6" y="267.5" class="st0" width="43.5" height="5"/>
			<polygon points="410.6,265 362.1,265 362.1,275 410.6,275 			"/>
		</g>
		<g>
			<polygon class="st0" points="376.7,276.1 365.5,265 376.7,253.9 396,253.9 407.1,265 396,276.1 			"/>
			<path d="M395,256.4l8.6,8.6l-8.6,8.6h-17.3l-8.6-8.6l8.6-8.6H395 M397,251.4h-2h-17.3h-2.1l-1.5,1.5l-8.6,8.6L362,265l3.6,3.5
				l8.6,8.6l1.5,1.5h2.1H395h2.1l1.5-1.5l8.6-8.6l3.6-3.5l-3.6-3.5l-8.6-8.6L397,251.4L397,251.4z"/>
		</g>
		<g>
			<path d="M386.2,262.5c-4.9,0-7.9-2-7.9-3.1s3-3.1,7.9-3.1s7.9,2,7.9,3.1S391.1,262.5,386.2,262.5z"/>
			<path d="M386.2,258.7c1.7,0,3,0.3,4,0.6c-1,0.3-2.3,0.6-4,0.6s-3-0.3-4-0.6C383.1,259,384.5,258.7,386.2,258.7 M386.2,253.7
				c-5.7,0-10.4,2.5-10.4,5.6c0,3.1,4.6,5.6,10.4,5.6c5.7,0,10.4-2.5,10.4-5.6C396.6,256.3,391.9,253.7,386.2,253.7L386.2,253.7z"/>
		</g>
		<g>
			<path class="st0" d="M385.8,265.5c-4.7,0-7.9-1-9.4-2v-126c3.7,1.1,8.2,1.2,9.9,1.2c2.1,0,6.3-0.1,9.9-1.2v125.9
				C394.4,264.4,390.6,265.5,385.8,265.5z"/>
			<path d="M393.7,140.5v121.2c-1.6,0.6-4.4,1.2-8,1.2c-3.3,0-5.6-0.5-6.9-1V140.5c2.7,0.5,5.4,0.6,7.4,0.6
				C388.3,141.1,391,141,393.7,140.5 M373.9,133.5v131c1.9,2.4,6.8,3.5,11.9,3.5c5.3,0,10.7-1.2,13-3.5v-131
				c-2.2,1.8-7.3,2.6-12.4,2.6C381.1,136.1,375.8,135.2,373.9,133.5L373.9,133.5z"/>
		</g>
		<g>
			<path class="st0" d="M386.3,133.9c-2.4,0-4.5-0.2-6.1-0.4c1.6-0.2,3.7-0.4,6.1-0.4s4.5,0.2,6.1,0.4
				C390.8,133.7,388.7,133.9,386.3,133.9z"/>
			<path d="M386.3,130.6c-6.9,0-12.4,1.3-12.4,2.9c0,1.6,5.6,2.9,12.4,2.9c6.9,0,12.4-1.3,12.4-2.9
				C398.7,131.9,393.2,130.6,386.3,130.6L386.3,130.6z"/>
		</g>
		<g>
			<polygon points="376.7,207.1 365.5,196 376.7,184.9 396,184.9 407.1,196 396,207.1 			"/>
			<path d="M395,187.4l8.6,8.6l-8.6,8.6h-17.3l-8.6-8.6l8.6-8.6H395 M397,182.4h-2h-17.3h-2.1l-1.5,1.5l-8.6,8.6L362,196l3.6,3.5
				l8.6,8.6l1.5,1.5h2.1H395h2.1l1.5-1.5l8.6-8.6l3.6-3.5l-3.6-3.5l-8.6-8.6L397,182.4L397,182.4z"/>
		</g>
		<g>
			<rect x="364.6" y="188.5" class="st0" width="43.5" height="5"/>
			<polygon points="410.6,186 362.1,186 362.1,196 410.6,196 			"/>
		</g>
		<g>
			<polygon class="st0" points="376.7,197.1 365.5,186 376.7,174.9 396,174.9 407.1,186 396,197.1 			"/>
			<path d="M395,177.4l8.6,8.6l-8.6,8.6h-17.3l-8.6-8.6l8.6-8.6H395 M397,172.4h-2h-17.3h-2.1l-1.5,1.5l-8.6,8.6L362,186l3.6,3.5
				l8.6,8.6l1.5,1.5h2.1H395h2.1l1.5-1.5l8.6-8.6l3.6-3.5l-3.6-3.5l-8.6-8.6L397,172.4L397,172.4z"/>
		</g>
		<g>
			<path class="st0" d="M386.3,190.7c-14.6,0-24.4-6.1-24.4-11.8s9.8-11.8,24.4-11.8s24.4,6.1,24.4,11.8S400.9,190.7,386.3,190.7z"
				/>
			<path d="M386.3,169.5c13.4,0,21.9,5.5,21.9,9.3s-8.5,9.3-21.9,9.3s-21.9-5.5-21.9-9.3S373,169.5,386.3,169.5 M386.3,164.5
				c-14.8,0-26.9,6.4-26.9,14.3s12,14.3,26.9,14.3s26.9-6.4,26.9-14.3S401.2,164.5,386.3,164.5L386.3,164.5z"/>
		</g>
		<g>
			<path class="st0" d="M385.8,177.5c-4.7,0-7.9-1-9.4-2v-38c3.7,1.1,8.2,1.2,9.9,1.2c2.1,0,6.3-0.1,9.9-1.2v37.9
				C394.4,176.4,390.6,177.5,385.8,177.5z"/>
			<path d="M393.7,140.5v33.2c-1.6,0.6-4.4,1.2-8,1.2c-3.3,0-5.6-0.5-6.9-1v-33.4c2.7,0.5,5.4,0.6,7.4,0.6
				C388.3,141.1,391,141,393.7,140.5 M373.9,133.5v43c1.9,2.4,6.8,3.5,11.9,3.5c5.3,0,10.7-1.2,13-3.5v-43
				c-2.2,1.8-7.3,2.6-12.4,2.6C381.1,136.1,375.8,135.2,373.9,133.5L373.9,133.5z"/>
		</g>
	</g>
	<rect x="202.7" y="210" class="st1" width="64.1" height="73.5"/>
	<polygon class="st1" points="254.8,195.2 306.2,246.6 255.1,297.6 	"/>
	<text transform="matrix(1 0 0 1 218.3895 258.3604)" class="st2 st3 st4">X</text>
	<text transform="matrix(1 0 0 1 237.8895 258.3604)" class="st2 st5 st6">4</text>
</g>
<text transform="matrix(1 0 0 1 132.3 78.7558)" class="st7 st8 st9">Nut (8mm)</text>
<text transform="matrix(1 0 0 1 132.3002 49.9002)" class="st7 st8 st9">Whas her (8mm)</text>
<text transform="matrix(1 0 0 1 132.2999 151.7)" class="st7 st8 st9">Whasher (8mm)</text>
<text transform="matrix(1 0 0 1 146.5679 210.35)" class="st7 st8 st9">Bearing</text>
<text transform="matrix(1 0 0 1 132.3002 348.0002)" class="st7 st8 st9">Thread rod (short)</text>
<text transform="matrix(1 0 0 1 132.3001 112.5222)" class="st7 st8 st9">Nyloc </text>
<text transform="matrix(1 0 0 1 132.3001 124.5222)" class="st7 st8 st9">Nut (8mm)</text>
<text transform="matrix(1 0 0 1 132.3 438.4999)" class="st7 st8 st9">Nyloc </text>
<text transform="matrix(1 0 0 1 132.3 450.4999)" class="st7 st8 st9">Nut (8mm)</text>
</svg>
