<?xml version="1.0" encoding="utf-8"?>
<!-- Generator: Adobe Illustrator 19.2.1, SVG Export Plug-In . SVG Version: 6.00 Build 0)  -->
<svg version="1.1" id="Layer_1" xmlns="http://www.w3.org/2000/svg" xmlns:xlink="http://www.w3.org/1999/xlink" x="0px" y="0px"
	 viewBox="0 0 477.5 477.5" style="enable-background:new 0 0 477.5 477.5;" xml:space="preserve">
<style type="text/css">
	.st0{fill:#FFFFFF;}
</style>
<path class="st0" d="M244.5,439.2l-8.6-8.8v-5.8l-1.8,2.1H221l-10-10.2v-59.4l-4.4-4.3v-44.6l4.4-4.2V139.1c0-3.9,3.2-7.1,7.1-7.1
	h6.2v-12.7l5.1-5.3V68.1h10.3v-9.6h-13.1l-3.6,3.7h-8.4v7.4H199c-3.9,0-7.1-3.2-7.1-7.1V48.7c0-3.9,3.2-7.1,7.1-7.1h14.9v6.6h2.3V45
	c0-3.9,3.2-7.1,7.1-7.1H267c3.9,0,7.1,3.2,7.1,7.1v13.4h-16.9V68h10.3v16.2h9.8l3.4,3.4v21.2l-3.5,5.4h-7.6l2.2,2.4v13.7l9.2,0.1
	c3.8,0,7,3.2,7,7.1V306l5.1,5v43.2l-4.4,4.3v63.1l-8.3,9.5h-8.7l-8-7.8v9.3l-5.4,6.6H244.5z M261,415.1V312.7l4.4-4.5V168h-0.8v137
	l-5.1,5.1v103.4L261,415.1z M241,410.1L241,410.1l0.1-100L241,310V410.1z M235.3,303.2V167.3V303.2L235.3,303.2z"/>
<path d="M267,41.9c1.7,0,3.1,1.4,3.1,3.1v9.4h-16.9V72h10.3v22.8h2.9v-5.5l1.8-1.1h7.4l1.1,1.1v18.4l-1.6,2.6h-5.3l-3.3-3v-5.8h-2.9
	v12.1l4.4,4.7v9.7c-2.8,0-4.1,4.5-2.1,6.4l15.2,0.2c1.7,0,3.1,1.4,3.1,3.1v170l5.1,5v39.8l-4.4,4.3v63.3l-6.2,7h-5.2l-8.5-8.3V314.3
	l4.4-4.5V168c0-2.2-1.8-4-4-4h-0.7c-2.2,0-4,1.8-4,4v135.3l-5.1,5.1V415l4.4,4.7v11.4l-3.3,4h-10.3l-6.2-6.5v-12.3l5.1-4.8V308.4
	l-5.9-6.1v-135c0-2.2-1.8-4-4-4l0,0c-2.2,0-4,1.8-4,4v137.5l5.9,5.8v106.7l-4.7,5.5H223l-7.7-7.8v-59.5l-4.4-4.3V310l4.4-4.2V139.1
	c0-1.7,1.4-3.1,3.1-3.1h12.7l0.6-0.6c2-1.9,0.7-5.3-2.1-5.3h-1.1V121l5.1-5.3V72.1h10.3V54.4h-18.7l-3.6,3.7h-10.8v7.4H199
	c-1.7,0-3.1-1.4-3.1-3.1V48.7c0-1.7,1.4-3.1,3.1-3.1h10.9v6.6h10.3V45c0-1.7,1.4-3.1,3.1-3.1H267 M267,33.9h-43.8
	c-3.3,0-6.2,1.4-8.2,3.7h-5.1H199c-6.1,0-11.1,5-11.1,11.1v13.7c0,6.1,5,11.1,11.1,11.1h11.6h8v-7.4h2.8h3.4l0.7-0.7V72v40.3l-2.9,3
	l-2.2,2.3v3.2v7.1h-2.2c-6.1,0-11.1,5-11.1,11.1v163.2l-1.9,1.8l-2.5,2.4v3.4V351v3.3l2.4,2.3l2,2v56.1v3.3l2.3,2.3l7.7,7.8l2.3,2.4
	h3.3h9.3v1.3l2.3,2.3l6.2,6.5l2.4,2.4h3.4h10.3h3.8l2.4-2.9l3.3-4l1.8-2.2v-1.2l2.3,2.3h3.3h5.2h3.6l2.4-2.7l6.2-7l2-2.3v-3v-59.9
	l2-2l2.4-2.4v-3.3v-39.8v-3.4l-2.4-2.4l-2.7-2.7V137.6c0-6.1-4.9-11-11-11.1l-5.2-0.1v-8.2h3.6l2.4-3.7l1.6-2.6l1.3-2v-2.3V89.4V86
	l-2.3-2.3l-1.1-1.1l-2.3-2.3h-3.3h-4.1v-8.2v-8h-8h-2.3v-1.6h8.9h8v-8V45C278.1,38.9,273.2,33.9,267,33.9L267,33.9z M228.3,62.4h7.4
	V64h-2.3h-6.7l0.4-0.4L228.3,62.4L228.3,62.4z"/>
</svg>
