<?xml version="1.0" encoding="utf-8"?>
<!-- Generator: Adobe Illustrator 19.2.1, SVG Export Plug-In . SVG Version: 6.00 Build 0)  -->
<svg version="1.1" id="Layer_1" xmlns="http://www.w3.org/2000/svg" xmlns:xlink="http://www.w3.org/1999/xlink" x="0px" y="0px"
	 viewBox="0 0 200 200" style="enable-background:new 0 0 200 200;" xml:space="preserve">
<style type="text/css">
	.st0{fill:#FEB700;}
</style>
<path class="st0" d="M97.7,85.6c3.9-7.8,6.9-15.9,11.9-23c2.3-3.3,5-6.5,8.1-8.5c3-1.9,7.3-3.2,10.8-2.7c1.9,0.3,4.6,1.3,6.8,2.3
	c3.1,1.5,1.8,3.1-0.2,4.1c-2.1,1.1-4.5,1.8-7.1,2.8c12.5,0.3,23.7,11.8,26.8,23.7c0.8,3.1,2,3.5,4.6,3.7c4.7,0.2,8.8-1.6,13.3-2.6
	c-2,5.7-5.5,8.5-12.2,10c3.7,2.4,7.9,1.3,12.4,1.7c-3.4,4.7-8,6.4-13.1,6.7c-3,0.2-4,1.2-4.9,4c-3.9,12.1-11.9,21.3-22,28.7
	c-7.5,5.4-15.7,9-24.6,11.5C80,156,51,148.3,31.2,125.6c-1-1.1-1.6-2.6-2-4.3c7.6,5.8,15.5,9.8,25.2,9.8c9.7,0,18.1-2.9,25.7-9.4
	c-7.9-1.8-10-6.2-6.3-12.4c-3.7,0.1-6.6-2-9.6-3.7c-2.1-1.2-4.4-3.4-3.9-5.8c0.4-1.9,2.4-4,5.4-4c-6.5-2.8-11-7.1-12.2-14.3
	c1.9-0.4,3.7-1.7,6.9-1.3c-5.8-3.8-8.9-8.3-10.2-13.9c-0.5-2.2-1.3-5.3,3.5-3.4C68,68.5,82.7,73.5,95.2,83
	C96.2,83.7,96.7,84.9,97.7,85.6z"/>
</svg>
