<?xml version="1.0" encoding="utf-8"?>
<!-- Generator: Adobe Illustrator 19.2.1, SVG Export Plug-In . SVG Version: 6.00 Build 0)  -->
<svg version="1.1" id="Layer_5" xmlns="http://www.w3.org/2000/svg" xmlns:xlink="http://www.w3.org/1999/xlink" x="0px" y="0px"
	 viewBox="0 0 477.5 477.5" style="enable-background:new 0 0 477.5 477.5;" xml:space="preserve">
<style type="text/css">
	.st0{fill:#FFFFFF;stroke:#000000;stroke-width:8;stroke-miterlimit:10;}
	.st1{fill:none;stroke:#000000;stroke-width:8;stroke-miterlimit:10;}
	.st2{stroke:#000000;stroke-width:8;stroke-miterlimit:10;}
</style>
<title>projects_slider_controller_8</title>
<g id="Layer_10">
	<ellipse class="st0" cx="237.1" cy="303.8" rx="210.4" ry="83.5"/>
	<path class="st1" d="M90.5,251.8L90.5,251.8c-14.2,13-35.9,66.5-8.4,106.5c37.8,54.9,133.1,67.2,159.3,66.3"/>
	<ellipse class="st0" cx="238.6" cy="281" rx="162.7" ry="64.6"/>
	<ellipse class="st0" cx="238.6" cy="267.1" rx="162.7" ry="64.6"/>
	<ellipse class="st0" cx="238.6" cy="253.2" rx="162.7" ry="64.6"/>
	<ellipse class="st0" cx="238.6" cy="239.2" rx="162.7" ry="64.6"/>
	<ellipse class="st0" cx="238.6" cy="225.3" rx="162.7" ry="64.6"/>
	<ellipse class="st0" cx="238.6" cy="211.4" rx="162.7" ry="64.6"/>
	<ellipse class="st0" cx="238.6" cy="197.4" rx="162.7" ry="64.6"/>
	<ellipse class="st0" cx="238.6" cy="197.4" rx="162.7" ry="64.6"/>
	<ellipse class="st0" cx="238.6" cy="197.4" rx="210.4" ry="83.5"/>
	<ellipse class="st2" cx="238.6" cy="197.4" rx="92.5" ry="36.7"/>
</g>
</svg>
