<?xml version="1.0" encoding="utf-8"?>
<!-- Generator: Adobe Illustrator 21.0.0, SVG Export Plug-In . SVG Version: 6.00 Build 0)  -->
<svg version="1.1" id="Layer_1" xmlns="http://www.w3.org/2000/svg" xmlns:xlink="http://www.w3.org/1999/xlink" x="0px" y="0px"
	 viewBox="0 0 200 200" style="enable-background:new 0 0 200 200;" xml:space="preserve">
<style type="text/css">
	.st0{fill:#AAA9AB;}
</style>
<g>
	<path class="st0" d="M177.6,90.7c0,6.2,0,12.3,0,18.5c-0.2,0-0.2,0.2-0.2,0.3c0,1.8,0,3.6-0.1,5.4c-0.1,1.4,0,2.7-0.2,4.1
		c-0.1,0.8-0.1,1.5-0.1,2.2c-0.2,2-0.4,4-0.6,6c-0.2,1.5-0.2,3-0.5,4.5c-0.6,3.2-1.5,6.4-2.8,9.5c-1.4,3.1-3.4,5.6-6.1,7.6
		c-3,2.2-6.4,3.3-10,3.8c-2.5,0.3-5.1,0.5-7.6,0.6c-1.9,0.1-3.7,0.2-5.6,0.3c-2.4,0.1-4.9,0.2-7.3,0.3c-1.4,0.1-2.9,0-4.3,0.1
		c-1.8,0.2-3.6,0-5.4,0.2c-2.1,0.2-4.2,0-6.3,0.1c-3,0.2-6.1,0.1-9.2,0.1c-7,0-13.9,0.2-20.9-0.1c-3.1-0.1-6.1,0-9.2-0.1
		c-3-0.2-6.1-0.1-9.1-0.2c-1.4-0.1-2.8,0-4.1-0.1c-1.7-0.2-3.5,0-5.3-0.2c-1.3-0.2-2.7-0.1-4-0.1c-2.3-0.1-4.6-0.2-6.8-0.3
		c-1.4-0.1-2.7-0.2-4.1-0.3c-2.5-0.3-5-0.5-7.4-1.1c-3.7-0.8-7-2.4-9.8-5c-1.7-1.6-2.9-3.7-3.9-5.9c-1.4-3.3-2.3-6.8-2.9-10.4
		c-0.4-2.5-0.6-5.1-0.8-7.7c-0.2-2.2-0.3-4.3-0.4-6.5c-0.2-2.7-0.3-5.3-0.3-8c0-6.1-0.2-12.2,0.1-18.4c0.1-2.5,0.1-5,0.3-7.5
		c0.1-2.1,0.3-4.3,0.5-6.4c0.2-2.1,0.4-4.2,0.6-6.3c0.3-2.5,0.8-4.9,1.5-7.2c1.3-4.2,3-8.1,6.6-10.9c2.3-1.8,4.8-3.1,7.6-3.9
		c3.4-0.9,6.9-1,10.4-1.2c1.7-0.1,3.4-0.2,5.2-0.3c2.4-0.1,4.9-0.2,7.3-0.3c1.4-0.1,2.8,0,4.1-0.1c1.7-0.2,3.5,0,5.2-0.2
		c2.1-0.2,4.2,0,6.3-0.2c3-0.2,6.1-0.1,9.2-0.1c8.9,0,17.8-0.2,26.7,0.1c3,0.1,5.9-0.1,8.9,0.1c2.1,0.2,4.2-0.1,6.3,0.2
		c1.7,0.2,3.3,0,5,0.1c2.7,0.1,5.3,0.2,8,0.3c2.1,0.1,4.2,0.2,6.2,0.3c1.7,0.1,3.3,0.2,4.9,0.3c2,0.1,4.1,0.3,6.1,0.8
		c3.6,0.8,6.7,2.4,9.4,4.9c2.1,1.9,3.5,4.1,4.5,6.7c1.5,3.6,2.4,7.4,2.9,11.3c0.2,2.1,0.5,4.2,0.6,6.2c0.2,2.7,0.3,5.4,0.5,8.1
		c0.1,1.8,0.1,3.6,0.1,5.4C177.5,90.5,177.5,90.6,177.6,90.7z M125.6,98.4c-0.3-0.1-0.4-0.2-0.6-0.3c-6.2-3.2-12.3-6.4-18.5-9.6
		c-7.3-3.8-14.5-7.5-21.8-11.3c-0.9-0.5-0.6,0.1-0.6,0.5c0,13.8,0,27.6,0,41.4c0,0.2-0.1,0.5,0.1,0.8c0.2-0.1,0.4-0.2,0.5-0.2
		c4.2-2.2,8.4-4.3,12.5-6.5c2.6-1.4,5.2-2.7,7.9-4.1c4.4-2.3,8.8-4.5,13.1-6.8C120.7,101,123.1,99.7,125.6,98.4z"/>
</g>
</svg>
