<?xml version="1.0" encoding="utf-8"?>
<!-- Generator: Adobe Illustrator 19.2.1, SVG Export Plug-In . SVG Version: 6.00 Build 0)  -->
<svg version="1.1" id="Layer_1" xmlns="http://www.w3.org/2000/svg" xmlns:xlink="http://www.w3.org/1999/xlink" x="0px" y="0px"
	 viewBox="0 0 1023.2 717.1" style="enable-background:new 0 0 1023.2 717.1;" xml:space="preserve">
<style type="text/css">
	.st0{fill:#FEB700;}
	.st1{display:none;fill:#FEFEFE;}
</style>
<g>
	<path class="st0" d="M1023.2,297c0,40.7,0,81.3,0,122c-1,0.3-1,1.2-1,2c-0.1,11.9,0.2,23.9-0.9,35.8c-0.8,8.9-0.3,17.9-1.3,26.8
		c-0.5,5-0.4,9.9-0.9,14.8c-1.2,13.2-2.6,26.5-3.9,39.7c-1,10-1.3,20.1-3.2,29.8c-4.1,21.4-9.7,42.4-18.4,62.6
		c-8.9,20.7-22.3,37.2-40.2,50.4c-19.7,14.5-42.2,21.8-66,24.9c-16.6,2.1-33.4,3.2-50.2,4c-12.2,0.6-24.4,1.5-36.6,2
		c-16,0.6-32.1,1.1-48.1,2.1c-9.4,0.6-18.8-0.1-28.3,0.8c-11.7,1.1-23.5,0-35.3,1c-13.9,1.2-27.8,0-41.8,0.9
		c-20,1.3-40.2,0.8-60.3,0.9c-45.9,0.3-91.9,1.5-137.8-0.6c-20.1-0.9-40.2,0.2-60.3-0.8c-19.9-1-39.9-0.4-59.8-1.3
		c-9.1-0.4-18.2,0.2-27.3-0.8c-11.5-1.2-23.2,0.2-34.8-1.1c-8.7-1-17.5-0.4-26.3-0.9c-15-0.9-30.1-1.2-45.1-2.2
		c-9-0.6-18.1-1.1-27.1-2c-16.4-1.7-32.8-3.6-49-7c-24.5-5.1-46.1-15.9-64.4-33c-11.5-10.8-19.4-24.2-25.6-38.6
		c-9.4-22-15.4-45-18.9-68.5c-2.5-16.7-3.8-33.6-5.1-50.5c-1.1-14.3-2.1-28.6-2.9-42.9c-1-17.5-1.9-35.1-1.9-52.6
		C0.3,374.6-0.8,334.2,1,293.7c0.7-16.5,0.9-33.1,2-49.6c0.9-14.1,2-28.3,3-42.4c1.1-13.9,2.6-27.8,4-41.7
		c1.7-16.3,5.4-32.1,10.2-47.7c8.5-27.6,20-53.2,43.7-71.8C79.1,28.7,95.7,20,114.2,15.1c22.3-5.9,45.4-6.3,68.3-8
		c11.3-0.8,22.7-1.5,34.1-1.9c16-0.7,32.1-1.1,48.1-2.1c9.1-0.6,18.2,0.1,27.3-0.8c11.3-1.2,22.8,0,34.3-1c13.7-1.2,27.5,0,41.3-1
		c20-1.3,40.2-0.8,60.3-0.9C486.6-0.9,545.4-2.2,604.1,0c19.6,0.7,39.2-0.7,58.8,0.9c13.9,1.2,27.8-0.5,41.8,1
		c10.9,1.1,21.8,0.3,32.8,0.9C755,3.7,772.6,4,790.1,4.9c13.7,0.7,27.4,1.2,41.1,2c10.9,0.6,21.7,1.3,32.6,2
		c13.4,0.9,26.7,2.2,39.9,5c23.6,5,44,15.9,61.9,32c13.6,12.3,22.8,27.3,29.6,44.1c9.7,24,15.9,48.9,18.9,74.6
		c1.6,13.7,3,27.4,4,41.2c1.3,17.8,1.8,35.6,3.2,53.4c0.9,11.9,0.8,23.9,0.9,35.8C1022.2,295.8,1022.2,296.7,1023.2,297z M680.6,348
		c-1.8-0.9-2.9-1.4-4-2c-40.6-21.2-81.2-42.4-121.8-63.6c-47.8-24.9-95.7-49.7-143.4-74.8c-5.9-3.1-4.2,0.9-4.2,3.4
		c0,91,0,181.9,0,272.9c0,1.6-0.5,3.3,0.6,5.1c1.2-0.5,2.4-1,3.5-1.6c27.6-14.3,55.1-28.5,82.7-42.8c17.3-8.9,34.5-17.9,51.8-26.8
		c28.9-14.9,57.7-29.9,86.6-44.8C648.2,364.8,664.1,356.6,680.6,348z"/>
	<path class="st1" d="M1203.2,266c-1-0.3-1-1.2-1-2c-0.1-11.9,0-23.9-0.9-35.8c-1.4-17.8-1.9-35.6-3.2-53.4c-1-13.8-2.4-27.5-4-41.2
		c-3-25.7-9.2-50.6-18.9-74.6c-6.8-16.8-16-31.9-29.6-44.1c-17.8-16.1-38.3-27-61.9-32c-13.2-2.8-26.5-4.1-39.9-5
		c-10.9-0.7-21.7-1.4-32.6-2c-13.7-0.8-27.4-1.3-41.1-2c-17.5-0.9-35.1-1.2-52.6-2.1c-11-0.6-21.9,0.2-32.8-0.9
		c-14-1.5-27.9,0.2-41.8-1c-19.6-1.6-39.2-0.2-58.8-0.9c-58.8-2.2-117.5-0.9-176.3-0.6c-20.1,0.1-40.2-0.5-60.3,0.9
		c-13.8,0.9-27.6-0.3-41.3,1c-11.5,1-22.9-0.2-34.3,1c-9.1,1-18.2,0.2-27.3,0.8c-16,1.1-32.1,1.4-48.1,2.1
		c-11.4,0.5-22.8,1.1-34.1,1.9c-22.9,1.7-46,2.1-68.3,8C275.7-11,259.1-2.3,243.9,9.6c-23.7,18.6-35.2,44.2-43.7,71.8
		c-4.8,15.6-8.5,31.4-10.2,47.7c-1.4,13.9-3,27.8-4,41.7c-1.1,14.1-2.1,28.3-3,42.4c-1.1,16.5-1.2,33.1-2,49.6
		c-1.8,40.4-0.7,80.9-0.6,121.3c0,17.5,0.9,35.1,1.9,52.6c0.8,14.3,1.8,28.6,2.9,42.9c1.3,16.9,2.6,33.8,5.1,50.5
		c3.5,23.6,9.5,46.5,18.9,68.5c6.2,14.4,14,27.8,25.6,38.6c18.3,17.1,39.9,27.9,64.4,33c16.2,3.4,32.6,5.3,49,7c9,1,18,1.5,27.1,2
		c15,0.9,30.1,1.3,45.1,2.2c8.8,0.5,17.6-0.1,26.3,0.9c11.6,1.3,23.3-0.1,34.8,1.1c9.1,0.9,18.2,0.4,27.3,0.8
		c19.9,0.9,39.9,0.3,59.8,1.3c20.1,1,40.2-0.1,60.3,0.8c45.9,2.1,91.9,1,137.8,0.6c20.1-0.1,40.2,0.4,60.3-0.9
		c14-0.9,27.9,0.3,41.8-0.9c11.8-1,23.6,0.1,35.3-1c9.5-0.9,18.9-0.2,28.3-0.8c16-1.1,32.1-1.5,48.1-2.1c12.2-0.5,24.4-1.3,36.6-2
		c16.8-0.8,33.5-1.9,50.2-4c23.9-3,46.3-10.4,66-24.9c17.9-13.2,31.4-29.8,40.2-50.4c8.7-20.2,14.3-41.2,18.4-62.6
		c1.9-9.8,2.2-19.9,3.2-29.8c1.3-13.2,2.7-26.5,3.9-39.7c0.4-4.9,0.3-9.9,0.9-14.8c1-8.9,0.5-17.9,1.3-26.8
		c1.1-11.9,0.8-23.9,0.9-35.8c0-0.8,0-1.7,1-2c0,98.7,0,197.3,0.1,296c0,3.3-0.5,4.1-4,4.1c-338.6-0.1-677.2-0.1-1015.8,0
		c-3.8,0-4.3-1-4.3-4.4c0.1-237.3,0.1-474.6,0-711.9c0-3.9,0.6-4.9,4.8-4.9c338.3,0.1,676.6,0.1,1014.8,0c3.9,0,4.5,1,4.5,4.6
		C1203.2,69.7,1203.2,167.9,1203.2,266z"/>
	<path class="st1" d="M860.6,317c-16.5,8.5-32.4,16.8-48.2,25c-28.9,14.9-57.7,29.9-86.6,44.8c-17.3,8.9-34.5,17.9-51.8,26.8
		c-27.6,14.3-55.1,28.5-82.7,42.8c-1.1,0.6-2.3,1-3.5,1.6c-1.1-1.8-0.6-3.5-0.6-5.1c0-91,0-181.9,0-272.9c0-2.5-1.7-6.5,4.2-3.4
		c47.7,25.1,95.6,49.9,143.4,74.8c40.6,21.2,81.2,42.4,121.8,63.6C857.7,315.6,858.9,316.1,860.6,317z"/>
</g>
</svg>
